G04 MADE WITH FRITZING*
G04 WWW.FRITZING.ORG*
G04 DOUBLE SIDED*
G04 HOLES PLATED*
G04 CONTOUR ON CENTER OF CONTOUR VECTOR*
%ASAXBY*%
%FSLAX23Y23*%
%MOIN*%
%OFA0B0*%
%SFA1.0B1.0*%
%ADD10C,0.067559*%
%ADD11C,0.078000*%
%ADD12C,0.048000*%
%LNCOPPER1*%
G90*
G70*
G54D10*
X2382Y1089D03*
X2282Y1089D03*
X2182Y1089D03*
X2082Y1089D03*
X1982Y1089D03*
X1882Y1089D03*
X1782Y1089D03*
X1682Y1089D03*
X1582Y1089D03*
X1482Y1089D03*
X1382Y1089D03*
X1282Y1089D03*
X1182Y1089D03*
X1082Y1089D03*
X982Y1089D03*
X882Y1089D03*
X782Y1089D03*
X682Y1089D03*
X582Y1089D03*
X2382Y89D03*
X2282Y89D03*
X2182Y89D03*
X2082Y89D03*
X1982Y89D03*
X1882Y89D03*
X1782Y89D03*
X1682Y89D03*
X1582Y89D03*
X1482Y89D03*
X1382Y89D03*
X1282Y89D03*
X1182Y89D03*
X1082Y89D03*
X982Y89D03*
X882Y89D03*
X782Y89D03*
X682Y89D03*
X582Y89D03*
X223Y291D03*
X223Y391D03*
X223Y491D03*
X223Y591D03*
X223Y691D03*
X223Y791D03*
X223Y891D03*
X223Y991D03*
G54D11*
X1584Y276D03*
X1588Y688D03*
X1777Y590D03*
X1783Y268D03*
G54D12*
X576Y235D02*
X481Y288D01*
D02*
X481Y288D02*
X236Y291D01*
D02*
X581Y102D02*
X576Y235D01*
D02*
X582Y989D02*
X481Y888D01*
D02*
X481Y888D02*
X236Y891D01*
D02*
X582Y1075D02*
X582Y989D01*
D02*
X1482Y389D02*
X236Y391D01*
D02*
X1684Y390D02*
X1482Y389D01*
D02*
X1682Y102D02*
X1684Y390D01*
D02*
X1882Y789D02*
X236Y791D01*
D02*
X2082Y888D02*
X1882Y789D01*
D02*
X2082Y1075D02*
X2082Y888D01*
D02*
X1338Y488D02*
X236Y491D01*
D02*
X1793Y488D02*
X1338Y488D01*
D02*
X1977Y483D02*
X1793Y488D01*
D02*
X1981Y389D02*
X1977Y483D01*
D02*
X1982Y102D02*
X1981Y389D01*
D02*
X1569Y688D02*
X236Y691D01*
D02*
X1582Y102D02*
X1583Y257D01*
D02*
X1758Y590D02*
X236Y591D01*
D02*
X1782Y102D02*
X1783Y249D01*
D02*
X209Y991D02*
X75Y988D01*
D02*
X75Y988D02*
X71Y290D01*
D02*
X71Y290D02*
X209Y291D01*
G04 End of Copper1*
M02*