G04 MADE WITH FRITZING*
G04 WWW.FRITZING.ORG*
G04 DOUBLE SIDED*
G04 HOLES PLATED*
G04 CONTOUR ON CENTER OF CONTOUR VECTOR*
%ASAXBY*%
%FSLAX23Y23*%
%MOIN*%
%OFA0B0*%
%SFA1.0B1.0*%
%ADD10C,0.010000*%
%ADD11C,0.005000*%
%ADD12R,0.001000X0.001000*%
%LNSILK1*%
G90*
G70*
G54D10*
X2432Y1139D02*
X532Y1139D01*
D02*
X532Y1139D02*
X532Y1039D01*
D02*
X532Y1039D02*
X2432Y1039D01*
D02*
X2432Y1039D02*
X2432Y1139D01*
G54D11*
D02*
X2397Y1139D02*
X2432Y1104D01*
G54D10*
D02*
X2432Y139D02*
X532Y139D01*
D02*
X532Y139D02*
X532Y39D01*
D02*
X532Y39D02*
X2432Y39D01*
D02*
X2432Y39D02*
X2432Y139D01*
G54D11*
D02*
X2397Y139D02*
X2432Y104D01*
G54D10*
D02*
X273Y241D02*
X273Y1041D01*
D02*
X273Y1041D02*
X173Y1041D01*
D02*
X173Y1041D02*
X173Y241D01*
D02*
X173Y241D02*
X273Y241D01*
G54D11*
D02*
X273Y276D02*
X238Y241D01*
G54D10*
D02*
X1534Y326D02*
X1534Y226D01*
D02*
X1534Y226D02*
X1634Y226D01*
D02*
X1634Y226D02*
X1634Y326D01*
D02*
X1634Y326D02*
X1534Y326D01*
D02*
X1538Y738D02*
X1538Y638D01*
D02*
X1538Y638D02*
X1638Y638D01*
D02*
X1638Y638D02*
X1638Y738D01*
D02*
X1638Y738D02*
X1538Y738D01*
D02*
X1727Y640D02*
X1727Y540D01*
D02*
X1727Y540D02*
X1827Y540D01*
D02*
X1827Y540D02*
X1827Y640D01*
D02*
X1827Y640D02*
X1727Y640D01*
D02*
X1733Y318D02*
X1733Y218D01*
D02*
X1733Y218D02*
X1833Y218D01*
D02*
X1833Y218D02*
X1833Y318D01*
D02*
X1833Y318D02*
X1733Y318D01*
G54D12*
X1Y1179D02*
X2472Y1179D01*
X1Y1178D02*
X2472Y1178D01*
X1Y1177D02*
X2472Y1177D01*
X1Y1176D02*
X2472Y1176D01*
X1Y1175D02*
X2472Y1175D01*
X1Y1174D02*
X2472Y1174D01*
X1Y1173D02*
X2472Y1173D01*
X1Y1172D02*
X2472Y1172D01*
X1Y1171D02*
X8Y1171D01*
X2465Y1171D02*
X2472Y1171D01*
X1Y1170D02*
X8Y1170D01*
X2465Y1170D02*
X2472Y1170D01*
X1Y1169D02*
X8Y1169D01*
X2465Y1169D02*
X2472Y1169D01*
X1Y1168D02*
X8Y1168D01*
X2465Y1168D02*
X2472Y1168D01*
X1Y1167D02*
X8Y1167D01*
X2465Y1167D02*
X2472Y1167D01*
X1Y1166D02*
X8Y1166D01*
X2465Y1166D02*
X2472Y1166D01*
X1Y1165D02*
X8Y1165D01*
X2465Y1165D02*
X2472Y1165D01*
X1Y1164D02*
X8Y1164D01*
X2465Y1164D02*
X2472Y1164D01*
X1Y1163D02*
X8Y1163D01*
X2465Y1163D02*
X2472Y1163D01*
X1Y1162D02*
X8Y1162D01*
X2465Y1162D02*
X2472Y1162D01*
X1Y1161D02*
X8Y1161D01*
X2465Y1161D02*
X2472Y1161D01*
X1Y1160D02*
X8Y1160D01*
X2465Y1160D02*
X2472Y1160D01*
X1Y1159D02*
X8Y1159D01*
X2465Y1159D02*
X2472Y1159D01*
X1Y1158D02*
X8Y1158D01*
X2465Y1158D02*
X2472Y1158D01*
X1Y1157D02*
X8Y1157D01*
X2465Y1157D02*
X2472Y1157D01*
X1Y1156D02*
X8Y1156D01*
X2465Y1156D02*
X2472Y1156D01*
X1Y1155D02*
X8Y1155D01*
X2465Y1155D02*
X2472Y1155D01*
X1Y1154D02*
X8Y1154D01*
X2465Y1154D02*
X2472Y1154D01*
X1Y1153D02*
X8Y1153D01*
X2465Y1153D02*
X2472Y1153D01*
X1Y1152D02*
X8Y1152D01*
X2465Y1152D02*
X2472Y1152D01*
X1Y1151D02*
X8Y1151D01*
X2465Y1151D02*
X2472Y1151D01*
X1Y1150D02*
X8Y1150D01*
X2465Y1150D02*
X2472Y1150D01*
X1Y1149D02*
X8Y1149D01*
X2465Y1149D02*
X2472Y1149D01*
X1Y1148D02*
X8Y1148D01*
X2465Y1148D02*
X2472Y1148D01*
X1Y1147D02*
X8Y1147D01*
X2465Y1147D02*
X2472Y1147D01*
X1Y1146D02*
X8Y1146D01*
X2465Y1146D02*
X2472Y1146D01*
X1Y1145D02*
X8Y1145D01*
X2465Y1145D02*
X2472Y1145D01*
X1Y1144D02*
X8Y1144D01*
X2465Y1144D02*
X2472Y1144D01*
X1Y1143D02*
X8Y1143D01*
X2465Y1143D02*
X2472Y1143D01*
X1Y1142D02*
X8Y1142D01*
X2465Y1142D02*
X2472Y1142D01*
X1Y1141D02*
X8Y1141D01*
X2465Y1141D02*
X2472Y1141D01*
X1Y1140D02*
X8Y1140D01*
X2465Y1140D02*
X2472Y1140D01*
X1Y1139D02*
X8Y1139D01*
X2465Y1139D02*
X2472Y1139D01*
X1Y1138D02*
X8Y1138D01*
X2465Y1138D02*
X2472Y1138D01*
X1Y1137D02*
X8Y1137D01*
X2465Y1137D02*
X2472Y1137D01*
X1Y1136D02*
X8Y1136D01*
X2465Y1136D02*
X2472Y1136D01*
X1Y1135D02*
X8Y1135D01*
X2465Y1135D02*
X2472Y1135D01*
X1Y1134D02*
X8Y1134D01*
X2465Y1134D02*
X2472Y1134D01*
X1Y1133D02*
X8Y1133D01*
X2465Y1133D02*
X2472Y1133D01*
X1Y1132D02*
X8Y1132D01*
X2465Y1132D02*
X2472Y1132D01*
X1Y1131D02*
X8Y1131D01*
X2465Y1131D02*
X2472Y1131D01*
X1Y1130D02*
X8Y1130D01*
X2465Y1130D02*
X2472Y1130D01*
X1Y1129D02*
X8Y1129D01*
X2465Y1129D02*
X2472Y1129D01*
X1Y1128D02*
X8Y1128D01*
X2465Y1128D02*
X2472Y1128D01*
X1Y1127D02*
X8Y1127D01*
X2465Y1127D02*
X2472Y1127D01*
X1Y1126D02*
X8Y1126D01*
X2465Y1126D02*
X2472Y1126D01*
X1Y1125D02*
X8Y1125D01*
X2465Y1125D02*
X2472Y1125D01*
X1Y1124D02*
X8Y1124D01*
X2465Y1124D02*
X2472Y1124D01*
X1Y1123D02*
X8Y1123D01*
X2465Y1123D02*
X2472Y1123D01*
X1Y1122D02*
X8Y1122D01*
X2465Y1122D02*
X2472Y1122D01*
X1Y1121D02*
X8Y1121D01*
X2465Y1121D02*
X2472Y1121D01*
X1Y1120D02*
X8Y1120D01*
X2465Y1120D02*
X2472Y1120D01*
X1Y1119D02*
X8Y1119D01*
X2465Y1119D02*
X2472Y1119D01*
X1Y1118D02*
X8Y1118D01*
X2465Y1118D02*
X2472Y1118D01*
X1Y1117D02*
X8Y1117D01*
X2465Y1117D02*
X2472Y1117D01*
X1Y1116D02*
X8Y1116D01*
X2465Y1116D02*
X2472Y1116D01*
X1Y1115D02*
X8Y1115D01*
X2465Y1115D02*
X2472Y1115D01*
X1Y1114D02*
X8Y1114D01*
X2465Y1114D02*
X2472Y1114D01*
X1Y1113D02*
X8Y1113D01*
X2465Y1113D02*
X2472Y1113D01*
X1Y1112D02*
X8Y1112D01*
X2465Y1112D02*
X2472Y1112D01*
X1Y1111D02*
X8Y1111D01*
X2465Y1111D02*
X2472Y1111D01*
X1Y1110D02*
X8Y1110D01*
X2465Y1110D02*
X2472Y1110D01*
X1Y1109D02*
X8Y1109D01*
X2465Y1109D02*
X2472Y1109D01*
X1Y1108D02*
X8Y1108D01*
X2465Y1108D02*
X2472Y1108D01*
X1Y1107D02*
X8Y1107D01*
X2465Y1107D02*
X2472Y1107D01*
X1Y1106D02*
X8Y1106D01*
X2465Y1106D02*
X2472Y1106D01*
X1Y1105D02*
X8Y1105D01*
X2465Y1105D02*
X2472Y1105D01*
X1Y1104D02*
X8Y1104D01*
X2465Y1104D02*
X2472Y1104D01*
X1Y1103D02*
X8Y1103D01*
X2465Y1103D02*
X2472Y1103D01*
X1Y1102D02*
X8Y1102D01*
X2465Y1102D02*
X2472Y1102D01*
X1Y1101D02*
X8Y1101D01*
X2465Y1101D02*
X2472Y1101D01*
X1Y1100D02*
X8Y1100D01*
X2465Y1100D02*
X2472Y1100D01*
X1Y1099D02*
X8Y1099D01*
X2465Y1099D02*
X2472Y1099D01*
X1Y1098D02*
X8Y1098D01*
X2465Y1098D02*
X2472Y1098D01*
X1Y1097D02*
X8Y1097D01*
X2465Y1097D02*
X2472Y1097D01*
X1Y1096D02*
X8Y1096D01*
X2465Y1096D02*
X2472Y1096D01*
X1Y1095D02*
X8Y1095D01*
X2465Y1095D02*
X2472Y1095D01*
X1Y1094D02*
X8Y1094D01*
X2465Y1094D02*
X2472Y1094D01*
X1Y1093D02*
X8Y1093D01*
X2465Y1093D02*
X2472Y1093D01*
X1Y1092D02*
X8Y1092D01*
X2465Y1092D02*
X2472Y1092D01*
X1Y1091D02*
X8Y1091D01*
X2465Y1091D02*
X2472Y1091D01*
X1Y1090D02*
X8Y1090D01*
X2465Y1090D02*
X2472Y1090D01*
X1Y1089D02*
X8Y1089D01*
X2465Y1089D02*
X2472Y1089D01*
X1Y1088D02*
X8Y1088D01*
X2465Y1088D02*
X2472Y1088D01*
X1Y1087D02*
X8Y1087D01*
X2465Y1087D02*
X2472Y1087D01*
X1Y1086D02*
X8Y1086D01*
X2465Y1086D02*
X2472Y1086D01*
X1Y1085D02*
X8Y1085D01*
X2465Y1085D02*
X2472Y1085D01*
X1Y1084D02*
X8Y1084D01*
X2465Y1084D02*
X2472Y1084D01*
X1Y1083D02*
X8Y1083D01*
X2465Y1083D02*
X2472Y1083D01*
X1Y1082D02*
X8Y1082D01*
X2465Y1082D02*
X2472Y1082D01*
X1Y1081D02*
X8Y1081D01*
X2465Y1081D02*
X2472Y1081D01*
X1Y1080D02*
X8Y1080D01*
X2465Y1080D02*
X2472Y1080D01*
X1Y1079D02*
X8Y1079D01*
X2465Y1079D02*
X2472Y1079D01*
X1Y1078D02*
X8Y1078D01*
X2465Y1078D02*
X2472Y1078D01*
X1Y1077D02*
X8Y1077D01*
X2465Y1077D02*
X2472Y1077D01*
X1Y1076D02*
X8Y1076D01*
X2465Y1076D02*
X2472Y1076D01*
X1Y1075D02*
X8Y1075D01*
X2465Y1075D02*
X2472Y1075D01*
X1Y1074D02*
X8Y1074D01*
X2465Y1074D02*
X2472Y1074D01*
X1Y1073D02*
X8Y1073D01*
X2465Y1073D02*
X2472Y1073D01*
X1Y1072D02*
X8Y1072D01*
X2465Y1072D02*
X2472Y1072D01*
X1Y1071D02*
X8Y1071D01*
X2465Y1071D02*
X2472Y1071D01*
X1Y1070D02*
X8Y1070D01*
X2465Y1070D02*
X2472Y1070D01*
X1Y1069D02*
X8Y1069D01*
X2465Y1069D02*
X2472Y1069D01*
X1Y1068D02*
X8Y1068D01*
X2465Y1068D02*
X2472Y1068D01*
X1Y1067D02*
X8Y1067D01*
X2465Y1067D02*
X2472Y1067D01*
X1Y1066D02*
X8Y1066D01*
X2465Y1066D02*
X2472Y1066D01*
X1Y1065D02*
X8Y1065D01*
X2465Y1065D02*
X2472Y1065D01*
X1Y1064D02*
X8Y1064D01*
X2465Y1064D02*
X2472Y1064D01*
X1Y1063D02*
X8Y1063D01*
X2465Y1063D02*
X2472Y1063D01*
X1Y1062D02*
X8Y1062D01*
X2465Y1062D02*
X2472Y1062D01*
X1Y1061D02*
X8Y1061D01*
X2465Y1061D02*
X2472Y1061D01*
X1Y1060D02*
X8Y1060D01*
X2465Y1060D02*
X2472Y1060D01*
X1Y1059D02*
X8Y1059D01*
X2465Y1059D02*
X2472Y1059D01*
X1Y1058D02*
X8Y1058D01*
X2465Y1058D02*
X2472Y1058D01*
X1Y1057D02*
X8Y1057D01*
X2465Y1057D02*
X2472Y1057D01*
X1Y1056D02*
X8Y1056D01*
X2465Y1056D02*
X2472Y1056D01*
X1Y1055D02*
X8Y1055D01*
X2465Y1055D02*
X2472Y1055D01*
X1Y1054D02*
X8Y1054D01*
X2465Y1054D02*
X2472Y1054D01*
X1Y1053D02*
X8Y1053D01*
X2465Y1053D02*
X2472Y1053D01*
X1Y1052D02*
X8Y1052D01*
X2465Y1052D02*
X2472Y1052D01*
X1Y1051D02*
X8Y1051D01*
X2465Y1051D02*
X2472Y1051D01*
X1Y1050D02*
X8Y1050D01*
X2465Y1050D02*
X2472Y1050D01*
X1Y1049D02*
X8Y1049D01*
X2465Y1049D02*
X2472Y1049D01*
X1Y1048D02*
X8Y1048D01*
X2465Y1048D02*
X2472Y1048D01*
X1Y1047D02*
X8Y1047D01*
X2465Y1047D02*
X2472Y1047D01*
X1Y1046D02*
X8Y1046D01*
X2465Y1046D02*
X2472Y1046D01*
X1Y1045D02*
X8Y1045D01*
X2465Y1045D02*
X2472Y1045D01*
X1Y1044D02*
X8Y1044D01*
X2465Y1044D02*
X2472Y1044D01*
X1Y1043D02*
X8Y1043D01*
X2465Y1043D02*
X2472Y1043D01*
X1Y1042D02*
X8Y1042D01*
X2465Y1042D02*
X2472Y1042D01*
X1Y1041D02*
X8Y1041D01*
X2465Y1041D02*
X2472Y1041D01*
X1Y1040D02*
X8Y1040D01*
X2465Y1040D02*
X2472Y1040D01*
X1Y1039D02*
X8Y1039D01*
X2465Y1039D02*
X2472Y1039D01*
X1Y1038D02*
X8Y1038D01*
X2465Y1038D02*
X2472Y1038D01*
X1Y1037D02*
X8Y1037D01*
X2465Y1037D02*
X2472Y1037D01*
X1Y1036D02*
X8Y1036D01*
X2465Y1036D02*
X2472Y1036D01*
X1Y1035D02*
X8Y1035D01*
X2465Y1035D02*
X2472Y1035D01*
X1Y1034D02*
X8Y1034D01*
X2465Y1034D02*
X2472Y1034D01*
X1Y1033D02*
X8Y1033D01*
X2465Y1033D02*
X2472Y1033D01*
X1Y1032D02*
X8Y1032D01*
X2465Y1032D02*
X2472Y1032D01*
X1Y1031D02*
X8Y1031D01*
X2465Y1031D02*
X2472Y1031D01*
X1Y1030D02*
X8Y1030D01*
X2465Y1030D02*
X2472Y1030D01*
X1Y1029D02*
X8Y1029D01*
X2465Y1029D02*
X2472Y1029D01*
X1Y1028D02*
X8Y1028D01*
X2465Y1028D02*
X2472Y1028D01*
X1Y1027D02*
X8Y1027D01*
X2465Y1027D02*
X2472Y1027D01*
X1Y1026D02*
X8Y1026D01*
X2465Y1026D02*
X2472Y1026D01*
X1Y1025D02*
X8Y1025D01*
X2465Y1025D02*
X2472Y1025D01*
X1Y1024D02*
X8Y1024D01*
X2465Y1024D02*
X2472Y1024D01*
X1Y1023D02*
X8Y1023D01*
X2465Y1023D02*
X2472Y1023D01*
X1Y1022D02*
X8Y1022D01*
X2465Y1022D02*
X2472Y1022D01*
X1Y1021D02*
X8Y1021D01*
X2465Y1021D02*
X2472Y1021D01*
X1Y1020D02*
X8Y1020D01*
X2465Y1020D02*
X2472Y1020D01*
X1Y1019D02*
X8Y1019D01*
X2465Y1019D02*
X2472Y1019D01*
X1Y1018D02*
X8Y1018D01*
X2465Y1018D02*
X2472Y1018D01*
X1Y1017D02*
X8Y1017D01*
X2465Y1017D02*
X2472Y1017D01*
X1Y1016D02*
X8Y1016D01*
X2465Y1016D02*
X2472Y1016D01*
X1Y1015D02*
X8Y1015D01*
X2059Y1015D02*
X2060Y1015D01*
X2100Y1015D02*
X2101Y1015D01*
X2465Y1015D02*
X2472Y1015D01*
X1Y1014D02*
X8Y1014D01*
X2057Y1014D02*
X2061Y1014D01*
X2099Y1014D02*
X2102Y1014D01*
X2465Y1014D02*
X2472Y1014D01*
X1Y1013D02*
X8Y1013D01*
X2057Y1013D02*
X2062Y1013D01*
X2098Y1013D02*
X2103Y1013D01*
X2465Y1013D02*
X2472Y1013D01*
X1Y1012D02*
X8Y1012D01*
X467Y1012D02*
X468Y1012D01*
X492Y1012D02*
X493Y1012D01*
X523Y1012D02*
X536Y1012D01*
X567Y1012D02*
X580Y1012D01*
X2057Y1012D02*
X2062Y1012D01*
X2098Y1012D02*
X2103Y1012D01*
X2465Y1012D02*
X2472Y1012D01*
X1Y1011D02*
X8Y1011D01*
X466Y1011D02*
X470Y1011D01*
X490Y1011D02*
X494Y1011D01*
X521Y1011D02*
X538Y1011D01*
X564Y1011D02*
X581Y1011D01*
X2057Y1011D02*
X2062Y1011D01*
X2098Y1011D02*
X2103Y1011D01*
X2465Y1011D02*
X2472Y1011D01*
X1Y1010D02*
X8Y1010D01*
X466Y1010D02*
X470Y1010D01*
X490Y1010D02*
X494Y1010D01*
X519Y1010D02*
X538Y1010D01*
X563Y1010D02*
X582Y1010D01*
X2057Y1010D02*
X2062Y1010D01*
X2098Y1010D02*
X2103Y1010D01*
X2465Y1010D02*
X2472Y1010D01*
X1Y1009D02*
X8Y1009D01*
X465Y1009D02*
X471Y1009D01*
X490Y1009D02*
X495Y1009D01*
X518Y1009D02*
X538Y1009D01*
X562Y1009D02*
X582Y1009D01*
X2057Y1009D02*
X2062Y1009D01*
X2098Y1009D02*
X2103Y1009D01*
X2465Y1009D02*
X2472Y1009D01*
X1Y1008D02*
X8Y1008D01*
X465Y1008D02*
X471Y1008D01*
X489Y1008D02*
X495Y1008D01*
X517Y1008D02*
X538Y1008D01*
X561Y1008D02*
X582Y1008D01*
X2057Y1008D02*
X2062Y1008D01*
X2098Y1008D02*
X2103Y1008D01*
X2465Y1008D02*
X2472Y1008D01*
X1Y1007D02*
X8Y1007D01*
X465Y1007D02*
X471Y1007D01*
X489Y1007D02*
X495Y1007D01*
X517Y1007D02*
X537Y1007D01*
X560Y1007D02*
X581Y1007D01*
X2057Y1007D02*
X2062Y1007D01*
X2098Y1007D02*
X2103Y1007D01*
X2465Y1007D02*
X2472Y1007D01*
X1Y1006D02*
X8Y1006D01*
X465Y1006D02*
X471Y1006D01*
X489Y1006D02*
X495Y1006D01*
X516Y1006D02*
X523Y1006D01*
X560Y1006D02*
X567Y1006D01*
X2057Y1006D02*
X2062Y1006D01*
X2098Y1006D02*
X2103Y1006D01*
X2465Y1006D02*
X2472Y1006D01*
X1Y1005D02*
X8Y1005D01*
X465Y1005D02*
X471Y1005D01*
X489Y1005D02*
X495Y1005D01*
X516Y1005D02*
X522Y1005D01*
X559Y1005D02*
X566Y1005D01*
X2057Y1005D02*
X2062Y1005D01*
X2098Y1005D02*
X2103Y1005D01*
X2465Y1005D02*
X2472Y1005D01*
X1Y1004D02*
X8Y1004D01*
X465Y1004D02*
X471Y1004D01*
X489Y1004D02*
X495Y1004D01*
X515Y1004D02*
X521Y1004D01*
X559Y1004D02*
X565Y1004D01*
X2057Y1004D02*
X2062Y1004D01*
X2098Y1004D02*
X2103Y1004D01*
X2465Y1004D02*
X2472Y1004D01*
X1Y1003D02*
X8Y1003D01*
X465Y1003D02*
X471Y1003D01*
X489Y1003D02*
X495Y1003D01*
X515Y1003D02*
X521Y1003D01*
X559Y1003D02*
X564Y1003D01*
X2057Y1003D02*
X2103Y1003D01*
X2465Y1003D02*
X2472Y1003D01*
X1Y1002D02*
X8Y1002D01*
X465Y1002D02*
X471Y1002D01*
X489Y1002D02*
X495Y1002D01*
X514Y1002D02*
X520Y1002D01*
X558Y1002D02*
X564Y1002D01*
X2057Y1002D02*
X2103Y1002D01*
X2465Y1002D02*
X2472Y1002D01*
X1Y1001D02*
X8Y1001D01*
X465Y1001D02*
X471Y1001D01*
X489Y1001D02*
X495Y1001D01*
X514Y1001D02*
X520Y1001D01*
X558Y1001D02*
X563Y1001D01*
X2057Y1001D02*
X2103Y1001D01*
X2465Y1001D02*
X2472Y1001D01*
X1Y1000D02*
X8Y1000D01*
X465Y1000D02*
X471Y1000D01*
X489Y1000D02*
X495Y1000D01*
X513Y1000D02*
X519Y1000D01*
X557Y1000D02*
X563Y1000D01*
X2057Y1000D02*
X2103Y1000D01*
X2465Y1000D02*
X2472Y1000D01*
X1Y999D02*
X8Y999D01*
X465Y999D02*
X471Y999D01*
X489Y999D02*
X495Y999D01*
X513Y999D02*
X519Y999D01*
X557Y999D02*
X562Y999D01*
X2057Y999D02*
X2103Y999D01*
X2465Y999D02*
X2472Y999D01*
X1Y998D02*
X8Y998D01*
X466Y998D02*
X471Y998D01*
X489Y998D02*
X494Y998D01*
X512Y998D02*
X518Y998D01*
X556Y998D02*
X562Y998D01*
X2057Y998D02*
X2103Y998D01*
X2465Y998D02*
X2472Y998D01*
X1Y997D02*
X8Y997D01*
X466Y997D02*
X472Y997D01*
X489Y997D02*
X494Y997D01*
X512Y997D02*
X518Y997D01*
X556Y997D02*
X561Y997D01*
X2057Y997D02*
X2062Y997D01*
X2465Y997D02*
X2472Y997D01*
X1Y996D02*
X8Y996D01*
X466Y996D02*
X472Y996D01*
X488Y996D02*
X494Y996D01*
X511Y996D02*
X517Y996D01*
X555Y996D02*
X561Y996D01*
X2057Y996D02*
X2062Y996D01*
X2465Y996D02*
X2472Y996D01*
X1Y995D02*
X8Y995D01*
X467Y995D02*
X472Y995D01*
X488Y995D02*
X493Y995D01*
X511Y995D02*
X517Y995D01*
X555Y995D02*
X560Y995D01*
X2057Y995D02*
X2062Y995D01*
X2465Y995D02*
X2472Y995D01*
X1Y994D02*
X8Y994D01*
X467Y994D02*
X473Y994D01*
X487Y994D02*
X493Y994D01*
X510Y994D02*
X516Y994D01*
X554Y994D02*
X560Y994D01*
X2057Y994D02*
X2062Y994D01*
X2465Y994D02*
X2472Y994D01*
X1Y993D02*
X8Y993D01*
X467Y993D02*
X473Y993D01*
X487Y993D02*
X493Y993D01*
X510Y993D02*
X516Y993D01*
X554Y993D02*
X559Y993D01*
X2057Y993D02*
X2062Y993D01*
X2465Y993D02*
X2472Y993D01*
X1Y992D02*
X8Y992D01*
X468Y992D02*
X473Y992D01*
X487Y992D02*
X492Y992D01*
X510Y992D02*
X515Y992D01*
X553Y992D02*
X559Y992D01*
X2057Y992D02*
X2062Y992D01*
X2465Y992D02*
X2472Y992D01*
X1Y991D02*
X8Y991D01*
X468Y991D02*
X474Y991D01*
X486Y991D02*
X492Y991D01*
X510Y991D02*
X515Y991D01*
X553Y991D02*
X559Y991D01*
X2057Y991D02*
X2075Y991D01*
X2465Y991D02*
X2472Y991D01*
X1Y990D02*
X8Y990D01*
X469Y990D02*
X474Y990D01*
X486Y990D02*
X491Y990D01*
X509Y990D02*
X515Y990D01*
X553Y990D02*
X558Y990D01*
X2057Y990D02*
X2077Y990D01*
X2465Y990D02*
X2472Y990D01*
X1Y989D02*
X8Y989D01*
X469Y989D02*
X475Y989D01*
X485Y989D02*
X491Y989D01*
X509Y989D02*
X514Y989D01*
X553Y989D02*
X558Y989D01*
X2057Y989D02*
X2077Y989D01*
X2465Y989D02*
X2472Y989D01*
X1Y988D02*
X8Y988D01*
X469Y988D02*
X475Y988D01*
X485Y988D02*
X491Y988D01*
X509Y988D02*
X514Y988D01*
X553Y988D02*
X558Y988D01*
X2057Y988D02*
X2077Y988D01*
X2465Y988D02*
X2472Y988D01*
X1Y987D02*
X8Y987D01*
X470Y987D02*
X475Y987D01*
X485Y987D02*
X490Y987D01*
X509Y987D02*
X515Y987D01*
X553Y987D02*
X558Y987D01*
X2057Y987D02*
X2077Y987D01*
X2465Y987D02*
X2472Y987D01*
X1Y986D02*
X8Y986D01*
X470Y986D02*
X476Y986D01*
X484Y986D02*
X490Y986D01*
X510Y986D02*
X515Y986D01*
X553Y986D02*
X559Y986D01*
X2058Y986D02*
X2076Y986D01*
X2465Y986D02*
X2472Y986D01*
X1Y985D02*
X8Y985D01*
X471Y985D02*
X476Y985D01*
X484Y985D02*
X489Y985D01*
X510Y985D02*
X515Y985D01*
X554Y985D02*
X559Y985D01*
X2465Y985D02*
X2472Y985D01*
X1Y984D02*
X8Y984D01*
X471Y984D02*
X477Y984D01*
X483Y984D02*
X489Y984D01*
X510Y984D02*
X516Y984D01*
X554Y984D02*
X559Y984D01*
X2465Y984D02*
X2472Y984D01*
X1Y983D02*
X8Y983D01*
X471Y983D02*
X477Y983D01*
X483Y983D02*
X489Y983D01*
X510Y983D02*
X516Y983D01*
X554Y983D02*
X560Y983D01*
X2465Y983D02*
X2472Y983D01*
X1Y982D02*
X8Y982D01*
X472Y982D02*
X477Y982D01*
X483Y982D02*
X488Y982D01*
X511Y982D02*
X517Y982D01*
X555Y982D02*
X560Y982D01*
X2465Y982D02*
X2472Y982D01*
X1Y981D02*
X8Y981D01*
X472Y981D02*
X478Y981D01*
X482Y981D02*
X488Y981D01*
X511Y981D02*
X517Y981D01*
X555Y981D02*
X561Y981D01*
X2465Y981D02*
X2472Y981D01*
X1Y980D02*
X8Y980D01*
X473Y980D02*
X478Y980D01*
X482Y980D02*
X487Y980D01*
X512Y980D02*
X518Y980D01*
X556Y980D02*
X561Y980D01*
X2465Y980D02*
X2472Y980D01*
X1Y979D02*
X8Y979D01*
X473Y979D02*
X479Y979D01*
X481Y979D02*
X487Y979D01*
X512Y979D02*
X518Y979D01*
X556Y979D02*
X562Y979D01*
X2465Y979D02*
X2472Y979D01*
X1Y978D02*
X8Y978D01*
X473Y978D02*
X479Y978D01*
X481Y978D02*
X487Y978D01*
X513Y978D02*
X519Y978D01*
X557Y978D02*
X563Y978D01*
X2465Y978D02*
X2472Y978D01*
X1Y977D02*
X8Y977D01*
X474Y977D02*
X486Y977D01*
X513Y977D02*
X519Y977D01*
X557Y977D02*
X563Y977D01*
X2465Y977D02*
X2472Y977D01*
X1Y976D02*
X8Y976D01*
X474Y976D02*
X486Y976D01*
X514Y976D02*
X520Y976D01*
X558Y976D02*
X564Y976D01*
X2465Y976D02*
X2472Y976D01*
X1Y975D02*
X8Y975D01*
X474Y975D02*
X486Y975D01*
X514Y975D02*
X520Y975D01*
X558Y975D02*
X564Y975D01*
X2465Y975D02*
X2472Y975D01*
X1Y974D02*
X8Y974D01*
X475Y974D02*
X485Y974D01*
X515Y974D02*
X521Y974D01*
X559Y974D02*
X565Y974D01*
X2465Y974D02*
X2472Y974D01*
X1Y973D02*
X8Y973D01*
X475Y973D02*
X485Y973D01*
X515Y973D02*
X521Y973D01*
X559Y973D02*
X565Y973D01*
X2465Y973D02*
X2472Y973D01*
X1Y972D02*
X8Y972D01*
X476Y972D02*
X484Y972D01*
X516Y972D02*
X522Y972D01*
X560Y972D02*
X566Y972D01*
X2465Y972D02*
X2472Y972D01*
X1Y971D02*
X8Y971D01*
X476Y971D02*
X484Y971D01*
X516Y971D02*
X536Y971D01*
X560Y971D02*
X580Y971D01*
X2061Y971D02*
X2063Y971D01*
X2465Y971D02*
X2472Y971D01*
X1Y970D02*
X8Y970D01*
X476Y970D02*
X484Y970D01*
X517Y970D02*
X538Y970D01*
X561Y970D02*
X581Y970D01*
X2060Y970D02*
X2064Y970D01*
X2465Y970D02*
X2472Y970D01*
X1Y969D02*
X8Y969D01*
X477Y969D02*
X483Y969D01*
X518Y969D02*
X538Y969D01*
X561Y969D02*
X582Y969D01*
X2059Y969D02*
X2064Y969D01*
X2465Y969D02*
X2472Y969D01*
X1Y968D02*
X8Y968D01*
X477Y968D02*
X483Y968D01*
X518Y968D02*
X538Y968D01*
X562Y968D02*
X582Y968D01*
X2059Y968D02*
X2064Y968D01*
X2465Y968D02*
X2472Y968D01*
X1Y967D02*
X8Y967D01*
X478Y967D02*
X482Y967D01*
X519Y967D02*
X538Y967D01*
X563Y967D02*
X582Y967D01*
X2058Y967D02*
X2064Y967D01*
X2465Y967D02*
X2472Y967D01*
X1Y966D02*
X8Y966D01*
X478Y966D02*
X482Y966D01*
X521Y966D02*
X538Y966D01*
X565Y966D02*
X581Y966D01*
X2058Y966D02*
X2064Y966D01*
X2465Y966D02*
X2472Y966D01*
X1Y965D02*
X8Y965D01*
X525Y965D02*
X535Y965D01*
X569Y965D02*
X579Y965D01*
X2057Y965D02*
X2063Y965D01*
X2077Y965D02*
X2103Y965D01*
X2465Y965D02*
X2472Y965D01*
X1Y964D02*
X8Y964D01*
X2057Y964D02*
X2063Y964D01*
X2077Y964D02*
X2103Y964D01*
X2465Y964D02*
X2472Y964D01*
X1Y963D02*
X8Y963D01*
X2057Y963D02*
X2062Y963D01*
X2077Y963D02*
X2103Y963D01*
X2465Y963D02*
X2472Y963D01*
X1Y962D02*
X8Y962D01*
X2057Y962D02*
X2062Y962D01*
X2077Y962D02*
X2103Y962D01*
X2465Y962D02*
X2472Y962D01*
X1Y961D02*
X8Y961D01*
X2057Y961D02*
X2062Y961D01*
X2077Y961D02*
X2103Y961D01*
X2465Y961D02*
X2472Y961D01*
X1Y960D02*
X8Y960D01*
X2057Y960D02*
X2062Y960D01*
X2077Y960D02*
X2103Y960D01*
X2465Y960D02*
X2472Y960D01*
X1Y959D02*
X8Y959D01*
X2057Y959D02*
X2062Y959D01*
X2077Y959D02*
X2083Y959D01*
X2098Y959D02*
X2103Y959D01*
X2465Y959D02*
X2472Y959D01*
X1Y958D02*
X8Y958D01*
X2057Y958D02*
X2062Y958D01*
X2077Y958D02*
X2082Y958D01*
X2098Y958D02*
X2103Y958D01*
X2465Y958D02*
X2472Y958D01*
X1Y957D02*
X8Y957D01*
X2057Y957D02*
X2062Y957D01*
X2077Y957D02*
X2082Y957D01*
X2098Y957D02*
X2103Y957D01*
X2465Y957D02*
X2472Y957D01*
X1Y956D02*
X8Y956D01*
X2057Y956D02*
X2062Y956D01*
X2077Y956D02*
X2082Y956D01*
X2098Y956D02*
X2103Y956D01*
X2465Y956D02*
X2472Y956D01*
X1Y955D02*
X8Y955D01*
X2057Y955D02*
X2062Y955D01*
X2077Y955D02*
X2082Y955D01*
X2098Y955D02*
X2103Y955D01*
X2465Y955D02*
X2472Y955D01*
X1Y954D02*
X8Y954D01*
X2057Y954D02*
X2062Y954D01*
X2077Y954D02*
X2082Y954D01*
X2098Y954D02*
X2103Y954D01*
X2465Y954D02*
X2472Y954D01*
X1Y953D02*
X8Y953D01*
X2057Y953D02*
X2062Y953D01*
X2077Y953D02*
X2082Y953D01*
X2098Y953D02*
X2103Y953D01*
X2465Y953D02*
X2472Y953D01*
X1Y952D02*
X8Y952D01*
X2057Y952D02*
X2062Y952D01*
X2077Y952D02*
X2082Y952D01*
X2098Y952D02*
X2103Y952D01*
X2465Y952D02*
X2472Y952D01*
X1Y951D02*
X8Y951D01*
X2057Y951D02*
X2062Y951D01*
X2077Y951D02*
X2082Y951D01*
X2098Y951D02*
X2103Y951D01*
X2465Y951D02*
X2472Y951D01*
X1Y950D02*
X8Y950D01*
X2057Y950D02*
X2062Y950D01*
X2077Y950D02*
X2082Y950D01*
X2098Y950D02*
X2103Y950D01*
X2465Y950D02*
X2472Y950D01*
X1Y949D02*
X8Y949D01*
X2057Y949D02*
X2062Y949D01*
X2077Y949D02*
X2082Y949D01*
X2098Y949D02*
X2103Y949D01*
X2465Y949D02*
X2472Y949D01*
X1Y948D02*
X8Y948D01*
X2057Y948D02*
X2062Y948D01*
X2077Y948D02*
X2082Y948D01*
X2098Y948D02*
X2103Y948D01*
X2465Y948D02*
X2472Y948D01*
X1Y947D02*
X8Y947D01*
X2057Y947D02*
X2082Y947D01*
X2098Y947D02*
X2103Y947D01*
X2465Y947D02*
X2472Y947D01*
X1Y946D02*
X8Y946D01*
X2057Y946D02*
X2082Y946D01*
X2098Y946D02*
X2103Y946D01*
X2465Y946D02*
X2472Y946D01*
X1Y945D02*
X8Y945D01*
X2057Y945D02*
X2082Y945D01*
X2098Y945D02*
X2103Y945D01*
X2465Y945D02*
X2472Y945D01*
X1Y944D02*
X8Y944D01*
X2058Y944D02*
X2081Y944D01*
X2098Y944D02*
X2103Y944D01*
X2465Y944D02*
X2472Y944D01*
X1Y943D02*
X8Y943D01*
X2059Y943D02*
X2080Y943D01*
X2098Y943D02*
X2103Y943D01*
X2465Y943D02*
X2472Y943D01*
X1Y942D02*
X8Y942D01*
X2060Y942D02*
X2079Y942D01*
X2099Y942D02*
X2102Y942D01*
X2465Y942D02*
X2472Y942D01*
X1Y941D02*
X8Y941D01*
X2465Y941D02*
X2472Y941D01*
X1Y940D02*
X8Y940D01*
X2465Y940D02*
X2472Y940D01*
X1Y939D02*
X8Y939D01*
X2465Y939D02*
X2472Y939D01*
X1Y938D02*
X8Y938D01*
X2465Y938D02*
X2472Y938D01*
X1Y937D02*
X8Y937D01*
X2465Y937D02*
X2472Y937D01*
X1Y936D02*
X8Y936D01*
X2465Y936D02*
X2472Y936D01*
X1Y935D02*
X8Y935D01*
X2465Y935D02*
X2472Y935D01*
X1Y934D02*
X8Y934D01*
X2465Y934D02*
X2472Y934D01*
X1Y933D02*
X8Y933D01*
X2465Y933D02*
X2472Y933D01*
X1Y932D02*
X8Y932D01*
X2465Y932D02*
X2472Y932D01*
X1Y931D02*
X8Y931D01*
X2465Y931D02*
X2472Y931D01*
X1Y930D02*
X8Y930D01*
X2465Y930D02*
X2472Y930D01*
X1Y929D02*
X8Y929D01*
X2465Y929D02*
X2472Y929D01*
X1Y928D02*
X8Y928D01*
X2465Y928D02*
X2472Y928D01*
X1Y927D02*
X8Y927D01*
X2465Y927D02*
X2472Y927D01*
X1Y926D02*
X8Y926D01*
X2465Y926D02*
X2472Y926D01*
X1Y925D02*
X8Y925D01*
X2465Y925D02*
X2472Y925D01*
X1Y924D02*
X8Y924D01*
X2465Y924D02*
X2472Y924D01*
X1Y923D02*
X8Y923D01*
X2465Y923D02*
X2472Y923D01*
X1Y922D02*
X8Y922D01*
X2465Y922D02*
X2472Y922D01*
X1Y921D02*
X8Y921D01*
X2465Y921D02*
X2472Y921D01*
X1Y920D02*
X8Y920D01*
X2465Y920D02*
X2472Y920D01*
X1Y919D02*
X8Y919D01*
X2465Y919D02*
X2472Y919D01*
X1Y918D02*
X8Y918D01*
X2465Y918D02*
X2472Y918D01*
X1Y917D02*
X8Y917D01*
X2465Y917D02*
X2472Y917D01*
X1Y916D02*
X8Y916D01*
X2465Y916D02*
X2472Y916D01*
X1Y915D02*
X8Y915D01*
X2465Y915D02*
X2472Y915D01*
X1Y914D02*
X8Y914D01*
X2465Y914D02*
X2472Y914D01*
X1Y913D02*
X8Y913D01*
X2465Y913D02*
X2472Y913D01*
X1Y912D02*
X8Y912D01*
X2465Y912D02*
X2472Y912D01*
X1Y911D02*
X8Y911D01*
X2465Y911D02*
X2472Y911D01*
X1Y910D02*
X8Y910D01*
X477Y910D02*
X490Y910D01*
X506Y910D02*
X513Y910D01*
X531Y910D02*
X533Y910D01*
X551Y910D02*
X566Y910D01*
X2465Y910D02*
X2472Y910D01*
X1Y909D02*
X8Y909D01*
X475Y909D02*
X491Y909D01*
X506Y909D02*
X513Y909D01*
X530Y909D02*
X534Y909D01*
X550Y909D02*
X568Y909D01*
X2465Y909D02*
X2472Y909D01*
X1Y908D02*
X8Y908D01*
X474Y908D02*
X491Y908D01*
X506Y908D02*
X514Y908D01*
X530Y908D02*
X535Y908D01*
X550Y908D02*
X569Y908D01*
X2465Y908D02*
X2472Y908D01*
X1Y907D02*
X8Y907D01*
X473Y907D02*
X491Y907D01*
X506Y907D02*
X514Y907D01*
X530Y907D02*
X535Y907D01*
X550Y907D02*
X570Y907D01*
X2465Y907D02*
X2472Y907D01*
X1Y906D02*
X8Y906D01*
X472Y906D02*
X491Y906D01*
X506Y906D02*
X515Y906D01*
X530Y906D02*
X535Y906D01*
X550Y906D02*
X571Y906D01*
X2465Y906D02*
X2472Y906D01*
X1Y905D02*
X8Y905D01*
X471Y905D02*
X490Y905D01*
X506Y905D02*
X515Y905D01*
X530Y905D02*
X535Y905D01*
X551Y905D02*
X571Y905D01*
X2465Y905D02*
X2472Y905D01*
X1Y904D02*
X8Y904D01*
X470Y904D02*
X477Y904D01*
X506Y904D02*
X516Y904D01*
X530Y904D02*
X535Y904D01*
X555Y904D02*
X561Y904D01*
X565Y904D02*
X572Y904D01*
X2465Y904D02*
X2472Y904D01*
X1Y903D02*
X8Y903D01*
X470Y903D02*
X476Y903D01*
X506Y903D02*
X516Y903D01*
X530Y903D02*
X535Y903D01*
X555Y903D02*
X561Y903D01*
X566Y903D02*
X572Y903D01*
X2465Y903D02*
X2472Y903D01*
X1Y902D02*
X8Y902D01*
X469Y902D02*
X476Y902D01*
X506Y902D02*
X516Y902D01*
X530Y902D02*
X535Y902D01*
X555Y902D02*
X561Y902D01*
X567Y902D02*
X573Y902D01*
X2465Y902D02*
X2472Y902D01*
X1Y901D02*
X8Y901D01*
X468Y901D02*
X475Y901D01*
X506Y901D02*
X517Y901D01*
X530Y901D02*
X535Y901D01*
X555Y901D02*
X561Y901D01*
X567Y901D02*
X573Y901D01*
X2465Y901D02*
X2472Y901D01*
X1Y900D02*
X8Y900D01*
X467Y900D02*
X474Y900D01*
X506Y900D02*
X517Y900D01*
X530Y900D02*
X535Y900D01*
X555Y900D02*
X561Y900D01*
X568Y900D02*
X574Y900D01*
X2465Y900D02*
X2472Y900D01*
X1Y899D02*
X8Y899D01*
X466Y899D02*
X473Y899D01*
X506Y899D02*
X518Y899D01*
X530Y899D02*
X535Y899D01*
X555Y899D02*
X561Y899D01*
X568Y899D02*
X574Y899D01*
X2465Y899D02*
X2472Y899D01*
X1Y898D02*
X8Y898D01*
X466Y898D02*
X472Y898D01*
X506Y898D02*
X511Y898D01*
X513Y898D02*
X518Y898D01*
X530Y898D02*
X535Y898D01*
X555Y898D02*
X561Y898D01*
X569Y898D02*
X575Y898D01*
X2465Y898D02*
X2472Y898D01*
X1Y897D02*
X8Y897D01*
X465Y897D02*
X472Y897D01*
X506Y897D02*
X511Y897D01*
X513Y897D02*
X519Y897D01*
X530Y897D02*
X535Y897D01*
X555Y897D02*
X561Y897D01*
X569Y897D02*
X575Y897D01*
X2465Y897D02*
X2472Y897D01*
X1Y896D02*
X8Y896D01*
X464Y896D02*
X471Y896D01*
X506Y896D02*
X511Y896D01*
X513Y896D02*
X519Y896D01*
X530Y896D02*
X535Y896D01*
X555Y896D02*
X561Y896D01*
X570Y896D02*
X576Y896D01*
X2465Y896D02*
X2472Y896D01*
X1Y895D02*
X8Y895D01*
X463Y895D02*
X470Y895D01*
X506Y895D02*
X511Y895D01*
X514Y895D02*
X520Y895D01*
X530Y895D02*
X535Y895D01*
X555Y895D02*
X561Y895D01*
X570Y895D02*
X576Y895D01*
X2465Y895D02*
X2472Y895D01*
X1Y894D02*
X8Y894D01*
X463Y894D02*
X469Y894D01*
X506Y894D02*
X511Y894D01*
X514Y894D02*
X520Y894D01*
X530Y894D02*
X535Y894D01*
X555Y894D02*
X561Y894D01*
X571Y894D02*
X577Y894D01*
X2465Y894D02*
X2472Y894D01*
X1Y893D02*
X8Y893D01*
X463Y893D02*
X468Y893D01*
X506Y893D02*
X511Y893D01*
X515Y893D02*
X520Y893D01*
X530Y893D02*
X535Y893D01*
X555Y893D02*
X561Y893D01*
X571Y893D02*
X577Y893D01*
X2465Y893D02*
X2472Y893D01*
X1Y892D02*
X8Y892D01*
X462Y892D02*
X468Y892D01*
X506Y892D02*
X511Y892D01*
X515Y892D02*
X521Y892D01*
X530Y892D02*
X535Y892D01*
X555Y892D02*
X561Y892D01*
X572Y892D02*
X578Y892D01*
X2465Y892D02*
X2472Y892D01*
X1Y891D02*
X8Y891D01*
X462Y891D02*
X467Y891D01*
X506Y891D02*
X511Y891D01*
X516Y891D02*
X521Y891D01*
X530Y891D02*
X535Y891D01*
X555Y891D02*
X561Y891D01*
X572Y891D02*
X578Y891D01*
X2465Y891D02*
X2472Y891D01*
X1Y890D02*
X8Y890D01*
X462Y890D02*
X467Y890D01*
X506Y890D02*
X511Y890D01*
X516Y890D02*
X522Y890D01*
X530Y890D02*
X535Y890D01*
X555Y890D02*
X561Y890D01*
X573Y890D02*
X578Y890D01*
X2465Y890D02*
X2472Y890D01*
X1Y889D02*
X8Y889D01*
X462Y889D02*
X467Y889D01*
X506Y889D02*
X511Y889D01*
X516Y889D02*
X522Y889D01*
X530Y889D02*
X535Y889D01*
X555Y889D02*
X561Y889D01*
X573Y889D02*
X578Y889D01*
X2465Y889D02*
X2472Y889D01*
X1Y888D02*
X8Y888D01*
X462Y888D02*
X467Y888D01*
X506Y888D02*
X511Y888D01*
X517Y888D02*
X523Y888D01*
X530Y888D02*
X535Y888D01*
X555Y888D02*
X561Y888D01*
X573Y888D02*
X578Y888D01*
X2465Y888D02*
X2472Y888D01*
X1Y887D02*
X8Y887D01*
X462Y887D02*
X467Y887D01*
X506Y887D02*
X511Y887D01*
X517Y887D02*
X523Y887D01*
X530Y887D02*
X535Y887D01*
X555Y887D02*
X561Y887D01*
X573Y887D02*
X579Y887D01*
X2465Y887D02*
X2472Y887D01*
X1Y886D02*
X8Y886D01*
X462Y886D02*
X467Y886D01*
X506Y886D02*
X511Y886D01*
X518Y886D02*
X524Y886D01*
X530Y886D02*
X535Y886D01*
X555Y886D02*
X561Y886D01*
X573Y886D02*
X578Y886D01*
X2465Y886D02*
X2472Y886D01*
X1Y885D02*
X8Y885D01*
X462Y885D02*
X467Y885D01*
X506Y885D02*
X511Y885D01*
X518Y885D02*
X524Y885D01*
X530Y885D02*
X535Y885D01*
X555Y885D02*
X561Y885D01*
X573Y885D02*
X578Y885D01*
X2465Y885D02*
X2472Y885D01*
X1Y884D02*
X8Y884D01*
X462Y884D02*
X467Y884D01*
X478Y884D02*
X491Y884D01*
X506Y884D02*
X511Y884D01*
X519Y884D02*
X524Y884D01*
X530Y884D02*
X535Y884D01*
X555Y884D02*
X561Y884D01*
X573Y884D02*
X578Y884D01*
X2465Y884D02*
X2472Y884D01*
X1Y883D02*
X8Y883D01*
X462Y883D02*
X467Y883D01*
X477Y883D02*
X491Y883D01*
X506Y883D02*
X511Y883D01*
X519Y883D02*
X525Y883D01*
X530Y883D02*
X535Y883D01*
X555Y883D02*
X561Y883D01*
X572Y883D02*
X578Y883D01*
X2465Y883D02*
X2472Y883D01*
X1Y882D02*
X8Y882D01*
X462Y882D02*
X467Y882D01*
X477Y882D02*
X491Y882D01*
X506Y882D02*
X511Y882D01*
X520Y882D02*
X525Y882D01*
X530Y882D02*
X535Y882D01*
X555Y882D02*
X561Y882D01*
X572Y882D02*
X578Y882D01*
X2465Y882D02*
X2472Y882D01*
X1Y881D02*
X8Y881D01*
X462Y881D02*
X467Y881D01*
X477Y881D02*
X491Y881D01*
X506Y881D02*
X511Y881D01*
X520Y881D02*
X526Y881D01*
X530Y881D02*
X535Y881D01*
X555Y881D02*
X561Y881D01*
X571Y881D02*
X577Y881D01*
X2465Y881D02*
X2472Y881D01*
X1Y880D02*
X8Y880D01*
X462Y880D02*
X467Y880D01*
X478Y880D02*
X491Y880D01*
X506Y880D02*
X511Y880D01*
X520Y880D02*
X526Y880D01*
X530Y880D02*
X535Y880D01*
X555Y880D02*
X561Y880D01*
X571Y880D02*
X577Y880D01*
X2465Y880D02*
X2472Y880D01*
X1Y879D02*
X8Y879D01*
X462Y879D02*
X467Y879D01*
X479Y879D02*
X491Y879D01*
X506Y879D02*
X511Y879D01*
X521Y879D02*
X527Y879D01*
X530Y879D02*
X535Y879D01*
X555Y879D02*
X561Y879D01*
X570Y879D02*
X576Y879D01*
X2465Y879D02*
X2472Y879D01*
X1Y878D02*
X8Y878D01*
X462Y878D02*
X467Y878D01*
X486Y878D02*
X491Y878D01*
X506Y878D02*
X511Y878D01*
X521Y878D02*
X527Y878D01*
X530Y878D02*
X535Y878D01*
X555Y878D02*
X561Y878D01*
X570Y878D02*
X576Y878D01*
X2465Y878D02*
X2472Y878D01*
X1Y877D02*
X8Y877D01*
X462Y877D02*
X467Y877D01*
X486Y877D02*
X491Y877D01*
X506Y877D02*
X511Y877D01*
X522Y877D02*
X527Y877D01*
X530Y877D02*
X535Y877D01*
X555Y877D02*
X561Y877D01*
X569Y877D02*
X575Y877D01*
X2465Y877D02*
X2472Y877D01*
X1Y876D02*
X8Y876D01*
X462Y876D02*
X467Y876D01*
X486Y876D02*
X491Y876D01*
X506Y876D02*
X511Y876D01*
X522Y876D02*
X528Y876D01*
X530Y876D02*
X535Y876D01*
X555Y876D02*
X561Y876D01*
X569Y876D02*
X575Y876D01*
X2465Y876D02*
X2472Y876D01*
X1Y875D02*
X8Y875D01*
X462Y875D02*
X467Y875D01*
X486Y875D02*
X491Y875D01*
X506Y875D02*
X511Y875D01*
X523Y875D02*
X535Y875D01*
X555Y875D02*
X561Y875D01*
X568Y875D02*
X574Y875D01*
X2465Y875D02*
X2472Y875D01*
X1Y874D02*
X8Y874D01*
X462Y874D02*
X467Y874D01*
X486Y874D02*
X491Y874D01*
X506Y874D02*
X511Y874D01*
X523Y874D02*
X535Y874D01*
X555Y874D02*
X561Y874D01*
X568Y874D02*
X574Y874D01*
X2465Y874D02*
X2472Y874D01*
X1Y873D02*
X8Y873D01*
X462Y873D02*
X467Y873D01*
X486Y873D02*
X491Y873D01*
X506Y873D02*
X511Y873D01*
X523Y873D02*
X535Y873D01*
X555Y873D02*
X561Y873D01*
X567Y873D02*
X573Y873D01*
X2465Y873D02*
X2472Y873D01*
X1Y872D02*
X8Y872D01*
X462Y872D02*
X467Y872D01*
X486Y872D02*
X491Y872D01*
X506Y872D02*
X511Y872D01*
X524Y872D02*
X535Y872D01*
X555Y872D02*
X561Y872D01*
X567Y872D02*
X573Y872D01*
X2465Y872D02*
X2472Y872D01*
X1Y871D02*
X8Y871D01*
X462Y871D02*
X468Y871D01*
X485Y871D02*
X491Y871D01*
X506Y871D02*
X511Y871D01*
X524Y871D02*
X535Y871D01*
X555Y871D02*
X561Y871D01*
X566Y871D02*
X572Y871D01*
X2465Y871D02*
X2472Y871D01*
X1Y870D02*
X8Y870D01*
X462Y870D02*
X469Y870D01*
X484Y870D02*
X491Y870D01*
X506Y870D02*
X511Y870D01*
X525Y870D02*
X535Y870D01*
X555Y870D02*
X561Y870D01*
X565Y870D02*
X572Y870D01*
X2465Y870D02*
X2472Y870D01*
X1Y869D02*
X8Y869D01*
X463Y869D02*
X490Y869D01*
X506Y869D02*
X511Y869D01*
X525Y869D02*
X535Y869D01*
X551Y869D02*
X571Y869D01*
X2465Y869D02*
X2472Y869D01*
X1Y868D02*
X8Y868D01*
X463Y868D02*
X490Y868D01*
X506Y868D02*
X511Y868D01*
X526Y868D02*
X535Y868D01*
X550Y868D02*
X571Y868D01*
X2465Y868D02*
X2472Y868D01*
X1Y867D02*
X8Y867D01*
X464Y867D02*
X489Y867D01*
X506Y867D02*
X511Y867D01*
X526Y867D02*
X535Y867D01*
X550Y867D02*
X570Y867D01*
X2465Y867D02*
X2472Y867D01*
X1Y866D02*
X8Y866D01*
X465Y866D02*
X488Y866D01*
X506Y866D02*
X511Y866D01*
X527Y866D02*
X535Y866D01*
X550Y866D02*
X569Y866D01*
X2465Y866D02*
X2472Y866D01*
X1Y865D02*
X8Y865D01*
X466Y865D02*
X487Y865D01*
X506Y865D02*
X510Y865D01*
X527Y865D02*
X535Y865D01*
X550Y865D02*
X568Y865D01*
X2465Y865D02*
X2472Y865D01*
X1Y864D02*
X8Y864D01*
X468Y864D02*
X485Y864D01*
X507Y864D02*
X509Y864D01*
X527Y864D02*
X535Y864D01*
X551Y864D02*
X566Y864D01*
X2465Y864D02*
X2472Y864D01*
X1Y863D02*
X8Y863D01*
X2465Y863D02*
X2472Y863D01*
X1Y862D02*
X8Y862D01*
X2465Y862D02*
X2472Y862D01*
X1Y861D02*
X8Y861D01*
X2465Y861D02*
X2472Y861D01*
X1Y860D02*
X8Y860D01*
X2465Y860D02*
X2472Y860D01*
X1Y859D02*
X8Y859D01*
X2465Y859D02*
X2472Y859D01*
X1Y858D02*
X8Y858D01*
X2465Y858D02*
X2472Y858D01*
X1Y857D02*
X8Y857D01*
X2465Y857D02*
X2472Y857D01*
X1Y856D02*
X8Y856D01*
X2465Y856D02*
X2472Y856D01*
X1Y855D02*
X8Y855D01*
X2465Y855D02*
X2472Y855D01*
X1Y854D02*
X8Y854D01*
X2465Y854D02*
X2472Y854D01*
X1Y853D02*
X8Y853D01*
X2465Y853D02*
X2472Y853D01*
X1Y852D02*
X8Y852D01*
X2465Y852D02*
X2472Y852D01*
X1Y851D02*
X8Y851D01*
X2465Y851D02*
X2472Y851D01*
X1Y850D02*
X8Y850D01*
X2465Y850D02*
X2472Y850D01*
X1Y849D02*
X8Y849D01*
X2465Y849D02*
X2472Y849D01*
X1Y848D02*
X8Y848D01*
X2465Y848D02*
X2472Y848D01*
X1Y847D02*
X8Y847D01*
X2465Y847D02*
X2472Y847D01*
X1Y846D02*
X8Y846D01*
X2465Y846D02*
X2472Y846D01*
X1Y845D02*
X8Y845D01*
X2465Y845D02*
X2472Y845D01*
X1Y844D02*
X8Y844D01*
X2465Y844D02*
X2472Y844D01*
X1Y843D02*
X8Y843D01*
X2465Y843D02*
X2472Y843D01*
X1Y842D02*
X8Y842D01*
X2465Y842D02*
X2472Y842D01*
X1Y841D02*
X8Y841D01*
X2465Y841D02*
X2472Y841D01*
X1Y840D02*
X8Y840D01*
X2465Y840D02*
X2472Y840D01*
X1Y839D02*
X8Y839D01*
X2465Y839D02*
X2472Y839D01*
X1Y838D02*
X8Y838D01*
X2465Y838D02*
X2472Y838D01*
X1Y837D02*
X8Y837D01*
X2465Y837D02*
X2472Y837D01*
X1Y836D02*
X8Y836D01*
X2465Y836D02*
X2472Y836D01*
X1Y835D02*
X8Y835D01*
X2465Y835D02*
X2472Y835D01*
X1Y834D02*
X8Y834D01*
X2465Y834D02*
X2472Y834D01*
X1Y833D02*
X8Y833D01*
X2465Y833D02*
X2472Y833D01*
X1Y832D02*
X8Y832D01*
X2465Y832D02*
X2472Y832D01*
X1Y831D02*
X8Y831D01*
X2465Y831D02*
X2472Y831D01*
X1Y830D02*
X8Y830D01*
X2465Y830D02*
X2472Y830D01*
X1Y829D02*
X8Y829D01*
X2465Y829D02*
X2472Y829D01*
X1Y828D02*
X8Y828D01*
X2465Y828D02*
X2472Y828D01*
X1Y827D02*
X8Y827D01*
X2465Y827D02*
X2472Y827D01*
X1Y826D02*
X8Y826D01*
X2465Y826D02*
X2472Y826D01*
X1Y825D02*
X8Y825D01*
X2465Y825D02*
X2472Y825D01*
X1Y824D02*
X8Y824D01*
X2465Y824D02*
X2472Y824D01*
X1Y823D02*
X8Y823D01*
X2465Y823D02*
X2472Y823D01*
X1Y822D02*
X8Y822D01*
X2465Y822D02*
X2472Y822D01*
X1Y821D02*
X8Y821D01*
X2465Y821D02*
X2472Y821D01*
X1Y820D02*
X8Y820D01*
X2465Y820D02*
X2472Y820D01*
X1Y819D02*
X8Y819D01*
X2465Y819D02*
X2472Y819D01*
X1Y818D02*
X8Y818D01*
X2465Y818D02*
X2472Y818D01*
X1Y817D02*
X8Y817D01*
X2465Y817D02*
X2472Y817D01*
X1Y816D02*
X8Y816D01*
X2465Y816D02*
X2472Y816D01*
X1Y815D02*
X8Y815D01*
X2465Y815D02*
X2472Y815D01*
X1Y814D02*
X8Y814D01*
X483Y814D02*
X497Y814D01*
X518Y814D02*
X536Y814D01*
X2465Y814D02*
X2472Y814D01*
X1Y813D02*
X8Y813D01*
X481Y813D02*
X498Y813D01*
X516Y813D02*
X539Y813D01*
X2465Y813D02*
X2472Y813D01*
X1Y812D02*
X8Y812D01*
X479Y812D02*
X499Y812D01*
X515Y812D02*
X540Y812D01*
X2465Y812D02*
X2472Y812D01*
X1Y811D02*
X8Y811D01*
X478Y811D02*
X499Y811D01*
X514Y811D02*
X541Y811D01*
X2465Y811D02*
X2472Y811D01*
X1Y810D02*
X8Y810D01*
X478Y810D02*
X498Y810D01*
X514Y810D02*
X541Y810D01*
X2465Y810D02*
X2472Y810D01*
X1Y809D02*
X8Y809D01*
X477Y809D02*
X498Y809D01*
X513Y809D02*
X542Y809D01*
X2465Y809D02*
X2472Y809D01*
X1Y808D02*
X8Y808D01*
X476Y808D02*
X483Y808D01*
X513Y808D02*
X519Y808D01*
X536Y808D02*
X542Y808D01*
X2465Y808D02*
X2472Y808D01*
X1Y807D02*
X8Y807D01*
X476Y807D02*
X482Y807D01*
X513Y807D02*
X519Y807D01*
X537Y807D02*
X542Y807D01*
X2465Y807D02*
X2472Y807D01*
X1Y806D02*
X8Y806D01*
X475Y806D02*
X481Y806D01*
X514Y806D02*
X519Y806D01*
X537Y806D02*
X542Y806D01*
X2465Y806D02*
X2472Y806D01*
X1Y805D02*
X8Y805D01*
X475Y805D02*
X481Y805D01*
X514Y805D02*
X520Y805D01*
X538Y805D02*
X542Y805D01*
X2465Y805D02*
X2472Y805D01*
X1Y804D02*
X8Y804D01*
X474Y804D02*
X480Y804D01*
X514Y804D02*
X521Y804D01*
X538Y804D02*
X541Y804D01*
X2465Y804D02*
X2472Y804D01*
X1Y803D02*
X8Y803D01*
X474Y803D02*
X480Y803D01*
X515Y803D02*
X522Y803D01*
X2465Y803D02*
X2472Y803D01*
X1Y802D02*
X8Y802D01*
X473Y802D02*
X479Y802D01*
X516Y802D02*
X522Y802D01*
X2465Y802D02*
X2472Y802D01*
X1Y801D02*
X8Y801D01*
X473Y801D02*
X479Y801D01*
X516Y801D02*
X523Y801D01*
X2465Y801D02*
X2472Y801D01*
X1Y800D02*
X8Y800D01*
X472Y800D02*
X478Y800D01*
X517Y800D02*
X524Y800D01*
X2465Y800D02*
X2472Y800D01*
X1Y799D02*
X8Y799D01*
X472Y799D02*
X478Y799D01*
X518Y799D02*
X525Y799D01*
X2465Y799D02*
X2472Y799D01*
X1Y798D02*
X8Y798D01*
X472Y798D02*
X477Y798D01*
X519Y798D02*
X526Y798D01*
X2465Y798D02*
X2472Y798D01*
X1Y797D02*
X8Y797D01*
X471Y797D02*
X477Y797D01*
X520Y797D02*
X526Y797D01*
X2465Y797D02*
X2472Y797D01*
X1Y796D02*
X8Y796D01*
X471Y796D02*
X476Y796D01*
X520Y796D02*
X527Y796D01*
X2465Y796D02*
X2472Y796D01*
X1Y795D02*
X8Y795D01*
X470Y795D02*
X476Y795D01*
X521Y795D02*
X528Y795D01*
X2465Y795D02*
X2472Y795D01*
X1Y794D02*
X8Y794D01*
X470Y794D02*
X475Y794D01*
X522Y794D02*
X529Y794D01*
X2465Y794D02*
X2472Y794D01*
X1Y793D02*
X8Y793D01*
X470Y793D02*
X475Y793D01*
X523Y793D02*
X529Y793D01*
X2465Y793D02*
X2472Y793D01*
X1Y792D02*
X8Y792D01*
X470Y792D02*
X475Y792D01*
X523Y792D02*
X530Y792D01*
X2465Y792D02*
X2472Y792D01*
X1Y791D02*
X8Y791D01*
X470Y791D02*
X475Y791D01*
X524Y791D02*
X531Y791D01*
X2465Y791D02*
X2472Y791D01*
X1Y790D02*
X8Y790D01*
X470Y790D02*
X475Y790D01*
X525Y790D02*
X532Y790D01*
X2465Y790D02*
X2472Y790D01*
X1Y789D02*
X8Y789D01*
X470Y789D02*
X475Y789D01*
X526Y789D02*
X533Y789D01*
X2465Y789D02*
X2472Y789D01*
X1Y788D02*
X8Y788D01*
X470Y788D02*
X475Y788D01*
X527Y788D02*
X533Y788D01*
X2465Y788D02*
X2472Y788D01*
X1Y787D02*
X8Y787D01*
X470Y787D02*
X476Y787D01*
X527Y787D02*
X534Y787D01*
X2465Y787D02*
X2472Y787D01*
X1Y786D02*
X8Y786D01*
X470Y786D02*
X476Y786D01*
X528Y786D02*
X535Y786D01*
X2465Y786D02*
X2472Y786D01*
X1Y785D02*
X8Y785D01*
X471Y785D02*
X477Y785D01*
X529Y785D02*
X536Y785D01*
X2465Y785D02*
X2472Y785D01*
X1Y784D02*
X8Y784D01*
X471Y784D02*
X477Y784D01*
X530Y784D02*
X536Y784D01*
X2465Y784D02*
X2472Y784D01*
X1Y783D02*
X8Y783D01*
X472Y783D02*
X478Y783D01*
X530Y783D02*
X537Y783D01*
X2465Y783D02*
X2472Y783D01*
X1Y782D02*
X8Y782D01*
X472Y782D02*
X478Y782D01*
X531Y782D02*
X538Y782D01*
X2465Y782D02*
X2472Y782D01*
X1Y781D02*
X8Y781D01*
X473Y781D02*
X479Y781D01*
X532Y781D02*
X539Y781D01*
X2465Y781D02*
X2472Y781D01*
X1Y780D02*
X8Y780D01*
X473Y780D02*
X479Y780D01*
X533Y780D02*
X540Y780D01*
X2465Y780D02*
X2472Y780D01*
X1Y779D02*
X8Y779D01*
X474Y779D02*
X480Y779D01*
X533Y779D02*
X540Y779D01*
X2465Y779D02*
X2472Y779D01*
X1Y778D02*
X8Y778D01*
X474Y778D02*
X480Y778D01*
X515Y778D02*
X517Y778D01*
X534Y778D02*
X541Y778D01*
X2465Y778D02*
X2472Y778D01*
X1Y777D02*
X8Y777D01*
X475Y777D02*
X481Y777D01*
X514Y777D02*
X518Y777D01*
X535Y777D02*
X542Y777D01*
X2465Y777D02*
X2472Y777D01*
X1Y776D02*
X8Y776D01*
X475Y776D02*
X481Y776D01*
X513Y776D02*
X518Y776D01*
X536Y776D02*
X542Y776D01*
X2465Y776D02*
X2472Y776D01*
X1Y775D02*
X8Y775D01*
X476Y775D02*
X482Y775D01*
X513Y775D02*
X518Y775D01*
X537Y775D02*
X542Y775D01*
X2465Y775D02*
X2472Y775D01*
X1Y774D02*
X8Y774D01*
X476Y774D02*
X482Y774D01*
X513Y774D02*
X519Y774D01*
X537Y774D02*
X542Y774D01*
X2465Y774D02*
X2472Y774D01*
X1Y773D02*
X8Y773D01*
X477Y773D02*
X497Y773D01*
X514Y773D02*
X542Y773D01*
X2465Y773D02*
X2472Y773D01*
X1Y772D02*
X8Y772D01*
X477Y772D02*
X498Y772D01*
X514Y772D02*
X542Y772D01*
X2465Y772D02*
X2472Y772D01*
X1Y771D02*
X8Y771D01*
X478Y771D02*
X499Y771D01*
X515Y771D02*
X542Y771D01*
X2465Y771D02*
X2472Y771D01*
X1Y770D02*
X8Y770D01*
X479Y770D02*
X499Y770D01*
X515Y770D02*
X541Y770D01*
X2465Y770D02*
X2472Y770D01*
X1Y769D02*
X8Y769D01*
X480Y769D02*
X498Y769D01*
X516Y769D02*
X540Y769D01*
X2465Y769D02*
X2472Y769D01*
X1Y768D02*
X8Y768D01*
X482Y768D02*
X498Y768D01*
X518Y768D02*
X539Y768D01*
X2465Y768D02*
X2472Y768D01*
X1Y767D02*
X8Y767D01*
X2465Y767D02*
X2472Y767D01*
X1Y766D02*
X8Y766D01*
X2465Y766D02*
X2472Y766D01*
X1Y765D02*
X8Y765D01*
X2465Y765D02*
X2472Y765D01*
X1Y764D02*
X8Y764D01*
X2465Y764D02*
X2472Y764D01*
X1Y763D02*
X8Y763D01*
X2465Y763D02*
X2472Y763D01*
X1Y762D02*
X8Y762D01*
X2465Y762D02*
X2472Y762D01*
X1Y761D02*
X8Y761D01*
X2465Y761D02*
X2472Y761D01*
X1Y760D02*
X8Y760D01*
X2465Y760D02*
X2472Y760D01*
X1Y759D02*
X8Y759D01*
X2465Y759D02*
X2472Y759D01*
X1Y758D02*
X8Y758D01*
X2465Y758D02*
X2472Y758D01*
X1Y757D02*
X8Y757D01*
X2465Y757D02*
X2472Y757D01*
X1Y756D02*
X8Y756D01*
X2465Y756D02*
X2472Y756D01*
X1Y755D02*
X8Y755D01*
X2465Y755D02*
X2472Y755D01*
X1Y754D02*
X8Y754D01*
X2465Y754D02*
X2472Y754D01*
X1Y753D02*
X8Y753D01*
X2465Y753D02*
X2472Y753D01*
X1Y752D02*
X8Y752D01*
X2465Y752D02*
X2472Y752D01*
X1Y751D02*
X8Y751D01*
X2465Y751D02*
X2472Y751D01*
X1Y750D02*
X8Y750D01*
X2465Y750D02*
X2472Y750D01*
X1Y749D02*
X8Y749D01*
X2465Y749D02*
X2472Y749D01*
X1Y748D02*
X8Y748D01*
X2465Y748D02*
X2472Y748D01*
X1Y747D02*
X8Y747D01*
X2465Y747D02*
X2472Y747D01*
X1Y746D02*
X8Y746D01*
X2465Y746D02*
X2472Y746D01*
X1Y745D02*
X8Y745D01*
X2465Y745D02*
X2472Y745D01*
X1Y744D02*
X8Y744D01*
X2465Y744D02*
X2472Y744D01*
X1Y743D02*
X8Y743D01*
X2465Y743D02*
X2472Y743D01*
X1Y742D02*
X8Y742D01*
X2465Y742D02*
X2472Y742D01*
X1Y741D02*
X8Y741D01*
X2465Y741D02*
X2472Y741D01*
X1Y740D02*
X8Y740D01*
X2465Y740D02*
X2472Y740D01*
X1Y739D02*
X8Y739D01*
X1571Y739D02*
X1572Y739D01*
X2465Y739D02*
X2472Y739D01*
X1Y738D02*
X8Y738D01*
X1570Y738D02*
X1573Y738D01*
X2465Y738D02*
X2472Y738D01*
X1Y737D02*
X8Y737D01*
X1569Y737D02*
X1574Y737D01*
X2465Y737D02*
X2472Y737D01*
X1Y736D02*
X8Y736D01*
X1568Y736D02*
X1574Y736D01*
X2465Y736D02*
X2472Y736D01*
X1Y735D02*
X8Y735D01*
X1567Y735D02*
X1573Y735D01*
X2465Y735D02*
X2472Y735D01*
X1Y734D02*
X8Y734D01*
X1566Y734D02*
X1572Y734D01*
X2465Y734D02*
X2472Y734D01*
X1Y733D02*
X8Y733D01*
X1565Y733D02*
X1571Y733D01*
X2465Y733D02*
X2472Y733D01*
X1Y732D02*
X8Y732D01*
X1564Y732D02*
X1570Y732D01*
X2465Y732D02*
X2472Y732D01*
X1Y731D02*
X8Y731D01*
X1563Y731D02*
X1569Y731D01*
X2465Y731D02*
X2472Y731D01*
X1Y730D02*
X8Y730D01*
X1562Y730D02*
X1568Y730D01*
X2465Y730D02*
X2472Y730D01*
X1Y729D02*
X8Y729D01*
X1561Y729D02*
X1567Y729D01*
X2465Y729D02*
X2472Y729D01*
X1Y728D02*
X8Y728D01*
X1560Y728D02*
X1566Y728D01*
X2465Y728D02*
X2472Y728D01*
X1Y727D02*
X8Y727D01*
X1559Y727D02*
X1565Y727D01*
X2465Y727D02*
X2472Y727D01*
X1Y726D02*
X8Y726D01*
X1558Y726D02*
X1564Y726D01*
X2465Y726D02*
X2472Y726D01*
X1Y725D02*
X8Y725D01*
X1557Y725D02*
X1563Y725D01*
X2465Y725D02*
X2472Y725D01*
X1Y724D02*
X8Y724D01*
X1556Y724D02*
X1562Y724D01*
X2465Y724D02*
X2472Y724D01*
X1Y723D02*
X8Y723D01*
X1555Y723D02*
X1561Y723D01*
X2465Y723D02*
X2472Y723D01*
X1Y722D02*
X8Y722D01*
X1554Y722D02*
X1560Y722D01*
X2465Y722D02*
X2472Y722D01*
X1Y721D02*
X8Y721D01*
X1553Y721D02*
X1558Y721D01*
X2465Y721D02*
X2472Y721D01*
X1Y720D02*
X8Y720D01*
X1552Y720D02*
X1557Y720D01*
X2465Y720D02*
X2472Y720D01*
X1Y719D02*
X8Y719D01*
X1551Y719D02*
X1556Y719D01*
X2465Y719D02*
X2472Y719D01*
X1Y718D02*
X8Y718D01*
X1550Y718D02*
X1555Y718D01*
X2465Y718D02*
X2472Y718D01*
X1Y717D02*
X8Y717D01*
X1549Y717D02*
X1555Y717D01*
X2465Y717D02*
X2472Y717D01*
X1Y716D02*
X8Y716D01*
X1548Y716D02*
X1554Y716D01*
X2465Y716D02*
X2472Y716D01*
X1Y715D02*
X8Y715D01*
X1547Y715D02*
X1553Y715D01*
X2465Y715D02*
X2472Y715D01*
X1Y714D02*
X8Y714D01*
X1546Y714D02*
X1552Y714D01*
X2465Y714D02*
X2472Y714D01*
X1Y713D02*
X8Y713D01*
X1545Y713D02*
X1551Y713D01*
X2465Y713D02*
X2472Y713D01*
X1Y712D02*
X8Y712D01*
X1544Y712D02*
X1550Y712D01*
X2465Y712D02*
X2472Y712D01*
X1Y711D02*
X8Y711D01*
X1543Y711D02*
X1549Y711D01*
X2465Y711D02*
X2472Y711D01*
X1Y710D02*
X8Y710D01*
X1542Y710D02*
X1548Y710D01*
X2465Y710D02*
X2472Y710D01*
X1Y709D02*
X8Y709D01*
X1541Y709D02*
X1547Y709D01*
X2465Y709D02*
X2472Y709D01*
X1Y708D02*
X8Y708D01*
X1540Y708D02*
X1546Y708D01*
X2465Y708D02*
X2472Y708D01*
X1Y707D02*
X8Y707D01*
X1539Y707D02*
X1545Y707D01*
X2465Y707D02*
X2472Y707D01*
X1Y706D02*
X8Y706D01*
X1538Y706D02*
X1544Y706D01*
X2465Y706D02*
X2472Y706D01*
X1Y705D02*
X8Y705D01*
X474Y705D02*
X497Y705D01*
X518Y705D02*
X546Y705D01*
X566Y705D02*
X586Y705D01*
X1537Y705D02*
X1543Y705D01*
X2465Y705D02*
X2472Y705D01*
X1Y704D02*
X8Y704D01*
X474Y704D02*
X499Y704D01*
X518Y704D02*
X547Y704D01*
X565Y704D02*
X588Y704D01*
X1538Y704D02*
X1542Y704D01*
X2465Y704D02*
X2472Y704D01*
X1Y703D02*
X8Y703D01*
X474Y703D02*
X501Y703D01*
X518Y703D02*
X547Y703D01*
X563Y703D02*
X589Y703D01*
X1539Y703D02*
X1541Y703D01*
X2465Y703D02*
X2472Y703D01*
X1Y702D02*
X8Y702D01*
X474Y702D02*
X501Y702D01*
X518Y702D02*
X547Y702D01*
X563Y702D02*
X590Y702D01*
X1540Y702D02*
X1540Y702D01*
X2465Y702D02*
X2472Y702D01*
X1Y701D02*
X8Y701D01*
X474Y701D02*
X502Y701D01*
X518Y701D02*
X547Y701D01*
X562Y701D02*
X590Y701D01*
X2465Y701D02*
X2472Y701D01*
X1Y700D02*
X8Y700D01*
X474Y700D02*
X503Y700D01*
X518Y700D02*
X546Y700D01*
X562Y700D02*
X591Y700D01*
X2465Y700D02*
X2472Y700D01*
X1Y699D02*
X8Y699D01*
X474Y699D02*
X479Y699D01*
X497Y699D02*
X503Y699D01*
X518Y699D02*
X523Y699D01*
X562Y699D02*
X567Y699D01*
X585Y699D02*
X591Y699D01*
X2465Y699D02*
X2472Y699D01*
X1Y698D02*
X8Y698D01*
X474Y698D02*
X479Y698D01*
X498Y698D02*
X503Y698D01*
X518Y698D02*
X523Y698D01*
X562Y698D02*
X567Y698D01*
X586Y698D02*
X591Y698D01*
X2465Y698D02*
X2472Y698D01*
X1Y697D02*
X8Y697D01*
X474Y697D02*
X479Y697D01*
X498Y697D02*
X503Y697D01*
X518Y697D02*
X523Y697D01*
X562Y697D02*
X568Y697D01*
X586Y697D02*
X591Y697D01*
X2465Y697D02*
X2472Y697D01*
X1Y696D02*
X8Y696D01*
X474Y696D02*
X479Y696D01*
X498Y696D02*
X504Y696D01*
X518Y696D02*
X523Y696D01*
X562Y696D02*
X569Y696D01*
X586Y696D02*
X591Y696D01*
X2465Y696D02*
X2472Y696D01*
X1Y695D02*
X8Y695D01*
X474Y695D02*
X479Y695D01*
X498Y695D02*
X504Y695D01*
X518Y695D02*
X523Y695D01*
X563Y695D02*
X570Y695D01*
X587Y695D02*
X590Y695D01*
X2465Y695D02*
X2472Y695D01*
X1Y694D02*
X8Y694D01*
X474Y694D02*
X479Y694D01*
X498Y694D02*
X504Y694D01*
X518Y694D02*
X523Y694D01*
X564Y694D02*
X570Y694D01*
X2465Y694D02*
X2472Y694D01*
X1Y693D02*
X8Y693D01*
X474Y693D02*
X479Y693D01*
X498Y693D02*
X503Y693D01*
X518Y693D02*
X523Y693D01*
X564Y693D02*
X571Y693D01*
X2465Y693D02*
X2472Y693D01*
X1Y692D02*
X8Y692D01*
X474Y692D02*
X479Y692D01*
X498Y692D02*
X503Y692D01*
X518Y692D02*
X523Y692D01*
X565Y692D02*
X572Y692D01*
X2465Y692D02*
X2472Y692D01*
X1Y691D02*
X8Y691D01*
X474Y691D02*
X479Y691D01*
X497Y691D02*
X503Y691D01*
X518Y691D02*
X523Y691D01*
X566Y691D02*
X573Y691D01*
X2465Y691D02*
X2472Y691D01*
X1Y690D02*
X8Y690D01*
X474Y690D02*
X503Y690D01*
X518Y690D02*
X523Y690D01*
X567Y690D02*
X574Y690D01*
X2465Y690D02*
X2472Y690D01*
X1Y689D02*
X8Y689D01*
X474Y689D02*
X502Y689D01*
X518Y689D02*
X523Y689D01*
X568Y689D02*
X574Y689D01*
X2465Y689D02*
X2472Y689D01*
X1Y688D02*
X8Y688D01*
X474Y688D02*
X502Y688D01*
X518Y688D02*
X523Y688D01*
X568Y688D02*
X575Y688D01*
X2465Y688D02*
X2472Y688D01*
X1Y687D02*
X8Y687D01*
X474Y687D02*
X501Y687D01*
X518Y687D02*
X523Y687D01*
X569Y687D02*
X576Y687D01*
X2465Y687D02*
X2472Y687D01*
X1Y686D02*
X8Y686D01*
X474Y686D02*
X500Y686D01*
X518Y686D02*
X523Y686D01*
X570Y686D02*
X577Y686D01*
X2141Y686D02*
X2145Y686D01*
X2201Y686D02*
X2205Y686D01*
X2258Y686D02*
X2303Y686D01*
X2355Y686D02*
X2403Y686D01*
X2465Y686D02*
X2472Y686D01*
X1Y685D02*
X8Y685D01*
X474Y685D02*
X498Y685D01*
X518Y685D02*
X533Y685D01*
X571Y685D02*
X577Y685D01*
X2139Y685D02*
X2147Y685D01*
X2199Y685D02*
X2207Y685D01*
X2255Y685D02*
X2306Y685D01*
X2354Y685D02*
X2408Y685D01*
X2465Y685D02*
X2472Y685D01*
X1Y684D02*
X8Y684D01*
X474Y684D02*
X480Y684D01*
X484Y684D02*
X491Y684D01*
X518Y684D02*
X534Y684D01*
X571Y684D02*
X578Y684D01*
X2138Y684D02*
X2148Y684D01*
X2198Y684D02*
X2208Y684D01*
X2253Y684D02*
X2308Y684D01*
X2354Y684D02*
X2410Y684D01*
X2465Y684D02*
X2472Y684D01*
X1Y683D02*
X8Y683D01*
X474Y683D02*
X479Y683D01*
X485Y683D02*
X491Y683D01*
X518Y683D02*
X535Y683D01*
X572Y683D02*
X579Y683D01*
X2137Y683D02*
X2149Y683D01*
X2197Y683D02*
X2209Y683D01*
X2252Y683D02*
X2310Y683D01*
X2354Y683D02*
X2412Y683D01*
X2465Y683D02*
X2472Y683D01*
X1Y682D02*
X8Y682D01*
X474Y682D02*
X479Y682D01*
X486Y682D02*
X492Y682D01*
X518Y682D02*
X535Y682D01*
X573Y682D02*
X580Y682D01*
X2136Y682D02*
X2149Y682D01*
X2196Y682D02*
X2209Y682D01*
X2251Y682D02*
X2311Y682D01*
X2354Y682D02*
X2414Y682D01*
X2465Y682D02*
X2472Y682D01*
X1Y681D02*
X8Y681D01*
X474Y681D02*
X479Y681D01*
X486Y681D02*
X493Y681D01*
X518Y681D02*
X535Y681D01*
X574Y681D02*
X581Y681D01*
X2136Y681D02*
X2150Y681D01*
X2196Y681D02*
X2210Y681D01*
X2250Y681D02*
X2313Y681D01*
X2354Y681D02*
X2415Y681D01*
X2465Y681D02*
X2472Y681D01*
X1Y680D02*
X8Y680D01*
X474Y680D02*
X479Y680D01*
X487Y680D02*
X493Y680D01*
X518Y680D02*
X534Y680D01*
X574Y680D02*
X581Y680D01*
X2136Y680D02*
X2150Y680D01*
X2196Y680D02*
X2210Y680D01*
X2249Y680D02*
X2314Y680D01*
X2354Y680D02*
X2417Y680D01*
X2465Y680D02*
X2472Y680D01*
X1Y679D02*
X8Y679D01*
X474Y679D02*
X479Y679D01*
X488Y679D02*
X494Y679D01*
X518Y679D02*
X532Y679D01*
X575Y679D02*
X582Y679D01*
X2136Y679D02*
X2150Y679D01*
X2196Y679D02*
X2210Y679D01*
X2248Y679D02*
X2314Y679D01*
X2354Y679D02*
X2418Y679D01*
X2465Y679D02*
X2472Y679D01*
X1Y678D02*
X8Y678D01*
X474Y678D02*
X479Y678D01*
X488Y678D02*
X494Y678D01*
X518Y678D02*
X523Y678D01*
X576Y678D02*
X583Y678D01*
X2136Y678D02*
X2150Y678D01*
X2196Y678D02*
X2210Y678D01*
X2247Y678D02*
X2315Y678D01*
X2354Y678D02*
X2419Y678D01*
X2465Y678D02*
X2472Y678D01*
X1Y677D02*
X8Y677D01*
X474Y677D02*
X479Y677D01*
X489Y677D02*
X495Y677D01*
X518Y677D02*
X523Y677D01*
X577Y677D02*
X584Y677D01*
X2136Y677D02*
X2150Y677D01*
X2196Y677D02*
X2210Y677D01*
X2247Y677D02*
X2316Y677D01*
X2354Y677D02*
X2420Y677D01*
X2465Y677D02*
X2472Y677D01*
X1Y676D02*
X8Y676D01*
X474Y676D02*
X479Y676D01*
X489Y676D02*
X495Y676D01*
X518Y676D02*
X523Y676D01*
X578Y676D02*
X584Y676D01*
X2136Y676D02*
X2150Y676D01*
X2196Y676D02*
X2210Y676D01*
X2246Y676D02*
X2317Y676D01*
X2354Y676D02*
X2421Y676D01*
X2465Y676D02*
X2472Y676D01*
X1Y675D02*
X8Y675D01*
X474Y675D02*
X479Y675D01*
X490Y675D02*
X496Y675D01*
X518Y675D02*
X523Y675D01*
X578Y675D02*
X585Y675D01*
X2136Y675D02*
X2150Y675D01*
X2196Y675D02*
X2210Y675D01*
X2246Y675D02*
X2317Y675D01*
X2354Y675D02*
X2422Y675D01*
X2465Y675D02*
X2472Y675D01*
X1Y674D02*
X8Y674D01*
X474Y674D02*
X479Y674D01*
X490Y674D02*
X497Y674D01*
X518Y674D02*
X523Y674D01*
X579Y674D02*
X586Y674D01*
X2136Y674D02*
X2150Y674D01*
X2196Y674D02*
X2210Y674D01*
X2246Y674D02*
X2318Y674D01*
X2354Y674D02*
X2423Y674D01*
X2465Y674D02*
X2472Y674D01*
X1Y673D02*
X8Y673D01*
X474Y673D02*
X479Y673D01*
X491Y673D02*
X497Y673D01*
X518Y673D02*
X523Y673D01*
X580Y673D02*
X587Y673D01*
X2136Y673D02*
X2150Y673D01*
X2196Y673D02*
X2210Y673D01*
X2245Y673D02*
X2318Y673D01*
X2354Y673D02*
X2423Y673D01*
X2465Y673D02*
X2472Y673D01*
X1Y672D02*
X8Y672D01*
X474Y672D02*
X479Y672D01*
X492Y672D02*
X498Y672D01*
X518Y672D02*
X523Y672D01*
X581Y672D02*
X588Y672D01*
X2136Y672D02*
X2150Y672D01*
X2196Y672D02*
X2210Y672D01*
X2245Y672D02*
X2318Y672D01*
X2354Y672D02*
X2424Y672D01*
X2465Y672D02*
X2472Y672D01*
X1Y671D02*
X8Y671D01*
X474Y671D02*
X479Y671D01*
X492Y671D02*
X498Y671D01*
X518Y671D02*
X523Y671D01*
X581Y671D02*
X588Y671D01*
X2136Y671D02*
X2150Y671D01*
X2196Y671D02*
X2210Y671D01*
X2245Y671D02*
X2260Y671D01*
X2301Y671D02*
X2319Y671D01*
X2354Y671D02*
X2369Y671D01*
X2401Y671D02*
X2425Y671D01*
X2465Y671D02*
X2472Y671D01*
X1Y670D02*
X8Y670D01*
X474Y670D02*
X479Y670D01*
X493Y670D02*
X499Y670D01*
X518Y670D02*
X523Y670D01*
X582Y670D02*
X589Y670D01*
X2136Y670D02*
X2150Y670D01*
X2196Y670D02*
X2210Y670D01*
X2245Y670D02*
X2259Y670D01*
X2303Y670D02*
X2319Y670D01*
X2354Y670D02*
X2369Y670D01*
X2405Y670D02*
X2425Y670D01*
X2465Y670D02*
X2472Y670D01*
X1Y669D02*
X8Y669D01*
X474Y669D02*
X479Y669D01*
X493Y669D02*
X500Y669D01*
X518Y669D02*
X523Y669D01*
X563Y669D02*
X566Y669D01*
X583Y669D02*
X590Y669D01*
X2136Y669D02*
X2150Y669D01*
X2196Y669D02*
X2210Y669D01*
X2245Y669D02*
X2259Y669D01*
X2304Y669D02*
X2319Y669D01*
X2354Y669D02*
X2369Y669D01*
X2407Y669D02*
X2426Y669D01*
X2465Y669D02*
X2472Y669D01*
X1Y668D02*
X8Y668D01*
X474Y668D02*
X479Y668D01*
X494Y668D02*
X500Y668D01*
X518Y668D02*
X523Y668D01*
X562Y668D02*
X567Y668D01*
X584Y668D02*
X590Y668D01*
X2136Y668D02*
X2150Y668D01*
X2196Y668D02*
X2210Y668D01*
X2245Y668D02*
X2260Y668D01*
X2305Y668D02*
X2319Y668D01*
X2354Y668D02*
X2369Y668D01*
X2408Y668D02*
X2426Y668D01*
X2465Y668D02*
X2472Y668D01*
X1Y667D02*
X8Y667D01*
X474Y667D02*
X479Y667D01*
X495Y667D02*
X501Y667D01*
X518Y667D02*
X523Y667D01*
X562Y667D02*
X567Y667D01*
X585Y667D02*
X591Y667D01*
X2136Y667D02*
X2150Y667D01*
X2196Y667D02*
X2210Y667D01*
X2245Y667D02*
X2261Y667D01*
X2305Y667D02*
X2319Y667D01*
X2354Y667D02*
X2369Y667D01*
X2410Y667D02*
X2427Y667D01*
X2465Y667D02*
X2472Y667D01*
X1Y666D02*
X8Y666D01*
X474Y666D02*
X479Y666D01*
X495Y666D02*
X501Y666D01*
X518Y666D02*
X523Y666D01*
X562Y666D02*
X567Y666D01*
X585Y666D02*
X591Y666D01*
X2136Y666D02*
X2150Y666D01*
X2196Y666D02*
X2210Y666D01*
X2245Y666D02*
X2261Y666D01*
X2305Y666D02*
X2319Y666D01*
X2354Y666D02*
X2369Y666D01*
X2410Y666D02*
X2427Y666D01*
X2465Y666D02*
X2472Y666D01*
X1Y665D02*
X8Y665D01*
X474Y665D02*
X479Y665D01*
X496Y665D02*
X502Y665D01*
X518Y665D02*
X523Y665D01*
X562Y665D02*
X568Y665D01*
X586Y665D02*
X591Y665D01*
X2136Y665D02*
X2150Y665D01*
X2196Y665D02*
X2210Y665D01*
X2246Y665D02*
X2262Y665D01*
X2305Y665D02*
X2319Y665D01*
X2354Y665D02*
X2369Y665D01*
X2411Y665D02*
X2428Y665D01*
X2465Y665D02*
X2472Y665D01*
X1Y664D02*
X8Y664D01*
X474Y664D02*
X479Y664D01*
X496Y664D02*
X502Y664D01*
X518Y664D02*
X546Y664D01*
X562Y664D02*
X591Y664D01*
X2136Y664D02*
X2150Y664D01*
X2196Y664D02*
X2210Y664D01*
X2246Y664D02*
X2263Y664D01*
X2305Y664D02*
X2319Y664D01*
X2354Y664D02*
X2369Y664D01*
X2412Y664D02*
X2428Y664D01*
X2465Y664D02*
X2472Y664D01*
X1Y663D02*
X8Y663D01*
X474Y663D02*
X479Y663D01*
X497Y663D02*
X503Y663D01*
X518Y663D02*
X547Y663D01*
X563Y663D02*
X591Y663D01*
X2136Y663D02*
X2150Y663D01*
X2196Y663D02*
X2210Y663D01*
X2246Y663D02*
X2264Y663D01*
X2306Y663D02*
X2319Y663D01*
X2354Y663D02*
X2369Y663D01*
X2413Y663D02*
X2428Y663D01*
X2465Y663D02*
X2472Y663D01*
X1Y662D02*
X8Y662D01*
X474Y662D02*
X479Y662D01*
X498Y662D02*
X503Y662D01*
X518Y662D02*
X547Y662D01*
X563Y662D02*
X590Y662D01*
X2136Y662D02*
X2150Y662D01*
X2196Y662D02*
X2210Y662D01*
X2247Y662D02*
X2264Y662D01*
X2306Y662D02*
X2318Y662D01*
X2354Y662D02*
X2369Y662D01*
X2413Y662D02*
X2428Y662D01*
X2465Y662D02*
X2472Y662D01*
X1Y661D02*
X8Y661D01*
X474Y661D02*
X479Y661D01*
X498Y661D02*
X503Y661D01*
X518Y661D02*
X547Y661D01*
X564Y661D02*
X589Y661D01*
X2136Y661D02*
X2150Y661D01*
X2196Y661D02*
X2210Y661D01*
X2247Y661D02*
X2265Y661D01*
X2307Y661D02*
X2318Y661D01*
X2354Y661D02*
X2369Y661D01*
X2414Y661D02*
X2428Y661D01*
X2465Y661D02*
X2472Y661D01*
X1Y660D02*
X8Y660D01*
X475Y660D02*
X479Y660D01*
X499Y660D02*
X503Y660D01*
X518Y660D02*
X547Y660D01*
X565Y660D02*
X589Y660D01*
X2136Y660D02*
X2150Y660D01*
X2196Y660D02*
X2210Y660D01*
X2248Y660D02*
X2266Y660D01*
X2308Y660D02*
X2316Y660D01*
X2354Y660D02*
X2369Y660D01*
X2414Y660D02*
X2429Y660D01*
X2465Y660D02*
X2472Y660D01*
X1Y659D02*
X8Y659D01*
X476Y659D02*
X478Y659D01*
X500Y659D02*
X502Y659D01*
X518Y659D02*
X546Y659D01*
X567Y659D02*
X587Y659D01*
X2136Y659D02*
X2150Y659D01*
X2196Y659D02*
X2210Y659D01*
X2248Y659D02*
X2267Y659D01*
X2310Y659D02*
X2315Y659D01*
X2354Y659D02*
X2369Y659D01*
X2414Y659D02*
X2429Y659D01*
X2465Y659D02*
X2472Y659D01*
X1Y658D02*
X8Y658D01*
X2136Y658D02*
X2150Y658D01*
X2196Y658D02*
X2210Y658D01*
X2249Y658D02*
X2268Y658D01*
X2354Y658D02*
X2369Y658D01*
X2414Y658D02*
X2429Y658D01*
X2465Y658D02*
X2472Y658D01*
X1Y657D02*
X8Y657D01*
X2136Y657D02*
X2150Y657D01*
X2196Y657D02*
X2210Y657D01*
X2250Y657D02*
X2268Y657D01*
X2354Y657D02*
X2369Y657D01*
X2414Y657D02*
X2429Y657D01*
X2465Y657D02*
X2472Y657D01*
X1Y656D02*
X8Y656D01*
X2136Y656D02*
X2150Y656D01*
X2196Y656D02*
X2210Y656D01*
X2251Y656D02*
X2269Y656D01*
X2354Y656D02*
X2369Y656D01*
X2415Y656D02*
X2429Y656D01*
X2465Y656D02*
X2472Y656D01*
X1Y655D02*
X8Y655D01*
X2136Y655D02*
X2150Y655D01*
X2196Y655D02*
X2210Y655D01*
X2251Y655D02*
X2270Y655D01*
X2354Y655D02*
X2369Y655D01*
X2415Y655D02*
X2429Y655D01*
X2465Y655D02*
X2472Y655D01*
X1Y654D02*
X8Y654D01*
X2136Y654D02*
X2150Y654D01*
X2196Y654D02*
X2210Y654D01*
X2252Y654D02*
X2271Y654D01*
X2354Y654D02*
X2369Y654D01*
X2415Y654D02*
X2429Y654D01*
X2465Y654D02*
X2472Y654D01*
X1Y653D02*
X8Y653D01*
X2136Y653D02*
X2150Y653D01*
X2196Y653D02*
X2210Y653D01*
X2253Y653D02*
X2271Y653D01*
X2354Y653D02*
X2369Y653D01*
X2415Y653D02*
X2429Y653D01*
X2465Y653D02*
X2472Y653D01*
X1Y652D02*
X8Y652D01*
X2136Y652D02*
X2150Y652D01*
X2196Y652D02*
X2210Y652D01*
X2254Y652D02*
X2272Y652D01*
X2354Y652D02*
X2369Y652D01*
X2415Y652D02*
X2429Y652D01*
X2465Y652D02*
X2472Y652D01*
X1Y651D02*
X8Y651D01*
X2136Y651D02*
X2150Y651D01*
X2196Y651D02*
X2210Y651D01*
X2254Y651D02*
X2273Y651D01*
X2354Y651D02*
X2369Y651D01*
X2415Y651D02*
X2429Y651D01*
X2465Y651D02*
X2472Y651D01*
X1Y650D02*
X8Y650D01*
X2136Y650D02*
X2150Y650D01*
X2196Y650D02*
X2210Y650D01*
X2255Y650D02*
X2274Y650D01*
X2354Y650D02*
X2369Y650D01*
X2415Y650D02*
X2429Y650D01*
X2465Y650D02*
X2472Y650D01*
X1Y649D02*
X8Y649D01*
X2136Y649D02*
X2150Y649D01*
X2196Y649D02*
X2210Y649D01*
X2256Y649D02*
X2275Y649D01*
X2354Y649D02*
X2369Y649D01*
X2414Y649D02*
X2429Y649D01*
X2465Y649D02*
X2472Y649D01*
X1Y648D02*
X8Y648D01*
X2136Y648D02*
X2150Y648D01*
X2196Y648D02*
X2210Y648D01*
X2257Y648D02*
X2275Y648D01*
X2354Y648D02*
X2369Y648D01*
X2414Y648D02*
X2429Y648D01*
X2465Y648D02*
X2472Y648D01*
X1Y647D02*
X8Y647D01*
X2136Y647D02*
X2150Y647D01*
X2196Y647D02*
X2210Y647D01*
X2258Y647D02*
X2276Y647D01*
X2354Y647D02*
X2369Y647D01*
X2414Y647D02*
X2429Y647D01*
X2465Y647D02*
X2472Y647D01*
X1Y646D02*
X8Y646D01*
X2136Y646D02*
X2150Y646D01*
X2196Y646D02*
X2210Y646D01*
X2258Y646D02*
X2277Y646D01*
X2354Y646D02*
X2369Y646D01*
X2414Y646D02*
X2429Y646D01*
X2465Y646D02*
X2472Y646D01*
X1Y645D02*
X8Y645D01*
X2136Y645D02*
X2150Y645D01*
X2196Y645D02*
X2210Y645D01*
X2259Y645D02*
X2278Y645D01*
X2354Y645D02*
X2369Y645D01*
X2414Y645D02*
X2428Y645D01*
X2465Y645D02*
X2472Y645D01*
X1Y644D02*
X8Y644D01*
X2136Y644D02*
X2150Y644D01*
X2196Y644D02*
X2210Y644D01*
X2260Y644D02*
X2278Y644D01*
X2354Y644D02*
X2369Y644D01*
X2413Y644D02*
X2428Y644D01*
X2465Y644D02*
X2472Y644D01*
X1Y643D02*
X8Y643D01*
X2136Y643D02*
X2150Y643D01*
X2196Y643D02*
X2210Y643D01*
X2261Y643D02*
X2279Y643D01*
X2354Y643D02*
X2369Y643D01*
X2413Y643D02*
X2428Y643D01*
X2465Y643D02*
X2472Y643D01*
X1Y642D02*
X8Y642D01*
X2136Y642D02*
X2150Y642D01*
X2196Y642D02*
X2210Y642D01*
X2261Y642D02*
X2280Y642D01*
X2354Y642D02*
X2369Y642D01*
X2412Y642D02*
X2428Y642D01*
X2465Y642D02*
X2472Y642D01*
X1Y641D02*
X8Y641D01*
X1760Y641D02*
X1761Y641D01*
X2136Y641D02*
X2150Y641D01*
X2196Y641D02*
X2210Y641D01*
X2262Y641D02*
X2281Y641D01*
X2354Y641D02*
X2369Y641D01*
X2411Y641D02*
X2427Y641D01*
X2465Y641D02*
X2472Y641D01*
X1Y640D02*
X8Y640D01*
X1759Y640D02*
X1762Y640D01*
X2136Y640D02*
X2150Y640D01*
X2196Y640D02*
X2210Y640D01*
X2263Y640D02*
X2282Y640D01*
X2354Y640D02*
X2369Y640D01*
X2410Y640D02*
X2427Y640D01*
X2465Y640D02*
X2472Y640D01*
X1Y639D02*
X8Y639D01*
X1758Y639D02*
X1763Y639D01*
X2136Y639D02*
X2150Y639D01*
X2196Y639D02*
X2210Y639D01*
X2264Y639D02*
X2282Y639D01*
X2354Y639D02*
X2369Y639D01*
X2409Y639D02*
X2427Y639D01*
X2465Y639D02*
X2472Y639D01*
X1Y638D02*
X8Y638D01*
X1757Y638D02*
X1763Y638D01*
X2136Y638D02*
X2150Y638D01*
X2196Y638D02*
X2210Y638D01*
X2265Y638D02*
X2283Y638D01*
X2354Y638D02*
X2369Y638D01*
X2408Y638D02*
X2426Y638D01*
X2465Y638D02*
X2472Y638D01*
X1Y637D02*
X8Y637D01*
X1756Y637D02*
X1762Y637D01*
X2136Y637D02*
X2150Y637D01*
X2196Y637D02*
X2210Y637D01*
X2265Y637D02*
X2284Y637D01*
X2354Y637D02*
X2369Y637D01*
X2406Y637D02*
X2426Y637D01*
X2465Y637D02*
X2472Y637D01*
X1Y636D02*
X8Y636D01*
X1755Y636D02*
X1761Y636D01*
X2136Y636D02*
X2150Y636D01*
X2196Y636D02*
X2210Y636D01*
X2266Y636D02*
X2285Y636D01*
X2354Y636D02*
X2369Y636D01*
X2404Y636D02*
X2425Y636D01*
X2465Y636D02*
X2472Y636D01*
X1Y635D02*
X8Y635D01*
X1754Y635D02*
X1760Y635D01*
X2136Y635D02*
X2150Y635D01*
X2196Y635D02*
X2210Y635D01*
X2267Y635D02*
X2285Y635D01*
X2354Y635D02*
X2425Y635D01*
X2465Y635D02*
X2472Y635D01*
X1Y634D02*
X8Y634D01*
X1753Y634D02*
X1759Y634D01*
X2136Y634D02*
X2150Y634D01*
X2196Y634D02*
X2210Y634D01*
X2268Y634D02*
X2286Y634D01*
X2354Y634D02*
X2424Y634D01*
X2465Y634D02*
X2472Y634D01*
X1Y633D02*
X8Y633D01*
X1752Y633D02*
X1758Y633D01*
X2136Y633D02*
X2150Y633D01*
X2196Y633D02*
X2210Y633D01*
X2268Y633D02*
X2287Y633D01*
X2354Y633D02*
X2423Y633D01*
X2465Y633D02*
X2472Y633D01*
X1Y632D02*
X8Y632D01*
X1751Y632D02*
X1757Y632D01*
X2136Y632D02*
X2150Y632D01*
X2196Y632D02*
X2210Y632D01*
X2269Y632D02*
X2288Y632D01*
X2354Y632D02*
X2423Y632D01*
X2465Y632D02*
X2472Y632D01*
X1Y631D02*
X8Y631D01*
X1750Y631D02*
X1756Y631D01*
X2136Y631D02*
X2150Y631D01*
X2196Y631D02*
X2210Y631D01*
X2270Y631D02*
X2289Y631D01*
X2354Y631D02*
X2422Y631D01*
X2465Y631D02*
X2472Y631D01*
X1Y630D02*
X8Y630D01*
X1749Y630D02*
X1755Y630D01*
X2136Y630D02*
X2150Y630D01*
X2196Y630D02*
X2210Y630D01*
X2271Y630D02*
X2289Y630D01*
X2354Y630D02*
X2421Y630D01*
X2465Y630D02*
X2472Y630D01*
X1Y629D02*
X8Y629D01*
X1748Y629D02*
X1754Y629D01*
X2136Y629D02*
X2150Y629D01*
X2196Y629D02*
X2210Y629D01*
X2271Y629D02*
X2290Y629D01*
X2354Y629D02*
X2420Y629D01*
X2465Y629D02*
X2472Y629D01*
X1Y628D02*
X8Y628D01*
X1747Y628D02*
X1753Y628D01*
X2136Y628D02*
X2150Y628D01*
X2196Y628D02*
X2210Y628D01*
X2272Y628D02*
X2291Y628D01*
X2354Y628D02*
X2419Y628D01*
X2465Y628D02*
X2472Y628D01*
X1Y627D02*
X8Y627D01*
X1746Y627D02*
X1752Y627D01*
X2136Y627D02*
X2150Y627D01*
X2196Y627D02*
X2210Y627D01*
X2273Y627D02*
X2292Y627D01*
X2354Y627D02*
X2419Y627D01*
X2465Y627D02*
X2472Y627D01*
X1Y626D02*
X8Y626D01*
X1745Y626D02*
X1751Y626D01*
X2136Y626D02*
X2150Y626D01*
X2196Y626D02*
X2210Y626D01*
X2274Y626D02*
X2292Y626D01*
X2354Y626D02*
X2420Y626D01*
X2465Y626D02*
X2472Y626D01*
X1Y625D02*
X8Y625D01*
X1744Y625D02*
X1749Y625D01*
X2136Y625D02*
X2150Y625D01*
X2196Y625D02*
X2210Y625D01*
X2275Y625D02*
X2293Y625D01*
X2354Y625D02*
X2421Y625D01*
X2465Y625D02*
X2472Y625D01*
X1Y624D02*
X8Y624D01*
X1743Y624D02*
X1748Y624D01*
X2136Y624D02*
X2150Y624D01*
X2196Y624D02*
X2210Y624D01*
X2275Y624D02*
X2294Y624D01*
X2354Y624D02*
X2422Y624D01*
X2465Y624D02*
X2472Y624D01*
X1Y623D02*
X8Y623D01*
X1742Y623D02*
X1747Y623D01*
X2136Y623D02*
X2150Y623D01*
X2196Y623D02*
X2210Y623D01*
X2276Y623D02*
X2295Y623D01*
X2354Y623D02*
X2422Y623D01*
X2465Y623D02*
X2472Y623D01*
X1Y622D02*
X8Y622D01*
X1741Y622D02*
X1746Y622D01*
X2136Y622D02*
X2150Y622D01*
X2196Y622D02*
X2210Y622D01*
X2277Y622D02*
X2296Y622D01*
X2354Y622D02*
X2423Y622D01*
X2465Y622D02*
X2472Y622D01*
X1Y621D02*
X8Y621D01*
X1740Y621D02*
X1745Y621D01*
X2136Y621D02*
X2150Y621D01*
X2196Y621D02*
X2210Y621D01*
X2278Y621D02*
X2296Y621D01*
X2354Y621D02*
X2424Y621D01*
X2465Y621D02*
X2472Y621D01*
X1Y620D02*
X8Y620D01*
X1739Y620D02*
X1744Y620D01*
X2136Y620D02*
X2150Y620D01*
X2196Y620D02*
X2210Y620D01*
X2278Y620D02*
X2297Y620D01*
X2354Y620D02*
X2425Y620D01*
X2465Y620D02*
X2472Y620D01*
X1Y619D02*
X8Y619D01*
X1738Y619D02*
X1743Y619D01*
X2136Y619D02*
X2150Y619D01*
X2196Y619D02*
X2210Y619D01*
X2279Y619D02*
X2298Y619D01*
X2354Y619D02*
X2369Y619D01*
X2404Y619D02*
X2425Y619D01*
X2465Y619D02*
X2472Y619D01*
X1Y618D02*
X8Y618D01*
X1737Y618D02*
X1742Y618D01*
X2136Y618D02*
X2150Y618D01*
X2196Y618D02*
X2210Y618D01*
X2280Y618D02*
X2299Y618D01*
X2354Y618D02*
X2369Y618D01*
X2406Y618D02*
X2426Y618D01*
X2465Y618D02*
X2472Y618D01*
X1Y617D02*
X8Y617D01*
X1736Y617D02*
X1742Y617D01*
X2136Y617D02*
X2150Y617D01*
X2196Y617D02*
X2210Y617D01*
X2281Y617D02*
X2299Y617D01*
X2354Y617D02*
X2369Y617D01*
X2408Y617D02*
X2426Y617D01*
X2465Y617D02*
X2472Y617D01*
X1Y616D02*
X8Y616D01*
X469Y616D02*
X471Y616D01*
X503Y616D02*
X524Y616D01*
X1735Y616D02*
X1741Y616D01*
X2136Y616D02*
X2150Y616D01*
X2196Y616D02*
X2210Y616D01*
X2282Y616D02*
X2300Y616D01*
X2354Y616D02*
X2369Y616D01*
X2409Y616D02*
X2427Y616D01*
X2465Y616D02*
X2472Y616D01*
X1Y615D02*
X8Y615D01*
X468Y615D02*
X472Y615D01*
X501Y615D02*
X526Y615D01*
X1734Y615D02*
X1740Y615D01*
X2136Y615D02*
X2150Y615D01*
X2196Y615D02*
X2210Y615D01*
X2282Y615D02*
X2301Y615D01*
X2354Y615D02*
X2369Y615D01*
X2410Y615D02*
X2427Y615D01*
X2465Y615D02*
X2472Y615D01*
X1Y614D02*
X8Y614D01*
X467Y614D02*
X472Y614D01*
X500Y614D02*
X527Y614D01*
X1733Y614D02*
X1739Y614D01*
X2136Y614D02*
X2150Y614D01*
X2196Y614D02*
X2210Y614D01*
X2283Y614D02*
X2302Y614D01*
X2354Y614D02*
X2369Y614D01*
X2411Y614D02*
X2427Y614D01*
X2465Y614D02*
X2472Y614D01*
X1Y613D02*
X8Y613D01*
X467Y613D02*
X473Y613D01*
X500Y613D02*
X528Y613D01*
X1732Y613D02*
X1738Y613D01*
X2136Y613D02*
X2150Y613D01*
X2196Y613D02*
X2210Y613D01*
X2284Y613D02*
X2303Y613D01*
X2354Y613D02*
X2369Y613D01*
X2412Y613D02*
X2428Y613D01*
X2465Y613D02*
X2472Y613D01*
X1Y612D02*
X8Y612D01*
X467Y612D02*
X473Y612D01*
X499Y612D02*
X528Y612D01*
X1731Y612D02*
X1737Y612D01*
X2136Y612D02*
X2150Y612D01*
X2196Y612D02*
X2210Y612D01*
X2285Y612D02*
X2303Y612D01*
X2354Y612D02*
X2369Y612D01*
X2413Y612D02*
X2428Y612D01*
X2465Y612D02*
X2472Y612D01*
X1Y611D02*
X8Y611D01*
X466Y611D02*
X473Y611D01*
X499Y611D02*
X528Y611D01*
X1730Y611D02*
X1736Y611D01*
X2136Y611D02*
X2150Y611D01*
X2196Y611D02*
X2210Y611D01*
X2285Y611D02*
X2304Y611D01*
X2354Y611D02*
X2369Y611D01*
X2413Y611D02*
X2428Y611D01*
X2465Y611D02*
X2472Y611D01*
X1Y610D02*
X8Y610D01*
X466Y610D02*
X474Y610D01*
X499Y610D02*
X504Y610D01*
X523Y610D02*
X528Y610D01*
X1729Y610D02*
X1735Y610D01*
X2136Y610D02*
X2150Y610D01*
X2196Y610D02*
X2210Y610D01*
X2286Y610D02*
X2305Y610D01*
X2354Y610D02*
X2369Y610D01*
X2414Y610D02*
X2428Y610D01*
X2465Y610D02*
X2472Y610D01*
X1Y609D02*
X8Y609D01*
X466Y609D02*
X474Y609D01*
X499Y609D02*
X504Y609D01*
X523Y609D02*
X528Y609D01*
X1728Y609D02*
X1734Y609D01*
X2136Y609D02*
X2150Y609D01*
X2196Y609D02*
X2210Y609D01*
X2287Y609D02*
X2306Y609D01*
X2354Y609D02*
X2369Y609D01*
X2414Y609D02*
X2429Y609D01*
X2465Y609D02*
X2472Y609D01*
X1Y608D02*
X8Y608D01*
X466Y608D02*
X474Y608D01*
X499Y608D02*
X504Y608D01*
X523Y608D02*
X528Y608D01*
X1727Y608D02*
X1733Y608D01*
X2136Y608D02*
X2150Y608D01*
X2196Y608D02*
X2210Y608D01*
X2288Y608D02*
X2306Y608D01*
X2354Y608D02*
X2369Y608D01*
X2414Y608D02*
X2429Y608D01*
X2465Y608D02*
X2472Y608D01*
X1Y607D02*
X8Y607D01*
X465Y607D02*
X474Y607D01*
X499Y607D02*
X504Y607D01*
X523Y607D02*
X528Y607D01*
X1726Y607D02*
X1732Y607D01*
X2136Y607D02*
X2150Y607D01*
X2196Y607D02*
X2210Y607D01*
X2289Y607D02*
X2307Y607D01*
X2354Y607D02*
X2369Y607D01*
X2414Y607D02*
X2429Y607D01*
X2465Y607D02*
X2472Y607D01*
X1Y606D02*
X8Y606D01*
X465Y606D02*
X475Y606D01*
X499Y606D02*
X504Y606D01*
X523Y606D02*
X528Y606D01*
X1727Y606D02*
X1731Y606D01*
X2136Y606D02*
X2150Y606D01*
X2196Y606D02*
X2210Y606D01*
X2289Y606D02*
X2308Y606D01*
X2354Y606D02*
X2369Y606D01*
X2414Y606D02*
X2429Y606D01*
X2465Y606D02*
X2472Y606D01*
X1Y605D02*
X8Y605D01*
X465Y605D02*
X475Y605D01*
X499Y605D02*
X504Y605D01*
X523Y605D02*
X528Y605D01*
X1728Y605D02*
X1730Y605D01*
X2136Y605D02*
X2150Y605D01*
X2196Y605D02*
X2210Y605D01*
X2290Y605D02*
X2309Y605D01*
X2354Y605D02*
X2369Y605D01*
X2415Y605D02*
X2429Y605D01*
X2465Y605D02*
X2472Y605D01*
X1Y604D02*
X8Y604D01*
X464Y604D02*
X475Y604D01*
X499Y604D02*
X504Y604D01*
X523Y604D02*
X528Y604D01*
X1729Y604D02*
X1729Y604D01*
X2136Y604D02*
X2150Y604D01*
X2196Y604D02*
X2210Y604D01*
X2291Y604D02*
X2309Y604D01*
X2354Y604D02*
X2369Y604D01*
X2415Y604D02*
X2429Y604D01*
X2465Y604D02*
X2472Y604D01*
X1Y603D02*
X8Y603D01*
X464Y603D02*
X476Y603D01*
X499Y603D02*
X504Y603D01*
X523Y603D02*
X528Y603D01*
X2136Y603D02*
X2150Y603D01*
X2196Y603D02*
X2210Y603D01*
X2292Y603D02*
X2310Y603D01*
X2354Y603D02*
X2369Y603D01*
X2415Y603D02*
X2429Y603D01*
X2465Y603D02*
X2472Y603D01*
X1Y602D02*
X8Y602D01*
X464Y602D02*
X476Y602D01*
X499Y602D02*
X504Y602D01*
X523Y602D02*
X528Y602D01*
X2136Y602D02*
X2150Y602D01*
X2196Y602D02*
X2210Y602D01*
X2292Y602D02*
X2311Y602D01*
X2354Y602D02*
X2369Y602D01*
X2415Y602D02*
X2429Y602D01*
X2465Y602D02*
X2472Y602D01*
X1Y601D02*
X8Y601D01*
X463Y601D02*
X469Y601D01*
X471Y601D02*
X476Y601D01*
X499Y601D02*
X504Y601D01*
X523Y601D02*
X528Y601D01*
X2136Y601D02*
X2150Y601D01*
X2196Y601D02*
X2210Y601D01*
X2293Y601D02*
X2312Y601D01*
X2354Y601D02*
X2369Y601D01*
X2415Y601D02*
X2429Y601D01*
X2465Y601D02*
X2472Y601D01*
X1Y600D02*
X8Y600D01*
X463Y600D02*
X469Y600D01*
X471Y600D02*
X476Y600D01*
X499Y600D02*
X504Y600D01*
X523Y600D02*
X528Y600D01*
X2136Y600D02*
X2150Y600D01*
X2196Y600D02*
X2210Y600D01*
X2294Y600D02*
X2313Y600D01*
X2354Y600D02*
X2369Y600D01*
X2415Y600D02*
X2429Y600D01*
X2465Y600D02*
X2472Y600D01*
X1Y599D02*
X8Y599D01*
X463Y599D02*
X468Y599D01*
X471Y599D02*
X477Y599D01*
X499Y599D02*
X504Y599D01*
X523Y599D02*
X528Y599D01*
X2136Y599D02*
X2150Y599D01*
X2196Y599D02*
X2210Y599D01*
X2295Y599D02*
X2313Y599D01*
X2354Y599D02*
X2369Y599D01*
X2415Y599D02*
X2429Y599D01*
X2465Y599D02*
X2472Y599D01*
X1Y598D02*
X8Y598D01*
X463Y598D02*
X468Y598D01*
X472Y598D02*
X477Y598D01*
X499Y598D02*
X504Y598D01*
X523Y598D02*
X528Y598D01*
X2136Y598D02*
X2150Y598D01*
X2196Y598D02*
X2210Y598D01*
X2296Y598D02*
X2314Y598D01*
X2354Y598D02*
X2369Y598D01*
X2414Y598D02*
X2429Y598D01*
X2465Y598D02*
X2472Y598D01*
X1Y597D02*
X8Y597D01*
X462Y597D02*
X468Y597D01*
X472Y597D02*
X477Y597D01*
X499Y597D02*
X504Y597D01*
X523Y597D02*
X528Y597D01*
X2136Y597D02*
X2150Y597D01*
X2196Y597D02*
X2210Y597D01*
X2296Y597D02*
X2315Y597D01*
X2354Y597D02*
X2369Y597D01*
X2414Y597D02*
X2429Y597D01*
X2465Y597D02*
X2472Y597D01*
X1Y596D02*
X8Y596D01*
X462Y596D02*
X467Y596D01*
X472Y596D02*
X478Y596D01*
X499Y596D02*
X504Y596D01*
X523Y596D02*
X528Y596D01*
X2136Y596D02*
X2150Y596D01*
X2196Y596D02*
X2210Y596D01*
X2250Y596D02*
X2254Y596D01*
X2297Y596D02*
X2316Y596D01*
X2354Y596D02*
X2369Y596D01*
X2414Y596D02*
X2429Y596D01*
X2465Y596D02*
X2472Y596D01*
X1Y595D02*
X8Y595D01*
X462Y595D02*
X467Y595D01*
X473Y595D02*
X478Y595D01*
X499Y595D02*
X504Y595D01*
X523Y595D02*
X528Y595D01*
X2136Y595D02*
X2150Y595D01*
X2196Y595D02*
X2210Y595D01*
X2248Y595D02*
X2256Y595D01*
X2298Y595D02*
X2316Y595D01*
X2354Y595D02*
X2369Y595D01*
X2414Y595D02*
X2429Y595D01*
X2465Y595D02*
X2472Y595D01*
X1Y594D02*
X8Y594D01*
X461Y594D02*
X467Y594D01*
X473Y594D02*
X478Y594D01*
X499Y594D02*
X504Y594D01*
X523Y594D02*
X528Y594D01*
X2136Y594D02*
X2150Y594D01*
X2196Y594D02*
X2210Y594D01*
X2247Y594D02*
X2257Y594D01*
X2299Y594D02*
X2317Y594D01*
X2354Y594D02*
X2369Y594D01*
X2414Y594D02*
X2428Y594D01*
X2465Y594D02*
X2472Y594D01*
X1Y593D02*
X8Y593D01*
X461Y593D02*
X467Y593D01*
X473Y593D02*
X478Y593D01*
X499Y593D02*
X504Y593D01*
X523Y593D02*
X528Y593D01*
X2136Y593D02*
X2150Y593D01*
X2196Y593D02*
X2210Y593D01*
X2246Y593D02*
X2258Y593D01*
X2299Y593D02*
X2318Y593D01*
X2354Y593D02*
X2369Y593D01*
X2413Y593D02*
X2428Y593D01*
X2465Y593D02*
X2472Y593D01*
X1Y592D02*
X8Y592D01*
X461Y592D02*
X466Y592D01*
X473Y592D02*
X479Y592D01*
X499Y592D02*
X504Y592D01*
X523Y592D02*
X528Y592D01*
X2136Y592D02*
X2150Y592D01*
X2196Y592D02*
X2210Y592D01*
X2246Y592D02*
X2259Y592D01*
X2300Y592D02*
X2318Y592D01*
X2354Y592D02*
X2369Y592D01*
X2413Y592D02*
X2428Y592D01*
X2465Y592D02*
X2472Y592D01*
X1Y591D02*
X8Y591D01*
X461Y591D02*
X466Y591D01*
X474Y591D02*
X479Y591D01*
X499Y591D02*
X504Y591D01*
X523Y591D02*
X528Y591D01*
X2136Y591D02*
X2150Y591D01*
X2196Y591D02*
X2210Y591D01*
X2245Y591D02*
X2259Y591D01*
X2301Y591D02*
X2318Y591D01*
X2354Y591D02*
X2369Y591D01*
X2412Y591D02*
X2428Y591D01*
X2465Y591D02*
X2472Y591D01*
X1Y590D02*
X8Y590D01*
X460Y590D02*
X466Y590D01*
X474Y590D02*
X479Y590D01*
X499Y590D02*
X504Y590D01*
X523Y590D02*
X528Y590D01*
X2136Y590D02*
X2150Y590D01*
X2196Y590D02*
X2210Y590D01*
X2245Y590D02*
X2259Y590D01*
X2302Y590D02*
X2319Y590D01*
X2354Y590D02*
X2369Y590D01*
X2411Y590D02*
X2428Y590D01*
X2465Y590D02*
X2472Y590D01*
X1Y589D02*
X8Y589D01*
X460Y589D02*
X465Y589D01*
X474Y589D02*
X480Y589D01*
X499Y589D02*
X504Y589D01*
X523Y589D02*
X528Y589D01*
X2136Y589D02*
X2150Y589D01*
X2195Y589D02*
X2210Y589D01*
X2245Y589D02*
X2259Y589D01*
X2303Y589D02*
X2319Y589D01*
X2354Y589D02*
X2369Y589D01*
X2411Y589D02*
X2427Y589D01*
X2465Y589D02*
X2472Y589D01*
X1Y588D02*
X8Y588D01*
X460Y588D02*
X465Y588D01*
X475Y588D02*
X480Y588D01*
X499Y588D02*
X504Y588D01*
X523Y588D02*
X528Y588D01*
X2136Y588D02*
X2151Y588D01*
X2195Y588D02*
X2210Y588D01*
X2245Y588D02*
X2260Y588D01*
X2303Y588D02*
X2319Y588D01*
X2354Y588D02*
X2369Y588D01*
X2410Y588D02*
X2427Y588D01*
X2465Y588D02*
X2472Y588D01*
X1Y587D02*
X8Y587D01*
X459Y587D02*
X465Y587D01*
X475Y587D02*
X480Y587D01*
X499Y587D02*
X504Y587D01*
X523Y587D02*
X528Y587D01*
X2136Y587D02*
X2151Y587D01*
X2194Y587D02*
X2210Y587D01*
X2245Y587D02*
X2260Y587D01*
X2304Y587D02*
X2319Y587D01*
X2354Y587D02*
X2369Y587D01*
X2409Y587D02*
X2426Y587D01*
X2465Y587D02*
X2472Y587D01*
X1Y586D02*
X8Y586D01*
X459Y586D02*
X465Y586D01*
X475Y586D02*
X481Y586D01*
X499Y586D02*
X504Y586D01*
X523Y586D02*
X528Y586D01*
X2136Y586D02*
X2152Y586D01*
X2193Y586D02*
X2209Y586D01*
X2245Y586D02*
X2260Y586D01*
X2305Y586D02*
X2319Y586D01*
X2354Y586D02*
X2369Y586D01*
X2407Y586D02*
X2426Y586D01*
X2465Y586D02*
X2472Y586D01*
X1Y585D02*
X8Y585D01*
X459Y585D02*
X481Y585D01*
X499Y585D02*
X504Y585D01*
X523Y585D02*
X528Y585D01*
X2137Y585D02*
X2153Y585D01*
X2192Y585D02*
X2209Y585D01*
X2245Y585D02*
X2261Y585D01*
X2305Y585D02*
X2319Y585D01*
X2354Y585D02*
X2369Y585D01*
X2405Y585D02*
X2425Y585D01*
X2465Y585D02*
X2472Y585D01*
X1Y584D02*
X8Y584D01*
X459Y584D02*
X481Y584D01*
X499Y584D02*
X504Y584D01*
X523Y584D02*
X528Y584D01*
X2137Y584D02*
X2155Y584D01*
X2190Y584D02*
X2209Y584D01*
X2246Y584D02*
X2263Y584D01*
X2304Y584D02*
X2319Y584D01*
X2354Y584D02*
X2369Y584D01*
X2402Y584D02*
X2425Y584D01*
X2465Y584D02*
X2472Y584D01*
X1Y583D02*
X8Y583D01*
X458Y583D02*
X481Y583D01*
X499Y583D02*
X504Y583D01*
X523Y583D02*
X528Y583D01*
X2137Y583D02*
X2208Y583D01*
X2246Y583D02*
X2319Y583D01*
X2354Y583D02*
X2424Y583D01*
X2465Y583D02*
X2472Y583D01*
X1Y582D02*
X8Y582D01*
X458Y582D02*
X482Y582D01*
X499Y582D02*
X504Y582D01*
X523Y582D02*
X528Y582D01*
X2138Y582D02*
X2208Y582D01*
X2246Y582D02*
X2319Y582D01*
X2354Y582D02*
X2424Y582D01*
X2465Y582D02*
X2472Y582D01*
X1Y581D02*
X8Y581D01*
X458Y581D02*
X482Y581D01*
X499Y581D02*
X504Y581D01*
X523Y581D02*
X528Y581D01*
X2138Y581D02*
X2207Y581D01*
X2247Y581D02*
X2319Y581D01*
X2354Y581D02*
X2423Y581D01*
X2465Y581D02*
X2472Y581D01*
X1Y580D02*
X8Y580D01*
X457Y580D02*
X482Y580D01*
X499Y580D02*
X504Y580D01*
X523Y580D02*
X528Y580D01*
X2139Y580D02*
X2207Y580D01*
X2247Y580D02*
X2318Y580D01*
X2354Y580D02*
X2422Y580D01*
X2465Y580D02*
X2472Y580D01*
X1Y579D02*
X8Y579D01*
X457Y579D02*
X462Y579D01*
X477Y579D02*
X483Y579D01*
X499Y579D02*
X504Y579D01*
X523Y579D02*
X528Y579D01*
X2139Y579D02*
X2206Y579D01*
X2248Y579D02*
X2318Y579D01*
X2354Y579D02*
X2421Y579D01*
X2465Y579D02*
X2472Y579D01*
X1Y578D02*
X8Y578D01*
X457Y578D02*
X462Y578D01*
X478Y578D02*
X483Y578D01*
X499Y578D02*
X504Y578D01*
X523Y578D02*
X528Y578D01*
X2140Y578D02*
X2206Y578D01*
X2248Y578D02*
X2317Y578D01*
X2354Y578D02*
X2420Y578D01*
X2465Y578D02*
X2472Y578D01*
X1Y577D02*
X8Y577D01*
X456Y577D02*
X462Y577D01*
X478Y577D02*
X483Y577D01*
X499Y577D02*
X504Y577D01*
X523Y577D02*
X528Y577D01*
X2141Y577D02*
X2205Y577D01*
X2249Y577D02*
X2317Y577D01*
X2354Y577D02*
X2419Y577D01*
X2465Y577D02*
X2472Y577D01*
X1Y576D02*
X8Y576D01*
X456Y576D02*
X462Y576D01*
X478Y576D02*
X483Y576D01*
X499Y576D02*
X504Y576D01*
X523Y576D02*
X528Y576D01*
X2142Y576D02*
X2204Y576D01*
X2250Y576D02*
X2316Y576D01*
X2354Y576D02*
X2418Y576D01*
X2465Y576D02*
X2472Y576D01*
X1Y575D02*
X8Y575D01*
X456Y575D02*
X461Y575D01*
X478Y575D02*
X484Y575D01*
X499Y575D02*
X528Y575D01*
X2143Y575D02*
X2203Y575D01*
X2251Y575D02*
X2316Y575D01*
X2354Y575D02*
X2417Y575D01*
X2465Y575D02*
X2472Y575D01*
X1Y574D02*
X8Y574D01*
X456Y574D02*
X461Y574D01*
X479Y574D02*
X484Y574D01*
X499Y574D02*
X528Y574D01*
X2144Y574D02*
X2202Y574D01*
X2252Y574D02*
X2315Y574D01*
X2354Y574D02*
X2416Y574D01*
X2465Y574D02*
X2472Y574D01*
X1Y573D02*
X8Y573D01*
X455Y573D02*
X461Y573D01*
X479Y573D02*
X484Y573D01*
X500Y573D02*
X528Y573D01*
X2145Y573D02*
X2201Y573D01*
X2253Y573D02*
X2314Y573D01*
X2354Y573D02*
X2414Y573D01*
X2465Y573D02*
X2472Y573D01*
X1Y572D02*
X8Y572D01*
X455Y572D02*
X460Y572D01*
X479Y572D02*
X484Y572D01*
X500Y572D02*
X527Y572D01*
X2146Y572D02*
X2199Y572D01*
X2254Y572D02*
X2313Y572D01*
X2354Y572D02*
X2413Y572D01*
X2465Y572D02*
X2472Y572D01*
X1Y571D02*
X8Y571D01*
X455Y571D02*
X460Y571D01*
X480Y571D02*
X484Y571D01*
X501Y571D02*
X526Y571D01*
X2148Y571D02*
X2197Y571D01*
X2256Y571D02*
X2311Y571D01*
X2354Y571D02*
X2411Y571D01*
X2465Y571D02*
X2472Y571D01*
X1Y570D02*
X8Y570D01*
X456Y570D02*
X459Y570D01*
X480Y570D02*
X483Y570D01*
X502Y570D02*
X525Y570D01*
X2150Y570D02*
X2195Y570D01*
X2258Y570D02*
X2310Y570D01*
X2354Y570D02*
X2408Y570D01*
X2465Y570D02*
X2472Y570D01*
X1Y569D02*
X8Y569D01*
X2153Y569D02*
X2192Y569D01*
X2261Y569D02*
X2307Y569D01*
X2354Y569D02*
X2404Y569D01*
X2465Y569D02*
X2472Y569D01*
X1Y568D02*
X8Y568D01*
X2465Y568D02*
X2472Y568D01*
X1Y567D02*
X8Y567D01*
X2465Y567D02*
X2472Y567D01*
X1Y566D02*
X8Y566D01*
X2465Y566D02*
X2472Y566D01*
X1Y565D02*
X8Y565D01*
X2465Y565D02*
X2472Y565D01*
X1Y564D02*
X8Y564D01*
X2465Y564D02*
X2472Y564D01*
X1Y563D02*
X8Y563D01*
X2465Y563D02*
X2472Y563D01*
X1Y562D02*
X8Y562D01*
X2465Y562D02*
X2472Y562D01*
X1Y561D02*
X8Y561D01*
X2465Y561D02*
X2472Y561D01*
X1Y560D02*
X8Y560D01*
X2465Y560D02*
X2472Y560D01*
X1Y559D02*
X8Y559D01*
X2465Y559D02*
X2472Y559D01*
X1Y558D02*
X8Y558D01*
X2465Y558D02*
X2472Y558D01*
X1Y557D02*
X8Y557D01*
X2465Y557D02*
X2472Y557D01*
X1Y556D02*
X8Y556D01*
X2465Y556D02*
X2472Y556D01*
X1Y555D02*
X8Y555D01*
X2465Y555D02*
X2472Y555D01*
X1Y554D02*
X8Y554D01*
X2465Y554D02*
X2472Y554D01*
X1Y553D02*
X8Y553D01*
X2465Y553D02*
X2472Y553D01*
X1Y552D02*
X8Y552D01*
X2465Y552D02*
X2472Y552D01*
X1Y551D02*
X8Y551D01*
X2465Y551D02*
X2472Y551D01*
X1Y550D02*
X8Y550D01*
X2465Y550D02*
X2472Y550D01*
X1Y549D02*
X8Y549D01*
X2465Y549D02*
X2472Y549D01*
X1Y548D02*
X8Y548D01*
X2465Y548D02*
X2472Y548D01*
X1Y547D02*
X8Y547D01*
X2465Y547D02*
X2472Y547D01*
X1Y546D02*
X8Y546D01*
X2465Y546D02*
X2472Y546D01*
X1Y545D02*
X8Y545D01*
X2465Y545D02*
X2472Y545D01*
X1Y544D02*
X8Y544D01*
X2465Y544D02*
X2472Y544D01*
X1Y543D02*
X8Y543D01*
X2465Y543D02*
X2472Y543D01*
X1Y542D02*
X8Y542D01*
X2465Y542D02*
X2472Y542D01*
X1Y541D02*
X8Y541D01*
X2465Y541D02*
X2472Y541D01*
X1Y540D02*
X8Y540D01*
X2465Y540D02*
X2472Y540D01*
X1Y539D02*
X8Y539D01*
X2465Y539D02*
X2472Y539D01*
X1Y538D02*
X8Y538D01*
X2465Y538D02*
X2472Y538D01*
X1Y537D02*
X8Y537D01*
X2465Y537D02*
X2472Y537D01*
X1Y536D02*
X8Y536D01*
X2465Y536D02*
X2472Y536D01*
X1Y535D02*
X8Y535D01*
X2465Y535D02*
X2472Y535D01*
X1Y534D02*
X8Y534D01*
X2465Y534D02*
X2472Y534D01*
X1Y533D02*
X8Y533D01*
X2465Y533D02*
X2472Y533D01*
X1Y532D02*
X8Y532D01*
X2465Y532D02*
X2472Y532D01*
X1Y531D02*
X8Y531D01*
X2465Y531D02*
X2472Y531D01*
X1Y530D02*
X8Y530D01*
X2465Y530D02*
X2472Y530D01*
X1Y529D02*
X8Y529D01*
X2465Y529D02*
X2472Y529D01*
X1Y528D02*
X8Y528D01*
X2465Y528D02*
X2472Y528D01*
X1Y527D02*
X8Y527D01*
X2465Y527D02*
X2472Y527D01*
X1Y526D02*
X8Y526D01*
X2465Y526D02*
X2472Y526D01*
X1Y525D02*
X8Y525D01*
X2465Y525D02*
X2472Y525D01*
X1Y524D02*
X8Y524D01*
X2465Y524D02*
X2472Y524D01*
X1Y523D02*
X8Y523D01*
X2465Y523D02*
X2472Y523D01*
X1Y522D02*
X8Y522D01*
X2465Y522D02*
X2472Y522D01*
X1Y521D02*
X8Y521D01*
X2465Y521D02*
X2472Y521D01*
X1Y520D02*
X8Y520D01*
X2465Y520D02*
X2472Y520D01*
X1Y519D02*
X8Y519D01*
X2465Y519D02*
X2472Y519D01*
X1Y518D02*
X8Y518D01*
X2465Y518D02*
X2472Y518D01*
X1Y517D02*
X8Y517D01*
X2465Y517D02*
X2472Y517D01*
X1Y516D02*
X8Y516D01*
X2465Y516D02*
X2472Y516D01*
X1Y515D02*
X8Y515D01*
X2465Y515D02*
X2472Y515D01*
X1Y514D02*
X8Y514D01*
X2465Y514D02*
X2472Y514D01*
X1Y513D02*
X8Y513D01*
X2465Y513D02*
X2472Y513D01*
X1Y512D02*
X8Y512D01*
X2465Y512D02*
X2472Y512D01*
X1Y511D02*
X8Y511D01*
X2465Y511D02*
X2472Y511D01*
X1Y510D02*
X8Y510D01*
X2465Y510D02*
X2472Y510D01*
X1Y509D02*
X8Y509D01*
X2465Y509D02*
X2472Y509D01*
X1Y508D02*
X8Y508D01*
X2465Y508D02*
X2472Y508D01*
X1Y507D02*
X8Y507D01*
X2465Y507D02*
X2472Y507D01*
X1Y506D02*
X8Y506D01*
X2465Y506D02*
X2472Y506D01*
X1Y505D02*
X8Y505D01*
X480Y505D02*
X501Y505D01*
X521Y505D02*
X537Y505D01*
X577Y505D02*
X580Y505D01*
X2465Y505D02*
X2472Y505D01*
X1Y504D02*
X8Y504D01*
X478Y504D02*
X502Y504D01*
X520Y504D02*
X539Y504D01*
X576Y504D02*
X581Y504D01*
X2465Y504D02*
X2472Y504D01*
X1Y503D02*
X8Y503D01*
X477Y503D02*
X503Y503D01*
X520Y503D02*
X540Y503D01*
X576Y503D02*
X581Y503D01*
X2465Y503D02*
X2472Y503D01*
X1Y502D02*
X8Y502D01*
X477Y502D02*
X504Y502D01*
X520Y502D02*
X541Y502D01*
X575Y502D02*
X581Y502D01*
X2465Y502D02*
X2472Y502D01*
X1Y501D02*
X8Y501D01*
X476Y501D02*
X505Y501D01*
X521Y501D02*
X541Y501D01*
X575Y501D02*
X581Y501D01*
X2465Y501D02*
X2472Y501D01*
X1Y500D02*
X8Y500D01*
X476Y500D02*
X505Y500D01*
X522Y500D02*
X542Y500D01*
X575Y500D02*
X582Y500D01*
X2465Y500D02*
X2472Y500D01*
X1Y499D02*
X8Y499D01*
X476Y499D02*
X481Y499D01*
X500Y499D02*
X505Y499D01*
X526Y499D02*
X531Y499D01*
X536Y499D02*
X542Y499D01*
X574Y499D02*
X582Y499D01*
X2465Y499D02*
X2472Y499D01*
X1Y498D02*
X8Y498D01*
X476Y498D02*
X482Y498D01*
X500Y498D02*
X505Y498D01*
X526Y498D02*
X531Y498D01*
X537Y498D02*
X543Y498D01*
X574Y498D02*
X582Y498D01*
X2465Y498D02*
X2472Y498D01*
X1Y497D02*
X8Y497D01*
X476Y497D02*
X483Y497D01*
X500Y497D02*
X505Y497D01*
X526Y497D02*
X531Y497D01*
X537Y497D02*
X543Y497D01*
X574Y497D02*
X583Y497D01*
X2465Y497D02*
X2472Y497D01*
X1Y496D02*
X8Y496D01*
X477Y496D02*
X483Y496D01*
X501Y496D02*
X505Y496D01*
X526Y496D02*
X531Y496D01*
X538Y496D02*
X544Y496D01*
X574Y496D02*
X583Y496D01*
X2465Y496D02*
X2472Y496D01*
X1Y495D02*
X8Y495D01*
X477Y495D02*
X484Y495D01*
X502Y495D02*
X503Y495D01*
X526Y495D02*
X531Y495D01*
X538Y495D02*
X544Y495D01*
X573Y495D02*
X583Y495D01*
X2465Y495D02*
X2472Y495D01*
X1Y494D02*
X8Y494D01*
X478Y494D02*
X485Y494D01*
X526Y494D02*
X531Y494D01*
X539Y494D02*
X545Y494D01*
X573Y494D02*
X584Y494D01*
X2465Y494D02*
X2472Y494D01*
X1Y493D02*
X8Y493D01*
X479Y493D02*
X486Y493D01*
X526Y493D02*
X531Y493D01*
X539Y493D02*
X545Y493D01*
X573Y493D02*
X584Y493D01*
X2465Y493D02*
X2472Y493D01*
X1Y492D02*
X8Y492D01*
X480Y492D02*
X487Y492D01*
X526Y492D02*
X531Y492D01*
X540Y492D02*
X546Y492D01*
X572Y492D02*
X584Y492D01*
X2465Y492D02*
X2472Y492D01*
X1Y491D02*
X8Y491D01*
X480Y491D02*
X487Y491D01*
X526Y491D02*
X531Y491D01*
X540Y491D02*
X546Y491D01*
X572Y491D02*
X577Y491D01*
X579Y491D02*
X584Y491D01*
X2465Y491D02*
X2472Y491D01*
X1Y490D02*
X8Y490D01*
X481Y490D02*
X488Y490D01*
X526Y490D02*
X531Y490D01*
X541Y490D02*
X547Y490D01*
X572Y490D02*
X577Y490D01*
X579Y490D02*
X585Y490D01*
X2465Y490D02*
X2472Y490D01*
X1Y489D02*
X8Y489D01*
X482Y489D02*
X489Y489D01*
X526Y489D02*
X531Y489D01*
X541Y489D02*
X547Y489D01*
X571Y489D02*
X577Y489D01*
X580Y489D02*
X585Y489D01*
X2465Y489D02*
X2472Y489D01*
X1Y488D02*
X8Y488D01*
X483Y488D02*
X490Y488D01*
X526Y488D02*
X531Y488D01*
X542Y488D02*
X548Y488D01*
X571Y488D02*
X577Y488D01*
X580Y488D02*
X585Y488D01*
X2465Y488D02*
X2472Y488D01*
X1Y487D02*
X8Y487D01*
X484Y487D02*
X490Y487D01*
X526Y487D02*
X531Y487D01*
X542Y487D02*
X548Y487D01*
X571Y487D02*
X576Y487D01*
X580Y487D02*
X586Y487D01*
X2465Y487D02*
X2472Y487D01*
X1Y486D02*
X8Y486D01*
X484Y486D02*
X491Y486D01*
X526Y486D02*
X531Y486D01*
X543Y486D02*
X548Y486D01*
X571Y486D02*
X576Y486D01*
X580Y486D02*
X586Y486D01*
X2465Y486D02*
X2472Y486D01*
X1Y485D02*
X8Y485D01*
X485Y485D02*
X492Y485D01*
X526Y485D02*
X531Y485D01*
X543Y485D02*
X549Y485D01*
X570Y485D02*
X576Y485D01*
X581Y485D02*
X586Y485D01*
X2465Y485D02*
X2472Y485D01*
X1Y484D02*
X8Y484D01*
X486Y484D02*
X493Y484D01*
X526Y484D02*
X531Y484D01*
X544Y484D02*
X549Y484D01*
X570Y484D02*
X575Y484D01*
X581Y484D02*
X586Y484D01*
X2465Y484D02*
X2472Y484D01*
X1Y483D02*
X8Y483D01*
X487Y483D02*
X494Y483D01*
X526Y483D02*
X531Y483D01*
X544Y483D02*
X549Y483D01*
X570Y483D02*
X575Y483D01*
X581Y483D02*
X587Y483D01*
X2465Y483D02*
X2472Y483D01*
X1Y482D02*
X8Y482D01*
X487Y482D02*
X494Y482D01*
X526Y482D02*
X531Y482D01*
X544Y482D02*
X549Y482D01*
X569Y482D02*
X575Y482D01*
X582Y482D02*
X587Y482D01*
X2465Y482D02*
X2472Y482D01*
X1Y481D02*
X8Y481D01*
X488Y481D02*
X495Y481D01*
X526Y481D02*
X531Y481D01*
X544Y481D02*
X549Y481D01*
X569Y481D02*
X574Y481D01*
X582Y481D02*
X587Y481D01*
X2465Y481D02*
X2472Y481D01*
X1Y480D02*
X8Y480D01*
X489Y480D02*
X496Y480D01*
X526Y480D02*
X531Y480D01*
X543Y480D02*
X549Y480D01*
X569Y480D02*
X574Y480D01*
X582Y480D02*
X588Y480D01*
X2465Y480D02*
X2472Y480D01*
X1Y479D02*
X8Y479D01*
X490Y479D02*
X497Y479D01*
X526Y479D02*
X531Y479D01*
X543Y479D02*
X549Y479D01*
X569Y479D02*
X574Y479D01*
X583Y479D02*
X588Y479D01*
X2465Y479D02*
X2472Y479D01*
X1Y478D02*
X8Y478D01*
X491Y478D02*
X497Y478D01*
X526Y478D02*
X531Y478D01*
X543Y478D02*
X548Y478D01*
X568Y478D02*
X574Y478D01*
X583Y478D02*
X588Y478D01*
X2465Y478D02*
X2472Y478D01*
X1Y477D02*
X8Y477D01*
X491Y477D02*
X498Y477D01*
X526Y477D02*
X531Y477D01*
X542Y477D02*
X548Y477D01*
X568Y477D02*
X573Y477D01*
X583Y477D02*
X588Y477D01*
X2465Y477D02*
X2472Y477D01*
X1Y476D02*
X8Y476D01*
X492Y476D02*
X499Y476D01*
X526Y476D02*
X531Y476D01*
X542Y476D02*
X547Y476D01*
X568Y476D02*
X573Y476D01*
X583Y476D02*
X589Y476D01*
X2465Y476D02*
X2472Y476D01*
X1Y475D02*
X8Y475D01*
X493Y475D02*
X500Y475D01*
X526Y475D02*
X531Y475D01*
X541Y475D02*
X547Y475D01*
X567Y475D02*
X589Y475D01*
X2465Y475D02*
X2472Y475D01*
X1Y474D02*
X8Y474D01*
X494Y474D02*
X500Y474D01*
X526Y474D02*
X531Y474D01*
X541Y474D02*
X547Y474D01*
X567Y474D02*
X589Y474D01*
X2465Y474D02*
X2472Y474D01*
X1Y473D02*
X8Y473D01*
X494Y473D02*
X501Y473D01*
X526Y473D02*
X531Y473D01*
X540Y473D02*
X546Y473D01*
X567Y473D02*
X590Y473D01*
X2465Y473D02*
X2472Y473D01*
X1Y472D02*
X8Y472D01*
X495Y472D02*
X502Y472D01*
X526Y472D02*
X531Y472D01*
X540Y472D02*
X546Y472D01*
X566Y472D02*
X590Y472D01*
X2465Y472D02*
X2472Y472D01*
X1Y471D02*
X8Y471D01*
X496Y471D02*
X503Y471D01*
X526Y471D02*
X531Y471D01*
X539Y471D02*
X545Y471D01*
X566Y471D02*
X590Y471D01*
X2465Y471D02*
X2472Y471D01*
X1Y470D02*
X8Y470D01*
X497Y470D02*
X504Y470D01*
X526Y470D02*
X531Y470D01*
X539Y470D02*
X545Y470D01*
X566Y470D02*
X591Y470D01*
X2465Y470D02*
X2472Y470D01*
X1Y469D02*
X8Y469D01*
X477Y469D02*
X480Y469D01*
X498Y469D02*
X504Y469D01*
X526Y469D02*
X531Y469D01*
X538Y469D02*
X544Y469D01*
X566Y469D02*
X591Y469D01*
X2465Y469D02*
X2472Y469D01*
X1Y468D02*
X8Y468D01*
X476Y468D02*
X481Y468D01*
X498Y468D02*
X505Y468D01*
X526Y468D02*
X531Y468D01*
X538Y468D02*
X544Y468D01*
X565Y468D02*
X571Y468D01*
X586Y468D02*
X591Y468D01*
X2465Y468D02*
X2472Y468D01*
X1Y467D02*
X8Y467D01*
X476Y467D02*
X481Y467D01*
X499Y467D02*
X505Y467D01*
X526Y467D02*
X531Y467D01*
X537Y467D02*
X543Y467D01*
X565Y467D02*
X570Y467D01*
X586Y467D02*
X591Y467D01*
X2465Y467D02*
X2472Y467D01*
X1Y466D02*
X8Y466D01*
X476Y466D02*
X481Y466D01*
X500Y466D02*
X505Y466D01*
X526Y466D02*
X531Y466D01*
X536Y466D02*
X543Y466D01*
X565Y466D02*
X570Y466D01*
X586Y466D02*
X592Y466D01*
X2465Y466D02*
X2472Y466D01*
X1Y465D02*
X8Y465D01*
X476Y465D02*
X483Y465D01*
X500Y465D02*
X505Y465D01*
X526Y465D02*
X531Y465D01*
X535Y465D02*
X542Y465D01*
X564Y465D02*
X570Y465D01*
X587Y465D02*
X592Y465D01*
X2465Y465D02*
X2472Y465D01*
X1Y464D02*
X8Y464D01*
X477Y464D02*
X505Y464D01*
X521Y464D02*
X542Y464D01*
X564Y464D02*
X570Y464D01*
X587Y464D02*
X592Y464D01*
X2465Y464D02*
X2472Y464D01*
X1Y463D02*
X8Y463D01*
X477Y463D02*
X505Y463D01*
X520Y463D02*
X541Y463D01*
X564Y463D02*
X569Y463D01*
X587Y463D02*
X593Y463D01*
X2465Y463D02*
X2472Y463D01*
X1Y462D02*
X8Y462D01*
X478Y462D02*
X504Y462D01*
X520Y462D02*
X540Y462D01*
X564Y462D02*
X569Y462D01*
X588Y462D02*
X593Y462D01*
X2465Y462D02*
X2472Y462D01*
X1Y461D02*
X8Y461D01*
X479Y461D02*
X503Y461D01*
X520Y461D02*
X539Y461D01*
X564Y461D02*
X569Y461D01*
X588Y461D02*
X593Y461D01*
X2465Y461D02*
X2472Y461D01*
X1Y460D02*
X8Y460D01*
X480Y460D02*
X502Y460D01*
X521Y460D02*
X538Y460D01*
X564Y460D02*
X568Y460D01*
X588Y460D02*
X592Y460D01*
X2465Y460D02*
X2472Y460D01*
X1Y459D02*
X8Y459D01*
X482Y459D02*
X500Y459D01*
X522Y459D02*
X535Y459D01*
X565Y459D02*
X567Y459D01*
X590Y459D02*
X591Y459D01*
X2465Y459D02*
X2472Y459D01*
X1Y458D02*
X8Y458D01*
X2465Y458D02*
X2472Y458D01*
X1Y457D02*
X8Y457D01*
X2465Y457D02*
X2472Y457D01*
X1Y456D02*
X8Y456D01*
X2465Y456D02*
X2472Y456D01*
X1Y455D02*
X8Y455D01*
X2465Y455D02*
X2472Y455D01*
X1Y454D02*
X8Y454D01*
X2465Y454D02*
X2472Y454D01*
X1Y453D02*
X8Y453D01*
X2465Y453D02*
X2472Y453D01*
X1Y452D02*
X8Y452D01*
X2465Y452D02*
X2472Y452D01*
X1Y451D02*
X8Y451D01*
X2465Y451D02*
X2472Y451D01*
X1Y450D02*
X8Y450D01*
X2465Y450D02*
X2472Y450D01*
X1Y449D02*
X8Y449D01*
X2465Y449D02*
X2472Y449D01*
X1Y448D02*
X8Y448D01*
X2465Y448D02*
X2472Y448D01*
X1Y447D02*
X8Y447D01*
X2465Y447D02*
X2472Y447D01*
X1Y446D02*
X8Y446D01*
X2465Y446D02*
X2472Y446D01*
X1Y445D02*
X8Y445D01*
X2465Y445D02*
X2472Y445D01*
X1Y444D02*
X8Y444D01*
X2465Y444D02*
X2472Y444D01*
X1Y443D02*
X8Y443D01*
X2465Y443D02*
X2472Y443D01*
X1Y442D02*
X8Y442D01*
X2465Y442D02*
X2472Y442D01*
X1Y441D02*
X8Y441D01*
X2465Y441D02*
X2472Y441D01*
X1Y440D02*
X8Y440D01*
X2465Y440D02*
X2472Y440D01*
X1Y439D02*
X8Y439D01*
X2465Y439D02*
X2472Y439D01*
X1Y438D02*
X8Y438D01*
X2465Y438D02*
X2472Y438D01*
X1Y437D02*
X8Y437D01*
X2465Y437D02*
X2472Y437D01*
X1Y436D02*
X8Y436D01*
X2465Y436D02*
X2472Y436D01*
X1Y435D02*
X8Y435D01*
X2465Y435D02*
X2472Y435D01*
X1Y434D02*
X8Y434D01*
X2465Y434D02*
X2472Y434D01*
X1Y433D02*
X8Y433D01*
X2465Y433D02*
X2472Y433D01*
X1Y432D02*
X8Y432D01*
X2465Y432D02*
X2472Y432D01*
X1Y431D02*
X8Y431D01*
X2465Y431D02*
X2472Y431D01*
X1Y430D02*
X8Y430D01*
X2465Y430D02*
X2472Y430D01*
X1Y429D02*
X8Y429D01*
X2465Y429D02*
X2472Y429D01*
X1Y428D02*
X8Y428D01*
X2465Y428D02*
X2472Y428D01*
X1Y427D02*
X8Y427D01*
X2465Y427D02*
X2472Y427D01*
X1Y426D02*
X8Y426D01*
X2465Y426D02*
X2472Y426D01*
X1Y425D02*
X8Y425D01*
X2465Y425D02*
X2472Y425D01*
X1Y424D02*
X8Y424D01*
X2465Y424D02*
X2472Y424D01*
X1Y423D02*
X8Y423D01*
X2465Y423D02*
X2472Y423D01*
X1Y422D02*
X8Y422D01*
X2465Y422D02*
X2472Y422D01*
X1Y421D02*
X8Y421D01*
X2465Y421D02*
X2472Y421D01*
X1Y420D02*
X8Y420D01*
X2465Y420D02*
X2472Y420D01*
X1Y419D02*
X8Y419D01*
X2465Y419D02*
X2472Y419D01*
X1Y418D02*
X8Y418D01*
X2465Y418D02*
X2472Y418D01*
X1Y417D02*
X8Y417D01*
X2465Y417D02*
X2472Y417D01*
X1Y416D02*
X8Y416D01*
X2465Y416D02*
X2472Y416D01*
X1Y415D02*
X8Y415D01*
X2465Y415D02*
X2472Y415D01*
X1Y414D02*
X8Y414D01*
X2465Y414D02*
X2472Y414D01*
X1Y413D02*
X8Y413D01*
X2465Y413D02*
X2472Y413D01*
X1Y412D02*
X8Y412D01*
X2465Y412D02*
X2472Y412D01*
X1Y411D02*
X8Y411D01*
X2465Y411D02*
X2472Y411D01*
X1Y410D02*
X8Y410D01*
X2465Y410D02*
X2472Y410D01*
X1Y409D02*
X8Y409D01*
X2465Y409D02*
X2472Y409D01*
X1Y408D02*
X8Y408D01*
X2465Y408D02*
X2472Y408D01*
X1Y407D02*
X8Y407D01*
X2465Y407D02*
X2472Y407D01*
X1Y406D02*
X8Y406D01*
X480Y406D02*
X496Y406D01*
X533Y406D02*
X545Y406D01*
X564Y406D02*
X564Y406D01*
X588Y406D02*
X589Y406D01*
X2465Y406D02*
X2472Y406D01*
X1Y405D02*
X8Y405D01*
X478Y405D02*
X499Y405D01*
X530Y405D02*
X546Y405D01*
X563Y405D02*
X566Y405D01*
X586Y405D02*
X590Y405D01*
X2465Y405D02*
X2472Y405D01*
X1Y404D02*
X8Y404D01*
X476Y404D02*
X501Y404D01*
X528Y404D02*
X547Y404D01*
X562Y404D02*
X567Y404D01*
X585Y404D02*
X591Y404D01*
X2465Y404D02*
X2472Y404D01*
X1Y403D02*
X8Y403D01*
X476Y403D02*
X502Y403D01*
X527Y403D02*
X547Y403D01*
X562Y403D02*
X567Y403D01*
X584Y403D02*
X591Y403D01*
X2465Y403D02*
X2472Y403D01*
X1Y402D02*
X8Y402D01*
X475Y402D02*
X502Y402D01*
X526Y402D02*
X547Y402D01*
X562Y402D02*
X567Y402D01*
X583Y402D02*
X591Y402D01*
X2465Y402D02*
X2472Y402D01*
X1Y401D02*
X8Y401D01*
X475Y401D02*
X503Y401D01*
X526Y401D02*
X546Y401D01*
X562Y401D02*
X567Y401D01*
X582Y401D02*
X590Y401D01*
X2465Y401D02*
X2472Y401D01*
X1Y400D02*
X8Y400D01*
X474Y400D02*
X503Y400D01*
X525Y400D02*
X544Y400D01*
X562Y400D02*
X567Y400D01*
X581Y400D02*
X589Y400D01*
X2465Y400D02*
X2472Y400D01*
X1Y399D02*
X8Y399D01*
X474Y399D02*
X480Y399D01*
X498Y399D02*
X503Y399D01*
X525Y399D02*
X531Y399D01*
X562Y399D02*
X567Y399D01*
X579Y399D02*
X588Y399D01*
X2465Y399D02*
X2472Y399D01*
X1Y398D02*
X8Y398D01*
X475Y398D02*
X480Y398D01*
X498Y398D02*
X503Y398D01*
X524Y398D02*
X530Y398D01*
X562Y398D02*
X567Y398D01*
X578Y398D02*
X587Y398D01*
X2465Y398D02*
X2472Y398D01*
X1Y397D02*
X8Y397D01*
X475Y397D02*
X481Y397D01*
X499Y397D02*
X503Y397D01*
X524Y397D02*
X530Y397D01*
X562Y397D02*
X567Y397D01*
X577Y397D02*
X586Y397D01*
X2465Y397D02*
X2472Y397D01*
X1Y396D02*
X8Y396D01*
X475Y396D02*
X482Y396D01*
X499Y396D02*
X503Y396D01*
X523Y396D02*
X529Y396D01*
X562Y396D02*
X567Y396D01*
X576Y396D02*
X584Y396D01*
X2465Y396D02*
X2472Y396D01*
X1Y395D02*
X8Y395D01*
X476Y395D02*
X483Y395D01*
X501Y395D02*
X501Y395D01*
X523Y395D02*
X529Y395D01*
X562Y395D02*
X567Y395D01*
X575Y395D02*
X583Y395D01*
X2465Y395D02*
X2472Y395D01*
X1Y394D02*
X8Y394D01*
X476Y394D02*
X483Y394D01*
X522Y394D02*
X528Y394D01*
X562Y394D02*
X567Y394D01*
X574Y394D02*
X582Y394D01*
X2465Y394D02*
X2472Y394D01*
X1Y393D02*
X8Y393D01*
X477Y393D02*
X484Y393D01*
X522Y393D02*
X528Y393D01*
X562Y393D02*
X567Y393D01*
X572Y393D02*
X581Y393D01*
X2465Y393D02*
X2472Y393D01*
X1Y392D02*
X8Y392D01*
X478Y392D02*
X485Y392D01*
X521Y392D02*
X527Y392D01*
X562Y392D02*
X567Y392D01*
X571Y392D02*
X580Y392D01*
X2465Y392D02*
X2472Y392D01*
X1Y391D02*
X8Y391D01*
X479Y391D02*
X486Y391D01*
X521Y391D02*
X527Y391D01*
X562Y391D02*
X567Y391D01*
X570Y391D02*
X579Y391D01*
X2465Y391D02*
X2472Y391D01*
X1Y390D02*
X8Y390D01*
X480Y390D02*
X486Y390D01*
X520Y390D02*
X526Y390D01*
X562Y390D02*
X567Y390D01*
X569Y390D02*
X577Y390D01*
X2465Y390D02*
X2472Y390D01*
X1Y389D02*
X8Y389D01*
X480Y389D02*
X487Y389D01*
X520Y389D02*
X526Y389D01*
X562Y389D02*
X576Y389D01*
X2465Y389D02*
X2472Y389D01*
X1Y388D02*
X8Y388D01*
X481Y388D02*
X488Y388D01*
X519Y388D02*
X525Y388D01*
X562Y388D02*
X575Y388D01*
X2465Y388D02*
X2472Y388D01*
X1Y387D02*
X8Y387D01*
X482Y387D02*
X489Y387D01*
X519Y387D02*
X525Y387D01*
X562Y387D02*
X574Y387D01*
X2465Y387D02*
X2472Y387D01*
X1Y386D02*
X8Y386D01*
X483Y386D02*
X490Y386D01*
X519Y386D02*
X524Y386D01*
X562Y386D02*
X573Y386D01*
X2465Y386D02*
X2472Y386D01*
X1Y385D02*
X8Y385D01*
X483Y385D02*
X490Y385D01*
X518Y385D02*
X524Y385D01*
X562Y385D02*
X572Y385D01*
X2465Y385D02*
X2472Y385D01*
X1Y384D02*
X8Y384D01*
X484Y384D02*
X491Y384D01*
X518Y384D02*
X523Y384D01*
X562Y384D02*
X570Y384D01*
X2465Y384D02*
X2472Y384D01*
X1Y383D02*
X8Y383D01*
X485Y383D02*
X492Y383D01*
X518Y383D02*
X523Y383D01*
X562Y383D02*
X569Y383D01*
X2465Y383D02*
X2472Y383D01*
X1Y382D02*
X8Y382D01*
X486Y382D02*
X493Y382D01*
X518Y382D02*
X523Y382D01*
X562Y382D02*
X569Y382D01*
X2465Y382D02*
X2472Y382D01*
X1Y381D02*
X8Y381D01*
X487Y381D02*
X493Y381D01*
X518Y381D02*
X523Y381D01*
X562Y381D02*
X570Y381D01*
X2465Y381D02*
X2472Y381D01*
X1Y380D02*
X8Y380D01*
X487Y380D02*
X494Y380D01*
X518Y380D02*
X524Y380D01*
X562Y380D02*
X572Y380D01*
X2465Y380D02*
X2472Y380D01*
X1Y379D02*
X8Y379D01*
X488Y379D02*
X495Y379D01*
X519Y379D02*
X524Y379D01*
X562Y379D02*
X573Y379D01*
X2465Y379D02*
X2472Y379D01*
X1Y378D02*
X8Y378D01*
X489Y378D02*
X496Y378D01*
X519Y378D02*
X525Y378D01*
X562Y378D02*
X574Y378D01*
X2465Y378D02*
X2472Y378D01*
X1Y377D02*
X8Y377D01*
X490Y377D02*
X497Y377D01*
X519Y377D02*
X525Y377D01*
X562Y377D02*
X575Y377D01*
X2465Y377D02*
X2472Y377D01*
X1Y376D02*
X8Y376D01*
X490Y376D02*
X497Y376D01*
X520Y376D02*
X526Y376D01*
X562Y376D02*
X576Y376D01*
X2465Y376D02*
X2472Y376D01*
X1Y375D02*
X8Y375D01*
X491Y375D02*
X498Y375D01*
X520Y375D02*
X526Y375D01*
X562Y375D02*
X567Y375D01*
X569Y375D02*
X577Y375D01*
X2465Y375D02*
X2472Y375D01*
X1Y374D02*
X8Y374D01*
X492Y374D02*
X499Y374D01*
X521Y374D02*
X527Y374D01*
X562Y374D02*
X567Y374D01*
X570Y374D02*
X579Y374D01*
X2465Y374D02*
X2472Y374D01*
X1Y373D02*
X8Y373D01*
X493Y373D02*
X500Y373D01*
X521Y373D02*
X527Y373D01*
X562Y373D02*
X567Y373D01*
X571Y373D02*
X580Y373D01*
X2465Y373D02*
X2472Y373D01*
X1Y372D02*
X8Y372D01*
X494Y372D02*
X500Y372D01*
X522Y372D02*
X528Y372D01*
X562Y372D02*
X567Y372D01*
X572Y372D02*
X581Y372D01*
X2465Y372D02*
X2472Y372D01*
X1Y371D02*
X8Y371D01*
X494Y371D02*
X501Y371D01*
X522Y371D02*
X528Y371D01*
X562Y371D02*
X567Y371D01*
X574Y371D02*
X582Y371D01*
X2465Y371D02*
X2472Y371D01*
X1Y370D02*
X8Y370D01*
X477Y370D02*
X477Y370D01*
X495Y370D02*
X502Y370D01*
X523Y370D02*
X529Y370D01*
X562Y370D02*
X567Y370D01*
X575Y370D02*
X583Y370D01*
X2465Y370D02*
X2472Y370D01*
X1Y369D02*
X8Y369D01*
X475Y369D02*
X479Y369D01*
X496Y369D02*
X503Y369D01*
X523Y369D02*
X529Y369D01*
X562Y369D02*
X567Y369D01*
X576Y369D02*
X584Y369D01*
X2465Y369D02*
X2472Y369D01*
X1Y368D02*
X8Y368D01*
X475Y368D02*
X479Y368D01*
X497Y368D02*
X503Y368D01*
X524Y368D02*
X530Y368D01*
X562Y368D02*
X567Y368D01*
X577Y368D02*
X586Y368D01*
X2465Y368D02*
X2472Y368D01*
X1Y367D02*
X8Y367D01*
X474Y367D02*
X479Y367D01*
X497Y367D02*
X503Y367D01*
X524Y367D02*
X530Y367D01*
X562Y367D02*
X567Y367D01*
X578Y367D02*
X587Y367D01*
X2465Y367D02*
X2472Y367D01*
X1Y366D02*
X8Y366D01*
X474Y366D02*
X480Y366D01*
X498Y366D02*
X503Y366D01*
X525Y366D02*
X531Y366D01*
X562Y366D02*
X567Y366D01*
X579Y366D02*
X588Y366D01*
X2465Y366D02*
X2472Y366D01*
X1Y365D02*
X8Y365D01*
X475Y365D02*
X503Y365D01*
X525Y365D02*
X544Y365D01*
X562Y365D02*
X567Y365D01*
X581Y365D02*
X589Y365D01*
X2465Y365D02*
X2472Y365D01*
X1Y364D02*
X8Y364D01*
X475Y364D02*
X503Y364D01*
X526Y364D02*
X546Y364D01*
X562Y364D02*
X567Y364D01*
X582Y364D02*
X590Y364D01*
X2465Y364D02*
X2472Y364D01*
X1Y363D02*
X8Y363D01*
X475Y363D02*
X503Y363D01*
X526Y363D02*
X547Y363D01*
X562Y363D02*
X567Y363D01*
X583Y363D02*
X591Y363D01*
X2465Y363D02*
X2472Y363D01*
X1Y362D02*
X8Y362D01*
X476Y362D02*
X502Y362D01*
X527Y362D02*
X547Y362D01*
X562Y362D02*
X567Y362D01*
X584Y362D02*
X591Y362D01*
X2465Y362D02*
X2472Y362D01*
X1Y361D02*
X8Y361D01*
X477Y361D02*
X501Y361D01*
X528Y361D02*
X547Y361D01*
X562Y361D02*
X567Y361D01*
X585Y361D02*
X591Y361D01*
X2465Y361D02*
X2472Y361D01*
X1Y360D02*
X8Y360D01*
X478Y360D02*
X500Y360D01*
X530Y360D02*
X546Y360D01*
X563Y360D02*
X566Y360D01*
X586Y360D02*
X590Y360D01*
X2465Y360D02*
X2472Y360D01*
X1Y359D02*
X8Y359D01*
X481Y359D02*
X498Y359D01*
X533Y359D02*
X545Y359D01*
X564Y359D02*
X565Y359D01*
X588Y359D02*
X589Y359D01*
X2465Y359D02*
X2472Y359D01*
X1Y358D02*
X8Y358D01*
X2465Y358D02*
X2472Y358D01*
X1Y357D02*
X8Y357D01*
X2465Y357D02*
X2472Y357D01*
X1Y356D02*
X8Y356D01*
X2465Y356D02*
X2472Y356D01*
X1Y355D02*
X8Y355D01*
X2465Y355D02*
X2472Y355D01*
X1Y354D02*
X8Y354D01*
X2465Y354D02*
X2472Y354D01*
X1Y353D02*
X8Y353D01*
X2465Y353D02*
X2472Y353D01*
X1Y352D02*
X8Y352D01*
X2465Y352D02*
X2472Y352D01*
X1Y351D02*
X8Y351D01*
X2465Y351D02*
X2472Y351D01*
X1Y350D02*
X8Y350D01*
X2465Y350D02*
X2472Y350D01*
X1Y349D02*
X8Y349D01*
X2465Y349D02*
X2472Y349D01*
X1Y348D02*
X8Y348D01*
X2465Y348D02*
X2472Y348D01*
X1Y347D02*
X8Y347D01*
X2465Y347D02*
X2472Y347D01*
X1Y346D02*
X8Y346D01*
X2465Y346D02*
X2472Y346D01*
X1Y345D02*
X8Y345D01*
X2465Y345D02*
X2472Y345D01*
X1Y344D02*
X8Y344D01*
X2465Y344D02*
X2472Y344D01*
X1Y343D02*
X8Y343D01*
X2465Y343D02*
X2472Y343D01*
X1Y342D02*
X8Y342D01*
X2465Y342D02*
X2472Y342D01*
X1Y341D02*
X8Y341D01*
X2465Y341D02*
X2472Y341D01*
X1Y340D02*
X8Y340D01*
X2465Y340D02*
X2472Y340D01*
X1Y339D02*
X8Y339D01*
X2465Y339D02*
X2472Y339D01*
X1Y338D02*
X8Y338D01*
X2465Y338D02*
X2472Y338D01*
X1Y337D02*
X8Y337D01*
X2465Y337D02*
X2472Y337D01*
X1Y336D02*
X8Y336D01*
X2465Y336D02*
X2472Y336D01*
X1Y335D02*
X8Y335D01*
X2465Y335D02*
X2472Y335D01*
X1Y334D02*
X8Y334D01*
X2465Y334D02*
X2472Y334D01*
X1Y333D02*
X8Y333D01*
X2465Y333D02*
X2472Y333D01*
X1Y332D02*
X8Y332D01*
X2465Y332D02*
X2472Y332D01*
X1Y331D02*
X8Y331D01*
X2465Y331D02*
X2472Y331D01*
X1Y330D02*
X8Y330D01*
X2465Y330D02*
X2472Y330D01*
X1Y329D02*
X8Y329D01*
X2465Y329D02*
X2472Y329D01*
X1Y328D02*
X8Y328D01*
X1567Y328D02*
X1567Y328D01*
X2465Y328D02*
X2472Y328D01*
X1Y327D02*
X8Y327D01*
X1566Y327D02*
X1568Y327D01*
X2465Y327D02*
X2472Y327D01*
X1Y326D02*
X8Y326D01*
X1565Y326D02*
X1569Y326D01*
X2465Y326D02*
X2472Y326D01*
X1Y325D02*
X8Y325D01*
X1564Y325D02*
X1570Y325D01*
X2465Y325D02*
X2472Y325D01*
X1Y324D02*
X8Y324D01*
X1563Y324D02*
X1569Y324D01*
X2465Y324D02*
X2472Y324D01*
X1Y323D02*
X8Y323D01*
X1562Y323D02*
X1568Y323D01*
X2465Y323D02*
X2472Y323D01*
X1Y322D02*
X8Y322D01*
X1561Y322D02*
X1567Y322D01*
X2465Y322D02*
X2472Y322D01*
X1Y321D02*
X8Y321D01*
X1560Y321D02*
X1566Y321D01*
X2465Y321D02*
X2472Y321D01*
X1Y320D02*
X8Y320D01*
X1559Y320D02*
X1565Y320D01*
X2465Y320D02*
X2472Y320D01*
X1Y319D02*
X8Y319D01*
X1558Y319D02*
X1564Y319D01*
X1766Y319D02*
X1767Y319D01*
X2465Y319D02*
X2472Y319D01*
X1Y318D02*
X8Y318D01*
X1557Y318D02*
X1563Y318D01*
X1765Y318D02*
X1768Y318D01*
X2465Y318D02*
X2472Y318D01*
X1Y317D02*
X8Y317D01*
X1556Y317D02*
X1562Y317D01*
X1764Y317D02*
X1769Y317D01*
X2465Y317D02*
X2472Y317D01*
X1Y316D02*
X8Y316D01*
X1555Y316D02*
X1561Y316D01*
X1763Y316D02*
X1769Y316D01*
X2465Y316D02*
X2472Y316D01*
X1Y315D02*
X8Y315D01*
X1554Y315D02*
X1560Y315D01*
X1762Y315D02*
X1768Y315D01*
X2465Y315D02*
X2472Y315D01*
X1Y314D02*
X8Y314D01*
X1553Y314D02*
X1559Y314D01*
X1761Y314D02*
X1767Y314D01*
X2465Y314D02*
X2472Y314D01*
X1Y313D02*
X8Y313D01*
X1552Y313D02*
X1558Y313D01*
X1760Y313D02*
X1766Y313D01*
X2465Y313D02*
X2472Y313D01*
X1Y312D02*
X8Y312D01*
X1551Y312D02*
X1557Y312D01*
X1759Y312D02*
X1765Y312D01*
X2465Y312D02*
X2472Y312D01*
X1Y311D02*
X8Y311D01*
X1550Y311D02*
X1556Y311D01*
X1758Y311D02*
X1764Y311D01*
X2465Y311D02*
X2472Y311D01*
X1Y310D02*
X8Y310D01*
X1549Y310D02*
X1555Y310D01*
X1757Y310D02*
X1763Y310D01*
X2465Y310D02*
X2472Y310D01*
X1Y309D02*
X8Y309D01*
X1548Y309D02*
X1553Y309D01*
X1756Y309D02*
X1762Y309D01*
X2465Y309D02*
X2472Y309D01*
X1Y308D02*
X8Y308D01*
X467Y308D02*
X470Y308D01*
X510Y308D02*
X538Y308D01*
X554Y308D02*
X570Y308D01*
X1547Y308D02*
X1552Y308D01*
X1755Y308D02*
X1761Y308D01*
X2465Y308D02*
X2472Y308D01*
X1Y307D02*
X8Y307D01*
X466Y307D02*
X471Y307D01*
X510Y307D02*
X538Y307D01*
X554Y307D02*
X572Y307D01*
X1546Y307D02*
X1551Y307D01*
X1754Y307D02*
X1760Y307D01*
X2465Y307D02*
X2472Y307D01*
X1Y306D02*
X8Y306D01*
X466Y306D02*
X471Y306D01*
X510Y306D02*
X539Y306D01*
X553Y306D02*
X573Y306D01*
X1545Y306D02*
X1551Y306D01*
X1753Y306D02*
X1759Y306D01*
X2465Y306D02*
X2472Y306D01*
X1Y305D02*
X8Y305D01*
X466Y305D02*
X471Y305D01*
X510Y305D02*
X539Y305D01*
X554Y305D02*
X574Y305D01*
X1544Y305D02*
X1550Y305D01*
X1752Y305D02*
X1758Y305D01*
X2465Y305D02*
X2472Y305D01*
X1Y304D02*
X8Y304D01*
X466Y304D02*
X471Y304D01*
X510Y304D02*
X538Y304D01*
X554Y304D02*
X575Y304D01*
X1543Y304D02*
X1549Y304D01*
X1751Y304D02*
X1757Y304D01*
X2465Y304D02*
X2472Y304D01*
X1Y303D02*
X8Y303D01*
X466Y303D02*
X471Y303D01*
X510Y303D02*
X537Y303D01*
X555Y303D02*
X575Y303D01*
X1542Y303D02*
X1548Y303D01*
X1750Y303D02*
X1756Y303D01*
X2465Y303D02*
X2472Y303D01*
X1Y302D02*
X8Y302D01*
X466Y302D02*
X471Y302D01*
X510Y302D02*
X515Y302D01*
X559Y302D02*
X565Y302D01*
X570Y302D02*
X576Y302D01*
X1541Y302D02*
X1547Y302D01*
X1749Y302D02*
X1754Y302D01*
X2465Y302D02*
X2472Y302D01*
X1Y301D02*
X8Y301D01*
X466Y301D02*
X471Y301D01*
X510Y301D02*
X515Y301D01*
X559Y301D02*
X565Y301D01*
X570Y301D02*
X576Y301D01*
X1540Y301D02*
X1546Y301D01*
X1748Y301D02*
X1753Y301D01*
X2465Y301D02*
X2472Y301D01*
X1Y300D02*
X8Y300D01*
X466Y300D02*
X471Y300D01*
X510Y300D02*
X515Y300D01*
X559Y300D02*
X565Y300D01*
X571Y300D02*
X577Y300D01*
X1539Y300D02*
X1545Y300D01*
X1747Y300D02*
X1752Y300D01*
X2465Y300D02*
X2472Y300D01*
X1Y299D02*
X8Y299D01*
X466Y299D02*
X471Y299D01*
X510Y299D02*
X515Y299D01*
X559Y299D02*
X565Y299D01*
X571Y299D02*
X577Y299D01*
X1538Y299D02*
X1544Y299D01*
X1746Y299D02*
X1751Y299D01*
X2465Y299D02*
X2472Y299D01*
X1Y298D02*
X8Y298D01*
X466Y298D02*
X471Y298D01*
X510Y298D02*
X515Y298D01*
X559Y298D02*
X565Y298D01*
X572Y298D02*
X578Y298D01*
X1537Y298D02*
X1543Y298D01*
X1745Y298D02*
X1750Y298D01*
X2465Y298D02*
X2472Y298D01*
X1Y297D02*
X8Y297D01*
X466Y297D02*
X471Y297D01*
X510Y297D02*
X515Y297D01*
X559Y297D02*
X565Y297D01*
X572Y297D02*
X578Y297D01*
X1536Y297D02*
X1542Y297D01*
X1744Y297D02*
X1749Y297D01*
X2465Y297D02*
X2472Y297D01*
X1Y296D02*
X8Y296D01*
X466Y296D02*
X471Y296D01*
X510Y296D02*
X515Y296D01*
X559Y296D02*
X565Y296D01*
X573Y296D02*
X579Y296D01*
X1535Y296D02*
X1541Y296D01*
X1743Y296D02*
X1748Y296D01*
X2465Y296D02*
X2472Y296D01*
X1Y295D02*
X8Y295D01*
X466Y295D02*
X471Y295D01*
X510Y295D02*
X515Y295D01*
X559Y295D02*
X565Y295D01*
X573Y295D02*
X579Y295D01*
X1534Y295D02*
X1540Y295D01*
X1742Y295D02*
X1748Y295D01*
X2465Y295D02*
X2472Y295D01*
X1Y294D02*
X8Y294D01*
X466Y294D02*
X471Y294D01*
X510Y294D02*
X515Y294D01*
X559Y294D02*
X565Y294D01*
X574Y294D02*
X580Y294D01*
X1533Y294D02*
X1539Y294D01*
X1741Y294D02*
X1747Y294D01*
X2465Y294D02*
X2472Y294D01*
X1Y293D02*
X8Y293D01*
X466Y293D02*
X471Y293D01*
X510Y293D02*
X515Y293D01*
X559Y293D02*
X565Y293D01*
X574Y293D02*
X580Y293D01*
X1533Y293D02*
X1538Y293D01*
X1740Y293D02*
X1746Y293D01*
X2465Y293D02*
X2472Y293D01*
X1Y292D02*
X8Y292D01*
X466Y292D02*
X471Y292D01*
X510Y292D02*
X515Y292D01*
X559Y292D02*
X565Y292D01*
X575Y292D02*
X581Y292D01*
X1534Y292D02*
X1537Y292D01*
X1739Y292D02*
X1745Y292D01*
X2465Y292D02*
X2472Y292D01*
X1Y291D02*
X8Y291D01*
X466Y291D02*
X471Y291D01*
X510Y291D02*
X515Y291D01*
X559Y291D02*
X565Y291D01*
X575Y291D02*
X581Y291D01*
X1535Y291D02*
X1536Y291D01*
X1738Y291D02*
X1744Y291D01*
X2465Y291D02*
X2472Y291D01*
X1Y290D02*
X8Y290D01*
X466Y290D02*
X471Y290D01*
X510Y290D02*
X515Y290D01*
X559Y290D02*
X565Y290D01*
X576Y290D02*
X582Y290D01*
X1737Y290D02*
X1743Y290D01*
X2465Y290D02*
X2472Y290D01*
X1Y289D02*
X8Y289D01*
X466Y289D02*
X471Y289D01*
X510Y289D02*
X515Y289D01*
X559Y289D02*
X565Y289D01*
X576Y289D02*
X582Y289D01*
X1736Y289D02*
X1742Y289D01*
X2465Y289D02*
X2472Y289D01*
X1Y288D02*
X8Y288D01*
X466Y288D02*
X471Y288D01*
X510Y288D02*
X525Y288D01*
X559Y288D02*
X565Y288D01*
X577Y288D02*
X582Y288D01*
X1735Y288D02*
X1741Y288D01*
X2465Y288D02*
X2472Y288D01*
X1Y287D02*
X8Y287D01*
X466Y287D02*
X471Y287D01*
X510Y287D02*
X526Y287D01*
X559Y287D02*
X565Y287D01*
X577Y287D02*
X582Y287D01*
X1734Y287D02*
X1740Y287D01*
X2465Y287D02*
X2472Y287D01*
X1Y286D02*
X8Y286D01*
X466Y286D02*
X471Y286D01*
X510Y286D02*
X527Y286D01*
X559Y286D02*
X565Y286D01*
X577Y286D02*
X582Y286D01*
X1733Y286D02*
X1739Y286D01*
X2465Y286D02*
X2472Y286D01*
X1Y285D02*
X8Y285D01*
X466Y285D02*
X471Y285D01*
X510Y285D02*
X527Y285D01*
X559Y285D02*
X565Y285D01*
X577Y285D02*
X583Y285D01*
X1732Y285D02*
X1738Y285D01*
X2465Y285D02*
X2472Y285D01*
X1Y284D02*
X8Y284D01*
X466Y284D02*
X471Y284D01*
X510Y284D02*
X526Y284D01*
X559Y284D02*
X565Y284D01*
X577Y284D02*
X582Y284D01*
X1733Y284D02*
X1737Y284D01*
X2465Y284D02*
X2472Y284D01*
X1Y283D02*
X8Y283D01*
X466Y283D02*
X471Y283D01*
X510Y283D02*
X526Y283D01*
X559Y283D02*
X565Y283D01*
X577Y283D02*
X582Y283D01*
X1734Y283D02*
X1736Y283D01*
X2465Y283D02*
X2472Y283D01*
X1Y282D02*
X8Y282D01*
X466Y282D02*
X471Y282D01*
X510Y282D02*
X515Y282D01*
X559Y282D02*
X565Y282D01*
X577Y282D02*
X582Y282D01*
X1735Y282D02*
X1735Y282D01*
X2465Y282D02*
X2472Y282D01*
X1Y281D02*
X8Y281D01*
X466Y281D02*
X471Y281D01*
X510Y281D02*
X515Y281D01*
X559Y281D02*
X565Y281D01*
X576Y281D02*
X582Y281D01*
X2465Y281D02*
X2472Y281D01*
X1Y280D02*
X8Y280D01*
X466Y280D02*
X471Y280D01*
X510Y280D02*
X515Y280D01*
X559Y280D02*
X565Y280D01*
X576Y280D02*
X581Y280D01*
X2465Y280D02*
X2472Y280D01*
X1Y279D02*
X8Y279D01*
X466Y279D02*
X471Y279D01*
X510Y279D02*
X515Y279D01*
X559Y279D02*
X565Y279D01*
X575Y279D02*
X581Y279D01*
X2465Y279D02*
X2472Y279D01*
X1Y278D02*
X8Y278D01*
X466Y278D02*
X471Y278D01*
X510Y278D02*
X515Y278D01*
X559Y278D02*
X565Y278D01*
X575Y278D02*
X581Y278D01*
X2465Y278D02*
X2472Y278D01*
X1Y277D02*
X8Y277D01*
X466Y277D02*
X471Y277D01*
X510Y277D02*
X515Y277D01*
X559Y277D02*
X565Y277D01*
X574Y277D02*
X580Y277D01*
X2465Y277D02*
X2472Y277D01*
X1Y276D02*
X8Y276D01*
X466Y276D02*
X471Y276D01*
X510Y276D02*
X515Y276D01*
X559Y276D02*
X565Y276D01*
X574Y276D02*
X580Y276D01*
X2465Y276D02*
X2472Y276D01*
X1Y275D02*
X8Y275D01*
X466Y275D02*
X471Y275D01*
X510Y275D02*
X515Y275D01*
X559Y275D02*
X565Y275D01*
X573Y275D02*
X579Y275D01*
X2465Y275D02*
X2472Y275D01*
X1Y274D02*
X8Y274D01*
X466Y274D02*
X471Y274D01*
X510Y274D02*
X515Y274D01*
X559Y274D02*
X565Y274D01*
X573Y274D02*
X579Y274D01*
X2465Y274D02*
X2472Y274D01*
X1Y273D02*
X8Y273D01*
X466Y273D02*
X471Y273D01*
X510Y273D02*
X515Y273D01*
X559Y273D02*
X565Y273D01*
X572Y273D02*
X578Y273D01*
X2465Y273D02*
X2472Y273D01*
X1Y272D02*
X8Y272D01*
X466Y272D02*
X471Y272D01*
X510Y272D02*
X515Y272D01*
X559Y272D02*
X565Y272D01*
X572Y272D02*
X578Y272D01*
X2465Y272D02*
X2472Y272D01*
X1Y271D02*
X8Y271D01*
X466Y271D02*
X471Y271D01*
X510Y271D02*
X515Y271D01*
X559Y271D02*
X565Y271D01*
X571Y271D02*
X577Y271D01*
X2465Y271D02*
X2472Y271D01*
X1Y270D02*
X8Y270D01*
X466Y270D02*
X471Y270D01*
X510Y270D02*
X515Y270D01*
X559Y270D02*
X565Y270D01*
X571Y270D02*
X577Y270D01*
X2465Y270D02*
X2472Y270D01*
X1Y269D02*
X8Y269D01*
X466Y269D02*
X471Y269D01*
X510Y269D02*
X515Y269D01*
X559Y269D02*
X565Y269D01*
X570Y269D02*
X576Y269D01*
X2465Y269D02*
X2472Y269D01*
X1Y268D02*
X8Y268D01*
X466Y268D02*
X471Y268D01*
X510Y268D02*
X515Y268D01*
X559Y268D02*
X565Y268D01*
X569Y268D02*
X576Y268D01*
X2465Y268D02*
X2472Y268D01*
X1Y267D02*
X8Y267D01*
X466Y267D02*
X494Y267D01*
X510Y267D02*
X538Y267D01*
X555Y267D02*
X575Y267D01*
X2465Y267D02*
X2472Y267D01*
X1Y266D02*
X8Y266D01*
X466Y266D02*
X495Y266D01*
X510Y266D02*
X538Y266D01*
X554Y266D02*
X575Y266D01*
X2465Y266D02*
X2472Y266D01*
X1Y265D02*
X8Y265D01*
X466Y265D02*
X495Y265D01*
X510Y265D02*
X539Y265D01*
X553Y265D02*
X574Y265D01*
X2465Y265D02*
X2472Y265D01*
X1Y264D02*
X8Y264D01*
X466Y264D02*
X495Y264D01*
X510Y264D02*
X539Y264D01*
X554Y264D02*
X573Y264D01*
X2465Y264D02*
X2472Y264D01*
X1Y263D02*
X8Y263D01*
X466Y263D02*
X494Y263D01*
X510Y263D02*
X538Y263D01*
X554Y263D02*
X572Y263D01*
X2465Y263D02*
X2472Y263D01*
X1Y262D02*
X8Y262D01*
X466Y262D02*
X493Y262D01*
X510Y262D02*
X537Y262D01*
X555Y262D02*
X569Y262D01*
X2465Y262D02*
X2472Y262D01*
X1Y261D02*
X8Y261D01*
X1962Y261D02*
X1963Y261D01*
X2003Y261D02*
X2005Y261D01*
X2465Y261D02*
X2472Y261D01*
X1Y260D02*
X8Y260D01*
X1961Y260D02*
X1965Y260D01*
X2002Y260D02*
X2006Y260D01*
X2465Y260D02*
X2472Y260D01*
X1Y259D02*
X8Y259D01*
X1960Y259D02*
X1965Y259D01*
X2001Y259D02*
X2006Y259D01*
X2465Y259D02*
X2472Y259D01*
X1Y258D02*
X8Y258D01*
X1960Y258D02*
X1965Y258D01*
X2001Y258D02*
X2006Y258D01*
X2465Y258D02*
X2472Y258D01*
X1Y257D02*
X8Y257D01*
X1960Y257D02*
X1965Y257D01*
X2001Y257D02*
X2006Y257D01*
X2465Y257D02*
X2472Y257D01*
X1Y256D02*
X8Y256D01*
X1666Y256D02*
X1669Y256D01*
X1707Y256D02*
X1710Y256D01*
X1960Y256D02*
X1965Y256D01*
X2001Y256D02*
X2006Y256D01*
X2465Y256D02*
X2472Y256D01*
X1Y255D02*
X8Y255D01*
X1665Y255D02*
X1669Y255D01*
X1706Y255D02*
X1710Y255D01*
X1960Y255D02*
X1965Y255D01*
X2001Y255D02*
X2006Y255D01*
X2465Y255D02*
X2472Y255D01*
X1Y254D02*
X8Y254D01*
X1665Y254D02*
X1670Y254D01*
X1706Y254D02*
X1711Y254D01*
X1960Y254D02*
X1965Y254D01*
X2001Y254D02*
X2006Y254D01*
X2465Y254D02*
X2472Y254D01*
X1Y253D02*
X8Y253D01*
X1665Y253D02*
X1670Y253D01*
X1706Y253D02*
X1711Y253D01*
X1960Y253D02*
X1965Y253D01*
X2001Y253D02*
X2006Y253D01*
X2465Y253D02*
X2472Y253D01*
X1Y252D02*
X8Y252D01*
X1665Y252D02*
X1670Y252D01*
X1706Y252D02*
X1711Y252D01*
X1960Y252D02*
X1965Y252D01*
X2001Y252D02*
X2006Y252D01*
X2465Y252D02*
X2472Y252D01*
X1Y251D02*
X8Y251D01*
X1665Y251D02*
X1670Y251D01*
X1706Y251D02*
X1711Y251D01*
X1960Y251D02*
X1965Y251D01*
X2001Y251D02*
X2006Y251D01*
X2465Y251D02*
X2472Y251D01*
X1Y250D02*
X8Y250D01*
X1665Y250D02*
X1670Y250D01*
X1706Y250D02*
X1711Y250D01*
X1960Y250D02*
X1965Y250D01*
X2001Y250D02*
X2006Y250D01*
X2465Y250D02*
X2472Y250D01*
X1Y249D02*
X8Y249D01*
X1665Y249D02*
X1670Y249D01*
X1706Y249D02*
X1711Y249D01*
X1960Y249D02*
X2006Y249D01*
X2465Y249D02*
X2472Y249D01*
X1Y248D02*
X8Y248D01*
X1665Y248D02*
X1670Y248D01*
X1706Y248D02*
X1711Y248D01*
X1960Y248D02*
X2006Y248D01*
X2465Y248D02*
X2472Y248D01*
X1Y247D02*
X8Y247D01*
X1665Y247D02*
X1670Y247D01*
X1706Y247D02*
X1711Y247D01*
X1960Y247D02*
X2006Y247D01*
X2465Y247D02*
X2472Y247D01*
X1Y246D02*
X8Y246D01*
X1665Y246D02*
X1670Y246D01*
X1706Y246D02*
X1711Y246D01*
X1960Y246D02*
X2006Y246D01*
X2465Y246D02*
X2472Y246D01*
X1Y245D02*
X8Y245D01*
X1665Y245D02*
X1670Y245D01*
X1706Y245D02*
X1711Y245D01*
X1960Y245D02*
X2006Y245D01*
X2465Y245D02*
X2472Y245D01*
X1Y244D02*
X8Y244D01*
X1665Y244D02*
X1711Y244D01*
X1960Y244D02*
X2006Y244D01*
X2465Y244D02*
X2472Y244D01*
X1Y243D02*
X8Y243D01*
X1665Y243D02*
X1711Y243D01*
X1960Y243D02*
X1966Y243D01*
X2465Y243D02*
X2472Y243D01*
X1Y242D02*
X8Y242D01*
X1611Y242D02*
X1611Y242D01*
X1665Y242D02*
X1711Y242D01*
X1960Y242D02*
X1965Y242D01*
X2465Y242D02*
X2472Y242D01*
X1Y241D02*
X8Y241D01*
X1610Y241D02*
X1611Y241D01*
X1665Y241D02*
X1711Y241D01*
X1960Y241D02*
X1965Y241D01*
X2465Y241D02*
X2472Y241D01*
X1Y240D02*
X8Y240D01*
X1608Y240D02*
X1611Y240D01*
X1665Y240D02*
X1711Y240D01*
X1960Y240D02*
X1965Y240D01*
X2465Y240D02*
X2472Y240D01*
X1Y239D02*
X8Y239D01*
X1607Y239D02*
X1611Y239D01*
X1665Y239D02*
X1711Y239D01*
X1960Y239D02*
X1965Y239D01*
X2465Y239D02*
X2472Y239D01*
X1Y238D02*
X8Y238D01*
X1606Y238D02*
X1611Y238D01*
X1665Y238D02*
X1670Y238D01*
X1960Y238D02*
X1965Y238D01*
X2465Y238D02*
X2472Y238D01*
X1Y237D02*
X8Y237D01*
X1564Y237D02*
X1564Y237D01*
X1606Y237D02*
X1611Y237D01*
X1665Y237D02*
X1670Y237D01*
X1960Y237D02*
X1979Y237D01*
X2465Y237D02*
X2472Y237D01*
X1Y236D02*
X8Y236D01*
X1564Y236D02*
X1566Y236D01*
X1606Y236D02*
X1611Y236D01*
X1665Y236D02*
X1670Y236D01*
X1960Y236D02*
X1980Y236D01*
X2465Y236D02*
X2472Y236D01*
X1Y235D02*
X8Y235D01*
X1564Y235D02*
X1569Y235D01*
X1606Y235D02*
X1611Y235D01*
X1665Y235D02*
X1670Y235D01*
X1960Y235D02*
X1981Y235D01*
X2465Y235D02*
X2472Y235D01*
X1Y234D02*
X8Y234D01*
X1564Y234D02*
X1570Y234D01*
X1606Y234D02*
X1611Y234D01*
X1665Y234D02*
X1670Y234D01*
X1960Y234D02*
X1981Y234D01*
X2465Y234D02*
X2472Y234D01*
X1Y233D02*
X8Y233D01*
X1564Y233D02*
X1570Y233D01*
X1589Y233D02*
X1590Y233D01*
X1605Y233D02*
X1611Y233D01*
X1665Y233D02*
X1670Y233D01*
X1756Y233D02*
X1757Y233D01*
X1961Y233D02*
X1980Y233D01*
X2465Y233D02*
X2472Y233D01*
X1Y232D02*
X8Y232D01*
X1564Y232D02*
X1570Y232D01*
X1585Y232D02*
X1611Y232D01*
X1665Y232D02*
X1684Y232D01*
X1756Y232D02*
X1758Y232D01*
X1961Y232D02*
X1980Y232D01*
X2465Y232D02*
X2472Y232D01*
X1Y231D02*
X8Y231D01*
X1564Y231D02*
X1570Y231D01*
X1585Y231D02*
X1610Y231D01*
X1665Y231D02*
X1685Y231D01*
X1756Y231D02*
X1759Y231D01*
X2465Y231D02*
X2472Y231D01*
X1Y230D02*
X8Y230D01*
X1564Y230D02*
X1570Y230D01*
X1586Y230D02*
X1610Y230D01*
X1665Y230D02*
X1685Y230D01*
X1756Y230D02*
X1761Y230D01*
X2465Y230D02*
X2472Y230D01*
X1Y229D02*
X8Y229D01*
X1565Y229D02*
X1569Y229D01*
X1586Y229D02*
X1609Y229D01*
X1665Y229D02*
X1685Y229D01*
X1756Y229D02*
X1763Y229D01*
X2465Y229D02*
X2472Y229D01*
X1Y228D02*
X8Y228D01*
X1565Y228D02*
X1569Y228D01*
X1587Y228D02*
X1608Y228D01*
X1665Y228D02*
X1685Y228D01*
X1756Y228D02*
X1765Y228D01*
X2465Y228D02*
X2472Y228D01*
X1Y227D02*
X8Y227D01*
X1566Y227D02*
X1568Y227D01*
X1589Y227D02*
X1607Y227D01*
X1666Y227D02*
X1683Y227D01*
X1756Y227D02*
X1768Y227D01*
X2465Y227D02*
X2472Y227D01*
X1Y226D02*
X8Y226D01*
X1756Y226D02*
X1771Y226D01*
X2465Y226D02*
X2472Y226D01*
X1Y225D02*
X8Y225D01*
X1757Y225D02*
X1775Y225D01*
X2465Y225D02*
X2472Y225D01*
X1Y224D02*
X8Y224D01*
X2465Y224D02*
X2472Y224D01*
X1Y223D02*
X8Y223D01*
X2465Y223D02*
X2472Y223D01*
X1Y222D02*
X8Y222D01*
X2465Y222D02*
X2472Y222D01*
X1Y221D02*
X8Y221D01*
X2465Y221D02*
X2472Y221D01*
X1Y220D02*
X8Y220D01*
X2465Y220D02*
X2472Y220D01*
X1Y219D02*
X8Y219D01*
X2465Y219D02*
X2472Y219D01*
X1Y218D02*
X8Y218D01*
X2465Y218D02*
X2472Y218D01*
X1Y217D02*
X8Y217D01*
X1962Y217D02*
X1964Y217D01*
X2003Y217D02*
X2005Y217D01*
X2465Y217D02*
X2472Y217D01*
X1Y216D02*
X8Y216D01*
X1961Y216D02*
X1965Y216D01*
X2002Y216D02*
X2006Y216D01*
X2465Y216D02*
X2472Y216D01*
X1Y215D02*
X8Y215D01*
X1960Y215D02*
X1965Y215D01*
X2001Y215D02*
X2006Y215D01*
X2465Y215D02*
X2472Y215D01*
X1Y214D02*
X8Y214D01*
X1960Y214D02*
X1965Y214D01*
X2001Y214D02*
X2006Y214D01*
X2465Y214D02*
X2472Y214D01*
X1Y213D02*
X8Y213D01*
X1960Y213D02*
X1965Y213D01*
X2001Y213D02*
X2006Y213D01*
X2465Y213D02*
X2472Y213D01*
X1Y212D02*
X8Y212D01*
X1604Y212D02*
X1610Y212D01*
X1960Y212D02*
X1965Y212D01*
X2001Y212D02*
X2006Y212D01*
X2465Y212D02*
X2472Y212D01*
X1Y211D02*
X8Y211D01*
X1603Y211D02*
X1610Y211D01*
X1680Y211D02*
X1709Y211D01*
X1960Y211D02*
X1965Y211D01*
X1982Y211D02*
X1984Y211D01*
X2001Y211D02*
X2006Y211D01*
X2465Y211D02*
X2472Y211D01*
X1Y210D02*
X8Y210D01*
X1603Y210D02*
X1611Y210D01*
X1680Y210D02*
X1710Y210D01*
X1756Y210D02*
X1778Y210D01*
X1798Y210D02*
X1801Y210D01*
X1960Y210D02*
X1965Y210D01*
X1981Y210D02*
X1985Y210D01*
X2001Y210D02*
X2006Y210D01*
X2465Y210D02*
X2472Y210D01*
X1Y209D02*
X8Y209D01*
X1603Y209D02*
X1611Y209D01*
X1680Y209D02*
X1711Y209D01*
X1756Y209D02*
X1779Y209D01*
X1797Y209D02*
X1801Y209D01*
X1960Y209D02*
X1965Y209D01*
X1981Y209D02*
X1986Y209D01*
X2001Y209D02*
X2006Y209D01*
X2465Y209D02*
X2472Y209D01*
X1Y208D02*
X8Y208D01*
X1604Y208D02*
X1611Y208D01*
X1680Y208D02*
X1711Y208D01*
X1756Y208D02*
X1780Y208D01*
X1797Y208D02*
X1802Y208D01*
X1960Y208D02*
X1965Y208D01*
X1981Y208D02*
X1986Y208D01*
X2001Y208D02*
X2006Y208D01*
X2465Y208D02*
X2472Y208D01*
X1Y207D02*
X8Y207D01*
X1605Y207D02*
X1611Y207D01*
X1680Y207D02*
X1710Y207D01*
X1756Y207D02*
X1781Y207D01*
X1797Y207D02*
X1802Y207D01*
X1960Y207D02*
X1965Y207D01*
X1981Y207D02*
X1986Y207D01*
X2001Y207D02*
X2006Y207D01*
X2465Y207D02*
X2472Y207D01*
X1Y206D02*
X8Y206D01*
X1606Y206D02*
X1611Y206D01*
X1680Y206D02*
X1709Y206D01*
X1756Y206D02*
X1781Y206D01*
X1797Y206D02*
X1802Y206D01*
X1960Y206D02*
X1965Y206D01*
X1981Y206D02*
X1986Y206D01*
X2001Y206D02*
X2006Y206D01*
X2465Y206D02*
X2472Y206D01*
X1Y205D02*
X8Y205D01*
X1606Y205D02*
X1611Y205D01*
X1680Y205D02*
X1685Y205D01*
X1756Y205D02*
X1781Y205D01*
X1797Y205D02*
X1802Y205D01*
X1960Y205D02*
X1965Y205D01*
X1981Y205D02*
X1986Y205D01*
X2001Y205D02*
X2006Y205D01*
X2465Y205D02*
X2472Y205D01*
X1Y204D02*
X8Y204D01*
X1606Y204D02*
X1611Y204D01*
X1680Y204D02*
X1685Y204D01*
X1756Y204D02*
X1761Y204D01*
X1776Y204D02*
X1781Y204D01*
X1797Y204D02*
X1802Y204D01*
X1960Y204D02*
X1965Y204D01*
X1981Y204D02*
X1986Y204D01*
X2001Y204D02*
X2006Y204D01*
X2465Y204D02*
X2472Y204D01*
X1Y203D02*
X8Y203D01*
X1606Y203D02*
X1611Y203D01*
X1680Y203D02*
X1685Y203D01*
X1756Y203D02*
X1761Y203D01*
X1776Y203D02*
X1781Y203D01*
X1797Y203D02*
X1802Y203D01*
X1960Y203D02*
X1965Y203D01*
X1981Y203D02*
X1986Y203D01*
X2001Y203D02*
X2006Y203D01*
X2465Y203D02*
X2472Y203D01*
X1Y202D02*
X8Y202D01*
X1606Y202D02*
X1611Y202D01*
X1680Y202D02*
X1685Y202D01*
X1756Y202D02*
X1761Y202D01*
X1776Y202D02*
X1781Y202D01*
X1797Y202D02*
X1802Y202D01*
X1960Y202D02*
X1965Y202D01*
X1981Y202D02*
X1986Y202D01*
X2001Y202D02*
X2006Y202D01*
X2465Y202D02*
X2472Y202D01*
X1Y201D02*
X8Y201D01*
X1606Y201D02*
X1611Y201D01*
X1680Y201D02*
X1685Y201D01*
X1756Y201D02*
X1761Y201D01*
X1776Y201D02*
X1781Y201D01*
X1797Y201D02*
X1802Y201D01*
X1960Y201D02*
X1965Y201D01*
X1981Y201D02*
X1986Y201D01*
X2001Y201D02*
X2006Y201D01*
X2465Y201D02*
X2472Y201D01*
X1Y200D02*
X8Y200D01*
X1565Y200D02*
X1584Y200D01*
X1606Y200D02*
X1611Y200D01*
X1680Y200D02*
X1685Y200D01*
X1756Y200D02*
X1761Y200D01*
X1776Y200D02*
X1781Y200D01*
X1797Y200D02*
X1802Y200D01*
X1960Y200D02*
X1965Y200D01*
X1981Y200D02*
X1986Y200D01*
X2001Y200D02*
X2006Y200D01*
X2465Y200D02*
X2472Y200D01*
X1Y199D02*
X8Y199D01*
X1565Y199D02*
X1585Y199D01*
X1606Y199D02*
X1611Y199D01*
X1680Y199D02*
X1685Y199D01*
X1756Y199D02*
X1761Y199D01*
X1776Y199D02*
X1781Y199D01*
X1797Y199D02*
X1802Y199D01*
X1960Y199D02*
X1965Y199D01*
X1981Y199D02*
X1986Y199D01*
X2001Y199D02*
X2006Y199D01*
X2465Y199D02*
X2472Y199D01*
X1Y198D02*
X8Y198D01*
X1565Y198D02*
X1586Y198D01*
X1606Y198D02*
X1611Y198D01*
X1680Y198D02*
X1685Y198D01*
X1756Y198D02*
X1761Y198D01*
X1776Y198D02*
X1781Y198D01*
X1797Y198D02*
X1802Y198D01*
X1960Y198D02*
X1965Y198D01*
X1981Y198D02*
X1986Y198D01*
X2001Y198D02*
X2006Y198D01*
X2465Y198D02*
X2472Y198D01*
X1Y197D02*
X8Y197D01*
X1565Y197D02*
X1587Y197D01*
X1606Y197D02*
X1611Y197D01*
X1680Y197D02*
X1685Y197D01*
X1756Y197D02*
X1761Y197D01*
X1776Y197D02*
X1781Y197D01*
X1797Y197D02*
X1802Y197D01*
X1960Y197D02*
X1965Y197D01*
X1981Y197D02*
X1986Y197D01*
X2001Y197D02*
X2006Y197D01*
X2465Y197D02*
X2472Y197D01*
X1Y196D02*
X8Y196D01*
X1565Y196D02*
X1588Y196D01*
X1606Y196D02*
X1611Y196D01*
X1680Y196D02*
X1685Y196D01*
X1756Y196D02*
X1761Y196D01*
X1776Y196D02*
X1781Y196D01*
X1797Y196D02*
X1802Y196D01*
X1960Y196D02*
X1965Y196D01*
X1981Y196D02*
X1986Y196D01*
X2001Y196D02*
X2006Y196D01*
X2465Y196D02*
X2472Y196D01*
X1Y195D02*
X8Y195D01*
X1567Y195D02*
X1589Y195D01*
X1606Y195D02*
X1611Y195D01*
X1680Y195D02*
X1685Y195D01*
X1756Y195D02*
X1761Y195D01*
X1776Y195D02*
X1781Y195D01*
X1797Y195D02*
X1802Y195D01*
X1960Y195D02*
X1965Y195D01*
X1980Y195D02*
X1986Y195D01*
X2001Y195D02*
X2006Y195D01*
X2465Y195D02*
X2472Y195D01*
X1Y194D02*
X8Y194D01*
X1582Y194D02*
X1589Y194D01*
X1606Y194D02*
X1611Y194D01*
X1680Y194D02*
X1685Y194D01*
X1756Y194D02*
X1761Y194D01*
X1776Y194D02*
X1781Y194D01*
X1797Y194D02*
X1802Y194D01*
X1960Y194D02*
X1965Y194D01*
X1979Y194D02*
X1987Y194D01*
X2001Y194D02*
X2006Y194D01*
X2465Y194D02*
X2472Y194D01*
X1Y193D02*
X8Y193D01*
X1583Y193D02*
X1590Y193D01*
X1606Y193D02*
X1611Y193D01*
X1666Y193D02*
X1704Y193D01*
X1756Y193D02*
X1761Y193D01*
X1776Y193D02*
X1781Y193D01*
X1797Y193D02*
X1802Y193D01*
X1960Y193D02*
X2006Y193D01*
X2465Y193D02*
X2472Y193D01*
X1Y192D02*
X8Y192D01*
X1584Y192D02*
X1591Y192D01*
X1606Y192D02*
X1611Y192D01*
X1665Y192D02*
X1705Y192D01*
X1756Y192D02*
X1761Y192D01*
X1776Y192D02*
X1781Y192D01*
X1797Y192D02*
X1802Y192D01*
X1960Y192D02*
X2006Y192D01*
X2465Y192D02*
X2472Y192D01*
X1Y191D02*
X8Y191D01*
X1585Y191D02*
X1592Y191D01*
X1606Y191D02*
X1611Y191D01*
X1665Y191D02*
X1706Y191D01*
X1756Y191D02*
X1761Y191D01*
X1776Y191D02*
X1781Y191D01*
X1797Y191D02*
X1802Y191D01*
X1961Y191D02*
X2006Y191D01*
X2465Y191D02*
X2472Y191D01*
X1Y190D02*
X8Y190D01*
X1586Y190D02*
X1593Y190D01*
X1606Y190D02*
X1611Y190D01*
X1665Y190D02*
X1706Y190D01*
X1756Y190D02*
X1761Y190D01*
X1776Y190D02*
X1781Y190D01*
X1797Y190D02*
X1802Y190D01*
X1961Y190D02*
X2005Y190D01*
X2465Y190D02*
X2472Y190D01*
X1Y189D02*
X8Y189D01*
X1587Y189D02*
X1594Y189D01*
X1605Y189D02*
X1611Y189D01*
X1665Y189D02*
X1705Y189D01*
X1756Y189D02*
X1761Y189D01*
X1776Y189D02*
X1781Y189D01*
X1797Y189D02*
X1802Y189D01*
X1962Y189D02*
X1982Y189D01*
X1985Y189D02*
X2004Y189D01*
X2465Y189D02*
X2472Y189D01*
X1Y188D02*
X8Y188D01*
X1587Y188D02*
X1611Y188D01*
X1666Y188D02*
X1704Y188D01*
X1756Y188D02*
X1761Y188D01*
X1776Y188D02*
X1781Y188D01*
X1797Y188D02*
X1802Y188D01*
X1964Y188D02*
X1980Y188D01*
X1987Y188D02*
X2003Y188D01*
X2465Y188D02*
X2472Y188D01*
X1Y187D02*
X8Y187D01*
X1588Y187D02*
X1611Y187D01*
X1680Y187D02*
X1685Y187D01*
X1756Y187D02*
X1761Y187D01*
X1776Y187D02*
X1781Y187D01*
X1797Y187D02*
X1802Y187D01*
X2465Y187D02*
X2472Y187D01*
X1Y186D02*
X8Y186D01*
X1589Y186D02*
X1611Y186D01*
X1680Y186D02*
X1685Y186D01*
X1756Y186D02*
X1761Y186D01*
X1776Y186D02*
X1802Y186D01*
X2465Y186D02*
X2472Y186D01*
X1Y185D02*
X8Y185D01*
X1590Y185D02*
X1611Y185D01*
X1681Y185D02*
X1684Y185D01*
X1756Y185D02*
X1761Y185D01*
X1776Y185D02*
X1802Y185D01*
X2465Y185D02*
X2472Y185D01*
X1Y184D02*
X8Y184D01*
X1591Y184D02*
X1611Y184D01*
X1756Y184D02*
X1761Y184D01*
X1777Y184D02*
X1801Y184D01*
X2465Y184D02*
X2472Y184D01*
X1Y183D02*
X8Y183D01*
X1592Y183D02*
X1610Y183D01*
X1756Y183D02*
X1761Y183D01*
X1778Y183D02*
X1800Y183D01*
X2465Y183D02*
X2472Y183D01*
X1Y182D02*
X8Y182D01*
X1756Y182D02*
X1760Y182D01*
X1778Y182D02*
X1799Y182D01*
X2465Y182D02*
X2472Y182D01*
X1Y181D02*
X8Y181D01*
X1757Y181D02*
X1759Y181D01*
X1780Y181D02*
X1798Y181D01*
X2465Y181D02*
X2472Y181D01*
X1Y180D02*
X8Y180D01*
X2465Y180D02*
X2472Y180D01*
X1Y179D02*
X8Y179D01*
X2465Y179D02*
X2472Y179D01*
X1Y178D02*
X8Y178D01*
X2465Y178D02*
X2472Y178D01*
X1Y177D02*
X8Y177D01*
X2465Y177D02*
X2472Y177D01*
X1Y176D02*
X8Y176D01*
X2465Y176D02*
X2472Y176D01*
X1Y175D02*
X8Y175D01*
X2465Y175D02*
X2472Y175D01*
X1Y174D02*
X8Y174D01*
X2465Y174D02*
X2472Y174D01*
X1Y173D02*
X8Y173D01*
X2465Y173D02*
X2472Y173D01*
X1Y172D02*
X8Y172D01*
X2465Y172D02*
X2472Y172D01*
X1Y171D02*
X8Y171D01*
X2465Y171D02*
X2472Y171D01*
X1Y170D02*
X8Y170D01*
X2465Y170D02*
X2472Y170D01*
X1Y169D02*
X8Y169D01*
X2465Y169D02*
X2472Y169D01*
X1Y168D02*
X8Y168D01*
X2465Y168D02*
X2472Y168D01*
X1Y167D02*
X8Y167D01*
X2465Y167D02*
X2472Y167D01*
X1Y166D02*
X8Y166D01*
X2465Y166D02*
X2472Y166D01*
X1Y165D02*
X8Y165D01*
X2465Y165D02*
X2472Y165D01*
X1Y164D02*
X8Y164D01*
X2465Y164D02*
X2472Y164D01*
X1Y163D02*
X8Y163D01*
X2465Y163D02*
X2472Y163D01*
X1Y162D02*
X8Y162D01*
X2465Y162D02*
X2472Y162D01*
X1Y161D02*
X8Y161D01*
X2465Y161D02*
X2472Y161D01*
X1Y160D02*
X8Y160D01*
X2465Y160D02*
X2472Y160D01*
X1Y159D02*
X8Y159D01*
X2465Y159D02*
X2472Y159D01*
X1Y158D02*
X8Y158D01*
X2465Y158D02*
X2472Y158D01*
X1Y157D02*
X8Y157D01*
X2465Y157D02*
X2472Y157D01*
X1Y156D02*
X8Y156D01*
X2465Y156D02*
X2472Y156D01*
X1Y155D02*
X8Y155D01*
X2465Y155D02*
X2472Y155D01*
X1Y154D02*
X8Y154D01*
X2465Y154D02*
X2472Y154D01*
X1Y153D02*
X8Y153D01*
X2465Y153D02*
X2472Y153D01*
X1Y152D02*
X8Y152D01*
X2465Y152D02*
X2472Y152D01*
X1Y151D02*
X8Y151D01*
X2465Y151D02*
X2472Y151D01*
X1Y150D02*
X8Y150D01*
X2465Y150D02*
X2472Y150D01*
X1Y149D02*
X8Y149D01*
X2465Y149D02*
X2472Y149D01*
X1Y148D02*
X8Y148D01*
X2465Y148D02*
X2472Y148D01*
X1Y147D02*
X8Y147D01*
X2465Y147D02*
X2472Y147D01*
X1Y146D02*
X8Y146D01*
X2465Y146D02*
X2472Y146D01*
X1Y145D02*
X8Y145D01*
X2465Y145D02*
X2472Y145D01*
X1Y144D02*
X8Y144D01*
X2465Y144D02*
X2472Y144D01*
X1Y143D02*
X8Y143D01*
X2465Y143D02*
X2472Y143D01*
X1Y142D02*
X8Y142D01*
X2465Y142D02*
X2472Y142D01*
X1Y141D02*
X8Y141D01*
X2465Y141D02*
X2472Y141D01*
X1Y140D02*
X8Y140D01*
X2465Y140D02*
X2472Y140D01*
X1Y139D02*
X8Y139D01*
X2465Y139D02*
X2472Y139D01*
X1Y138D02*
X8Y138D01*
X2465Y138D02*
X2472Y138D01*
X1Y137D02*
X8Y137D01*
X2465Y137D02*
X2472Y137D01*
X1Y136D02*
X8Y136D01*
X2465Y136D02*
X2472Y136D01*
X1Y135D02*
X8Y135D01*
X2465Y135D02*
X2472Y135D01*
X1Y134D02*
X8Y134D01*
X2465Y134D02*
X2472Y134D01*
X1Y133D02*
X8Y133D01*
X2465Y133D02*
X2472Y133D01*
X1Y132D02*
X8Y132D01*
X2465Y132D02*
X2472Y132D01*
X1Y131D02*
X8Y131D01*
X2465Y131D02*
X2472Y131D01*
X1Y130D02*
X8Y130D01*
X2465Y130D02*
X2472Y130D01*
X1Y129D02*
X8Y129D01*
X2465Y129D02*
X2472Y129D01*
X1Y128D02*
X8Y128D01*
X2465Y128D02*
X2472Y128D01*
X1Y127D02*
X8Y127D01*
X2465Y127D02*
X2472Y127D01*
X1Y126D02*
X8Y126D01*
X2465Y126D02*
X2472Y126D01*
X1Y125D02*
X8Y125D01*
X2465Y125D02*
X2472Y125D01*
X1Y124D02*
X8Y124D01*
X2465Y124D02*
X2472Y124D01*
X1Y123D02*
X8Y123D01*
X2465Y123D02*
X2472Y123D01*
X1Y122D02*
X8Y122D01*
X2465Y122D02*
X2472Y122D01*
X1Y121D02*
X8Y121D01*
X2465Y121D02*
X2472Y121D01*
X1Y120D02*
X8Y120D01*
X2465Y120D02*
X2472Y120D01*
X1Y119D02*
X8Y119D01*
X2465Y119D02*
X2472Y119D01*
X1Y118D02*
X8Y118D01*
X2465Y118D02*
X2472Y118D01*
X1Y117D02*
X8Y117D01*
X2465Y117D02*
X2472Y117D01*
X1Y116D02*
X8Y116D01*
X2465Y116D02*
X2472Y116D01*
X1Y115D02*
X8Y115D01*
X2465Y115D02*
X2472Y115D01*
X1Y114D02*
X8Y114D01*
X2465Y114D02*
X2472Y114D01*
X1Y113D02*
X8Y113D01*
X2465Y113D02*
X2472Y113D01*
X1Y112D02*
X8Y112D01*
X2465Y112D02*
X2472Y112D01*
X1Y111D02*
X8Y111D01*
X2465Y111D02*
X2472Y111D01*
X1Y110D02*
X8Y110D01*
X2465Y110D02*
X2472Y110D01*
X1Y109D02*
X8Y109D01*
X2465Y109D02*
X2472Y109D01*
X1Y108D02*
X8Y108D01*
X2465Y108D02*
X2472Y108D01*
X1Y107D02*
X8Y107D01*
X2465Y107D02*
X2472Y107D01*
X1Y106D02*
X8Y106D01*
X2465Y106D02*
X2472Y106D01*
X1Y105D02*
X8Y105D01*
X2465Y105D02*
X2472Y105D01*
X1Y104D02*
X8Y104D01*
X2465Y104D02*
X2472Y104D01*
X1Y103D02*
X8Y103D01*
X2465Y103D02*
X2472Y103D01*
X1Y102D02*
X8Y102D01*
X2465Y102D02*
X2472Y102D01*
X1Y101D02*
X8Y101D01*
X2465Y101D02*
X2472Y101D01*
X1Y100D02*
X8Y100D01*
X2465Y100D02*
X2472Y100D01*
X1Y99D02*
X8Y99D01*
X2465Y99D02*
X2472Y99D01*
X1Y98D02*
X8Y98D01*
X2465Y98D02*
X2472Y98D01*
X1Y97D02*
X8Y97D01*
X2465Y97D02*
X2472Y97D01*
X1Y96D02*
X8Y96D01*
X2465Y96D02*
X2472Y96D01*
X1Y95D02*
X8Y95D01*
X2465Y95D02*
X2472Y95D01*
X1Y94D02*
X8Y94D01*
X2465Y94D02*
X2472Y94D01*
X1Y93D02*
X8Y93D01*
X2465Y93D02*
X2472Y93D01*
X1Y92D02*
X8Y92D01*
X2465Y92D02*
X2472Y92D01*
X1Y91D02*
X8Y91D01*
X2465Y91D02*
X2472Y91D01*
X1Y90D02*
X8Y90D01*
X2465Y90D02*
X2472Y90D01*
X1Y89D02*
X8Y89D01*
X2465Y89D02*
X2472Y89D01*
X1Y88D02*
X8Y88D01*
X2465Y88D02*
X2472Y88D01*
X1Y87D02*
X8Y87D01*
X2465Y87D02*
X2472Y87D01*
X1Y86D02*
X8Y86D01*
X2465Y86D02*
X2472Y86D01*
X1Y85D02*
X8Y85D01*
X2465Y85D02*
X2472Y85D01*
X1Y84D02*
X8Y84D01*
X2465Y84D02*
X2472Y84D01*
X1Y83D02*
X8Y83D01*
X2465Y83D02*
X2472Y83D01*
X1Y82D02*
X8Y82D01*
X2465Y82D02*
X2472Y82D01*
X1Y81D02*
X8Y81D01*
X2465Y81D02*
X2472Y81D01*
X1Y80D02*
X8Y80D01*
X2465Y80D02*
X2472Y80D01*
X1Y79D02*
X8Y79D01*
X2465Y79D02*
X2472Y79D01*
X1Y78D02*
X8Y78D01*
X2465Y78D02*
X2472Y78D01*
X1Y77D02*
X8Y77D01*
X2465Y77D02*
X2472Y77D01*
X1Y76D02*
X8Y76D01*
X2465Y76D02*
X2472Y76D01*
X1Y75D02*
X8Y75D01*
X2465Y75D02*
X2472Y75D01*
X1Y74D02*
X8Y74D01*
X2465Y74D02*
X2472Y74D01*
X1Y73D02*
X8Y73D01*
X2465Y73D02*
X2472Y73D01*
X1Y72D02*
X8Y72D01*
X2465Y72D02*
X2472Y72D01*
X1Y71D02*
X8Y71D01*
X2465Y71D02*
X2472Y71D01*
X1Y70D02*
X8Y70D01*
X2465Y70D02*
X2472Y70D01*
X1Y69D02*
X8Y69D01*
X2465Y69D02*
X2472Y69D01*
X1Y68D02*
X8Y68D01*
X2465Y68D02*
X2472Y68D01*
X1Y67D02*
X8Y67D01*
X2465Y67D02*
X2472Y67D01*
X1Y66D02*
X8Y66D01*
X2465Y66D02*
X2472Y66D01*
X1Y65D02*
X8Y65D01*
X2465Y65D02*
X2472Y65D01*
X1Y64D02*
X8Y64D01*
X2465Y64D02*
X2472Y64D01*
X1Y63D02*
X8Y63D01*
X2465Y63D02*
X2472Y63D01*
X1Y62D02*
X8Y62D01*
X2465Y62D02*
X2472Y62D01*
X1Y61D02*
X8Y61D01*
X2465Y61D02*
X2472Y61D01*
X1Y60D02*
X8Y60D01*
X2465Y60D02*
X2472Y60D01*
X1Y59D02*
X8Y59D01*
X2465Y59D02*
X2472Y59D01*
X1Y58D02*
X8Y58D01*
X2465Y58D02*
X2472Y58D01*
X1Y57D02*
X8Y57D01*
X2465Y57D02*
X2472Y57D01*
X1Y56D02*
X8Y56D01*
X2465Y56D02*
X2472Y56D01*
X1Y55D02*
X8Y55D01*
X2465Y55D02*
X2472Y55D01*
X1Y54D02*
X8Y54D01*
X2465Y54D02*
X2472Y54D01*
X1Y53D02*
X8Y53D01*
X2465Y53D02*
X2472Y53D01*
X1Y52D02*
X8Y52D01*
X2465Y52D02*
X2472Y52D01*
X1Y51D02*
X8Y51D01*
X2465Y51D02*
X2472Y51D01*
X1Y50D02*
X8Y50D01*
X2465Y50D02*
X2472Y50D01*
X1Y49D02*
X8Y49D01*
X2465Y49D02*
X2472Y49D01*
X1Y48D02*
X8Y48D01*
X2465Y48D02*
X2472Y48D01*
X1Y47D02*
X8Y47D01*
X2465Y47D02*
X2472Y47D01*
X1Y46D02*
X8Y46D01*
X2465Y46D02*
X2472Y46D01*
X1Y45D02*
X8Y45D01*
X2465Y45D02*
X2472Y45D01*
X1Y44D02*
X8Y44D01*
X2465Y44D02*
X2472Y44D01*
X1Y43D02*
X8Y43D01*
X2465Y43D02*
X2472Y43D01*
X1Y42D02*
X8Y42D01*
X2465Y42D02*
X2472Y42D01*
X1Y41D02*
X8Y41D01*
X2465Y41D02*
X2472Y41D01*
X1Y40D02*
X8Y40D01*
X2465Y40D02*
X2472Y40D01*
X1Y39D02*
X8Y39D01*
X2465Y39D02*
X2472Y39D01*
X1Y38D02*
X8Y38D01*
X2465Y38D02*
X2472Y38D01*
X1Y37D02*
X8Y37D01*
X2465Y37D02*
X2472Y37D01*
X1Y36D02*
X8Y36D01*
X2465Y36D02*
X2472Y36D01*
X1Y35D02*
X8Y35D01*
X2465Y35D02*
X2472Y35D01*
X1Y34D02*
X8Y34D01*
X2465Y34D02*
X2472Y34D01*
X1Y33D02*
X8Y33D01*
X2465Y33D02*
X2472Y33D01*
X1Y32D02*
X8Y32D01*
X2465Y32D02*
X2472Y32D01*
X1Y31D02*
X8Y31D01*
X2465Y31D02*
X2472Y31D01*
X1Y30D02*
X8Y30D01*
X2465Y30D02*
X2472Y30D01*
X1Y29D02*
X8Y29D01*
X2465Y29D02*
X2472Y29D01*
X1Y28D02*
X8Y28D01*
X2465Y28D02*
X2472Y28D01*
X1Y27D02*
X8Y27D01*
X2465Y27D02*
X2472Y27D01*
X1Y26D02*
X8Y26D01*
X2465Y26D02*
X2472Y26D01*
X1Y25D02*
X8Y25D01*
X2465Y25D02*
X2472Y25D01*
X1Y24D02*
X8Y24D01*
X2465Y24D02*
X2472Y24D01*
X1Y23D02*
X8Y23D01*
X2465Y23D02*
X2472Y23D01*
X1Y22D02*
X8Y22D01*
X2465Y22D02*
X2472Y22D01*
X1Y21D02*
X8Y21D01*
X2465Y21D02*
X2472Y21D01*
X1Y20D02*
X8Y20D01*
X2465Y20D02*
X2472Y20D01*
X1Y19D02*
X8Y19D01*
X2465Y19D02*
X2472Y19D01*
X1Y18D02*
X8Y18D01*
X2465Y18D02*
X2472Y18D01*
X1Y17D02*
X8Y17D01*
X2465Y17D02*
X2472Y17D01*
X1Y16D02*
X8Y16D01*
X2465Y16D02*
X2472Y16D01*
X1Y15D02*
X8Y15D01*
X2465Y15D02*
X2472Y15D01*
X1Y14D02*
X8Y14D01*
X2465Y14D02*
X2472Y14D01*
X1Y13D02*
X8Y13D01*
X2465Y13D02*
X2472Y13D01*
X1Y12D02*
X8Y12D01*
X2465Y12D02*
X2472Y12D01*
X1Y11D02*
X8Y11D01*
X2465Y11D02*
X2472Y11D01*
X1Y10D02*
X8Y10D01*
X2465Y10D02*
X2472Y10D01*
X1Y9D02*
X8Y9D01*
X2465Y9D02*
X2472Y9D01*
X1Y8D02*
X2472Y8D01*
X1Y7D02*
X2472Y7D01*
X1Y6D02*
X2472Y6D01*
X1Y5D02*
X2472Y5D01*
X1Y4D02*
X2472Y4D01*
X1Y3D02*
X2472Y3D01*
X1Y2D02*
X2472Y2D01*
X1Y1D02*
X2472Y1D01*
D02*
G04 End of Silk1*
M02*