; NON-PLATED HOLES START AT T1
; THROUGH (PLATED) HOLES START AT T100
M48
INCH
T100C0.038000
T101C0.027559
%
T100
X017831Y002679
X015836Y002762
X015881Y006880
X017770Y005902
T101
X002225Y002908
X023817Y000886
X005817Y010886
X008817Y000886
X002225Y008908
X009817Y010886
X018817Y000886
X012817Y010886
X016817Y010886
X021817Y010886
X011817Y000886
X023817Y010886
X002225Y009908
X018817Y010886
X002225Y007908
X013817Y000886
X020817Y000886
X011817Y010886
X009817Y000886
X021817Y000886
X010817Y010886
X015817Y010886
X002225Y006908
X014817Y010886
X007817Y000886
X012817Y000886
X008817Y010886
X019817Y010886
X006817Y010886
X019817Y000886
X014817Y000886
X002225Y004908
X016817Y000886
X007817Y010886
X002225Y005908
X006817Y000886
X010817Y000886
X017817Y000886
X022817Y000886
X015817Y000886
X005817Y000886
X022817Y010886
X020817Y010886
X013817Y010886
X002225Y003908
X017817Y010886
T00
M30
