G04 MADE WITH FRITZING*
G04 WWW.FRITZING.ORG*
G04 DOUBLE SIDED*
G04 HOLES PLATED*
G04 CONTOUR ON CENTER OF CONTOUR VECTOR*
%ASAXBY*%
%FSLAX23Y23*%
%MOIN*%
%OFA0B0*%
%SFA1.0B1.0*%
%ADD10R,0.001000X0.001000*%
%LNSILK0*%
G90*
G70*
G54D10*
X1Y2094D02*
X1604Y2094D01*
X1Y2093D02*
X1604Y2093D01*
X1Y2092D02*
X1604Y2092D01*
X1Y2091D02*
X1604Y2091D01*
X1Y2090D02*
X1604Y2090D01*
X1Y2089D02*
X1604Y2089D01*
X1Y2088D02*
X1604Y2088D01*
X1Y2087D02*
X1604Y2087D01*
X1Y2086D02*
X8Y2086D01*
X1597Y2086D02*
X1604Y2086D01*
X1Y2085D02*
X8Y2085D01*
X1597Y2085D02*
X1604Y2085D01*
X1Y2084D02*
X8Y2084D01*
X1597Y2084D02*
X1604Y2084D01*
X1Y2083D02*
X8Y2083D01*
X1597Y2083D02*
X1604Y2083D01*
X1Y2082D02*
X8Y2082D01*
X1597Y2082D02*
X1604Y2082D01*
X1Y2081D02*
X8Y2081D01*
X1597Y2081D02*
X1604Y2081D01*
X1Y2080D02*
X8Y2080D01*
X1597Y2080D02*
X1604Y2080D01*
X1Y2079D02*
X8Y2079D01*
X1597Y2079D02*
X1604Y2079D01*
X1Y2078D02*
X8Y2078D01*
X1597Y2078D02*
X1604Y2078D01*
X1Y2077D02*
X8Y2077D01*
X1597Y2077D02*
X1604Y2077D01*
X1Y2076D02*
X8Y2076D01*
X1597Y2076D02*
X1604Y2076D01*
X1Y2075D02*
X8Y2075D01*
X1597Y2075D02*
X1604Y2075D01*
X1Y2074D02*
X8Y2074D01*
X1597Y2074D02*
X1604Y2074D01*
X1Y2073D02*
X8Y2073D01*
X1597Y2073D02*
X1604Y2073D01*
X1Y2072D02*
X8Y2072D01*
X1597Y2072D02*
X1604Y2072D01*
X1Y2071D02*
X8Y2071D01*
X1597Y2071D02*
X1604Y2071D01*
X1Y2070D02*
X8Y2070D01*
X1597Y2070D02*
X1604Y2070D01*
X1Y2069D02*
X8Y2069D01*
X1597Y2069D02*
X1604Y2069D01*
X1Y2068D02*
X8Y2068D01*
X1597Y2068D02*
X1604Y2068D01*
X1Y2067D02*
X8Y2067D01*
X1597Y2067D02*
X1604Y2067D01*
X1Y2066D02*
X8Y2066D01*
X1597Y2066D02*
X1604Y2066D01*
X1Y2065D02*
X8Y2065D01*
X1597Y2065D02*
X1604Y2065D01*
X1Y2064D02*
X8Y2064D01*
X1597Y2064D02*
X1604Y2064D01*
X1Y2063D02*
X8Y2063D01*
X1597Y2063D02*
X1604Y2063D01*
X1Y2062D02*
X8Y2062D01*
X1597Y2062D02*
X1604Y2062D01*
X1Y2061D02*
X8Y2061D01*
X1597Y2061D02*
X1604Y2061D01*
X1Y2060D02*
X8Y2060D01*
X1597Y2060D02*
X1604Y2060D01*
X1Y2059D02*
X8Y2059D01*
X1597Y2059D02*
X1604Y2059D01*
X1Y2058D02*
X8Y2058D01*
X1597Y2058D02*
X1604Y2058D01*
X1Y2057D02*
X8Y2057D01*
X1597Y2057D02*
X1604Y2057D01*
X1Y2056D02*
X8Y2056D01*
X1597Y2056D02*
X1604Y2056D01*
X1Y2055D02*
X8Y2055D01*
X1597Y2055D02*
X1604Y2055D01*
X1Y2054D02*
X8Y2054D01*
X1597Y2054D02*
X1604Y2054D01*
X1Y2053D02*
X8Y2053D01*
X1597Y2053D02*
X1604Y2053D01*
X1Y2052D02*
X8Y2052D01*
X1597Y2052D02*
X1604Y2052D01*
X1Y2051D02*
X8Y2051D01*
X1597Y2051D02*
X1604Y2051D01*
X1Y2050D02*
X8Y2050D01*
X1597Y2050D02*
X1604Y2050D01*
X1Y2049D02*
X8Y2049D01*
X1597Y2049D02*
X1604Y2049D01*
X1Y2048D02*
X8Y2048D01*
X1597Y2048D02*
X1604Y2048D01*
X1Y2047D02*
X8Y2047D01*
X1597Y2047D02*
X1604Y2047D01*
X1Y2046D02*
X8Y2046D01*
X1597Y2046D02*
X1604Y2046D01*
X1Y2045D02*
X8Y2045D01*
X1597Y2045D02*
X1604Y2045D01*
X1Y2044D02*
X8Y2044D01*
X1597Y2044D02*
X1604Y2044D01*
X1Y2043D02*
X8Y2043D01*
X1597Y2043D02*
X1604Y2043D01*
X1Y2042D02*
X8Y2042D01*
X1597Y2042D02*
X1604Y2042D01*
X1Y2041D02*
X8Y2041D01*
X1597Y2041D02*
X1604Y2041D01*
X1Y2040D02*
X8Y2040D01*
X1597Y2040D02*
X1604Y2040D01*
X1Y2039D02*
X8Y2039D01*
X1597Y2039D02*
X1604Y2039D01*
X1Y2038D02*
X8Y2038D01*
X1597Y2038D02*
X1604Y2038D01*
X1Y2037D02*
X8Y2037D01*
X1597Y2037D02*
X1604Y2037D01*
X1Y2036D02*
X8Y2036D01*
X1597Y2036D02*
X1604Y2036D01*
X1Y2035D02*
X8Y2035D01*
X1597Y2035D02*
X1604Y2035D01*
X1Y2034D02*
X8Y2034D01*
X1597Y2034D02*
X1604Y2034D01*
X1Y2033D02*
X8Y2033D01*
X1597Y2033D02*
X1604Y2033D01*
X1Y2032D02*
X8Y2032D01*
X1597Y2032D02*
X1604Y2032D01*
X1Y2031D02*
X8Y2031D01*
X1597Y2031D02*
X1604Y2031D01*
X1Y2030D02*
X8Y2030D01*
X1597Y2030D02*
X1604Y2030D01*
X1Y2029D02*
X8Y2029D01*
X1597Y2029D02*
X1604Y2029D01*
X1Y2028D02*
X8Y2028D01*
X1597Y2028D02*
X1604Y2028D01*
X1Y2027D02*
X8Y2027D01*
X1597Y2027D02*
X1604Y2027D01*
X1Y2026D02*
X8Y2026D01*
X1597Y2026D02*
X1604Y2026D01*
X1Y2025D02*
X8Y2025D01*
X1597Y2025D02*
X1604Y2025D01*
X1Y2024D02*
X8Y2024D01*
X1597Y2024D02*
X1604Y2024D01*
X1Y2023D02*
X8Y2023D01*
X1597Y2023D02*
X1604Y2023D01*
X1Y2022D02*
X8Y2022D01*
X1597Y2022D02*
X1604Y2022D01*
X1Y2021D02*
X8Y2021D01*
X1597Y2021D02*
X1604Y2021D01*
X1Y2020D02*
X8Y2020D01*
X1597Y2020D02*
X1604Y2020D01*
X1Y2019D02*
X8Y2019D01*
X1597Y2019D02*
X1604Y2019D01*
X1Y2018D02*
X8Y2018D01*
X1597Y2018D02*
X1604Y2018D01*
X1Y2017D02*
X8Y2017D01*
X1597Y2017D02*
X1604Y2017D01*
X1Y2016D02*
X8Y2016D01*
X1597Y2016D02*
X1604Y2016D01*
X1Y2015D02*
X8Y2015D01*
X1597Y2015D02*
X1604Y2015D01*
X1Y2014D02*
X8Y2014D01*
X1597Y2014D02*
X1604Y2014D01*
X1Y2013D02*
X8Y2013D01*
X1597Y2013D02*
X1604Y2013D01*
X1Y2012D02*
X8Y2012D01*
X1597Y2012D02*
X1604Y2012D01*
X1Y2011D02*
X8Y2011D01*
X1597Y2011D02*
X1604Y2011D01*
X3Y2010D02*
X8Y2010D01*
X1597Y2010D02*
X1604Y2010D01*
X3Y2009D02*
X8Y2009D01*
X1597Y2009D02*
X1604Y2009D01*
X4Y2008D02*
X8Y2008D01*
X1597Y2008D02*
X1604Y2008D01*
X4Y2007D02*
X8Y2007D01*
X1597Y2007D02*
X1604Y2007D01*
X4Y2006D02*
X8Y2006D01*
X1597Y2006D02*
X1604Y2006D01*
X5Y2005D02*
X8Y2005D01*
X1597Y2005D02*
X1604Y2005D01*
X5Y2004D02*
X8Y2004D01*
X1597Y2004D02*
X1604Y2004D01*
X5Y2003D02*
X8Y2003D01*
X1597Y2003D02*
X1604Y2003D01*
X6Y2002D02*
X8Y2002D01*
X1597Y2002D02*
X1604Y2002D01*
X6Y2001D02*
X8Y2001D01*
X1597Y2001D02*
X1604Y2001D01*
X6Y2000D02*
X8Y2000D01*
X1597Y2000D02*
X1604Y2000D01*
X6Y1999D02*
X8Y1999D01*
X1597Y1999D02*
X1604Y1999D01*
X7Y1998D02*
X8Y1998D01*
X1597Y1998D02*
X1604Y1998D01*
X7Y1997D02*
X8Y1997D01*
X1597Y1997D02*
X1604Y1997D01*
X7Y1996D02*
X8Y1996D01*
X1597Y1996D02*
X1604Y1996D01*
X7Y1995D02*
X8Y1995D01*
X1597Y1995D02*
X1604Y1995D01*
X7Y1994D02*
X8Y1994D01*
X1597Y1994D02*
X1604Y1994D01*
X7Y1993D02*
X8Y1993D01*
X1597Y1993D02*
X1604Y1993D01*
X7Y1992D02*
X8Y1992D01*
X1597Y1992D02*
X1604Y1992D01*
X7Y1991D02*
X8Y1991D01*
X1597Y1991D02*
X1604Y1991D01*
X7Y1990D02*
X8Y1990D01*
X1597Y1990D02*
X1604Y1990D01*
X7Y1989D02*
X8Y1989D01*
X1597Y1989D02*
X1604Y1989D01*
X7Y1988D02*
X8Y1988D01*
X1597Y1988D02*
X1604Y1988D01*
X6Y1987D02*
X8Y1987D01*
X1597Y1987D02*
X1604Y1987D01*
X6Y1986D02*
X8Y1986D01*
X1597Y1986D02*
X1604Y1986D01*
X6Y1985D02*
X8Y1985D01*
X1597Y1985D02*
X1604Y1985D01*
X6Y1984D02*
X8Y1984D01*
X1597Y1984D02*
X1604Y1984D01*
X5Y1983D02*
X8Y1983D01*
X1597Y1983D02*
X1604Y1983D01*
X5Y1982D02*
X8Y1982D01*
X1597Y1982D02*
X1604Y1982D01*
X5Y1981D02*
X8Y1981D01*
X1597Y1981D02*
X1604Y1981D01*
X4Y1980D02*
X8Y1980D01*
X1597Y1980D02*
X1604Y1980D01*
X4Y1979D02*
X8Y1979D01*
X1597Y1979D02*
X1604Y1979D01*
X4Y1978D02*
X8Y1978D01*
X1597Y1978D02*
X1604Y1978D01*
X3Y1977D02*
X8Y1977D01*
X1597Y1977D02*
X1604Y1977D01*
X3Y1976D02*
X8Y1976D01*
X1597Y1976D02*
X1604Y1976D01*
X1Y1975D02*
X8Y1975D01*
X1597Y1975D02*
X1604Y1975D01*
X1Y1974D02*
X8Y1974D01*
X1597Y1974D02*
X1604Y1974D01*
X1Y1973D02*
X8Y1973D01*
X1597Y1973D02*
X1604Y1973D01*
X1Y1972D02*
X8Y1972D01*
X1597Y1972D02*
X1604Y1972D01*
X1Y1971D02*
X8Y1971D01*
X1597Y1971D02*
X1604Y1971D01*
X1Y1970D02*
X8Y1970D01*
X1597Y1970D02*
X1604Y1970D01*
X1Y1969D02*
X8Y1969D01*
X1597Y1969D02*
X1604Y1969D01*
X1Y1968D02*
X8Y1968D01*
X1597Y1968D02*
X1604Y1968D01*
X1Y1967D02*
X8Y1967D01*
X1597Y1967D02*
X1604Y1967D01*
X1Y1966D02*
X8Y1966D01*
X1597Y1966D02*
X1604Y1966D01*
X1Y1965D02*
X8Y1965D01*
X1597Y1965D02*
X1604Y1965D01*
X1Y1964D02*
X8Y1964D01*
X1597Y1964D02*
X1604Y1964D01*
X1Y1963D02*
X8Y1963D01*
X1597Y1963D02*
X1604Y1963D01*
X1Y1962D02*
X8Y1962D01*
X1597Y1962D02*
X1604Y1962D01*
X1Y1961D02*
X8Y1961D01*
X1597Y1961D02*
X1604Y1961D01*
X1Y1960D02*
X8Y1960D01*
X1597Y1960D02*
X1604Y1960D01*
X1Y1959D02*
X8Y1959D01*
X1597Y1959D02*
X1604Y1959D01*
X1Y1958D02*
X8Y1958D01*
X1597Y1958D02*
X1604Y1958D01*
X1Y1957D02*
X8Y1957D01*
X1597Y1957D02*
X1604Y1957D01*
X1Y1956D02*
X8Y1956D01*
X1597Y1956D02*
X1604Y1956D01*
X1Y1955D02*
X8Y1955D01*
X1597Y1955D02*
X1604Y1955D01*
X1Y1954D02*
X8Y1954D01*
X1597Y1954D02*
X1604Y1954D01*
X1Y1953D02*
X8Y1953D01*
X1597Y1953D02*
X1604Y1953D01*
X1Y1952D02*
X8Y1952D01*
X1597Y1952D02*
X1604Y1952D01*
X1Y1951D02*
X8Y1951D01*
X1597Y1951D02*
X1604Y1951D01*
X1Y1950D02*
X8Y1950D01*
X1597Y1950D02*
X1604Y1950D01*
X1Y1949D02*
X8Y1949D01*
X1597Y1949D02*
X1604Y1949D01*
X1Y1948D02*
X8Y1948D01*
X1597Y1948D02*
X1604Y1948D01*
X1Y1947D02*
X8Y1947D01*
X1597Y1947D02*
X1604Y1947D01*
X1Y1946D02*
X8Y1946D01*
X1597Y1946D02*
X1604Y1946D01*
X1Y1945D02*
X8Y1945D01*
X1597Y1945D02*
X1604Y1945D01*
X1Y1944D02*
X8Y1944D01*
X1597Y1944D02*
X1604Y1944D01*
X1Y1943D02*
X8Y1943D01*
X1597Y1943D02*
X1604Y1943D01*
X1Y1942D02*
X8Y1942D01*
X1597Y1942D02*
X1604Y1942D01*
X1Y1941D02*
X8Y1941D01*
X1597Y1941D02*
X1604Y1941D01*
X1Y1940D02*
X8Y1940D01*
X1597Y1940D02*
X1604Y1940D01*
X1Y1939D02*
X8Y1939D01*
X1597Y1939D02*
X1604Y1939D01*
X1Y1938D02*
X8Y1938D01*
X1597Y1938D02*
X1604Y1938D01*
X1Y1937D02*
X8Y1937D01*
X1597Y1937D02*
X1604Y1937D01*
X1Y1936D02*
X8Y1936D01*
X1597Y1936D02*
X1604Y1936D01*
X1Y1935D02*
X8Y1935D01*
X1597Y1935D02*
X1604Y1935D01*
X1Y1934D02*
X8Y1934D01*
X1597Y1934D02*
X1604Y1934D01*
X1Y1933D02*
X8Y1933D01*
X1597Y1933D02*
X1604Y1933D01*
X1Y1932D02*
X8Y1932D01*
X1597Y1932D02*
X1604Y1932D01*
X1Y1931D02*
X8Y1931D01*
X1597Y1931D02*
X1604Y1931D01*
X1Y1930D02*
X8Y1930D01*
X1597Y1930D02*
X1604Y1930D01*
X1Y1929D02*
X8Y1929D01*
X1597Y1929D02*
X1604Y1929D01*
X1Y1928D02*
X8Y1928D01*
X1597Y1928D02*
X1604Y1928D01*
X1Y1927D02*
X8Y1927D01*
X1597Y1927D02*
X1604Y1927D01*
X1Y1926D02*
X8Y1926D01*
X1597Y1926D02*
X1604Y1926D01*
X1Y1925D02*
X8Y1925D01*
X1597Y1925D02*
X1604Y1925D01*
X1Y1924D02*
X8Y1924D01*
X1597Y1924D02*
X1604Y1924D01*
X1Y1923D02*
X8Y1923D01*
X1597Y1923D02*
X1604Y1923D01*
X1Y1922D02*
X8Y1922D01*
X1597Y1922D02*
X1604Y1922D01*
X1Y1921D02*
X8Y1921D01*
X1597Y1921D02*
X1604Y1921D01*
X1Y1920D02*
X8Y1920D01*
X1597Y1920D02*
X1604Y1920D01*
X1Y1919D02*
X8Y1919D01*
X1597Y1919D02*
X1604Y1919D01*
X1Y1918D02*
X8Y1918D01*
X1597Y1918D02*
X1604Y1918D01*
X1Y1917D02*
X8Y1917D01*
X1597Y1917D02*
X1604Y1917D01*
X1Y1916D02*
X8Y1916D01*
X1597Y1916D02*
X1604Y1916D01*
X1Y1915D02*
X8Y1915D01*
X1597Y1915D02*
X1604Y1915D01*
X1Y1914D02*
X8Y1914D01*
X1597Y1914D02*
X1604Y1914D01*
X1Y1913D02*
X8Y1913D01*
X1597Y1913D02*
X1604Y1913D01*
X1Y1912D02*
X8Y1912D01*
X1597Y1912D02*
X1604Y1912D01*
X1Y1911D02*
X8Y1911D01*
X1597Y1911D02*
X1604Y1911D01*
X1Y1910D02*
X8Y1910D01*
X1597Y1910D02*
X1604Y1910D01*
X1Y1909D02*
X8Y1909D01*
X1597Y1909D02*
X1604Y1909D01*
X1Y1908D02*
X8Y1908D01*
X1597Y1908D02*
X1604Y1908D01*
X1Y1907D02*
X8Y1907D01*
X1597Y1907D02*
X1604Y1907D01*
X1Y1906D02*
X8Y1906D01*
X1597Y1906D02*
X1604Y1906D01*
X1Y1905D02*
X8Y1905D01*
X1597Y1905D02*
X1604Y1905D01*
X1Y1904D02*
X8Y1904D01*
X1597Y1904D02*
X1604Y1904D01*
X1Y1903D02*
X8Y1903D01*
X1597Y1903D02*
X1604Y1903D01*
X1Y1902D02*
X8Y1902D01*
X1597Y1902D02*
X1604Y1902D01*
X1Y1901D02*
X8Y1901D01*
X1597Y1901D02*
X1604Y1901D01*
X1Y1900D02*
X8Y1900D01*
X1597Y1900D02*
X1604Y1900D01*
X1Y1899D02*
X8Y1899D01*
X1597Y1899D02*
X1604Y1899D01*
X1Y1898D02*
X8Y1898D01*
X1597Y1898D02*
X1604Y1898D01*
X1Y1897D02*
X8Y1897D01*
X1597Y1897D02*
X1604Y1897D01*
X1Y1896D02*
X8Y1896D01*
X1597Y1896D02*
X1604Y1896D01*
X1Y1895D02*
X8Y1895D01*
X1597Y1895D02*
X1604Y1895D01*
X1Y1894D02*
X8Y1894D01*
X1597Y1894D02*
X1604Y1894D01*
X1Y1893D02*
X8Y1893D01*
X1597Y1893D02*
X1604Y1893D01*
X1Y1892D02*
X8Y1892D01*
X1597Y1892D02*
X1604Y1892D01*
X1Y1891D02*
X8Y1891D01*
X1597Y1891D02*
X1604Y1891D01*
X1Y1890D02*
X8Y1890D01*
X1597Y1890D02*
X1604Y1890D01*
X1Y1889D02*
X8Y1889D01*
X1597Y1889D02*
X1604Y1889D01*
X1Y1888D02*
X8Y1888D01*
X1597Y1888D02*
X1604Y1888D01*
X1Y1887D02*
X8Y1887D01*
X1597Y1887D02*
X1604Y1887D01*
X1Y1886D02*
X8Y1886D01*
X1597Y1886D02*
X1604Y1886D01*
X1Y1885D02*
X8Y1885D01*
X1597Y1885D02*
X1604Y1885D01*
X1Y1884D02*
X8Y1884D01*
X1597Y1884D02*
X1604Y1884D01*
X1Y1883D02*
X8Y1883D01*
X1597Y1883D02*
X1604Y1883D01*
X1Y1882D02*
X8Y1882D01*
X1597Y1882D02*
X1604Y1882D01*
X1Y1881D02*
X8Y1881D01*
X1597Y1881D02*
X1604Y1881D01*
X1Y1880D02*
X8Y1880D01*
X1597Y1880D02*
X1604Y1880D01*
X1Y1879D02*
X8Y1879D01*
X1597Y1879D02*
X1604Y1879D01*
X1Y1878D02*
X8Y1878D01*
X1597Y1878D02*
X1604Y1878D01*
X1Y1877D02*
X8Y1877D01*
X1597Y1877D02*
X1604Y1877D01*
X1Y1876D02*
X8Y1876D01*
X1597Y1876D02*
X1604Y1876D01*
X1Y1875D02*
X8Y1875D01*
X1597Y1875D02*
X1604Y1875D01*
X1Y1874D02*
X8Y1874D01*
X1597Y1874D02*
X1604Y1874D01*
X1Y1873D02*
X8Y1873D01*
X1597Y1873D02*
X1604Y1873D01*
X1Y1872D02*
X8Y1872D01*
X1597Y1872D02*
X1604Y1872D01*
X1Y1871D02*
X8Y1871D01*
X1597Y1871D02*
X1604Y1871D01*
X1Y1870D02*
X8Y1870D01*
X1597Y1870D02*
X1604Y1870D01*
X1Y1869D02*
X8Y1869D01*
X1597Y1869D02*
X1604Y1869D01*
X1Y1868D02*
X8Y1868D01*
X1597Y1868D02*
X1604Y1868D01*
X1Y1867D02*
X8Y1867D01*
X1597Y1867D02*
X1604Y1867D01*
X1Y1866D02*
X8Y1866D01*
X1597Y1866D02*
X1604Y1866D01*
X1Y1865D02*
X8Y1865D01*
X1597Y1865D02*
X1604Y1865D01*
X1Y1864D02*
X8Y1864D01*
X1597Y1864D02*
X1604Y1864D01*
X1Y1863D02*
X8Y1863D01*
X1597Y1863D02*
X1604Y1863D01*
X1Y1862D02*
X8Y1862D01*
X1597Y1862D02*
X1604Y1862D01*
X1Y1861D02*
X8Y1861D01*
X1597Y1861D02*
X1604Y1861D01*
X1Y1860D02*
X8Y1860D01*
X1597Y1860D02*
X1604Y1860D01*
X1Y1859D02*
X8Y1859D01*
X1597Y1859D02*
X1604Y1859D01*
X1Y1858D02*
X8Y1858D01*
X1597Y1858D02*
X1604Y1858D01*
X1Y1857D02*
X8Y1857D01*
X1597Y1857D02*
X1604Y1857D01*
X1Y1856D02*
X8Y1856D01*
X1597Y1856D02*
X1604Y1856D01*
X1Y1855D02*
X8Y1855D01*
X1597Y1855D02*
X1604Y1855D01*
X1Y1854D02*
X8Y1854D01*
X1597Y1854D02*
X1604Y1854D01*
X1Y1853D02*
X8Y1853D01*
X1597Y1853D02*
X1604Y1853D01*
X1Y1852D02*
X8Y1852D01*
X1597Y1852D02*
X1604Y1852D01*
X1Y1851D02*
X8Y1851D01*
X1597Y1851D02*
X1604Y1851D01*
X1Y1850D02*
X8Y1850D01*
X1597Y1850D02*
X1604Y1850D01*
X1Y1849D02*
X8Y1849D01*
X1597Y1849D02*
X1604Y1849D01*
X1Y1848D02*
X8Y1848D01*
X1597Y1848D02*
X1604Y1848D01*
X1Y1847D02*
X8Y1847D01*
X1597Y1847D02*
X1604Y1847D01*
X1Y1846D02*
X8Y1846D01*
X1597Y1846D02*
X1604Y1846D01*
X1Y1845D02*
X8Y1845D01*
X1597Y1845D02*
X1604Y1845D01*
X1Y1844D02*
X8Y1844D01*
X1597Y1844D02*
X1604Y1844D01*
X1Y1843D02*
X8Y1843D01*
X1597Y1843D02*
X1604Y1843D01*
X1Y1842D02*
X8Y1842D01*
X1597Y1842D02*
X1604Y1842D01*
X1Y1841D02*
X8Y1841D01*
X1597Y1841D02*
X1604Y1841D01*
X1Y1840D02*
X8Y1840D01*
X1597Y1840D02*
X1604Y1840D01*
X1Y1839D02*
X8Y1839D01*
X1597Y1839D02*
X1604Y1839D01*
X1Y1838D02*
X8Y1838D01*
X1597Y1838D02*
X1604Y1838D01*
X1Y1837D02*
X8Y1837D01*
X1597Y1837D02*
X1604Y1837D01*
X1Y1836D02*
X8Y1836D01*
X1597Y1836D02*
X1604Y1836D01*
X1Y1835D02*
X8Y1835D01*
X1597Y1835D02*
X1604Y1835D01*
X1Y1834D02*
X8Y1834D01*
X1597Y1834D02*
X1604Y1834D01*
X1Y1833D02*
X8Y1833D01*
X1597Y1833D02*
X1604Y1833D01*
X1Y1832D02*
X8Y1832D01*
X1597Y1832D02*
X1604Y1832D01*
X1Y1831D02*
X8Y1831D01*
X1597Y1831D02*
X1604Y1831D01*
X1Y1830D02*
X8Y1830D01*
X1597Y1830D02*
X1604Y1830D01*
X1Y1829D02*
X8Y1829D01*
X1597Y1829D02*
X1604Y1829D01*
X1Y1828D02*
X8Y1828D01*
X1597Y1828D02*
X1604Y1828D01*
X1Y1827D02*
X8Y1827D01*
X1597Y1827D02*
X1604Y1827D01*
X1Y1826D02*
X8Y1826D01*
X1597Y1826D02*
X1604Y1826D01*
X1Y1825D02*
X8Y1825D01*
X1597Y1825D02*
X1604Y1825D01*
X1Y1824D02*
X8Y1824D01*
X1597Y1824D02*
X1604Y1824D01*
X1Y1823D02*
X8Y1823D01*
X1597Y1823D02*
X1604Y1823D01*
X1Y1822D02*
X8Y1822D01*
X1597Y1822D02*
X1604Y1822D01*
X1Y1821D02*
X8Y1821D01*
X1597Y1821D02*
X1604Y1821D01*
X1Y1820D02*
X8Y1820D01*
X1597Y1820D02*
X1604Y1820D01*
X1Y1819D02*
X8Y1819D01*
X1597Y1819D02*
X1604Y1819D01*
X1Y1818D02*
X8Y1818D01*
X1597Y1818D02*
X1604Y1818D01*
X1Y1817D02*
X8Y1817D01*
X1597Y1817D02*
X1604Y1817D01*
X1Y1816D02*
X8Y1816D01*
X1597Y1816D02*
X1604Y1816D01*
X1Y1815D02*
X8Y1815D01*
X1597Y1815D02*
X1604Y1815D01*
X1Y1814D02*
X8Y1814D01*
X1597Y1814D02*
X1604Y1814D01*
X1Y1813D02*
X8Y1813D01*
X1597Y1813D02*
X1604Y1813D01*
X1Y1812D02*
X8Y1812D01*
X1597Y1812D02*
X1604Y1812D01*
X1Y1811D02*
X8Y1811D01*
X1597Y1811D02*
X1604Y1811D01*
X1Y1810D02*
X8Y1810D01*
X1597Y1810D02*
X1604Y1810D01*
X1Y1809D02*
X8Y1809D01*
X1597Y1809D02*
X1604Y1809D01*
X1Y1808D02*
X8Y1808D01*
X1597Y1808D02*
X1604Y1808D01*
X1Y1807D02*
X8Y1807D01*
X1597Y1807D02*
X1604Y1807D01*
X1Y1806D02*
X8Y1806D01*
X1597Y1806D02*
X1604Y1806D01*
X1Y1805D02*
X8Y1805D01*
X1597Y1805D02*
X1604Y1805D01*
X1Y1804D02*
X8Y1804D01*
X1597Y1804D02*
X1604Y1804D01*
X1Y1803D02*
X8Y1803D01*
X1597Y1803D02*
X1604Y1803D01*
X1Y1802D02*
X8Y1802D01*
X1597Y1802D02*
X1604Y1802D01*
X1Y1801D02*
X8Y1801D01*
X1597Y1801D02*
X1604Y1801D01*
X1Y1800D02*
X8Y1800D01*
X1597Y1800D02*
X1604Y1800D01*
X1Y1799D02*
X8Y1799D01*
X1597Y1799D02*
X1604Y1799D01*
X1Y1798D02*
X8Y1798D01*
X1597Y1798D02*
X1604Y1798D01*
X1Y1797D02*
X8Y1797D01*
X1597Y1797D02*
X1604Y1797D01*
X1Y1796D02*
X8Y1796D01*
X1597Y1796D02*
X1604Y1796D01*
X1Y1795D02*
X8Y1795D01*
X1597Y1795D02*
X1604Y1795D01*
X1Y1794D02*
X8Y1794D01*
X1597Y1794D02*
X1604Y1794D01*
X1Y1793D02*
X8Y1793D01*
X1597Y1793D02*
X1604Y1793D01*
X1Y1792D02*
X8Y1792D01*
X1597Y1792D02*
X1604Y1792D01*
X1Y1791D02*
X8Y1791D01*
X1597Y1791D02*
X1604Y1791D01*
X1Y1790D02*
X8Y1790D01*
X1597Y1790D02*
X1604Y1790D01*
X1Y1789D02*
X8Y1789D01*
X1597Y1789D02*
X1604Y1789D01*
X1Y1788D02*
X8Y1788D01*
X1597Y1788D02*
X1604Y1788D01*
X1Y1787D02*
X8Y1787D01*
X1597Y1787D02*
X1604Y1787D01*
X1Y1786D02*
X8Y1786D01*
X1597Y1786D02*
X1604Y1786D01*
X1Y1785D02*
X8Y1785D01*
X1597Y1785D02*
X1604Y1785D01*
X1Y1784D02*
X8Y1784D01*
X1597Y1784D02*
X1604Y1784D01*
X1Y1783D02*
X8Y1783D01*
X1597Y1783D02*
X1604Y1783D01*
X1Y1782D02*
X8Y1782D01*
X1597Y1782D02*
X1604Y1782D01*
X1Y1781D02*
X8Y1781D01*
X1597Y1781D02*
X1604Y1781D01*
X1Y1780D02*
X8Y1780D01*
X1597Y1780D02*
X1604Y1780D01*
X1Y1779D02*
X8Y1779D01*
X1597Y1779D02*
X1604Y1779D01*
X1Y1778D02*
X8Y1778D01*
X1597Y1778D02*
X1604Y1778D01*
X1Y1777D02*
X8Y1777D01*
X1597Y1777D02*
X1604Y1777D01*
X1Y1776D02*
X8Y1776D01*
X1597Y1776D02*
X1604Y1776D01*
X1Y1775D02*
X8Y1775D01*
X1597Y1775D02*
X1604Y1775D01*
X1Y1774D02*
X8Y1774D01*
X1597Y1774D02*
X1604Y1774D01*
X1Y1773D02*
X8Y1773D01*
X1597Y1773D02*
X1604Y1773D01*
X1Y1772D02*
X8Y1772D01*
X1597Y1772D02*
X1604Y1772D01*
X1Y1771D02*
X8Y1771D01*
X1597Y1771D02*
X1604Y1771D01*
X1Y1770D02*
X8Y1770D01*
X1597Y1770D02*
X1604Y1770D01*
X1Y1769D02*
X8Y1769D01*
X1597Y1769D02*
X1604Y1769D01*
X1Y1768D02*
X8Y1768D01*
X1597Y1768D02*
X1604Y1768D01*
X1Y1767D02*
X8Y1767D01*
X1597Y1767D02*
X1604Y1767D01*
X1Y1766D02*
X8Y1766D01*
X1597Y1766D02*
X1604Y1766D01*
X1Y1765D02*
X8Y1765D01*
X1597Y1765D02*
X1604Y1765D01*
X1Y1764D02*
X8Y1764D01*
X1597Y1764D02*
X1604Y1764D01*
X1Y1763D02*
X8Y1763D01*
X1597Y1763D02*
X1604Y1763D01*
X1Y1762D02*
X8Y1762D01*
X1597Y1762D02*
X1604Y1762D01*
X1Y1761D02*
X8Y1761D01*
X1597Y1761D02*
X1604Y1761D01*
X1Y1760D02*
X8Y1760D01*
X1597Y1760D02*
X1604Y1760D01*
X1Y1759D02*
X8Y1759D01*
X1597Y1759D02*
X1604Y1759D01*
X1Y1758D02*
X8Y1758D01*
X1597Y1758D02*
X1604Y1758D01*
X1Y1757D02*
X8Y1757D01*
X1597Y1757D02*
X1604Y1757D01*
X1Y1756D02*
X8Y1756D01*
X1597Y1756D02*
X1604Y1756D01*
X1Y1755D02*
X8Y1755D01*
X1597Y1755D02*
X1604Y1755D01*
X1Y1754D02*
X8Y1754D01*
X1597Y1754D02*
X1604Y1754D01*
X1Y1753D02*
X8Y1753D01*
X1597Y1753D02*
X1604Y1753D01*
X1Y1752D02*
X8Y1752D01*
X1597Y1752D02*
X1604Y1752D01*
X1Y1751D02*
X8Y1751D01*
X1597Y1751D02*
X1604Y1751D01*
X1Y1750D02*
X8Y1750D01*
X1597Y1750D02*
X1604Y1750D01*
X1Y1749D02*
X8Y1749D01*
X1597Y1749D02*
X1604Y1749D01*
X1Y1748D02*
X8Y1748D01*
X1597Y1748D02*
X1604Y1748D01*
X1Y1747D02*
X8Y1747D01*
X1597Y1747D02*
X1604Y1747D01*
X1Y1746D02*
X8Y1746D01*
X1597Y1746D02*
X1604Y1746D01*
X1Y1745D02*
X8Y1745D01*
X1597Y1745D02*
X1604Y1745D01*
X1Y1744D02*
X8Y1744D01*
X1597Y1744D02*
X1604Y1744D01*
X1Y1743D02*
X8Y1743D01*
X1597Y1743D02*
X1604Y1743D01*
X1Y1742D02*
X8Y1742D01*
X1597Y1742D02*
X1604Y1742D01*
X1Y1741D02*
X8Y1741D01*
X1597Y1741D02*
X1604Y1741D01*
X1Y1740D02*
X8Y1740D01*
X1597Y1740D02*
X1604Y1740D01*
X1Y1739D02*
X8Y1739D01*
X1597Y1739D02*
X1604Y1739D01*
X1Y1738D02*
X8Y1738D01*
X1597Y1738D02*
X1604Y1738D01*
X1Y1737D02*
X8Y1737D01*
X1597Y1737D02*
X1604Y1737D01*
X1Y1736D02*
X8Y1736D01*
X1597Y1736D02*
X1604Y1736D01*
X1Y1735D02*
X8Y1735D01*
X1597Y1735D02*
X1604Y1735D01*
X1Y1734D02*
X8Y1734D01*
X1597Y1734D02*
X1604Y1734D01*
X1Y1733D02*
X8Y1733D01*
X1597Y1733D02*
X1604Y1733D01*
X1Y1732D02*
X8Y1732D01*
X1597Y1732D02*
X1604Y1732D01*
X1Y1731D02*
X8Y1731D01*
X1597Y1731D02*
X1604Y1731D01*
X1Y1730D02*
X8Y1730D01*
X1597Y1730D02*
X1604Y1730D01*
X1Y1729D02*
X8Y1729D01*
X1597Y1729D02*
X1604Y1729D01*
X1Y1728D02*
X8Y1728D01*
X1597Y1728D02*
X1604Y1728D01*
X1Y1727D02*
X8Y1727D01*
X1597Y1727D02*
X1604Y1727D01*
X1Y1726D02*
X8Y1726D01*
X1597Y1726D02*
X1604Y1726D01*
X1Y1725D02*
X8Y1725D01*
X1597Y1725D02*
X1604Y1725D01*
X1Y1724D02*
X8Y1724D01*
X1597Y1724D02*
X1604Y1724D01*
X1Y1723D02*
X8Y1723D01*
X1597Y1723D02*
X1604Y1723D01*
X1Y1722D02*
X8Y1722D01*
X1597Y1722D02*
X1604Y1722D01*
X1Y1721D02*
X8Y1721D01*
X1597Y1721D02*
X1604Y1721D01*
X1Y1720D02*
X8Y1720D01*
X1597Y1720D02*
X1604Y1720D01*
X1Y1719D02*
X8Y1719D01*
X1597Y1719D02*
X1604Y1719D01*
X1Y1718D02*
X8Y1718D01*
X1597Y1718D02*
X1604Y1718D01*
X1Y1717D02*
X8Y1717D01*
X1597Y1717D02*
X1604Y1717D01*
X1Y1716D02*
X8Y1716D01*
X1597Y1716D02*
X1604Y1716D01*
X1Y1715D02*
X8Y1715D01*
X1597Y1715D02*
X1604Y1715D01*
X1Y1714D02*
X8Y1714D01*
X1597Y1714D02*
X1604Y1714D01*
X1Y1713D02*
X8Y1713D01*
X1597Y1713D02*
X1604Y1713D01*
X1Y1712D02*
X8Y1712D01*
X1597Y1712D02*
X1604Y1712D01*
X1Y1711D02*
X8Y1711D01*
X1597Y1711D02*
X1604Y1711D01*
X1Y1710D02*
X8Y1710D01*
X1597Y1710D02*
X1604Y1710D01*
X1Y1709D02*
X8Y1709D01*
X1597Y1709D02*
X1604Y1709D01*
X1Y1708D02*
X8Y1708D01*
X1597Y1708D02*
X1604Y1708D01*
X1Y1707D02*
X8Y1707D01*
X1597Y1707D02*
X1604Y1707D01*
X1Y1706D02*
X8Y1706D01*
X1597Y1706D02*
X1604Y1706D01*
X1Y1705D02*
X8Y1705D01*
X1597Y1705D02*
X1604Y1705D01*
X1Y1704D02*
X8Y1704D01*
X1597Y1704D02*
X1604Y1704D01*
X1Y1703D02*
X8Y1703D01*
X1597Y1703D02*
X1604Y1703D01*
X1Y1702D02*
X8Y1702D01*
X1597Y1702D02*
X1604Y1702D01*
X1Y1701D02*
X8Y1701D01*
X1597Y1701D02*
X1604Y1701D01*
X1Y1700D02*
X8Y1700D01*
X1597Y1700D02*
X1604Y1700D01*
X1Y1699D02*
X8Y1699D01*
X1597Y1699D02*
X1604Y1699D01*
X1Y1698D02*
X8Y1698D01*
X1597Y1698D02*
X1604Y1698D01*
X1Y1697D02*
X8Y1697D01*
X1597Y1697D02*
X1604Y1697D01*
X1Y1696D02*
X8Y1696D01*
X1597Y1696D02*
X1604Y1696D01*
X1Y1695D02*
X8Y1695D01*
X1597Y1695D02*
X1604Y1695D01*
X1Y1694D02*
X8Y1694D01*
X1597Y1694D02*
X1604Y1694D01*
X1Y1693D02*
X8Y1693D01*
X1597Y1693D02*
X1604Y1693D01*
X1Y1692D02*
X8Y1692D01*
X1597Y1692D02*
X1604Y1692D01*
X1Y1691D02*
X8Y1691D01*
X1597Y1691D02*
X1604Y1691D01*
X1Y1690D02*
X8Y1690D01*
X1597Y1690D02*
X1604Y1690D01*
X1Y1689D02*
X8Y1689D01*
X1597Y1689D02*
X1604Y1689D01*
X1Y1688D02*
X8Y1688D01*
X1597Y1688D02*
X1604Y1688D01*
X1Y1687D02*
X8Y1687D01*
X1597Y1687D02*
X1604Y1687D01*
X1Y1686D02*
X8Y1686D01*
X1597Y1686D02*
X1604Y1686D01*
X1Y1685D02*
X8Y1685D01*
X1597Y1685D02*
X1604Y1685D01*
X1Y1684D02*
X8Y1684D01*
X1597Y1684D02*
X1604Y1684D01*
X1Y1683D02*
X8Y1683D01*
X1597Y1683D02*
X1604Y1683D01*
X1Y1682D02*
X8Y1682D01*
X1597Y1682D02*
X1604Y1682D01*
X1Y1681D02*
X8Y1681D01*
X1597Y1681D02*
X1604Y1681D01*
X1Y1680D02*
X8Y1680D01*
X1597Y1680D02*
X1604Y1680D01*
X1Y1679D02*
X8Y1679D01*
X1597Y1679D02*
X1604Y1679D01*
X1Y1678D02*
X8Y1678D01*
X1597Y1678D02*
X1604Y1678D01*
X1Y1677D02*
X8Y1677D01*
X1597Y1677D02*
X1604Y1677D01*
X1Y1676D02*
X8Y1676D01*
X1597Y1676D02*
X1604Y1676D01*
X1Y1675D02*
X8Y1675D01*
X1597Y1675D02*
X1604Y1675D01*
X1Y1674D02*
X8Y1674D01*
X1597Y1674D02*
X1604Y1674D01*
X1Y1673D02*
X8Y1673D01*
X1597Y1673D02*
X1604Y1673D01*
X1Y1672D02*
X8Y1672D01*
X1597Y1672D02*
X1604Y1672D01*
X1Y1671D02*
X8Y1671D01*
X1597Y1671D02*
X1604Y1671D01*
X1Y1670D02*
X8Y1670D01*
X1597Y1670D02*
X1604Y1670D01*
X1Y1669D02*
X8Y1669D01*
X1597Y1669D02*
X1604Y1669D01*
X1Y1668D02*
X8Y1668D01*
X1597Y1668D02*
X1604Y1668D01*
X1Y1667D02*
X8Y1667D01*
X1597Y1667D02*
X1604Y1667D01*
X1Y1666D02*
X8Y1666D01*
X1597Y1666D02*
X1604Y1666D01*
X1Y1665D02*
X8Y1665D01*
X1597Y1665D02*
X1604Y1665D01*
X1Y1664D02*
X8Y1664D01*
X1597Y1664D02*
X1604Y1664D01*
X1Y1663D02*
X8Y1663D01*
X1597Y1663D02*
X1604Y1663D01*
X1Y1662D02*
X8Y1662D01*
X1597Y1662D02*
X1604Y1662D01*
X1Y1661D02*
X8Y1661D01*
X1597Y1661D02*
X1604Y1661D01*
X1Y1660D02*
X8Y1660D01*
X1597Y1660D02*
X1604Y1660D01*
X1Y1659D02*
X8Y1659D01*
X1597Y1659D02*
X1604Y1659D01*
X1Y1658D02*
X8Y1658D01*
X1597Y1658D02*
X1604Y1658D01*
X1Y1657D02*
X8Y1657D01*
X1597Y1657D02*
X1604Y1657D01*
X1Y1656D02*
X8Y1656D01*
X1597Y1656D02*
X1604Y1656D01*
X1Y1655D02*
X8Y1655D01*
X1597Y1655D02*
X1604Y1655D01*
X1Y1654D02*
X8Y1654D01*
X1597Y1654D02*
X1604Y1654D01*
X1Y1653D02*
X8Y1653D01*
X1597Y1653D02*
X1604Y1653D01*
X1Y1652D02*
X8Y1652D01*
X1597Y1652D02*
X1604Y1652D01*
X1Y1651D02*
X8Y1651D01*
X1597Y1651D02*
X1604Y1651D01*
X1Y1650D02*
X8Y1650D01*
X1597Y1650D02*
X1604Y1650D01*
X1Y1649D02*
X8Y1649D01*
X1597Y1649D02*
X1604Y1649D01*
X1Y1648D02*
X8Y1648D01*
X1597Y1648D02*
X1604Y1648D01*
X1Y1647D02*
X8Y1647D01*
X1597Y1647D02*
X1604Y1647D01*
X1Y1646D02*
X8Y1646D01*
X1597Y1646D02*
X1604Y1646D01*
X1Y1645D02*
X8Y1645D01*
X1597Y1645D02*
X1604Y1645D01*
X1Y1644D02*
X8Y1644D01*
X1597Y1644D02*
X1604Y1644D01*
X1Y1643D02*
X8Y1643D01*
X1597Y1643D02*
X1604Y1643D01*
X1Y1642D02*
X8Y1642D01*
X1597Y1642D02*
X1604Y1642D01*
X1Y1641D02*
X8Y1641D01*
X1597Y1641D02*
X1604Y1641D01*
X1Y1640D02*
X8Y1640D01*
X1597Y1640D02*
X1604Y1640D01*
X1Y1639D02*
X8Y1639D01*
X1597Y1639D02*
X1604Y1639D01*
X1Y1638D02*
X8Y1638D01*
X1597Y1638D02*
X1604Y1638D01*
X1Y1637D02*
X8Y1637D01*
X1597Y1637D02*
X1604Y1637D01*
X1Y1636D02*
X8Y1636D01*
X1597Y1636D02*
X1604Y1636D01*
X1Y1635D02*
X8Y1635D01*
X1597Y1635D02*
X1604Y1635D01*
X1Y1634D02*
X8Y1634D01*
X1597Y1634D02*
X1604Y1634D01*
X1Y1633D02*
X8Y1633D01*
X1597Y1633D02*
X1604Y1633D01*
X1Y1632D02*
X8Y1632D01*
X1597Y1632D02*
X1604Y1632D01*
X1Y1631D02*
X8Y1631D01*
X1597Y1631D02*
X1604Y1631D01*
X1Y1630D02*
X8Y1630D01*
X1597Y1630D02*
X1604Y1630D01*
X1Y1629D02*
X8Y1629D01*
X1597Y1629D02*
X1604Y1629D01*
X1Y1628D02*
X8Y1628D01*
X1597Y1628D02*
X1604Y1628D01*
X1Y1627D02*
X8Y1627D01*
X1597Y1627D02*
X1604Y1627D01*
X1Y1626D02*
X8Y1626D01*
X1597Y1626D02*
X1604Y1626D01*
X1Y1625D02*
X8Y1625D01*
X1597Y1625D02*
X1604Y1625D01*
X1Y1624D02*
X8Y1624D01*
X1597Y1624D02*
X1604Y1624D01*
X1Y1623D02*
X8Y1623D01*
X1597Y1623D02*
X1604Y1623D01*
X1Y1622D02*
X8Y1622D01*
X1597Y1622D02*
X1604Y1622D01*
X1Y1621D02*
X8Y1621D01*
X1597Y1621D02*
X1604Y1621D01*
X1Y1620D02*
X8Y1620D01*
X1597Y1620D02*
X1604Y1620D01*
X1Y1619D02*
X8Y1619D01*
X1597Y1619D02*
X1604Y1619D01*
X1Y1618D02*
X8Y1618D01*
X1597Y1618D02*
X1604Y1618D01*
X1Y1617D02*
X8Y1617D01*
X1597Y1617D02*
X1604Y1617D01*
X1Y1616D02*
X8Y1616D01*
X1597Y1616D02*
X1604Y1616D01*
X1Y1615D02*
X8Y1615D01*
X1597Y1615D02*
X1604Y1615D01*
X1Y1614D02*
X8Y1614D01*
X1597Y1614D02*
X1604Y1614D01*
X1Y1613D02*
X8Y1613D01*
X1597Y1613D02*
X1604Y1613D01*
X1Y1612D02*
X8Y1612D01*
X1597Y1612D02*
X1604Y1612D01*
X1Y1611D02*
X8Y1611D01*
X1597Y1611D02*
X1604Y1611D01*
X1Y1610D02*
X8Y1610D01*
X1597Y1610D02*
X1604Y1610D01*
X1Y1609D02*
X8Y1609D01*
X1597Y1609D02*
X1604Y1609D01*
X1Y1608D02*
X8Y1608D01*
X1597Y1608D02*
X1604Y1608D01*
X1Y1607D02*
X8Y1607D01*
X1597Y1607D02*
X1604Y1607D01*
X1Y1606D02*
X8Y1606D01*
X1597Y1606D02*
X1604Y1606D01*
X1Y1605D02*
X8Y1605D01*
X1597Y1605D02*
X1604Y1605D01*
X1Y1604D02*
X8Y1604D01*
X1597Y1604D02*
X1604Y1604D01*
X1Y1603D02*
X8Y1603D01*
X1597Y1603D02*
X1604Y1603D01*
X1Y1602D02*
X8Y1602D01*
X1597Y1602D02*
X1604Y1602D01*
X1Y1601D02*
X8Y1601D01*
X1597Y1601D02*
X1604Y1601D01*
X1Y1600D02*
X8Y1600D01*
X1597Y1600D02*
X1604Y1600D01*
X1Y1599D02*
X8Y1599D01*
X1597Y1599D02*
X1604Y1599D01*
X1Y1598D02*
X8Y1598D01*
X1597Y1598D02*
X1604Y1598D01*
X1Y1597D02*
X8Y1597D01*
X1597Y1597D02*
X1604Y1597D01*
X1Y1596D02*
X8Y1596D01*
X1597Y1596D02*
X1604Y1596D01*
X1Y1595D02*
X8Y1595D01*
X1597Y1595D02*
X1604Y1595D01*
X1Y1594D02*
X8Y1594D01*
X1597Y1594D02*
X1604Y1594D01*
X1Y1593D02*
X8Y1593D01*
X1597Y1593D02*
X1604Y1593D01*
X1Y1592D02*
X8Y1592D01*
X1597Y1592D02*
X1604Y1592D01*
X1Y1591D02*
X8Y1591D01*
X1597Y1591D02*
X1604Y1591D01*
X1Y1590D02*
X8Y1590D01*
X1597Y1590D02*
X1604Y1590D01*
X1Y1589D02*
X8Y1589D01*
X1597Y1589D02*
X1604Y1589D01*
X1Y1588D02*
X8Y1588D01*
X1597Y1588D02*
X1604Y1588D01*
X1Y1587D02*
X8Y1587D01*
X1597Y1587D02*
X1604Y1587D01*
X1Y1586D02*
X8Y1586D01*
X1597Y1586D02*
X1604Y1586D01*
X1Y1585D02*
X8Y1585D01*
X1597Y1585D02*
X1604Y1585D01*
X1Y1584D02*
X8Y1584D01*
X1597Y1584D02*
X1604Y1584D01*
X1Y1583D02*
X8Y1583D01*
X1597Y1583D02*
X1604Y1583D01*
X1Y1582D02*
X8Y1582D01*
X1597Y1582D02*
X1604Y1582D01*
X1Y1581D02*
X8Y1581D01*
X1597Y1581D02*
X1604Y1581D01*
X1Y1580D02*
X8Y1580D01*
X1597Y1580D02*
X1604Y1580D01*
X1Y1579D02*
X8Y1579D01*
X1597Y1579D02*
X1604Y1579D01*
X1Y1578D02*
X8Y1578D01*
X1597Y1578D02*
X1604Y1578D01*
X1Y1577D02*
X8Y1577D01*
X1597Y1577D02*
X1604Y1577D01*
X1Y1576D02*
X8Y1576D01*
X1597Y1576D02*
X1604Y1576D01*
X1Y1575D02*
X8Y1575D01*
X1597Y1575D02*
X1604Y1575D01*
X1Y1574D02*
X8Y1574D01*
X1597Y1574D02*
X1604Y1574D01*
X1Y1573D02*
X8Y1573D01*
X1597Y1573D02*
X1604Y1573D01*
X1Y1572D02*
X8Y1572D01*
X1597Y1572D02*
X1604Y1572D01*
X1Y1571D02*
X8Y1571D01*
X1597Y1571D02*
X1604Y1571D01*
X1Y1570D02*
X8Y1570D01*
X1597Y1570D02*
X1604Y1570D01*
X1Y1569D02*
X8Y1569D01*
X1597Y1569D02*
X1604Y1569D01*
X1Y1568D02*
X8Y1568D01*
X1597Y1568D02*
X1604Y1568D01*
X1Y1567D02*
X8Y1567D01*
X1597Y1567D02*
X1604Y1567D01*
X1Y1566D02*
X8Y1566D01*
X1597Y1566D02*
X1604Y1566D01*
X1Y1565D02*
X8Y1565D01*
X1597Y1565D02*
X1604Y1565D01*
X1Y1564D02*
X8Y1564D01*
X1597Y1564D02*
X1604Y1564D01*
X1Y1563D02*
X8Y1563D01*
X1597Y1563D02*
X1604Y1563D01*
X1Y1562D02*
X8Y1562D01*
X1597Y1562D02*
X1604Y1562D01*
X1Y1561D02*
X8Y1561D01*
X1597Y1561D02*
X1604Y1561D01*
X1Y1560D02*
X8Y1560D01*
X1597Y1560D02*
X1604Y1560D01*
X1Y1559D02*
X8Y1559D01*
X1597Y1559D02*
X1604Y1559D01*
X1Y1558D02*
X8Y1558D01*
X1597Y1558D02*
X1604Y1558D01*
X1Y1557D02*
X8Y1557D01*
X1597Y1557D02*
X1604Y1557D01*
X1Y1556D02*
X8Y1556D01*
X1597Y1556D02*
X1604Y1556D01*
X1Y1555D02*
X8Y1555D01*
X1597Y1555D02*
X1604Y1555D01*
X1Y1554D02*
X8Y1554D01*
X1597Y1554D02*
X1604Y1554D01*
X1Y1553D02*
X8Y1553D01*
X1597Y1553D02*
X1604Y1553D01*
X1Y1552D02*
X8Y1552D01*
X1597Y1552D02*
X1604Y1552D01*
X1Y1551D02*
X8Y1551D01*
X1597Y1551D02*
X1604Y1551D01*
X1Y1550D02*
X8Y1550D01*
X1597Y1550D02*
X1604Y1550D01*
X1Y1549D02*
X8Y1549D01*
X1597Y1549D02*
X1604Y1549D01*
X1Y1548D02*
X8Y1548D01*
X1597Y1548D02*
X1604Y1548D01*
X1Y1547D02*
X8Y1547D01*
X1597Y1547D02*
X1604Y1547D01*
X1Y1546D02*
X8Y1546D01*
X1597Y1546D02*
X1604Y1546D01*
X1Y1545D02*
X8Y1545D01*
X1597Y1545D02*
X1604Y1545D01*
X1Y1544D02*
X8Y1544D01*
X1597Y1544D02*
X1604Y1544D01*
X1Y1543D02*
X8Y1543D01*
X1597Y1543D02*
X1604Y1543D01*
X1Y1542D02*
X8Y1542D01*
X1597Y1542D02*
X1604Y1542D01*
X1Y1541D02*
X8Y1541D01*
X1597Y1541D02*
X1604Y1541D01*
X1Y1540D02*
X8Y1540D01*
X1597Y1540D02*
X1604Y1540D01*
X1Y1539D02*
X8Y1539D01*
X1597Y1539D02*
X1604Y1539D01*
X1Y1538D02*
X8Y1538D01*
X1597Y1538D02*
X1604Y1538D01*
X1Y1537D02*
X8Y1537D01*
X1597Y1537D02*
X1604Y1537D01*
X1Y1536D02*
X8Y1536D01*
X1597Y1536D02*
X1604Y1536D01*
X1Y1535D02*
X8Y1535D01*
X1597Y1535D02*
X1604Y1535D01*
X1Y1534D02*
X8Y1534D01*
X1597Y1534D02*
X1604Y1534D01*
X1Y1533D02*
X8Y1533D01*
X1597Y1533D02*
X1604Y1533D01*
X1Y1532D02*
X8Y1532D01*
X1597Y1532D02*
X1604Y1532D01*
X1Y1531D02*
X8Y1531D01*
X1597Y1531D02*
X1604Y1531D01*
X1Y1530D02*
X8Y1530D01*
X1597Y1530D02*
X1604Y1530D01*
X1Y1529D02*
X8Y1529D01*
X1597Y1529D02*
X1604Y1529D01*
X1Y1528D02*
X8Y1528D01*
X1597Y1528D02*
X1604Y1528D01*
X1Y1527D02*
X8Y1527D01*
X1597Y1527D02*
X1604Y1527D01*
X1Y1526D02*
X8Y1526D01*
X1597Y1526D02*
X1604Y1526D01*
X1Y1525D02*
X8Y1525D01*
X1597Y1525D02*
X1604Y1525D01*
X1Y1524D02*
X8Y1524D01*
X1597Y1524D02*
X1604Y1524D01*
X1Y1523D02*
X8Y1523D01*
X1597Y1523D02*
X1604Y1523D01*
X1Y1522D02*
X8Y1522D01*
X1597Y1522D02*
X1604Y1522D01*
X1Y1521D02*
X8Y1521D01*
X1597Y1521D02*
X1604Y1521D01*
X1Y1520D02*
X8Y1520D01*
X1597Y1520D02*
X1604Y1520D01*
X1Y1519D02*
X8Y1519D01*
X1597Y1519D02*
X1604Y1519D01*
X1Y1518D02*
X8Y1518D01*
X1597Y1518D02*
X1604Y1518D01*
X1Y1517D02*
X8Y1517D01*
X1597Y1517D02*
X1604Y1517D01*
X1Y1516D02*
X8Y1516D01*
X1597Y1516D02*
X1604Y1516D01*
X1Y1515D02*
X8Y1515D01*
X1597Y1515D02*
X1604Y1515D01*
X1Y1514D02*
X8Y1514D01*
X1597Y1514D02*
X1604Y1514D01*
X1Y1513D02*
X8Y1513D01*
X1597Y1513D02*
X1604Y1513D01*
X1Y1512D02*
X8Y1512D01*
X1597Y1512D02*
X1604Y1512D01*
X1Y1511D02*
X8Y1511D01*
X1597Y1511D02*
X1604Y1511D01*
X1Y1510D02*
X8Y1510D01*
X1597Y1510D02*
X1604Y1510D01*
X1Y1509D02*
X8Y1509D01*
X1597Y1509D02*
X1604Y1509D01*
X1Y1508D02*
X8Y1508D01*
X1597Y1508D02*
X1604Y1508D01*
X1Y1507D02*
X8Y1507D01*
X1597Y1507D02*
X1604Y1507D01*
X1Y1506D02*
X8Y1506D01*
X1597Y1506D02*
X1604Y1506D01*
X1Y1505D02*
X8Y1505D01*
X1597Y1505D02*
X1604Y1505D01*
X1Y1504D02*
X8Y1504D01*
X1597Y1504D02*
X1604Y1504D01*
X1Y1503D02*
X8Y1503D01*
X1597Y1503D02*
X1604Y1503D01*
X1Y1502D02*
X8Y1502D01*
X1597Y1502D02*
X1604Y1502D01*
X1Y1501D02*
X8Y1501D01*
X1597Y1501D02*
X1604Y1501D01*
X1Y1500D02*
X8Y1500D01*
X1597Y1500D02*
X1604Y1500D01*
X1Y1499D02*
X8Y1499D01*
X1597Y1499D02*
X1604Y1499D01*
X1Y1498D02*
X8Y1498D01*
X1597Y1498D02*
X1604Y1498D01*
X1Y1497D02*
X8Y1497D01*
X1597Y1497D02*
X1604Y1497D01*
X1Y1496D02*
X8Y1496D01*
X1597Y1496D02*
X1604Y1496D01*
X1Y1495D02*
X8Y1495D01*
X1597Y1495D02*
X1604Y1495D01*
X1Y1494D02*
X8Y1494D01*
X1597Y1494D02*
X1604Y1494D01*
X1Y1493D02*
X8Y1493D01*
X1597Y1493D02*
X1604Y1493D01*
X1Y1492D02*
X8Y1492D01*
X1597Y1492D02*
X1604Y1492D01*
X1Y1491D02*
X8Y1491D01*
X1597Y1491D02*
X1604Y1491D01*
X1Y1490D02*
X8Y1490D01*
X1597Y1490D02*
X1604Y1490D01*
X1Y1489D02*
X8Y1489D01*
X1597Y1489D02*
X1604Y1489D01*
X1Y1488D02*
X8Y1488D01*
X1597Y1488D02*
X1604Y1488D01*
X1Y1487D02*
X8Y1487D01*
X1597Y1487D02*
X1604Y1487D01*
X1Y1486D02*
X8Y1486D01*
X1597Y1486D02*
X1604Y1486D01*
X1Y1485D02*
X8Y1485D01*
X1597Y1485D02*
X1604Y1485D01*
X1Y1484D02*
X8Y1484D01*
X1597Y1484D02*
X1604Y1484D01*
X1Y1483D02*
X8Y1483D01*
X1597Y1483D02*
X1604Y1483D01*
X1Y1482D02*
X8Y1482D01*
X1597Y1482D02*
X1604Y1482D01*
X1Y1481D02*
X8Y1481D01*
X1597Y1481D02*
X1604Y1481D01*
X1Y1480D02*
X8Y1480D01*
X1597Y1480D02*
X1604Y1480D01*
X1Y1479D02*
X8Y1479D01*
X1597Y1479D02*
X1604Y1479D01*
X1Y1478D02*
X8Y1478D01*
X1597Y1478D02*
X1604Y1478D01*
X1Y1477D02*
X8Y1477D01*
X1597Y1477D02*
X1604Y1477D01*
X1Y1476D02*
X8Y1476D01*
X1597Y1476D02*
X1604Y1476D01*
X1Y1475D02*
X8Y1475D01*
X1597Y1475D02*
X1604Y1475D01*
X1Y1474D02*
X8Y1474D01*
X1597Y1474D02*
X1604Y1474D01*
X1Y1473D02*
X8Y1473D01*
X1597Y1473D02*
X1604Y1473D01*
X1Y1472D02*
X8Y1472D01*
X1597Y1472D02*
X1604Y1472D01*
X1Y1471D02*
X8Y1471D01*
X1597Y1471D02*
X1604Y1471D01*
X1Y1470D02*
X8Y1470D01*
X1597Y1470D02*
X1604Y1470D01*
X1Y1469D02*
X8Y1469D01*
X1597Y1469D02*
X1604Y1469D01*
X1Y1468D02*
X8Y1468D01*
X1597Y1468D02*
X1604Y1468D01*
X1Y1467D02*
X8Y1467D01*
X1597Y1467D02*
X1604Y1467D01*
X1Y1466D02*
X8Y1466D01*
X1597Y1466D02*
X1604Y1466D01*
X1Y1465D02*
X8Y1465D01*
X1597Y1465D02*
X1604Y1465D01*
X1Y1464D02*
X8Y1464D01*
X1597Y1464D02*
X1604Y1464D01*
X1Y1463D02*
X8Y1463D01*
X1597Y1463D02*
X1604Y1463D01*
X1Y1462D02*
X8Y1462D01*
X1597Y1462D02*
X1604Y1462D01*
X1Y1461D02*
X8Y1461D01*
X1597Y1461D02*
X1604Y1461D01*
X1Y1460D02*
X8Y1460D01*
X1597Y1460D02*
X1604Y1460D01*
X1Y1459D02*
X8Y1459D01*
X1597Y1459D02*
X1604Y1459D01*
X1Y1458D02*
X8Y1458D01*
X1597Y1458D02*
X1604Y1458D01*
X1Y1457D02*
X8Y1457D01*
X1597Y1457D02*
X1604Y1457D01*
X1Y1456D02*
X8Y1456D01*
X1597Y1456D02*
X1604Y1456D01*
X1Y1455D02*
X8Y1455D01*
X1597Y1455D02*
X1604Y1455D01*
X1Y1454D02*
X8Y1454D01*
X1597Y1454D02*
X1604Y1454D01*
X1Y1453D02*
X8Y1453D01*
X1597Y1453D02*
X1604Y1453D01*
X1Y1452D02*
X8Y1452D01*
X1597Y1452D02*
X1604Y1452D01*
X1Y1451D02*
X8Y1451D01*
X1597Y1451D02*
X1604Y1451D01*
X1Y1450D02*
X8Y1450D01*
X1597Y1450D02*
X1604Y1450D01*
X1Y1449D02*
X8Y1449D01*
X1597Y1449D02*
X1604Y1449D01*
X1Y1448D02*
X8Y1448D01*
X1597Y1448D02*
X1604Y1448D01*
X1Y1447D02*
X8Y1447D01*
X1597Y1447D02*
X1604Y1447D01*
X1Y1446D02*
X8Y1446D01*
X1597Y1446D02*
X1604Y1446D01*
X1Y1445D02*
X8Y1445D01*
X1597Y1445D02*
X1604Y1445D01*
X1Y1444D02*
X8Y1444D01*
X1597Y1444D02*
X1604Y1444D01*
X1Y1443D02*
X8Y1443D01*
X1597Y1443D02*
X1604Y1443D01*
X1Y1442D02*
X8Y1442D01*
X1597Y1442D02*
X1604Y1442D01*
X1Y1441D02*
X8Y1441D01*
X1597Y1441D02*
X1604Y1441D01*
X1Y1440D02*
X8Y1440D01*
X1597Y1440D02*
X1604Y1440D01*
X1Y1439D02*
X8Y1439D01*
X1597Y1439D02*
X1604Y1439D01*
X1Y1438D02*
X8Y1438D01*
X1597Y1438D02*
X1604Y1438D01*
X1Y1437D02*
X8Y1437D01*
X1597Y1437D02*
X1604Y1437D01*
X1Y1436D02*
X8Y1436D01*
X1597Y1436D02*
X1604Y1436D01*
X1Y1435D02*
X8Y1435D01*
X1597Y1435D02*
X1604Y1435D01*
X1Y1434D02*
X8Y1434D01*
X1597Y1434D02*
X1604Y1434D01*
X1Y1433D02*
X8Y1433D01*
X1597Y1433D02*
X1604Y1433D01*
X1Y1432D02*
X8Y1432D01*
X1597Y1432D02*
X1604Y1432D01*
X1Y1431D02*
X8Y1431D01*
X1597Y1431D02*
X1604Y1431D01*
X1Y1430D02*
X8Y1430D01*
X1597Y1430D02*
X1604Y1430D01*
X1Y1429D02*
X8Y1429D01*
X1597Y1429D02*
X1604Y1429D01*
X1Y1428D02*
X8Y1428D01*
X1597Y1428D02*
X1604Y1428D01*
X1Y1427D02*
X8Y1427D01*
X1597Y1427D02*
X1604Y1427D01*
X1Y1426D02*
X8Y1426D01*
X1597Y1426D02*
X1604Y1426D01*
X1Y1425D02*
X8Y1425D01*
X1597Y1425D02*
X1604Y1425D01*
X1Y1424D02*
X8Y1424D01*
X1597Y1424D02*
X1604Y1424D01*
X1Y1423D02*
X8Y1423D01*
X1597Y1423D02*
X1604Y1423D01*
X1Y1422D02*
X8Y1422D01*
X1597Y1422D02*
X1604Y1422D01*
X1Y1421D02*
X8Y1421D01*
X1597Y1421D02*
X1604Y1421D01*
X1Y1420D02*
X8Y1420D01*
X1597Y1420D02*
X1604Y1420D01*
X1Y1419D02*
X8Y1419D01*
X1597Y1419D02*
X1604Y1419D01*
X1Y1418D02*
X8Y1418D01*
X1597Y1418D02*
X1604Y1418D01*
X1Y1417D02*
X8Y1417D01*
X1597Y1417D02*
X1604Y1417D01*
X1Y1416D02*
X8Y1416D01*
X1597Y1416D02*
X1604Y1416D01*
X1Y1415D02*
X8Y1415D01*
X1597Y1415D02*
X1604Y1415D01*
X1Y1414D02*
X8Y1414D01*
X1597Y1414D02*
X1604Y1414D01*
X1Y1413D02*
X8Y1413D01*
X1597Y1413D02*
X1604Y1413D01*
X1Y1412D02*
X8Y1412D01*
X1597Y1412D02*
X1604Y1412D01*
X1Y1411D02*
X8Y1411D01*
X1597Y1411D02*
X1604Y1411D01*
X1Y1410D02*
X8Y1410D01*
X1597Y1410D02*
X1604Y1410D01*
X1Y1409D02*
X8Y1409D01*
X1597Y1409D02*
X1604Y1409D01*
X1Y1408D02*
X8Y1408D01*
X1597Y1408D02*
X1604Y1408D01*
X1Y1407D02*
X8Y1407D01*
X1597Y1407D02*
X1604Y1407D01*
X1Y1406D02*
X8Y1406D01*
X1597Y1406D02*
X1604Y1406D01*
X1Y1405D02*
X8Y1405D01*
X1597Y1405D02*
X1604Y1405D01*
X1Y1404D02*
X8Y1404D01*
X1597Y1404D02*
X1604Y1404D01*
X1Y1403D02*
X8Y1403D01*
X1597Y1403D02*
X1604Y1403D01*
X1Y1402D02*
X8Y1402D01*
X1597Y1402D02*
X1604Y1402D01*
X1Y1401D02*
X8Y1401D01*
X1597Y1401D02*
X1604Y1401D01*
X1Y1400D02*
X8Y1400D01*
X1597Y1400D02*
X1604Y1400D01*
X1Y1399D02*
X8Y1399D01*
X1597Y1399D02*
X1604Y1399D01*
X1Y1398D02*
X8Y1398D01*
X1597Y1398D02*
X1604Y1398D01*
X1Y1397D02*
X8Y1397D01*
X1597Y1397D02*
X1604Y1397D01*
X1Y1396D02*
X8Y1396D01*
X1597Y1396D02*
X1604Y1396D01*
X1Y1395D02*
X8Y1395D01*
X1597Y1395D02*
X1604Y1395D01*
X1Y1394D02*
X8Y1394D01*
X1597Y1394D02*
X1604Y1394D01*
X1Y1393D02*
X8Y1393D01*
X1597Y1393D02*
X1604Y1393D01*
X1Y1392D02*
X8Y1392D01*
X1597Y1392D02*
X1604Y1392D01*
X1Y1391D02*
X8Y1391D01*
X1597Y1391D02*
X1604Y1391D01*
X1Y1390D02*
X8Y1390D01*
X1597Y1390D02*
X1604Y1390D01*
X1Y1389D02*
X8Y1389D01*
X1597Y1389D02*
X1604Y1389D01*
X1Y1388D02*
X8Y1388D01*
X1597Y1388D02*
X1604Y1388D01*
X1Y1387D02*
X8Y1387D01*
X1597Y1387D02*
X1604Y1387D01*
X1Y1386D02*
X8Y1386D01*
X1597Y1386D02*
X1604Y1386D01*
X1Y1385D02*
X8Y1385D01*
X1597Y1385D02*
X1604Y1385D01*
X1Y1384D02*
X8Y1384D01*
X1597Y1384D02*
X1604Y1384D01*
X1Y1383D02*
X8Y1383D01*
X1597Y1383D02*
X1604Y1383D01*
X1Y1382D02*
X8Y1382D01*
X1597Y1382D02*
X1604Y1382D01*
X1Y1381D02*
X8Y1381D01*
X1597Y1381D02*
X1604Y1381D01*
X1Y1380D02*
X8Y1380D01*
X1597Y1380D02*
X1604Y1380D01*
X1Y1379D02*
X8Y1379D01*
X1597Y1379D02*
X1604Y1379D01*
X1Y1378D02*
X8Y1378D01*
X1597Y1378D02*
X1604Y1378D01*
X1Y1377D02*
X8Y1377D01*
X1597Y1377D02*
X1604Y1377D01*
X1Y1376D02*
X8Y1376D01*
X1597Y1376D02*
X1604Y1376D01*
X1Y1375D02*
X8Y1375D01*
X1597Y1375D02*
X1604Y1375D01*
X1Y1374D02*
X8Y1374D01*
X1597Y1374D02*
X1604Y1374D01*
X1Y1373D02*
X8Y1373D01*
X1597Y1373D02*
X1604Y1373D01*
X1Y1372D02*
X8Y1372D01*
X1597Y1372D02*
X1604Y1372D01*
X1Y1371D02*
X8Y1371D01*
X1597Y1371D02*
X1604Y1371D01*
X1Y1370D02*
X8Y1370D01*
X1597Y1370D02*
X1604Y1370D01*
X1Y1369D02*
X8Y1369D01*
X1597Y1369D02*
X1604Y1369D01*
X1Y1368D02*
X8Y1368D01*
X1597Y1368D02*
X1604Y1368D01*
X1Y1367D02*
X8Y1367D01*
X1597Y1367D02*
X1604Y1367D01*
X1Y1366D02*
X8Y1366D01*
X1597Y1366D02*
X1604Y1366D01*
X1Y1365D02*
X8Y1365D01*
X1597Y1365D02*
X1604Y1365D01*
X1Y1364D02*
X8Y1364D01*
X1597Y1364D02*
X1604Y1364D01*
X1Y1363D02*
X8Y1363D01*
X1597Y1363D02*
X1604Y1363D01*
X1Y1362D02*
X8Y1362D01*
X1597Y1362D02*
X1604Y1362D01*
X1Y1361D02*
X8Y1361D01*
X1597Y1361D02*
X1604Y1361D01*
X1Y1360D02*
X8Y1360D01*
X1597Y1360D02*
X1604Y1360D01*
X1Y1359D02*
X8Y1359D01*
X1597Y1359D02*
X1604Y1359D01*
X1Y1358D02*
X8Y1358D01*
X1597Y1358D02*
X1604Y1358D01*
X1Y1357D02*
X8Y1357D01*
X1597Y1357D02*
X1604Y1357D01*
X1Y1356D02*
X8Y1356D01*
X1597Y1356D02*
X1604Y1356D01*
X1Y1355D02*
X8Y1355D01*
X1597Y1355D02*
X1604Y1355D01*
X1Y1354D02*
X8Y1354D01*
X1597Y1354D02*
X1604Y1354D01*
X1Y1353D02*
X8Y1353D01*
X1597Y1353D02*
X1604Y1353D01*
X1Y1352D02*
X8Y1352D01*
X1597Y1352D02*
X1604Y1352D01*
X1Y1351D02*
X8Y1351D01*
X1597Y1351D02*
X1604Y1351D01*
X1Y1350D02*
X8Y1350D01*
X1597Y1350D02*
X1604Y1350D01*
X1Y1349D02*
X8Y1349D01*
X1597Y1349D02*
X1604Y1349D01*
X1Y1348D02*
X8Y1348D01*
X1597Y1348D02*
X1604Y1348D01*
X1Y1347D02*
X8Y1347D01*
X1597Y1347D02*
X1604Y1347D01*
X1Y1346D02*
X8Y1346D01*
X1597Y1346D02*
X1604Y1346D01*
X1Y1345D02*
X8Y1345D01*
X1597Y1345D02*
X1604Y1345D01*
X1Y1344D02*
X8Y1344D01*
X1597Y1344D02*
X1604Y1344D01*
X1Y1343D02*
X8Y1343D01*
X1597Y1343D02*
X1604Y1343D01*
X1Y1342D02*
X8Y1342D01*
X1597Y1342D02*
X1604Y1342D01*
X1Y1341D02*
X8Y1341D01*
X1597Y1341D02*
X1604Y1341D01*
X1Y1340D02*
X8Y1340D01*
X1597Y1340D02*
X1604Y1340D01*
X1Y1339D02*
X8Y1339D01*
X1597Y1339D02*
X1604Y1339D01*
X1Y1338D02*
X8Y1338D01*
X1597Y1338D02*
X1604Y1338D01*
X1Y1337D02*
X8Y1337D01*
X1597Y1337D02*
X1604Y1337D01*
X1Y1336D02*
X8Y1336D01*
X1597Y1336D02*
X1604Y1336D01*
X1Y1335D02*
X8Y1335D01*
X1597Y1335D02*
X1604Y1335D01*
X1Y1334D02*
X8Y1334D01*
X1597Y1334D02*
X1604Y1334D01*
X1Y1333D02*
X8Y1333D01*
X1597Y1333D02*
X1604Y1333D01*
X1Y1332D02*
X8Y1332D01*
X1597Y1332D02*
X1604Y1332D01*
X1Y1331D02*
X8Y1331D01*
X1597Y1331D02*
X1604Y1331D01*
X1Y1330D02*
X8Y1330D01*
X1597Y1330D02*
X1604Y1330D01*
X1Y1329D02*
X8Y1329D01*
X1597Y1329D02*
X1604Y1329D01*
X1Y1328D02*
X8Y1328D01*
X1597Y1328D02*
X1604Y1328D01*
X1Y1327D02*
X8Y1327D01*
X1597Y1327D02*
X1604Y1327D01*
X1Y1326D02*
X8Y1326D01*
X1597Y1326D02*
X1604Y1326D01*
X1Y1325D02*
X8Y1325D01*
X1597Y1325D02*
X1604Y1325D01*
X1Y1324D02*
X8Y1324D01*
X1597Y1324D02*
X1604Y1324D01*
X1Y1323D02*
X8Y1323D01*
X1597Y1323D02*
X1604Y1323D01*
X1Y1322D02*
X8Y1322D01*
X1597Y1322D02*
X1604Y1322D01*
X1Y1321D02*
X8Y1321D01*
X1597Y1321D02*
X1604Y1321D01*
X1Y1320D02*
X8Y1320D01*
X1597Y1320D02*
X1604Y1320D01*
X1Y1319D02*
X8Y1319D01*
X1597Y1319D02*
X1604Y1319D01*
X1Y1318D02*
X8Y1318D01*
X1597Y1318D02*
X1604Y1318D01*
X1Y1317D02*
X8Y1317D01*
X1597Y1317D02*
X1604Y1317D01*
X1Y1316D02*
X8Y1316D01*
X1597Y1316D02*
X1604Y1316D01*
X1Y1315D02*
X8Y1315D01*
X1597Y1315D02*
X1604Y1315D01*
X1Y1314D02*
X8Y1314D01*
X1597Y1314D02*
X1604Y1314D01*
X1Y1313D02*
X8Y1313D01*
X1597Y1313D02*
X1604Y1313D01*
X1Y1312D02*
X8Y1312D01*
X1597Y1312D02*
X1604Y1312D01*
X1Y1311D02*
X8Y1311D01*
X1597Y1311D02*
X1604Y1311D01*
X1Y1310D02*
X8Y1310D01*
X1597Y1310D02*
X1604Y1310D01*
X1Y1309D02*
X8Y1309D01*
X1597Y1309D02*
X1604Y1309D01*
X1Y1308D02*
X8Y1308D01*
X1597Y1308D02*
X1604Y1308D01*
X1Y1307D02*
X8Y1307D01*
X1597Y1307D02*
X1604Y1307D01*
X1Y1306D02*
X8Y1306D01*
X1597Y1306D02*
X1604Y1306D01*
X1Y1305D02*
X8Y1305D01*
X1597Y1305D02*
X1604Y1305D01*
X1Y1304D02*
X8Y1304D01*
X1597Y1304D02*
X1604Y1304D01*
X1Y1303D02*
X8Y1303D01*
X1597Y1303D02*
X1604Y1303D01*
X1Y1302D02*
X8Y1302D01*
X1597Y1302D02*
X1604Y1302D01*
X1Y1301D02*
X8Y1301D01*
X1597Y1301D02*
X1604Y1301D01*
X1Y1300D02*
X8Y1300D01*
X1597Y1300D02*
X1604Y1300D01*
X1Y1299D02*
X8Y1299D01*
X1597Y1299D02*
X1604Y1299D01*
X1Y1298D02*
X8Y1298D01*
X1597Y1298D02*
X1604Y1298D01*
X1Y1297D02*
X8Y1297D01*
X1597Y1297D02*
X1604Y1297D01*
X1Y1296D02*
X8Y1296D01*
X1597Y1296D02*
X1604Y1296D01*
X1Y1295D02*
X8Y1295D01*
X1597Y1295D02*
X1604Y1295D01*
X1Y1294D02*
X8Y1294D01*
X1597Y1294D02*
X1604Y1294D01*
X1Y1293D02*
X8Y1293D01*
X1597Y1293D02*
X1604Y1293D01*
X1Y1292D02*
X8Y1292D01*
X1597Y1292D02*
X1604Y1292D01*
X1Y1291D02*
X8Y1291D01*
X1597Y1291D02*
X1604Y1291D01*
X1Y1290D02*
X8Y1290D01*
X1597Y1290D02*
X1604Y1290D01*
X1Y1289D02*
X8Y1289D01*
X1597Y1289D02*
X1604Y1289D01*
X1Y1288D02*
X8Y1288D01*
X1597Y1288D02*
X1604Y1288D01*
X1Y1287D02*
X8Y1287D01*
X1597Y1287D02*
X1604Y1287D01*
X1Y1286D02*
X8Y1286D01*
X1597Y1286D02*
X1604Y1286D01*
X1Y1285D02*
X8Y1285D01*
X1597Y1285D02*
X1604Y1285D01*
X1Y1284D02*
X8Y1284D01*
X1597Y1284D02*
X1604Y1284D01*
X1Y1283D02*
X8Y1283D01*
X1597Y1283D02*
X1604Y1283D01*
X1Y1282D02*
X8Y1282D01*
X1597Y1282D02*
X1604Y1282D01*
X1Y1281D02*
X8Y1281D01*
X1597Y1281D02*
X1604Y1281D01*
X1Y1280D02*
X8Y1280D01*
X1597Y1280D02*
X1604Y1280D01*
X1Y1279D02*
X8Y1279D01*
X1597Y1279D02*
X1604Y1279D01*
X1Y1278D02*
X8Y1278D01*
X1597Y1278D02*
X1604Y1278D01*
X1Y1277D02*
X8Y1277D01*
X1597Y1277D02*
X1604Y1277D01*
X1Y1276D02*
X8Y1276D01*
X1597Y1276D02*
X1604Y1276D01*
X1Y1275D02*
X8Y1275D01*
X1597Y1275D02*
X1604Y1275D01*
X1Y1274D02*
X8Y1274D01*
X1597Y1274D02*
X1604Y1274D01*
X1Y1273D02*
X8Y1273D01*
X1597Y1273D02*
X1604Y1273D01*
X1Y1272D02*
X8Y1272D01*
X1597Y1272D02*
X1604Y1272D01*
X1Y1271D02*
X8Y1271D01*
X1597Y1271D02*
X1604Y1271D01*
X1Y1270D02*
X8Y1270D01*
X1597Y1270D02*
X1604Y1270D01*
X1Y1269D02*
X8Y1269D01*
X1597Y1269D02*
X1604Y1269D01*
X1Y1268D02*
X8Y1268D01*
X1597Y1268D02*
X1604Y1268D01*
X1Y1267D02*
X8Y1267D01*
X1597Y1267D02*
X1604Y1267D01*
X1Y1266D02*
X8Y1266D01*
X1597Y1266D02*
X1604Y1266D01*
X1Y1265D02*
X8Y1265D01*
X1597Y1265D02*
X1604Y1265D01*
X1Y1264D02*
X8Y1264D01*
X1597Y1264D02*
X1604Y1264D01*
X1Y1263D02*
X8Y1263D01*
X1597Y1263D02*
X1604Y1263D01*
X1Y1262D02*
X8Y1262D01*
X1597Y1262D02*
X1604Y1262D01*
X1Y1261D02*
X8Y1261D01*
X1597Y1261D02*
X1604Y1261D01*
X1Y1260D02*
X8Y1260D01*
X1597Y1260D02*
X1604Y1260D01*
X1Y1259D02*
X8Y1259D01*
X1597Y1259D02*
X1604Y1259D01*
X1Y1258D02*
X8Y1258D01*
X1597Y1258D02*
X1604Y1258D01*
X1Y1257D02*
X8Y1257D01*
X1597Y1257D02*
X1604Y1257D01*
X1Y1256D02*
X8Y1256D01*
X1597Y1256D02*
X1604Y1256D01*
X1Y1255D02*
X8Y1255D01*
X1597Y1255D02*
X1604Y1255D01*
X1Y1254D02*
X8Y1254D01*
X1597Y1254D02*
X1604Y1254D01*
X1Y1253D02*
X8Y1253D01*
X1597Y1253D02*
X1604Y1253D01*
X1Y1252D02*
X8Y1252D01*
X1597Y1252D02*
X1604Y1252D01*
X1Y1251D02*
X8Y1251D01*
X1597Y1251D02*
X1604Y1251D01*
X1Y1250D02*
X8Y1250D01*
X1597Y1250D02*
X1604Y1250D01*
X1Y1249D02*
X8Y1249D01*
X1597Y1249D02*
X1604Y1249D01*
X1Y1248D02*
X8Y1248D01*
X1597Y1248D02*
X1604Y1248D01*
X1Y1247D02*
X8Y1247D01*
X1597Y1247D02*
X1604Y1247D01*
X1Y1246D02*
X8Y1246D01*
X1597Y1246D02*
X1604Y1246D01*
X1Y1245D02*
X8Y1245D01*
X1597Y1245D02*
X1604Y1245D01*
X1Y1244D02*
X8Y1244D01*
X1597Y1244D02*
X1604Y1244D01*
X1Y1243D02*
X8Y1243D01*
X1597Y1243D02*
X1604Y1243D01*
X1Y1242D02*
X8Y1242D01*
X1597Y1242D02*
X1604Y1242D01*
X1Y1241D02*
X8Y1241D01*
X1597Y1241D02*
X1604Y1241D01*
X1Y1240D02*
X8Y1240D01*
X1597Y1240D02*
X1604Y1240D01*
X1Y1239D02*
X8Y1239D01*
X1597Y1239D02*
X1604Y1239D01*
X1Y1238D02*
X8Y1238D01*
X1597Y1238D02*
X1604Y1238D01*
X1Y1237D02*
X8Y1237D01*
X1597Y1237D02*
X1604Y1237D01*
X1Y1236D02*
X8Y1236D01*
X1597Y1236D02*
X1604Y1236D01*
X1Y1235D02*
X8Y1235D01*
X1597Y1235D02*
X1604Y1235D01*
X1Y1234D02*
X8Y1234D01*
X1597Y1234D02*
X1604Y1234D01*
X1Y1233D02*
X8Y1233D01*
X1597Y1233D02*
X1604Y1233D01*
X1Y1232D02*
X8Y1232D01*
X1597Y1232D02*
X1604Y1232D01*
X1Y1231D02*
X8Y1231D01*
X1597Y1231D02*
X1604Y1231D01*
X1Y1230D02*
X8Y1230D01*
X1597Y1230D02*
X1604Y1230D01*
X1Y1229D02*
X8Y1229D01*
X1597Y1229D02*
X1604Y1229D01*
X1Y1228D02*
X8Y1228D01*
X1597Y1228D02*
X1604Y1228D01*
X1Y1227D02*
X8Y1227D01*
X1597Y1227D02*
X1604Y1227D01*
X1Y1226D02*
X8Y1226D01*
X1597Y1226D02*
X1604Y1226D01*
X1Y1225D02*
X8Y1225D01*
X1597Y1225D02*
X1604Y1225D01*
X1Y1224D02*
X8Y1224D01*
X1597Y1224D02*
X1604Y1224D01*
X1Y1223D02*
X8Y1223D01*
X1597Y1223D02*
X1604Y1223D01*
X1Y1222D02*
X8Y1222D01*
X1597Y1222D02*
X1604Y1222D01*
X1Y1221D02*
X8Y1221D01*
X1597Y1221D02*
X1604Y1221D01*
X1Y1220D02*
X8Y1220D01*
X1597Y1220D02*
X1604Y1220D01*
X1Y1219D02*
X8Y1219D01*
X1597Y1219D02*
X1604Y1219D01*
X1Y1218D02*
X8Y1218D01*
X1597Y1218D02*
X1604Y1218D01*
X1Y1217D02*
X8Y1217D01*
X1597Y1217D02*
X1604Y1217D01*
X1Y1216D02*
X8Y1216D01*
X1597Y1216D02*
X1604Y1216D01*
X1Y1215D02*
X8Y1215D01*
X1597Y1215D02*
X1604Y1215D01*
X1Y1214D02*
X8Y1214D01*
X1597Y1214D02*
X1604Y1214D01*
X1Y1213D02*
X8Y1213D01*
X1597Y1213D02*
X1604Y1213D01*
X1Y1212D02*
X8Y1212D01*
X1597Y1212D02*
X1604Y1212D01*
X1Y1211D02*
X8Y1211D01*
X1597Y1211D02*
X1604Y1211D01*
X1Y1210D02*
X8Y1210D01*
X1597Y1210D02*
X1604Y1210D01*
X1Y1209D02*
X8Y1209D01*
X1597Y1209D02*
X1604Y1209D01*
X1Y1208D02*
X8Y1208D01*
X1597Y1208D02*
X1604Y1208D01*
X1Y1207D02*
X8Y1207D01*
X1597Y1207D02*
X1604Y1207D01*
X1Y1206D02*
X8Y1206D01*
X1597Y1206D02*
X1604Y1206D01*
X1Y1205D02*
X8Y1205D01*
X1597Y1205D02*
X1604Y1205D01*
X1Y1204D02*
X8Y1204D01*
X1597Y1204D02*
X1604Y1204D01*
X1Y1203D02*
X8Y1203D01*
X1597Y1203D02*
X1604Y1203D01*
X1Y1202D02*
X8Y1202D01*
X1597Y1202D02*
X1604Y1202D01*
X1Y1201D02*
X8Y1201D01*
X1597Y1201D02*
X1604Y1201D01*
X1Y1200D02*
X8Y1200D01*
X1597Y1200D02*
X1604Y1200D01*
X1Y1199D02*
X8Y1199D01*
X1597Y1199D02*
X1604Y1199D01*
X1Y1198D02*
X8Y1198D01*
X1597Y1198D02*
X1604Y1198D01*
X1Y1197D02*
X8Y1197D01*
X1597Y1197D02*
X1604Y1197D01*
X1Y1196D02*
X8Y1196D01*
X1597Y1196D02*
X1604Y1196D01*
X1Y1195D02*
X8Y1195D01*
X1597Y1195D02*
X1604Y1195D01*
X1Y1194D02*
X8Y1194D01*
X1597Y1194D02*
X1604Y1194D01*
X1Y1193D02*
X8Y1193D01*
X1597Y1193D02*
X1604Y1193D01*
X1Y1192D02*
X8Y1192D01*
X1597Y1192D02*
X1604Y1192D01*
X1Y1191D02*
X8Y1191D01*
X1597Y1191D02*
X1604Y1191D01*
X1Y1190D02*
X8Y1190D01*
X1597Y1190D02*
X1604Y1190D01*
X1Y1189D02*
X8Y1189D01*
X1597Y1189D02*
X1604Y1189D01*
X1Y1188D02*
X8Y1188D01*
X1597Y1188D02*
X1604Y1188D01*
X1Y1187D02*
X8Y1187D01*
X1597Y1187D02*
X1604Y1187D01*
X1Y1186D02*
X8Y1186D01*
X1597Y1186D02*
X1604Y1186D01*
X1Y1185D02*
X8Y1185D01*
X1597Y1185D02*
X1604Y1185D01*
X1Y1184D02*
X8Y1184D01*
X1597Y1184D02*
X1604Y1184D01*
X1Y1183D02*
X8Y1183D01*
X1597Y1183D02*
X1604Y1183D01*
X1Y1182D02*
X8Y1182D01*
X1597Y1182D02*
X1604Y1182D01*
X1Y1181D02*
X8Y1181D01*
X1597Y1181D02*
X1604Y1181D01*
X1Y1180D02*
X8Y1180D01*
X1597Y1180D02*
X1604Y1180D01*
X1Y1179D02*
X8Y1179D01*
X1597Y1179D02*
X1604Y1179D01*
X1Y1178D02*
X8Y1178D01*
X1597Y1178D02*
X1604Y1178D01*
X1Y1177D02*
X8Y1177D01*
X1597Y1177D02*
X1604Y1177D01*
X1Y1176D02*
X8Y1176D01*
X1597Y1176D02*
X1604Y1176D01*
X1Y1175D02*
X8Y1175D01*
X1597Y1175D02*
X1604Y1175D01*
X1Y1174D02*
X8Y1174D01*
X1597Y1174D02*
X1604Y1174D01*
X1Y1173D02*
X8Y1173D01*
X1597Y1173D02*
X1604Y1173D01*
X1Y1172D02*
X8Y1172D01*
X1597Y1172D02*
X1604Y1172D01*
X1Y1171D02*
X8Y1171D01*
X1597Y1171D02*
X1604Y1171D01*
X1Y1170D02*
X8Y1170D01*
X1597Y1170D02*
X1604Y1170D01*
X1Y1169D02*
X8Y1169D01*
X1597Y1169D02*
X1604Y1169D01*
X1Y1168D02*
X8Y1168D01*
X1597Y1168D02*
X1604Y1168D01*
X1Y1167D02*
X8Y1167D01*
X1597Y1167D02*
X1604Y1167D01*
X1Y1166D02*
X8Y1166D01*
X1597Y1166D02*
X1604Y1166D01*
X1Y1165D02*
X8Y1165D01*
X1597Y1165D02*
X1604Y1165D01*
X1Y1164D02*
X8Y1164D01*
X1597Y1164D02*
X1604Y1164D01*
X1Y1163D02*
X8Y1163D01*
X1597Y1163D02*
X1604Y1163D01*
X1Y1162D02*
X8Y1162D01*
X1597Y1162D02*
X1604Y1162D01*
X1Y1161D02*
X8Y1161D01*
X1597Y1161D02*
X1604Y1161D01*
X1Y1160D02*
X8Y1160D01*
X1597Y1160D02*
X1604Y1160D01*
X1Y1159D02*
X8Y1159D01*
X1597Y1159D02*
X1604Y1159D01*
X1Y1158D02*
X8Y1158D01*
X1597Y1158D02*
X1604Y1158D01*
X1Y1157D02*
X8Y1157D01*
X1597Y1157D02*
X1604Y1157D01*
X1Y1156D02*
X8Y1156D01*
X1597Y1156D02*
X1604Y1156D01*
X1Y1155D02*
X8Y1155D01*
X1597Y1155D02*
X1604Y1155D01*
X1Y1154D02*
X8Y1154D01*
X1597Y1154D02*
X1604Y1154D01*
X1Y1153D02*
X8Y1153D01*
X1597Y1153D02*
X1604Y1153D01*
X1Y1152D02*
X8Y1152D01*
X1597Y1152D02*
X1604Y1152D01*
X1Y1151D02*
X8Y1151D01*
X1597Y1151D02*
X1604Y1151D01*
X1Y1150D02*
X8Y1150D01*
X1597Y1150D02*
X1604Y1150D01*
X1Y1149D02*
X8Y1149D01*
X1597Y1149D02*
X1604Y1149D01*
X1Y1148D02*
X8Y1148D01*
X1597Y1148D02*
X1604Y1148D01*
X1Y1147D02*
X8Y1147D01*
X1597Y1147D02*
X1604Y1147D01*
X1Y1146D02*
X8Y1146D01*
X1597Y1146D02*
X1604Y1146D01*
X1Y1145D02*
X8Y1145D01*
X1597Y1145D02*
X1604Y1145D01*
X1Y1144D02*
X8Y1144D01*
X1597Y1144D02*
X1604Y1144D01*
X1Y1143D02*
X8Y1143D01*
X1597Y1143D02*
X1604Y1143D01*
X1Y1142D02*
X8Y1142D01*
X1597Y1142D02*
X1604Y1142D01*
X1Y1141D02*
X8Y1141D01*
X1597Y1141D02*
X1604Y1141D01*
X1Y1140D02*
X8Y1140D01*
X1597Y1140D02*
X1604Y1140D01*
X1Y1139D02*
X8Y1139D01*
X1597Y1139D02*
X1604Y1139D01*
X1Y1138D02*
X8Y1138D01*
X1597Y1138D02*
X1604Y1138D01*
X1Y1137D02*
X8Y1137D01*
X1597Y1137D02*
X1604Y1137D01*
X1Y1136D02*
X8Y1136D01*
X1597Y1136D02*
X1604Y1136D01*
X1Y1135D02*
X8Y1135D01*
X1597Y1135D02*
X1604Y1135D01*
X1Y1134D02*
X8Y1134D01*
X1597Y1134D02*
X1604Y1134D01*
X1Y1133D02*
X8Y1133D01*
X1597Y1133D02*
X1604Y1133D01*
X1Y1132D02*
X8Y1132D01*
X1597Y1132D02*
X1604Y1132D01*
X1Y1131D02*
X8Y1131D01*
X1597Y1131D02*
X1604Y1131D01*
X1Y1130D02*
X8Y1130D01*
X1597Y1130D02*
X1604Y1130D01*
X1Y1129D02*
X8Y1129D01*
X1597Y1129D02*
X1604Y1129D01*
X1Y1128D02*
X8Y1128D01*
X1597Y1128D02*
X1604Y1128D01*
X1Y1127D02*
X8Y1127D01*
X1597Y1127D02*
X1604Y1127D01*
X1Y1126D02*
X8Y1126D01*
X1597Y1126D02*
X1604Y1126D01*
X1Y1125D02*
X8Y1125D01*
X1597Y1125D02*
X1604Y1125D01*
X1Y1124D02*
X8Y1124D01*
X1597Y1124D02*
X1604Y1124D01*
X1Y1123D02*
X8Y1123D01*
X1597Y1123D02*
X1604Y1123D01*
X1Y1122D02*
X8Y1122D01*
X1597Y1122D02*
X1604Y1122D01*
X1Y1121D02*
X8Y1121D01*
X1597Y1121D02*
X1604Y1121D01*
X1Y1120D02*
X8Y1120D01*
X1597Y1120D02*
X1604Y1120D01*
X1Y1119D02*
X8Y1119D01*
X1597Y1119D02*
X1604Y1119D01*
X1Y1118D02*
X8Y1118D01*
X1597Y1118D02*
X1604Y1118D01*
X1Y1117D02*
X8Y1117D01*
X1597Y1117D02*
X1604Y1117D01*
X1Y1116D02*
X8Y1116D01*
X1597Y1116D02*
X1604Y1116D01*
X1Y1115D02*
X8Y1115D01*
X1597Y1115D02*
X1604Y1115D01*
X1Y1114D02*
X8Y1114D01*
X1597Y1114D02*
X1604Y1114D01*
X1Y1113D02*
X8Y1113D01*
X1597Y1113D02*
X1604Y1113D01*
X1Y1112D02*
X8Y1112D01*
X1597Y1112D02*
X1604Y1112D01*
X1Y1111D02*
X8Y1111D01*
X1597Y1111D02*
X1604Y1111D01*
X1Y1110D02*
X8Y1110D01*
X1597Y1110D02*
X1604Y1110D01*
X1Y1109D02*
X8Y1109D01*
X1597Y1109D02*
X1604Y1109D01*
X1Y1108D02*
X8Y1108D01*
X1597Y1108D02*
X1604Y1108D01*
X1Y1107D02*
X8Y1107D01*
X1597Y1107D02*
X1604Y1107D01*
X1Y1106D02*
X8Y1106D01*
X1597Y1106D02*
X1604Y1106D01*
X1Y1105D02*
X8Y1105D01*
X1597Y1105D02*
X1604Y1105D01*
X1Y1104D02*
X8Y1104D01*
X1597Y1104D02*
X1604Y1104D01*
X1Y1103D02*
X8Y1103D01*
X1597Y1103D02*
X1604Y1103D01*
X1Y1102D02*
X8Y1102D01*
X1597Y1102D02*
X1604Y1102D01*
X1Y1101D02*
X8Y1101D01*
X1597Y1101D02*
X1604Y1101D01*
X1Y1100D02*
X8Y1100D01*
X1597Y1100D02*
X1604Y1100D01*
X1Y1099D02*
X8Y1099D01*
X1597Y1099D02*
X1604Y1099D01*
X1Y1098D02*
X8Y1098D01*
X1597Y1098D02*
X1604Y1098D01*
X1Y1097D02*
X8Y1097D01*
X1597Y1097D02*
X1604Y1097D01*
X1Y1096D02*
X8Y1096D01*
X1597Y1096D02*
X1604Y1096D01*
X1Y1095D02*
X8Y1095D01*
X1597Y1095D02*
X1604Y1095D01*
X1Y1094D02*
X8Y1094D01*
X1597Y1094D02*
X1604Y1094D01*
X1Y1093D02*
X8Y1093D01*
X1597Y1093D02*
X1604Y1093D01*
X1Y1092D02*
X8Y1092D01*
X1597Y1092D02*
X1604Y1092D01*
X1Y1091D02*
X8Y1091D01*
X1597Y1091D02*
X1604Y1091D01*
X1Y1090D02*
X8Y1090D01*
X1597Y1090D02*
X1604Y1090D01*
X1Y1089D02*
X8Y1089D01*
X1597Y1089D02*
X1604Y1089D01*
X1Y1088D02*
X8Y1088D01*
X1597Y1088D02*
X1604Y1088D01*
X1Y1087D02*
X8Y1087D01*
X1597Y1087D02*
X1604Y1087D01*
X1Y1086D02*
X8Y1086D01*
X1597Y1086D02*
X1604Y1086D01*
X1Y1085D02*
X8Y1085D01*
X1597Y1085D02*
X1604Y1085D01*
X1Y1084D02*
X8Y1084D01*
X1597Y1084D02*
X1604Y1084D01*
X1Y1083D02*
X8Y1083D01*
X1597Y1083D02*
X1604Y1083D01*
X1Y1082D02*
X8Y1082D01*
X1597Y1082D02*
X1604Y1082D01*
X1Y1081D02*
X8Y1081D01*
X1597Y1081D02*
X1604Y1081D01*
X1Y1080D02*
X8Y1080D01*
X1597Y1080D02*
X1604Y1080D01*
X1Y1079D02*
X8Y1079D01*
X1597Y1079D02*
X1604Y1079D01*
X1Y1078D02*
X8Y1078D01*
X1597Y1078D02*
X1604Y1078D01*
X1Y1077D02*
X8Y1077D01*
X1597Y1077D02*
X1604Y1077D01*
X1Y1076D02*
X8Y1076D01*
X1597Y1076D02*
X1604Y1076D01*
X1Y1075D02*
X8Y1075D01*
X1597Y1075D02*
X1604Y1075D01*
X1Y1074D02*
X8Y1074D01*
X1597Y1074D02*
X1604Y1074D01*
X1Y1073D02*
X8Y1073D01*
X1597Y1073D02*
X1604Y1073D01*
X1Y1072D02*
X8Y1072D01*
X1597Y1072D02*
X1604Y1072D01*
X1Y1071D02*
X8Y1071D01*
X1597Y1071D02*
X1604Y1071D01*
X1Y1070D02*
X8Y1070D01*
X1597Y1070D02*
X1604Y1070D01*
X1Y1069D02*
X8Y1069D01*
X1597Y1069D02*
X1604Y1069D01*
X1Y1068D02*
X8Y1068D01*
X1597Y1068D02*
X1604Y1068D01*
X1Y1067D02*
X8Y1067D01*
X1597Y1067D02*
X1604Y1067D01*
X1Y1066D02*
X8Y1066D01*
X1597Y1066D02*
X1604Y1066D01*
X1Y1065D02*
X8Y1065D01*
X1597Y1065D02*
X1604Y1065D01*
X1Y1064D02*
X8Y1064D01*
X1597Y1064D02*
X1604Y1064D01*
X1Y1063D02*
X8Y1063D01*
X1597Y1063D02*
X1604Y1063D01*
X1Y1062D02*
X8Y1062D01*
X1597Y1062D02*
X1604Y1062D01*
X1Y1061D02*
X8Y1061D01*
X1597Y1061D02*
X1604Y1061D01*
X1Y1060D02*
X8Y1060D01*
X1597Y1060D02*
X1604Y1060D01*
X1Y1059D02*
X8Y1059D01*
X1597Y1059D02*
X1604Y1059D01*
X1Y1058D02*
X8Y1058D01*
X1597Y1058D02*
X1604Y1058D01*
X1Y1057D02*
X8Y1057D01*
X1597Y1057D02*
X1604Y1057D01*
X1Y1056D02*
X8Y1056D01*
X1597Y1056D02*
X1604Y1056D01*
X1Y1055D02*
X8Y1055D01*
X1597Y1055D02*
X1604Y1055D01*
X1Y1054D02*
X8Y1054D01*
X1597Y1054D02*
X1604Y1054D01*
X1Y1053D02*
X8Y1053D01*
X1597Y1053D02*
X1604Y1053D01*
X1Y1052D02*
X8Y1052D01*
X1597Y1052D02*
X1604Y1052D01*
X1Y1051D02*
X8Y1051D01*
X1597Y1051D02*
X1604Y1051D01*
X1Y1050D02*
X8Y1050D01*
X1597Y1050D02*
X1604Y1050D01*
X1Y1049D02*
X8Y1049D01*
X1597Y1049D02*
X1604Y1049D01*
X1Y1048D02*
X8Y1048D01*
X1597Y1048D02*
X1604Y1048D01*
X1Y1047D02*
X8Y1047D01*
X1597Y1047D02*
X1604Y1047D01*
X1Y1046D02*
X8Y1046D01*
X1597Y1046D02*
X1604Y1046D01*
X1Y1045D02*
X8Y1045D01*
X1597Y1045D02*
X1604Y1045D01*
X1Y1044D02*
X8Y1044D01*
X1597Y1044D02*
X1604Y1044D01*
X1Y1043D02*
X8Y1043D01*
X1597Y1043D02*
X1604Y1043D01*
X1Y1042D02*
X8Y1042D01*
X1597Y1042D02*
X1604Y1042D01*
X1Y1041D02*
X8Y1041D01*
X1597Y1041D02*
X1604Y1041D01*
X1Y1040D02*
X8Y1040D01*
X1597Y1040D02*
X1604Y1040D01*
X1Y1039D02*
X8Y1039D01*
X1597Y1039D02*
X1604Y1039D01*
X1Y1038D02*
X8Y1038D01*
X1597Y1038D02*
X1604Y1038D01*
X1Y1037D02*
X8Y1037D01*
X1597Y1037D02*
X1604Y1037D01*
X1Y1036D02*
X8Y1036D01*
X1597Y1036D02*
X1604Y1036D01*
X1Y1035D02*
X8Y1035D01*
X1597Y1035D02*
X1604Y1035D01*
X1Y1034D02*
X8Y1034D01*
X1597Y1034D02*
X1604Y1034D01*
X1Y1033D02*
X8Y1033D01*
X1597Y1033D02*
X1604Y1033D01*
X1Y1032D02*
X8Y1032D01*
X1597Y1032D02*
X1604Y1032D01*
X1Y1031D02*
X8Y1031D01*
X1597Y1031D02*
X1604Y1031D01*
X1Y1030D02*
X8Y1030D01*
X1597Y1030D02*
X1604Y1030D01*
X1Y1029D02*
X8Y1029D01*
X1597Y1029D02*
X1604Y1029D01*
X1Y1028D02*
X8Y1028D01*
X1597Y1028D02*
X1604Y1028D01*
X1Y1027D02*
X8Y1027D01*
X1597Y1027D02*
X1604Y1027D01*
X1Y1026D02*
X8Y1026D01*
X1597Y1026D02*
X1604Y1026D01*
X1Y1025D02*
X8Y1025D01*
X1597Y1025D02*
X1604Y1025D01*
X1Y1024D02*
X8Y1024D01*
X1597Y1024D02*
X1604Y1024D01*
X1Y1023D02*
X8Y1023D01*
X1597Y1023D02*
X1604Y1023D01*
X1Y1022D02*
X8Y1022D01*
X1597Y1022D02*
X1604Y1022D01*
X1Y1021D02*
X8Y1021D01*
X1597Y1021D02*
X1604Y1021D01*
X1Y1020D02*
X8Y1020D01*
X1597Y1020D02*
X1604Y1020D01*
X1Y1019D02*
X8Y1019D01*
X1597Y1019D02*
X1604Y1019D01*
X1Y1018D02*
X8Y1018D01*
X1597Y1018D02*
X1604Y1018D01*
X1Y1017D02*
X8Y1017D01*
X1597Y1017D02*
X1604Y1017D01*
X1Y1016D02*
X8Y1016D01*
X1597Y1016D02*
X1604Y1016D01*
X1Y1015D02*
X8Y1015D01*
X1597Y1015D02*
X1604Y1015D01*
X1Y1014D02*
X8Y1014D01*
X1597Y1014D02*
X1604Y1014D01*
X1Y1013D02*
X8Y1013D01*
X1597Y1013D02*
X1604Y1013D01*
X1Y1012D02*
X8Y1012D01*
X1597Y1012D02*
X1604Y1012D01*
X1Y1011D02*
X8Y1011D01*
X1597Y1011D02*
X1604Y1011D01*
X1Y1010D02*
X8Y1010D01*
X1597Y1010D02*
X1604Y1010D01*
X1Y1009D02*
X8Y1009D01*
X1597Y1009D02*
X1604Y1009D01*
X1Y1008D02*
X8Y1008D01*
X1597Y1008D02*
X1604Y1008D01*
X1Y1007D02*
X8Y1007D01*
X1597Y1007D02*
X1604Y1007D01*
X1Y1006D02*
X8Y1006D01*
X1597Y1006D02*
X1604Y1006D01*
X1Y1005D02*
X8Y1005D01*
X1597Y1005D02*
X1604Y1005D01*
X1Y1004D02*
X8Y1004D01*
X1597Y1004D02*
X1604Y1004D01*
X1Y1003D02*
X8Y1003D01*
X1597Y1003D02*
X1604Y1003D01*
X1Y1002D02*
X8Y1002D01*
X1597Y1002D02*
X1604Y1002D01*
X1Y1001D02*
X8Y1001D01*
X1597Y1001D02*
X1604Y1001D01*
X1Y1000D02*
X8Y1000D01*
X1597Y1000D02*
X1604Y1000D01*
X1Y999D02*
X8Y999D01*
X1597Y999D02*
X1604Y999D01*
X1Y998D02*
X8Y998D01*
X1597Y998D02*
X1604Y998D01*
X1Y997D02*
X8Y997D01*
X1597Y997D02*
X1604Y997D01*
X1Y996D02*
X8Y996D01*
X1597Y996D02*
X1604Y996D01*
X1Y995D02*
X8Y995D01*
X1597Y995D02*
X1604Y995D01*
X1Y994D02*
X8Y994D01*
X1597Y994D02*
X1604Y994D01*
X1Y993D02*
X8Y993D01*
X1597Y993D02*
X1604Y993D01*
X1Y992D02*
X8Y992D01*
X1597Y992D02*
X1604Y992D01*
X1Y991D02*
X8Y991D01*
X1597Y991D02*
X1604Y991D01*
X1Y990D02*
X8Y990D01*
X1597Y990D02*
X1604Y990D01*
X1Y989D02*
X8Y989D01*
X1597Y989D02*
X1604Y989D01*
X1Y988D02*
X8Y988D01*
X1597Y988D02*
X1604Y988D01*
X1Y987D02*
X8Y987D01*
X1597Y987D02*
X1604Y987D01*
X1Y986D02*
X8Y986D01*
X1597Y986D02*
X1604Y986D01*
X1Y985D02*
X8Y985D01*
X1597Y985D02*
X1604Y985D01*
X1Y984D02*
X8Y984D01*
X1597Y984D02*
X1604Y984D01*
X1Y983D02*
X8Y983D01*
X1597Y983D02*
X1604Y983D01*
X1Y982D02*
X8Y982D01*
X1597Y982D02*
X1604Y982D01*
X1Y981D02*
X8Y981D01*
X1597Y981D02*
X1604Y981D01*
X1Y980D02*
X8Y980D01*
X1597Y980D02*
X1604Y980D01*
X1Y979D02*
X8Y979D01*
X1597Y979D02*
X1604Y979D01*
X1Y978D02*
X8Y978D01*
X1597Y978D02*
X1604Y978D01*
X1Y977D02*
X8Y977D01*
X1597Y977D02*
X1604Y977D01*
X1Y976D02*
X8Y976D01*
X1597Y976D02*
X1604Y976D01*
X1Y975D02*
X8Y975D01*
X1597Y975D02*
X1604Y975D01*
X1Y974D02*
X8Y974D01*
X1597Y974D02*
X1604Y974D01*
X1Y973D02*
X8Y973D01*
X1597Y973D02*
X1604Y973D01*
X1Y972D02*
X8Y972D01*
X1597Y972D02*
X1604Y972D01*
X1Y971D02*
X8Y971D01*
X1597Y971D02*
X1604Y971D01*
X1Y970D02*
X8Y970D01*
X1597Y970D02*
X1604Y970D01*
X1Y969D02*
X8Y969D01*
X1597Y969D02*
X1604Y969D01*
X1Y968D02*
X8Y968D01*
X1597Y968D02*
X1604Y968D01*
X1Y967D02*
X8Y967D01*
X1597Y967D02*
X1604Y967D01*
X1Y966D02*
X8Y966D01*
X1597Y966D02*
X1604Y966D01*
X1Y965D02*
X8Y965D01*
X1597Y965D02*
X1604Y965D01*
X1Y964D02*
X8Y964D01*
X1597Y964D02*
X1604Y964D01*
X1Y963D02*
X8Y963D01*
X1597Y963D02*
X1604Y963D01*
X1Y962D02*
X8Y962D01*
X1597Y962D02*
X1604Y962D01*
X1Y961D02*
X8Y961D01*
X1597Y961D02*
X1604Y961D01*
X1Y960D02*
X8Y960D01*
X1597Y960D02*
X1604Y960D01*
X1Y959D02*
X8Y959D01*
X1597Y959D02*
X1604Y959D01*
X1Y958D02*
X8Y958D01*
X1597Y958D02*
X1604Y958D01*
X1Y957D02*
X8Y957D01*
X1597Y957D02*
X1604Y957D01*
X1Y956D02*
X8Y956D01*
X1597Y956D02*
X1604Y956D01*
X1Y955D02*
X8Y955D01*
X1597Y955D02*
X1604Y955D01*
X1Y954D02*
X8Y954D01*
X1597Y954D02*
X1604Y954D01*
X1Y953D02*
X8Y953D01*
X1597Y953D02*
X1604Y953D01*
X1Y952D02*
X8Y952D01*
X1597Y952D02*
X1604Y952D01*
X1Y951D02*
X8Y951D01*
X1597Y951D02*
X1604Y951D01*
X1Y950D02*
X8Y950D01*
X1597Y950D02*
X1604Y950D01*
X1Y949D02*
X8Y949D01*
X1597Y949D02*
X1604Y949D01*
X1Y948D02*
X8Y948D01*
X1597Y948D02*
X1604Y948D01*
X1Y947D02*
X8Y947D01*
X1597Y947D02*
X1604Y947D01*
X1Y946D02*
X8Y946D01*
X1597Y946D02*
X1604Y946D01*
X1Y945D02*
X8Y945D01*
X1597Y945D02*
X1604Y945D01*
X1Y944D02*
X8Y944D01*
X1597Y944D02*
X1604Y944D01*
X1Y943D02*
X8Y943D01*
X1597Y943D02*
X1604Y943D01*
X1Y942D02*
X8Y942D01*
X1597Y942D02*
X1604Y942D01*
X1Y941D02*
X8Y941D01*
X1597Y941D02*
X1604Y941D01*
X1Y940D02*
X8Y940D01*
X1597Y940D02*
X1604Y940D01*
X1Y939D02*
X8Y939D01*
X1597Y939D02*
X1604Y939D01*
X1Y938D02*
X8Y938D01*
X1597Y938D02*
X1604Y938D01*
X1Y937D02*
X8Y937D01*
X1597Y937D02*
X1604Y937D01*
X1Y936D02*
X8Y936D01*
X1597Y936D02*
X1604Y936D01*
X1Y935D02*
X8Y935D01*
X1597Y935D02*
X1604Y935D01*
X1Y934D02*
X8Y934D01*
X1597Y934D02*
X1604Y934D01*
X1Y933D02*
X8Y933D01*
X1597Y933D02*
X1604Y933D01*
X1Y932D02*
X8Y932D01*
X1597Y932D02*
X1604Y932D01*
X1Y931D02*
X8Y931D01*
X1597Y931D02*
X1604Y931D01*
X1Y930D02*
X8Y930D01*
X1597Y930D02*
X1604Y930D01*
X1Y929D02*
X8Y929D01*
X1597Y929D02*
X1604Y929D01*
X1Y928D02*
X8Y928D01*
X1597Y928D02*
X1604Y928D01*
X1Y927D02*
X8Y927D01*
X1597Y927D02*
X1604Y927D01*
X1Y926D02*
X8Y926D01*
X1597Y926D02*
X1604Y926D01*
X1Y925D02*
X8Y925D01*
X1597Y925D02*
X1604Y925D01*
X1Y924D02*
X8Y924D01*
X1597Y924D02*
X1604Y924D01*
X1Y923D02*
X8Y923D01*
X1597Y923D02*
X1604Y923D01*
X1Y922D02*
X8Y922D01*
X1597Y922D02*
X1604Y922D01*
X1Y921D02*
X8Y921D01*
X1597Y921D02*
X1604Y921D01*
X1Y920D02*
X8Y920D01*
X1597Y920D02*
X1604Y920D01*
X1Y919D02*
X8Y919D01*
X1597Y919D02*
X1604Y919D01*
X1Y918D02*
X8Y918D01*
X1597Y918D02*
X1604Y918D01*
X1Y917D02*
X8Y917D01*
X1597Y917D02*
X1604Y917D01*
X1Y916D02*
X8Y916D01*
X1597Y916D02*
X1604Y916D01*
X1Y915D02*
X8Y915D01*
X1597Y915D02*
X1604Y915D01*
X1Y914D02*
X8Y914D01*
X1597Y914D02*
X1604Y914D01*
X1Y913D02*
X8Y913D01*
X1597Y913D02*
X1604Y913D01*
X1Y912D02*
X8Y912D01*
X1597Y912D02*
X1604Y912D01*
X1Y911D02*
X8Y911D01*
X1597Y911D02*
X1604Y911D01*
X1Y910D02*
X8Y910D01*
X1597Y910D02*
X1604Y910D01*
X1Y909D02*
X8Y909D01*
X1597Y909D02*
X1604Y909D01*
X1Y908D02*
X8Y908D01*
X1597Y908D02*
X1604Y908D01*
X1Y907D02*
X8Y907D01*
X1597Y907D02*
X1604Y907D01*
X1Y906D02*
X8Y906D01*
X1597Y906D02*
X1604Y906D01*
X1Y905D02*
X8Y905D01*
X1597Y905D02*
X1604Y905D01*
X1Y904D02*
X8Y904D01*
X1597Y904D02*
X1604Y904D01*
X1Y903D02*
X8Y903D01*
X1597Y903D02*
X1604Y903D01*
X1Y902D02*
X8Y902D01*
X1597Y902D02*
X1604Y902D01*
X1Y901D02*
X8Y901D01*
X1597Y901D02*
X1604Y901D01*
X1Y900D02*
X8Y900D01*
X1597Y900D02*
X1604Y900D01*
X1Y899D02*
X8Y899D01*
X1597Y899D02*
X1604Y899D01*
X1Y898D02*
X8Y898D01*
X1597Y898D02*
X1604Y898D01*
X1Y897D02*
X8Y897D01*
X1597Y897D02*
X1604Y897D01*
X1Y896D02*
X8Y896D01*
X1597Y896D02*
X1604Y896D01*
X1Y895D02*
X8Y895D01*
X1597Y895D02*
X1604Y895D01*
X1Y894D02*
X8Y894D01*
X1597Y894D02*
X1604Y894D01*
X1Y893D02*
X8Y893D01*
X1597Y893D02*
X1604Y893D01*
X1Y892D02*
X8Y892D01*
X1597Y892D02*
X1604Y892D01*
X1Y891D02*
X8Y891D01*
X1597Y891D02*
X1604Y891D01*
X1Y890D02*
X8Y890D01*
X1597Y890D02*
X1604Y890D01*
X1Y889D02*
X8Y889D01*
X1597Y889D02*
X1604Y889D01*
X1Y888D02*
X8Y888D01*
X1597Y888D02*
X1604Y888D01*
X1Y887D02*
X8Y887D01*
X1597Y887D02*
X1604Y887D01*
X1Y886D02*
X8Y886D01*
X1597Y886D02*
X1604Y886D01*
X1Y885D02*
X8Y885D01*
X1597Y885D02*
X1604Y885D01*
X1Y884D02*
X8Y884D01*
X1597Y884D02*
X1604Y884D01*
X1Y883D02*
X8Y883D01*
X1597Y883D02*
X1604Y883D01*
X1Y882D02*
X8Y882D01*
X1597Y882D02*
X1604Y882D01*
X1Y881D02*
X8Y881D01*
X1597Y881D02*
X1604Y881D01*
X1Y880D02*
X8Y880D01*
X1597Y880D02*
X1604Y880D01*
X1Y879D02*
X8Y879D01*
X1597Y879D02*
X1604Y879D01*
X1Y878D02*
X8Y878D01*
X1597Y878D02*
X1604Y878D01*
X1Y877D02*
X8Y877D01*
X1597Y877D02*
X1604Y877D01*
X1Y876D02*
X8Y876D01*
X1597Y876D02*
X1604Y876D01*
X1Y875D02*
X8Y875D01*
X1597Y875D02*
X1604Y875D01*
X1Y874D02*
X8Y874D01*
X1597Y874D02*
X1604Y874D01*
X1Y873D02*
X8Y873D01*
X1597Y873D02*
X1604Y873D01*
X1Y872D02*
X8Y872D01*
X1597Y872D02*
X1604Y872D01*
X1Y871D02*
X8Y871D01*
X1597Y871D02*
X1604Y871D01*
X1Y870D02*
X8Y870D01*
X1597Y870D02*
X1604Y870D01*
X1Y869D02*
X8Y869D01*
X1597Y869D02*
X1604Y869D01*
X1Y868D02*
X8Y868D01*
X1597Y868D02*
X1604Y868D01*
X1Y867D02*
X8Y867D01*
X1597Y867D02*
X1604Y867D01*
X1Y866D02*
X8Y866D01*
X1597Y866D02*
X1604Y866D01*
X1Y865D02*
X8Y865D01*
X1597Y865D02*
X1604Y865D01*
X1Y864D02*
X8Y864D01*
X1597Y864D02*
X1604Y864D01*
X1Y863D02*
X8Y863D01*
X1597Y863D02*
X1604Y863D01*
X1Y862D02*
X8Y862D01*
X1597Y862D02*
X1604Y862D01*
X1Y861D02*
X8Y861D01*
X1597Y861D02*
X1604Y861D01*
X1Y860D02*
X8Y860D01*
X1597Y860D02*
X1604Y860D01*
X1Y859D02*
X8Y859D01*
X1597Y859D02*
X1604Y859D01*
X1Y858D02*
X8Y858D01*
X1597Y858D02*
X1604Y858D01*
X1Y857D02*
X8Y857D01*
X1597Y857D02*
X1604Y857D01*
X1Y856D02*
X8Y856D01*
X1597Y856D02*
X1604Y856D01*
X1Y855D02*
X8Y855D01*
X1597Y855D02*
X1604Y855D01*
X1Y854D02*
X8Y854D01*
X1597Y854D02*
X1604Y854D01*
X1Y853D02*
X8Y853D01*
X1597Y853D02*
X1604Y853D01*
X1Y852D02*
X8Y852D01*
X1597Y852D02*
X1604Y852D01*
X1Y851D02*
X8Y851D01*
X1597Y851D02*
X1604Y851D01*
X1Y850D02*
X8Y850D01*
X1597Y850D02*
X1604Y850D01*
X1Y849D02*
X8Y849D01*
X1597Y849D02*
X1604Y849D01*
X1Y848D02*
X8Y848D01*
X1597Y848D02*
X1604Y848D01*
X1Y847D02*
X8Y847D01*
X1597Y847D02*
X1604Y847D01*
X1Y846D02*
X8Y846D01*
X1597Y846D02*
X1604Y846D01*
X1Y845D02*
X8Y845D01*
X1597Y845D02*
X1604Y845D01*
X1Y844D02*
X8Y844D01*
X1597Y844D02*
X1604Y844D01*
X1Y843D02*
X8Y843D01*
X1597Y843D02*
X1604Y843D01*
X1Y842D02*
X8Y842D01*
X1597Y842D02*
X1604Y842D01*
X1Y841D02*
X8Y841D01*
X1597Y841D02*
X1604Y841D01*
X1Y840D02*
X8Y840D01*
X1597Y840D02*
X1604Y840D01*
X1Y839D02*
X8Y839D01*
X1597Y839D02*
X1604Y839D01*
X1Y838D02*
X8Y838D01*
X1597Y838D02*
X1604Y838D01*
X1Y837D02*
X8Y837D01*
X1597Y837D02*
X1604Y837D01*
X1Y836D02*
X8Y836D01*
X1597Y836D02*
X1604Y836D01*
X1Y835D02*
X8Y835D01*
X1597Y835D02*
X1604Y835D01*
X1Y834D02*
X8Y834D01*
X1597Y834D02*
X1604Y834D01*
X1Y833D02*
X8Y833D01*
X1597Y833D02*
X1604Y833D01*
X1Y832D02*
X8Y832D01*
X1597Y832D02*
X1604Y832D01*
X1Y831D02*
X8Y831D01*
X1597Y831D02*
X1604Y831D01*
X1Y830D02*
X8Y830D01*
X1597Y830D02*
X1604Y830D01*
X1Y829D02*
X8Y829D01*
X1597Y829D02*
X1604Y829D01*
X1Y828D02*
X8Y828D01*
X1597Y828D02*
X1604Y828D01*
X1Y827D02*
X8Y827D01*
X1597Y827D02*
X1604Y827D01*
X1Y826D02*
X8Y826D01*
X1597Y826D02*
X1604Y826D01*
X1Y825D02*
X8Y825D01*
X1597Y825D02*
X1604Y825D01*
X1Y824D02*
X8Y824D01*
X1597Y824D02*
X1604Y824D01*
X1Y823D02*
X8Y823D01*
X1597Y823D02*
X1604Y823D01*
X1Y822D02*
X8Y822D01*
X1597Y822D02*
X1604Y822D01*
X1Y821D02*
X8Y821D01*
X1597Y821D02*
X1604Y821D01*
X1Y820D02*
X8Y820D01*
X1597Y820D02*
X1604Y820D01*
X1Y819D02*
X8Y819D01*
X1597Y819D02*
X1604Y819D01*
X1Y818D02*
X8Y818D01*
X1597Y818D02*
X1604Y818D01*
X1Y817D02*
X8Y817D01*
X1597Y817D02*
X1604Y817D01*
X1Y816D02*
X8Y816D01*
X1597Y816D02*
X1604Y816D01*
X1Y815D02*
X8Y815D01*
X1597Y815D02*
X1604Y815D01*
X1Y814D02*
X8Y814D01*
X1597Y814D02*
X1604Y814D01*
X1Y813D02*
X8Y813D01*
X1597Y813D02*
X1604Y813D01*
X1Y812D02*
X8Y812D01*
X1597Y812D02*
X1604Y812D01*
X1Y811D02*
X8Y811D01*
X1597Y811D02*
X1604Y811D01*
X1Y810D02*
X8Y810D01*
X1597Y810D02*
X1604Y810D01*
X1Y809D02*
X8Y809D01*
X1597Y809D02*
X1604Y809D01*
X1Y808D02*
X8Y808D01*
X1597Y808D02*
X1604Y808D01*
X1Y807D02*
X8Y807D01*
X1597Y807D02*
X1604Y807D01*
X1Y806D02*
X8Y806D01*
X1597Y806D02*
X1604Y806D01*
X1Y805D02*
X8Y805D01*
X1597Y805D02*
X1604Y805D01*
X1Y804D02*
X8Y804D01*
X1597Y804D02*
X1604Y804D01*
X1Y803D02*
X8Y803D01*
X1597Y803D02*
X1604Y803D01*
X1Y802D02*
X8Y802D01*
X1597Y802D02*
X1604Y802D01*
X1Y801D02*
X8Y801D01*
X1597Y801D02*
X1604Y801D01*
X1Y800D02*
X8Y800D01*
X1597Y800D02*
X1604Y800D01*
X1Y799D02*
X8Y799D01*
X1597Y799D02*
X1604Y799D01*
X1Y798D02*
X8Y798D01*
X1597Y798D02*
X1604Y798D01*
X1Y797D02*
X8Y797D01*
X1597Y797D02*
X1604Y797D01*
X1Y796D02*
X8Y796D01*
X1597Y796D02*
X1604Y796D01*
X1Y795D02*
X8Y795D01*
X1597Y795D02*
X1604Y795D01*
X1Y794D02*
X8Y794D01*
X1597Y794D02*
X1604Y794D01*
X1Y793D02*
X8Y793D01*
X1597Y793D02*
X1604Y793D01*
X1Y792D02*
X8Y792D01*
X1597Y792D02*
X1604Y792D01*
X1Y791D02*
X8Y791D01*
X1597Y791D02*
X1604Y791D01*
X1Y790D02*
X8Y790D01*
X1597Y790D02*
X1604Y790D01*
X1Y789D02*
X8Y789D01*
X1597Y789D02*
X1604Y789D01*
X1Y788D02*
X8Y788D01*
X1597Y788D02*
X1604Y788D01*
X1Y787D02*
X8Y787D01*
X1597Y787D02*
X1604Y787D01*
X1Y786D02*
X8Y786D01*
X1597Y786D02*
X1604Y786D01*
X1Y785D02*
X8Y785D01*
X1597Y785D02*
X1604Y785D01*
X1Y784D02*
X8Y784D01*
X1597Y784D02*
X1604Y784D01*
X1Y783D02*
X8Y783D01*
X1597Y783D02*
X1604Y783D01*
X1Y782D02*
X8Y782D01*
X1597Y782D02*
X1604Y782D01*
X1Y781D02*
X8Y781D01*
X1597Y781D02*
X1604Y781D01*
X1Y780D02*
X8Y780D01*
X1597Y780D02*
X1604Y780D01*
X1Y779D02*
X8Y779D01*
X1597Y779D02*
X1604Y779D01*
X1Y778D02*
X8Y778D01*
X1597Y778D02*
X1604Y778D01*
X1Y777D02*
X8Y777D01*
X1597Y777D02*
X1604Y777D01*
X1Y776D02*
X8Y776D01*
X1597Y776D02*
X1604Y776D01*
X1Y775D02*
X8Y775D01*
X1597Y775D02*
X1604Y775D01*
X1Y774D02*
X8Y774D01*
X1597Y774D02*
X1604Y774D01*
X1Y773D02*
X8Y773D01*
X1597Y773D02*
X1604Y773D01*
X1Y772D02*
X8Y772D01*
X1597Y772D02*
X1604Y772D01*
X1Y771D02*
X8Y771D01*
X1597Y771D02*
X1604Y771D01*
X1Y770D02*
X8Y770D01*
X1597Y770D02*
X1604Y770D01*
X1Y769D02*
X8Y769D01*
X1597Y769D02*
X1604Y769D01*
X1Y768D02*
X8Y768D01*
X1597Y768D02*
X1604Y768D01*
X1Y767D02*
X8Y767D01*
X1597Y767D02*
X1604Y767D01*
X1Y766D02*
X8Y766D01*
X1597Y766D02*
X1604Y766D01*
X1Y765D02*
X8Y765D01*
X1597Y765D02*
X1604Y765D01*
X1Y764D02*
X8Y764D01*
X1597Y764D02*
X1604Y764D01*
X1Y763D02*
X8Y763D01*
X1597Y763D02*
X1604Y763D01*
X1Y762D02*
X8Y762D01*
X1597Y762D02*
X1604Y762D01*
X1Y761D02*
X8Y761D01*
X1597Y761D02*
X1604Y761D01*
X1Y760D02*
X8Y760D01*
X1597Y760D02*
X1604Y760D01*
X1Y759D02*
X8Y759D01*
X1597Y759D02*
X1604Y759D01*
X1Y758D02*
X8Y758D01*
X1597Y758D02*
X1604Y758D01*
X1Y757D02*
X8Y757D01*
X1597Y757D02*
X1604Y757D01*
X1Y756D02*
X8Y756D01*
X1597Y756D02*
X1604Y756D01*
X1Y755D02*
X8Y755D01*
X1597Y755D02*
X1604Y755D01*
X1Y754D02*
X8Y754D01*
X1597Y754D02*
X1604Y754D01*
X1Y753D02*
X8Y753D01*
X1597Y753D02*
X1604Y753D01*
X1Y752D02*
X8Y752D01*
X1597Y752D02*
X1604Y752D01*
X1Y751D02*
X8Y751D01*
X1597Y751D02*
X1604Y751D01*
X1Y750D02*
X8Y750D01*
X1597Y750D02*
X1604Y750D01*
X1Y749D02*
X8Y749D01*
X1597Y749D02*
X1604Y749D01*
X1Y748D02*
X8Y748D01*
X1597Y748D02*
X1604Y748D01*
X1Y747D02*
X8Y747D01*
X1597Y747D02*
X1604Y747D01*
X1Y746D02*
X8Y746D01*
X1597Y746D02*
X1604Y746D01*
X1Y745D02*
X8Y745D01*
X1597Y745D02*
X1604Y745D01*
X1Y744D02*
X8Y744D01*
X1597Y744D02*
X1604Y744D01*
X1Y743D02*
X8Y743D01*
X1597Y743D02*
X1604Y743D01*
X1Y742D02*
X8Y742D01*
X1597Y742D02*
X1604Y742D01*
X1Y741D02*
X8Y741D01*
X1597Y741D02*
X1604Y741D01*
X1Y740D02*
X8Y740D01*
X1597Y740D02*
X1604Y740D01*
X1Y739D02*
X8Y739D01*
X1597Y739D02*
X1604Y739D01*
X1Y738D02*
X8Y738D01*
X1597Y738D02*
X1604Y738D01*
X1Y737D02*
X8Y737D01*
X1597Y737D02*
X1604Y737D01*
X1Y736D02*
X8Y736D01*
X1597Y736D02*
X1604Y736D01*
X1Y735D02*
X8Y735D01*
X1597Y735D02*
X1604Y735D01*
X1Y734D02*
X8Y734D01*
X1597Y734D02*
X1604Y734D01*
X1Y733D02*
X8Y733D01*
X1597Y733D02*
X1604Y733D01*
X1Y732D02*
X8Y732D01*
X1597Y732D02*
X1604Y732D01*
X1Y731D02*
X8Y731D01*
X1597Y731D02*
X1604Y731D01*
X1Y730D02*
X8Y730D01*
X1597Y730D02*
X1604Y730D01*
X1Y729D02*
X8Y729D01*
X1597Y729D02*
X1604Y729D01*
X1Y728D02*
X8Y728D01*
X1597Y728D02*
X1604Y728D01*
X1Y727D02*
X8Y727D01*
X1597Y727D02*
X1604Y727D01*
X1Y726D02*
X8Y726D01*
X1597Y726D02*
X1604Y726D01*
X1Y725D02*
X8Y725D01*
X1597Y725D02*
X1604Y725D01*
X1Y724D02*
X8Y724D01*
X1597Y724D02*
X1604Y724D01*
X1Y723D02*
X8Y723D01*
X1597Y723D02*
X1604Y723D01*
X1Y722D02*
X8Y722D01*
X1597Y722D02*
X1604Y722D01*
X1Y721D02*
X8Y721D01*
X1597Y721D02*
X1604Y721D01*
X1Y720D02*
X8Y720D01*
X1597Y720D02*
X1604Y720D01*
X1Y719D02*
X8Y719D01*
X1597Y719D02*
X1604Y719D01*
X1Y718D02*
X8Y718D01*
X1597Y718D02*
X1604Y718D01*
X1Y717D02*
X8Y717D01*
X1597Y717D02*
X1604Y717D01*
X1Y716D02*
X8Y716D01*
X1597Y716D02*
X1604Y716D01*
X1Y715D02*
X8Y715D01*
X1597Y715D02*
X1604Y715D01*
X1Y714D02*
X8Y714D01*
X1597Y714D02*
X1604Y714D01*
X1Y713D02*
X8Y713D01*
X1597Y713D02*
X1604Y713D01*
X1Y712D02*
X8Y712D01*
X1597Y712D02*
X1604Y712D01*
X1Y711D02*
X8Y711D01*
X1597Y711D02*
X1604Y711D01*
X1Y710D02*
X8Y710D01*
X1597Y710D02*
X1604Y710D01*
X1Y709D02*
X8Y709D01*
X1597Y709D02*
X1604Y709D01*
X1Y708D02*
X8Y708D01*
X1597Y708D02*
X1604Y708D01*
X1Y707D02*
X8Y707D01*
X1597Y707D02*
X1604Y707D01*
X1Y706D02*
X8Y706D01*
X1597Y706D02*
X1604Y706D01*
X1Y705D02*
X8Y705D01*
X1597Y705D02*
X1604Y705D01*
X1Y704D02*
X8Y704D01*
X1597Y704D02*
X1604Y704D01*
X1Y703D02*
X8Y703D01*
X1597Y703D02*
X1604Y703D01*
X1Y702D02*
X8Y702D01*
X1597Y702D02*
X1604Y702D01*
X1Y701D02*
X8Y701D01*
X1597Y701D02*
X1604Y701D01*
X1Y700D02*
X8Y700D01*
X1597Y700D02*
X1604Y700D01*
X1Y699D02*
X8Y699D01*
X1597Y699D02*
X1604Y699D01*
X1Y698D02*
X8Y698D01*
X1597Y698D02*
X1604Y698D01*
X1Y697D02*
X8Y697D01*
X1597Y697D02*
X1604Y697D01*
X1Y696D02*
X8Y696D01*
X1597Y696D02*
X1604Y696D01*
X1Y695D02*
X8Y695D01*
X1597Y695D02*
X1604Y695D01*
X1Y694D02*
X8Y694D01*
X1597Y694D02*
X1604Y694D01*
X1Y693D02*
X8Y693D01*
X1597Y693D02*
X1604Y693D01*
X1Y692D02*
X8Y692D01*
X1597Y692D02*
X1604Y692D01*
X1Y691D02*
X8Y691D01*
X1597Y691D02*
X1604Y691D01*
X1Y690D02*
X8Y690D01*
X1597Y690D02*
X1604Y690D01*
X1Y689D02*
X8Y689D01*
X1597Y689D02*
X1604Y689D01*
X1Y688D02*
X8Y688D01*
X1597Y688D02*
X1604Y688D01*
X1Y687D02*
X8Y687D01*
X1597Y687D02*
X1604Y687D01*
X1Y686D02*
X8Y686D01*
X1597Y686D02*
X1604Y686D01*
X1Y685D02*
X8Y685D01*
X1597Y685D02*
X1604Y685D01*
X1Y684D02*
X8Y684D01*
X1597Y684D02*
X1604Y684D01*
X1Y683D02*
X8Y683D01*
X1597Y683D02*
X1604Y683D01*
X1Y682D02*
X8Y682D01*
X1597Y682D02*
X1604Y682D01*
X1Y681D02*
X8Y681D01*
X1597Y681D02*
X1604Y681D01*
X1Y680D02*
X8Y680D01*
X1597Y680D02*
X1604Y680D01*
X1Y679D02*
X8Y679D01*
X1597Y679D02*
X1604Y679D01*
X1Y678D02*
X8Y678D01*
X1597Y678D02*
X1604Y678D01*
X1Y677D02*
X8Y677D01*
X1597Y677D02*
X1604Y677D01*
X1Y676D02*
X8Y676D01*
X1597Y676D02*
X1604Y676D01*
X1Y675D02*
X8Y675D01*
X1597Y675D02*
X1604Y675D01*
X1Y674D02*
X8Y674D01*
X1597Y674D02*
X1604Y674D01*
X1Y673D02*
X8Y673D01*
X1597Y673D02*
X1604Y673D01*
X1Y672D02*
X8Y672D01*
X1597Y672D02*
X1604Y672D01*
X1Y671D02*
X8Y671D01*
X1597Y671D02*
X1604Y671D01*
X1Y670D02*
X8Y670D01*
X1597Y670D02*
X1604Y670D01*
X1Y669D02*
X8Y669D01*
X1597Y669D02*
X1604Y669D01*
X1Y668D02*
X8Y668D01*
X1597Y668D02*
X1604Y668D01*
X1Y667D02*
X8Y667D01*
X1597Y667D02*
X1604Y667D01*
X1Y666D02*
X8Y666D01*
X1597Y666D02*
X1604Y666D01*
X1Y665D02*
X8Y665D01*
X1597Y665D02*
X1604Y665D01*
X1Y664D02*
X8Y664D01*
X1597Y664D02*
X1604Y664D01*
X1Y663D02*
X8Y663D01*
X1597Y663D02*
X1604Y663D01*
X1Y662D02*
X8Y662D01*
X1597Y662D02*
X1604Y662D01*
X1Y661D02*
X8Y661D01*
X1597Y661D02*
X1604Y661D01*
X1Y660D02*
X8Y660D01*
X1597Y660D02*
X1604Y660D01*
X1Y659D02*
X8Y659D01*
X1597Y659D02*
X1604Y659D01*
X1Y658D02*
X8Y658D01*
X1597Y658D02*
X1604Y658D01*
X1Y657D02*
X8Y657D01*
X1597Y657D02*
X1604Y657D01*
X1Y656D02*
X8Y656D01*
X1597Y656D02*
X1604Y656D01*
X1Y655D02*
X8Y655D01*
X1597Y655D02*
X1604Y655D01*
X1Y654D02*
X8Y654D01*
X1597Y654D02*
X1604Y654D01*
X1Y653D02*
X8Y653D01*
X1597Y653D02*
X1604Y653D01*
X1Y652D02*
X8Y652D01*
X1597Y652D02*
X1604Y652D01*
X1Y651D02*
X8Y651D01*
X1597Y651D02*
X1604Y651D01*
X1Y650D02*
X8Y650D01*
X1597Y650D02*
X1604Y650D01*
X1Y649D02*
X8Y649D01*
X1597Y649D02*
X1604Y649D01*
X1Y648D02*
X8Y648D01*
X1597Y648D02*
X1604Y648D01*
X1Y647D02*
X8Y647D01*
X1597Y647D02*
X1604Y647D01*
X1Y646D02*
X8Y646D01*
X1597Y646D02*
X1604Y646D01*
X1Y645D02*
X8Y645D01*
X1597Y645D02*
X1604Y645D01*
X1Y644D02*
X8Y644D01*
X1597Y644D02*
X1604Y644D01*
X1Y643D02*
X8Y643D01*
X1597Y643D02*
X1604Y643D01*
X1Y642D02*
X8Y642D01*
X1597Y642D02*
X1604Y642D01*
X1Y641D02*
X8Y641D01*
X1597Y641D02*
X1604Y641D01*
X1Y640D02*
X8Y640D01*
X1597Y640D02*
X1604Y640D01*
X1Y639D02*
X8Y639D01*
X1597Y639D02*
X1604Y639D01*
X1Y638D02*
X8Y638D01*
X1597Y638D02*
X1604Y638D01*
X1Y637D02*
X8Y637D01*
X1597Y637D02*
X1604Y637D01*
X1Y636D02*
X8Y636D01*
X1597Y636D02*
X1604Y636D01*
X1Y635D02*
X8Y635D01*
X1597Y635D02*
X1604Y635D01*
X1Y634D02*
X8Y634D01*
X1597Y634D02*
X1604Y634D01*
X1Y633D02*
X8Y633D01*
X1597Y633D02*
X1604Y633D01*
X1Y632D02*
X8Y632D01*
X1597Y632D02*
X1604Y632D01*
X1Y631D02*
X8Y631D01*
X1597Y631D02*
X1604Y631D01*
X1Y630D02*
X8Y630D01*
X1597Y630D02*
X1604Y630D01*
X1Y629D02*
X8Y629D01*
X1597Y629D02*
X1604Y629D01*
X1Y628D02*
X8Y628D01*
X1597Y628D02*
X1604Y628D01*
X1Y627D02*
X8Y627D01*
X1597Y627D02*
X1604Y627D01*
X1Y626D02*
X8Y626D01*
X1597Y626D02*
X1604Y626D01*
X1Y625D02*
X8Y625D01*
X1597Y625D02*
X1604Y625D01*
X1Y624D02*
X8Y624D01*
X1597Y624D02*
X1604Y624D01*
X1Y623D02*
X8Y623D01*
X1597Y623D02*
X1604Y623D01*
X1Y622D02*
X8Y622D01*
X1597Y622D02*
X1604Y622D01*
X1Y621D02*
X8Y621D01*
X1597Y621D02*
X1604Y621D01*
X1Y620D02*
X8Y620D01*
X1597Y620D02*
X1604Y620D01*
X1Y619D02*
X8Y619D01*
X1597Y619D02*
X1604Y619D01*
X1Y618D02*
X8Y618D01*
X1597Y618D02*
X1604Y618D01*
X1Y617D02*
X8Y617D01*
X1597Y617D02*
X1604Y617D01*
X1Y616D02*
X8Y616D01*
X1597Y616D02*
X1604Y616D01*
X1Y615D02*
X8Y615D01*
X1597Y615D02*
X1604Y615D01*
X1Y614D02*
X8Y614D01*
X1597Y614D02*
X1604Y614D01*
X1Y613D02*
X8Y613D01*
X1597Y613D02*
X1604Y613D01*
X1Y612D02*
X8Y612D01*
X1597Y612D02*
X1604Y612D01*
X1Y611D02*
X8Y611D01*
X1597Y611D02*
X1604Y611D01*
X1Y610D02*
X8Y610D01*
X1597Y610D02*
X1604Y610D01*
X1Y609D02*
X8Y609D01*
X1597Y609D02*
X1604Y609D01*
X1Y608D02*
X8Y608D01*
X1597Y608D02*
X1604Y608D01*
X1Y607D02*
X8Y607D01*
X1597Y607D02*
X1604Y607D01*
X1Y606D02*
X8Y606D01*
X1597Y606D02*
X1604Y606D01*
X1Y605D02*
X8Y605D01*
X1597Y605D02*
X1604Y605D01*
X1Y604D02*
X8Y604D01*
X1597Y604D02*
X1604Y604D01*
X1Y603D02*
X8Y603D01*
X1597Y603D02*
X1604Y603D01*
X1Y602D02*
X8Y602D01*
X1597Y602D02*
X1604Y602D01*
X1Y601D02*
X8Y601D01*
X1597Y601D02*
X1604Y601D01*
X1Y600D02*
X8Y600D01*
X1597Y600D02*
X1604Y600D01*
X1Y599D02*
X8Y599D01*
X1597Y599D02*
X1604Y599D01*
X1Y598D02*
X8Y598D01*
X1597Y598D02*
X1604Y598D01*
X1Y597D02*
X8Y597D01*
X1597Y597D02*
X1604Y597D01*
X1Y596D02*
X8Y596D01*
X1597Y596D02*
X1604Y596D01*
X1Y595D02*
X8Y595D01*
X1597Y595D02*
X1604Y595D01*
X1Y594D02*
X8Y594D01*
X1597Y594D02*
X1604Y594D01*
X1Y593D02*
X8Y593D01*
X1597Y593D02*
X1604Y593D01*
X1Y592D02*
X8Y592D01*
X1597Y592D02*
X1604Y592D01*
X1Y591D02*
X8Y591D01*
X1597Y591D02*
X1604Y591D01*
X1Y590D02*
X8Y590D01*
X1597Y590D02*
X1604Y590D01*
X1Y589D02*
X8Y589D01*
X1597Y589D02*
X1604Y589D01*
X1Y588D02*
X8Y588D01*
X1597Y588D02*
X1604Y588D01*
X1Y587D02*
X8Y587D01*
X1597Y587D02*
X1604Y587D01*
X1Y586D02*
X8Y586D01*
X1597Y586D02*
X1604Y586D01*
X1Y585D02*
X8Y585D01*
X1597Y585D02*
X1604Y585D01*
X1Y584D02*
X8Y584D01*
X1597Y584D02*
X1604Y584D01*
X1Y583D02*
X8Y583D01*
X1597Y583D02*
X1604Y583D01*
X1Y582D02*
X8Y582D01*
X1597Y582D02*
X1604Y582D01*
X1Y581D02*
X8Y581D01*
X1597Y581D02*
X1604Y581D01*
X1Y580D02*
X8Y580D01*
X1597Y580D02*
X1604Y580D01*
X1Y579D02*
X8Y579D01*
X1597Y579D02*
X1604Y579D01*
X1Y578D02*
X8Y578D01*
X1597Y578D02*
X1604Y578D01*
X1Y577D02*
X8Y577D01*
X1597Y577D02*
X1604Y577D01*
X1Y576D02*
X8Y576D01*
X1597Y576D02*
X1604Y576D01*
X1Y575D02*
X8Y575D01*
X1597Y575D02*
X1604Y575D01*
X1Y574D02*
X8Y574D01*
X1597Y574D02*
X1604Y574D01*
X1Y573D02*
X8Y573D01*
X1597Y573D02*
X1604Y573D01*
X1Y572D02*
X8Y572D01*
X1597Y572D02*
X1604Y572D01*
X1Y571D02*
X8Y571D01*
X1597Y571D02*
X1604Y571D01*
X1Y570D02*
X8Y570D01*
X1597Y570D02*
X1604Y570D01*
X1Y569D02*
X8Y569D01*
X1597Y569D02*
X1604Y569D01*
X1Y568D02*
X8Y568D01*
X1597Y568D02*
X1604Y568D01*
X1Y567D02*
X8Y567D01*
X1597Y567D02*
X1604Y567D01*
X1Y566D02*
X8Y566D01*
X1597Y566D02*
X1604Y566D01*
X1Y565D02*
X8Y565D01*
X1597Y565D02*
X1604Y565D01*
X1Y564D02*
X8Y564D01*
X1597Y564D02*
X1604Y564D01*
X1Y563D02*
X8Y563D01*
X1597Y563D02*
X1604Y563D01*
X1Y562D02*
X8Y562D01*
X1597Y562D02*
X1604Y562D01*
X1Y561D02*
X8Y561D01*
X1597Y561D02*
X1604Y561D01*
X1Y560D02*
X8Y560D01*
X1597Y560D02*
X1604Y560D01*
X1Y559D02*
X8Y559D01*
X1597Y559D02*
X1604Y559D01*
X1Y558D02*
X8Y558D01*
X1597Y558D02*
X1604Y558D01*
X1Y557D02*
X8Y557D01*
X1597Y557D02*
X1604Y557D01*
X1Y556D02*
X8Y556D01*
X1597Y556D02*
X1604Y556D01*
X1Y555D02*
X8Y555D01*
X1597Y555D02*
X1604Y555D01*
X1Y554D02*
X8Y554D01*
X1597Y554D02*
X1604Y554D01*
X1Y553D02*
X8Y553D01*
X1597Y553D02*
X1604Y553D01*
X1Y552D02*
X8Y552D01*
X1597Y552D02*
X1604Y552D01*
X1Y551D02*
X8Y551D01*
X1597Y551D02*
X1604Y551D01*
X1Y550D02*
X8Y550D01*
X1597Y550D02*
X1604Y550D01*
X1Y549D02*
X8Y549D01*
X1597Y549D02*
X1604Y549D01*
X1Y548D02*
X8Y548D01*
X1597Y548D02*
X1604Y548D01*
X1Y547D02*
X8Y547D01*
X1597Y547D02*
X1604Y547D01*
X1Y546D02*
X8Y546D01*
X1597Y546D02*
X1604Y546D01*
X1Y545D02*
X8Y545D01*
X1597Y545D02*
X1604Y545D01*
X1Y544D02*
X8Y544D01*
X1597Y544D02*
X1604Y544D01*
X1Y543D02*
X8Y543D01*
X1597Y543D02*
X1604Y543D01*
X1Y542D02*
X8Y542D01*
X1597Y542D02*
X1604Y542D01*
X1Y541D02*
X8Y541D01*
X1597Y541D02*
X1604Y541D01*
X1Y540D02*
X8Y540D01*
X1597Y540D02*
X1604Y540D01*
X1Y539D02*
X8Y539D01*
X1597Y539D02*
X1604Y539D01*
X1Y538D02*
X8Y538D01*
X1597Y538D02*
X1604Y538D01*
X1Y537D02*
X8Y537D01*
X1597Y537D02*
X1604Y537D01*
X1Y536D02*
X8Y536D01*
X1597Y536D02*
X1604Y536D01*
X1Y535D02*
X8Y535D01*
X1597Y535D02*
X1604Y535D01*
X1Y534D02*
X8Y534D01*
X1597Y534D02*
X1604Y534D01*
X1Y533D02*
X8Y533D01*
X1597Y533D02*
X1604Y533D01*
X1Y532D02*
X8Y532D01*
X1597Y532D02*
X1604Y532D01*
X1Y531D02*
X8Y531D01*
X1597Y531D02*
X1604Y531D01*
X1Y530D02*
X8Y530D01*
X1597Y530D02*
X1604Y530D01*
X1Y529D02*
X8Y529D01*
X1597Y529D02*
X1604Y529D01*
X1Y528D02*
X8Y528D01*
X1597Y528D02*
X1604Y528D01*
X1Y527D02*
X8Y527D01*
X1597Y527D02*
X1604Y527D01*
X1Y526D02*
X8Y526D01*
X1597Y526D02*
X1604Y526D01*
X1Y525D02*
X8Y525D01*
X1597Y525D02*
X1604Y525D01*
X1Y524D02*
X8Y524D01*
X1597Y524D02*
X1604Y524D01*
X1Y523D02*
X8Y523D01*
X1597Y523D02*
X1604Y523D01*
X1Y522D02*
X8Y522D01*
X1597Y522D02*
X1604Y522D01*
X1Y521D02*
X8Y521D01*
X1597Y521D02*
X1604Y521D01*
X1Y520D02*
X8Y520D01*
X1597Y520D02*
X1604Y520D01*
X1Y519D02*
X8Y519D01*
X1597Y519D02*
X1604Y519D01*
X1Y518D02*
X8Y518D01*
X1597Y518D02*
X1604Y518D01*
X1Y517D02*
X8Y517D01*
X1597Y517D02*
X1604Y517D01*
X1Y516D02*
X8Y516D01*
X1597Y516D02*
X1604Y516D01*
X1Y515D02*
X8Y515D01*
X1597Y515D02*
X1604Y515D01*
X1Y514D02*
X8Y514D01*
X1597Y514D02*
X1604Y514D01*
X1Y513D02*
X8Y513D01*
X1597Y513D02*
X1604Y513D01*
X1Y512D02*
X8Y512D01*
X1597Y512D02*
X1604Y512D01*
X1Y511D02*
X8Y511D01*
X1597Y511D02*
X1604Y511D01*
X1Y510D02*
X8Y510D01*
X1597Y510D02*
X1604Y510D01*
X1Y509D02*
X8Y509D01*
X1597Y509D02*
X1604Y509D01*
X1Y508D02*
X8Y508D01*
X1597Y508D02*
X1604Y508D01*
X1Y507D02*
X8Y507D01*
X1597Y507D02*
X1604Y507D01*
X1Y506D02*
X8Y506D01*
X1597Y506D02*
X1604Y506D01*
X1Y505D02*
X8Y505D01*
X1597Y505D02*
X1604Y505D01*
X1Y504D02*
X8Y504D01*
X1597Y504D02*
X1604Y504D01*
X1Y503D02*
X8Y503D01*
X1597Y503D02*
X1604Y503D01*
X1Y502D02*
X8Y502D01*
X1597Y502D02*
X1604Y502D01*
X1Y501D02*
X8Y501D01*
X1597Y501D02*
X1604Y501D01*
X1Y500D02*
X8Y500D01*
X1597Y500D02*
X1604Y500D01*
X1Y499D02*
X8Y499D01*
X1597Y499D02*
X1604Y499D01*
X1Y498D02*
X8Y498D01*
X1597Y498D02*
X1604Y498D01*
X1Y497D02*
X8Y497D01*
X1597Y497D02*
X1604Y497D01*
X1Y496D02*
X8Y496D01*
X1597Y496D02*
X1604Y496D01*
X1Y495D02*
X8Y495D01*
X1597Y495D02*
X1604Y495D01*
X1Y494D02*
X8Y494D01*
X1597Y494D02*
X1604Y494D01*
X1Y493D02*
X8Y493D01*
X1597Y493D02*
X1604Y493D01*
X1Y492D02*
X8Y492D01*
X1597Y492D02*
X1604Y492D01*
X1Y491D02*
X8Y491D01*
X1597Y491D02*
X1604Y491D01*
X1Y490D02*
X8Y490D01*
X1597Y490D02*
X1604Y490D01*
X1Y489D02*
X8Y489D01*
X1597Y489D02*
X1604Y489D01*
X1Y488D02*
X8Y488D01*
X1597Y488D02*
X1604Y488D01*
X1Y487D02*
X8Y487D01*
X1597Y487D02*
X1604Y487D01*
X1Y486D02*
X8Y486D01*
X1597Y486D02*
X1604Y486D01*
X1Y485D02*
X8Y485D01*
X1597Y485D02*
X1604Y485D01*
X1Y484D02*
X8Y484D01*
X1597Y484D02*
X1604Y484D01*
X1Y483D02*
X8Y483D01*
X1597Y483D02*
X1604Y483D01*
X1Y482D02*
X8Y482D01*
X1597Y482D02*
X1604Y482D01*
X1Y481D02*
X8Y481D01*
X1597Y481D02*
X1604Y481D01*
X1Y480D02*
X8Y480D01*
X1597Y480D02*
X1604Y480D01*
X1Y479D02*
X8Y479D01*
X1597Y479D02*
X1604Y479D01*
X1Y478D02*
X8Y478D01*
X1597Y478D02*
X1604Y478D01*
X1Y477D02*
X8Y477D01*
X1597Y477D02*
X1604Y477D01*
X1Y476D02*
X8Y476D01*
X1597Y476D02*
X1604Y476D01*
X1Y475D02*
X8Y475D01*
X1597Y475D02*
X1604Y475D01*
X1Y474D02*
X8Y474D01*
X1597Y474D02*
X1604Y474D01*
X1Y473D02*
X8Y473D01*
X1597Y473D02*
X1604Y473D01*
X1Y472D02*
X8Y472D01*
X1597Y472D02*
X1604Y472D01*
X1Y471D02*
X8Y471D01*
X1597Y471D02*
X1604Y471D01*
X1Y470D02*
X8Y470D01*
X1597Y470D02*
X1604Y470D01*
X1Y469D02*
X8Y469D01*
X1597Y469D02*
X1604Y469D01*
X1Y468D02*
X8Y468D01*
X1597Y468D02*
X1604Y468D01*
X1Y467D02*
X8Y467D01*
X1597Y467D02*
X1604Y467D01*
X1Y466D02*
X8Y466D01*
X1597Y466D02*
X1604Y466D01*
X1Y465D02*
X8Y465D01*
X1597Y465D02*
X1604Y465D01*
X1Y464D02*
X8Y464D01*
X1597Y464D02*
X1604Y464D01*
X1Y463D02*
X8Y463D01*
X1597Y463D02*
X1604Y463D01*
X1Y462D02*
X8Y462D01*
X1597Y462D02*
X1604Y462D01*
X1Y461D02*
X8Y461D01*
X1597Y461D02*
X1604Y461D01*
X1Y460D02*
X8Y460D01*
X1597Y460D02*
X1604Y460D01*
X1Y459D02*
X8Y459D01*
X1597Y459D02*
X1604Y459D01*
X1Y458D02*
X8Y458D01*
X1597Y458D02*
X1604Y458D01*
X1Y457D02*
X8Y457D01*
X1597Y457D02*
X1604Y457D01*
X1Y456D02*
X8Y456D01*
X1597Y456D02*
X1604Y456D01*
X1Y455D02*
X8Y455D01*
X1597Y455D02*
X1604Y455D01*
X1Y454D02*
X8Y454D01*
X1597Y454D02*
X1604Y454D01*
X1Y453D02*
X8Y453D01*
X1597Y453D02*
X1604Y453D01*
X1Y452D02*
X8Y452D01*
X1597Y452D02*
X1604Y452D01*
X1Y451D02*
X8Y451D01*
X1597Y451D02*
X1604Y451D01*
X1Y450D02*
X8Y450D01*
X1597Y450D02*
X1604Y450D01*
X1Y449D02*
X8Y449D01*
X1597Y449D02*
X1604Y449D01*
X1Y448D02*
X8Y448D01*
X1597Y448D02*
X1604Y448D01*
X1Y447D02*
X8Y447D01*
X1597Y447D02*
X1604Y447D01*
X1Y446D02*
X8Y446D01*
X1597Y446D02*
X1604Y446D01*
X1Y445D02*
X8Y445D01*
X1597Y445D02*
X1604Y445D01*
X1Y444D02*
X8Y444D01*
X1597Y444D02*
X1604Y444D01*
X1Y443D02*
X8Y443D01*
X1597Y443D02*
X1604Y443D01*
X1Y442D02*
X8Y442D01*
X1597Y442D02*
X1604Y442D01*
X1Y441D02*
X8Y441D01*
X1597Y441D02*
X1604Y441D01*
X1Y440D02*
X8Y440D01*
X1597Y440D02*
X1604Y440D01*
X1Y439D02*
X8Y439D01*
X1597Y439D02*
X1604Y439D01*
X1Y438D02*
X8Y438D01*
X1597Y438D02*
X1604Y438D01*
X1Y437D02*
X8Y437D01*
X1597Y437D02*
X1604Y437D01*
X1Y436D02*
X8Y436D01*
X1597Y436D02*
X1604Y436D01*
X1Y435D02*
X8Y435D01*
X1597Y435D02*
X1604Y435D01*
X1Y434D02*
X8Y434D01*
X1597Y434D02*
X1604Y434D01*
X1Y433D02*
X8Y433D01*
X1597Y433D02*
X1604Y433D01*
X1Y432D02*
X8Y432D01*
X1597Y432D02*
X1604Y432D01*
X1Y431D02*
X8Y431D01*
X1597Y431D02*
X1604Y431D01*
X1Y430D02*
X8Y430D01*
X1597Y430D02*
X1604Y430D01*
X1Y429D02*
X8Y429D01*
X1597Y429D02*
X1604Y429D01*
X1Y428D02*
X8Y428D01*
X1597Y428D02*
X1604Y428D01*
X1Y427D02*
X8Y427D01*
X1597Y427D02*
X1604Y427D01*
X1Y426D02*
X8Y426D01*
X1597Y426D02*
X1604Y426D01*
X1Y425D02*
X8Y425D01*
X1597Y425D02*
X1604Y425D01*
X1Y424D02*
X8Y424D01*
X1597Y424D02*
X1604Y424D01*
X1Y423D02*
X8Y423D01*
X1597Y423D02*
X1604Y423D01*
X1Y422D02*
X8Y422D01*
X1597Y422D02*
X1604Y422D01*
X1Y421D02*
X8Y421D01*
X1597Y421D02*
X1604Y421D01*
X1Y420D02*
X8Y420D01*
X1597Y420D02*
X1604Y420D01*
X1Y419D02*
X8Y419D01*
X1597Y419D02*
X1604Y419D01*
X1Y418D02*
X8Y418D01*
X1597Y418D02*
X1604Y418D01*
X1Y417D02*
X8Y417D01*
X1597Y417D02*
X1604Y417D01*
X1Y416D02*
X8Y416D01*
X1597Y416D02*
X1604Y416D01*
X1Y415D02*
X8Y415D01*
X1597Y415D02*
X1604Y415D01*
X1Y414D02*
X8Y414D01*
X1597Y414D02*
X1604Y414D01*
X1Y413D02*
X8Y413D01*
X1597Y413D02*
X1604Y413D01*
X1Y412D02*
X8Y412D01*
X1597Y412D02*
X1604Y412D01*
X1Y411D02*
X8Y411D01*
X1597Y411D02*
X1604Y411D01*
X1Y410D02*
X8Y410D01*
X1597Y410D02*
X1604Y410D01*
X1Y409D02*
X8Y409D01*
X1597Y409D02*
X1604Y409D01*
X1Y408D02*
X8Y408D01*
X1597Y408D02*
X1604Y408D01*
X1Y407D02*
X8Y407D01*
X1597Y407D02*
X1604Y407D01*
X1Y406D02*
X8Y406D01*
X1597Y406D02*
X1604Y406D01*
X1Y405D02*
X8Y405D01*
X1597Y405D02*
X1604Y405D01*
X1Y404D02*
X8Y404D01*
X1597Y404D02*
X1604Y404D01*
X1Y403D02*
X8Y403D01*
X1597Y403D02*
X1604Y403D01*
X1Y402D02*
X8Y402D01*
X1597Y402D02*
X1604Y402D01*
X1Y401D02*
X8Y401D01*
X1597Y401D02*
X1604Y401D01*
X1Y400D02*
X8Y400D01*
X1597Y400D02*
X1604Y400D01*
X1Y399D02*
X8Y399D01*
X1597Y399D02*
X1604Y399D01*
X1Y398D02*
X8Y398D01*
X1597Y398D02*
X1604Y398D01*
X1Y397D02*
X8Y397D01*
X1597Y397D02*
X1604Y397D01*
X1Y396D02*
X8Y396D01*
X1597Y396D02*
X1604Y396D01*
X1Y395D02*
X8Y395D01*
X1597Y395D02*
X1604Y395D01*
X1Y394D02*
X8Y394D01*
X1597Y394D02*
X1604Y394D01*
X1Y393D02*
X8Y393D01*
X1597Y393D02*
X1604Y393D01*
X1Y392D02*
X8Y392D01*
X1597Y392D02*
X1604Y392D01*
X1Y391D02*
X8Y391D01*
X1597Y391D02*
X1604Y391D01*
X1Y390D02*
X8Y390D01*
X1597Y390D02*
X1604Y390D01*
X1Y389D02*
X8Y389D01*
X1597Y389D02*
X1604Y389D01*
X1Y388D02*
X8Y388D01*
X1597Y388D02*
X1604Y388D01*
X1Y387D02*
X8Y387D01*
X1597Y387D02*
X1604Y387D01*
X1Y386D02*
X8Y386D01*
X1597Y386D02*
X1604Y386D01*
X1Y385D02*
X8Y385D01*
X1597Y385D02*
X1604Y385D01*
X1Y384D02*
X8Y384D01*
X1597Y384D02*
X1604Y384D01*
X1Y383D02*
X8Y383D01*
X1597Y383D02*
X1604Y383D01*
X1Y382D02*
X8Y382D01*
X1597Y382D02*
X1604Y382D01*
X1Y381D02*
X8Y381D01*
X1597Y381D02*
X1604Y381D01*
X1Y380D02*
X8Y380D01*
X1597Y380D02*
X1604Y380D01*
X1Y379D02*
X8Y379D01*
X1597Y379D02*
X1604Y379D01*
X1Y378D02*
X8Y378D01*
X1597Y378D02*
X1604Y378D01*
X1Y377D02*
X8Y377D01*
X1597Y377D02*
X1604Y377D01*
X1Y376D02*
X8Y376D01*
X1597Y376D02*
X1604Y376D01*
X1Y375D02*
X8Y375D01*
X1597Y375D02*
X1604Y375D01*
X1Y374D02*
X8Y374D01*
X1597Y374D02*
X1604Y374D01*
X1Y373D02*
X8Y373D01*
X1597Y373D02*
X1604Y373D01*
X1Y372D02*
X8Y372D01*
X1597Y372D02*
X1604Y372D01*
X1Y371D02*
X8Y371D01*
X1597Y371D02*
X1604Y371D01*
X1Y370D02*
X8Y370D01*
X1597Y370D02*
X1604Y370D01*
X1Y369D02*
X8Y369D01*
X1597Y369D02*
X1604Y369D01*
X1Y368D02*
X8Y368D01*
X1597Y368D02*
X1604Y368D01*
X1Y367D02*
X8Y367D01*
X1597Y367D02*
X1604Y367D01*
X1Y366D02*
X8Y366D01*
X1597Y366D02*
X1604Y366D01*
X1Y365D02*
X8Y365D01*
X1597Y365D02*
X1604Y365D01*
X1Y364D02*
X8Y364D01*
X1597Y364D02*
X1604Y364D01*
X1Y363D02*
X8Y363D01*
X1597Y363D02*
X1604Y363D01*
X1Y362D02*
X8Y362D01*
X1597Y362D02*
X1604Y362D01*
X1Y361D02*
X8Y361D01*
X1597Y361D02*
X1604Y361D01*
X1Y360D02*
X8Y360D01*
X1597Y360D02*
X1604Y360D01*
X1Y359D02*
X8Y359D01*
X1597Y359D02*
X1604Y359D01*
X1Y358D02*
X8Y358D01*
X1597Y358D02*
X1604Y358D01*
X1Y357D02*
X8Y357D01*
X1597Y357D02*
X1604Y357D01*
X1Y356D02*
X8Y356D01*
X1597Y356D02*
X1604Y356D01*
X1Y355D02*
X8Y355D01*
X1597Y355D02*
X1604Y355D01*
X1Y354D02*
X8Y354D01*
X1597Y354D02*
X1604Y354D01*
X1Y353D02*
X8Y353D01*
X1597Y353D02*
X1604Y353D01*
X1Y352D02*
X8Y352D01*
X1597Y352D02*
X1604Y352D01*
X1Y351D02*
X8Y351D01*
X1597Y351D02*
X1604Y351D01*
X1Y350D02*
X8Y350D01*
X1597Y350D02*
X1604Y350D01*
X1Y349D02*
X8Y349D01*
X1597Y349D02*
X1604Y349D01*
X1Y348D02*
X8Y348D01*
X1597Y348D02*
X1604Y348D01*
X1Y347D02*
X8Y347D01*
X1597Y347D02*
X1604Y347D01*
X1Y346D02*
X8Y346D01*
X1597Y346D02*
X1604Y346D01*
X1Y345D02*
X8Y345D01*
X1597Y345D02*
X1604Y345D01*
X1Y344D02*
X8Y344D01*
X1597Y344D02*
X1604Y344D01*
X1Y343D02*
X8Y343D01*
X1597Y343D02*
X1604Y343D01*
X1Y342D02*
X8Y342D01*
X1597Y342D02*
X1604Y342D01*
X1Y341D02*
X8Y341D01*
X1597Y341D02*
X1604Y341D01*
X1Y340D02*
X8Y340D01*
X1597Y340D02*
X1604Y340D01*
X1Y339D02*
X8Y339D01*
X1597Y339D02*
X1604Y339D01*
X1Y338D02*
X8Y338D01*
X1597Y338D02*
X1604Y338D01*
X1Y337D02*
X8Y337D01*
X1597Y337D02*
X1604Y337D01*
X1Y336D02*
X8Y336D01*
X1597Y336D02*
X1604Y336D01*
X1Y335D02*
X8Y335D01*
X1597Y335D02*
X1604Y335D01*
X1Y334D02*
X8Y334D01*
X1597Y334D02*
X1604Y334D01*
X1Y333D02*
X8Y333D01*
X1597Y333D02*
X1604Y333D01*
X1Y332D02*
X8Y332D01*
X1597Y332D02*
X1604Y332D01*
X1Y331D02*
X8Y331D01*
X1597Y331D02*
X1604Y331D01*
X1Y330D02*
X8Y330D01*
X1597Y330D02*
X1604Y330D01*
X1Y329D02*
X8Y329D01*
X1597Y329D02*
X1604Y329D01*
X1Y328D02*
X8Y328D01*
X1597Y328D02*
X1604Y328D01*
X1Y327D02*
X8Y327D01*
X1597Y327D02*
X1604Y327D01*
X1Y326D02*
X8Y326D01*
X1597Y326D02*
X1604Y326D01*
X1Y325D02*
X8Y325D01*
X1597Y325D02*
X1604Y325D01*
X1Y324D02*
X8Y324D01*
X1597Y324D02*
X1604Y324D01*
X1Y323D02*
X8Y323D01*
X1597Y323D02*
X1604Y323D01*
X1Y322D02*
X8Y322D01*
X1597Y322D02*
X1604Y322D01*
X1Y321D02*
X8Y321D01*
X1597Y321D02*
X1604Y321D01*
X1Y320D02*
X8Y320D01*
X1597Y320D02*
X1604Y320D01*
X1Y319D02*
X8Y319D01*
X1597Y319D02*
X1604Y319D01*
X1Y318D02*
X8Y318D01*
X1597Y318D02*
X1604Y318D01*
X1Y317D02*
X8Y317D01*
X1597Y317D02*
X1604Y317D01*
X1Y316D02*
X8Y316D01*
X1597Y316D02*
X1604Y316D01*
X1Y315D02*
X8Y315D01*
X1597Y315D02*
X1604Y315D01*
X1Y314D02*
X8Y314D01*
X1597Y314D02*
X1604Y314D01*
X1Y313D02*
X8Y313D01*
X1597Y313D02*
X1604Y313D01*
X1Y312D02*
X8Y312D01*
X1597Y312D02*
X1604Y312D01*
X1Y311D02*
X8Y311D01*
X1597Y311D02*
X1604Y311D01*
X1Y310D02*
X8Y310D01*
X1597Y310D02*
X1604Y310D01*
X1Y309D02*
X8Y309D01*
X1597Y309D02*
X1604Y309D01*
X1Y308D02*
X8Y308D01*
X1597Y308D02*
X1604Y308D01*
X1Y307D02*
X8Y307D01*
X1597Y307D02*
X1604Y307D01*
X1Y306D02*
X8Y306D01*
X1597Y306D02*
X1604Y306D01*
X1Y305D02*
X8Y305D01*
X1597Y305D02*
X1604Y305D01*
X1Y304D02*
X8Y304D01*
X1597Y304D02*
X1604Y304D01*
X1Y303D02*
X8Y303D01*
X1597Y303D02*
X1604Y303D01*
X1Y302D02*
X8Y302D01*
X1597Y302D02*
X1604Y302D01*
X1Y301D02*
X8Y301D01*
X1597Y301D02*
X1604Y301D01*
X1Y300D02*
X8Y300D01*
X1597Y300D02*
X1604Y300D01*
X1Y299D02*
X8Y299D01*
X1597Y299D02*
X1604Y299D01*
X1Y298D02*
X8Y298D01*
X1597Y298D02*
X1604Y298D01*
X1Y297D02*
X8Y297D01*
X1597Y297D02*
X1604Y297D01*
X1Y296D02*
X8Y296D01*
X1597Y296D02*
X1604Y296D01*
X1Y295D02*
X8Y295D01*
X1597Y295D02*
X1604Y295D01*
X1Y294D02*
X8Y294D01*
X1597Y294D02*
X1604Y294D01*
X1Y293D02*
X8Y293D01*
X1597Y293D02*
X1604Y293D01*
X1Y292D02*
X8Y292D01*
X1597Y292D02*
X1604Y292D01*
X1Y291D02*
X8Y291D01*
X1597Y291D02*
X1604Y291D01*
X1Y290D02*
X8Y290D01*
X1597Y290D02*
X1604Y290D01*
X1Y289D02*
X8Y289D01*
X1597Y289D02*
X1604Y289D01*
X1Y288D02*
X8Y288D01*
X1597Y288D02*
X1604Y288D01*
X1Y287D02*
X8Y287D01*
X1597Y287D02*
X1604Y287D01*
X1Y286D02*
X8Y286D01*
X1597Y286D02*
X1604Y286D01*
X1Y285D02*
X8Y285D01*
X1597Y285D02*
X1604Y285D01*
X1Y284D02*
X8Y284D01*
X1597Y284D02*
X1604Y284D01*
X1Y283D02*
X8Y283D01*
X1597Y283D02*
X1604Y283D01*
X1Y282D02*
X8Y282D01*
X1597Y282D02*
X1604Y282D01*
X1Y281D02*
X8Y281D01*
X1597Y281D02*
X1604Y281D01*
X1Y280D02*
X8Y280D01*
X1597Y280D02*
X1604Y280D01*
X1Y279D02*
X8Y279D01*
X1597Y279D02*
X1604Y279D01*
X1Y278D02*
X8Y278D01*
X1597Y278D02*
X1604Y278D01*
X1Y277D02*
X8Y277D01*
X1597Y277D02*
X1604Y277D01*
X1Y276D02*
X8Y276D01*
X1597Y276D02*
X1604Y276D01*
X1Y275D02*
X8Y275D01*
X1597Y275D02*
X1604Y275D01*
X1Y274D02*
X8Y274D01*
X1597Y274D02*
X1604Y274D01*
X1Y273D02*
X8Y273D01*
X1597Y273D02*
X1604Y273D01*
X1Y272D02*
X8Y272D01*
X1597Y272D02*
X1604Y272D01*
X1Y271D02*
X8Y271D01*
X1597Y271D02*
X1604Y271D01*
X1Y270D02*
X8Y270D01*
X1597Y270D02*
X1604Y270D01*
X1Y269D02*
X8Y269D01*
X1597Y269D02*
X1604Y269D01*
X1Y268D02*
X8Y268D01*
X1597Y268D02*
X1604Y268D01*
X1Y267D02*
X8Y267D01*
X1597Y267D02*
X1604Y267D01*
X1Y266D02*
X8Y266D01*
X1597Y266D02*
X1604Y266D01*
X1Y265D02*
X8Y265D01*
X1597Y265D02*
X1604Y265D01*
X1Y264D02*
X8Y264D01*
X1597Y264D02*
X1604Y264D01*
X1Y263D02*
X8Y263D01*
X1597Y263D02*
X1604Y263D01*
X1Y262D02*
X8Y262D01*
X1597Y262D02*
X1604Y262D01*
X1Y261D02*
X8Y261D01*
X1597Y261D02*
X1604Y261D01*
X1Y260D02*
X8Y260D01*
X1597Y260D02*
X1604Y260D01*
X1Y259D02*
X8Y259D01*
X1597Y259D02*
X1604Y259D01*
X1Y258D02*
X8Y258D01*
X1597Y258D02*
X1604Y258D01*
X1Y257D02*
X8Y257D01*
X1597Y257D02*
X1604Y257D01*
X1Y256D02*
X8Y256D01*
X1597Y256D02*
X1604Y256D01*
X1Y255D02*
X8Y255D01*
X1597Y255D02*
X1604Y255D01*
X1Y254D02*
X8Y254D01*
X1597Y254D02*
X1604Y254D01*
X1Y253D02*
X8Y253D01*
X1597Y253D02*
X1604Y253D01*
X1Y252D02*
X8Y252D01*
X1597Y252D02*
X1604Y252D01*
X1Y251D02*
X8Y251D01*
X1597Y251D02*
X1604Y251D01*
X1Y250D02*
X8Y250D01*
X1597Y250D02*
X1604Y250D01*
X1Y249D02*
X8Y249D01*
X1597Y249D02*
X1604Y249D01*
X1Y248D02*
X8Y248D01*
X1597Y248D02*
X1604Y248D01*
X1Y247D02*
X8Y247D01*
X1597Y247D02*
X1604Y247D01*
X1Y246D02*
X8Y246D01*
X1597Y246D02*
X1604Y246D01*
X1Y245D02*
X8Y245D01*
X1597Y245D02*
X1604Y245D01*
X1Y244D02*
X8Y244D01*
X1597Y244D02*
X1604Y244D01*
X1Y243D02*
X8Y243D01*
X1597Y243D02*
X1604Y243D01*
X1Y242D02*
X8Y242D01*
X1597Y242D02*
X1604Y242D01*
X1Y241D02*
X8Y241D01*
X1597Y241D02*
X1604Y241D01*
X1Y240D02*
X8Y240D01*
X1597Y240D02*
X1604Y240D01*
X1Y239D02*
X8Y239D01*
X1597Y239D02*
X1604Y239D01*
X1Y238D02*
X8Y238D01*
X1597Y238D02*
X1604Y238D01*
X1Y237D02*
X8Y237D01*
X1597Y237D02*
X1604Y237D01*
X1Y236D02*
X8Y236D01*
X1597Y236D02*
X1604Y236D01*
X1Y235D02*
X8Y235D01*
X1597Y235D02*
X1604Y235D01*
X1Y234D02*
X8Y234D01*
X1597Y234D02*
X1604Y234D01*
X1Y233D02*
X8Y233D01*
X1597Y233D02*
X1604Y233D01*
X1Y232D02*
X8Y232D01*
X1597Y232D02*
X1604Y232D01*
X1Y231D02*
X8Y231D01*
X1597Y231D02*
X1604Y231D01*
X1Y230D02*
X8Y230D01*
X1597Y230D02*
X1604Y230D01*
X1Y229D02*
X8Y229D01*
X1597Y229D02*
X1604Y229D01*
X1Y228D02*
X8Y228D01*
X1597Y228D02*
X1604Y228D01*
X1Y227D02*
X8Y227D01*
X1597Y227D02*
X1604Y227D01*
X1Y226D02*
X8Y226D01*
X1597Y226D02*
X1604Y226D01*
X1Y225D02*
X8Y225D01*
X1597Y225D02*
X1604Y225D01*
X1Y224D02*
X8Y224D01*
X1597Y224D02*
X1604Y224D01*
X1Y223D02*
X8Y223D01*
X1597Y223D02*
X1604Y223D01*
X1Y222D02*
X8Y222D01*
X1597Y222D02*
X1604Y222D01*
X1Y221D02*
X8Y221D01*
X1597Y221D02*
X1604Y221D01*
X1Y220D02*
X8Y220D01*
X1597Y220D02*
X1604Y220D01*
X1Y219D02*
X8Y219D01*
X1597Y219D02*
X1604Y219D01*
X1Y218D02*
X8Y218D01*
X1597Y218D02*
X1604Y218D01*
X1Y217D02*
X8Y217D01*
X1597Y217D02*
X1604Y217D01*
X1Y216D02*
X8Y216D01*
X1597Y216D02*
X1604Y216D01*
X1Y215D02*
X8Y215D01*
X1597Y215D02*
X1604Y215D01*
X1Y214D02*
X8Y214D01*
X1597Y214D02*
X1604Y214D01*
X1Y213D02*
X8Y213D01*
X1597Y213D02*
X1604Y213D01*
X1Y212D02*
X8Y212D01*
X1597Y212D02*
X1604Y212D01*
X1Y211D02*
X8Y211D01*
X1597Y211D02*
X1604Y211D01*
X1Y210D02*
X8Y210D01*
X1597Y210D02*
X1604Y210D01*
X1Y209D02*
X8Y209D01*
X1597Y209D02*
X1604Y209D01*
X1Y208D02*
X8Y208D01*
X1597Y208D02*
X1604Y208D01*
X1Y207D02*
X8Y207D01*
X1597Y207D02*
X1604Y207D01*
X1Y206D02*
X8Y206D01*
X1597Y206D02*
X1604Y206D01*
X1Y205D02*
X8Y205D01*
X1597Y205D02*
X1604Y205D01*
X1Y204D02*
X8Y204D01*
X1597Y204D02*
X1604Y204D01*
X1Y203D02*
X8Y203D01*
X1597Y203D02*
X1604Y203D01*
X1Y202D02*
X8Y202D01*
X1597Y202D02*
X1604Y202D01*
X1Y201D02*
X8Y201D01*
X1597Y201D02*
X1604Y201D01*
X1Y200D02*
X8Y200D01*
X1597Y200D02*
X1604Y200D01*
X1Y199D02*
X8Y199D01*
X1597Y199D02*
X1604Y199D01*
X1Y198D02*
X8Y198D01*
X1597Y198D02*
X1604Y198D01*
X1Y197D02*
X8Y197D01*
X1597Y197D02*
X1604Y197D01*
X1Y196D02*
X8Y196D01*
X1597Y196D02*
X1604Y196D01*
X1Y195D02*
X8Y195D01*
X1597Y195D02*
X1604Y195D01*
X1Y194D02*
X8Y194D01*
X1597Y194D02*
X1604Y194D01*
X1Y193D02*
X8Y193D01*
X1597Y193D02*
X1604Y193D01*
X1Y192D02*
X8Y192D01*
X1597Y192D02*
X1604Y192D01*
X1Y191D02*
X8Y191D01*
X1597Y191D02*
X1604Y191D01*
X1Y190D02*
X8Y190D01*
X1597Y190D02*
X1604Y190D01*
X1Y189D02*
X8Y189D01*
X1597Y189D02*
X1604Y189D01*
X1Y188D02*
X8Y188D01*
X1597Y188D02*
X1604Y188D01*
X1Y187D02*
X8Y187D01*
X1597Y187D02*
X1604Y187D01*
X1Y186D02*
X8Y186D01*
X1597Y186D02*
X1604Y186D01*
X1Y185D02*
X8Y185D01*
X1597Y185D02*
X1604Y185D01*
X1Y184D02*
X8Y184D01*
X1597Y184D02*
X1604Y184D01*
X1Y183D02*
X8Y183D01*
X1597Y183D02*
X1604Y183D01*
X1Y182D02*
X8Y182D01*
X1597Y182D02*
X1604Y182D01*
X1Y181D02*
X8Y181D01*
X1597Y181D02*
X1604Y181D01*
X1Y180D02*
X8Y180D01*
X1597Y180D02*
X1604Y180D01*
X1Y179D02*
X8Y179D01*
X1597Y179D02*
X1604Y179D01*
X1Y178D02*
X8Y178D01*
X1597Y178D02*
X1604Y178D01*
X1Y177D02*
X8Y177D01*
X1597Y177D02*
X1604Y177D01*
X1Y176D02*
X8Y176D01*
X1597Y176D02*
X1604Y176D01*
X1Y175D02*
X8Y175D01*
X1597Y175D02*
X1604Y175D01*
X1Y174D02*
X8Y174D01*
X1597Y174D02*
X1604Y174D01*
X1Y173D02*
X8Y173D01*
X1597Y173D02*
X1604Y173D01*
X1Y172D02*
X8Y172D01*
X1597Y172D02*
X1604Y172D01*
X1Y171D02*
X8Y171D01*
X1597Y171D02*
X1604Y171D01*
X1Y170D02*
X8Y170D01*
X1597Y170D02*
X1604Y170D01*
X1Y169D02*
X8Y169D01*
X1597Y169D02*
X1604Y169D01*
X1Y168D02*
X8Y168D01*
X1597Y168D02*
X1604Y168D01*
X1Y167D02*
X8Y167D01*
X1597Y167D02*
X1604Y167D01*
X1Y166D02*
X8Y166D01*
X1597Y166D02*
X1604Y166D01*
X1Y165D02*
X8Y165D01*
X1597Y165D02*
X1604Y165D01*
X1Y164D02*
X8Y164D01*
X1597Y164D02*
X1604Y164D01*
X1Y163D02*
X8Y163D01*
X1597Y163D02*
X1604Y163D01*
X1Y162D02*
X8Y162D01*
X1597Y162D02*
X1604Y162D01*
X1Y161D02*
X8Y161D01*
X1597Y161D02*
X1604Y161D01*
X1Y160D02*
X8Y160D01*
X1597Y160D02*
X1604Y160D01*
X1Y159D02*
X8Y159D01*
X1597Y159D02*
X1604Y159D01*
X1Y158D02*
X8Y158D01*
X1597Y158D02*
X1604Y158D01*
X1Y157D02*
X8Y157D01*
X1597Y157D02*
X1604Y157D01*
X1Y156D02*
X8Y156D01*
X1597Y156D02*
X1604Y156D01*
X1Y155D02*
X8Y155D01*
X1597Y155D02*
X1604Y155D01*
X1Y154D02*
X8Y154D01*
X1597Y154D02*
X1604Y154D01*
X1Y153D02*
X8Y153D01*
X1597Y153D02*
X1604Y153D01*
X1Y152D02*
X8Y152D01*
X1597Y152D02*
X1604Y152D01*
X1Y151D02*
X8Y151D01*
X1597Y151D02*
X1604Y151D01*
X1Y150D02*
X8Y150D01*
X1597Y150D02*
X1604Y150D01*
X1Y149D02*
X8Y149D01*
X1597Y149D02*
X1604Y149D01*
X1Y148D02*
X8Y148D01*
X1597Y148D02*
X1604Y148D01*
X1Y147D02*
X8Y147D01*
X1597Y147D02*
X1604Y147D01*
X1Y146D02*
X8Y146D01*
X1597Y146D02*
X1604Y146D01*
X1Y145D02*
X8Y145D01*
X1597Y145D02*
X1604Y145D01*
X1Y144D02*
X8Y144D01*
X1597Y144D02*
X1604Y144D01*
X1Y143D02*
X8Y143D01*
X1597Y143D02*
X1604Y143D01*
X1Y142D02*
X8Y142D01*
X1597Y142D02*
X1604Y142D01*
X1Y141D02*
X8Y141D01*
X1597Y141D02*
X1604Y141D01*
X1Y140D02*
X8Y140D01*
X1597Y140D02*
X1604Y140D01*
X1Y139D02*
X8Y139D01*
X1597Y139D02*
X1604Y139D01*
X1Y138D02*
X8Y138D01*
X1597Y138D02*
X1604Y138D01*
X1Y137D02*
X8Y137D01*
X1597Y137D02*
X1604Y137D01*
X1Y136D02*
X8Y136D01*
X1597Y136D02*
X1604Y136D01*
X1Y135D02*
X8Y135D01*
X1597Y135D02*
X1604Y135D01*
X1Y134D02*
X8Y134D01*
X1597Y134D02*
X1604Y134D01*
X1Y133D02*
X8Y133D01*
X1597Y133D02*
X1604Y133D01*
X1Y132D02*
X8Y132D01*
X1597Y132D02*
X1604Y132D01*
X1Y131D02*
X8Y131D01*
X1597Y131D02*
X1604Y131D01*
X1Y130D02*
X8Y130D01*
X1597Y130D02*
X1604Y130D01*
X1Y129D02*
X8Y129D01*
X1597Y129D02*
X1604Y129D01*
X1Y128D02*
X8Y128D01*
X1597Y128D02*
X1604Y128D01*
X1Y127D02*
X8Y127D01*
X1597Y127D02*
X1604Y127D01*
X1Y126D02*
X8Y126D01*
X1597Y126D02*
X1604Y126D01*
X1Y125D02*
X8Y125D01*
X1597Y125D02*
X1604Y125D01*
X1Y124D02*
X8Y124D01*
X1597Y124D02*
X1604Y124D01*
X1Y123D02*
X8Y123D01*
X1597Y123D02*
X1604Y123D01*
X1Y122D02*
X8Y122D01*
X1597Y122D02*
X1604Y122D01*
X1Y121D02*
X8Y121D01*
X1597Y121D02*
X1604Y121D01*
X1Y120D02*
X8Y120D01*
X1597Y120D02*
X1604Y120D01*
X1Y119D02*
X8Y119D01*
X1597Y119D02*
X1604Y119D01*
X1Y118D02*
X8Y118D01*
X1597Y118D02*
X1604Y118D01*
X1Y117D02*
X8Y117D01*
X1597Y117D02*
X1604Y117D01*
X1Y116D02*
X8Y116D01*
X1597Y116D02*
X1604Y116D01*
X1Y115D02*
X8Y115D01*
X1597Y115D02*
X1604Y115D01*
X1Y114D02*
X8Y114D01*
X1597Y114D02*
X1604Y114D01*
X1Y113D02*
X8Y113D01*
X1597Y113D02*
X1604Y113D01*
X1Y112D02*
X8Y112D01*
X1597Y112D02*
X1604Y112D01*
X1Y111D02*
X8Y111D01*
X1597Y111D02*
X1604Y111D01*
X1Y110D02*
X8Y110D01*
X1597Y110D02*
X1604Y110D01*
X1Y109D02*
X8Y109D01*
X1597Y109D02*
X1604Y109D01*
X1Y108D02*
X8Y108D01*
X1597Y108D02*
X1604Y108D01*
X1Y107D02*
X8Y107D01*
X1597Y107D02*
X1604Y107D01*
X1Y106D02*
X8Y106D01*
X1597Y106D02*
X1604Y106D01*
X1Y105D02*
X8Y105D01*
X1597Y105D02*
X1604Y105D01*
X1Y104D02*
X8Y104D01*
X1597Y104D02*
X1604Y104D01*
X1Y103D02*
X8Y103D01*
X1597Y103D02*
X1604Y103D01*
X1Y102D02*
X8Y102D01*
X1597Y102D02*
X1604Y102D01*
X1Y101D02*
X8Y101D01*
X1597Y101D02*
X1604Y101D01*
X1Y100D02*
X8Y100D01*
X1597Y100D02*
X1604Y100D01*
X1Y99D02*
X8Y99D01*
X1597Y99D02*
X1604Y99D01*
X1Y98D02*
X8Y98D01*
X1597Y98D02*
X1604Y98D01*
X1Y97D02*
X8Y97D01*
X1597Y97D02*
X1604Y97D01*
X1Y96D02*
X8Y96D01*
X1597Y96D02*
X1604Y96D01*
X1Y95D02*
X8Y95D01*
X1597Y95D02*
X1604Y95D01*
X1Y94D02*
X8Y94D01*
X1597Y94D02*
X1604Y94D01*
X1Y93D02*
X8Y93D01*
X1597Y93D02*
X1604Y93D01*
X1Y92D02*
X8Y92D01*
X1597Y92D02*
X1604Y92D01*
X1Y91D02*
X8Y91D01*
X1597Y91D02*
X1604Y91D01*
X1Y90D02*
X8Y90D01*
X1597Y90D02*
X1604Y90D01*
X1Y89D02*
X8Y89D01*
X1597Y89D02*
X1604Y89D01*
X1Y88D02*
X8Y88D01*
X1597Y88D02*
X1604Y88D01*
X1Y87D02*
X8Y87D01*
X1597Y87D02*
X1604Y87D01*
X1Y86D02*
X8Y86D01*
X1597Y86D02*
X1604Y86D01*
X1Y85D02*
X8Y85D01*
X1597Y85D02*
X1604Y85D01*
X1Y84D02*
X8Y84D01*
X1597Y84D02*
X1604Y84D01*
X1Y83D02*
X8Y83D01*
X1597Y83D02*
X1604Y83D01*
X1Y82D02*
X8Y82D01*
X1597Y82D02*
X1604Y82D01*
X1Y81D02*
X8Y81D01*
X1597Y81D02*
X1604Y81D01*
X1Y80D02*
X8Y80D01*
X1597Y80D02*
X1604Y80D01*
X1Y79D02*
X8Y79D01*
X1597Y79D02*
X1604Y79D01*
X1Y78D02*
X8Y78D01*
X1597Y78D02*
X1604Y78D01*
X1Y77D02*
X8Y77D01*
X1597Y77D02*
X1604Y77D01*
X1Y76D02*
X8Y76D01*
X1597Y76D02*
X1604Y76D01*
X1Y75D02*
X8Y75D01*
X1597Y75D02*
X1604Y75D01*
X1Y74D02*
X8Y74D01*
X1597Y74D02*
X1604Y74D01*
X1Y73D02*
X8Y73D01*
X1597Y73D02*
X1604Y73D01*
X1Y72D02*
X8Y72D01*
X1597Y72D02*
X1604Y72D01*
X1Y71D02*
X8Y71D01*
X1597Y71D02*
X1604Y71D01*
X1Y70D02*
X8Y70D01*
X1597Y70D02*
X1604Y70D01*
X1Y69D02*
X8Y69D01*
X1597Y69D02*
X1604Y69D01*
X1Y68D02*
X8Y68D01*
X1597Y68D02*
X1604Y68D01*
X1Y67D02*
X8Y67D01*
X1597Y67D02*
X1604Y67D01*
X1Y66D02*
X8Y66D01*
X1597Y66D02*
X1604Y66D01*
X1Y65D02*
X8Y65D01*
X1597Y65D02*
X1604Y65D01*
X1Y64D02*
X8Y64D01*
X1597Y64D02*
X1604Y64D01*
X1Y63D02*
X8Y63D01*
X1597Y63D02*
X1604Y63D01*
X1Y62D02*
X8Y62D01*
X1597Y62D02*
X1604Y62D01*
X1Y61D02*
X8Y61D01*
X1597Y61D02*
X1604Y61D01*
X1Y60D02*
X8Y60D01*
X1597Y60D02*
X1604Y60D01*
X1Y59D02*
X8Y59D01*
X1597Y59D02*
X1604Y59D01*
X1Y58D02*
X8Y58D01*
X1597Y58D02*
X1604Y58D01*
X1Y57D02*
X8Y57D01*
X1597Y57D02*
X1604Y57D01*
X1Y56D02*
X8Y56D01*
X1597Y56D02*
X1604Y56D01*
X1Y55D02*
X8Y55D01*
X1597Y55D02*
X1604Y55D01*
X1Y54D02*
X8Y54D01*
X1597Y54D02*
X1604Y54D01*
X1Y53D02*
X8Y53D01*
X1597Y53D02*
X1604Y53D01*
X1Y52D02*
X8Y52D01*
X1597Y52D02*
X1604Y52D01*
X1Y51D02*
X8Y51D01*
X1597Y51D02*
X1604Y51D01*
X1Y50D02*
X8Y50D01*
X1597Y50D02*
X1604Y50D01*
X1Y49D02*
X8Y49D01*
X1597Y49D02*
X1604Y49D01*
X1Y48D02*
X8Y48D01*
X1597Y48D02*
X1604Y48D01*
X1Y47D02*
X8Y47D01*
X1597Y47D02*
X1604Y47D01*
X1Y46D02*
X8Y46D01*
X1597Y46D02*
X1604Y46D01*
X1Y45D02*
X8Y45D01*
X1597Y45D02*
X1604Y45D01*
X1Y44D02*
X8Y44D01*
X1597Y44D02*
X1604Y44D01*
X1Y43D02*
X8Y43D01*
X1597Y43D02*
X1604Y43D01*
X1Y42D02*
X8Y42D01*
X1597Y42D02*
X1604Y42D01*
X1Y41D02*
X8Y41D01*
X1597Y41D02*
X1604Y41D01*
X1Y40D02*
X8Y40D01*
X1597Y40D02*
X1604Y40D01*
X1Y39D02*
X8Y39D01*
X1597Y39D02*
X1604Y39D01*
X1Y38D02*
X8Y38D01*
X1597Y38D02*
X1604Y38D01*
X1Y37D02*
X8Y37D01*
X1597Y37D02*
X1604Y37D01*
X1Y36D02*
X8Y36D01*
X1597Y36D02*
X1604Y36D01*
X1Y35D02*
X8Y35D01*
X1597Y35D02*
X1604Y35D01*
X1Y34D02*
X8Y34D01*
X1597Y34D02*
X1604Y34D01*
X1Y33D02*
X8Y33D01*
X1597Y33D02*
X1604Y33D01*
X1Y32D02*
X8Y32D01*
X1597Y32D02*
X1604Y32D01*
X1Y31D02*
X8Y31D01*
X1597Y31D02*
X1604Y31D01*
X1Y30D02*
X8Y30D01*
X1597Y30D02*
X1604Y30D01*
X1Y29D02*
X8Y29D01*
X1597Y29D02*
X1604Y29D01*
X1Y28D02*
X8Y28D01*
X1597Y28D02*
X1604Y28D01*
X1Y27D02*
X8Y27D01*
X1597Y27D02*
X1604Y27D01*
X1Y26D02*
X8Y26D01*
X1597Y26D02*
X1604Y26D01*
X1Y25D02*
X8Y25D01*
X1597Y25D02*
X1604Y25D01*
X1Y24D02*
X8Y24D01*
X1597Y24D02*
X1604Y24D01*
X1Y23D02*
X8Y23D01*
X1597Y23D02*
X1604Y23D01*
X1Y22D02*
X8Y22D01*
X1597Y22D02*
X1604Y22D01*
X1Y21D02*
X8Y21D01*
X1597Y21D02*
X1604Y21D01*
X1Y20D02*
X8Y20D01*
X1597Y20D02*
X1604Y20D01*
X1Y19D02*
X8Y19D01*
X1597Y19D02*
X1604Y19D01*
X1Y18D02*
X8Y18D01*
X1597Y18D02*
X1604Y18D01*
X1Y17D02*
X8Y17D01*
X1597Y17D02*
X1604Y17D01*
X1Y16D02*
X8Y16D01*
X1597Y16D02*
X1604Y16D01*
X1Y15D02*
X8Y15D01*
X1597Y15D02*
X1604Y15D01*
X1Y14D02*
X8Y14D01*
X1597Y14D02*
X1604Y14D01*
X1Y13D02*
X8Y13D01*
X1597Y13D02*
X1604Y13D01*
X1Y12D02*
X8Y12D01*
X1597Y12D02*
X1604Y12D01*
X1Y11D02*
X8Y11D01*
X1597Y11D02*
X1604Y11D01*
X1Y10D02*
X8Y10D01*
X1597Y10D02*
X1604Y10D01*
X1Y9D02*
X8Y9D01*
X1597Y9D02*
X1604Y9D01*
X1Y8D02*
X1604Y8D01*
X1Y7D02*
X1604Y7D01*
X1Y6D02*
X1604Y6D01*
X1Y5D02*
X1604Y5D01*
X1Y4D02*
X1604Y4D01*
X1Y3D02*
X1604Y3D01*
X1Y2D02*
X1604Y2D01*
X1Y1D02*
X1604Y1D01*
D02*
G04 End of Silk0*
M02*