; NON-PLATED HOLES START AT T1
; THROUGH (PLATED) HOLES START AT T100
M48
INCH
T100C0.040278
T101C0.038000
%
T100
X003283Y000931
X014283Y019931
X013284Y000931
X010283Y000931
X009283Y019931
X005683Y019931
X008283Y000931
X006283Y000931
X013284Y019931
X006683Y019931
X004283Y000931
X002683Y019931
X012283Y019931
X014283Y000931
X011283Y000931
X001283Y000931
X004683Y019931
X015283Y019931
X012283Y000931
X001683Y019931
X007283Y000931
X000683Y019931
X002283Y000931
X003683Y019931
X008283Y019931
X010283Y019931
X011283Y019931
X005283Y000931
X015283Y000931
T101
X011319Y014673
X003667Y014674
X002230Y004011
X011338Y012054
X005667Y014674
X010202Y007084
X011202Y007084
X014258Y003050
X010258Y003050
X013230Y005151
X015258Y003050
X012202Y007084
X004697Y017034
X010319Y014673
X001709Y012081
X002709Y012081
X009258Y017034
X003697Y017034
X012319Y014673
X001667Y014674
X006667Y014674
X013258Y017034
X009338Y012054
X010230Y005151
X012258Y017034
X004667Y014674
X006697Y017034
X011258Y003050
X008258Y017034
X010338Y012054
X002697Y017034
X008338Y012054
X005709Y012081
X014202Y007084
X003230Y004011
X004230Y004011
X012258Y003050
X013338Y012054
X012338Y012054
X010258Y017034
X011230Y005151
X013202Y007084
X013319Y014673
X009319Y014673
X013258Y003050
X014230Y005151
X015230Y005151
X012230Y005151
X002667Y014674
X006709Y012081
X015202Y007084
X011258Y017034
X003709Y012081
X001697Y017034
X001230Y004011
X004709Y012081
X008319Y014673
X005697Y017034
T00
M30
