G04 MADE WITH FRITZING*
G04 WWW.FRITZING.ORG*
G04 DOUBLE SIDED*
G04 HOLES PLATED*
G04 CONTOUR ON CENTER OF CONTOUR VECTOR*
%ASAXBY*%
%FSLAX23Y23*%
%MOIN*%
%OFA0B0*%
%SFA1.0B1.0*%
%ADD10C,0.065278*%
%ADD11C,0.078000*%
%ADD12C,0.024000*%
%ADD13R,0.001000X0.001000*%
%LNCOPPER0*%
G90*
G70*
G54D10*
X1128Y93D03*
X1228Y93D03*
X1328Y93D03*
X1428Y93D03*
X1528Y93D03*
X668Y1993D03*
X568Y1993D03*
X468Y1993D03*
X368Y1993D03*
X268Y1993D03*
X168Y1993D03*
X68Y1993D03*
X1528Y1993D03*
X1428Y1993D03*
X1328Y1993D03*
X1228Y1993D03*
X1128Y1993D03*
X1028Y1993D03*
X928Y1993D03*
X828Y1993D03*
X228Y93D03*
X128Y93D03*
X328Y93D03*
X428Y93D03*
X528Y93D03*
X628Y93D03*
X728Y93D03*
X828Y93D03*
X1028Y93D03*
G54D11*
X671Y1208D03*
X571Y1208D03*
X471Y1208D03*
X371Y1208D03*
X271Y1208D03*
X171Y1208D03*
X1334Y1205D03*
X1234Y1205D03*
X1134Y1205D03*
X1034Y1205D03*
X934Y1205D03*
X834Y1205D03*
X667Y1467D03*
X567Y1467D03*
X467Y1467D03*
X367Y1467D03*
X267Y1467D03*
X167Y1467D03*
X1332Y1467D03*
X1232Y1467D03*
X1132Y1467D03*
X1032Y1467D03*
X932Y1467D03*
X832Y1467D03*
X423Y401D03*
X323Y401D03*
X223Y401D03*
X123Y401D03*
X670Y1703D03*
X570Y1703D03*
X470Y1703D03*
X370Y1703D03*
X270Y1703D03*
X170Y1703D03*
X1326Y1703D03*
X1226Y1703D03*
X1126Y1703D03*
X1026Y1703D03*
X926Y1703D03*
X826Y1703D03*
X1520Y708D03*
X1420Y708D03*
X1320Y708D03*
X1220Y708D03*
X1120Y708D03*
X1020Y708D03*
X1523Y515D03*
X1423Y515D03*
X1323Y515D03*
X1223Y515D03*
X1123Y515D03*
X1023Y515D03*
X1526Y305D03*
X1426Y305D03*
X1326Y305D03*
X1226Y305D03*
X1126Y305D03*
X1026Y305D03*
G54D12*
X1368Y967D02*
X615Y787D01*
D02*
X1511Y1276D02*
X1533Y1071D01*
D02*
X1533Y1071D02*
X1368Y967D01*
D02*
X615Y787D02*
X628Y113D01*
D02*
X1345Y1453D02*
X1511Y1276D01*
G54D13*
X1Y1998D02*
X1Y1998D01*
X1Y1997D02*
X1Y1997D01*
X1Y1996D02*
X1Y1996D01*
X1Y1995D02*
X1Y1995D01*
X1Y1994D02*
X1Y1994D01*
X1Y1993D02*
X1Y1993D01*
X1Y1992D02*
X1Y1992D01*
X1Y1991D02*
X1Y1991D01*
X1Y1990D02*
X1Y1990D01*
X1Y1989D02*
X1Y1989D01*
X1Y1988D02*
X1Y1988D01*
D02*
G04 End of Copper0*
M02*