G04 MADE WITH FRITZING*
G04 WWW.FRITZING.ORG*
G04 DOUBLE SIDED*
G04 HOLES PLATED*
G04 CONTOUR ON CENTER OF CONTOUR VECTOR*
%ASAXBY*%
%FSLAX23Y23*%
%MOIN*%
%OFA0B0*%
%SFA1.0B1.0*%
%ADD10R,1.079250X0.904476X1.063250X0.888476*%
%ADD11C,0.008000*%
%ADD12C,0.010000*%
%ADD13C,0.005000*%
%ADD14R,0.001000X0.001000*%
%LNSILK1*%
G90*
G70*
G54D11*
X4Y900D02*
X1075Y900D01*
X1075Y4D01*
X4Y4D01*
X4Y900D01*
D02*
G54D12*
X138Y864D02*
X138Y454D01*
D02*
X138Y454D02*
X578Y454D01*
D02*
X578Y454D02*
X578Y864D01*
D02*
X578Y864D02*
X138Y864D01*
G54D13*
D02*
X498Y454D02*
X498Y864D01*
G54D12*
D02*
X1038Y243D02*
X1038Y653D01*
D02*
X1038Y653D02*
X598Y653D01*
D02*
X598Y653D02*
X598Y243D01*
D02*
X598Y243D02*
X1038Y243D01*
G54D13*
D02*
X678Y653D02*
X678Y243D01*
G54D12*
D02*
X140Y442D02*
X140Y32D01*
D02*
X140Y32D02*
X580Y32D01*
D02*
X580Y32D02*
X580Y442D01*
D02*
X580Y442D02*
X140Y442D01*
G54D13*
D02*
X500Y32D02*
X500Y442D01*
G54D14*
X929Y853D02*
X963Y853D01*
X929Y852D02*
X963Y852D01*
X929Y851D02*
X963Y851D01*
X929Y850D02*
X963Y850D01*
X929Y849D02*
X963Y849D01*
X929Y848D02*
X963Y848D01*
X929Y847D02*
X963Y847D01*
X929Y846D02*
X935Y846D01*
X929Y845D02*
X935Y845D01*
X929Y844D02*
X935Y844D01*
X929Y843D02*
X935Y843D01*
X929Y842D02*
X935Y842D01*
X929Y841D02*
X935Y841D01*
X929Y840D02*
X935Y840D01*
X929Y839D02*
X935Y839D01*
X968Y839D02*
X975Y839D01*
X997Y839D02*
X1004Y839D01*
X929Y838D02*
X935Y838D01*
X968Y838D02*
X976Y838D01*
X996Y838D02*
X1004Y838D01*
X929Y837D02*
X935Y837D01*
X969Y837D02*
X977Y837D01*
X996Y837D02*
X1003Y837D01*
X929Y836D02*
X935Y836D01*
X970Y836D02*
X977Y836D01*
X995Y836D02*
X1002Y836D01*
X929Y835D02*
X935Y835D01*
X970Y835D02*
X978Y835D01*
X994Y835D02*
X1001Y835D01*
X929Y834D02*
X935Y834D01*
X971Y834D02*
X979Y834D01*
X994Y834D02*
X1001Y834D01*
X929Y833D02*
X935Y833D01*
X972Y833D02*
X979Y833D01*
X993Y833D02*
X1000Y833D01*
X929Y832D02*
X935Y832D01*
X972Y832D02*
X980Y832D01*
X992Y832D02*
X999Y832D01*
X929Y831D02*
X961Y831D01*
X973Y831D02*
X981Y831D01*
X992Y831D02*
X999Y831D01*
X929Y830D02*
X961Y830D01*
X974Y830D02*
X981Y830D01*
X991Y830D02*
X998Y830D01*
X929Y829D02*
X961Y829D01*
X974Y829D02*
X982Y829D01*
X990Y829D02*
X997Y829D01*
X929Y828D02*
X961Y828D01*
X975Y828D02*
X982Y828D01*
X990Y828D02*
X997Y828D01*
X929Y827D02*
X961Y827D01*
X976Y827D02*
X983Y827D01*
X989Y827D02*
X996Y827D01*
X929Y826D02*
X961Y826D01*
X976Y826D02*
X984Y826D01*
X988Y826D02*
X995Y826D01*
X929Y825D02*
X961Y825D01*
X977Y825D02*
X984Y825D01*
X988Y825D02*
X994Y825D01*
X929Y824D02*
X935Y824D01*
X978Y824D02*
X985Y824D01*
X987Y824D02*
X994Y824D01*
X929Y823D02*
X935Y823D01*
X978Y823D02*
X993Y823D01*
X929Y822D02*
X935Y822D01*
X979Y822D02*
X992Y822D01*
X929Y821D02*
X935Y821D01*
X980Y821D02*
X992Y821D01*
X929Y820D02*
X935Y820D01*
X980Y820D02*
X991Y820D01*
X929Y819D02*
X935Y819D01*
X981Y819D02*
X990Y819D01*
X929Y818D02*
X935Y818D01*
X982Y818D02*
X990Y818D01*
X929Y817D02*
X935Y817D01*
X982Y817D02*
X990Y817D01*
X929Y816D02*
X935Y816D01*
X981Y816D02*
X991Y816D01*
X929Y815D02*
X935Y815D01*
X980Y815D02*
X992Y815D01*
X929Y814D02*
X935Y814D01*
X980Y814D02*
X992Y814D01*
X929Y813D02*
X935Y813D01*
X979Y813D02*
X993Y813D01*
X929Y812D02*
X935Y812D01*
X978Y812D02*
X994Y812D01*
X929Y811D02*
X935Y811D01*
X977Y811D02*
X984Y811D01*
X987Y811D02*
X994Y811D01*
X929Y810D02*
X935Y810D01*
X977Y810D02*
X983Y810D01*
X988Y810D02*
X995Y810D01*
X929Y809D02*
X935Y809D01*
X976Y809D02*
X983Y809D01*
X988Y809D02*
X996Y809D01*
X929Y808D02*
X935Y808D01*
X975Y808D02*
X982Y808D01*
X989Y808D02*
X996Y808D01*
X929Y807D02*
X935Y807D01*
X975Y807D02*
X981Y807D01*
X990Y807D02*
X997Y807D01*
X929Y806D02*
X935Y806D01*
X974Y806D02*
X981Y806D01*
X990Y806D02*
X998Y806D01*
X929Y805D02*
X935Y805D01*
X973Y805D02*
X980Y805D01*
X991Y805D02*
X999Y805D01*
X929Y804D02*
X935Y804D01*
X973Y804D02*
X979Y804D01*
X992Y804D02*
X999Y804D01*
X929Y803D02*
X963Y803D01*
X972Y803D02*
X979Y803D01*
X992Y803D02*
X1000Y803D01*
X929Y802D02*
X963Y802D01*
X971Y802D02*
X978Y802D01*
X993Y802D02*
X1001Y802D01*
X84Y801D02*
X87Y801D01*
X929Y801D02*
X963Y801D01*
X970Y801D02*
X977Y801D01*
X994Y801D02*
X1001Y801D01*
X83Y800D02*
X88Y800D01*
X929Y800D02*
X963Y800D01*
X970Y800D02*
X977Y800D01*
X994Y800D02*
X1002Y800D01*
X82Y799D02*
X89Y799D01*
X929Y799D02*
X963Y799D01*
X969Y799D02*
X976Y799D01*
X995Y799D02*
X1003Y799D01*
X82Y798D02*
X90Y798D01*
X929Y798D02*
X963Y798D01*
X968Y798D02*
X976Y798D01*
X995Y798D02*
X1003Y798D01*
X81Y797D02*
X90Y797D01*
X929Y797D02*
X963Y797D01*
X968Y797D02*
X975Y797D01*
X996Y797D02*
X1004Y797D01*
X81Y796D02*
X90Y796D01*
X81Y795D02*
X90Y795D01*
X81Y794D02*
X90Y794D01*
X81Y793D02*
X90Y793D01*
X81Y792D02*
X90Y792D01*
X81Y791D02*
X90Y791D01*
X81Y790D02*
X90Y790D01*
X81Y789D02*
X90Y789D01*
X81Y788D02*
X90Y788D01*
X81Y787D02*
X90Y787D01*
X81Y786D02*
X90Y786D01*
X81Y785D02*
X90Y785D01*
X81Y784D02*
X90Y784D01*
X67Y783D02*
X104Y783D01*
X65Y782D02*
X106Y782D01*
X64Y781D02*
X107Y781D01*
X63Y780D02*
X108Y780D01*
X63Y779D02*
X108Y779D01*
X63Y778D02*
X108Y778D01*
X63Y777D02*
X108Y777D01*
X64Y776D02*
X107Y776D01*
X65Y775D02*
X107Y775D01*
X66Y774D02*
X105Y774D01*
X81Y773D02*
X90Y773D01*
X81Y772D02*
X90Y772D01*
X81Y771D02*
X90Y771D01*
X81Y770D02*
X90Y770D01*
X81Y769D02*
X90Y769D01*
X81Y768D02*
X90Y768D01*
X81Y767D02*
X90Y767D01*
X81Y766D02*
X90Y766D01*
X81Y765D02*
X90Y765D01*
X81Y764D02*
X90Y764D01*
X81Y763D02*
X90Y763D01*
X81Y762D02*
X90Y762D01*
X81Y761D02*
X90Y761D01*
X81Y760D02*
X90Y760D01*
X82Y759D02*
X90Y759D01*
X82Y758D02*
X89Y758D01*
X83Y757D02*
X89Y757D01*
X84Y756D02*
X87Y756D01*
X964Y737D02*
X968Y737D01*
X963Y736D02*
X969Y736D01*
X962Y735D02*
X970Y735D01*
X962Y734D02*
X970Y734D01*
X962Y733D02*
X970Y733D01*
X962Y732D02*
X970Y732D01*
X962Y731D02*
X970Y731D01*
X962Y730D02*
X970Y730D01*
X962Y729D02*
X970Y729D01*
X962Y728D02*
X970Y728D01*
X962Y727D02*
X970Y727D01*
X962Y726D02*
X970Y726D01*
X962Y725D02*
X970Y725D01*
X962Y724D02*
X970Y724D01*
X962Y723D02*
X970Y723D01*
X962Y722D02*
X970Y722D01*
X962Y721D02*
X970Y721D01*
X962Y720D02*
X970Y720D01*
X946Y719D02*
X986Y719D01*
X945Y718D02*
X987Y718D01*
X944Y717D02*
X988Y717D01*
X944Y716D02*
X988Y716D01*
X943Y715D02*
X989Y715D01*
X944Y714D02*
X988Y714D01*
X944Y713D02*
X988Y713D01*
X945Y712D02*
X987Y712D01*
X946Y711D02*
X986Y711D01*
X962Y710D02*
X970Y710D01*
X962Y709D02*
X970Y709D01*
X962Y708D02*
X970Y708D01*
X962Y707D02*
X970Y707D01*
X962Y706D02*
X970Y706D01*
X962Y705D02*
X970Y705D01*
X962Y704D02*
X970Y704D01*
X962Y703D02*
X970Y703D01*
X962Y702D02*
X970Y702D01*
X962Y701D02*
X970Y701D01*
X962Y700D02*
X970Y700D01*
X962Y699D02*
X970Y699D01*
X962Y698D02*
X970Y698D01*
X962Y697D02*
X970Y697D01*
X962Y696D02*
X970Y696D01*
X962Y695D02*
X970Y695D01*
X963Y694D02*
X969Y694D01*
X964Y693D02*
X968Y693D01*
X966Y692D02*
X966Y692D01*
X42Y689D02*
X64Y689D01*
X103Y689D02*
X108Y689D01*
X41Y688D02*
X69Y688D01*
X102Y688D02*
X108Y688D01*
X41Y687D02*
X71Y687D01*
X102Y687D02*
X108Y687D01*
X41Y686D02*
X72Y686D01*
X102Y686D02*
X108Y686D01*
X41Y685D02*
X73Y685D01*
X101Y685D02*
X108Y685D01*
X41Y684D02*
X74Y684D01*
X100Y684D02*
X108Y684D01*
X41Y683D02*
X75Y683D01*
X99Y683D02*
X108Y683D01*
X41Y682D02*
X48Y682D01*
X65Y682D02*
X75Y682D01*
X96Y682D02*
X108Y682D01*
X41Y681D02*
X48Y681D01*
X67Y681D02*
X76Y681D01*
X91Y681D02*
X108Y681D01*
X41Y680D02*
X48Y680D01*
X68Y680D02*
X76Y680D01*
X91Y680D02*
X108Y680D01*
X41Y679D02*
X48Y679D01*
X69Y679D02*
X76Y679D01*
X91Y679D02*
X108Y679D01*
X41Y678D02*
X48Y678D01*
X69Y678D02*
X76Y678D01*
X91Y678D02*
X108Y678D01*
X41Y677D02*
X48Y677D01*
X70Y677D02*
X77Y677D01*
X91Y677D02*
X108Y677D01*
X41Y676D02*
X48Y676D01*
X70Y676D02*
X77Y676D01*
X101Y676D02*
X108Y676D01*
X41Y675D02*
X48Y675D01*
X70Y675D02*
X77Y675D01*
X101Y675D02*
X108Y675D01*
X41Y674D02*
X48Y674D01*
X70Y674D02*
X76Y674D01*
X101Y674D02*
X108Y674D01*
X41Y673D02*
X48Y673D01*
X69Y673D02*
X76Y673D01*
X101Y673D02*
X108Y673D01*
X41Y672D02*
X48Y672D01*
X69Y672D02*
X76Y672D01*
X101Y672D02*
X108Y672D01*
X41Y671D02*
X48Y671D01*
X69Y671D02*
X75Y671D01*
X101Y671D02*
X108Y671D01*
X41Y670D02*
X48Y670D01*
X68Y670D02*
X75Y670D01*
X101Y670D02*
X108Y670D01*
X41Y669D02*
X48Y669D01*
X68Y669D02*
X74Y669D01*
X101Y669D02*
X108Y669D01*
X41Y668D02*
X48Y668D01*
X66Y668D02*
X74Y668D01*
X101Y668D02*
X108Y668D01*
X41Y667D02*
X48Y667D01*
X65Y667D02*
X73Y667D01*
X101Y667D02*
X108Y667D01*
X41Y666D02*
X71Y666D01*
X101Y666D02*
X108Y666D01*
X41Y665D02*
X70Y665D01*
X101Y665D02*
X108Y665D01*
X41Y664D02*
X69Y664D01*
X101Y664D02*
X108Y664D01*
X41Y663D02*
X71Y663D01*
X101Y663D02*
X108Y663D01*
X41Y662D02*
X73Y662D01*
X101Y662D02*
X108Y662D01*
X41Y661D02*
X74Y661D01*
X101Y661D02*
X108Y661D01*
X41Y660D02*
X75Y660D01*
X101Y660D02*
X108Y660D01*
X41Y659D02*
X48Y659D01*
X66Y659D02*
X76Y659D01*
X101Y659D02*
X108Y659D01*
X41Y658D02*
X48Y658D01*
X68Y658D02*
X77Y658D01*
X101Y658D02*
X108Y658D01*
X41Y657D02*
X48Y657D01*
X70Y657D02*
X78Y657D01*
X101Y657D02*
X108Y657D01*
X41Y656D02*
X48Y656D01*
X71Y656D02*
X78Y656D01*
X101Y656D02*
X108Y656D01*
X41Y655D02*
X48Y655D01*
X71Y655D02*
X79Y655D01*
X101Y655D02*
X108Y655D01*
X41Y654D02*
X48Y654D01*
X72Y654D02*
X79Y654D01*
X101Y654D02*
X108Y654D01*
X41Y653D02*
X48Y653D01*
X72Y653D02*
X79Y653D01*
X101Y653D02*
X108Y653D01*
X41Y652D02*
X48Y652D01*
X72Y652D02*
X79Y652D01*
X101Y652D02*
X108Y652D01*
X41Y651D02*
X48Y651D01*
X72Y651D02*
X79Y651D01*
X101Y651D02*
X108Y651D01*
X41Y650D02*
X48Y650D01*
X72Y650D02*
X79Y650D01*
X101Y650D02*
X108Y650D01*
X41Y649D02*
X48Y649D01*
X72Y649D02*
X79Y649D01*
X101Y649D02*
X108Y649D01*
X41Y648D02*
X48Y648D01*
X72Y648D02*
X79Y648D01*
X101Y648D02*
X108Y648D01*
X41Y647D02*
X48Y647D01*
X72Y647D02*
X79Y647D01*
X101Y647D02*
X108Y647D01*
X41Y646D02*
X48Y646D01*
X72Y646D02*
X79Y646D01*
X101Y646D02*
X108Y646D01*
X41Y645D02*
X48Y645D01*
X72Y645D02*
X79Y645D01*
X101Y645D02*
X108Y645D01*
X41Y644D02*
X48Y644D01*
X71Y644D02*
X78Y644D01*
X101Y644D02*
X108Y644D01*
X41Y643D02*
X48Y643D01*
X70Y643D02*
X78Y643D01*
X101Y643D02*
X108Y643D01*
X41Y642D02*
X48Y642D01*
X69Y642D02*
X78Y642D01*
X101Y642D02*
X108Y642D01*
X41Y641D02*
X48Y641D01*
X68Y641D02*
X77Y641D01*
X101Y641D02*
X108Y641D01*
X41Y640D02*
X48Y640D01*
X66Y640D02*
X76Y640D01*
X101Y640D02*
X108Y640D01*
X41Y639D02*
X48Y639D01*
X62Y639D02*
X76Y639D01*
X101Y639D02*
X108Y639D01*
X41Y638D02*
X75Y638D01*
X91Y638D02*
X117Y638D01*
X41Y637D02*
X74Y637D01*
X91Y637D02*
X118Y637D01*
X41Y636D02*
X72Y636D01*
X91Y636D02*
X118Y636D01*
X41Y635D02*
X71Y635D01*
X91Y635D02*
X118Y635D01*
X41Y634D02*
X68Y634D01*
X91Y634D02*
X118Y634D01*
X41Y633D02*
X65Y633D01*
X91Y633D02*
X118Y633D01*
X80Y601D02*
X87Y601D01*
X79Y600D02*
X88Y600D01*
X78Y599D02*
X89Y599D01*
X78Y598D02*
X90Y598D01*
X78Y597D02*
X90Y597D01*
X77Y596D02*
X90Y596D01*
X77Y595D02*
X90Y595D01*
X77Y594D02*
X90Y594D01*
X77Y593D02*
X90Y593D01*
X77Y592D02*
X90Y592D01*
X77Y591D02*
X90Y591D01*
X77Y590D02*
X90Y590D01*
X77Y589D02*
X90Y589D01*
X77Y588D02*
X90Y588D01*
X77Y587D02*
X90Y587D01*
X77Y586D02*
X90Y586D01*
X77Y585D02*
X90Y585D01*
X77Y584D02*
X90Y584D01*
X77Y583D02*
X90Y583D01*
X77Y582D02*
X90Y582D01*
X77Y581D02*
X90Y581D01*
X77Y580D02*
X90Y580D01*
X77Y579D02*
X90Y579D01*
X77Y578D02*
X90Y578D01*
X77Y577D02*
X90Y577D01*
X77Y576D02*
X90Y576D01*
X77Y575D02*
X90Y575D01*
X77Y574D02*
X90Y574D01*
X77Y573D02*
X90Y573D01*
X77Y572D02*
X90Y572D01*
X77Y571D02*
X90Y571D01*
X77Y570D02*
X90Y570D01*
X77Y569D02*
X90Y569D01*
X77Y568D02*
X90Y568D01*
X77Y567D02*
X90Y567D01*
X77Y566D02*
X90Y566D01*
X77Y565D02*
X90Y565D01*
X77Y564D02*
X90Y564D01*
X77Y563D02*
X90Y563D01*
X77Y562D02*
X90Y562D01*
X77Y561D02*
X90Y561D01*
X77Y560D02*
X90Y560D01*
X78Y559D02*
X90Y559D01*
X78Y558D02*
X89Y558D01*
X79Y557D02*
X89Y557D01*
X80Y556D02*
X87Y556D01*
X76Y375D02*
X76Y375D01*
X74Y374D02*
X79Y374D01*
X73Y373D02*
X79Y373D01*
X72Y372D02*
X80Y372D01*
X72Y371D02*
X80Y371D01*
X72Y370D02*
X80Y370D01*
X72Y369D02*
X80Y369D01*
X72Y368D02*
X80Y368D01*
X72Y367D02*
X80Y367D01*
X72Y366D02*
X80Y366D01*
X72Y365D02*
X80Y365D01*
X72Y364D02*
X80Y364D01*
X72Y363D02*
X80Y363D01*
X72Y362D02*
X80Y362D01*
X72Y361D02*
X80Y361D01*
X72Y360D02*
X80Y360D01*
X72Y359D02*
X80Y359D01*
X72Y358D02*
X80Y358D01*
X72Y357D02*
X80Y357D01*
X56Y356D02*
X96Y356D01*
X55Y355D02*
X97Y355D01*
X54Y354D02*
X98Y354D01*
X54Y353D02*
X98Y353D01*
X54Y352D02*
X99Y352D01*
X54Y351D02*
X98Y351D01*
X54Y350D02*
X98Y350D01*
X55Y349D02*
X97Y349D01*
X56Y348D02*
X96Y348D01*
X72Y347D02*
X80Y347D01*
X72Y346D02*
X80Y346D01*
X72Y345D02*
X80Y345D01*
X72Y344D02*
X80Y344D01*
X72Y343D02*
X80Y343D01*
X72Y342D02*
X80Y342D01*
X72Y341D02*
X80Y341D01*
X72Y340D02*
X80Y340D01*
X72Y339D02*
X80Y339D01*
X72Y338D02*
X80Y338D01*
X72Y337D02*
X80Y337D01*
X72Y336D02*
X80Y336D01*
X72Y335D02*
X80Y335D01*
X72Y334D02*
X80Y334D01*
X72Y333D02*
X80Y333D01*
X72Y332D02*
X80Y332D01*
X73Y331D02*
X79Y331D01*
X74Y330D02*
X78Y330D01*
X85Y275D02*
X91Y275D01*
X28Y274D02*
X47Y274D01*
X80Y274D02*
X95Y274D01*
X28Y273D02*
X54Y273D01*
X77Y273D02*
X97Y273D01*
X28Y272D02*
X56Y272D01*
X74Y272D02*
X99Y272D01*
X28Y271D02*
X58Y271D01*
X74Y271D02*
X100Y271D01*
X28Y270D02*
X59Y270D01*
X74Y270D02*
X101Y270D01*
X28Y269D02*
X60Y269D01*
X74Y269D02*
X102Y269D01*
X28Y268D02*
X61Y268D01*
X74Y268D02*
X82Y268D01*
X92Y268D02*
X102Y268D01*
X28Y267D02*
X34Y267D01*
X51Y267D02*
X62Y267D01*
X74Y267D02*
X79Y267D01*
X94Y267D02*
X103Y267D01*
X28Y266D02*
X34Y266D01*
X53Y266D02*
X62Y266D01*
X74Y266D02*
X77Y266D01*
X95Y266D02*
X103Y266D01*
X28Y265D02*
X34Y265D01*
X54Y265D02*
X62Y265D01*
X74Y265D02*
X75Y265D01*
X96Y265D02*
X104Y265D01*
X28Y264D02*
X34Y264D01*
X55Y264D02*
X63Y264D01*
X74Y264D02*
X74Y264D01*
X97Y264D02*
X104Y264D01*
X28Y263D02*
X34Y263D01*
X55Y263D02*
X63Y263D01*
X97Y263D02*
X104Y263D01*
X28Y262D02*
X34Y262D01*
X56Y262D02*
X63Y262D01*
X97Y262D02*
X104Y262D01*
X28Y261D02*
X34Y261D01*
X56Y261D02*
X63Y261D01*
X98Y261D02*
X104Y261D01*
X28Y260D02*
X34Y260D01*
X56Y260D02*
X63Y260D01*
X98Y260D02*
X104Y260D01*
X28Y259D02*
X34Y259D01*
X56Y259D02*
X63Y259D01*
X98Y259D02*
X105Y259D01*
X28Y258D02*
X34Y258D01*
X56Y258D02*
X62Y258D01*
X98Y258D02*
X104Y258D01*
X28Y257D02*
X34Y257D01*
X56Y257D02*
X62Y257D01*
X98Y257D02*
X104Y257D01*
X28Y256D02*
X34Y256D01*
X55Y256D02*
X62Y256D01*
X97Y256D02*
X104Y256D01*
X28Y255D02*
X34Y255D01*
X55Y255D02*
X61Y255D01*
X97Y255D02*
X104Y255D01*
X28Y254D02*
X34Y254D01*
X54Y254D02*
X61Y254D01*
X97Y254D02*
X104Y254D01*
X28Y253D02*
X34Y253D01*
X53Y253D02*
X60Y253D01*
X97Y253D02*
X104Y253D01*
X28Y252D02*
X34Y252D01*
X51Y252D02*
X59Y252D01*
X96Y252D02*
X103Y252D01*
X28Y251D02*
X35Y251D01*
X48Y251D02*
X58Y251D01*
X96Y251D02*
X103Y251D01*
X28Y250D02*
X56Y250D01*
X95Y250D02*
X103Y250D01*
X28Y249D02*
X55Y249D01*
X94Y249D02*
X102Y249D01*
X28Y248D02*
X57Y248D01*
X94Y248D02*
X102Y248D01*
X28Y247D02*
X59Y247D01*
X93Y247D02*
X101Y247D01*
X28Y246D02*
X60Y246D01*
X92Y246D02*
X100Y246D01*
X28Y245D02*
X61Y245D01*
X92Y245D02*
X99Y245D01*
X28Y244D02*
X34Y244D01*
X51Y244D02*
X62Y244D01*
X91Y244D02*
X99Y244D01*
X28Y243D02*
X34Y243D01*
X54Y243D02*
X63Y243D01*
X90Y243D02*
X98Y243D01*
X28Y242D02*
X34Y242D01*
X55Y242D02*
X64Y242D01*
X89Y242D02*
X97Y242D01*
X28Y241D02*
X34Y241D01*
X57Y241D02*
X64Y241D01*
X88Y241D02*
X96Y241D01*
X28Y240D02*
X34Y240D01*
X57Y240D02*
X65Y240D01*
X87Y240D02*
X95Y240D01*
X28Y239D02*
X34Y239D01*
X58Y239D02*
X65Y239D01*
X87Y239D02*
X95Y239D01*
X28Y238D02*
X34Y238D01*
X58Y238D02*
X65Y238D01*
X86Y238D02*
X94Y238D01*
X28Y237D02*
X34Y237D01*
X58Y237D02*
X65Y237D01*
X85Y237D02*
X93Y237D01*
X28Y236D02*
X34Y236D01*
X59Y236D02*
X65Y236D01*
X84Y236D02*
X92Y236D01*
X28Y235D02*
X34Y235D01*
X59Y235D02*
X66Y235D01*
X83Y235D02*
X91Y235D01*
X28Y234D02*
X34Y234D01*
X59Y234D02*
X66Y234D01*
X82Y234D02*
X90Y234D01*
X28Y233D02*
X34Y233D01*
X59Y233D02*
X66Y233D01*
X81Y233D02*
X89Y233D01*
X28Y232D02*
X34Y232D01*
X58Y232D02*
X65Y232D01*
X80Y232D02*
X88Y232D01*
X28Y231D02*
X34Y231D01*
X58Y231D02*
X65Y231D01*
X79Y231D02*
X87Y231D01*
X28Y230D02*
X34Y230D01*
X58Y230D02*
X65Y230D01*
X78Y230D02*
X86Y230D01*
X28Y229D02*
X34Y229D01*
X58Y229D02*
X65Y229D01*
X77Y229D02*
X85Y229D01*
X28Y228D02*
X34Y228D01*
X57Y228D02*
X64Y228D01*
X76Y228D02*
X84Y228D01*
X28Y227D02*
X34Y227D01*
X56Y227D02*
X64Y227D01*
X75Y227D02*
X83Y227D01*
X28Y226D02*
X34Y226D01*
X55Y226D02*
X63Y226D01*
X74Y226D02*
X81Y226D01*
X28Y225D02*
X34Y225D01*
X53Y225D02*
X63Y225D01*
X73Y225D02*
X80Y225D01*
X28Y224D02*
X34Y224D01*
X50Y224D02*
X62Y224D01*
X73Y224D02*
X79Y224D01*
X28Y223D02*
X61Y223D01*
X73Y223D02*
X107Y223D01*
X28Y222D02*
X60Y222D01*
X73Y222D02*
X107Y222D01*
X28Y221D02*
X59Y221D01*
X73Y221D02*
X107Y221D01*
X28Y220D02*
X57Y220D01*
X73Y220D02*
X107Y220D01*
X28Y219D02*
X55Y219D01*
X73Y219D02*
X107Y219D01*
X28Y218D02*
X53Y218D01*
X73Y218D02*
X107Y218D01*
X28Y217D02*
X46Y217D01*
X73Y217D02*
X107Y217D01*
X960Y204D02*
X968Y204D01*
X959Y203D02*
X969Y203D01*
X958Y202D02*
X970Y202D01*
X958Y201D02*
X970Y201D01*
X958Y200D02*
X970Y200D01*
X958Y199D02*
X970Y199D01*
X958Y198D02*
X970Y198D01*
X958Y197D02*
X970Y197D01*
X958Y196D02*
X970Y196D01*
X958Y195D02*
X970Y195D01*
X958Y194D02*
X970Y194D01*
X958Y193D02*
X970Y193D01*
X958Y192D02*
X970Y192D01*
X958Y191D02*
X970Y191D01*
X958Y190D02*
X970Y190D01*
X958Y189D02*
X970Y189D01*
X958Y188D02*
X970Y188D01*
X958Y187D02*
X970Y187D01*
X958Y186D02*
X970Y186D01*
X958Y185D02*
X970Y185D01*
X958Y184D02*
X970Y184D01*
X958Y183D02*
X970Y183D01*
X958Y182D02*
X970Y182D01*
X958Y181D02*
X970Y181D01*
X958Y180D02*
X970Y180D01*
X958Y179D02*
X970Y179D01*
X958Y178D02*
X970Y178D01*
X958Y177D02*
X970Y177D01*
X958Y176D02*
X970Y176D01*
X72Y175D02*
X76Y175D01*
X958Y175D02*
X970Y175D01*
X70Y174D02*
X79Y174D01*
X958Y174D02*
X970Y174D01*
X69Y173D02*
X79Y173D01*
X958Y173D02*
X970Y173D01*
X68Y172D02*
X80Y172D01*
X958Y172D02*
X970Y172D01*
X68Y171D02*
X80Y171D01*
X958Y171D02*
X970Y171D01*
X68Y170D02*
X80Y170D01*
X958Y170D02*
X970Y170D01*
X68Y169D02*
X80Y169D01*
X958Y169D02*
X970Y169D01*
X68Y168D02*
X80Y168D01*
X958Y168D02*
X970Y168D01*
X68Y167D02*
X80Y167D01*
X958Y167D02*
X970Y167D01*
X68Y166D02*
X80Y166D01*
X958Y166D02*
X970Y166D01*
X68Y165D02*
X80Y165D01*
X958Y165D02*
X970Y165D01*
X68Y164D02*
X80Y164D01*
X958Y164D02*
X970Y164D01*
X68Y163D02*
X80Y163D01*
X958Y163D02*
X970Y163D01*
X68Y162D02*
X80Y162D01*
X958Y162D02*
X970Y162D01*
X68Y161D02*
X80Y161D01*
X959Y161D02*
X970Y161D01*
X68Y160D02*
X80Y160D01*
X959Y160D02*
X969Y160D01*
X68Y159D02*
X80Y159D01*
X961Y159D02*
X967Y159D01*
X68Y158D02*
X80Y158D01*
X68Y157D02*
X80Y157D01*
X68Y156D02*
X80Y156D01*
X68Y155D02*
X80Y155D01*
X68Y154D02*
X80Y154D01*
X68Y153D02*
X80Y153D01*
X68Y152D02*
X80Y152D01*
X68Y151D02*
X80Y151D01*
X68Y150D02*
X80Y150D01*
X68Y149D02*
X80Y149D01*
X68Y148D02*
X80Y148D01*
X68Y147D02*
X80Y147D01*
X68Y146D02*
X80Y146D01*
X68Y145D02*
X80Y145D01*
X68Y144D02*
X80Y144D01*
X68Y143D02*
X80Y143D01*
X68Y142D02*
X80Y142D01*
X68Y141D02*
X80Y141D01*
X68Y140D02*
X80Y140D01*
X68Y139D02*
X80Y139D01*
X68Y138D02*
X80Y138D01*
X68Y137D02*
X80Y137D01*
X68Y136D02*
X80Y136D01*
X68Y135D02*
X80Y135D01*
X68Y134D02*
X80Y134D01*
X68Y133D02*
X80Y133D01*
X68Y132D02*
X80Y132D01*
X69Y131D02*
X79Y131D01*
X70Y130D02*
X78Y130D01*
X73Y129D02*
X76Y129D01*
D02*
G04 End of Silk1*
M02*