G04 MADE WITH FRITZING*
G04 WWW.FRITZING.ORG*
G04 DOUBLE SIDED*
G04 HOLES PLATED*
G04 CONTOUR ON CENTER OF CONTOUR VECTOR*
%ASAXBY*%
%FSLAX23Y23*%
%MOIN*%
%OFA0B0*%
%SFA1.0B1.0*%
%ADD10R,0.619201X1.651260X0.603201X1.635260*%
%ADD11C,0.008000*%
%ADD12C,0.010000*%
%ADD13C,0.005000*%
%ADD14R,0.001000X0.001000*%
%LNSILK1*%
G90*
G70*
G54D11*
X4Y1647D02*
X615Y1647D01*
X615Y4D01*
X4Y4D01*
X4Y1647D01*
D02*
G54D12*
X132Y1442D02*
X132Y232D01*
D02*
X132Y232D02*
X572Y232D01*
D02*
X572Y232D02*
X572Y1442D01*
D02*
X572Y1442D02*
X132Y1442D01*
G54D13*
D02*
X492Y232D02*
X492Y1442D01*
G54D14*
X68Y1348D02*
X73Y1348D01*
X67Y1347D02*
X73Y1347D01*
X66Y1346D02*
X74Y1346D01*
X66Y1345D02*
X74Y1345D01*
X66Y1344D02*
X74Y1344D01*
X66Y1343D02*
X74Y1343D01*
X66Y1342D02*
X74Y1342D01*
X66Y1341D02*
X74Y1341D01*
X66Y1340D02*
X74Y1340D01*
X66Y1339D02*
X74Y1339D01*
X66Y1338D02*
X74Y1338D01*
X66Y1337D02*
X74Y1337D01*
X66Y1336D02*
X74Y1336D01*
X66Y1335D02*
X74Y1335D01*
X66Y1334D02*
X74Y1334D01*
X66Y1333D02*
X74Y1333D01*
X66Y1332D02*
X74Y1332D01*
X66Y1331D02*
X75Y1331D01*
X50Y1330D02*
X91Y1330D01*
X49Y1329D02*
X92Y1329D01*
X48Y1328D02*
X92Y1328D01*
X48Y1327D02*
X92Y1327D01*
X48Y1326D02*
X93Y1326D01*
X48Y1325D02*
X92Y1325D01*
X49Y1324D02*
X92Y1324D01*
X49Y1323D02*
X91Y1323D01*
X51Y1322D02*
X89Y1322D01*
X66Y1321D02*
X74Y1321D01*
X66Y1320D02*
X74Y1320D01*
X66Y1319D02*
X74Y1319D01*
X66Y1318D02*
X74Y1318D01*
X66Y1317D02*
X74Y1317D01*
X66Y1316D02*
X74Y1316D01*
X66Y1315D02*
X74Y1315D01*
X66Y1314D02*
X74Y1314D01*
X66Y1313D02*
X74Y1313D01*
X66Y1312D02*
X74Y1312D01*
X66Y1311D02*
X74Y1311D01*
X66Y1310D02*
X74Y1310D01*
X66Y1309D02*
X74Y1309D01*
X66Y1308D02*
X74Y1308D01*
X66Y1307D02*
X74Y1307D01*
X67Y1306D02*
X74Y1306D01*
X67Y1305D02*
X73Y1305D01*
X69Y1304D02*
X72Y1304D01*
X26Y1271D02*
X52Y1271D01*
X85Y1271D02*
X105Y1271D01*
X26Y1270D02*
X55Y1270D01*
X84Y1270D02*
X105Y1270D01*
X26Y1269D02*
X57Y1269D01*
X83Y1269D02*
X105Y1269D01*
X26Y1268D02*
X58Y1268D01*
X83Y1268D02*
X105Y1268D01*
X26Y1267D02*
X59Y1267D01*
X83Y1267D02*
X105Y1267D01*
X26Y1266D02*
X60Y1266D01*
X83Y1266D02*
X105Y1266D01*
X26Y1265D02*
X61Y1265D01*
X84Y1265D02*
X105Y1265D01*
X26Y1264D02*
X62Y1264D01*
X85Y1264D02*
X105Y1264D01*
X26Y1263D02*
X33Y1263D01*
X52Y1263D02*
X62Y1263D01*
X99Y1263D02*
X105Y1263D01*
X26Y1262D02*
X33Y1262D01*
X54Y1262D02*
X63Y1262D01*
X99Y1262D02*
X105Y1262D01*
X26Y1261D02*
X33Y1261D01*
X55Y1261D02*
X63Y1261D01*
X99Y1261D02*
X105Y1261D01*
X26Y1260D02*
X33Y1260D01*
X56Y1260D02*
X63Y1260D01*
X99Y1260D02*
X105Y1260D01*
X26Y1259D02*
X33Y1259D01*
X56Y1259D02*
X64Y1259D01*
X99Y1259D02*
X105Y1259D01*
X26Y1258D02*
X33Y1258D01*
X57Y1258D02*
X64Y1258D01*
X99Y1258D02*
X105Y1258D01*
X26Y1257D02*
X33Y1257D01*
X57Y1257D02*
X64Y1257D01*
X99Y1257D02*
X105Y1257D01*
X26Y1256D02*
X33Y1256D01*
X57Y1256D02*
X64Y1256D01*
X99Y1256D02*
X105Y1256D01*
X26Y1255D02*
X33Y1255D01*
X57Y1255D02*
X64Y1255D01*
X99Y1255D02*
X105Y1255D01*
X26Y1254D02*
X33Y1254D01*
X57Y1254D02*
X64Y1254D01*
X99Y1254D02*
X105Y1254D01*
X26Y1253D02*
X33Y1253D01*
X57Y1253D02*
X64Y1253D01*
X99Y1253D02*
X105Y1253D01*
X26Y1252D02*
X33Y1252D01*
X57Y1252D02*
X64Y1252D01*
X99Y1252D02*
X105Y1252D01*
X26Y1251D02*
X33Y1251D01*
X57Y1251D02*
X64Y1251D01*
X99Y1251D02*
X105Y1251D01*
X26Y1250D02*
X33Y1250D01*
X57Y1250D02*
X64Y1250D01*
X99Y1250D02*
X105Y1250D01*
X26Y1249D02*
X33Y1249D01*
X56Y1249D02*
X64Y1249D01*
X99Y1249D02*
X105Y1249D01*
X26Y1248D02*
X33Y1248D01*
X56Y1248D02*
X63Y1248D01*
X99Y1248D02*
X105Y1248D01*
X26Y1247D02*
X33Y1247D01*
X55Y1247D02*
X63Y1247D01*
X99Y1247D02*
X105Y1247D01*
X26Y1246D02*
X33Y1246D01*
X53Y1246D02*
X63Y1246D01*
X99Y1246D02*
X105Y1246D01*
X26Y1245D02*
X33Y1245D01*
X51Y1245D02*
X62Y1245D01*
X99Y1245D02*
X105Y1245D01*
X26Y1244D02*
X62Y1244D01*
X99Y1244D02*
X105Y1244D01*
X26Y1243D02*
X61Y1243D01*
X99Y1243D02*
X105Y1243D01*
X26Y1242D02*
X60Y1242D01*
X99Y1242D02*
X105Y1242D01*
X26Y1241D02*
X59Y1241D01*
X99Y1241D02*
X105Y1241D01*
X26Y1240D02*
X59Y1240D01*
X99Y1240D02*
X105Y1240D01*
X26Y1239D02*
X60Y1239D01*
X99Y1239D02*
X105Y1239D01*
X26Y1238D02*
X61Y1238D01*
X99Y1238D02*
X105Y1238D01*
X26Y1237D02*
X62Y1237D01*
X99Y1237D02*
X105Y1237D01*
X26Y1236D02*
X33Y1236D01*
X53Y1236D02*
X63Y1236D01*
X99Y1236D02*
X105Y1236D01*
X26Y1235D02*
X33Y1235D01*
X54Y1235D02*
X63Y1235D01*
X99Y1235D02*
X105Y1235D01*
X26Y1234D02*
X33Y1234D01*
X55Y1234D02*
X63Y1234D01*
X99Y1234D02*
X105Y1234D01*
X26Y1233D02*
X33Y1233D01*
X56Y1233D02*
X64Y1233D01*
X99Y1233D02*
X105Y1233D01*
X116Y1233D02*
X120Y1233D01*
X26Y1232D02*
X33Y1232D01*
X57Y1232D02*
X64Y1232D01*
X99Y1232D02*
X105Y1232D01*
X115Y1232D02*
X120Y1232D01*
X26Y1231D02*
X33Y1231D01*
X57Y1231D02*
X64Y1231D01*
X99Y1231D02*
X105Y1231D01*
X114Y1231D02*
X121Y1231D01*
X26Y1230D02*
X33Y1230D01*
X57Y1230D02*
X64Y1230D01*
X99Y1230D02*
X105Y1230D01*
X114Y1230D02*
X121Y1230D01*
X26Y1229D02*
X33Y1229D01*
X57Y1229D02*
X64Y1229D01*
X99Y1229D02*
X105Y1229D01*
X114Y1229D02*
X121Y1229D01*
X26Y1228D02*
X33Y1228D01*
X57Y1228D02*
X64Y1228D01*
X99Y1228D02*
X105Y1228D01*
X114Y1228D02*
X121Y1228D01*
X26Y1227D02*
X33Y1227D01*
X57Y1227D02*
X64Y1227D01*
X99Y1227D02*
X105Y1227D01*
X114Y1227D02*
X121Y1227D01*
X26Y1226D02*
X33Y1226D01*
X57Y1226D02*
X64Y1226D01*
X99Y1226D02*
X105Y1226D01*
X114Y1226D02*
X121Y1226D01*
X26Y1225D02*
X33Y1225D01*
X57Y1225D02*
X64Y1225D01*
X99Y1225D02*
X105Y1225D01*
X114Y1225D02*
X121Y1225D01*
X26Y1224D02*
X33Y1224D01*
X57Y1224D02*
X64Y1224D01*
X99Y1224D02*
X105Y1224D01*
X114Y1224D02*
X121Y1224D01*
X26Y1223D02*
X33Y1223D01*
X57Y1223D02*
X64Y1223D01*
X99Y1223D02*
X105Y1223D01*
X114Y1223D02*
X121Y1223D01*
X26Y1222D02*
X33Y1222D01*
X56Y1222D02*
X64Y1222D01*
X99Y1222D02*
X105Y1222D01*
X114Y1222D02*
X121Y1222D01*
X26Y1221D02*
X33Y1221D01*
X55Y1221D02*
X63Y1221D01*
X99Y1221D02*
X105Y1221D01*
X114Y1221D02*
X121Y1221D01*
X26Y1220D02*
X33Y1220D01*
X54Y1220D02*
X63Y1220D01*
X99Y1220D02*
X105Y1220D01*
X114Y1220D02*
X121Y1220D01*
X26Y1219D02*
X33Y1219D01*
X53Y1219D02*
X63Y1219D01*
X99Y1219D02*
X105Y1219D01*
X114Y1219D02*
X121Y1219D01*
X26Y1218D02*
X33Y1218D01*
X49Y1218D02*
X62Y1218D01*
X98Y1218D02*
X106Y1218D01*
X114Y1218D02*
X121Y1218D01*
X26Y1217D02*
X61Y1217D01*
X84Y1217D02*
X121Y1217D01*
X26Y1216D02*
X61Y1216D01*
X84Y1216D02*
X121Y1216D01*
X26Y1215D02*
X60Y1215D01*
X83Y1215D02*
X121Y1215D01*
X26Y1214D02*
X59Y1214D01*
X83Y1214D02*
X121Y1214D01*
X26Y1213D02*
X57Y1213D01*
X83Y1213D02*
X121Y1213D01*
X26Y1212D02*
X56Y1212D01*
X84Y1212D02*
X120Y1212D01*
X26Y1211D02*
X54Y1211D01*
X84Y1211D02*
X120Y1211D01*
X66Y1150D02*
X68Y1150D01*
X64Y1149D02*
X70Y1149D01*
X63Y1148D02*
X70Y1148D01*
X63Y1147D02*
X71Y1147D01*
X63Y1146D02*
X71Y1146D01*
X63Y1145D02*
X71Y1145D01*
X63Y1144D02*
X71Y1144D01*
X63Y1143D02*
X71Y1143D01*
X63Y1142D02*
X71Y1142D01*
X63Y1141D02*
X71Y1141D01*
X63Y1140D02*
X71Y1140D01*
X63Y1139D02*
X71Y1139D01*
X63Y1138D02*
X71Y1138D01*
X63Y1137D02*
X71Y1137D01*
X63Y1136D02*
X71Y1136D01*
X63Y1135D02*
X71Y1135D01*
X63Y1134D02*
X71Y1134D01*
X63Y1133D02*
X71Y1133D01*
X63Y1132D02*
X71Y1132D01*
X63Y1131D02*
X71Y1131D01*
X63Y1130D02*
X71Y1130D01*
X63Y1129D02*
X71Y1129D01*
X63Y1128D02*
X71Y1128D01*
X63Y1127D02*
X71Y1127D01*
X63Y1126D02*
X71Y1126D01*
X63Y1125D02*
X71Y1125D01*
X63Y1124D02*
X71Y1124D01*
X63Y1123D02*
X71Y1123D01*
X63Y1122D02*
X71Y1122D01*
X63Y1121D02*
X71Y1121D01*
X63Y1120D02*
X71Y1120D01*
X63Y1119D02*
X71Y1119D01*
X63Y1118D02*
X71Y1118D01*
X63Y1117D02*
X71Y1117D01*
X63Y1116D02*
X71Y1116D01*
X63Y1115D02*
X71Y1115D01*
X63Y1114D02*
X71Y1114D01*
X63Y1113D02*
X71Y1113D01*
X63Y1112D02*
X71Y1112D01*
X63Y1111D02*
X71Y1111D01*
X63Y1110D02*
X71Y1110D01*
X63Y1109D02*
X71Y1109D01*
X63Y1108D02*
X71Y1108D01*
X63Y1107D02*
X70Y1107D01*
X64Y1106D02*
X70Y1106D01*
X65Y1105D02*
X68Y1105D01*
X69Y951D02*
X71Y951D01*
X68Y950D02*
X73Y950D01*
X67Y949D02*
X74Y949D01*
X66Y948D02*
X74Y948D01*
X66Y947D02*
X74Y947D01*
X66Y946D02*
X74Y946D01*
X66Y945D02*
X74Y945D01*
X66Y944D02*
X74Y944D01*
X66Y943D02*
X74Y943D01*
X66Y942D02*
X74Y942D01*
X66Y941D02*
X74Y941D01*
X66Y940D02*
X74Y940D01*
X66Y939D02*
X74Y939D01*
X66Y938D02*
X74Y938D01*
X66Y937D02*
X74Y937D01*
X66Y936D02*
X74Y936D01*
X66Y935D02*
X74Y935D01*
X66Y934D02*
X74Y934D01*
X51Y933D02*
X89Y933D01*
X50Y932D02*
X91Y932D01*
X49Y931D02*
X92Y931D01*
X48Y930D02*
X92Y930D01*
X48Y929D02*
X92Y929D01*
X48Y928D02*
X92Y928D01*
X48Y927D02*
X92Y927D01*
X49Y926D02*
X92Y926D01*
X50Y925D02*
X91Y925D01*
X53Y924D02*
X87Y924D01*
X66Y923D02*
X74Y923D01*
X66Y922D02*
X74Y922D01*
X66Y921D02*
X74Y921D01*
X66Y920D02*
X74Y920D01*
X66Y919D02*
X74Y919D01*
X66Y918D02*
X74Y918D01*
X66Y917D02*
X74Y917D01*
X66Y916D02*
X74Y916D01*
X66Y915D02*
X74Y915D01*
X66Y914D02*
X74Y914D01*
X66Y913D02*
X74Y913D01*
X66Y912D02*
X74Y912D01*
X66Y911D02*
X74Y911D01*
X66Y910D02*
X74Y910D01*
X66Y909D02*
X74Y909D01*
X67Y908D02*
X74Y908D01*
X68Y907D02*
X73Y907D01*
X69Y906D02*
X71Y906D01*
X24Y862D02*
X57Y862D01*
X23Y861D02*
X58Y861D01*
X23Y860D02*
X59Y860D01*
X23Y859D02*
X59Y859D01*
X23Y858D02*
X59Y858D01*
X23Y857D02*
X59Y857D01*
X23Y856D02*
X58Y856D01*
X23Y855D02*
X57Y855D01*
X23Y854D02*
X30Y854D01*
X23Y853D02*
X30Y853D01*
X23Y852D02*
X30Y852D01*
X23Y851D02*
X30Y851D01*
X23Y850D02*
X30Y850D01*
X23Y849D02*
X30Y849D01*
X23Y848D02*
X30Y848D01*
X23Y847D02*
X30Y847D01*
X23Y846D02*
X30Y846D01*
X23Y845D02*
X30Y845D01*
X82Y845D02*
X85Y845D01*
X112Y845D02*
X114Y845D01*
X23Y844D02*
X30Y844D01*
X81Y844D02*
X86Y844D01*
X110Y844D02*
X116Y844D01*
X23Y843D02*
X30Y843D01*
X80Y843D02*
X87Y843D01*
X109Y843D02*
X116Y843D01*
X23Y842D02*
X30Y842D01*
X80Y842D02*
X88Y842D01*
X109Y842D02*
X116Y842D01*
X23Y841D02*
X30Y841D01*
X80Y841D02*
X89Y841D01*
X108Y841D02*
X116Y841D01*
X23Y840D02*
X30Y840D01*
X80Y840D02*
X89Y840D01*
X107Y840D02*
X116Y840D01*
X23Y839D02*
X30Y839D01*
X81Y839D02*
X90Y839D01*
X106Y839D02*
X115Y839D01*
X23Y838D02*
X30Y838D01*
X82Y838D02*
X91Y838D01*
X105Y838D02*
X115Y838D01*
X23Y837D02*
X30Y837D01*
X83Y837D02*
X92Y837D01*
X105Y837D02*
X114Y837D01*
X23Y836D02*
X30Y836D01*
X83Y836D02*
X93Y836D01*
X104Y836D02*
X113Y836D01*
X23Y835D02*
X45Y835D01*
X84Y835D02*
X94Y835D01*
X103Y835D02*
X112Y835D01*
X23Y834D02*
X46Y834D01*
X85Y834D02*
X94Y834D01*
X102Y834D02*
X111Y834D01*
X23Y833D02*
X46Y833D01*
X86Y833D02*
X95Y833D01*
X101Y833D02*
X110Y833D01*
X23Y832D02*
X46Y832D01*
X87Y832D02*
X96Y832D01*
X100Y832D02*
X110Y832D01*
X23Y831D02*
X46Y831D01*
X88Y831D02*
X97Y831D01*
X100Y831D02*
X109Y831D01*
X23Y830D02*
X46Y830D01*
X88Y830D02*
X108Y830D01*
X23Y829D02*
X45Y829D01*
X89Y829D02*
X107Y829D01*
X23Y828D02*
X44Y828D01*
X90Y828D02*
X106Y828D01*
X23Y827D02*
X30Y827D01*
X91Y827D02*
X106Y827D01*
X23Y826D02*
X30Y826D01*
X92Y826D02*
X105Y826D01*
X23Y825D02*
X30Y825D01*
X93Y825D02*
X104Y825D01*
X23Y824D02*
X30Y824D01*
X93Y824D02*
X103Y824D01*
X23Y823D02*
X30Y823D01*
X93Y823D02*
X104Y823D01*
X23Y822D02*
X30Y822D01*
X92Y822D02*
X104Y822D01*
X23Y821D02*
X30Y821D01*
X91Y821D02*
X105Y821D01*
X23Y820D02*
X30Y820D01*
X90Y820D02*
X106Y820D01*
X23Y819D02*
X30Y819D01*
X90Y819D02*
X107Y819D01*
X23Y818D02*
X30Y818D01*
X89Y818D02*
X108Y818D01*
X23Y817D02*
X30Y817D01*
X88Y817D02*
X97Y817D01*
X99Y817D02*
X108Y817D01*
X23Y816D02*
X30Y816D01*
X87Y816D02*
X97Y816D01*
X100Y816D02*
X109Y816D01*
X23Y815D02*
X30Y815D01*
X86Y815D02*
X96Y815D01*
X101Y815D02*
X110Y815D01*
X23Y814D02*
X30Y814D01*
X85Y814D02*
X95Y814D01*
X102Y814D02*
X111Y814D01*
X23Y813D02*
X30Y813D01*
X85Y813D02*
X94Y813D01*
X102Y813D02*
X112Y813D01*
X23Y812D02*
X30Y812D01*
X84Y812D02*
X93Y812D01*
X103Y812D02*
X113Y812D01*
X23Y811D02*
X30Y811D01*
X83Y811D02*
X92Y811D01*
X104Y811D02*
X113Y811D01*
X23Y810D02*
X30Y810D01*
X82Y810D02*
X92Y810D01*
X105Y810D02*
X114Y810D01*
X23Y809D02*
X30Y809D01*
X81Y809D02*
X91Y809D01*
X106Y809D02*
X115Y809D01*
X23Y808D02*
X58Y808D01*
X80Y808D02*
X90Y808D01*
X107Y808D02*
X116Y808D01*
X23Y807D02*
X59Y807D01*
X80Y807D02*
X89Y807D01*
X107Y807D02*
X117Y807D01*
X23Y806D02*
X59Y806D01*
X79Y806D02*
X88Y806D01*
X108Y806D02*
X117Y806D01*
X23Y805D02*
X59Y805D01*
X79Y805D02*
X87Y805D01*
X109Y805D02*
X117Y805D01*
X23Y804D02*
X59Y804D01*
X79Y804D02*
X87Y804D01*
X110Y804D02*
X117Y804D01*
X23Y803D02*
X59Y803D01*
X80Y803D02*
X86Y803D01*
X111Y803D02*
X117Y803D01*
X23Y802D02*
X58Y802D01*
X80Y802D02*
X85Y802D01*
X112Y802D02*
X116Y802D01*
X25Y801D02*
X56Y801D01*
X83Y801D02*
X83Y801D01*
X114Y801D02*
X114Y801D01*
X65Y752D02*
X69Y752D01*
X64Y751D02*
X70Y751D01*
X63Y750D02*
X70Y750D01*
X63Y749D02*
X71Y749D01*
X63Y748D02*
X71Y748D01*
X63Y747D02*
X71Y747D01*
X63Y746D02*
X71Y746D01*
X63Y745D02*
X71Y745D01*
X63Y744D02*
X71Y744D01*
X63Y743D02*
X71Y743D01*
X63Y742D02*
X71Y742D01*
X63Y741D02*
X71Y741D01*
X63Y740D02*
X71Y740D01*
X63Y739D02*
X71Y739D01*
X63Y738D02*
X71Y738D01*
X63Y737D02*
X71Y737D01*
X63Y736D02*
X71Y736D01*
X63Y735D02*
X71Y735D01*
X63Y734D02*
X71Y734D01*
X63Y733D02*
X71Y733D01*
X63Y732D02*
X71Y732D01*
X63Y731D02*
X71Y731D01*
X63Y730D02*
X71Y730D01*
X63Y729D02*
X71Y729D01*
X63Y728D02*
X71Y728D01*
X63Y727D02*
X71Y727D01*
X63Y726D02*
X71Y726D01*
X63Y725D02*
X71Y725D01*
X63Y724D02*
X71Y724D01*
X63Y723D02*
X71Y723D01*
X63Y722D02*
X71Y722D01*
X63Y721D02*
X71Y721D01*
X63Y720D02*
X71Y720D01*
X63Y719D02*
X71Y719D01*
X63Y718D02*
X71Y718D01*
X63Y717D02*
X71Y717D01*
X63Y716D02*
X71Y716D01*
X63Y715D02*
X71Y715D01*
X63Y714D02*
X71Y714D01*
X63Y713D02*
X71Y713D01*
X63Y712D02*
X71Y712D01*
X63Y711D02*
X71Y711D01*
X63Y710D02*
X71Y710D01*
X63Y709D02*
X70Y709D01*
X64Y708D02*
X69Y708D01*
X67Y707D02*
X67Y707D01*
X69Y553D02*
X72Y553D01*
X67Y552D02*
X73Y552D01*
X67Y551D02*
X74Y551D01*
X66Y550D02*
X74Y550D01*
X66Y549D02*
X74Y549D01*
X66Y548D02*
X74Y548D01*
X66Y547D02*
X74Y547D01*
X66Y546D02*
X74Y546D01*
X66Y545D02*
X74Y545D01*
X66Y544D02*
X74Y544D01*
X66Y543D02*
X74Y543D01*
X66Y542D02*
X74Y542D01*
X66Y541D02*
X74Y541D01*
X66Y540D02*
X74Y540D01*
X66Y539D02*
X74Y539D01*
X66Y538D02*
X74Y538D01*
X66Y537D02*
X74Y537D01*
X66Y536D02*
X74Y536D01*
X51Y535D02*
X90Y535D01*
X49Y534D02*
X91Y534D01*
X48Y533D02*
X92Y533D01*
X48Y532D02*
X92Y532D01*
X48Y531D02*
X93Y531D01*
X48Y530D02*
X92Y530D01*
X48Y529D02*
X92Y529D01*
X49Y528D02*
X91Y528D01*
X50Y527D02*
X90Y527D01*
X66Y526D02*
X75Y526D01*
X66Y525D02*
X74Y525D01*
X66Y524D02*
X74Y524D01*
X66Y523D02*
X74Y523D01*
X66Y522D02*
X74Y522D01*
X66Y521D02*
X74Y521D01*
X66Y520D02*
X74Y520D01*
X66Y519D02*
X74Y519D01*
X66Y518D02*
X74Y518D01*
X66Y517D02*
X74Y517D01*
X66Y516D02*
X74Y516D01*
X66Y515D02*
X74Y515D01*
X66Y514D02*
X74Y514D01*
X66Y513D02*
X74Y513D01*
X66Y512D02*
X74Y512D01*
X67Y511D02*
X74Y511D01*
X67Y510D02*
X73Y510D01*
X68Y509D02*
X72Y509D01*
X17Y460D02*
X41Y460D01*
X77Y460D02*
X105Y460D01*
X17Y459D02*
X45Y459D01*
X75Y459D02*
X108Y459D01*
X17Y458D02*
X47Y458D01*
X74Y458D02*
X109Y458D01*
X17Y457D02*
X48Y457D01*
X74Y457D02*
X110Y457D01*
X17Y456D02*
X50Y456D01*
X74Y456D02*
X111Y456D01*
X17Y455D02*
X51Y455D01*
X74Y455D02*
X111Y455D01*
X17Y454D02*
X51Y454D01*
X74Y454D02*
X112Y454D01*
X17Y453D02*
X52Y453D01*
X75Y453D02*
X112Y453D01*
X17Y452D02*
X24Y452D01*
X42Y452D02*
X53Y452D01*
X105Y452D02*
X112Y452D01*
X17Y451D02*
X24Y451D01*
X44Y451D02*
X53Y451D01*
X105Y451D02*
X112Y451D01*
X17Y450D02*
X24Y450D01*
X45Y450D02*
X54Y450D01*
X105Y450D02*
X112Y450D01*
X17Y449D02*
X24Y449D01*
X46Y449D02*
X54Y449D01*
X105Y449D02*
X112Y449D01*
X17Y448D02*
X24Y448D01*
X47Y448D02*
X54Y448D01*
X105Y448D02*
X112Y448D01*
X17Y447D02*
X24Y447D01*
X47Y447D02*
X55Y447D01*
X105Y447D02*
X112Y447D01*
X17Y446D02*
X24Y446D01*
X48Y446D02*
X55Y446D01*
X105Y446D02*
X112Y446D01*
X17Y445D02*
X24Y445D01*
X48Y445D02*
X55Y445D01*
X105Y445D02*
X112Y445D01*
X17Y444D02*
X24Y444D01*
X48Y444D02*
X55Y444D01*
X105Y444D02*
X112Y444D01*
X17Y443D02*
X24Y443D01*
X48Y443D02*
X55Y443D01*
X105Y443D02*
X112Y443D01*
X17Y442D02*
X24Y442D01*
X48Y442D02*
X55Y442D01*
X105Y442D02*
X112Y442D01*
X17Y441D02*
X24Y441D01*
X48Y441D02*
X55Y441D01*
X105Y441D02*
X112Y441D01*
X17Y440D02*
X24Y440D01*
X48Y440D02*
X55Y440D01*
X105Y440D02*
X112Y440D01*
X17Y439D02*
X24Y439D01*
X47Y439D02*
X55Y439D01*
X105Y439D02*
X112Y439D01*
X17Y438D02*
X24Y438D01*
X47Y438D02*
X54Y438D01*
X105Y438D02*
X112Y438D01*
X17Y437D02*
X24Y437D01*
X46Y437D02*
X54Y437D01*
X105Y437D02*
X112Y437D01*
X17Y436D02*
X24Y436D01*
X46Y436D02*
X54Y436D01*
X105Y436D02*
X112Y436D01*
X17Y435D02*
X24Y435D01*
X44Y435D02*
X53Y435D01*
X105Y435D02*
X112Y435D01*
X17Y434D02*
X24Y434D01*
X42Y434D02*
X53Y434D01*
X105Y434D02*
X112Y434D01*
X17Y433D02*
X52Y433D01*
X79Y433D02*
X112Y433D01*
X17Y432D02*
X52Y432D01*
X77Y432D02*
X112Y432D01*
X17Y431D02*
X51Y431D01*
X76Y431D02*
X111Y431D01*
X17Y430D02*
X50Y430D01*
X75Y430D02*
X111Y430D01*
X17Y429D02*
X50Y429D01*
X74Y429D02*
X110Y429D01*
X17Y428D02*
X51Y428D01*
X74Y428D02*
X109Y428D01*
X17Y427D02*
X52Y427D01*
X74Y427D02*
X108Y427D01*
X17Y426D02*
X52Y426D01*
X74Y426D02*
X106Y426D01*
X17Y425D02*
X24Y425D01*
X43Y425D02*
X53Y425D01*
X74Y425D02*
X81Y425D01*
X17Y424D02*
X24Y424D01*
X45Y424D02*
X53Y424D01*
X74Y424D02*
X81Y424D01*
X17Y423D02*
X24Y423D01*
X46Y423D02*
X54Y423D01*
X74Y423D02*
X81Y423D01*
X17Y422D02*
X24Y422D01*
X46Y422D02*
X54Y422D01*
X74Y422D02*
X81Y422D01*
X17Y421D02*
X24Y421D01*
X47Y421D02*
X54Y421D01*
X74Y421D02*
X81Y421D01*
X17Y420D02*
X24Y420D01*
X47Y420D02*
X54Y420D01*
X74Y420D02*
X81Y420D01*
X17Y419D02*
X24Y419D01*
X48Y419D02*
X55Y419D01*
X74Y419D02*
X81Y419D01*
X17Y418D02*
X24Y418D01*
X48Y418D02*
X55Y418D01*
X74Y418D02*
X81Y418D01*
X17Y417D02*
X24Y417D01*
X48Y417D02*
X55Y417D01*
X74Y417D02*
X81Y417D01*
X17Y416D02*
X24Y416D01*
X48Y416D02*
X55Y416D01*
X74Y416D02*
X81Y416D01*
X17Y415D02*
X24Y415D01*
X48Y415D02*
X55Y415D01*
X74Y415D02*
X81Y415D01*
X17Y414D02*
X24Y414D01*
X48Y414D02*
X55Y414D01*
X74Y414D02*
X81Y414D01*
X17Y413D02*
X24Y413D01*
X48Y413D02*
X55Y413D01*
X74Y413D02*
X81Y413D01*
X17Y412D02*
X24Y412D01*
X47Y412D02*
X55Y412D01*
X74Y412D02*
X81Y412D01*
X17Y411D02*
X24Y411D01*
X47Y411D02*
X54Y411D01*
X74Y411D02*
X81Y411D01*
X17Y410D02*
X24Y410D01*
X46Y410D02*
X54Y410D01*
X74Y410D02*
X81Y410D01*
X17Y409D02*
X24Y409D01*
X45Y409D02*
X54Y409D01*
X74Y409D02*
X81Y409D01*
X17Y408D02*
X24Y408D01*
X44Y408D02*
X53Y408D01*
X74Y408D02*
X81Y408D01*
X17Y407D02*
X24Y407D01*
X42Y407D02*
X53Y407D01*
X74Y407D02*
X81Y407D01*
X17Y406D02*
X52Y406D01*
X74Y406D02*
X110Y406D01*
X17Y405D02*
X51Y405D01*
X74Y405D02*
X111Y405D01*
X17Y404D02*
X51Y404D01*
X74Y404D02*
X112Y404D01*
X17Y403D02*
X50Y403D01*
X74Y403D02*
X112Y403D01*
X17Y402D02*
X48Y402D01*
X74Y402D02*
X112Y402D01*
X17Y401D02*
X47Y401D01*
X74Y401D02*
X111Y401D01*
X17Y400D02*
X45Y400D01*
X74Y400D02*
X111Y400D01*
X17Y399D02*
X41Y399D01*
X74Y399D02*
X109Y399D01*
X64Y354D02*
X69Y354D01*
X63Y353D02*
X70Y353D01*
X63Y352D02*
X71Y352D01*
X63Y351D02*
X71Y351D01*
X63Y350D02*
X71Y350D01*
X63Y349D02*
X71Y349D01*
X63Y348D02*
X71Y348D01*
X63Y347D02*
X71Y347D01*
X63Y346D02*
X71Y346D01*
X63Y345D02*
X71Y345D01*
X63Y344D02*
X71Y344D01*
X63Y343D02*
X71Y343D01*
X63Y342D02*
X71Y342D01*
X63Y341D02*
X71Y341D01*
X63Y340D02*
X71Y340D01*
X63Y339D02*
X71Y339D01*
X63Y338D02*
X71Y338D01*
X63Y337D02*
X71Y337D01*
X63Y336D02*
X71Y336D01*
X63Y335D02*
X71Y335D01*
X63Y334D02*
X71Y334D01*
X63Y333D02*
X71Y333D01*
X63Y332D02*
X71Y332D01*
X63Y331D02*
X71Y331D01*
X63Y330D02*
X71Y330D01*
X63Y329D02*
X71Y329D01*
X63Y328D02*
X71Y328D01*
X63Y327D02*
X71Y327D01*
X63Y326D02*
X71Y326D01*
X63Y325D02*
X71Y325D01*
X63Y324D02*
X71Y324D01*
X63Y323D02*
X71Y323D01*
X63Y322D02*
X71Y322D01*
X63Y321D02*
X71Y321D01*
X63Y320D02*
X71Y320D01*
X63Y319D02*
X71Y319D01*
X63Y318D02*
X71Y318D01*
X63Y317D02*
X71Y317D01*
X63Y316D02*
X71Y316D01*
X63Y315D02*
X71Y315D01*
X63Y314D02*
X71Y314D01*
X63Y313D02*
X71Y313D01*
X63Y312D02*
X71Y312D01*
X63Y311D02*
X70Y311D01*
X64Y310D02*
X69Y310D01*
D02*
G04 End of Silk1*
M02*