G04 MADE WITH FRITZING*
G04 WWW.FRITZING.ORG*
G04 DOUBLE SIDED*
G04 HOLES PLATED*
G04 CONTOUR ON CENTER OF CONTOUR VECTOR*
%ASAXBY*%
%FSLAX23Y23*%
%MOIN*%
%OFA0B0*%
%SFA1.0B1.0*%
%ADD10R,2.249910X1.249440X2.233910X1.233440*%
%ADD11C,0.008000*%
%ADD12C,0.010000*%
%ADD13C,0.005000*%
%ADD14R,0.001000X0.001000*%
%LNSILK1*%
G90*
G70*
G54D11*
X4Y1245D02*
X2246Y1245D01*
X2246Y4D01*
X4Y4D01*
X4Y1245D01*
D02*
G54D12*
X2205Y1206D02*
X305Y1206D01*
D02*
X305Y1206D02*
X305Y1106D01*
D02*
X305Y1106D02*
X2205Y1106D01*
D02*
X2205Y1106D02*
X2205Y1206D01*
G54D13*
D02*
X2170Y1206D02*
X2205Y1171D01*
G54D12*
D02*
X2205Y206D02*
X305Y206D01*
D02*
X305Y206D02*
X305Y106D01*
D02*
X305Y106D02*
X2205Y106D01*
D02*
X2205Y106D02*
X2205Y206D01*
G54D13*
D02*
X2170Y206D02*
X2205Y171D01*
G54D12*
D02*
X1405Y306D02*
X1405Y406D01*
D02*
X1405Y406D02*
X1305Y406D01*
D02*
X1305Y406D02*
X1305Y306D01*
D02*
X1305Y306D02*
X1405Y306D01*
G54D13*
D02*
X1405Y341D02*
X1370Y306D01*
G54D12*
D02*
X305Y1206D02*
X205Y1206D01*
D02*
X205Y1206D02*
X205Y1106D01*
D02*
X205Y1106D02*
X305Y1106D01*
D02*
X305Y1106D02*
X305Y1206D01*
G54D13*
D02*
X270Y1206D02*
X305Y1171D01*
G54D12*
D02*
X305Y406D02*
X205Y406D01*
D02*
X205Y406D02*
X205Y306D01*
D02*
X205Y306D02*
X305Y306D01*
D02*
X305Y306D02*
X305Y406D01*
G54D13*
D02*
X270Y406D02*
X305Y371D01*
G54D12*
D02*
X1405Y706D02*
X1305Y706D01*
D02*
X1305Y706D02*
X1305Y606D01*
D02*
X1305Y606D02*
X1405Y606D01*
D02*
X1405Y606D02*
X1405Y706D01*
G54D13*
D02*
X1370Y706D02*
X1405Y671D01*
G54D12*
D02*
X205Y306D02*
X205Y1106D01*
D02*
X205Y1106D02*
X105Y1106D01*
D02*
X105Y1106D02*
X105Y306D01*
D02*
X105Y306D02*
X205Y306D01*
G54D13*
D02*
X205Y341D02*
X170Y306D01*
G54D14*
X1832Y1083D02*
X1833Y1083D01*
X1873Y1083D02*
X1874Y1083D01*
X1830Y1082D02*
X1834Y1082D01*
X1871Y1082D02*
X1875Y1082D01*
X1830Y1081D02*
X1835Y1081D01*
X1871Y1081D02*
X1876Y1081D01*
X241Y1080D02*
X241Y1080D01*
X265Y1080D02*
X265Y1080D01*
X297Y1080D02*
X309Y1080D01*
X341Y1080D02*
X353Y1080D01*
X1830Y1080D02*
X1835Y1080D01*
X1871Y1080D02*
X1876Y1080D01*
X239Y1079D02*
X243Y1079D01*
X263Y1079D02*
X267Y1079D01*
X294Y1079D02*
X311Y1079D01*
X337Y1079D02*
X354Y1079D01*
X1830Y1079D02*
X1835Y1079D01*
X1871Y1079D02*
X1876Y1079D01*
X239Y1078D02*
X243Y1078D01*
X263Y1078D02*
X267Y1078D01*
X292Y1078D02*
X311Y1078D01*
X336Y1078D02*
X355Y1078D01*
X1830Y1078D02*
X1835Y1078D01*
X1871Y1078D02*
X1876Y1078D01*
X238Y1077D02*
X244Y1077D01*
X262Y1077D02*
X268Y1077D01*
X291Y1077D02*
X311Y1077D01*
X335Y1077D02*
X355Y1077D01*
X1830Y1077D02*
X1835Y1077D01*
X1871Y1077D02*
X1876Y1077D01*
X238Y1076D02*
X244Y1076D01*
X262Y1076D02*
X268Y1076D01*
X290Y1076D02*
X311Y1076D01*
X334Y1076D02*
X355Y1076D01*
X1830Y1076D02*
X1835Y1076D01*
X1871Y1076D02*
X1876Y1076D01*
X238Y1075D02*
X244Y1075D01*
X262Y1075D02*
X268Y1075D01*
X290Y1075D02*
X310Y1075D01*
X333Y1075D02*
X354Y1075D01*
X1830Y1075D02*
X1835Y1075D01*
X1871Y1075D02*
X1876Y1075D01*
X238Y1074D02*
X244Y1074D01*
X262Y1074D02*
X268Y1074D01*
X289Y1074D02*
X297Y1074D01*
X333Y1074D02*
X341Y1074D01*
X1830Y1074D02*
X1835Y1074D01*
X1871Y1074D02*
X1876Y1074D01*
X238Y1073D02*
X244Y1073D01*
X262Y1073D02*
X268Y1073D01*
X289Y1073D02*
X295Y1073D01*
X332Y1073D02*
X339Y1073D01*
X1830Y1073D02*
X1835Y1073D01*
X1871Y1073D02*
X1876Y1073D01*
X238Y1072D02*
X244Y1072D01*
X262Y1072D02*
X268Y1072D01*
X288Y1072D02*
X294Y1072D01*
X332Y1072D02*
X338Y1072D01*
X1830Y1072D02*
X1835Y1072D01*
X1871Y1072D02*
X1876Y1072D01*
X238Y1071D02*
X244Y1071D01*
X262Y1071D02*
X268Y1071D01*
X288Y1071D02*
X294Y1071D01*
X332Y1071D02*
X337Y1071D01*
X1830Y1071D02*
X1876Y1071D01*
X238Y1070D02*
X244Y1070D01*
X262Y1070D02*
X268Y1070D01*
X287Y1070D02*
X293Y1070D01*
X331Y1070D02*
X337Y1070D01*
X1830Y1070D02*
X1876Y1070D01*
X238Y1069D02*
X244Y1069D01*
X262Y1069D02*
X268Y1069D01*
X287Y1069D02*
X293Y1069D01*
X331Y1069D02*
X336Y1069D01*
X1830Y1069D02*
X1876Y1069D01*
X238Y1068D02*
X244Y1068D01*
X262Y1068D02*
X268Y1068D01*
X286Y1068D02*
X292Y1068D01*
X330Y1068D02*
X336Y1068D01*
X1830Y1068D02*
X1876Y1068D01*
X238Y1067D02*
X244Y1067D01*
X262Y1067D02*
X268Y1067D01*
X286Y1067D02*
X292Y1067D01*
X330Y1067D02*
X335Y1067D01*
X1830Y1067D02*
X1876Y1067D01*
X239Y1066D02*
X244Y1066D01*
X262Y1066D02*
X267Y1066D01*
X285Y1066D02*
X291Y1066D01*
X329Y1066D02*
X335Y1066D01*
X1830Y1066D02*
X1876Y1066D01*
X239Y1065D02*
X244Y1065D01*
X262Y1065D02*
X267Y1065D01*
X285Y1065D02*
X291Y1065D01*
X329Y1065D02*
X334Y1065D01*
X1830Y1065D02*
X1835Y1065D01*
X239Y1064D02*
X245Y1064D01*
X261Y1064D02*
X267Y1064D01*
X284Y1064D02*
X290Y1064D01*
X328Y1064D02*
X334Y1064D01*
X1830Y1064D02*
X1835Y1064D01*
X240Y1063D02*
X245Y1063D01*
X261Y1063D02*
X266Y1063D01*
X284Y1063D02*
X290Y1063D01*
X328Y1063D02*
X333Y1063D01*
X1830Y1063D02*
X1835Y1063D01*
X240Y1062D02*
X246Y1062D01*
X260Y1062D02*
X266Y1062D01*
X283Y1062D02*
X289Y1062D01*
X327Y1062D02*
X333Y1062D01*
X1830Y1062D02*
X1835Y1062D01*
X240Y1061D02*
X246Y1061D01*
X260Y1061D02*
X266Y1061D01*
X283Y1061D02*
X289Y1061D01*
X327Y1061D02*
X332Y1061D01*
X1830Y1061D02*
X1835Y1061D01*
X241Y1060D02*
X246Y1060D01*
X260Y1060D02*
X265Y1060D01*
X283Y1060D02*
X288Y1060D01*
X326Y1060D02*
X332Y1060D01*
X1830Y1060D02*
X1835Y1060D01*
X241Y1059D02*
X247Y1059D01*
X259Y1059D02*
X265Y1059D01*
X282Y1059D02*
X288Y1059D01*
X326Y1059D02*
X332Y1059D01*
X1830Y1059D02*
X1848Y1059D01*
X242Y1058D02*
X247Y1058D01*
X259Y1058D02*
X264Y1058D01*
X282Y1058D02*
X288Y1058D01*
X326Y1058D02*
X331Y1058D01*
X1830Y1058D02*
X1849Y1058D01*
X242Y1057D02*
X248Y1057D01*
X258Y1057D02*
X264Y1057D01*
X282Y1057D02*
X287Y1057D01*
X326Y1057D02*
X331Y1057D01*
X1830Y1057D02*
X1850Y1057D01*
X242Y1056D02*
X248Y1056D01*
X258Y1056D02*
X264Y1056D01*
X282Y1056D02*
X287Y1056D01*
X326Y1056D02*
X331Y1056D01*
X1830Y1056D02*
X1850Y1056D01*
X243Y1055D02*
X248Y1055D01*
X258Y1055D02*
X263Y1055D01*
X282Y1055D02*
X288Y1055D01*
X326Y1055D02*
X331Y1055D01*
X1830Y1055D02*
X1850Y1055D01*
X243Y1054D02*
X249Y1054D01*
X257Y1054D02*
X263Y1054D01*
X283Y1054D02*
X288Y1054D01*
X326Y1054D02*
X332Y1054D01*
X1831Y1054D02*
X1849Y1054D01*
X244Y1053D02*
X249Y1053D01*
X257Y1053D02*
X262Y1053D01*
X283Y1053D02*
X288Y1053D01*
X326Y1053D02*
X332Y1053D01*
X244Y1052D02*
X250Y1052D01*
X256Y1052D02*
X262Y1052D01*
X283Y1052D02*
X289Y1052D01*
X327Y1052D02*
X332Y1052D01*
X244Y1051D02*
X250Y1051D01*
X256Y1051D02*
X262Y1051D01*
X283Y1051D02*
X289Y1051D01*
X327Y1051D02*
X333Y1051D01*
X245Y1050D02*
X250Y1050D01*
X256Y1050D02*
X261Y1050D01*
X284Y1050D02*
X290Y1050D01*
X328Y1050D02*
X333Y1050D01*
X245Y1049D02*
X251Y1049D01*
X255Y1049D02*
X261Y1049D01*
X284Y1049D02*
X290Y1049D01*
X328Y1049D02*
X334Y1049D01*
X246Y1048D02*
X251Y1048D01*
X255Y1048D02*
X260Y1048D01*
X285Y1048D02*
X291Y1048D01*
X329Y1048D02*
X334Y1048D01*
X246Y1047D02*
X252Y1047D01*
X254Y1047D02*
X260Y1047D01*
X285Y1047D02*
X291Y1047D01*
X329Y1047D02*
X335Y1047D01*
X246Y1046D02*
X252Y1046D01*
X254Y1046D02*
X260Y1046D01*
X286Y1046D02*
X292Y1046D01*
X330Y1046D02*
X335Y1046D01*
X247Y1045D02*
X259Y1045D01*
X286Y1045D02*
X292Y1045D01*
X330Y1045D02*
X336Y1045D01*
X247Y1044D02*
X259Y1044D01*
X287Y1044D02*
X293Y1044D01*
X331Y1044D02*
X336Y1044D01*
X247Y1043D02*
X259Y1043D01*
X287Y1043D02*
X293Y1043D01*
X331Y1043D02*
X337Y1043D01*
X248Y1042D02*
X258Y1042D01*
X288Y1042D02*
X294Y1042D01*
X332Y1042D02*
X337Y1042D01*
X248Y1041D02*
X258Y1041D01*
X288Y1041D02*
X294Y1041D01*
X332Y1041D02*
X338Y1041D01*
X249Y1040D02*
X257Y1040D01*
X289Y1040D02*
X295Y1040D01*
X333Y1040D02*
X339Y1040D01*
X249Y1039D02*
X257Y1039D01*
X289Y1039D02*
X308Y1039D01*
X333Y1039D02*
X352Y1039D01*
X1834Y1039D02*
X1836Y1039D01*
X249Y1038D02*
X257Y1038D01*
X290Y1038D02*
X311Y1038D01*
X334Y1038D02*
X354Y1038D01*
X1833Y1038D02*
X1837Y1038D01*
X250Y1037D02*
X256Y1037D01*
X291Y1037D02*
X311Y1037D01*
X334Y1037D02*
X355Y1037D01*
X1832Y1037D02*
X1837Y1037D01*
X250Y1036D02*
X256Y1036D01*
X291Y1036D02*
X311Y1036D01*
X335Y1036D02*
X355Y1036D01*
X1832Y1036D02*
X1837Y1036D01*
X251Y1035D02*
X255Y1035D01*
X292Y1035D02*
X311Y1035D01*
X336Y1035D02*
X355Y1035D01*
X1831Y1035D02*
X1837Y1035D01*
X251Y1034D02*
X255Y1034D01*
X294Y1034D02*
X311Y1034D01*
X338Y1034D02*
X354Y1034D01*
X1831Y1034D02*
X1836Y1034D01*
X253Y1033D02*
X253Y1033D01*
X297Y1033D02*
X309Y1033D01*
X341Y1033D02*
X352Y1033D01*
X1830Y1033D02*
X1836Y1033D01*
X1850Y1033D02*
X1876Y1033D01*
X1830Y1032D02*
X1836Y1032D01*
X1850Y1032D02*
X1876Y1032D01*
X1830Y1031D02*
X1835Y1031D01*
X1850Y1031D02*
X1876Y1031D01*
X1830Y1030D02*
X1835Y1030D01*
X1850Y1030D02*
X1876Y1030D01*
X1830Y1029D02*
X1835Y1029D01*
X1850Y1029D02*
X1876Y1029D01*
X1830Y1028D02*
X1835Y1028D01*
X1850Y1028D02*
X1876Y1028D01*
X1830Y1027D02*
X1835Y1027D01*
X1850Y1027D02*
X1855Y1027D01*
X1871Y1027D02*
X1876Y1027D01*
X1830Y1026D02*
X1835Y1026D01*
X1850Y1026D02*
X1855Y1026D01*
X1871Y1026D02*
X1876Y1026D01*
X1830Y1025D02*
X1835Y1025D01*
X1850Y1025D02*
X1855Y1025D01*
X1871Y1025D02*
X1876Y1025D01*
X1830Y1024D02*
X1835Y1024D01*
X1850Y1024D02*
X1855Y1024D01*
X1871Y1024D02*
X1876Y1024D01*
X1830Y1023D02*
X1835Y1023D01*
X1850Y1023D02*
X1855Y1023D01*
X1871Y1023D02*
X1876Y1023D01*
X1830Y1022D02*
X1835Y1022D01*
X1850Y1022D02*
X1855Y1022D01*
X1871Y1022D02*
X1876Y1022D01*
X1830Y1021D02*
X1835Y1021D01*
X1850Y1021D02*
X1855Y1021D01*
X1871Y1021D02*
X1876Y1021D01*
X1830Y1020D02*
X1835Y1020D01*
X1850Y1020D02*
X1855Y1020D01*
X1871Y1020D02*
X1876Y1020D01*
X1830Y1019D02*
X1835Y1019D01*
X1850Y1019D02*
X1855Y1019D01*
X1871Y1019D02*
X1876Y1019D01*
X1830Y1018D02*
X1835Y1018D01*
X1850Y1018D02*
X1855Y1018D01*
X1871Y1018D02*
X1876Y1018D01*
X1830Y1017D02*
X1835Y1017D01*
X1850Y1017D02*
X1855Y1017D01*
X1871Y1017D02*
X1876Y1017D01*
X1830Y1016D02*
X1835Y1016D01*
X1850Y1016D02*
X1855Y1016D01*
X1871Y1016D02*
X1876Y1016D01*
X1830Y1015D02*
X1855Y1015D01*
X1871Y1015D02*
X1876Y1015D01*
X1830Y1014D02*
X1855Y1014D01*
X1871Y1014D02*
X1876Y1014D01*
X1830Y1013D02*
X1855Y1013D01*
X1871Y1013D02*
X1876Y1013D01*
X1831Y1012D02*
X1854Y1012D01*
X1871Y1012D02*
X1876Y1012D01*
X1832Y1011D02*
X1853Y1011D01*
X1871Y1011D02*
X1875Y1011D01*
X1833Y1010D02*
X1852Y1010D01*
X1872Y1010D02*
X1875Y1010D01*
X250Y978D02*
X263Y978D01*
X279Y978D02*
X286Y978D01*
X304Y978D02*
X306Y978D01*
X324Y978D02*
X339Y978D01*
X248Y977D02*
X264Y977D01*
X279Y977D02*
X286Y977D01*
X303Y977D02*
X307Y977D01*
X323Y977D02*
X341Y977D01*
X247Y976D02*
X264Y976D01*
X279Y976D02*
X287Y976D01*
X303Y976D02*
X308Y976D01*
X323Y976D02*
X342Y976D01*
X246Y975D02*
X264Y975D01*
X279Y975D02*
X287Y975D01*
X303Y975D02*
X308Y975D01*
X323Y975D02*
X343Y975D01*
X245Y974D02*
X264Y974D01*
X279Y974D02*
X288Y974D01*
X303Y974D02*
X308Y974D01*
X323Y974D02*
X344Y974D01*
X244Y973D02*
X263Y973D01*
X279Y973D02*
X288Y973D01*
X303Y973D02*
X308Y973D01*
X324Y973D02*
X344Y973D01*
X243Y972D02*
X251Y972D01*
X279Y972D02*
X289Y972D01*
X303Y972D02*
X308Y972D01*
X328Y972D02*
X334Y972D01*
X338Y972D02*
X345Y972D01*
X243Y971D02*
X249Y971D01*
X279Y971D02*
X289Y971D01*
X303Y971D02*
X308Y971D01*
X328Y971D02*
X334Y971D01*
X339Y971D02*
X345Y971D01*
X242Y970D02*
X249Y970D01*
X279Y970D02*
X289Y970D01*
X303Y970D02*
X308Y970D01*
X328Y970D02*
X334Y970D01*
X340Y970D02*
X346Y970D01*
X241Y969D02*
X248Y969D01*
X279Y969D02*
X290Y969D01*
X303Y969D02*
X308Y969D01*
X328Y969D02*
X334Y969D01*
X340Y969D02*
X346Y969D01*
X240Y968D02*
X247Y968D01*
X279Y968D02*
X290Y968D01*
X303Y968D02*
X308Y968D01*
X328Y968D02*
X334Y968D01*
X341Y968D02*
X347Y968D01*
X239Y967D02*
X246Y967D01*
X279Y967D02*
X291Y967D01*
X303Y967D02*
X308Y967D01*
X328Y967D02*
X334Y967D01*
X341Y967D02*
X347Y967D01*
X239Y966D02*
X245Y966D01*
X279Y966D02*
X291Y966D01*
X303Y966D02*
X308Y966D01*
X328Y966D02*
X334Y966D01*
X342Y966D02*
X348Y966D01*
X238Y965D02*
X245Y965D01*
X279Y965D02*
X284Y965D01*
X286Y965D02*
X292Y965D01*
X303Y965D02*
X308Y965D01*
X328Y965D02*
X334Y965D01*
X342Y965D02*
X348Y965D01*
X237Y964D02*
X244Y964D01*
X279Y964D02*
X284Y964D01*
X286Y964D02*
X292Y964D01*
X303Y964D02*
X308Y964D01*
X328Y964D02*
X334Y964D01*
X343Y964D02*
X349Y964D01*
X237Y963D02*
X243Y963D01*
X279Y963D02*
X284Y963D01*
X287Y963D02*
X293Y963D01*
X303Y963D02*
X308Y963D01*
X328Y963D02*
X334Y963D01*
X343Y963D02*
X349Y963D01*
X236Y962D02*
X242Y962D01*
X279Y962D02*
X284Y962D01*
X287Y962D02*
X293Y962D01*
X303Y962D02*
X308Y962D01*
X328Y962D02*
X334Y962D01*
X344Y962D02*
X350Y962D01*
X236Y961D02*
X242Y961D01*
X279Y961D02*
X284Y961D01*
X288Y961D02*
X293Y961D01*
X303Y961D02*
X308Y961D01*
X328Y961D02*
X334Y961D01*
X344Y961D02*
X350Y961D01*
X235Y960D02*
X241Y960D01*
X279Y960D02*
X284Y960D01*
X288Y960D02*
X294Y960D01*
X303Y960D02*
X308Y960D01*
X328Y960D02*
X334Y960D01*
X345Y960D02*
X350Y960D01*
X235Y959D02*
X240Y959D01*
X279Y959D02*
X284Y959D01*
X289Y959D02*
X294Y959D01*
X303Y959D02*
X308Y959D01*
X328Y959D02*
X334Y959D01*
X345Y959D02*
X351Y959D01*
X235Y958D02*
X240Y958D01*
X279Y958D02*
X284Y958D01*
X289Y958D02*
X295Y958D01*
X303Y958D02*
X308Y958D01*
X328Y958D02*
X334Y958D01*
X346Y958D02*
X351Y958D01*
X235Y957D02*
X240Y957D01*
X279Y957D02*
X284Y957D01*
X289Y957D02*
X295Y957D01*
X303Y957D02*
X308Y957D01*
X328Y957D02*
X334Y957D01*
X346Y957D02*
X351Y957D01*
X235Y956D02*
X240Y956D01*
X279Y956D02*
X284Y956D01*
X290Y956D02*
X296Y956D01*
X303Y956D02*
X308Y956D01*
X328Y956D02*
X334Y956D01*
X346Y956D02*
X351Y956D01*
X235Y955D02*
X240Y955D01*
X279Y955D02*
X284Y955D01*
X290Y955D02*
X296Y955D01*
X303Y955D02*
X308Y955D01*
X328Y955D02*
X334Y955D01*
X346Y955D02*
X352Y955D01*
X235Y954D02*
X240Y954D01*
X279Y954D02*
X284Y954D01*
X291Y954D02*
X296Y954D01*
X303Y954D02*
X308Y954D01*
X328Y954D02*
X334Y954D01*
X346Y954D02*
X351Y954D01*
X235Y953D02*
X240Y953D01*
X279Y953D02*
X284Y953D01*
X291Y953D02*
X297Y953D01*
X303Y953D02*
X308Y953D01*
X328Y953D02*
X334Y953D01*
X346Y953D02*
X351Y953D01*
X235Y952D02*
X240Y952D01*
X251Y952D02*
X264Y952D01*
X279Y952D02*
X284Y952D01*
X292Y952D02*
X297Y952D01*
X303Y952D02*
X308Y952D01*
X328Y952D02*
X334Y952D01*
X346Y952D02*
X351Y952D01*
X235Y951D02*
X240Y951D01*
X250Y951D02*
X264Y951D01*
X279Y951D02*
X284Y951D01*
X292Y951D02*
X298Y951D01*
X303Y951D02*
X308Y951D01*
X328Y951D02*
X334Y951D01*
X345Y951D02*
X351Y951D01*
X235Y950D02*
X240Y950D01*
X250Y950D02*
X264Y950D01*
X279Y950D02*
X284Y950D01*
X292Y950D02*
X298Y950D01*
X303Y950D02*
X308Y950D01*
X328Y950D02*
X334Y950D01*
X345Y950D02*
X351Y950D01*
X235Y949D02*
X240Y949D01*
X250Y949D02*
X264Y949D01*
X279Y949D02*
X284Y949D01*
X293Y949D02*
X299Y949D01*
X303Y949D02*
X308Y949D01*
X328Y949D02*
X334Y949D01*
X344Y949D02*
X350Y949D01*
X235Y948D02*
X240Y948D01*
X251Y948D02*
X264Y948D01*
X279Y948D02*
X284Y948D01*
X293Y948D02*
X299Y948D01*
X303Y948D02*
X308Y948D01*
X328Y948D02*
X334Y948D01*
X344Y948D02*
X350Y948D01*
X235Y947D02*
X240Y947D01*
X252Y947D02*
X264Y947D01*
X279Y947D02*
X284Y947D01*
X294Y947D02*
X300Y947D01*
X303Y947D02*
X308Y947D01*
X328Y947D02*
X334Y947D01*
X343Y947D02*
X349Y947D01*
X235Y946D02*
X240Y946D01*
X259Y946D02*
X264Y946D01*
X279Y946D02*
X284Y946D01*
X294Y946D02*
X300Y946D01*
X303Y946D02*
X308Y946D01*
X328Y946D02*
X334Y946D01*
X343Y946D02*
X349Y946D01*
X235Y945D02*
X240Y945D01*
X259Y945D02*
X264Y945D01*
X279Y945D02*
X284Y945D01*
X295Y945D02*
X300Y945D01*
X303Y945D02*
X308Y945D01*
X328Y945D02*
X334Y945D01*
X342Y945D02*
X348Y945D01*
X235Y944D02*
X240Y944D01*
X259Y944D02*
X264Y944D01*
X279Y944D02*
X284Y944D01*
X295Y944D02*
X301Y944D01*
X303Y944D02*
X308Y944D01*
X328Y944D02*
X334Y944D01*
X342Y944D02*
X348Y944D01*
X235Y943D02*
X240Y943D01*
X259Y943D02*
X264Y943D01*
X279Y943D02*
X284Y943D01*
X296Y943D02*
X308Y943D01*
X328Y943D02*
X334Y943D01*
X341Y943D02*
X347Y943D01*
X235Y942D02*
X240Y942D01*
X259Y942D02*
X264Y942D01*
X279Y942D02*
X284Y942D01*
X296Y942D02*
X308Y942D01*
X328Y942D02*
X334Y942D01*
X341Y942D02*
X347Y942D01*
X235Y941D02*
X240Y941D01*
X259Y941D02*
X264Y941D01*
X279Y941D02*
X284Y941D01*
X296Y941D02*
X308Y941D01*
X328Y941D02*
X334Y941D01*
X340Y941D02*
X346Y941D01*
X235Y940D02*
X240Y940D01*
X259Y940D02*
X264Y940D01*
X279Y940D02*
X284Y940D01*
X297Y940D02*
X308Y940D01*
X328Y940D02*
X334Y940D01*
X340Y940D02*
X346Y940D01*
X235Y939D02*
X240Y939D01*
X258Y939D02*
X264Y939D01*
X279Y939D02*
X284Y939D01*
X297Y939D02*
X308Y939D01*
X328Y939D02*
X334Y939D01*
X339Y939D02*
X345Y939D01*
X235Y938D02*
X241Y938D01*
X258Y938D02*
X264Y938D01*
X279Y938D02*
X284Y938D01*
X298Y938D02*
X308Y938D01*
X328Y938D02*
X334Y938D01*
X338Y938D02*
X345Y938D01*
X236Y937D02*
X263Y937D01*
X279Y937D02*
X284Y937D01*
X298Y937D02*
X308Y937D01*
X324Y937D02*
X344Y937D01*
X236Y936D02*
X263Y936D01*
X279Y936D02*
X284Y936D01*
X299Y936D02*
X308Y936D01*
X323Y936D02*
X344Y936D01*
X237Y935D02*
X262Y935D01*
X279Y935D02*
X284Y935D01*
X299Y935D02*
X308Y935D01*
X323Y935D02*
X343Y935D01*
X238Y934D02*
X261Y934D01*
X279Y934D02*
X284Y934D01*
X299Y934D02*
X308Y934D01*
X322Y934D02*
X342Y934D01*
X239Y933D02*
X260Y933D01*
X279Y933D02*
X283Y933D01*
X300Y933D02*
X308Y933D01*
X323Y933D02*
X341Y933D01*
X240Y932D02*
X258Y932D01*
X280Y932D02*
X283Y932D01*
X300Y932D02*
X308Y932D01*
X324Y932D02*
X339Y932D01*
X256Y882D02*
X270Y882D01*
X291Y882D02*
X309Y882D01*
X254Y881D02*
X271Y881D01*
X289Y881D02*
X312Y881D01*
X252Y880D02*
X272Y880D01*
X288Y880D02*
X313Y880D01*
X251Y879D02*
X272Y879D01*
X287Y879D02*
X314Y879D01*
X251Y878D02*
X271Y878D01*
X287Y878D02*
X314Y878D01*
X250Y877D02*
X271Y877D01*
X286Y877D02*
X315Y877D01*
X249Y876D02*
X256Y876D01*
X286Y876D02*
X292Y876D01*
X309Y876D02*
X315Y876D01*
X249Y875D02*
X255Y875D01*
X286Y875D02*
X292Y875D01*
X310Y875D02*
X315Y875D01*
X248Y874D02*
X254Y874D01*
X287Y874D02*
X292Y874D01*
X310Y874D02*
X315Y874D01*
X248Y873D02*
X254Y873D01*
X287Y873D02*
X293Y873D01*
X311Y873D02*
X315Y873D01*
X248Y872D02*
X253Y872D01*
X287Y872D02*
X294Y872D01*
X311Y872D02*
X315Y872D01*
X247Y871D02*
X253Y871D01*
X288Y871D02*
X295Y871D01*
X247Y870D02*
X252Y870D01*
X289Y870D02*
X295Y870D01*
X246Y869D02*
X252Y869D01*
X289Y869D02*
X296Y869D01*
X246Y868D02*
X251Y868D01*
X290Y868D02*
X297Y868D01*
X245Y867D02*
X251Y867D01*
X291Y867D02*
X298Y867D01*
X245Y866D02*
X250Y866D01*
X292Y866D02*
X298Y866D01*
X244Y865D02*
X250Y865D01*
X292Y865D02*
X299Y865D01*
X244Y864D02*
X249Y864D01*
X293Y864D02*
X300Y864D01*
X243Y863D02*
X249Y863D01*
X294Y863D02*
X301Y863D01*
X243Y862D02*
X248Y862D01*
X295Y862D02*
X302Y862D01*
X243Y861D02*
X248Y861D01*
X296Y861D02*
X302Y861D01*
X243Y860D02*
X248Y860D01*
X296Y860D02*
X303Y860D01*
X243Y859D02*
X248Y859D01*
X297Y859D02*
X304Y859D01*
X243Y858D02*
X248Y858D01*
X298Y858D02*
X305Y858D01*
X243Y857D02*
X248Y857D01*
X299Y857D02*
X305Y857D01*
X243Y856D02*
X248Y856D01*
X299Y856D02*
X306Y856D01*
X243Y855D02*
X249Y855D01*
X300Y855D02*
X307Y855D01*
X243Y854D02*
X249Y854D01*
X301Y854D02*
X308Y854D01*
X244Y853D02*
X250Y853D01*
X302Y853D02*
X309Y853D01*
X244Y852D02*
X250Y852D01*
X303Y852D02*
X309Y852D01*
X245Y851D02*
X251Y851D01*
X303Y851D02*
X310Y851D01*
X245Y850D02*
X251Y850D01*
X304Y850D02*
X311Y850D01*
X246Y849D02*
X252Y849D01*
X305Y849D02*
X312Y849D01*
X246Y848D02*
X252Y848D01*
X306Y848D02*
X312Y848D01*
X247Y847D02*
X253Y847D01*
X306Y847D02*
X313Y847D01*
X247Y846D02*
X253Y846D01*
X288Y846D02*
X290Y846D01*
X307Y846D02*
X314Y846D01*
X248Y845D02*
X254Y845D01*
X287Y845D02*
X291Y845D01*
X308Y845D02*
X315Y845D01*
X248Y844D02*
X254Y844D01*
X286Y844D02*
X291Y844D01*
X309Y844D02*
X315Y844D01*
X249Y843D02*
X255Y843D01*
X286Y843D02*
X291Y843D01*
X310Y843D02*
X315Y843D01*
X249Y842D02*
X255Y842D01*
X286Y842D02*
X292Y842D01*
X310Y842D02*
X315Y842D01*
X250Y841D02*
X269Y841D01*
X287Y841D02*
X315Y841D01*
X250Y840D02*
X271Y840D01*
X287Y840D02*
X315Y840D01*
X251Y839D02*
X272Y839D01*
X288Y839D02*
X315Y839D01*
X252Y838D02*
X272Y838D01*
X288Y838D02*
X314Y838D01*
X253Y837D02*
X271Y837D01*
X289Y837D02*
X313Y837D01*
X254Y836D02*
X271Y836D01*
X291Y836D02*
X312Y836D01*
X247Y773D02*
X270Y773D01*
X291Y773D02*
X319Y773D01*
X339Y773D02*
X359Y773D01*
X247Y772D02*
X272Y772D01*
X291Y772D02*
X320Y772D01*
X338Y772D02*
X360Y772D01*
X247Y771D02*
X273Y771D01*
X291Y771D02*
X320Y771D01*
X337Y771D02*
X362Y771D01*
X247Y770D02*
X274Y770D01*
X291Y770D02*
X320Y770D01*
X336Y770D02*
X362Y770D01*
X247Y769D02*
X275Y769D01*
X291Y769D02*
X320Y769D01*
X335Y769D02*
X363Y769D01*
X247Y768D02*
X276Y768D01*
X291Y768D02*
X319Y768D01*
X335Y768D02*
X364Y768D01*
X247Y767D02*
X253Y767D01*
X270Y767D02*
X276Y767D01*
X291Y767D02*
X296Y767D01*
X335Y767D02*
X340Y767D01*
X358Y767D02*
X364Y767D01*
X247Y766D02*
X252Y766D01*
X271Y766D02*
X276Y766D01*
X291Y766D02*
X296Y766D01*
X335Y766D02*
X340Y766D01*
X359Y766D02*
X364Y766D01*
X247Y765D02*
X252Y765D01*
X271Y765D02*
X276Y765D01*
X291Y765D02*
X296Y765D01*
X335Y765D02*
X341Y765D01*
X359Y765D02*
X364Y765D01*
X247Y764D02*
X252Y764D01*
X271Y764D02*
X276Y764D01*
X291Y764D02*
X296Y764D01*
X335Y764D02*
X342Y764D01*
X359Y764D02*
X364Y764D01*
X247Y763D02*
X252Y763D01*
X271Y763D02*
X276Y763D01*
X291Y763D02*
X296Y763D01*
X336Y763D02*
X343Y763D01*
X360Y763D02*
X363Y763D01*
X247Y762D02*
X252Y762D01*
X271Y762D02*
X276Y762D01*
X291Y762D02*
X296Y762D01*
X337Y762D02*
X343Y762D01*
X247Y761D02*
X252Y761D01*
X271Y761D02*
X276Y761D01*
X291Y761D02*
X296Y761D01*
X337Y761D02*
X344Y761D01*
X247Y760D02*
X252Y760D01*
X271Y760D02*
X276Y760D01*
X291Y760D02*
X296Y760D01*
X338Y760D02*
X345Y760D01*
X247Y759D02*
X252Y759D01*
X270Y759D02*
X276Y759D01*
X291Y759D02*
X296Y759D01*
X339Y759D02*
X346Y759D01*
X247Y758D02*
X276Y758D01*
X291Y758D02*
X296Y758D01*
X340Y758D02*
X346Y758D01*
X247Y757D02*
X275Y757D01*
X291Y757D02*
X296Y757D01*
X340Y757D02*
X347Y757D01*
X247Y756D02*
X275Y756D01*
X291Y756D02*
X296Y756D01*
X341Y756D02*
X348Y756D01*
X247Y755D02*
X274Y755D01*
X291Y755D02*
X296Y755D01*
X342Y755D02*
X349Y755D01*
X247Y754D02*
X273Y754D01*
X291Y754D02*
X296Y754D01*
X343Y754D02*
X350Y754D01*
X1914Y754D02*
X1917Y754D01*
X1974Y754D02*
X1977Y754D01*
X2032Y754D02*
X2075Y754D01*
X2127Y754D02*
X2176Y754D01*
X247Y753D02*
X271Y753D01*
X291Y753D02*
X297Y753D01*
X344Y753D02*
X350Y753D01*
X1912Y753D02*
X1919Y753D01*
X1972Y753D02*
X1979Y753D01*
X2028Y753D02*
X2079Y753D01*
X2127Y753D02*
X2180Y753D01*
X247Y752D02*
X268Y752D01*
X291Y752D02*
X307Y752D01*
X344Y752D02*
X351Y752D01*
X1911Y752D02*
X1920Y752D01*
X1971Y752D02*
X1981Y752D01*
X2026Y752D02*
X2081Y752D01*
X2127Y752D02*
X2183Y752D01*
X247Y751D02*
X252Y751D01*
X258Y751D02*
X264Y751D01*
X291Y751D02*
X308Y751D01*
X345Y751D02*
X352Y751D01*
X1910Y751D02*
X1921Y751D01*
X1970Y751D02*
X1981Y751D01*
X2025Y751D02*
X2083Y751D01*
X2127Y751D02*
X2185Y751D01*
X247Y750D02*
X252Y750D01*
X259Y750D02*
X265Y750D01*
X291Y750D02*
X308Y750D01*
X346Y750D02*
X353Y750D01*
X1909Y750D02*
X1922Y750D01*
X1969Y750D02*
X1982Y750D01*
X2024Y750D02*
X2084Y750D01*
X2127Y750D02*
X2187Y750D01*
X247Y749D02*
X252Y749D01*
X259Y749D02*
X265Y749D01*
X291Y749D02*
X308Y749D01*
X347Y749D02*
X353Y749D01*
X1909Y749D02*
X1922Y749D01*
X1969Y749D02*
X1982Y749D01*
X2023Y749D02*
X2085Y749D01*
X2127Y749D02*
X2188Y749D01*
X247Y748D02*
X252Y748D01*
X260Y748D02*
X266Y748D01*
X291Y748D02*
X307Y748D01*
X347Y748D02*
X354Y748D01*
X1909Y748D02*
X1923Y748D01*
X1969Y748D02*
X1983Y748D01*
X2022Y748D02*
X2086Y748D01*
X2127Y748D02*
X2189Y748D01*
X247Y747D02*
X252Y747D01*
X260Y747D02*
X267Y747D01*
X291Y747D02*
X306Y747D01*
X348Y747D02*
X355Y747D01*
X1908Y747D02*
X1923Y747D01*
X1969Y747D02*
X1983Y747D01*
X2021Y747D02*
X2087Y747D01*
X2127Y747D02*
X2191Y747D01*
X247Y746D02*
X252Y746D01*
X261Y746D02*
X267Y746D01*
X291Y746D02*
X296Y746D01*
X349Y746D02*
X356Y746D01*
X1908Y746D02*
X1923Y746D01*
X1968Y746D02*
X1983Y746D01*
X2020Y746D02*
X2088Y746D01*
X2127Y746D02*
X2192Y746D01*
X247Y745D02*
X252Y745D01*
X262Y745D02*
X268Y745D01*
X291Y745D02*
X296Y745D01*
X350Y745D02*
X357Y745D01*
X1908Y745D02*
X1923Y745D01*
X1968Y745D02*
X1983Y745D01*
X2020Y745D02*
X2089Y745D01*
X2127Y745D02*
X2193Y745D01*
X247Y744D02*
X252Y744D01*
X262Y744D02*
X268Y744D01*
X291Y744D02*
X296Y744D01*
X350Y744D02*
X357Y744D01*
X1908Y744D02*
X1923Y744D01*
X1968Y744D02*
X1983Y744D01*
X2019Y744D02*
X2089Y744D01*
X2127Y744D02*
X2194Y744D01*
X247Y743D02*
X252Y743D01*
X263Y743D02*
X269Y743D01*
X291Y743D02*
X296Y743D01*
X351Y743D02*
X358Y743D01*
X1908Y743D02*
X1923Y743D01*
X1968Y743D02*
X1983Y743D01*
X2019Y743D02*
X2090Y743D01*
X2127Y743D02*
X2195Y743D01*
X247Y742D02*
X252Y742D01*
X263Y742D02*
X270Y742D01*
X291Y742D02*
X296Y742D01*
X352Y742D02*
X359Y742D01*
X1908Y742D02*
X1923Y742D01*
X1968Y742D02*
X1983Y742D01*
X2018Y742D02*
X2091Y742D01*
X2127Y742D02*
X2195Y742D01*
X247Y741D02*
X252Y741D01*
X264Y741D02*
X270Y741D01*
X291Y741D02*
X296Y741D01*
X353Y741D02*
X360Y741D01*
X1908Y741D02*
X1923Y741D01*
X1968Y741D02*
X1983Y741D01*
X2018Y741D02*
X2091Y741D01*
X2127Y741D02*
X2196Y741D01*
X247Y740D02*
X252Y740D01*
X265Y740D02*
X271Y740D01*
X291Y740D02*
X296Y740D01*
X354Y740D02*
X360Y740D01*
X1908Y740D02*
X1923Y740D01*
X1968Y740D02*
X1983Y740D01*
X2018Y740D02*
X2091Y740D01*
X2127Y740D02*
X2197Y740D01*
X247Y739D02*
X252Y739D01*
X265Y739D02*
X271Y739D01*
X291Y739D02*
X296Y739D01*
X354Y739D02*
X361Y739D01*
X1908Y739D02*
X1923Y739D01*
X1968Y739D02*
X1983Y739D01*
X2018Y739D02*
X2033Y739D01*
X2073Y739D02*
X2092Y739D01*
X2127Y739D02*
X2142Y739D01*
X2173Y739D02*
X2197Y739D01*
X247Y738D02*
X252Y738D01*
X266Y738D02*
X272Y738D01*
X291Y738D02*
X296Y738D01*
X355Y738D02*
X362Y738D01*
X1908Y738D02*
X1923Y738D01*
X1968Y738D02*
X1983Y738D01*
X2018Y738D02*
X2032Y738D01*
X2076Y738D02*
X2092Y738D01*
X2127Y738D02*
X2142Y738D01*
X2178Y738D02*
X2198Y738D01*
X247Y737D02*
X252Y737D01*
X266Y737D02*
X272Y737D01*
X291Y737D02*
X296Y737D01*
X336Y737D02*
X339Y737D01*
X356Y737D02*
X363Y737D01*
X1908Y737D02*
X1923Y737D01*
X1968Y737D02*
X1983Y737D01*
X2018Y737D02*
X2032Y737D01*
X2077Y737D02*
X2092Y737D01*
X2127Y737D02*
X2142Y737D01*
X2179Y737D02*
X2199Y737D01*
X247Y736D02*
X252Y736D01*
X267Y736D02*
X273Y736D01*
X291Y736D02*
X296Y736D01*
X335Y736D02*
X340Y736D01*
X357Y736D02*
X363Y736D01*
X1908Y736D02*
X1923Y736D01*
X1968Y736D02*
X1983Y736D01*
X2018Y736D02*
X2033Y736D01*
X2077Y736D02*
X2092Y736D01*
X2127Y736D02*
X2142Y736D01*
X2181Y736D02*
X2199Y736D01*
X247Y735D02*
X252Y735D01*
X268Y735D02*
X274Y735D01*
X291Y735D02*
X296Y735D01*
X335Y735D02*
X340Y735D01*
X357Y735D02*
X364Y735D01*
X1908Y735D02*
X1923Y735D01*
X1968Y735D02*
X1983Y735D01*
X2018Y735D02*
X2033Y735D01*
X2078Y735D02*
X2092Y735D01*
X2127Y735D02*
X2142Y735D01*
X2182Y735D02*
X2200Y735D01*
X247Y734D02*
X252Y734D01*
X268Y734D02*
X274Y734D01*
X291Y734D02*
X296Y734D01*
X335Y734D02*
X340Y734D01*
X358Y734D02*
X364Y734D01*
X1908Y734D02*
X1923Y734D01*
X1968Y734D02*
X1983Y734D01*
X2018Y734D02*
X2034Y734D01*
X2078Y734D02*
X2092Y734D01*
X2127Y734D02*
X2142Y734D01*
X2183Y734D02*
X2200Y734D01*
X247Y733D02*
X252Y733D01*
X269Y733D02*
X275Y733D01*
X291Y733D02*
X296Y733D01*
X335Y733D02*
X341Y733D01*
X359Y733D02*
X364Y733D01*
X1908Y733D02*
X1923Y733D01*
X1968Y733D02*
X1983Y733D01*
X2018Y733D02*
X2035Y733D01*
X2078Y733D02*
X2092Y733D01*
X2127Y733D02*
X2142Y733D01*
X2184Y733D02*
X2200Y733D01*
X247Y732D02*
X252Y732D01*
X269Y732D02*
X275Y732D01*
X291Y732D02*
X319Y732D01*
X335Y732D02*
X364Y732D01*
X1908Y732D02*
X1923Y732D01*
X1968Y732D02*
X1983Y732D01*
X2019Y732D02*
X2036Y732D01*
X2078Y732D02*
X2092Y732D01*
X2127Y732D02*
X2142Y732D01*
X2185Y732D02*
X2201Y732D01*
X247Y731D02*
X252Y731D01*
X270Y731D02*
X276Y731D01*
X291Y731D02*
X320Y731D01*
X336Y731D02*
X364Y731D01*
X1908Y731D02*
X1923Y731D01*
X1968Y731D02*
X1983Y731D01*
X2019Y731D02*
X2036Y731D01*
X2078Y731D02*
X2092Y731D01*
X2127Y731D02*
X2142Y731D01*
X2185Y731D02*
X2201Y731D01*
X247Y730D02*
X252Y730D01*
X270Y730D02*
X276Y730D01*
X291Y730D02*
X320Y730D01*
X336Y730D02*
X363Y730D01*
X1908Y730D02*
X1923Y730D01*
X1968Y730D02*
X1983Y730D01*
X2019Y730D02*
X2037Y730D01*
X2079Y730D02*
X2091Y730D01*
X2127Y730D02*
X2142Y730D01*
X2186Y730D02*
X2201Y730D01*
X247Y729D02*
X252Y729D01*
X271Y729D02*
X276Y729D01*
X291Y729D02*
X320Y729D01*
X337Y729D02*
X363Y729D01*
X1908Y729D02*
X1923Y729D01*
X1968Y729D02*
X1983Y729D01*
X2020Y729D02*
X2038Y729D01*
X2080Y729D02*
X2090Y729D01*
X2127Y729D02*
X2142Y729D01*
X2186Y729D02*
X2201Y729D01*
X248Y728D02*
X252Y728D01*
X272Y728D02*
X276Y728D01*
X291Y728D02*
X320Y728D01*
X338Y728D02*
X362Y728D01*
X1908Y728D02*
X1923Y728D01*
X1968Y728D02*
X1983Y728D01*
X2020Y728D02*
X2039Y728D01*
X2081Y728D02*
X2089Y728D01*
X2127Y728D02*
X2142Y728D01*
X2187Y728D02*
X2201Y728D01*
X248Y727D02*
X251Y727D01*
X272Y727D02*
X275Y727D01*
X291Y727D02*
X319Y727D01*
X340Y727D02*
X360Y727D01*
X1908Y727D02*
X1923Y727D01*
X1968Y727D02*
X1983Y727D01*
X2021Y727D02*
X2039Y727D01*
X2082Y727D02*
X2088Y727D01*
X2127Y727D02*
X2142Y727D01*
X2187Y727D02*
X2201Y727D01*
X1908Y726D02*
X1923Y726D01*
X1968Y726D02*
X1983Y726D01*
X2022Y726D02*
X2040Y726D01*
X2127Y726D02*
X2142Y726D01*
X2187Y726D02*
X2202Y726D01*
X1908Y725D02*
X1923Y725D01*
X1968Y725D02*
X1983Y725D01*
X2022Y725D02*
X2041Y725D01*
X2127Y725D02*
X2142Y725D01*
X2187Y725D02*
X2202Y725D01*
X1908Y724D02*
X1923Y724D01*
X1968Y724D02*
X1983Y724D01*
X2023Y724D02*
X2042Y724D01*
X2127Y724D02*
X2142Y724D01*
X2187Y724D02*
X2202Y724D01*
X1908Y723D02*
X1923Y723D01*
X1968Y723D02*
X1983Y723D01*
X2024Y723D02*
X2043Y723D01*
X2127Y723D02*
X2142Y723D01*
X2187Y723D02*
X2202Y723D01*
X1908Y722D02*
X1923Y722D01*
X1968Y722D02*
X1983Y722D01*
X2025Y722D02*
X2043Y722D01*
X2127Y722D02*
X2142Y722D01*
X2187Y722D02*
X2202Y722D01*
X1908Y721D02*
X1923Y721D01*
X1968Y721D02*
X1983Y721D01*
X2026Y721D02*
X2044Y721D01*
X2127Y721D02*
X2142Y721D01*
X2187Y721D02*
X2202Y721D01*
X1908Y720D02*
X1923Y720D01*
X1968Y720D02*
X1983Y720D01*
X2026Y720D02*
X2045Y720D01*
X2127Y720D02*
X2142Y720D01*
X2187Y720D02*
X2202Y720D01*
X1908Y719D02*
X1923Y719D01*
X1968Y719D02*
X1983Y719D01*
X2027Y719D02*
X2046Y719D01*
X2127Y719D02*
X2142Y719D01*
X2187Y719D02*
X2202Y719D01*
X1908Y718D02*
X1923Y718D01*
X1968Y718D02*
X1983Y718D01*
X2028Y718D02*
X2046Y718D01*
X2127Y718D02*
X2142Y718D01*
X2187Y718D02*
X2202Y718D01*
X1908Y717D02*
X1923Y717D01*
X1968Y717D02*
X1983Y717D01*
X2029Y717D02*
X2047Y717D01*
X2127Y717D02*
X2142Y717D01*
X2187Y717D02*
X2202Y717D01*
X1908Y716D02*
X1923Y716D01*
X1968Y716D02*
X1983Y716D01*
X2029Y716D02*
X2048Y716D01*
X2127Y716D02*
X2142Y716D01*
X2187Y716D02*
X2202Y716D01*
X1908Y715D02*
X1923Y715D01*
X1968Y715D02*
X1983Y715D01*
X2030Y715D02*
X2049Y715D01*
X2127Y715D02*
X2142Y715D01*
X2187Y715D02*
X2201Y715D01*
X1908Y714D02*
X1923Y714D01*
X1968Y714D02*
X1983Y714D01*
X2031Y714D02*
X2050Y714D01*
X2127Y714D02*
X2142Y714D01*
X2187Y714D02*
X2201Y714D01*
X1908Y713D02*
X1923Y713D01*
X1968Y713D02*
X1983Y713D01*
X2032Y713D02*
X2050Y713D01*
X2127Y713D02*
X2142Y713D01*
X2186Y713D02*
X2201Y713D01*
X1908Y712D02*
X1923Y712D01*
X1968Y712D02*
X1983Y712D01*
X2033Y712D02*
X2051Y712D01*
X2127Y712D02*
X2142Y712D01*
X2186Y712D02*
X2201Y712D01*
X1908Y711D02*
X1923Y711D01*
X1968Y711D02*
X1983Y711D01*
X2033Y711D02*
X2052Y711D01*
X2127Y711D02*
X2142Y711D01*
X2185Y711D02*
X2201Y711D01*
X1908Y710D02*
X1923Y710D01*
X1968Y710D02*
X1983Y710D01*
X2034Y710D02*
X2053Y710D01*
X2127Y710D02*
X2142Y710D01*
X2185Y710D02*
X2201Y710D01*
X1908Y709D02*
X1923Y709D01*
X1968Y709D02*
X1983Y709D01*
X2035Y709D02*
X2053Y709D01*
X2127Y709D02*
X2142Y709D01*
X2184Y709D02*
X2200Y709D01*
X1908Y708D02*
X1923Y708D01*
X1968Y708D02*
X1983Y708D01*
X2036Y708D02*
X2054Y708D01*
X2127Y708D02*
X2142Y708D01*
X2183Y708D02*
X2200Y708D01*
X1908Y707D02*
X1923Y707D01*
X1968Y707D02*
X1983Y707D01*
X2036Y707D02*
X2055Y707D01*
X2127Y707D02*
X2142Y707D01*
X2182Y707D02*
X2200Y707D01*
X1908Y706D02*
X1923Y706D01*
X1968Y706D02*
X1983Y706D01*
X2037Y706D02*
X2056Y706D01*
X2127Y706D02*
X2142Y706D01*
X2181Y706D02*
X2199Y706D01*
X1908Y705D02*
X1923Y705D01*
X1968Y705D02*
X1983Y705D01*
X2038Y705D02*
X2057Y705D01*
X2127Y705D02*
X2142Y705D01*
X2179Y705D02*
X2199Y705D01*
X1908Y704D02*
X1923Y704D01*
X1968Y704D02*
X1983Y704D01*
X2039Y704D02*
X2057Y704D01*
X2127Y704D02*
X2142Y704D01*
X2177Y704D02*
X2198Y704D01*
X1908Y703D02*
X1923Y703D01*
X1968Y703D02*
X1983Y703D01*
X2040Y703D02*
X2058Y703D01*
X2127Y703D02*
X2198Y703D01*
X1908Y702D02*
X1923Y702D01*
X1968Y702D02*
X1983Y702D01*
X2040Y702D02*
X2059Y702D01*
X2127Y702D02*
X2197Y702D01*
X1908Y701D02*
X1923Y701D01*
X1968Y701D02*
X1983Y701D01*
X2041Y701D02*
X2060Y701D01*
X2127Y701D02*
X2196Y701D01*
X1908Y700D02*
X1923Y700D01*
X1968Y700D02*
X1983Y700D01*
X2042Y700D02*
X2060Y700D01*
X2127Y700D02*
X2195Y700D01*
X1908Y699D02*
X1923Y699D01*
X1968Y699D02*
X1983Y699D01*
X2043Y699D02*
X2061Y699D01*
X2127Y699D02*
X2195Y699D01*
X1908Y698D02*
X1923Y698D01*
X1968Y698D02*
X1983Y698D01*
X2043Y698D02*
X2062Y698D01*
X2127Y698D02*
X2194Y698D01*
X1908Y697D02*
X1923Y697D01*
X1968Y697D02*
X1983Y697D01*
X2044Y697D02*
X2063Y697D01*
X2127Y697D02*
X2193Y697D01*
X1908Y696D02*
X1923Y696D01*
X1968Y696D02*
X1983Y696D01*
X2045Y696D02*
X2064Y696D01*
X2127Y696D02*
X2192Y696D01*
X1908Y695D02*
X1923Y695D01*
X1968Y695D02*
X1983Y695D01*
X2046Y695D02*
X2064Y695D01*
X2127Y695D02*
X2191Y695D01*
X1908Y694D02*
X1923Y694D01*
X1968Y694D02*
X1983Y694D01*
X2047Y694D02*
X2065Y694D01*
X2127Y694D02*
X2192Y694D01*
X1908Y693D02*
X1923Y693D01*
X1968Y693D02*
X1983Y693D01*
X2047Y693D02*
X2066Y693D01*
X2127Y693D02*
X2193Y693D01*
X1908Y692D02*
X1923Y692D01*
X1968Y692D02*
X1983Y692D01*
X2048Y692D02*
X2067Y692D01*
X2127Y692D02*
X2194Y692D01*
X1908Y691D02*
X1923Y691D01*
X1968Y691D02*
X1983Y691D01*
X2049Y691D02*
X2067Y691D01*
X2127Y691D02*
X2195Y691D01*
X1908Y690D02*
X1923Y690D01*
X1968Y690D02*
X1983Y690D01*
X2050Y690D02*
X2068Y690D01*
X2127Y690D02*
X2196Y690D01*
X1908Y689D02*
X1923Y689D01*
X1968Y689D02*
X1983Y689D01*
X2050Y689D02*
X2069Y689D01*
X2127Y689D02*
X2197Y689D01*
X1908Y688D02*
X1923Y688D01*
X1968Y688D02*
X1983Y688D01*
X2051Y688D02*
X2070Y688D01*
X2127Y688D02*
X2197Y688D01*
X1908Y687D02*
X1923Y687D01*
X1968Y687D02*
X1983Y687D01*
X2052Y687D02*
X2071Y687D01*
X2127Y687D02*
X2142Y687D01*
X2177Y687D02*
X2198Y687D01*
X1908Y686D02*
X1923Y686D01*
X1968Y686D02*
X1983Y686D01*
X2053Y686D02*
X2071Y686D01*
X2127Y686D02*
X2142Y686D01*
X2179Y686D02*
X2198Y686D01*
X1908Y685D02*
X1923Y685D01*
X1968Y685D02*
X1983Y685D01*
X2054Y685D02*
X2072Y685D01*
X2127Y685D02*
X2142Y685D01*
X2181Y685D02*
X2199Y685D01*
X242Y684D02*
X244Y684D01*
X276Y684D02*
X297Y684D01*
X1908Y684D02*
X1923Y684D01*
X1968Y684D02*
X1983Y684D01*
X2054Y684D02*
X2073Y684D01*
X2127Y684D02*
X2142Y684D01*
X2182Y684D02*
X2199Y684D01*
X241Y683D02*
X245Y683D01*
X275Y683D02*
X299Y683D01*
X1908Y683D02*
X1923Y683D01*
X1968Y683D02*
X1983Y683D01*
X2055Y683D02*
X2074Y683D01*
X2127Y683D02*
X2142Y683D01*
X2183Y683D02*
X2200Y683D01*
X240Y682D02*
X245Y682D01*
X273Y682D02*
X300Y682D01*
X1908Y682D02*
X1923Y682D01*
X1968Y682D02*
X1983Y682D01*
X2056Y682D02*
X2074Y682D01*
X2127Y682D02*
X2142Y682D01*
X2184Y682D02*
X2200Y682D01*
X240Y681D02*
X246Y681D01*
X273Y681D02*
X300Y681D01*
X1908Y681D02*
X1923Y681D01*
X1968Y681D02*
X1983Y681D01*
X2057Y681D02*
X2075Y681D01*
X2127Y681D02*
X2142Y681D01*
X2185Y681D02*
X2200Y681D01*
X240Y680D02*
X246Y680D01*
X272Y680D02*
X301Y680D01*
X1908Y680D02*
X1923Y680D01*
X1968Y680D02*
X1983Y680D01*
X2057Y680D02*
X2076Y680D01*
X2127Y680D02*
X2142Y680D01*
X2185Y680D02*
X2201Y680D01*
X239Y679D02*
X246Y679D01*
X272Y679D02*
X301Y679D01*
X1908Y679D02*
X1923Y679D01*
X1968Y679D02*
X1983Y679D01*
X2058Y679D02*
X2077Y679D01*
X2127Y679D02*
X2142Y679D01*
X2186Y679D02*
X2201Y679D01*
X239Y678D02*
X246Y678D01*
X272Y678D02*
X277Y678D01*
X296Y678D02*
X301Y678D01*
X1908Y678D02*
X1923Y678D01*
X1968Y678D02*
X1983Y678D01*
X2059Y678D02*
X2078Y678D01*
X2127Y678D02*
X2142Y678D01*
X2186Y678D02*
X2201Y678D01*
X239Y677D02*
X247Y677D01*
X272Y677D02*
X277Y677D01*
X296Y677D02*
X301Y677D01*
X1908Y677D02*
X1923Y677D01*
X1968Y677D02*
X1983Y677D01*
X2060Y677D02*
X2078Y677D01*
X2127Y677D02*
X2142Y677D01*
X2187Y677D02*
X2201Y677D01*
X239Y676D02*
X247Y676D01*
X272Y676D02*
X277Y676D01*
X296Y676D02*
X301Y676D01*
X1908Y676D02*
X1923Y676D01*
X1968Y676D02*
X1983Y676D01*
X2060Y676D02*
X2079Y676D01*
X2127Y676D02*
X2142Y676D01*
X2187Y676D02*
X2201Y676D01*
X238Y675D02*
X247Y675D01*
X272Y675D02*
X277Y675D01*
X296Y675D02*
X301Y675D01*
X1908Y675D02*
X1923Y675D01*
X1968Y675D02*
X1983Y675D01*
X2061Y675D02*
X2080Y675D01*
X2127Y675D02*
X2142Y675D01*
X2187Y675D02*
X2202Y675D01*
X238Y674D02*
X248Y674D01*
X272Y674D02*
X277Y674D01*
X296Y674D02*
X301Y674D01*
X1908Y674D02*
X1923Y674D01*
X1968Y674D02*
X1983Y674D01*
X2062Y674D02*
X2081Y674D01*
X2127Y674D02*
X2142Y674D01*
X2187Y674D02*
X2202Y674D01*
X238Y673D02*
X248Y673D01*
X272Y673D02*
X277Y673D01*
X296Y673D02*
X301Y673D01*
X1908Y673D02*
X1923Y673D01*
X1968Y673D02*
X1983Y673D01*
X2063Y673D02*
X2081Y673D01*
X2127Y673D02*
X2142Y673D01*
X2187Y673D02*
X2202Y673D01*
X237Y672D02*
X248Y672D01*
X272Y672D02*
X277Y672D01*
X296Y672D02*
X301Y672D01*
X1908Y672D02*
X1923Y672D01*
X1968Y672D02*
X1983Y672D01*
X2064Y672D02*
X2082Y672D01*
X2127Y672D02*
X2142Y672D01*
X2187Y672D02*
X2202Y672D01*
X237Y671D02*
X249Y671D01*
X272Y671D02*
X277Y671D01*
X296Y671D02*
X301Y671D01*
X1908Y671D02*
X1923Y671D01*
X1968Y671D02*
X1983Y671D01*
X2064Y671D02*
X2083Y671D01*
X2127Y671D02*
X2142Y671D01*
X2187Y671D02*
X2202Y671D01*
X237Y670D02*
X249Y670D01*
X272Y670D02*
X277Y670D01*
X296Y670D02*
X301Y670D01*
X1908Y670D02*
X1923Y670D01*
X1968Y670D02*
X1983Y670D01*
X2065Y670D02*
X2084Y670D01*
X2127Y670D02*
X2142Y670D01*
X2187Y670D02*
X2202Y670D01*
X237Y669D02*
X242Y669D01*
X244Y669D02*
X249Y669D01*
X272Y669D02*
X277Y669D01*
X296Y669D02*
X301Y669D01*
X1908Y669D02*
X1923Y669D01*
X1968Y669D02*
X1983Y669D01*
X2066Y669D02*
X2085Y669D01*
X2127Y669D02*
X2142Y669D01*
X2187Y669D02*
X2202Y669D01*
X236Y668D02*
X242Y668D01*
X244Y668D02*
X249Y668D01*
X272Y668D02*
X277Y668D01*
X296Y668D02*
X301Y668D01*
X1908Y668D02*
X1923Y668D01*
X1968Y668D02*
X1983Y668D01*
X2067Y668D02*
X2085Y668D01*
X2127Y668D02*
X2142Y668D01*
X2187Y668D02*
X2202Y668D01*
X236Y667D02*
X241Y667D01*
X244Y667D02*
X250Y667D01*
X272Y667D02*
X277Y667D01*
X296Y667D02*
X301Y667D01*
X1908Y667D02*
X1923Y667D01*
X1968Y667D02*
X1983Y667D01*
X2067Y667D02*
X2086Y667D01*
X2127Y667D02*
X2142Y667D01*
X2187Y667D02*
X2202Y667D01*
X236Y666D02*
X241Y666D01*
X245Y666D02*
X250Y666D01*
X272Y666D02*
X277Y666D01*
X296Y666D02*
X301Y666D01*
X1908Y666D02*
X1923Y666D01*
X1968Y666D02*
X1983Y666D01*
X2068Y666D02*
X2087Y666D01*
X2127Y666D02*
X2142Y666D01*
X2187Y666D02*
X2202Y666D01*
X235Y665D02*
X241Y665D01*
X245Y665D02*
X250Y665D01*
X272Y665D02*
X277Y665D01*
X296Y665D02*
X301Y665D01*
X1908Y665D02*
X1923Y665D01*
X1968Y665D02*
X1983Y665D01*
X2069Y665D02*
X2088Y665D01*
X2127Y665D02*
X2142Y665D01*
X2187Y665D02*
X2202Y665D01*
X235Y664D02*
X240Y664D01*
X245Y664D02*
X251Y664D01*
X272Y664D02*
X277Y664D01*
X296Y664D02*
X301Y664D01*
X1908Y664D02*
X1923Y664D01*
X1968Y664D02*
X1983Y664D01*
X2023Y664D02*
X2027Y664D01*
X2070Y664D02*
X2088Y664D01*
X2127Y664D02*
X2142Y664D01*
X2187Y664D02*
X2202Y664D01*
X235Y663D02*
X240Y663D01*
X245Y663D02*
X251Y663D01*
X272Y663D02*
X277Y663D01*
X296Y663D02*
X301Y663D01*
X1908Y663D02*
X1923Y663D01*
X1968Y663D02*
X1983Y663D01*
X2021Y663D02*
X2029Y663D01*
X2071Y663D02*
X2089Y663D01*
X2127Y663D02*
X2142Y663D01*
X2187Y663D02*
X2201Y663D01*
X234Y662D02*
X240Y662D01*
X246Y662D02*
X251Y662D01*
X272Y662D02*
X277Y662D01*
X296Y662D02*
X301Y662D01*
X1908Y662D02*
X1923Y662D01*
X1968Y662D02*
X1983Y662D01*
X2020Y662D02*
X2030Y662D01*
X2071Y662D02*
X2090Y662D01*
X2127Y662D02*
X2142Y662D01*
X2186Y662D02*
X2201Y662D01*
X234Y661D02*
X240Y661D01*
X246Y661D02*
X251Y661D01*
X272Y661D02*
X277Y661D01*
X296Y661D02*
X301Y661D01*
X1908Y661D02*
X1923Y661D01*
X1968Y661D02*
X1983Y661D01*
X2019Y661D02*
X2031Y661D01*
X2072Y661D02*
X2090Y661D01*
X2127Y661D02*
X2142Y661D01*
X2186Y661D02*
X2201Y661D01*
X234Y660D02*
X239Y660D01*
X246Y660D02*
X252Y660D01*
X272Y660D02*
X277Y660D01*
X296Y660D02*
X301Y660D01*
X1908Y660D02*
X1923Y660D01*
X1968Y660D02*
X1983Y660D01*
X2019Y660D02*
X2031Y660D01*
X2073Y660D02*
X2091Y660D01*
X2127Y660D02*
X2142Y660D01*
X2186Y660D02*
X2201Y660D01*
X234Y659D02*
X239Y659D01*
X247Y659D02*
X252Y659D01*
X272Y659D02*
X277Y659D01*
X296Y659D02*
X301Y659D01*
X1908Y659D02*
X1923Y659D01*
X1968Y659D02*
X1983Y659D01*
X2018Y659D02*
X2032Y659D01*
X2074Y659D02*
X2091Y659D01*
X2127Y659D02*
X2142Y659D01*
X2185Y659D02*
X2201Y659D01*
X233Y658D02*
X239Y658D01*
X247Y658D02*
X252Y658D01*
X272Y658D02*
X277Y658D01*
X296Y658D02*
X301Y658D01*
X1908Y658D02*
X1923Y658D01*
X1968Y658D02*
X1983Y658D01*
X2018Y658D02*
X2032Y658D01*
X2074Y658D02*
X2091Y658D01*
X2127Y658D02*
X2142Y658D01*
X2184Y658D02*
X2200Y658D01*
X233Y657D02*
X238Y657D01*
X247Y657D02*
X253Y657D01*
X272Y657D02*
X277Y657D01*
X296Y657D02*
X301Y657D01*
X1908Y657D02*
X1923Y657D01*
X1968Y657D02*
X1983Y657D01*
X2018Y657D02*
X2032Y657D01*
X2075Y657D02*
X2092Y657D01*
X2127Y657D02*
X2142Y657D01*
X2183Y657D02*
X2200Y657D01*
X233Y656D02*
X238Y656D01*
X248Y656D02*
X253Y656D01*
X272Y656D02*
X277Y656D01*
X296Y656D02*
X301Y656D01*
X1909Y656D02*
X1923Y656D01*
X1968Y656D02*
X1983Y656D01*
X2018Y656D02*
X2032Y656D01*
X2076Y656D02*
X2092Y656D01*
X2127Y656D02*
X2142Y656D01*
X2183Y656D02*
X2200Y656D01*
X232Y655D02*
X238Y655D01*
X248Y655D02*
X253Y655D01*
X272Y655D02*
X277Y655D01*
X296Y655D02*
X301Y655D01*
X1909Y655D02*
X1924Y655D01*
X1967Y655D02*
X1982Y655D01*
X2018Y655D02*
X2032Y655D01*
X2077Y655D02*
X2092Y655D01*
X2127Y655D02*
X2142Y655D01*
X2181Y655D02*
X2199Y655D01*
X232Y654D02*
X238Y654D01*
X248Y654D02*
X253Y654D01*
X272Y654D02*
X277Y654D01*
X296Y654D02*
X301Y654D01*
X1909Y654D02*
X1925Y654D01*
X1966Y654D02*
X1982Y654D01*
X2018Y654D02*
X2033Y654D01*
X2078Y654D02*
X2092Y654D01*
X2127Y654D02*
X2142Y654D01*
X2180Y654D02*
X2199Y654D01*
X232Y653D02*
X254Y653D01*
X272Y653D02*
X277Y653D01*
X296Y653D02*
X301Y653D01*
X1909Y653D02*
X1926Y653D01*
X1965Y653D02*
X1982Y653D01*
X2018Y653D02*
X2034Y653D01*
X2078Y653D02*
X2092Y653D01*
X2127Y653D02*
X2142Y653D01*
X2178Y653D02*
X2198Y653D01*
X232Y652D02*
X254Y652D01*
X272Y652D02*
X277Y652D01*
X296Y652D02*
X301Y652D01*
X1910Y652D02*
X1928Y652D01*
X1963Y652D02*
X1982Y652D01*
X2018Y652D02*
X2035Y652D01*
X2077Y652D02*
X2092Y652D01*
X2127Y652D02*
X2142Y652D01*
X2176Y652D02*
X2198Y652D01*
X231Y651D02*
X254Y651D01*
X272Y651D02*
X277Y651D01*
X296Y651D02*
X301Y651D01*
X1910Y651D02*
X1981Y651D01*
X2019Y651D02*
X2092Y651D01*
X2127Y651D02*
X2197Y651D01*
X231Y650D02*
X255Y650D01*
X272Y650D02*
X277Y650D01*
X296Y650D02*
X301Y650D01*
X1910Y650D02*
X1981Y650D01*
X2019Y650D02*
X2092Y650D01*
X2127Y650D02*
X2196Y650D01*
X231Y649D02*
X255Y649D01*
X272Y649D02*
X277Y649D01*
X296Y649D02*
X301Y649D01*
X1911Y649D02*
X1980Y649D01*
X2019Y649D02*
X2091Y649D01*
X2127Y649D02*
X2196Y649D01*
X230Y648D02*
X255Y648D01*
X272Y648D02*
X277Y648D01*
X296Y648D02*
X301Y648D01*
X1911Y648D02*
X1980Y648D01*
X2020Y648D02*
X2091Y648D01*
X2127Y648D02*
X2195Y648D01*
X230Y647D02*
X235Y647D01*
X250Y647D02*
X256Y647D01*
X272Y647D02*
X277Y647D01*
X296Y647D02*
X301Y647D01*
X1912Y647D02*
X1979Y647D01*
X2020Y647D02*
X2091Y647D01*
X2127Y647D02*
X2194Y647D01*
X230Y646D02*
X235Y646D01*
X250Y646D02*
X256Y646D01*
X272Y646D02*
X277Y646D01*
X296Y646D02*
X301Y646D01*
X1913Y646D02*
X1979Y646D01*
X2021Y646D02*
X2090Y646D01*
X2127Y646D02*
X2193Y646D01*
X229Y645D02*
X235Y645D01*
X251Y645D02*
X256Y645D01*
X272Y645D02*
X277Y645D01*
X296Y645D02*
X301Y645D01*
X1913Y645D02*
X1978Y645D01*
X2022Y645D02*
X2090Y645D01*
X2127Y645D02*
X2192Y645D01*
X229Y644D02*
X235Y644D01*
X251Y644D02*
X256Y644D01*
X272Y644D02*
X277Y644D01*
X296Y644D02*
X301Y644D01*
X1914Y644D02*
X1977Y644D01*
X2022Y644D02*
X2089Y644D01*
X2127Y644D02*
X2191Y644D01*
X229Y643D02*
X234Y643D01*
X251Y643D02*
X257Y643D01*
X272Y643D02*
X301Y643D01*
X1915Y643D02*
X1976Y643D01*
X2023Y643D02*
X2088Y643D01*
X2127Y643D02*
X2190Y643D01*
X229Y642D02*
X234Y642D01*
X252Y642D02*
X257Y642D01*
X272Y642D02*
X301Y642D01*
X1916Y642D02*
X1975Y642D01*
X2024Y642D02*
X2088Y642D01*
X2127Y642D02*
X2189Y642D01*
X228Y641D02*
X234Y641D01*
X252Y641D02*
X257Y641D01*
X273Y641D02*
X301Y641D01*
X1918Y641D02*
X1974Y641D01*
X2025Y641D02*
X2087Y641D01*
X2127Y641D02*
X2187Y641D01*
X228Y640D02*
X233Y640D01*
X252Y640D02*
X257Y640D01*
X273Y640D02*
X300Y640D01*
X1919Y640D02*
X1972Y640D01*
X2027Y640D02*
X2086Y640D01*
X2127Y640D02*
X2186Y640D01*
X228Y639D02*
X233Y639D01*
X253Y639D02*
X257Y639D01*
X274Y639D02*
X299Y639D01*
X1921Y639D02*
X1970Y639D01*
X2028Y639D02*
X2084Y639D01*
X2127Y639D02*
X2184Y639D01*
X229Y638D02*
X232Y638D01*
X253Y638D02*
X256Y638D01*
X275Y638D02*
X298Y638D01*
X1922Y638D02*
X1969Y638D01*
X2030Y638D02*
X2082Y638D01*
X2127Y638D02*
X2181Y638D01*
X1926Y637D02*
X1965Y637D01*
X2033Y637D02*
X2080Y637D01*
X2127Y637D02*
X2178Y637D01*
X253Y573D02*
X274Y573D01*
X294Y573D02*
X310Y573D01*
X350Y573D02*
X353Y573D01*
X251Y572D02*
X275Y572D01*
X293Y572D02*
X311Y572D01*
X349Y572D02*
X353Y572D01*
X251Y571D02*
X276Y571D01*
X293Y571D02*
X313Y571D01*
X349Y571D02*
X354Y571D01*
X250Y570D02*
X277Y570D01*
X293Y570D02*
X313Y570D01*
X348Y570D02*
X354Y570D01*
X249Y569D02*
X278Y569D01*
X293Y569D02*
X314Y569D01*
X348Y569D02*
X354Y569D01*
X249Y568D02*
X278Y568D01*
X295Y568D02*
X315Y568D01*
X348Y568D02*
X355Y568D01*
X249Y567D02*
X254Y567D01*
X272Y567D02*
X278Y567D01*
X299Y567D02*
X304Y567D01*
X309Y567D02*
X315Y567D01*
X347Y567D02*
X355Y567D01*
X249Y566D02*
X255Y566D01*
X273Y566D02*
X278Y566D01*
X299Y566D02*
X304Y566D01*
X310Y566D02*
X316Y566D01*
X347Y566D02*
X355Y566D01*
X249Y565D02*
X256Y565D01*
X273Y565D02*
X278Y565D01*
X299Y565D02*
X304Y565D01*
X310Y565D02*
X316Y565D01*
X347Y565D02*
X356Y565D01*
X250Y564D02*
X256Y564D01*
X274Y564D02*
X278Y564D01*
X299Y564D02*
X304Y564D01*
X311Y564D02*
X317Y564D01*
X347Y564D02*
X356Y564D01*
X250Y563D02*
X257Y563D01*
X275Y563D02*
X277Y563D01*
X299Y563D02*
X304Y563D01*
X311Y563D02*
X317Y563D01*
X346Y563D02*
X356Y563D01*
X251Y562D02*
X258Y562D01*
X299Y562D02*
X304Y562D01*
X312Y562D02*
X318Y562D01*
X346Y562D02*
X356Y562D01*
X252Y561D02*
X259Y561D01*
X299Y561D02*
X304Y561D01*
X312Y561D02*
X318Y561D01*
X346Y561D02*
X357Y561D01*
X253Y560D02*
X259Y560D01*
X299Y560D02*
X304Y560D01*
X313Y560D02*
X319Y560D01*
X345Y560D02*
X357Y560D01*
X253Y559D02*
X260Y559D01*
X299Y559D02*
X304Y559D01*
X313Y559D02*
X319Y559D01*
X345Y559D02*
X357Y559D01*
X254Y558D02*
X261Y558D01*
X299Y558D02*
X304Y558D01*
X314Y558D02*
X320Y558D01*
X345Y558D02*
X350Y558D01*
X352Y558D02*
X358Y558D01*
X255Y557D02*
X262Y557D01*
X299Y557D02*
X304Y557D01*
X314Y557D02*
X320Y557D01*
X344Y557D02*
X350Y557D01*
X352Y557D02*
X358Y557D01*
X256Y556D02*
X263Y556D01*
X299Y556D02*
X304Y556D01*
X315Y556D02*
X321Y556D01*
X344Y556D02*
X350Y556D01*
X353Y556D02*
X358Y556D01*
X256Y555D02*
X263Y555D01*
X299Y555D02*
X304Y555D01*
X315Y555D02*
X321Y555D01*
X344Y555D02*
X349Y555D01*
X353Y555D02*
X358Y555D01*
X257Y554D02*
X264Y554D01*
X299Y554D02*
X304Y554D01*
X316Y554D02*
X321Y554D01*
X344Y554D02*
X349Y554D01*
X353Y554D02*
X359Y554D01*
X258Y553D02*
X265Y553D01*
X299Y553D02*
X304Y553D01*
X316Y553D02*
X322Y553D01*
X343Y553D02*
X349Y553D01*
X354Y553D02*
X359Y553D01*
X259Y552D02*
X266Y552D01*
X299Y552D02*
X304Y552D01*
X317Y552D02*
X322Y552D01*
X343Y552D02*
X348Y552D01*
X354Y552D02*
X359Y552D01*
X260Y551D02*
X266Y551D01*
X299Y551D02*
X304Y551D01*
X317Y551D02*
X322Y551D01*
X343Y551D02*
X348Y551D01*
X354Y551D02*
X360Y551D01*
X260Y550D02*
X267Y550D01*
X299Y550D02*
X304Y550D01*
X317Y550D02*
X322Y550D01*
X342Y550D02*
X348Y550D01*
X355Y550D02*
X360Y550D01*
X261Y549D02*
X268Y549D01*
X299Y549D02*
X304Y549D01*
X317Y549D02*
X322Y549D01*
X342Y549D02*
X348Y549D01*
X355Y549D02*
X360Y549D01*
X262Y548D02*
X269Y548D01*
X299Y548D02*
X304Y548D01*
X317Y548D02*
X322Y548D01*
X342Y548D02*
X347Y548D01*
X355Y548D02*
X361Y548D01*
X263Y547D02*
X269Y547D01*
X299Y547D02*
X304Y547D01*
X316Y547D02*
X322Y547D01*
X342Y547D02*
X347Y547D01*
X355Y547D02*
X361Y547D01*
X263Y546D02*
X270Y546D01*
X299Y546D02*
X304Y546D01*
X316Y546D02*
X321Y546D01*
X341Y546D02*
X347Y546D01*
X356Y546D02*
X361Y546D01*
X264Y545D02*
X271Y545D01*
X299Y545D02*
X304Y545D01*
X315Y545D02*
X321Y545D01*
X341Y545D02*
X346Y545D01*
X356Y545D02*
X361Y545D01*
X265Y544D02*
X272Y544D01*
X299Y544D02*
X304Y544D01*
X315Y544D02*
X321Y544D01*
X341Y544D02*
X346Y544D01*
X356Y544D02*
X362Y544D01*
X266Y543D02*
X273Y543D01*
X299Y543D02*
X304Y543D01*
X314Y543D02*
X320Y543D01*
X340Y543D02*
X362Y543D01*
X267Y542D02*
X273Y542D01*
X299Y542D02*
X304Y542D01*
X314Y542D02*
X320Y542D01*
X340Y542D02*
X362Y542D01*
X267Y541D02*
X274Y541D01*
X299Y541D02*
X304Y541D01*
X313Y541D02*
X319Y541D01*
X340Y541D02*
X363Y541D01*
X268Y540D02*
X275Y540D01*
X299Y540D02*
X304Y540D01*
X313Y540D02*
X319Y540D01*
X339Y540D02*
X363Y540D01*
X269Y539D02*
X276Y539D01*
X299Y539D02*
X304Y539D01*
X312Y539D02*
X318Y539D01*
X339Y539D02*
X363Y539D01*
X270Y538D02*
X276Y538D01*
X299Y538D02*
X304Y538D01*
X312Y538D02*
X318Y538D01*
X339Y538D02*
X363Y538D01*
X250Y537D02*
X253Y537D01*
X270Y537D02*
X277Y537D01*
X299Y537D02*
X304Y537D01*
X311Y537D02*
X317Y537D01*
X339Y537D02*
X364Y537D01*
X249Y536D02*
X254Y536D01*
X271Y536D02*
X278Y536D01*
X299Y536D02*
X304Y536D01*
X311Y536D02*
X317Y536D01*
X338Y536D02*
X344Y536D01*
X359Y536D02*
X364Y536D01*
X249Y535D02*
X254Y535D01*
X272Y535D02*
X278Y535D01*
X299Y535D02*
X304Y535D01*
X310Y535D02*
X316Y535D01*
X338Y535D02*
X343Y535D01*
X359Y535D02*
X364Y535D01*
X249Y534D02*
X254Y534D01*
X273Y534D02*
X278Y534D01*
X299Y534D02*
X304Y534D01*
X309Y534D02*
X316Y534D01*
X338Y534D02*
X343Y534D01*
X359Y534D02*
X365Y534D01*
X249Y533D02*
X255Y533D01*
X273Y533D02*
X278Y533D01*
X299Y533D02*
X304Y533D01*
X308Y533D02*
X315Y533D01*
X337Y533D02*
X343Y533D01*
X360Y533D02*
X365Y533D01*
X250Y532D02*
X278Y532D01*
X294Y532D02*
X315Y532D01*
X337Y532D02*
X343Y532D01*
X360Y532D02*
X365Y532D01*
X250Y531D02*
X278Y531D01*
X293Y531D02*
X314Y531D01*
X337Y531D02*
X342Y531D01*
X360Y531D02*
X365Y531D01*
X251Y530D02*
X277Y530D01*
X293Y530D02*
X313Y530D01*
X337Y530D02*
X342Y530D01*
X360Y530D02*
X366Y530D01*
X252Y529D02*
X277Y529D01*
X293Y529D02*
X312Y529D01*
X337Y529D02*
X342Y529D01*
X361Y529D02*
X366Y529D01*
X253Y528D02*
X275Y528D01*
X293Y528D02*
X311Y528D01*
X337Y528D02*
X341Y528D01*
X361Y528D02*
X365Y528D01*
X255Y527D02*
X274Y527D01*
X294Y527D02*
X309Y527D01*
X338Y527D02*
X340Y527D01*
X362Y527D02*
X364Y527D01*
X251Y473D02*
X272Y473D01*
X303Y473D02*
X319Y473D01*
X336Y473D02*
X339Y473D01*
X360Y473D02*
X363Y473D01*
X249Y472D02*
X273Y472D01*
X301Y472D02*
X320Y472D01*
X335Y472D02*
X340Y472D01*
X358Y472D02*
X364Y472D01*
X249Y471D02*
X274Y471D01*
X300Y471D02*
X320Y471D01*
X335Y471D02*
X340Y471D01*
X357Y471D02*
X364Y471D01*
X248Y470D02*
X275Y470D01*
X299Y470D02*
X320Y470D01*
X335Y470D02*
X340Y470D01*
X356Y470D02*
X364Y470D01*
X248Y469D02*
X276Y469D01*
X299Y469D02*
X319Y469D01*
X335Y469D02*
X340Y469D01*
X355Y469D02*
X363Y469D01*
X247Y468D02*
X276Y468D01*
X298Y468D02*
X318Y468D01*
X335Y468D02*
X340Y468D01*
X354Y468D02*
X362Y468D01*
X247Y467D02*
X252Y467D01*
X271Y467D02*
X276Y467D01*
X298Y467D02*
X304Y467D01*
X335Y467D02*
X340Y467D01*
X353Y467D02*
X361Y467D01*
X247Y466D02*
X253Y466D01*
X271Y466D02*
X276Y466D01*
X297Y466D02*
X303Y466D01*
X335Y466D02*
X340Y466D01*
X351Y466D02*
X360Y466D01*
X248Y465D02*
X254Y465D01*
X272Y465D02*
X276Y465D01*
X297Y465D02*
X303Y465D01*
X335Y465D02*
X340Y465D01*
X350Y465D02*
X359Y465D01*
X248Y464D02*
X255Y464D01*
X272Y464D02*
X276Y464D01*
X296Y464D02*
X302Y464D01*
X335Y464D02*
X340Y464D01*
X349Y464D02*
X358Y464D01*
X249Y463D02*
X255Y463D01*
X273Y463D02*
X275Y463D01*
X296Y463D02*
X302Y463D01*
X335Y463D02*
X340Y463D01*
X348Y463D02*
X356Y463D01*
X249Y462D02*
X256Y462D01*
X295Y462D02*
X301Y462D01*
X335Y462D02*
X340Y462D01*
X347Y462D02*
X355Y462D01*
X250Y461D02*
X257Y461D01*
X295Y461D02*
X301Y461D01*
X335Y461D02*
X340Y461D01*
X346Y461D02*
X354Y461D01*
X251Y460D02*
X258Y460D01*
X294Y460D02*
X300Y460D01*
X335Y460D02*
X340Y460D01*
X344Y460D02*
X353Y460D01*
X252Y459D02*
X259Y459D01*
X294Y459D02*
X300Y459D01*
X335Y459D02*
X340Y459D01*
X343Y459D02*
X352Y459D01*
X252Y458D02*
X259Y458D01*
X293Y458D02*
X299Y458D01*
X335Y458D02*
X340Y458D01*
X342Y458D02*
X351Y458D01*
X253Y457D02*
X260Y457D01*
X293Y457D02*
X299Y457D01*
X335Y457D02*
X349Y457D01*
X254Y456D02*
X261Y456D01*
X292Y456D02*
X298Y456D01*
X335Y456D02*
X348Y456D01*
X255Y455D02*
X262Y455D01*
X292Y455D02*
X298Y455D01*
X335Y455D02*
X347Y455D01*
X256Y454D02*
X262Y454D01*
X292Y454D02*
X297Y454D01*
X335Y454D02*
X346Y454D01*
X256Y453D02*
X263Y453D01*
X291Y453D02*
X297Y453D01*
X335Y453D02*
X345Y453D01*
X257Y452D02*
X264Y452D01*
X291Y452D02*
X296Y452D01*
X335Y452D02*
X344Y452D01*
X258Y451D02*
X265Y451D01*
X291Y451D02*
X296Y451D01*
X335Y451D02*
X342Y451D01*
X259Y450D02*
X266Y450D01*
X291Y450D02*
X296Y450D01*
X335Y450D02*
X342Y450D01*
X259Y449D02*
X266Y449D01*
X291Y449D02*
X296Y449D01*
X335Y449D02*
X343Y449D01*
X260Y448D02*
X267Y448D01*
X291Y448D02*
X297Y448D01*
X335Y448D02*
X344Y448D01*
X261Y447D02*
X268Y447D01*
X292Y447D02*
X297Y447D01*
X335Y447D02*
X346Y447D01*
X262Y446D02*
X269Y446D01*
X292Y446D02*
X297Y446D01*
X335Y446D02*
X347Y446D01*
X263Y445D02*
X269Y445D01*
X292Y445D02*
X298Y445D01*
X335Y445D02*
X348Y445D01*
X263Y444D02*
X270Y444D01*
X293Y444D02*
X298Y444D01*
X335Y444D02*
X349Y444D01*
X264Y443D02*
X271Y443D01*
X293Y443D02*
X299Y443D01*
X335Y443D02*
X340Y443D01*
X342Y443D02*
X350Y443D01*
X265Y442D02*
X272Y442D01*
X294Y442D02*
X299Y442D01*
X335Y442D02*
X340Y442D01*
X343Y442D02*
X351Y442D01*
X266Y441D02*
X272Y441D01*
X294Y441D02*
X300Y441D01*
X335Y441D02*
X340Y441D01*
X344Y441D02*
X353Y441D01*
X266Y440D02*
X273Y440D01*
X295Y440D02*
X300Y440D01*
X335Y440D02*
X340Y440D01*
X345Y440D02*
X354Y440D01*
X267Y439D02*
X274Y439D01*
X295Y439D02*
X301Y439D01*
X335Y439D02*
X340Y439D01*
X346Y439D02*
X355Y439D01*
X268Y438D02*
X275Y438D01*
X296Y438D02*
X301Y438D01*
X335Y438D02*
X340Y438D01*
X348Y438D02*
X356Y438D01*
X248Y437D02*
X252Y437D01*
X269Y437D02*
X275Y437D01*
X296Y437D02*
X302Y437D01*
X335Y437D02*
X340Y437D01*
X349Y437D02*
X357Y437D01*
X248Y436D02*
X252Y436D01*
X270Y436D02*
X276Y436D01*
X297Y436D02*
X303Y436D01*
X335Y436D02*
X340Y436D01*
X350Y436D02*
X358Y436D01*
X247Y435D02*
X252Y435D01*
X270Y435D02*
X276Y435D01*
X297Y435D02*
X303Y435D01*
X335Y435D02*
X340Y435D01*
X351Y435D02*
X360Y435D01*
X247Y434D02*
X253Y434D01*
X271Y434D02*
X276Y434D01*
X298Y434D02*
X304Y434D01*
X335Y434D02*
X340Y434D01*
X352Y434D02*
X361Y434D01*
X248Y433D02*
X254Y433D01*
X271Y433D02*
X276Y433D01*
X298Y433D02*
X305Y433D01*
X335Y433D02*
X340Y433D01*
X353Y433D02*
X362Y433D01*
X248Y432D02*
X276Y432D01*
X299Y432D02*
X319Y432D01*
X335Y432D02*
X340Y432D01*
X355Y432D02*
X363Y432D01*
X248Y431D02*
X276Y431D01*
X299Y431D02*
X320Y431D01*
X335Y431D02*
X340Y431D01*
X356Y431D02*
X364Y431D01*
X249Y430D02*
X275Y430D01*
X300Y430D02*
X320Y430D01*
X335Y430D02*
X340Y430D01*
X357Y430D02*
X364Y430D01*
X250Y429D02*
X275Y429D01*
X301Y429D02*
X320Y429D01*
X335Y429D02*
X340Y429D01*
X358Y429D02*
X364Y429D01*
X251Y428D02*
X274Y428D01*
X302Y428D02*
X320Y428D01*
X336Y428D02*
X339Y428D01*
X359Y428D02*
X363Y428D01*
X254Y427D02*
X271Y427D01*
X305Y427D02*
X318Y427D01*
X337Y427D02*
X338Y427D01*
X361Y427D02*
X362Y427D01*
X570Y367D02*
X572Y367D01*
X612Y367D02*
X640Y367D01*
X657Y367D02*
X672Y367D01*
X569Y366D02*
X573Y366D01*
X612Y366D02*
X641Y366D01*
X657Y366D02*
X674Y366D01*
X569Y365D02*
X574Y365D01*
X612Y365D02*
X641Y365D01*
X656Y365D02*
X676Y365D01*
X569Y364D02*
X574Y364D01*
X612Y364D02*
X641Y364D01*
X656Y364D02*
X677Y364D01*
X569Y363D02*
X574Y363D01*
X612Y363D02*
X641Y363D01*
X657Y363D02*
X677Y363D01*
X569Y362D02*
X574Y362D01*
X612Y362D02*
X640Y362D01*
X658Y362D02*
X678Y362D01*
X569Y361D02*
X574Y361D01*
X612Y361D02*
X617Y361D01*
X662Y361D02*
X667Y361D01*
X672Y361D02*
X678Y361D01*
X569Y360D02*
X574Y360D01*
X612Y360D02*
X617Y360D01*
X662Y360D02*
X667Y360D01*
X673Y360D02*
X679Y360D01*
X569Y359D02*
X574Y359D01*
X612Y359D02*
X617Y359D01*
X662Y359D02*
X667Y359D01*
X673Y359D02*
X679Y359D01*
X569Y358D02*
X574Y358D01*
X612Y358D02*
X617Y358D01*
X662Y358D02*
X667Y358D01*
X674Y358D02*
X680Y358D01*
X569Y357D02*
X574Y357D01*
X612Y357D02*
X617Y357D01*
X662Y357D02*
X667Y357D01*
X674Y357D02*
X680Y357D01*
X569Y356D02*
X574Y356D01*
X612Y356D02*
X617Y356D01*
X662Y356D02*
X667Y356D01*
X675Y356D02*
X681Y356D01*
X569Y355D02*
X574Y355D01*
X612Y355D02*
X617Y355D01*
X662Y355D02*
X667Y355D01*
X675Y355D02*
X681Y355D01*
X569Y354D02*
X574Y354D01*
X612Y354D02*
X617Y354D01*
X662Y354D02*
X667Y354D01*
X676Y354D02*
X682Y354D01*
X569Y353D02*
X574Y353D01*
X612Y353D02*
X617Y353D01*
X662Y353D02*
X667Y353D01*
X677Y353D02*
X682Y353D01*
X569Y352D02*
X574Y352D01*
X612Y352D02*
X617Y352D01*
X662Y352D02*
X667Y352D01*
X677Y352D02*
X683Y352D01*
X569Y351D02*
X574Y351D01*
X612Y351D02*
X617Y351D01*
X662Y351D02*
X667Y351D01*
X678Y351D02*
X683Y351D01*
X569Y350D02*
X574Y350D01*
X612Y350D02*
X617Y350D01*
X662Y350D02*
X667Y350D01*
X678Y350D02*
X684Y350D01*
X569Y349D02*
X574Y349D01*
X612Y349D02*
X617Y349D01*
X662Y349D02*
X667Y349D01*
X679Y349D02*
X684Y349D01*
X569Y348D02*
X574Y348D01*
X612Y348D02*
X617Y348D01*
X662Y348D02*
X667Y348D01*
X679Y348D02*
X685Y348D01*
X569Y347D02*
X574Y347D01*
X612Y347D02*
X627Y347D01*
X662Y347D02*
X667Y347D01*
X679Y347D02*
X685Y347D01*
X569Y346D02*
X574Y346D01*
X612Y346D02*
X629Y346D01*
X662Y346D02*
X667Y346D01*
X680Y346D02*
X685Y346D01*
X569Y345D02*
X574Y345D01*
X612Y345D02*
X629Y345D01*
X662Y345D02*
X667Y345D01*
X680Y345D02*
X685Y345D01*
X569Y344D02*
X574Y344D01*
X612Y344D02*
X629Y344D01*
X662Y344D02*
X667Y344D01*
X680Y344D02*
X685Y344D01*
X569Y343D02*
X574Y343D01*
X612Y343D02*
X629Y343D01*
X662Y343D02*
X667Y343D01*
X680Y343D02*
X685Y343D01*
X569Y342D02*
X574Y342D01*
X612Y342D02*
X629Y342D01*
X662Y342D02*
X667Y342D01*
X680Y342D02*
X685Y342D01*
X569Y341D02*
X574Y341D01*
X612Y341D02*
X627Y341D01*
X662Y341D02*
X667Y341D01*
X679Y341D02*
X685Y341D01*
X569Y340D02*
X574Y340D01*
X612Y340D02*
X617Y340D01*
X662Y340D02*
X667Y340D01*
X679Y340D02*
X685Y340D01*
X569Y339D02*
X574Y339D01*
X612Y339D02*
X617Y339D01*
X662Y339D02*
X667Y339D01*
X679Y339D02*
X684Y339D01*
X569Y338D02*
X574Y338D01*
X612Y338D02*
X617Y338D01*
X662Y338D02*
X667Y338D01*
X678Y338D02*
X684Y338D01*
X569Y337D02*
X574Y337D01*
X612Y337D02*
X617Y337D01*
X662Y337D02*
X667Y337D01*
X678Y337D02*
X683Y337D01*
X569Y336D02*
X574Y336D01*
X612Y336D02*
X617Y336D01*
X662Y336D02*
X667Y336D01*
X677Y336D02*
X683Y336D01*
X569Y335D02*
X574Y335D01*
X612Y335D02*
X617Y335D01*
X662Y335D02*
X667Y335D01*
X677Y335D02*
X682Y335D01*
X569Y334D02*
X574Y334D01*
X612Y334D02*
X617Y334D01*
X662Y334D02*
X667Y334D01*
X676Y334D02*
X682Y334D01*
X569Y333D02*
X574Y333D01*
X612Y333D02*
X617Y333D01*
X662Y333D02*
X667Y333D01*
X675Y333D02*
X681Y333D01*
X569Y332D02*
X574Y332D01*
X612Y332D02*
X617Y332D01*
X662Y332D02*
X667Y332D01*
X675Y332D02*
X681Y332D01*
X569Y331D02*
X574Y331D01*
X612Y331D02*
X617Y331D01*
X662Y331D02*
X667Y331D01*
X674Y331D02*
X680Y331D01*
X569Y330D02*
X574Y330D01*
X612Y330D02*
X617Y330D01*
X662Y330D02*
X667Y330D01*
X674Y330D02*
X680Y330D01*
X569Y329D02*
X574Y329D01*
X612Y329D02*
X617Y329D01*
X662Y329D02*
X667Y329D01*
X673Y329D02*
X679Y329D01*
X569Y328D02*
X574Y328D01*
X612Y328D02*
X617Y328D01*
X662Y328D02*
X667Y328D01*
X673Y328D02*
X679Y328D01*
X569Y327D02*
X574Y327D01*
X612Y327D02*
X617Y327D01*
X662Y327D02*
X667Y327D01*
X672Y327D02*
X678Y327D01*
X569Y326D02*
X596Y326D01*
X612Y326D02*
X640Y326D01*
X658Y326D02*
X678Y326D01*
X569Y325D02*
X597Y325D01*
X612Y325D02*
X641Y325D01*
X657Y325D02*
X677Y325D01*
X569Y324D02*
X598Y324D01*
X612Y324D02*
X641Y324D01*
X656Y324D02*
X677Y324D01*
X569Y323D02*
X598Y323D01*
X612Y323D02*
X641Y323D01*
X656Y323D02*
X676Y323D01*
X2129Y323D02*
X2132Y323D01*
X569Y322D02*
X597Y322D01*
X612Y322D02*
X641Y322D01*
X657Y322D02*
X675Y322D01*
X2128Y322D02*
X2133Y322D01*
X569Y321D02*
X596Y321D01*
X612Y321D02*
X640Y321D01*
X657Y321D02*
X673Y321D01*
X2128Y321D02*
X2133Y321D01*
X2127Y320D02*
X2133Y320D01*
X2127Y319D02*
X2133Y319D01*
X2127Y318D02*
X2132Y318D01*
X2126Y317D02*
X2132Y317D01*
X2146Y317D02*
X2172Y317D01*
X2126Y316D02*
X2131Y316D01*
X2146Y316D02*
X2172Y316D01*
X2126Y315D02*
X2131Y315D01*
X2146Y315D02*
X2172Y315D01*
X2126Y314D02*
X2131Y314D01*
X2146Y314D02*
X2172Y314D01*
X2125Y313D02*
X2131Y313D01*
X2146Y313D02*
X2172Y313D01*
X2125Y312D02*
X2131Y312D01*
X2146Y312D02*
X2172Y312D01*
X2125Y311D02*
X2131Y311D01*
X2146Y311D02*
X2151Y311D01*
X2167Y311D02*
X2172Y311D01*
X2125Y310D02*
X2131Y310D01*
X2146Y310D02*
X2151Y310D01*
X2167Y310D02*
X2172Y310D01*
X2125Y309D02*
X2131Y309D01*
X2146Y309D02*
X2151Y309D01*
X2167Y309D02*
X2172Y309D01*
X2125Y308D02*
X2131Y308D01*
X2146Y308D02*
X2151Y308D01*
X2167Y308D02*
X2172Y308D01*
X2125Y307D02*
X2131Y307D01*
X2146Y307D02*
X2151Y307D01*
X2167Y307D02*
X2172Y307D01*
X2125Y306D02*
X2131Y306D01*
X2146Y306D02*
X2151Y306D01*
X2167Y306D02*
X2172Y306D01*
X2125Y305D02*
X2131Y305D01*
X2146Y305D02*
X2151Y305D01*
X2167Y305D02*
X2172Y305D01*
X2125Y304D02*
X2131Y304D01*
X2146Y304D02*
X2151Y304D01*
X2167Y304D02*
X2172Y304D01*
X2125Y303D02*
X2131Y303D01*
X2146Y303D02*
X2151Y303D01*
X2167Y303D02*
X2172Y303D01*
X2125Y302D02*
X2131Y302D01*
X2146Y302D02*
X2151Y302D01*
X2167Y302D02*
X2172Y302D01*
X2125Y301D02*
X2131Y301D01*
X2146Y301D02*
X2151Y301D01*
X2167Y301D02*
X2172Y301D01*
X2125Y300D02*
X2131Y300D01*
X2146Y300D02*
X2151Y300D01*
X2167Y300D02*
X2172Y300D01*
X2126Y299D02*
X2151Y299D01*
X2167Y299D02*
X2172Y299D01*
X2126Y298D02*
X2151Y298D01*
X2167Y298D02*
X2172Y298D01*
X2126Y297D02*
X2151Y297D01*
X2167Y297D02*
X2172Y297D01*
X2127Y296D02*
X2150Y296D01*
X2167Y296D02*
X2172Y296D01*
X2128Y295D02*
X2149Y295D01*
X2167Y295D02*
X2171Y295D01*
X2129Y294D02*
X2147Y294D01*
X2168Y294D02*
X2170Y294D01*
X328Y288D02*
X330Y288D01*
X369Y288D02*
X372Y288D01*
X327Y287D02*
X331Y287D01*
X368Y287D02*
X372Y287D01*
X327Y286D02*
X332Y286D01*
X368Y286D02*
X373Y286D01*
X327Y285D02*
X332Y285D01*
X368Y285D02*
X373Y285D01*
X327Y284D02*
X332Y284D01*
X368Y284D02*
X373Y284D01*
X327Y283D02*
X332Y283D01*
X368Y283D02*
X373Y283D01*
X327Y282D02*
X332Y282D01*
X349Y282D02*
X351Y282D01*
X368Y282D02*
X373Y282D01*
X327Y281D02*
X332Y281D01*
X348Y281D02*
X352Y281D01*
X368Y281D02*
X373Y281D01*
X327Y280D02*
X332Y280D01*
X347Y280D02*
X352Y280D01*
X368Y280D02*
X373Y280D01*
X327Y279D02*
X332Y279D01*
X347Y279D02*
X352Y279D01*
X368Y279D02*
X373Y279D01*
X2156Y279D02*
X2171Y279D01*
X327Y278D02*
X332Y278D01*
X347Y278D02*
X352Y278D01*
X368Y278D02*
X373Y278D01*
X2154Y278D02*
X2171Y278D01*
X327Y277D02*
X332Y277D01*
X347Y277D02*
X352Y277D01*
X368Y277D02*
X373Y277D01*
X2151Y277D02*
X2172Y277D01*
X327Y276D02*
X332Y276D01*
X347Y276D02*
X352Y276D01*
X368Y276D02*
X373Y276D01*
X2149Y276D02*
X2172Y276D01*
X327Y275D02*
X332Y275D01*
X347Y275D02*
X352Y275D01*
X368Y275D02*
X373Y275D01*
X2146Y275D02*
X2171Y275D01*
X327Y274D02*
X332Y274D01*
X347Y274D02*
X352Y274D01*
X368Y274D02*
X373Y274D01*
X2144Y274D02*
X2170Y274D01*
X327Y273D02*
X332Y273D01*
X347Y273D02*
X352Y273D01*
X368Y273D02*
X373Y273D01*
X2141Y273D02*
X2157Y273D01*
X327Y272D02*
X332Y272D01*
X347Y272D02*
X352Y272D01*
X368Y272D02*
X373Y272D01*
X2138Y272D02*
X2154Y272D01*
X327Y271D02*
X332Y271D01*
X347Y271D02*
X352Y271D01*
X368Y271D02*
X373Y271D01*
X2136Y271D02*
X2152Y271D01*
X327Y270D02*
X332Y270D01*
X347Y270D02*
X352Y270D01*
X368Y270D02*
X373Y270D01*
X2133Y270D02*
X2149Y270D01*
X327Y269D02*
X332Y269D01*
X347Y269D02*
X352Y269D01*
X368Y269D02*
X373Y269D01*
X2131Y269D02*
X2147Y269D01*
X327Y268D02*
X332Y268D01*
X347Y268D02*
X352Y268D01*
X368Y268D02*
X373Y268D01*
X2128Y268D02*
X2144Y268D01*
X327Y267D02*
X332Y267D01*
X347Y267D02*
X353Y267D01*
X368Y267D02*
X373Y267D01*
X2126Y267D02*
X2142Y267D01*
X327Y266D02*
X332Y266D01*
X347Y266D02*
X353Y266D01*
X368Y266D02*
X373Y266D01*
X2126Y266D02*
X2139Y266D01*
X327Y265D02*
X332Y265D01*
X346Y265D02*
X354Y265D01*
X368Y265D02*
X373Y265D01*
X2126Y265D02*
X2137Y265D01*
X327Y264D02*
X373Y264D01*
X2126Y264D02*
X2138Y264D01*
X327Y263D02*
X373Y263D01*
X2126Y263D02*
X2141Y263D01*
X327Y262D02*
X372Y262D01*
X2127Y262D02*
X2143Y262D01*
X328Y261D02*
X372Y261D01*
X2130Y261D02*
X2146Y261D01*
X329Y260D02*
X348Y260D01*
X351Y260D02*
X371Y260D01*
X2132Y260D02*
X2148Y260D01*
X330Y259D02*
X346Y259D01*
X353Y259D02*
X369Y259D01*
X2135Y259D02*
X2151Y259D01*
X2138Y258D02*
X2154Y258D01*
X2140Y257D02*
X2156Y257D01*
X2143Y256D02*
X2159Y256D01*
X2145Y255D02*
X2171Y255D01*
X2148Y254D02*
X2171Y254D01*
X2150Y253D02*
X2172Y253D01*
X2153Y252D02*
X2172Y252D01*
X2156Y251D02*
X2171Y251D01*
X2158Y250D02*
X2170Y250D01*
X358Y244D02*
X372Y244D01*
X355Y243D02*
X373Y243D01*
X353Y242D02*
X373Y242D01*
X350Y241D02*
X373Y241D01*
X348Y240D02*
X372Y240D01*
X345Y239D02*
X371Y239D01*
X342Y238D02*
X358Y238D01*
X340Y237D02*
X356Y237D01*
X337Y236D02*
X353Y236D01*
X335Y235D02*
X351Y235D01*
X332Y234D02*
X348Y234D01*
X330Y233D02*
X346Y233D01*
X328Y232D02*
X343Y232D01*
X327Y231D02*
X341Y231D01*
X327Y230D02*
X338Y230D01*
X327Y229D02*
X339Y229D01*
X327Y228D02*
X342Y228D01*
X328Y227D02*
X344Y227D01*
X331Y226D02*
X347Y226D01*
X333Y225D02*
X349Y225D01*
X336Y224D02*
X352Y224D01*
X339Y223D02*
X354Y223D01*
X341Y222D02*
X357Y222D01*
X344Y221D02*
X360Y221D01*
X346Y220D02*
X372Y220D01*
X349Y219D02*
X373Y219D01*
X351Y218D02*
X373Y218D01*
X354Y217D02*
X373Y217D01*
X357Y216D02*
X372Y216D01*
X359Y215D02*
X371Y215D01*
X328Y200D02*
X331Y200D01*
X369Y200D02*
X372Y200D01*
X327Y199D02*
X332Y199D01*
X368Y199D02*
X373Y199D01*
X327Y198D02*
X332Y198D01*
X368Y198D02*
X373Y198D01*
X327Y197D02*
X332Y197D01*
X368Y197D02*
X373Y197D01*
X327Y196D02*
X332Y196D01*
X368Y196D02*
X373Y196D01*
X327Y195D02*
X332Y195D01*
X368Y195D02*
X373Y195D01*
X327Y194D02*
X332Y194D01*
X368Y194D02*
X373Y194D01*
X327Y193D02*
X332Y193D01*
X370Y193D02*
X373Y193D01*
X327Y192D02*
X332Y192D01*
X372Y192D02*
X373Y192D01*
X327Y191D02*
X332Y191D01*
X327Y190D02*
X332Y190D01*
X327Y189D02*
X332Y189D01*
X327Y188D02*
X332Y188D01*
X327Y187D02*
X330Y187D01*
X327Y186D02*
X329Y186D01*
X327Y185D02*
X328Y185D01*
X327Y184D02*
X327Y184D01*
D02*
G04 End of Silk1*
M02*