; NON-PLATED HOLES START AT T1
; THROUGH (PLATED) HOLES START AT T100
M48
INCH
T100C0.027559
%
T100
X013547Y003564
X013547Y006564
X003547Y001564
X001546Y009564
X009547Y011564
X003547Y011564
X001546Y008564
X005547Y011564
X002546Y003564
X010547Y001564
X001546Y005564
X012547Y011564
X014547Y011564
X008547Y001564
X007547Y001564
X013547Y011564
X019547Y001564
X018547Y011564
X020547Y001564
X018547Y001564
X020547Y011564
X006547Y001564
X016547Y001564
X001546Y003564
X004547Y011564
X006547Y011564
X004547Y001564
X017547Y011564
X005547Y001564
X012547Y001564
X010547Y011564
X016547Y011564
X013547Y001564
X009547Y001564
X014547Y001564
X015547Y001564
X001546Y010564
X001546Y007564
X001546Y004564
X001546Y006564
X015547Y011564
X019547Y011564
X017547Y001564
X021547Y001564
X008547Y011564
X011547Y001564
X011547Y011564
X021547Y011564
X007547Y011564
X002546Y011564
T00
M30
