G04 MADE WITH FRITZING*
G04 WWW.FRITZING.ORG*
G04 DOUBLE SIDED*
G04 HOLES PLATED*
G04 CONTOUR ON CENTER OF CONTOUR VECTOR*
%ASAXBY*%
%FSLAX23Y23*%
%MOIN*%
%OFA0B0*%
%SFA1.0B1.0*%
%ADD10C,0.065278*%
%ADD11C,0.078000*%
%LNCOPPER0*%
G90*
G70*
G54D10*
X2112Y94D03*
X2212Y94D03*
X2312Y94D03*
X2412Y94D03*
X2512Y94D03*
X1652Y1994D03*
X1552Y1994D03*
X1452Y1994D03*
X1352Y1994D03*
X1252Y1994D03*
X1152Y1994D03*
X1052Y1994D03*
X952Y1994D03*
X852Y1994D03*
X752Y1994D03*
X2512Y1994D03*
X2412Y1994D03*
X2312Y1994D03*
X2212Y1994D03*
X2112Y1994D03*
X2012Y1994D03*
X1912Y1994D03*
X1812Y1994D03*
X1212Y94D03*
X1112Y94D03*
X1312Y94D03*
X1412Y94D03*
X1512Y94D03*
X1612Y94D03*
X1712Y94D03*
X1812Y94D03*
X2012Y94D03*
G54D11*
X1312Y1794D03*
X1312Y1694D03*
X1312Y1594D03*
X1312Y1494D03*
X1312Y1394D03*
X1312Y1294D03*
X1312Y1194D03*
X1312Y1094D03*
X1312Y994D03*
X1312Y894D03*
X1312Y794D03*
X1312Y694D03*
X1312Y594D03*
X1312Y494D03*
X1312Y394D03*
X1312Y294D03*
X1212Y1794D03*
X1212Y1694D03*
X1212Y1594D03*
X1212Y1494D03*
X1212Y1394D03*
X1212Y1294D03*
X1212Y1194D03*
X1212Y1094D03*
X1212Y994D03*
X1212Y894D03*
X1212Y794D03*
X1212Y694D03*
X1212Y594D03*
X1212Y494D03*
X1212Y394D03*
X1212Y294D03*
X1412Y1794D03*
X1412Y1694D03*
X1412Y1594D03*
X1412Y1494D03*
X1412Y1394D03*
X1412Y1294D03*
X1412Y1194D03*
X1412Y1094D03*
X1412Y994D03*
X1412Y894D03*
X1412Y794D03*
X1412Y694D03*
X1112Y1794D03*
X1112Y1694D03*
X1112Y1594D03*
X1112Y1494D03*
X1112Y1394D03*
X1112Y1294D03*
X1112Y1194D03*
X1112Y1094D03*
X1112Y994D03*
X1112Y894D03*
X1112Y794D03*
X1112Y694D03*
X1112Y594D03*
X1112Y494D03*
X1112Y394D03*
X1112Y294D03*
X912Y1794D03*
X912Y1694D03*
X912Y1594D03*
X912Y1494D03*
X912Y1394D03*
X912Y1294D03*
X912Y1194D03*
X912Y1094D03*
X912Y994D03*
X912Y894D03*
X912Y794D03*
X912Y694D03*
X912Y594D03*
X912Y494D03*
X912Y394D03*
X912Y294D03*
X912Y194D03*
X912Y94D03*
X712Y1794D03*
X712Y1694D03*
X712Y1594D03*
X712Y1494D03*
X712Y1394D03*
X712Y1294D03*
X712Y1194D03*
X712Y1094D03*
X712Y994D03*
X712Y894D03*
X712Y794D03*
X712Y694D03*
X712Y594D03*
X712Y494D03*
X712Y394D03*
X712Y294D03*
X712Y194D03*
X712Y94D03*
X1012Y1794D03*
X1012Y1694D03*
X1012Y1594D03*
X1012Y1494D03*
X1912Y1794D03*
X1912Y1694D03*
X1912Y1594D03*
X1912Y1494D03*
X1912Y1394D03*
X1912Y1294D03*
X1912Y1194D03*
X1912Y1094D03*
X1912Y994D03*
X1912Y894D03*
X1912Y794D03*
X1912Y694D03*
X1912Y594D03*
X1912Y494D03*
X1912Y394D03*
X1912Y294D03*
X612Y1994D03*
X612Y1894D03*
X612Y1794D03*
X612Y1694D03*
X612Y1594D03*
X612Y1494D03*
X612Y1394D03*
X612Y1294D03*
X612Y1194D03*
X612Y1094D03*
X612Y994D03*
X612Y894D03*
X612Y794D03*
X612Y694D03*
X612Y594D03*
X612Y494D03*
X612Y394D03*
X612Y294D03*
X612Y194D03*
X612Y94D03*
X2312Y1794D03*
X2312Y1694D03*
X2312Y1594D03*
X2312Y1494D03*
X2312Y1394D03*
X2312Y1294D03*
X2312Y1194D03*
X2312Y1094D03*
X2312Y994D03*
X2312Y894D03*
X2312Y794D03*
X2312Y694D03*
X2312Y594D03*
X2312Y494D03*
X2312Y394D03*
X2312Y294D03*
X1012Y1394D03*
X1012Y1294D03*
X1012Y1194D03*
X1012Y1094D03*
X1012Y994D03*
X1012Y894D03*
X1012Y794D03*
X1012Y694D03*
X1012Y594D03*
X1012Y494D03*
X1012Y394D03*
X1012Y294D03*
X1012Y194D03*
X1012Y94D03*
X2412Y1794D03*
X2412Y1694D03*
X2412Y1594D03*
X2412Y1494D03*
X2412Y1394D03*
X2412Y1294D03*
X2412Y1194D03*
X2412Y1094D03*
X2412Y994D03*
X2412Y894D03*
X2412Y794D03*
X2412Y694D03*
X2412Y594D03*
X2412Y494D03*
X2412Y394D03*
X2412Y294D03*
X2212Y1794D03*
X2212Y1694D03*
X2212Y1594D03*
X2212Y1494D03*
X2212Y1394D03*
X2212Y1294D03*
X2212Y1194D03*
X2212Y1094D03*
X2212Y994D03*
X2212Y894D03*
X2212Y794D03*
X2212Y694D03*
X2212Y594D03*
X2212Y494D03*
X2212Y394D03*
X2212Y294D03*
X1812Y1794D03*
X1812Y1694D03*
X1812Y1594D03*
X1812Y1494D03*
X1812Y1394D03*
X1812Y1294D03*
X1812Y1194D03*
X1812Y1094D03*
X1812Y994D03*
X1812Y894D03*
X1812Y794D03*
X1812Y694D03*
X1812Y594D03*
X1812Y494D03*
X1812Y394D03*
X1812Y294D03*
X2012Y1794D03*
X2012Y1694D03*
X2012Y1594D03*
X2012Y1494D03*
X2012Y1394D03*
X2012Y1294D03*
X2012Y1194D03*
X2012Y1094D03*
X2012Y994D03*
X2012Y894D03*
X2012Y794D03*
X2012Y694D03*
X2012Y594D03*
X2012Y494D03*
X2012Y394D03*
X2012Y294D03*
X2112Y1794D03*
X2112Y1694D03*
X2112Y1594D03*
X2112Y1494D03*
X2112Y1394D03*
X2112Y1294D03*
X2112Y1194D03*
X2112Y1094D03*
X2112Y994D03*
X2112Y894D03*
X2112Y794D03*
X2112Y694D03*
X2112Y594D03*
X2112Y494D03*
X2112Y394D03*
X2112Y294D03*
X812Y1794D03*
X812Y1694D03*
X812Y1594D03*
X812Y1494D03*
X812Y1394D03*
X812Y1294D03*
X812Y1194D03*
X812Y1094D03*
X812Y994D03*
X812Y894D03*
X812Y794D03*
X812Y694D03*
X812Y594D03*
X812Y494D03*
X812Y394D03*
X812Y294D03*
X812Y194D03*
X812Y94D03*
X512Y1994D03*
X512Y1894D03*
X512Y1794D03*
X512Y1694D03*
X512Y1594D03*
X512Y1494D03*
X512Y1394D03*
X512Y1294D03*
X512Y1194D03*
X512Y1094D03*
X512Y994D03*
X512Y894D03*
X512Y794D03*
X512Y694D03*
X512Y594D03*
X512Y494D03*
X512Y394D03*
X512Y294D03*
X512Y194D03*
X512Y94D03*
X212Y1994D03*
X212Y1894D03*
X212Y1794D03*
X1412Y594D03*
X1412Y494D03*
X1412Y394D03*
X1412Y294D03*
X312Y1994D03*
X312Y1894D03*
X312Y1794D03*
X112Y1994D03*
X112Y1894D03*
X112Y1794D03*
X2512Y1794D03*
X2512Y1694D03*
X2512Y1594D03*
X2512Y1494D03*
X2512Y1394D03*
X2512Y1294D03*
X2512Y1194D03*
X2512Y1094D03*
X2512Y994D03*
X2512Y894D03*
X2512Y794D03*
X2512Y694D03*
X2512Y594D03*
X2512Y494D03*
X2512Y394D03*
X2512Y294D03*
X412Y1994D03*
X412Y1894D03*
X412Y1794D03*
X412Y1194D03*
X412Y1094D03*
X412Y994D03*
X412Y894D03*
X412Y794D03*
X412Y694D03*
X412Y594D03*
X412Y494D03*
X412Y394D03*
X412Y294D03*
X412Y194D03*
X412Y94D03*
X1712Y1794D03*
X1712Y1694D03*
X1712Y1594D03*
X1712Y1494D03*
X1712Y1394D03*
X1712Y1294D03*
X1712Y1194D03*
X1712Y1094D03*
X1712Y994D03*
X1712Y894D03*
X1712Y794D03*
X1712Y694D03*
X1512Y1794D03*
X1512Y1694D03*
X1512Y1594D03*
X1512Y1494D03*
X1512Y1394D03*
X1512Y1294D03*
X1512Y1194D03*
X1512Y1094D03*
X1512Y994D03*
X1512Y894D03*
X1512Y794D03*
X1512Y694D03*
X312Y1194D03*
X312Y1094D03*
X312Y994D03*
X312Y894D03*
X312Y794D03*
X312Y694D03*
X312Y594D03*
X312Y494D03*
X312Y394D03*
X312Y294D03*
X312Y194D03*
X312Y94D03*
X1612Y1794D03*
X1612Y1694D03*
X1612Y1594D03*
X1612Y1494D03*
X1612Y1394D03*
X1612Y1294D03*
X1612Y1194D03*
X1612Y1094D03*
X1612Y994D03*
X1612Y894D03*
X1612Y794D03*
X1612Y694D03*
X1512Y594D03*
X1512Y494D03*
X1512Y394D03*
X1512Y294D03*
X212Y1194D03*
X212Y1094D03*
X212Y994D03*
X212Y894D03*
X212Y794D03*
X212Y694D03*
X212Y594D03*
X212Y494D03*
X212Y394D03*
X212Y294D03*
X212Y194D03*
X212Y94D03*
X1612Y594D03*
X1612Y494D03*
X1612Y394D03*
X1612Y294D03*
X1612Y594D03*
X1612Y494D03*
X1612Y394D03*
X1612Y294D03*
X1712Y294D03*
X1712Y394D03*
X1712Y494D03*
X1712Y594D03*
X112Y1194D03*
X112Y1094D03*
X112Y994D03*
X112Y894D03*
X112Y794D03*
X112Y694D03*
X112Y594D03*
X112Y494D03*
X112Y394D03*
X112Y294D03*
X112Y194D03*
X112Y94D03*
G04 End of Copper0*
M02*