; NON-PLATED HOLES START AT T1
; THROUGH (PLATED) HOLES START AT T100
M48
INCH
T100C0.040278
T101C0.038000
%
T100
X016516Y019941
X021116Y019941
X008516Y019941
X011516Y019941
X016116Y000941
X022116Y000941
X024116Y019941
X012516Y019941
X019116Y019941
X024116Y000941
X020116Y000941
X018116Y000941
X015116Y000941
X012116Y000941
X025116Y019941
X025116Y000941
X017116Y000941
X023116Y019941
X009516Y019941
X013116Y000941
X010516Y019941
X007516Y019941
X018116Y019941
X015516Y019941
X013516Y019941
X011116Y000941
X014516Y019941
X022116Y019941
X023116Y000941
X021116Y000941
X014116Y000941
X020116Y019941
T101
X007116Y013941
X010116Y011941
X005116Y010941
X011116Y004941
X021116Y010941
X021116Y002941
X009116Y007941
X014116Y013941
X010116Y008941
X005116Y007941
X024116Y014941
X021116Y005941
X023116Y010941
X009116Y010941
X003116Y005941
X002116Y001941
X015116Y002941
X019116Y002941
X005116Y015941
X016116Y010941
X003116Y003941
X006116Y004941
X003116Y007941
X018116Y012941
X020116Y013941
X002116Y017941
X013116Y005941
X006116Y008941
X012116Y017941
X014116Y002941
X003116Y011941
X023116Y014941
X002116Y002941
X014116Y014941
X020116Y005941
X025116Y017941
X020116Y007941
X019116Y003941
X006116Y015941
X025116Y013941
X014116Y011941
X020116Y008941
X010116Y009941
X002116Y011941
X017116Y015941
X011116Y013941
X023116Y007941
X013116Y006941
X016116Y011941
X019116Y015941
X017116Y003941
X017116Y016941
X005116Y009941
X013116Y007941
X008116Y003941
X019116Y011941
X009116Y000941
X009116Y008941
X012116Y015941
X001116Y009941
X010116Y003941
X025116Y002941
X019116Y014941
X007116Y012941
X025116Y010941
X004116Y006941
X015116Y008941
X004116Y007941
X002116Y004941
X020116Y009941
X025116Y006941
X008116Y000941
X007116Y015941
X015116Y011941
X017116Y009941
X024116Y016941
X013116Y017941
X020116Y014941
X018116Y013941
X017116Y004941
X002116Y006941
X012116Y010941
X007116Y006941
X008116Y002941
X011116Y011941
X023116Y008941
X019116Y010941
X010116Y001941
X013116Y014941
X015116Y007941
X004116Y018941
X004116Y001941
X011116Y015941
X003116Y000941
X024116Y012941
X005116Y017941
X008116Y011941
X005116Y019941
X023116Y011941
X016116Y009941
X007116Y011941
X017116Y002941
X022116Y015941
X011116Y016941
X008116Y005941
X022116Y009941
X013116Y010941
X006116Y003941
X022116Y014941
X005116Y001941
X006116Y000941
X017116Y005941
X005116Y005941
X017116Y007941
X008116Y007941
X023116Y006941
X022116Y013941
X010116Y013941
X005116Y016941
X020116Y011941
X010116Y006941
X003116Y002941
X015116Y003941
X001116Y017941
X005116Y002941
X009116Y009941
X014116Y005941
X015116Y014941
X018116Y009941
X017116Y006941
X021116Y007941
X020116Y012941
X009116Y013941
X021116Y012941
X020116Y015941
X001116Y005941
X025116Y008941
X012116Y003941
X025116Y009941
X015116Y009941
X011116Y003941
X023116Y015941
X001116Y011941
X009116Y012941
X019116Y009941
X010116Y015941
X007116Y007941
X014116Y015941
X019116Y012941
X011116Y006941
X004116Y017941
X001116Y000941
X006116Y011941
X023116Y012941
X002116Y008941
X011116Y009941
X022116Y011941
X009116Y017941
X004116Y000941
X012116Y002941
X022116Y010941
X021116Y017941
X012116Y011941
X020116Y003941
X008116Y012941
X010116Y016941
X010116Y005941
X008116Y006941
X006116Y013941
X006116Y012941
X005116Y000941
X007116Y017941
X009116Y011941
X018116Y015941
X013116Y009941
X018116Y016941
X018116Y002941
X014116Y009941
X004116Y009941
X020116Y004941
X019116Y005941
X022116Y002941
X021116Y015941
X019116Y006941
X009116Y014941
X001116Y010941
X005116Y008941
X012116Y008941
X007116Y009941
X012116Y012941
X006116Y002941
X021116Y011941
X008116Y014941
X005116Y004941
X007116Y008941
X005116Y003941
X010116Y010941
X009116Y016941
X013116Y002941
X003116Y006941
X007116Y005941
X024116Y011941
X002116Y000941
X011116Y010941
X002116Y003941
X019116Y013941
X008116Y016941
X024116Y009941
X016116Y004941
X024116Y004941
X004116Y004941
X006116Y014941
X012116Y005941
X021116Y008941
X014116Y008941
X021116Y006941
X018116Y003941
X013116Y013941
X010116Y000941
X014116Y010941
X016116Y013941
X022116Y004941
X023116Y009941
X003116Y001941
X013116Y012941
X019116Y004941
X015116Y004941
X004116Y002941
X004116Y005941
X007116Y001941
X025116Y011941
X014116Y016941
X023116Y013941
X017116Y010941
X009116Y001941
X009116Y004941
X013116Y008941
X001116Y008941
X016116Y003941
X011116Y017941
X011116Y005941
X024116Y006941
X011116Y014941
X003116Y018941
X018116Y014941
X024116Y008941
X016116Y012941
X018116Y004941
X003116Y010941
X003116Y004941
X015116Y017941
X021116Y009941
X011116Y008941
X024116Y002941
X023116Y003941
X003116Y017941
X008116Y001941
X004116Y011941
X009116Y002941
X017116Y011941
X006116Y007941
X002116Y005941
X008116Y013941
X021116Y003941
X006116Y005941
X004116Y003941
X018116Y011941
X020116Y006941
X025116Y007941
X018116Y005941
X001116Y018941
X010116Y014941
X025116Y014941
X009116Y006941
X012116Y013941
X007116Y014941
X019116Y007941
X016116Y002941
X005116Y018941
X007116Y010941
X013116Y003941
X017116Y008941
X001116Y007941
X022116Y017941
X016116Y014941
X008116Y008941
X008116Y009941
X010116Y007941
X018116Y017941
X022116Y003941
X022116Y012941
X019116Y008941
X025116Y003941
X018116Y008941
X002116Y009941
X016116Y007941
X001116Y001941
X016116Y015941
X003116Y009941
X007116Y003941
X007116Y016941
X024116Y017941
X002116Y007941
X004116Y010941
X015116Y016941
X015116Y013941
X010116Y002941
X006116Y010941
X002116Y019941
X003116Y008941
X005116Y012941
X012116Y006941
X025116Y012941
X001116Y006941
X016116Y016941
X011116Y007941
X006116Y016941
X016116Y005941
X020116Y017941
X016116Y017941
X025116Y016941
X001116Y003941
X013116Y015941
X022116Y005941
X025116Y005941
X011116Y012941
X009116Y003941
X008116Y004941
X014116Y012941
X015116Y010941
X008116Y015941
X010116Y017941
X005116Y006941
X024116Y013941
X005116Y013941
X021116Y013941
X022116Y008941
X014116Y007941
X007116Y002941
X011116Y002941
X024116Y007941
X008116Y010941
X002116Y018941
X015116Y005941
X015116Y015941
X021116Y004941
X010116Y012941
X009116Y015941
X013116Y004941
X014116Y004941
X014116Y017941
X012116Y009941
X018116Y010941
X010116Y004941
X025116Y004941
X013116Y011941
X023116Y017941
X023116Y005941
X015116Y012941
X014116Y006941
X003116Y019941
X001116Y004941
X002116Y010941
X001116Y002941
X024116Y005941
X015116Y006941
X017116Y013941
X024116Y010941
X006116Y009941
X023116Y004941
X016116Y008941
X017116Y012941
X018116Y007941
X022116Y006941
X023116Y016941
X001116Y019941
X012116Y007941
X017116Y017941
X021116Y014941
X006116Y001941
X019116Y017941
X024116Y015941
X004116Y008941
X024116Y003941
X007116Y004941
X022116Y007941
X008116Y017941
X005116Y011941
X006116Y019941
X007116Y000941
X020116Y016941
X016116Y006941
X017116Y014941
X021116Y016941
X022116Y016941
X020116Y010941
X004116Y019941
X009116Y005941
X013116Y016941
X012116Y004941
X005116Y014941
X006116Y017941
X012116Y014941
X006116Y006941
X014116Y003941
X023116Y002941
X025116Y015941
X018116Y006941
X020116Y002941
X012116Y016941
X019116Y016941
X006116Y018941
T00
M30
