G04 MADE WITH FRITZING*
G04 WWW.FRITZING.ORG*
G04 DOUBLE SIDED*
G04 HOLES PLATED*
G04 CONTOUR ON CENTER OF CONTOUR VECTOR*
%ASAXBY*%
%FSLAX23Y23*%
%MOIN*%
%OFA0B0*%
%SFA1.0B1.0*%
%ADD10C,0.010000*%
%ADD11R,0.001000X0.001000*%
%LNSILK1*%
G90*
G70*
G54D10*
X326Y134D02*
X26Y134D01*
D02*
X26Y134D02*
X26Y34D01*
D02*
X26Y34D02*
X326Y34D01*
D02*
X326Y34D02*
X326Y134D01*
G54D11*
X1Y529D02*
X357Y529D01*
X1Y528D02*
X357Y528D01*
X1Y527D02*
X357Y527D01*
X1Y526D02*
X357Y526D01*
X1Y525D02*
X357Y525D01*
X1Y524D02*
X357Y524D01*
X1Y523D02*
X357Y523D01*
X1Y522D02*
X357Y522D01*
X1Y521D02*
X8Y521D01*
X350Y521D02*
X357Y521D01*
X1Y520D02*
X8Y520D01*
X350Y520D02*
X357Y520D01*
X1Y519D02*
X8Y519D01*
X350Y519D02*
X357Y519D01*
X1Y518D02*
X8Y518D01*
X350Y518D02*
X357Y518D01*
X1Y517D02*
X8Y517D01*
X350Y517D02*
X357Y517D01*
X1Y516D02*
X8Y516D01*
X350Y516D02*
X357Y516D01*
X1Y515D02*
X8Y515D01*
X350Y515D02*
X357Y515D01*
X1Y514D02*
X8Y514D01*
X350Y514D02*
X357Y514D01*
X1Y513D02*
X8Y513D01*
X350Y513D02*
X357Y513D01*
X1Y512D02*
X8Y512D01*
X350Y512D02*
X357Y512D01*
X1Y511D02*
X8Y511D01*
X350Y511D02*
X357Y511D01*
X1Y510D02*
X8Y510D01*
X350Y510D02*
X357Y510D01*
X1Y509D02*
X8Y509D01*
X350Y509D02*
X357Y509D01*
X1Y508D02*
X8Y508D01*
X350Y508D02*
X357Y508D01*
X1Y507D02*
X8Y507D01*
X350Y507D02*
X357Y507D01*
X1Y506D02*
X8Y506D01*
X350Y506D02*
X357Y506D01*
X1Y505D02*
X8Y505D01*
X157Y505D02*
X180Y505D01*
X350Y505D02*
X357Y505D01*
X1Y504D02*
X8Y504D01*
X148Y504D02*
X189Y504D01*
X350Y504D02*
X357Y504D01*
X1Y503D02*
X8Y503D01*
X142Y503D02*
X195Y503D01*
X350Y503D02*
X357Y503D01*
X1Y502D02*
X8Y502D01*
X137Y502D02*
X200Y502D01*
X350Y502D02*
X357Y502D01*
X1Y501D02*
X8Y501D01*
X133Y501D02*
X204Y501D01*
X350Y501D02*
X357Y501D01*
X1Y500D02*
X8Y500D01*
X130Y500D02*
X207Y500D01*
X350Y500D02*
X357Y500D01*
X1Y499D02*
X8Y499D01*
X126Y499D02*
X211Y499D01*
X350Y499D02*
X357Y499D01*
X1Y498D02*
X8Y498D01*
X123Y498D02*
X214Y498D01*
X350Y498D02*
X357Y498D01*
X1Y497D02*
X8Y497D01*
X120Y497D02*
X162Y497D01*
X176Y497D02*
X217Y497D01*
X350Y497D02*
X357Y497D01*
X1Y496D02*
X8Y496D01*
X117Y496D02*
X150Y496D01*
X187Y496D02*
X219Y496D01*
X350Y496D02*
X357Y496D01*
X1Y495D02*
X8Y495D01*
X115Y495D02*
X143Y495D01*
X193Y495D02*
X222Y495D01*
X350Y495D02*
X357Y495D01*
X1Y494D02*
X8Y494D01*
X112Y494D02*
X138Y494D01*
X198Y494D02*
X224Y494D01*
X350Y494D02*
X357Y494D01*
X1Y493D02*
X8Y493D01*
X110Y493D02*
X134Y493D01*
X203Y493D02*
X227Y493D01*
X350Y493D02*
X357Y493D01*
X1Y492D02*
X8Y492D01*
X108Y492D02*
X130Y492D01*
X206Y492D02*
X229Y492D01*
X350Y492D02*
X357Y492D01*
X1Y491D02*
X8Y491D01*
X106Y491D02*
X127Y491D01*
X210Y491D02*
X231Y491D01*
X350Y491D02*
X357Y491D01*
X1Y490D02*
X8Y490D01*
X104Y490D02*
X124Y490D01*
X213Y490D02*
X233Y490D01*
X350Y490D02*
X357Y490D01*
X1Y489D02*
X8Y489D01*
X102Y489D02*
X121Y489D01*
X216Y489D02*
X235Y489D01*
X350Y489D02*
X357Y489D01*
X1Y488D02*
X8Y488D01*
X100Y488D02*
X118Y488D01*
X219Y488D02*
X237Y488D01*
X350Y488D02*
X357Y488D01*
X1Y487D02*
X8Y487D01*
X98Y487D02*
X116Y487D01*
X221Y487D02*
X239Y487D01*
X350Y487D02*
X357Y487D01*
X1Y486D02*
X8Y486D01*
X96Y486D02*
X113Y486D01*
X224Y486D02*
X240Y486D01*
X350Y486D02*
X357Y486D01*
X1Y485D02*
X8Y485D01*
X95Y485D02*
X111Y485D01*
X226Y485D02*
X242Y485D01*
X350Y485D02*
X357Y485D01*
X1Y484D02*
X8Y484D01*
X93Y484D02*
X109Y484D01*
X228Y484D02*
X244Y484D01*
X350Y484D02*
X357Y484D01*
X1Y483D02*
X8Y483D01*
X91Y483D02*
X107Y483D01*
X230Y483D02*
X246Y483D01*
X350Y483D02*
X357Y483D01*
X1Y482D02*
X8Y482D01*
X90Y482D02*
X105Y482D01*
X232Y482D02*
X247Y482D01*
X350Y482D02*
X357Y482D01*
X1Y481D02*
X8Y481D01*
X88Y481D02*
X103Y481D01*
X234Y481D02*
X248Y481D01*
X350Y481D02*
X357Y481D01*
X1Y480D02*
X8Y480D01*
X87Y480D02*
X101Y480D01*
X236Y480D02*
X250Y480D01*
X350Y480D02*
X357Y480D01*
X1Y479D02*
X8Y479D01*
X85Y479D02*
X99Y479D01*
X238Y479D02*
X251Y479D01*
X350Y479D02*
X357Y479D01*
X1Y478D02*
X8Y478D01*
X84Y478D02*
X98Y478D01*
X239Y478D02*
X253Y478D01*
X350Y478D02*
X357Y478D01*
X1Y477D02*
X8Y477D01*
X82Y477D02*
X96Y477D01*
X241Y477D02*
X254Y477D01*
X350Y477D02*
X357Y477D01*
X1Y476D02*
X8Y476D01*
X81Y476D02*
X94Y476D01*
X243Y476D02*
X256Y476D01*
X350Y476D02*
X357Y476D01*
X1Y475D02*
X8Y475D01*
X80Y475D02*
X93Y475D01*
X244Y475D02*
X257Y475D01*
X350Y475D02*
X357Y475D01*
X1Y474D02*
X8Y474D01*
X79Y474D02*
X91Y474D01*
X246Y474D02*
X258Y474D01*
X350Y474D02*
X357Y474D01*
X1Y473D02*
X8Y473D01*
X77Y473D02*
X90Y473D01*
X247Y473D02*
X259Y473D01*
X350Y473D02*
X357Y473D01*
X1Y472D02*
X8Y472D01*
X76Y472D02*
X88Y472D01*
X249Y472D02*
X261Y472D01*
X350Y472D02*
X357Y472D01*
X1Y471D02*
X8Y471D01*
X75Y471D02*
X87Y471D01*
X250Y471D02*
X262Y471D01*
X350Y471D02*
X357Y471D01*
X1Y470D02*
X8Y470D01*
X74Y470D02*
X86Y470D01*
X251Y470D02*
X263Y470D01*
X350Y470D02*
X357Y470D01*
X1Y469D02*
X8Y469D01*
X73Y469D02*
X84Y469D01*
X253Y469D02*
X264Y469D01*
X350Y469D02*
X357Y469D01*
X1Y468D02*
X8Y468D01*
X71Y468D02*
X83Y468D01*
X254Y468D02*
X265Y468D01*
X350Y468D02*
X357Y468D01*
X1Y467D02*
X8Y467D01*
X70Y467D02*
X82Y467D01*
X255Y467D02*
X266Y467D01*
X350Y467D02*
X357Y467D01*
X1Y466D02*
X8Y466D01*
X69Y466D02*
X81Y466D01*
X256Y466D02*
X268Y466D01*
X350Y466D02*
X357Y466D01*
X1Y465D02*
X8Y465D01*
X68Y465D02*
X79Y465D01*
X258Y465D02*
X269Y465D01*
X350Y465D02*
X357Y465D01*
X1Y464D02*
X8Y464D01*
X67Y464D02*
X78Y464D01*
X259Y464D02*
X270Y464D01*
X350Y464D02*
X357Y464D01*
X1Y463D02*
X8Y463D01*
X66Y463D02*
X77Y463D01*
X260Y463D02*
X271Y463D01*
X350Y463D02*
X357Y463D01*
X1Y462D02*
X8Y462D01*
X65Y462D02*
X76Y462D01*
X261Y462D02*
X272Y462D01*
X350Y462D02*
X357Y462D01*
X1Y461D02*
X8Y461D01*
X64Y461D02*
X75Y461D01*
X262Y461D02*
X273Y461D01*
X350Y461D02*
X357Y461D01*
X1Y460D02*
X8Y460D01*
X63Y460D02*
X74Y460D01*
X263Y460D02*
X274Y460D01*
X350Y460D02*
X357Y460D01*
X1Y459D02*
X8Y459D01*
X62Y459D02*
X73Y459D01*
X264Y459D02*
X275Y459D01*
X350Y459D02*
X357Y459D01*
X1Y458D02*
X8Y458D01*
X61Y458D02*
X72Y458D01*
X265Y458D02*
X275Y458D01*
X350Y458D02*
X357Y458D01*
X1Y457D02*
X8Y457D01*
X60Y457D02*
X71Y457D01*
X266Y457D02*
X276Y457D01*
X350Y457D02*
X357Y457D01*
X1Y456D02*
X8Y456D01*
X60Y456D02*
X70Y456D01*
X267Y456D02*
X277Y456D01*
X350Y456D02*
X357Y456D01*
X1Y455D02*
X8Y455D01*
X59Y455D02*
X69Y455D01*
X268Y455D02*
X278Y455D01*
X350Y455D02*
X357Y455D01*
X1Y454D02*
X8Y454D01*
X58Y454D02*
X68Y454D01*
X269Y454D02*
X279Y454D01*
X350Y454D02*
X357Y454D01*
X1Y453D02*
X8Y453D01*
X57Y453D02*
X67Y453D01*
X270Y453D02*
X280Y453D01*
X350Y453D02*
X357Y453D01*
X1Y452D02*
X8Y452D01*
X56Y452D02*
X66Y452D01*
X271Y452D02*
X281Y452D01*
X350Y452D02*
X357Y452D01*
X1Y451D02*
X8Y451D01*
X55Y451D02*
X65Y451D01*
X272Y451D02*
X282Y451D01*
X350Y451D02*
X357Y451D01*
X1Y450D02*
X8Y450D01*
X54Y450D02*
X64Y450D01*
X273Y450D02*
X282Y450D01*
X350Y450D02*
X357Y450D01*
X1Y449D02*
X8Y449D01*
X54Y449D02*
X63Y449D01*
X274Y449D02*
X283Y449D01*
X350Y449D02*
X357Y449D01*
X1Y448D02*
X8Y448D01*
X53Y448D02*
X63Y448D01*
X275Y448D02*
X284Y448D01*
X350Y448D02*
X357Y448D01*
X1Y447D02*
X8Y447D01*
X52Y447D02*
X62Y447D01*
X275Y447D02*
X285Y447D01*
X350Y447D02*
X357Y447D01*
X1Y446D02*
X8Y446D01*
X51Y446D02*
X61Y446D01*
X276Y446D02*
X286Y446D01*
X350Y446D02*
X357Y446D01*
X1Y445D02*
X8Y445D01*
X51Y445D02*
X60Y445D01*
X277Y445D02*
X286Y445D01*
X350Y445D02*
X357Y445D01*
X1Y444D02*
X8Y444D01*
X50Y444D02*
X59Y444D01*
X278Y444D02*
X287Y444D01*
X350Y444D02*
X357Y444D01*
X1Y443D02*
X8Y443D01*
X49Y443D02*
X59Y443D01*
X279Y443D02*
X288Y443D01*
X350Y443D02*
X357Y443D01*
X1Y442D02*
X8Y442D01*
X49Y442D02*
X58Y442D01*
X279Y442D02*
X288Y442D01*
X350Y442D02*
X357Y442D01*
X1Y441D02*
X8Y441D01*
X48Y441D02*
X57Y441D01*
X280Y441D02*
X289Y441D01*
X350Y441D02*
X357Y441D01*
X1Y440D02*
X8Y440D01*
X47Y440D02*
X56Y440D01*
X281Y440D02*
X290Y440D01*
X350Y440D02*
X357Y440D01*
X1Y439D02*
X8Y439D01*
X47Y439D02*
X56Y439D01*
X282Y439D02*
X290Y439D01*
X350Y439D02*
X357Y439D01*
X1Y438D02*
X8Y438D01*
X47Y438D02*
X55Y438D01*
X282Y438D02*
X291Y438D01*
X350Y438D02*
X357Y438D01*
X1Y437D02*
X8Y437D01*
X47Y437D02*
X54Y437D01*
X283Y437D02*
X292Y437D01*
X350Y437D02*
X357Y437D01*
X1Y436D02*
X8Y436D01*
X47Y436D02*
X54Y436D01*
X284Y436D02*
X292Y436D01*
X350Y436D02*
X357Y436D01*
X1Y435D02*
X8Y435D01*
X47Y435D02*
X54Y435D01*
X284Y435D02*
X293Y435D01*
X350Y435D02*
X357Y435D01*
X1Y434D02*
X8Y434D01*
X47Y434D02*
X54Y434D01*
X285Y434D02*
X294Y434D01*
X350Y434D02*
X357Y434D01*
X1Y433D02*
X8Y433D01*
X47Y433D02*
X54Y433D01*
X286Y433D02*
X294Y433D01*
X350Y433D02*
X357Y433D01*
X1Y432D02*
X8Y432D01*
X47Y432D02*
X54Y432D01*
X286Y432D02*
X295Y432D01*
X350Y432D02*
X357Y432D01*
X1Y431D02*
X8Y431D01*
X47Y431D02*
X54Y431D01*
X287Y431D02*
X295Y431D01*
X350Y431D02*
X357Y431D01*
X1Y430D02*
X8Y430D01*
X47Y430D02*
X54Y430D01*
X287Y430D02*
X296Y430D01*
X350Y430D02*
X357Y430D01*
X1Y429D02*
X8Y429D01*
X47Y429D02*
X54Y429D01*
X288Y429D02*
X296Y429D01*
X350Y429D02*
X357Y429D01*
X1Y428D02*
X8Y428D01*
X47Y428D02*
X54Y428D01*
X288Y428D02*
X297Y428D01*
X350Y428D02*
X357Y428D01*
X1Y427D02*
X8Y427D01*
X47Y427D02*
X54Y427D01*
X289Y427D02*
X297Y427D01*
X350Y427D02*
X357Y427D01*
X1Y426D02*
X8Y426D01*
X47Y426D02*
X54Y426D01*
X290Y426D02*
X298Y426D01*
X350Y426D02*
X357Y426D01*
X1Y425D02*
X8Y425D01*
X47Y425D02*
X54Y425D01*
X290Y425D02*
X299Y425D01*
X350Y425D02*
X357Y425D01*
X1Y424D02*
X8Y424D01*
X47Y424D02*
X54Y424D01*
X291Y424D02*
X299Y424D01*
X350Y424D02*
X357Y424D01*
X1Y423D02*
X8Y423D01*
X47Y423D02*
X54Y423D01*
X291Y423D02*
X299Y423D01*
X350Y423D02*
X357Y423D01*
X1Y422D02*
X8Y422D01*
X47Y422D02*
X54Y422D01*
X292Y422D02*
X300Y422D01*
X350Y422D02*
X357Y422D01*
X1Y421D02*
X8Y421D01*
X47Y421D02*
X54Y421D01*
X292Y421D02*
X300Y421D01*
X350Y421D02*
X357Y421D01*
X1Y420D02*
X8Y420D01*
X47Y420D02*
X54Y420D01*
X293Y420D02*
X301Y420D01*
X350Y420D02*
X357Y420D01*
X1Y419D02*
X8Y419D01*
X47Y419D02*
X54Y419D01*
X293Y419D02*
X301Y419D01*
X350Y419D02*
X357Y419D01*
X1Y418D02*
X8Y418D01*
X47Y418D02*
X54Y418D01*
X294Y418D02*
X302Y418D01*
X350Y418D02*
X357Y418D01*
X1Y417D02*
X8Y417D01*
X47Y417D02*
X54Y417D01*
X294Y417D02*
X302Y417D01*
X350Y417D02*
X357Y417D01*
X1Y416D02*
X8Y416D01*
X47Y416D02*
X54Y416D01*
X295Y416D02*
X303Y416D01*
X350Y416D02*
X357Y416D01*
X1Y415D02*
X8Y415D01*
X47Y415D02*
X54Y415D01*
X295Y415D02*
X303Y415D01*
X350Y415D02*
X357Y415D01*
X1Y414D02*
X8Y414D01*
X47Y414D02*
X54Y414D01*
X296Y414D02*
X303Y414D01*
X350Y414D02*
X357Y414D01*
X1Y413D02*
X8Y413D01*
X47Y413D02*
X54Y413D01*
X296Y413D02*
X304Y413D01*
X350Y413D02*
X357Y413D01*
X1Y412D02*
X8Y412D01*
X47Y412D02*
X54Y412D01*
X296Y412D02*
X304Y412D01*
X350Y412D02*
X357Y412D01*
X1Y411D02*
X8Y411D01*
X47Y411D02*
X54Y411D01*
X297Y411D02*
X305Y411D01*
X350Y411D02*
X357Y411D01*
X1Y410D02*
X8Y410D01*
X47Y410D02*
X54Y410D01*
X297Y410D02*
X305Y410D01*
X350Y410D02*
X357Y410D01*
X1Y409D02*
X8Y409D01*
X47Y409D02*
X54Y409D01*
X297Y409D02*
X305Y409D01*
X350Y409D02*
X357Y409D01*
X1Y408D02*
X8Y408D01*
X47Y408D02*
X54Y408D01*
X298Y408D02*
X306Y408D01*
X350Y408D02*
X357Y408D01*
X1Y407D02*
X8Y407D01*
X47Y407D02*
X54Y407D01*
X298Y407D02*
X306Y407D01*
X350Y407D02*
X357Y407D01*
X1Y406D02*
X8Y406D01*
X47Y406D02*
X54Y406D01*
X299Y406D02*
X306Y406D01*
X350Y406D02*
X357Y406D01*
X1Y405D02*
X8Y405D01*
X47Y405D02*
X54Y405D01*
X299Y405D02*
X306Y405D01*
X350Y405D02*
X357Y405D01*
X1Y404D02*
X8Y404D01*
X47Y404D02*
X54Y404D01*
X299Y404D02*
X303Y404D01*
X350Y404D02*
X357Y404D01*
X1Y403D02*
X8Y403D01*
X300Y403D02*
X300Y403D01*
X350Y403D02*
X357Y403D01*
X1Y402D02*
X8Y402D01*
X350Y402D02*
X357Y402D01*
X1Y401D02*
X8Y401D01*
X350Y401D02*
X357Y401D01*
X1Y400D02*
X8Y400D01*
X350Y400D02*
X357Y400D01*
X1Y399D02*
X8Y399D01*
X350Y399D02*
X357Y399D01*
X1Y398D02*
X8Y398D01*
X350Y398D02*
X357Y398D01*
X1Y397D02*
X8Y397D01*
X350Y397D02*
X357Y397D01*
X1Y396D02*
X8Y396D01*
X350Y396D02*
X357Y396D01*
X1Y395D02*
X8Y395D01*
X350Y395D02*
X357Y395D01*
X1Y394D02*
X8Y394D01*
X350Y394D02*
X357Y394D01*
X1Y393D02*
X8Y393D01*
X350Y393D02*
X357Y393D01*
X1Y392D02*
X8Y392D01*
X350Y392D02*
X357Y392D01*
X1Y391D02*
X8Y391D01*
X350Y391D02*
X357Y391D01*
X1Y390D02*
X8Y390D01*
X350Y390D02*
X357Y390D01*
X1Y389D02*
X8Y389D01*
X350Y389D02*
X357Y389D01*
X1Y388D02*
X8Y388D01*
X350Y388D02*
X357Y388D01*
X1Y387D02*
X8Y387D01*
X350Y387D02*
X357Y387D01*
X1Y386D02*
X8Y386D01*
X350Y386D02*
X357Y386D01*
X1Y385D02*
X8Y385D01*
X350Y385D02*
X357Y385D01*
X1Y384D02*
X8Y384D01*
X350Y384D02*
X357Y384D01*
X1Y383D02*
X8Y383D01*
X350Y383D02*
X357Y383D01*
X1Y382D02*
X8Y382D01*
X350Y382D02*
X357Y382D01*
X1Y381D02*
X8Y381D01*
X350Y381D02*
X357Y381D01*
X1Y380D02*
X8Y380D01*
X350Y380D02*
X357Y380D01*
X1Y379D02*
X8Y379D01*
X350Y379D02*
X357Y379D01*
X1Y378D02*
X8Y378D01*
X350Y378D02*
X357Y378D01*
X1Y377D02*
X8Y377D01*
X350Y377D02*
X357Y377D01*
X1Y376D02*
X8Y376D01*
X350Y376D02*
X357Y376D01*
X1Y375D02*
X8Y375D01*
X350Y375D02*
X357Y375D01*
X1Y374D02*
X8Y374D01*
X350Y374D02*
X357Y374D01*
X1Y373D02*
X8Y373D01*
X350Y373D02*
X357Y373D01*
X1Y372D02*
X8Y372D01*
X350Y372D02*
X357Y372D01*
X1Y371D02*
X8Y371D01*
X350Y371D02*
X357Y371D01*
X1Y370D02*
X8Y370D01*
X350Y370D02*
X357Y370D01*
X1Y369D02*
X8Y369D01*
X350Y369D02*
X357Y369D01*
X1Y368D02*
X8Y368D01*
X350Y368D02*
X357Y368D01*
X1Y367D02*
X8Y367D01*
X350Y367D02*
X357Y367D01*
X1Y366D02*
X8Y366D01*
X350Y366D02*
X357Y366D01*
X1Y365D02*
X8Y365D01*
X350Y365D02*
X357Y365D01*
X1Y364D02*
X8Y364D01*
X350Y364D02*
X357Y364D01*
X1Y363D02*
X8Y363D01*
X350Y363D02*
X357Y363D01*
X1Y362D02*
X8Y362D01*
X350Y362D02*
X357Y362D01*
X1Y361D02*
X8Y361D01*
X350Y361D02*
X357Y361D01*
X1Y360D02*
X8Y360D01*
X350Y360D02*
X357Y360D01*
X1Y359D02*
X8Y359D01*
X350Y359D02*
X357Y359D01*
X1Y358D02*
X8Y358D01*
X350Y358D02*
X357Y358D01*
X1Y357D02*
X8Y357D01*
X350Y357D02*
X357Y357D01*
X1Y356D02*
X8Y356D01*
X350Y356D02*
X357Y356D01*
X1Y355D02*
X8Y355D01*
X350Y355D02*
X357Y355D01*
X1Y354D02*
X8Y354D01*
X350Y354D02*
X357Y354D01*
X1Y353D02*
X8Y353D01*
X350Y353D02*
X357Y353D01*
X1Y352D02*
X8Y352D01*
X350Y352D02*
X357Y352D01*
X1Y351D02*
X8Y351D01*
X350Y351D02*
X357Y351D01*
X1Y350D02*
X8Y350D01*
X350Y350D02*
X357Y350D01*
X1Y349D02*
X8Y349D01*
X350Y349D02*
X357Y349D01*
X1Y348D02*
X8Y348D01*
X350Y348D02*
X357Y348D01*
X1Y347D02*
X8Y347D01*
X350Y347D02*
X357Y347D01*
X1Y346D02*
X8Y346D01*
X350Y346D02*
X357Y346D01*
X1Y345D02*
X8Y345D01*
X350Y345D02*
X357Y345D01*
X1Y344D02*
X8Y344D01*
X350Y344D02*
X357Y344D01*
X1Y343D02*
X8Y343D01*
X350Y343D02*
X357Y343D01*
X1Y342D02*
X8Y342D01*
X350Y342D02*
X357Y342D01*
X1Y341D02*
X8Y341D01*
X350Y341D02*
X357Y341D01*
X1Y340D02*
X8Y340D01*
X350Y340D02*
X357Y340D01*
X1Y339D02*
X8Y339D01*
X350Y339D02*
X357Y339D01*
X1Y338D02*
X8Y338D01*
X350Y338D02*
X357Y338D01*
X1Y337D02*
X8Y337D01*
X350Y337D02*
X357Y337D01*
X1Y336D02*
X8Y336D01*
X350Y336D02*
X357Y336D01*
X1Y335D02*
X8Y335D01*
X350Y335D02*
X357Y335D01*
X1Y334D02*
X8Y334D01*
X350Y334D02*
X357Y334D01*
X1Y333D02*
X8Y333D01*
X350Y333D02*
X357Y333D01*
X1Y332D02*
X8Y332D01*
X350Y332D02*
X357Y332D01*
X1Y331D02*
X8Y331D01*
X350Y331D02*
X357Y331D01*
X1Y330D02*
X8Y330D01*
X350Y330D02*
X357Y330D01*
X1Y329D02*
X8Y329D01*
X350Y329D02*
X357Y329D01*
X1Y328D02*
X8Y328D01*
X350Y328D02*
X357Y328D01*
X1Y327D02*
X8Y327D01*
X350Y327D02*
X357Y327D01*
X1Y326D02*
X8Y326D01*
X350Y326D02*
X357Y326D01*
X1Y325D02*
X8Y325D01*
X350Y325D02*
X357Y325D01*
X1Y324D02*
X8Y324D01*
X350Y324D02*
X357Y324D01*
X1Y323D02*
X8Y323D01*
X350Y323D02*
X357Y323D01*
X1Y322D02*
X8Y322D01*
X350Y322D02*
X357Y322D01*
X1Y321D02*
X8Y321D01*
X350Y321D02*
X357Y321D01*
X1Y320D02*
X8Y320D01*
X350Y320D02*
X357Y320D01*
X1Y319D02*
X8Y319D01*
X350Y319D02*
X357Y319D01*
X1Y318D02*
X8Y318D01*
X350Y318D02*
X357Y318D01*
X1Y317D02*
X8Y317D01*
X350Y317D02*
X357Y317D01*
X1Y316D02*
X8Y316D01*
X300Y316D02*
X300Y316D01*
X350Y316D02*
X357Y316D01*
X1Y315D02*
X8Y315D01*
X299Y315D02*
X303Y315D01*
X350Y315D02*
X357Y315D01*
X1Y314D02*
X8Y314D01*
X47Y314D02*
X54Y314D01*
X299Y314D02*
X306Y314D01*
X350Y314D02*
X357Y314D01*
X1Y313D02*
X8Y313D01*
X47Y313D02*
X54Y313D01*
X299Y313D02*
X307Y313D01*
X350Y313D02*
X357Y313D01*
X1Y312D02*
X8Y312D01*
X47Y312D02*
X54Y312D01*
X298Y312D02*
X306Y312D01*
X350Y312D02*
X357Y312D01*
X1Y311D02*
X8Y311D01*
X47Y311D02*
X54Y311D01*
X298Y311D02*
X306Y311D01*
X350Y311D02*
X357Y311D01*
X1Y310D02*
X8Y310D01*
X47Y310D02*
X54Y310D01*
X298Y310D02*
X305Y310D01*
X350Y310D02*
X357Y310D01*
X1Y309D02*
X8Y309D01*
X47Y309D02*
X54Y309D01*
X297Y309D02*
X305Y309D01*
X350Y309D02*
X357Y309D01*
X1Y308D02*
X8Y308D01*
X47Y308D02*
X54Y308D01*
X297Y308D02*
X305Y308D01*
X350Y308D02*
X357Y308D01*
X1Y307D02*
X8Y307D01*
X47Y307D02*
X54Y307D01*
X296Y307D02*
X304Y307D01*
X350Y307D02*
X357Y307D01*
X1Y306D02*
X8Y306D01*
X47Y306D02*
X54Y306D01*
X296Y306D02*
X304Y306D01*
X350Y306D02*
X357Y306D01*
X1Y305D02*
X8Y305D01*
X47Y305D02*
X54Y305D01*
X296Y305D02*
X304Y305D01*
X350Y305D02*
X357Y305D01*
X1Y304D02*
X8Y304D01*
X47Y304D02*
X54Y304D01*
X295Y304D02*
X303Y304D01*
X350Y304D02*
X357Y304D01*
X1Y303D02*
X8Y303D01*
X47Y303D02*
X54Y303D01*
X295Y303D02*
X303Y303D01*
X350Y303D02*
X357Y303D01*
X1Y302D02*
X8Y302D01*
X47Y302D02*
X54Y302D01*
X294Y302D02*
X302Y302D01*
X350Y302D02*
X357Y302D01*
X1Y301D02*
X8Y301D01*
X47Y301D02*
X54Y301D01*
X294Y301D02*
X302Y301D01*
X350Y301D02*
X357Y301D01*
X1Y300D02*
X8Y300D01*
X47Y300D02*
X54Y300D01*
X293Y300D02*
X301Y300D01*
X350Y300D02*
X357Y300D01*
X1Y299D02*
X8Y299D01*
X47Y299D02*
X54Y299D01*
X293Y299D02*
X301Y299D01*
X350Y299D02*
X357Y299D01*
X1Y298D02*
X8Y298D01*
X47Y298D02*
X54Y298D01*
X292Y298D02*
X300Y298D01*
X350Y298D02*
X357Y298D01*
X1Y297D02*
X8Y297D01*
X47Y297D02*
X54Y297D01*
X292Y297D02*
X300Y297D01*
X350Y297D02*
X357Y297D01*
X1Y296D02*
X8Y296D01*
X47Y296D02*
X54Y296D01*
X291Y296D02*
X300Y296D01*
X350Y296D02*
X357Y296D01*
X1Y295D02*
X8Y295D01*
X47Y295D02*
X54Y295D01*
X291Y295D02*
X299Y295D01*
X350Y295D02*
X357Y295D01*
X1Y294D02*
X8Y294D01*
X47Y294D02*
X54Y294D01*
X290Y294D02*
X299Y294D01*
X350Y294D02*
X357Y294D01*
X1Y293D02*
X8Y293D01*
X47Y293D02*
X54Y293D01*
X290Y293D02*
X298Y293D01*
X350Y293D02*
X357Y293D01*
X1Y292D02*
X8Y292D01*
X47Y292D02*
X54Y292D01*
X289Y292D02*
X298Y292D01*
X350Y292D02*
X357Y292D01*
X1Y291D02*
X8Y291D01*
X47Y291D02*
X54Y291D01*
X289Y291D02*
X297Y291D01*
X350Y291D02*
X357Y291D01*
X1Y290D02*
X8Y290D01*
X47Y290D02*
X54Y290D01*
X288Y290D02*
X296Y290D01*
X350Y290D02*
X357Y290D01*
X1Y289D02*
X8Y289D01*
X47Y289D02*
X54Y289D01*
X287Y289D02*
X296Y289D01*
X350Y289D02*
X357Y289D01*
X1Y288D02*
X8Y288D01*
X47Y288D02*
X54Y288D01*
X287Y288D02*
X295Y288D01*
X350Y288D02*
X357Y288D01*
X1Y287D02*
X8Y287D01*
X47Y287D02*
X54Y287D01*
X286Y287D02*
X295Y287D01*
X350Y287D02*
X357Y287D01*
X1Y286D02*
X8Y286D01*
X47Y286D02*
X54Y286D01*
X286Y286D02*
X294Y286D01*
X350Y286D02*
X357Y286D01*
X1Y285D02*
X8Y285D01*
X47Y285D02*
X54Y285D01*
X285Y285D02*
X294Y285D01*
X350Y285D02*
X357Y285D01*
X1Y284D02*
X8Y284D01*
X47Y284D02*
X54Y284D01*
X284Y284D02*
X293Y284D01*
X350Y284D02*
X357Y284D01*
X1Y283D02*
X8Y283D01*
X47Y283D02*
X54Y283D01*
X284Y283D02*
X292Y283D01*
X350Y283D02*
X357Y283D01*
X1Y282D02*
X8Y282D01*
X47Y282D02*
X54Y282D01*
X283Y282D02*
X292Y282D01*
X350Y282D02*
X357Y282D01*
X1Y281D02*
X8Y281D01*
X47Y281D02*
X55Y281D01*
X282Y281D02*
X291Y281D01*
X350Y281D02*
X357Y281D01*
X1Y280D02*
X8Y280D01*
X47Y280D02*
X56Y280D01*
X282Y280D02*
X290Y280D01*
X350Y280D02*
X357Y280D01*
X1Y279D02*
X8Y279D01*
X47Y279D02*
X56Y279D01*
X281Y279D02*
X290Y279D01*
X350Y279D02*
X357Y279D01*
X1Y278D02*
X8Y278D01*
X48Y278D02*
X57Y278D01*
X280Y278D02*
X289Y278D01*
X350Y278D02*
X357Y278D01*
X1Y277D02*
X8Y277D01*
X49Y277D02*
X58Y277D01*
X280Y277D02*
X288Y277D01*
X350Y277D02*
X357Y277D01*
X1Y276D02*
X8Y276D01*
X49Y276D02*
X59Y276D01*
X279Y276D02*
X288Y276D01*
X350Y276D02*
X357Y276D01*
X1Y275D02*
X8Y275D01*
X50Y275D02*
X59Y275D01*
X278Y275D02*
X287Y275D01*
X350Y275D02*
X357Y275D01*
X1Y274D02*
X8Y274D01*
X51Y274D02*
X60Y274D01*
X277Y274D02*
X286Y274D01*
X350Y274D02*
X357Y274D01*
X1Y273D02*
X8Y273D01*
X52Y273D02*
X61Y273D01*
X276Y273D02*
X286Y273D01*
X350Y273D02*
X357Y273D01*
X1Y272D02*
X8Y272D01*
X52Y272D02*
X62Y272D01*
X276Y272D02*
X285Y272D01*
X350Y272D02*
X357Y272D01*
X1Y271D02*
X8Y271D01*
X53Y271D02*
X63Y271D01*
X275Y271D02*
X284Y271D01*
X350Y271D02*
X357Y271D01*
X1Y270D02*
X8Y270D01*
X54Y270D02*
X63Y270D01*
X274Y270D02*
X283Y270D01*
X350Y270D02*
X357Y270D01*
X1Y269D02*
X8Y269D01*
X55Y269D02*
X64Y269D01*
X273Y269D02*
X282Y269D01*
X350Y269D02*
X357Y269D01*
X1Y268D02*
X8Y268D01*
X55Y268D02*
X65Y268D01*
X272Y268D02*
X282Y268D01*
X350Y268D02*
X357Y268D01*
X1Y267D02*
X8Y267D01*
X56Y267D02*
X66Y267D01*
X271Y267D02*
X281Y267D01*
X350Y267D02*
X357Y267D01*
X1Y266D02*
X8Y266D01*
X57Y266D02*
X67Y266D01*
X270Y266D02*
X280Y266D01*
X350Y266D02*
X357Y266D01*
X1Y265D02*
X8Y265D01*
X58Y265D02*
X68Y265D01*
X269Y265D02*
X279Y265D01*
X350Y265D02*
X357Y265D01*
X1Y264D02*
X8Y264D01*
X59Y264D02*
X69Y264D01*
X269Y264D02*
X278Y264D01*
X350Y264D02*
X357Y264D01*
X1Y263D02*
X8Y263D01*
X60Y263D02*
X70Y263D01*
X268Y263D02*
X277Y263D01*
X350Y263D02*
X357Y263D01*
X1Y262D02*
X8Y262D01*
X61Y262D02*
X71Y262D01*
X267Y262D02*
X277Y262D01*
X350Y262D02*
X357Y262D01*
X1Y261D02*
X8Y261D01*
X61Y261D02*
X72Y261D01*
X266Y261D02*
X276Y261D01*
X350Y261D02*
X357Y261D01*
X1Y260D02*
X8Y260D01*
X62Y260D02*
X73Y260D01*
X265Y260D02*
X275Y260D01*
X350Y260D02*
X357Y260D01*
X1Y259D02*
X8Y259D01*
X63Y259D02*
X74Y259D01*
X263Y259D02*
X274Y259D01*
X350Y259D02*
X357Y259D01*
X1Y258D02*
X8Y258D01*
X64Y258D02*
X75Y258D01*
X262Y258D02*
X273Y258D01*
X350Y258D02*
X357Y258D01*
X1Y257D02*
X8Y257D01*
X65Y257D02*
X76Y257D01*
X261Y257D02*
X272Y257D01*
X350Y257D02*
X357Y257D01*
X1Y256D02*
X8Y256D01*
X66Y256D02*
X77Y256D01*
X260Y256D02*
X271Y256D01*
X350Y256D02*
X357Y256D01*
X1Y255D02*
X8Y255D01*
X67Y255D02*
X78Y255D01*
X259Y255D02*
X270Y255D01*
X350Y255D02*
X357Y255D01*
X1Y254D02*
X8Y254D01*
X68Y254D02*
X80Y254D01*
X258Y254D02*
X269Y254D01*
X350Y254D02*
X357Y254D01*
X1Y253D02*
X8Y253D01*
X69Y253D02*
X81Y253D01*
X257Y253D02*
X268Y253D01*
X350Y253D02*
X357Y253D01*
X1Y252D02*
X8Y252D01*
X70Y252D02*
X82Y252D01*
X255Y252D02*
X267Y252D01*
X350Y252D02*
X357Y252D01*
X1Y251D02*
X8Y251D01*
X72Y251D02*
X83Y251D01*
X254Y251D02*
X266Y251D01*
X350Y251D02*
X357Y251D01*
X1Y250D02*
X8Y250D01*
X73Y250D02*
X85Y250D01*
X253Y250D02*
X264Y250D01*
X350Y250D02*
X357Y250D01*
X1Y249D02*
X8Y249D01*
X74Y249D02*
X86Y249D01*
X252Y249D02*
X263Y249D01*
X350Y249D02*
X357Y249D01*
X1Y248D02*
X8Y248D01*
X75Y248D02*
X87Y248D01*
X250Y248D02*
X262Y248D01*
X350Y248D02*
X357Y248D01*
X1Y247D02*
X8Y247D01*
X76Y247D02*
X88Y247D01*
X249Y247D02*
X261Y247D01*
X350Y247D02*
X357Y247D01*
X1Y246D02*
X8Y246D01*
X77Y246D02*
X90Y246D01*
X247Y246D02*
X260Y246D01*
X350Y246D02*
X357Y246D01*
X1Y245D02*
X8Y245D01*
X79Y245D02*
X91Y245D01*
X246Y245D02*
X258Y245D01*
X350Y245D02*
X357Y245D01*
X1Y244D02*
X8Y244D01*
X80Y244D02*
X93Y244D01*
X244Y244D02*
X257Y244D01*
X350Y244D02*
X357Y244D01*
X1Y243D02*
X8Y243D01*
X81Y243D02*
X94Y243D01*
X243Y243D02*
X256Y243D01*
X350Y243D02*
X357Y243D01*
X1Y242D02*
X8Y242D01*
X83Y242D02*
X96Y242D01*
X241Y242D02*
X255Y242D01*
X350Y242D02*
X357Y242D01*
X1Y241D02*
X8Y241D01*
X84Y241D02*
X98Y241D01*
X240Y241D02*
X253Y241D01*
X350Y241D02*
X357Y241D01*
X1Y240D02*
X8Y240D01*
X85Y240D02*
X99Y240D01*
X238Y240D02*
X252Y240D01*
X350Y240D02*
X357Y240D01*
X1Y239D02*
X8Y239D01*
X87Y239D02*
X101Y239D01*
X236Y239D02*
X250Y239D01*
X350Y239D02*
X357Y239D01*
X1Y238D02*
X8Y238D01*
X88Y238D02*
X103Y238D01*
X234Y238D02*
X249Y238D01*
X350Y238D02*
X357Y238D01*
X1Y237D02*
X8Y237D01*
X90Y237D02*
X105Y237D01*
X233Y237D02*
X247Y237D01*
X350Y237D02*
X357Y237D01*
X1Y236D02*
X8Y236D01*
X91Y236D02*
X107Y236D01*
X231Y236D02*
X246Y236D01*
X350Y236D02*
X357Y236D01*
X1Y235D02*
X8Y235D01*
X93Y235D02*
X109Y235D01*
X228Y235D02*
X244Y235D01*
X350Y235D02*
X357Y235D01*
X1Y234D02*
X8Y234D01*
X95Y234D02*
X111Y234D01*
X226Y234D02*
X242Y234D01*
X350Y234D02*
X357Y234D01*
X1Y233D02*
X8Y233D01*
X96Y233D02*
X113Y233D01*
X224Y233D02*
X241Y233D01*
X350Y233D02*
X357Y233D01*
X1Y232D02*
X8Y232D01*
X98Y232D02*
X116Y232D01*
X222Y232D02*
X239Y232D01*
X350Y232D02*
X357Y232D01*
X1Y231D02*
X8Y231D01*
X100Y231D02*
X118Y231D01*
X219Y231D02*
X237Y231D01*
X350Y231D02*
X357Y231D01*
X1Y230D02*
X8Y230D01*
X102Y230D02*
X121Y230D01*
X216Y230D02*
X235Y230D01*
X350Y230D02*
X357Y230D01*
X1Y229D02*
X8Y229D01*
X104Y229D02*
X123Y229D01*
X214Y229D02*
X233Y229D01*
X350Y229D02*
X357Y229D01*
X1Y228D02*
X8Y228D01*
X106Y228D02*
X126Y228D01*
X211Y228D02*
X231Y228D01*
X350Y228D02*
X357Y228D01*
X1Y227D02*
X8Y227D01*
X108Y227D02*
X130Y227D01*
X207Y227D02*
X229Y227D01*
X350Y227D02*
X357Y227D01*
X1Y226D02*
X8Y226D01*
X110Y226D02*
X133Y226D01*
X204Y226D02*
X227Y226D01*
X350Y226D02*
X357Y226D01*
X1Y225D02*
X8Y225D01*
X112Y225D02*
X138Y225D01*
X199Y225D02*
X225Y225D01*
X350Y225D02*
X357Y225D01*
X1Y224D02*
X8Y224D01*
X115Y224D02*
X142Y224D01*
X194Y224D02*
X222Y224D01*
X350Y224D02*
X357Y224D01*
X1Y223D02*
X8Y223D01*
X117Y223D02*
X149Y223D01*
X188Y223D02*
X220Y223D01*
X350Y223D02*
X357Y223D01*
X1Y222D02*
X8Y222D01*
X120Y222D02*
X158Y222D01*
X179Y222D02*
X217Y222D01*
X350Y222D02*
X357Y222D01*
X1Y221D02*
X8Y221D01*
X123Y221D02*
X214Y221D01*
X350Y221D02*
X357Y221D01*
X1Y220D02*
X8Y220D01*
X126Y220D02*
X211Y220D01*
X350Y220D02*
X357Y220D01*
X1Y219D02*
X8Y219D01*
X129Y219D02*
X208Y219D01*
X350Y219D02*
X357Y219D01*
X1Y218D02*
X8Y218D01*
X132Y218D02*
X204Y218D01*
X350Y218D02*
X357Y218D01*
X1Y217D02*
X8Y217D01*
X137Y217D02*
X200Y217D01*
X350Y217D02*
X357Y217D01*
X1Y216D02*
X8Y216D01*
X141Y216D02*
X196Y216D01*
X350Y216D02*
X357Y216D01*
X1Y215D02*
X8Y215D01*
X147Y215D02*
X190Y215D01*
X350Y215D02*
X357Y215D01*
X1Y214D02*
X8Y214D01*
X156Y214D02*
X182Y214D01*
X350Y214D02*
X357Y214D01*
X1Y213D02*
X8Y213D01*
X350Y213D02*
X357Y213D01*
X1Y212D02*
X8Y212D01*
X350Y212D02*
X357Y212D01*
X1Y211D02*
X8Y211D01*
X350Y211D02*
X357Y211D01*
X1Y210D02*
X8Y210D01*
X350Y210D02*
X357Y210D01*
X1Y209D02*
X8Y209D01*
X350Y209D02*
X357Y209D01*
X1Y208D02*
X8Y208D01*
X350Y208D02*
X357Y208D01*
X1Y207D02*
X8Y207D01*
X350Y207D02*
X357Y207D01*
X1Y206D02*
X8Y206D01*
X350Y206D02*
X357Y206D01*
X1Y205D02*
X8Y205D01*
X350Y205D02*
X357Y205D01*
X1Y204D02*
X8Y204D01*
X350Y204D02*
X357Y204D01*
X1Y203D02*
X8Y203D01*
X350Y203D02*
X357Y203D01*
X1Y202D02*
X8Y202D01*
X350Y202D02*
X357Y202D01*
X1Y201D02*
X8Y201D01*
X350Y201D02*
X357Y201D01*
X1Y200D02*
X8Y200D01*
X350Y200D02*
X357Y200D01*
X1Y199D02*
X8Y199D01*
X350Y199D02*
X357Y199D01*
X1Y198D02*
X8Y198D01*
X74Y198D02*
X97Y198D01*
X263Y198D02*
X277Y198D01*
X350Y198D02*
X357Y198D01*
X1Y197D02*
X8Y197D01*
X74Y197D02*
X99Y197D01*
X261Y197D02*
X277Y197D01*
X350Y197D02*
X357Y197D01*
X1Y196D02*
X8Y196D01*
X74Y196D02*
X100Y196D01*
X260Y196D02*
X278Y196D01*
X350Y196D02*
X357Y196D01*
X1Y195D02*
X8Y195D01*
X74Y195D02*
X101Y195D01*
X259Y195D02*
X278Y195D01*
X350Y195D02*
X357Y195D01*
X1Y194D02*
X8Y194D01*
X74Y194D02*
X102Y194D01*
X258Y194D02*
X277Y194D01*
X350Y194D02*
X357Y194D01*
X1Y193D02*
X8Y193D01*
X74Y193D02*
X102Y193D01*
X258Y193D02*
X276Y193D01*
X350Y193D02*
X357Y193D01*
X1Y192D02*
X8Y192D01*
X74Y192D02*
X79Y192D01*
X96Y192D02*
X102Y192D01*
X257Y192D02*
X264Y192D01*
X350Y192D02*
X357Y192D01*
X1Y191D02*
X8Y191D01*
X74Y191D02*
X79Y191D01*
X97Y191D02*
X103Y191D01*
X256Y191D02*
X263Y191D01*
X350Y191D02*
X357Y191D01*
X1Y190D02*
X8Y190D01*
X74Y190D02*
X79Y190D01*
X98Y190D02*
X103Y190D01*
X175Y190D02*
X176Y190D01*
X255Y190D02*
X262Y190D01*
X350Y190D02*
X357Y190D01*
X1Y189D02*
X8Y189D01*
X74Y189D02*
X79Y189D01*
X98Y189D02*
X103Y189D01*
X174Y189D02*
X178Y189D01*
X255Y189D02*
X261Y189D01*
X350Y189D02*
X357Y189D01*
X1Y188D02*
X8Y188D01*
X74Y188D02*
X79Y188D01*
X98Y188D02*
X103Y188D01*
X173Y188D02*
X178Y188D01*
X254Y188D02*
X261Y188D01*
X350Y188D02*
X357Y188D01*
X1Y187D02*
X8Y187D01*
X74Y187D02*
X79Y187D01*
X98Y187D02*
X103Y187D01*
X173Y187D02*
X178Y187D01*
X253Y187D02*
X260Y187D01*
X350Y187D02*
X357Y187D01*
X1Y186D02*
X8Y186D01*
X74Y186D02*
X79Y186D01*
X98Y186D02*
X103Y186D01*
X173Y186D02*
X178Y186D01*
X252Y186D02*
X259Y186D01*
X350Y186D02*
X357Y186D01*
X1Y185D02*
X8Y185D01*
X74Y185D02*
X79Y185D01*
X97Y185D02*
X103Y185D01*
X173Y185D02*
X178Y185D01*
X251Y185D02*
X258Y185D01*
X350Y185D02*
X357Y185D01*
X1Y184D02*
X8Y184D01*
X74Y184D02*
X79Y184D01*
X96Y184D02*
X102Y184D01*
X173Y184D02*
X178Y184D01*
X251Y184D02*
X257Y184D01*
X350Y184D02*
X357Y184D01*
X1Y183D02*
X8Y183D01*
X74Y183D02*
X102Y183D01*
X173Y183D02*
X178Y183D01*
X250Y183D02*
X257Y183D01*
X350Y183D02*
X357Y183D01*
X1Y182D02*
X8Y182D01*
X74Y182D02*
X102Y182D01*
X173Y182D02*
X178Y182D01*
X250Y182D02*
X256Y182D01*
X350Y182D02*
X357Y182D01*
X1Y181D02*
X8Y181D01*
X74Y181D02*
X101Y181D01*
X173Y181D02*
X178Y181D01*
X249Y181D02*
X255Y181D01*
X350Y181D02*
X357Y181D01*
X1Y180D02*
X8Y180D01*
X74Y180D02*
X100Y180D01*
X173Y180D02*
X178Y180D01*
X249Y180D02*
X255Y180D01*
X350Y180D02*
X357Y180D01*
X1Y179D02*
X8Y179D01*
X74Y179D02*
X99Y179D01*
X173Y179D02*
X178Y179D01*
X249Y179D02*
X254Y179D01*
X350Y179D02*
X357Y179D01*
X1Y178D02*
X8Y178D01*
X74Y178D02*
X97Y178D01*
X163Y178D02*
X189Y178D01*
X249Y178D02*
X254Y178D01*
X350Y178D02*
X357Y178D01*
X1Y177D02*
X8Y177D01*
X74Y177D02*
X79Y177D01*
X84Y177D02*
X90Y177D01*
X162Y177D02*
X190Y177D01*
X249Y177D02*
X254Y177D01*
X350Y177D02*
X357Y177D01*
X1Y176D02*
X8Y176D01*
X74Y176D02*
X79Y176D01*
X85Y176D02*
X91Y176D01*
X161Y176D02*
X190Y176D01*
X249Y176D02*
X254Y176D01*
X350Y176D02*
X357Y176D01*
X1Y175D02*
X8Y175D01*
X74Y175D02*
X79Y175D01*
X85Y175D02*
X91Y175D01*
X161Y175D02*
X190Y175D01*
X249Y175D02*
X254Y175D01*
X350Y175D02*
X357Y175D01*
X1Y174D02*
X8Y174D01*
X74Y174D02*
X79Y174D01*
X86Y174D02*
X92Y174D01*
X161Y174D02*
X190Y174D01*
X249Y174D02*
X254Y174D01*
X350Y174D02*
X357Y174D01*
X1Y173D02*
X8Y173D01*
X74Y173D02*
X79Y173D01*
X86Y173D02*
X93Y173D01*
X162Y173D02*
X189Y173D01*
X249Y173D02*
X254Y173D01*
X266Y173D02*
X278Y173D01*
X350Y173D02*
X357Y173D01*
X1Y172D02*
X8Y172D01*
X74Y172D02*
X79Y172D01*
X87Y172D02*
X93Y172D01*
X173Y172D02*
X178Y172D01*
X249Y172D02*
X254Y172D01*
X264Y172D02*
X278Y172D01*
X350Y172D02*
X357Y172D01*
X1Y171D02*
X8Y171D01*
X74Y171D02*
X79Y171D01*
X88Y171D02*
X94Y171D01*
X173Y171D02*
X178Y171D01*
X249Y171D02*
X254Y171D01*
X264Y171D02*
X278Y171D01*
X350Y171D02*
X357Y171D01*
X1Y170D02*
X8Y170D01*
X74Y170D02*
X79Y170D01*
X88Y170D02*
X94Y170D01*
X173Y170D02*
X178Y170D01*
X249Y170D02*
X254Y170D01*
X264Y170D02*
X278Y170D01*
X350Y170D02*
X357Y170D01*
X1Y169D02*
X8Y169D01*
X74Y169D02*
X79Y169D01*
X89Y169D02*
X95Y169D01*
X173Y169D02*
X178Y169D01*
X249Y169D02*
X254Y169D01*
X264Y169D02*
X278Y169D01*
X350Y169D02*
X357Y169D01*
X1Y168D02*
X8Y168D01*
X74Y168D02*
X79Y168D01*
X89Y168D02*
X96Y168D01*
X173Y168D02*
X178Y168D01*
X249Y168D02*
X254Y168D01*
X265Y168D02*
X278Y168D01*
X350Y168D02*
X357Y168D01*
X1Y167D02*
X8Y167D01*
X74Y167D02*
X79Y167D01*
X90Y167D02*
X96Y167D01*
X173Y167D02*
X178Y167D01*
X249Y167D02*
X254Y167D01*
X272Y167D02*
X278Y167D01*
X350Y167D02*
X357Y167D01*
X1Y166D02*
X8Y166D01*
X74Y166D02*
X79Y166D01*
X91Y166D02*
X97Y166D01*
X173Y166D02*
X178Y166D01*
X249Y166D02*
X254Y166D01*
X273Y166D02*
X278Y166D01*
X350Y166D02*
X357Y166D01*
X1Y165D02*
X8Y165D01*
X74Y165D02*
X79Y165D01*
X91Y165D02*
X97Y165D01*
X173Y165D02*
X178Y165D01*
X249Y165D02*
X254Y165D01*
X273Y165D02*
X278Y165D01*
X350Y165D02*
X357Y165D01*
X1Y164D02*
X8Y164D01*
X74Y164D02*
X79Y164D01*
X92Y164D02*
X98Y164D01*
X173Y164D02*
X178Y164D01*
X249Y164D02*
X254Y164D01*
X273Y164D02*
X278Y164D01*
X350Y164D02*
X357Y164D01*
X1Y163D02*
X8Y163D01*
X74Y163D02*
X79Y163D01*
X92Y163D02*
X98Y163D01*
X173Y163D02*
X178Y163D01*
X249Y163D02*
X254Y163D01*
X273Y163D02*
X278Y163D01*
X350Y163D02*
X357Y163D01*
X1Y162D02*
X8Y162D01*
X74Y162D02*
X79Y162D01*
X93Y162D02*
X99Y162D01*
X173Y162D02*
X178Y162D01*
X249Y162D02*
X254Y162D01*
X273Y162D02*
X278Y162D01*
X350Y162D02*
X357Y162D01*
X1Y161D02*
X8Y161D01*
X74Y161D02*
X79Y161D01*
X93Y161D02*
X100Y161D01*
X174Y161D02*
X177Y161D01*
X249Y161D02*
X254Y161D01*
X273Y161D02*
X278Y161D01*
X350Y161D02*
X357Y161D01*
X1Y160D02*
X8Y160D01*
X74Y160D02*
X79Y160D01*
X94Y160D02*
X100Y160D01*
X249Y160D02*
X254Y160D01*
X272Y160D02*
X278Y160D01*
X350Y160D02*
X357Y160D01*
X1Y159D02*
X8Y159D01*
X74Y159D02*
X79Y159D01*
X95Y159D02*
X101Y159D01*
X249Y159D02*
X254Y159D01*
X272Y159D02*
X278Y159D01*
X350Y159D02*
X357Y159D01*
X1Y158D02*
X8Y158D01*
X74Y158D02*
X79Y158D01*
X95Y158D02*
X101Y158D01*
X249Y158D02*
X256Y158D01*
X271Y158D02*
X277Y158D01*
X350Y158D02*
X357Y158D01*
X1Y157D02*
X8Y157D01*
X74Y157D02*
X79Y157D01*
X96Y157D02*
X102Y157D01*
X249Y157D02*
X277Y157D01*
X350Y157D02*
X357Y157D01*
X1Y156D02*
X8Y156D01*
X74Y156D02*
X79Y156D01*
X96Y156D02*
X102Y156D01*
X250Y156D02*
X276Y156D01*
X350Y156D02*
X357Y156D01*
X1Y155D02*
X8Y155D01*
X74Y155D02*
X79Y155D01*
X97Y155D02*
X103Y155D01*
X251Y155D02*
X276Y155D01*
X350Y155D02*
X357Y155D01*
X1Y154D02*
X8Y154D01*
X74Y154D02*
X79Y154D01*
X98Y154D02*
X103Y154D01*
X252Y154D02*
X275Y154D01*
X350Y154D02*
X357Y154D01*
X1Y153D02*
X8Y153D01*
X74Y153D02*
X78Y153D01*
X98Y153D02*
X102Y153D01*
X253Y153D02*
X273Y153D01*
X350Y153D02*
X357Y153D01*
X1Y152D02*
X8Y152D01*
X75Y152D02*
X77Y152D01*
X99Y152D02*
X101Y152D01*
X255Y152D02*
X271Y152D01*
X350Y152D02*
X357Y152D01*
X1Y151D02*
X8Y151D01*
X350Y151D02*
X357Y151D01*
X1Y150D02*
X8Y150D01*
X350Y150D02*
X357Y150D01*
X1Y149D02*
X8Y149D01*
X350Y149D02*
X357Y149D01*
X1Y148D02*
X8Y148D01*
X350Y148D02*
X357Y148D01*
X1Y147D02*
X8Y147D01*
X350Y147D02*
X357Y147D01*
X1Y146D02*
X8Y146D01*
X350Y146D02*
X357Y146D01*
X1Y145D02*
X8Y145D01*
X350Y145D02*
X357Y145D01*
X1Y144D02*
X8Y144D01*
X350Y144D02*
X357Y144D01*
X1Y143D02*
X8Y143D01*
X350Y143D02*
X357Y143D01*
X1Y142D02*
X8Y142D01*
X350Y142D02*
X357Y142D01*
X1Y141D02*
X8Y141D01*
X350Y141D02*
X357Y141D01*
X1Y140D02*
X8Y140D01*
X350Y140D02*
X357Y140D01*
X1Y139D02*
X8Y139D01*
X350Y139D02*
X357Y139D01*
X1Y138D02*
X8Y138D01*
X350Y138D02*
X357Y138D01*
X1Y137D02*
X8Y137D01*
X350Y137D02*
X357Y137D01*
X1Y136D02*
X8Y136D01*
X350Y136D02*
X357Y136D01*
X1Y135D02*
X8Y135D01*
X292Y135D02*
X293Y135D01*
X350Y135D02*
X357Y135D01*
X1Y134D02*
X8Y134D01*
X291Y134D02*
X294Y134D01*
X350Y134D02*
X357Y134D01*
X1Y133D02*
X8Y133D01*
X290Y133D02*
X295Y133D01*
X350Y133D02*
X357Y133D01*
X1Y132D02*
X8Y132D01*
X290Y132D02*
X296Y132D01*
X350Y132D02*
X357Y132D01*
X1Y131D02*
X8Y131D01*
X291Y131D02*
X297Y131D01*
X350Y131D02*
X357Y131D01*
X1Y130D02*
X8Y130D01*
X292Y130D02*
X298Y130D01*
X350Y130D02*
X357Y130D01*
X1Y129D02*
X8Y129D01*
X293Y129D02*
X299Y129D01*
X350Y129D02*
X357Y129D01*
X1Y128D02*
X8Y128D01*
X294Y128D02*
X300Y128D01*
X350Y128D02*
X357Y128D01*
X1Y127D02*
X8Y127D01*
X295Y127D02*
X301Y127D01*
X350Y127D02*
X357Y127D01*
X1Y126D02*
X8Y126D01*
X296Y126D02*
X302Y126D01*
X350Y126D02*
X357Y126D01*
X1Y125D02*
X8Y125D01*
X297Y125D02*
X303Y125D01*
X350Y125D02*
X357Y125D01*
X1Y124D02*
X8Y124D01*
X298Y124D02*
X304Y124D01*
X350Y124D02*
X357Y124D01*
X1Y123D02*
X8Y123D01*
X299Y123D02*
X305Y123D01*
X350Y123D02*
X357Y123D01*
X1Y122D02*
X8Y122D01*
X300Y122D02*
X306Y122D01*
X350Y122D02*
X357Y122D01*
X1Y121D02*
X8Y121D01*
X301Y121D02*
X307Y121D01*
X350Y121D02*
X357Y121D01*
X1Y120D02*
X8Y120D01*
X302Y120D02*
X308Y120D01*
X350Y120D02*
X357Y120D01*
X1Y119D02*
X8Y119D01*
X303Y119D02*
X309Y119D01*
X350Y119D02*
X357Y119D01*
X1Y118D02*
X8Y118D01*
X305Y118D02*
X310Y118D01*
X350Y118D02*
X357Y118D01*
X1Y117D02*
X8Y117D01*
X306Y117D02*
X311Y117D01*
X350Y117D02*
X357Y117D01*
X1Y116D02*
X8Y116D01*
X307Y116D02*
X312Y116D01*
X350Y116D02*
X357Y116D01*
X1Y115D02*
X8Y115D01*
X308Y115D02*
X313Y115D01*
X350Y115D02*
X357Y115D01*
X1Y114D02*
X8Y114D01*
X309Y114D02*
X314Y114D01*
X350Y114D02*
X357Y114D01*
X1Y113D02*
X8Y113D01*
X310Y113D02*
X315Y113D01*
X350Y113D02*
X357Y113D01*
X1Y112D02*
X8Y112D01*
X311Y112D02*
X316Y112D01*
X350Y112D02*
X357Y112D01*
X1Y111D02*
X8Y111D01*
X311Y111D02*
X317Y111D01*
X350Y111D02*
X357Y111D01*
X1Y110D02*
X8Y110D01*
X312Y110D02*
X318Y110D01*
X350Y110D02*
X357Y110D01*
X1Y109D02*
X8Y109D01*
X313Y109D02*
X319Y109D01*
X350Y109D02*
X357Y109D01*
X1Y108D02*
X8Y108D01*
X314Y108D02*
X320Y108D01*
X350Y108D02*
X357Y108D01*
X1Y107D02*
X8Y107D01*
X315Y107D02*
X321Y107D01*
X350Y107D02*
X357Y107D01*
X1Y106D02*
X8Y106D01*
X316Y106D02*
X322Y106D01*
X350Y106D02*
X357Y106D01*
X1Y105D02*
X8Y105D01*
X317Y105D02*
X323Y105D01*
X350Y105D02*
X357Y105D01*
X1Y104D02*
X8Y104D01*
X318Y104D02*
X324Y104D01*
X350Y104D02*
X357Y104D01*
X1Y103D02*
X8Y103D01*
X319Y103D02*
X325Y103D01*
X350Y103D02*
X357Y103D01*
X1Y102D02*
X8Y102D01*
X320Y102D02*
X326Y102D01*
X350Y102D02*
X357Y102D01*
X1Y101D02*
X8Y101D01*
X321Y101D02*
X327Y101D01*
X350Y101D02*
X357Y101D01*
X1Y100D02*
X8Y100D01*
X322Y100D02*
X326Y100D01*
X350Y100D02*
X357Y100D01*
X1Y99D02*
X8Y99D01*
X323Y99D02*
X325Y99D01*
X350Y99D02*
X357Y99D01*
X1Y98D02*
X8Y98D01*
X324Y98D02*
X324Y98D01*
X350Y98D02*
X357Y98D01*
X1Y97D02*
X8Y97D01*
X350Y97D02*
X357Y97D01*
X1Y96D02*
X8Y96D01*
X350Y96D02*
X357Y96D01*
X1Y95D02*
X8Y95D01*
X350Y95D02*
X357Y95D01*
X1Y94D02*
X8Y94D01*
X350Y94D02*
X357Y94D01*
X1Y93D02*
X8Y93D01*
X350Y93D02*
X357Y93D01*
X1Y92D02*
X8Y92D01*
X350Y92D02*
X357Y92D01*
X1Y91D02*
X8Y91D01*
X350Y91D02*
X357Y91D01*
X1Y90D02*
X8Y90D01*
X350Y90D02*
X357Y90D01*
X1Y89D02*
X8Y89D01*
X350Y89D02*
X357Y89D01*
X1Y88D02*
X8Y88D01*
X350Y88D02*
X357Y88D01*
X1Y87D02*
X8Y87D01*
X350Y87D02*
X357Y87D01*
X1Y86D02*
X8Y86D01*
X350Y86D02*
X357Y86D01*
X1Y85D02*
X8Y85D01*
X350Y85D02*
X357Y85D01*
X1Y84D02*
X8Y84D01*
X350Y84D02*
X357Y84D01*
X1Y83D02*
X8Y83D01*
X350Y83D02*
X357Y83D01*
X1Y82D02*
X8Y82D01*
X350Y82D02*
X357Y82D01*
X1Y81D02*
X8Y81D01*
X350Y81D02*
X357Y81D01*
X1Y80D02*
X8Y80D01*
X350Y80D02*
X357Y80D01*
X1Y79D02*
X8Y79D01*
X350Y79D02*
X357Y79D01*
X1Y78D02*
X8Y78D01*
X350Y78D02*
X357Y78D01*
X1Y77D02*
X8Y77D01*
X350Y77D02*
X357Y77D01*
X1Y76D02*
X8Y76D01*
X350Y76D02*
X357Y76D01*
X1Y75D02*
X8Y75D01*
X350Y75D02*
X357Y75D01*
X1Y74D02*
X8Y74D01*
X350Y74D02*
X357Y74D01*
X1Y73D02*
X8Y73D01*
X350Y73D02*
X357Y73D01*
X1Y72D02*
X8Y72D01*
X350Y72D02*
X357Y72D01*
X1Y71D02*
X8Y71D01*
X350Y71D02*
X357Y71D01*
X1Y70D02*
X8Y70D01*
X350Y70D02*
X357Y70D01*
X1Y69D02*
X8Y69D01*
X350Y69D02*
X357Y69D01*
X1Y68D02*
X8Y68D01*
X350Y68D02*
X357Y68D01*
X1Y67D02*
X8Y67D01*
X350Y67D02*
X357Y67D01*
X1Y66D02*
X8Y66D01*
X350Y66D02*
X357Y66D01*
X1Y65D02*
X8Y65D01*
X350Y65D02*
X357Y65D01*
X1Y64D02*
X8Y64D01*
X350Y64D02*
X357Y64D01*
X1Y63D02*
X8Y63D01*
X350Y63D02*
X357Y63D01*
X1Y62D02*
X8Y62D01*
X350Y62D02*
X357Y62D01*
X1Y61D02*
X8Y61D01*
X350Y61D02*
X357Y61D01*
X1Y60D02*
X8Y60D01*
X350Y60D02*
X357Y60D01*
X1Y59D02*
X8Y59D01*
X350Y59D02*
X357Y59D01*
X1Y58D02*
X8Y58D01*
X350Y58D02*
X357Y58D01*
X1Y57D02*
X8Y57D01*
X350Y57D02*
X357Y57D01*
X1Y56D02*
X8Y56D01*
X350Y56D02*
X357Y56D01*
X1Y55D02*
X8Y55D01*
X350Y55D02*
X357Y55D01*
X1Y54D02*
X8Y54D01*
X350Y54D02*
X357Y54D01*
X1Y53D02*
X8Y53D01*
X350Y53D02*
X357Y53D01*
X1Y52D02*
X8Y52D01*
X350Y52D02*
X357Y52D01*
X1Y51D02*
X8Y51D01*
X350Y51D02*
X357Y51D01*
X1Y50D02*
X8Y50D01*
X350Y50D02*
X357Y50D01*
X1Y49D02*
X8Y49D01*
X350Y49D02*
X357Y49D01*
X1Y48D02*
X8Y48D01*
X350Y48D02*
X357Y48D01*
X1Y47D02*
X8Y47D01*
X350Y47D02*
X357Y47D01*
X1Y46D02*
X8Y46D01*
X350Y46D02*
X357Y46D01*
X1Y45D02*
X8Y45D01*
X350Y45D02*
X357Y45D01*
X1Y44D02*
X8Y44D01*
X350Y44D02*
X357Y44D01*
X1Y43D02*
X8Y43D01*
X350Y43D02*
X357Y43D01*
X1Y42D02*
X8Y42D01*
X350Y42D02*
X357Y42D01*
X1Y41D02*
X8Y41D01*
X350Y41D02*
X357Y41D01*
X1Y40D02*
X8Y40D01*
X350Y40D02*
X357Y40D01*
X1Y39D02*
X8Y39D01*
X350Y39D02*
X357Y39D01*
X1Y38D02*
X8Y38D01*
X350Y38D02*
X357Y38D01*
X1Y37D02*
X8Y37D01*
X350Y37D02*
X357Y37D01*
X1Y36D02*
X8Y36D01*
X350Y36D02*
X357Y36D01*
X1Y35D02*
X8Y35D01*
X350Y35D02*
X357Y35D01*
X1Y34D02*
X8Y34D01*
X350Y34D02*
X357Y34D01*
X1Y33D02*
X8Y33D01*
X350Y33D02*
X357Y33D01*
X1Y32D02*
X8Y32D01*
X350Y32D02*
X357Y32D01*
X1Y31D02*
X8Y31D01*
X350Y31D02*
X357Y31D01*
X1Y30D02*
X8Y30D01*
X350Y30D02*
X357Y30D01*
X1Y29D02*
X8Y29D01*
X350Y29D02*
X357Y29D01*
X1Y28D02*
X8Y28D01*
X350Y28D02*
X357Y28D01*
X1Y27D02*
X8Y27D01*
X350Y27D02*
X357Y27D01*
X1Y26D02*
X8Y26D01*
X350Y26D02*
X357Y26D01*
X1Y25D02*
X8Y25D01*
X350Y25D02*
X357Y25D01*
X1Y24D02*
X8Y24D01*
X350Y24D02*
X357Y24D01*
X1Y23D02*
X8Y23D01*
X350Y23D02*
X357Y23D01*
X1Y22D02*
X8Y22D01*
X350Y22D02*
X357Y22D01*
X1Y21D02*
X8Y21D01*
X350Y21D02*
X357Y21D01*
X1Y20D02*
X8Y20D01*
X350Y20D02*
X357Y20D01*
X1Y19D02*
X8Y19D01*
X350Y19D02*
X357Y19D01*
X1Y18D02*
X8Y18D01*
X350Y18D02*
X357Y18D01*
X1Y17D02*
X8Y17D01*
X350Y17D02*
X357Y17D01*
X1Y16D02*
X8Y16D01*
X350Y16D02*
X357Y16D01*
X1Y15D02*
X8Y15D01*
X350Y15D02*
X357Y15D01*
X1Y14D02*
X8Y14D01*
X350Y14D02*
X357Y14D01*
X1Y13D02*
X8Y13D01*
X350Y13D02*
X357Y13D01*
X1Y12D02*
X8Y12D01*
X350Y12D02*
X357Y12D01*
X1Y11D02*
X8Y11D01*
X350Y11D02*
X357Y11D01*
X1Y10D02*
X8Y10D01*
X350Y10D02*
X357Y10D01*
X1Y9D02*
X8Y9D01*
X350Y9D02*
X357Y9D01*
X1Y8D02*
X357Y8D01*
X1Y7D02*
X357Y7D01*
X1Y6D02*
X357Y6D01*
X1Y5D02*
X357Y5D01*
X1Y4D02*
X357Y4D01*
X1Y3D02*
X357Y3D01*
X1Y2D02*
X357Y2D01*
X1Y1D02*
X357Y1D01*
D02*
G04 End of Silk1*
M02*