999
"DXF R12 Output" (www.mydxf.blogspot.com)
 0 
SECTION
 2 
HEADER
 9 
$ACADVER
 1 
AC1009
 9 
$EXTMIN
 10 
 0 
 20 
 0 
 9 
$EXTMAX
 10 
 8.5 
 20 
 11 
 0 
ENDSEC
 0 
SECTION
 2 
ENTITIES
0
LINE
8
Layer 1
10
0.101600
20
53.026800
11
68.634018
21
53.026800
0
LINE
8
Layer 1
10
68.634018
20
53.026800
11
68.634018
21
0.101633
0
LINE
8
Layer 1
10
68.634018
20
0.101633
11
0.101600
21
0.101633
0
LINE
8
Layer 1
10
0.101600
20
0.101633
11
0.101600
21
53.026800
0
LINE
8
Layer 1
10
53.233918
20
3.098346
11
52.861531
21
2.985384
0
LINE
8
Layer 1
10
52.861531
20
2.985384
11
52.614661
21
2.684572
0
LINE
8
Layer 1
10
52.614661
20
2.684572
11
52.576519
21
2.297303
0
LINE
8
Layer 1
10
52.576519
20
2.297303
11
52.759959
21
1.954110
0
LINE
8
Layer 1
10
52.759959
20
1.954110
11
53.103153
21
1.770669
0
LINE
8
Layer 1
10
53.103153
20
1.770669
11
53.490422
21
1.808812
0
LINE
8
Layer 1
10
53.490422
20
1.808812
11
53.791234
21
2.055681
0
LINE
8
Layer 1
10
53.791234
20
2.055681
11
53.904196
21
2.428068
0
LINE
8
Layer 1
10
53.904196
20
2.428068
11
53.707876
21
2.902026
0
LINE
8
Layer 1
10
53.707876
20
2.902026
11
53.233918
21
3.098346
0
LINE
8
Layer 1
10
53.233918
20
3.098346
11
53.233918
21
3.098346
0
LINE
8
Layer 1
10
55.773567
20
3.098346
11
55.299608
21
2.902026
0
LINE
8
Layer 1
10
55.299608
20
2.902026
11
55.103288
21
2.428068
0
LINE
8
Layer 1
10
55.103288
20
2.428068
11
55.299608
21
1.954110
0
LINE
8
Layer 1
10
55.299608
20
1.954110
11
55.773567
21
1.757790
0
LINE
8
Layer 1
10
55.773567
20
1.757790
11
56.247525
21
1.954110
0
LINE
8
Layer 1
10
56.247525
20
1.954110
11
56.443845
21
2.428068
0
LINE
8
Layer 1
10
56.443845
20
2.428068
11
56.247525
21
2.902026
0
LINE
8
Layer 1
10
56.247525
20
2.902026
11
55.773567
21
3.098346
0
LINE
8
Layer 1
10
55.773567
20
3.098346
11
55.773567
21
3.098346
0
LINE
8
Layer 1
10
58.314627
20
3.098346
11
57.942240
21
2.985384
0
LINE
8
Layer 1
10
57.942240
20
2.985384
11
57.695370
21
2.684572
0
LINE
8
Layer 1
10
57.695370
20
2.684572
11
57.657228
21
2.297303
0
LINE
8
Layer 1
10
57.657228
20
2.297303
11
57.840668
21
1.954110
0
LINE
8
Layer 1
10
57.840668
20
1.954110
11
58.183862
21
1.770669
0
LINE
8
Layer 1
10
58.183862
20
1.770669
11
58.571131
21
1.808812
0
LINE
8
Layer 1
10
58.571131
20
1.808812
11
58.871942
21
2.055681
0
LINE
8
Layer 1
10
58.871942
20
2.055681
11
58.984905
21
2.428068
0
LINE
8
Layer 1
10
58.984905
20
2.428068
11
58.788585
21
2.902026
0
LINE
8
Layer 1
10
58.788585
20
2.902026
11
58.314627
21
3.098346
0
LINE
8
Layer 1
10
58.314627
20
3.098346
11
58.314627
21
3.098346
0
LINE
8
Layer 1
10
60.854275
20
3.098346
11
60.481889
21
2.985384
0
LINE
8
Layer 1
10
60.481889
20
2.985384
11
60.235019
21
2.684572
0
LINE
8
Layer 1
10
60.235019
20
2.684572
11
60.196876
21
2.297303
0
LINE
8
Layer 1
10
60.196876
20
2.297303
11
60.380317
21
1.954110
0
LINE
8
Layer 1
10
60.380317
20
1.954110
11
60.723511
21
1.770669
0
LINE
8
Layer 1
10
60.723511
20
1.770669
11
61.110780
21
1.808812
0
LINE
8
Layer 1
10
61.110780
20
1.808812
11
61.411591
21
2.055681
0
LINE
8
Layer 1
10
61.411591
20
2.055681
11
61.524554
21
2.428068
0
LINE
8
Layer 1
10
61.524554
20
2.428068
11
61.328234
21
2.902026
0
LINE
8
Layer 1
10
61.328234
20
2.902026
11
60.854275
21
3.098346
0
LINE
8
Layer 1
10
60.854275
20
3.098346
11
60.854275
21
3.098346
0
LINE
8
Layer 1
10
63.394277
20
3.098346
11
62.920319
21
2.902026
0
LINE
8
Layer 1
10
62.920319
20
2.902026
11
62.723999
21
2.428068
0
LINE
8
Layer 1
10
62.723999
20
2.428068
11
62.920319
21
1.954110
0
LINE
8
Layer 1
10
62.920319
20
1.954110
11
63.394277
21
1.757790
0
LINE
8
Layer 1
10
63.394277
20
1.757790
11
63.868235
21
1.954110
0
LINE
8
Layer 1
10
63.868235
20
1.954110
11
64.064555
21
2.428068
0
LINE
8
Layer 1
10
64.064555
20
2.428068
11
63.868235
21
2.902026
0
LINE
8
Layer 1
10
63.868235
20
2.902026
11
63.394277
21
3.098346
0
LINE
8
Layer 1
10
63.394277
20
3.098346
11
63.394277
21
3.098346
0
LINE
8
Layer 1
10
41.549558
20
51.358377
11
41.177171
21
51.245414
0
LINE
8
Layer 1
10
41.177171
20
51.245414
11
40.930301
21
50.944603
0
LINE
8
Layer 1
10
40.930301
20
50.944603
11
40.892159
21
50.557334
0
LINE
8
Layer 1
10
40.892159
20
50.557334
11
41.075599
21
50.214140
0
LINE
8
Layer 1
10
41.075599
20
50.214140
11
41.418793
21
50.030699
0
LINE
8
Layer 1
10
41.418793
20
50.030699
11
41.806062
21
50.068842
0
LINE
8
Layer 1
10
41.806062
20
50.068842
11
42.106874
21
50.315712
0
LINE
8
Layer 1
10
42.106874
20
50.315712
11
42.219836
21
50.688098
0
LINE
8
Layer 1
10
42.219836
20
50.688098
11
42.023516
21
51.162057
0
LINE
8
Layer 1
10
42.023516
20
51.162057
11
41.549558
21
51.358377
0
LINE
8
Layer 1
10
41.549558
20
51.358377
11
41.549558
21
51.358377
0
LINE
8
Layer 1
10
39.010262
20
51.358377
11
38.637875
21
51.245414
0
LINE
8
Layer 1
10
38.637875
20
51.245414
11
38.391005
21
50.944603
0
LINE
8
Layer 1
10
38.391005
20
50.944603
11
38.352863
21
50.557334
0
LINE
8
Layer 1
10
38.352863
20
50.557334
11
38.536303
21
50.214140
0
LINE
8
Layer 1
10
38.536303
20
50.214140
11
38.879497
21
50.030699
0
LINE
8
Layer 1
10
38.879497
20
50.030699
11
39.266766
21
50.068842
0
LINE
8
Layer 1
10
39.266766
20
50.068842
11
39.567578
21
50.315712
0
LINE
8
Layer 1
10
39.567578
20
50.315712
11
39.680540
21
50.688098
0
LINE
8
Layer 1
10
39.680540
20
50.688098
11
39.484220
21
51.162057
0
LINE
8
Layer 1
10
39.484220
20
51.162057
11
39.010262
21
51.358377
0
LINE
8
Layer 1
10
39.010262
20
51.358377
11
39.010262
21
51.358377
0
LINE
8
Layer 1
10
36.469907
20
51.358377
11
36.097521
21
51.245414
0
LINE
8
Layer 1
10
36.097521
20
51.245414
11
35.850651
21
50.944603
0
LINE
8
Layer 1
10
35.850651
20
50.944603
11
35.812508
21
50.557334
0
LINE
8
Layer 1
10
35.812508
20
50.557334
11
35.995949
21
50.214140
0
LINE
8
Layer 1
10
35.995949
20
50.214140
11
36.339142
21
50.030699
0
LINE
8
Layer 1
10
36.339142
20
50.030699
11
36.726412
21
50.068842
0
LINE
8
Layer 1
10
36.726412
20
50.068842
11
37.027223
21
50.315712
0
LINE
8
Layer 1
10
37.027223
20
50.315712
11
37.140185
21
50.688098
0
LINE
8
Layer 1
10
37.140185
20
50.688098
11
36.943865
21
51.162057
0
LINE
8
Layer 1
10
36.943865
20
51.162057
11
36.469907
21
51.358377
0
LINE
8
Layer 1
10
36.469907
20
51.358377
11
36.469907
21
51.358377
0
LINE
8
Layer 1
10
33.929906
20
51.358377
11
33.557519
21
51.245414
0
LINE
8
Layer 1
10
33.557519
20
51.245414
11
33.310649
21
50.944603
0
LINE
8
Layer 1
10
33.310649
20
50.944603
11
33.272507
21
50.557334
0
LINE
8
Layer 1
10
33.272507
20
50.557334
11
33.455947
21
50.214140
0
LINE
8
Layer 1
10
33.455947
20
50.214140
11
33.799141
21
50.030699
0
LINE
8
Layer 1
10
33.799141
20
50.030699
11
34.186410
21
50.068842
0
LINE
8
Layer 1
10
34.186410
20
50.068842
11
34.487222
21
50.315712
0
LINE
8
Layer 1
10
34.487222
20
50.315712
11
34.600184
21
50.688098
0
LINE
8
Layer 1
10
34.600184
20
50.688098
11
34.403864
21
51.162057
0
LINE
8
Layer 1
10
34.403864
20
51.162057
11
33.929906
21
51.358377
0
LINE
8
Layer 1
10
33.929906
20
51.358377
11
33.929906
21
51.358377
0
LINE
8
Layer 1
10
31.389904
20
51.358377
11
31.017517
21
51.245414
0
LINE
8
Layer 1
10
31.017517
20
51.245414
11
30.770648
21
50.944603
0
LINE
8
Layer 1
10
30.770648
20
50.944603
11
30.732505
21
50.557334
0
LINE
8
Layer 1
10
30.732505
20
50.557334
11
30.915946
21
50.214140
0
LINE
8
Layer 1
10
30.915946
20
50.214140
11
31.259139
21
50.030699
0
LINE
8
Layer 1
10
31.259139
20
50.030699
11
31.646408
21
50.068842
0
LINE
8
Layer 1
10
31.646408
20
50.068842
11
31.947220
21
50.315712
0
LINE
8
Layer 1
10
31.947220
20
50.315712
11
32.060182
21
50.688098
0
LINE
8
Layer 1
10
32.060182
20
50.688098
11
31.863862
21
51.162057
0
LINE
8
Layer 1
10
31.863862
20
51.162057
11
31.389904
21
51.358377
0
LINE
8
Layer 1
10
31.389904
20
51.358377
11
31.389904
21
51.358377
0
LINE
8
Layer 1
10
28.849902
20
51.358377
11
28.477516
21
51.245414
0
LINE
8
Layer 1
10
28.477516
20
51.245414
11
28.230646
21
50.944603
0
LINE
8
Layer 1
10
28.230646
20
50.944603
11
28.192503
21
50.557334
0
LINE
8
Layer 1
10
28.192503
20
50.557334
11
28.375944
21
50.214140
0
LINE
8
Layer 1
10
28.375944
20
50.214140
11
28.719138
21
50.030699
0
LINE
8
Layer 1
10
28.719138
20
50.030699
11
29.106407
21
50.068842
0
LINE
8
Layer 1
10
29.106407
20
50.068842
11
29.407218
21
50.315712
0
LINE
8
Layer 1
10
29.407218
20
50.315712
11
29.520181
21
50.688098
0
LINE
8
Layer 1
10
29.520181
20
50.688098
11
29.323861
21
51.162057
0
LINE
8
Layer 1
10
29.323861
20
51.162057
11
28.849902
21
51.358377
0
LINE
8
Layer 1
10
28.849902
20
51.358377
11
28.849902
21
51.358377
0
LINE
8
Layer 1
10
26.309901
20
51.358377
11
25.835943
21
51.162057
0
LINE
8
Layer 1
10
25.835943
20
51.162057
11
25.639623
21
50.688098
0
LINE
8
Layer 1
10
25.639623
20
50.688098
11
25.835943
21
50.214140
0
LINE
8
Layer 1
10
25.835943
20
50.214140
11
26.309901
21
50.017820
0
LINE
8
Layer 1
10
26.309901
20
50.017820
11
26.783859
21
50.214140
0
LINE
8
Layer 1
10
26.783859
20
50.214140
11
26.980179
21
50.688098
0
LINE
8
Layer 1
10
26.980179
20
50.688098
11
26.783859
21
51.162057
0
LINE
8
Layer 1
10
26.783859
20
51.162057
11
26.309901
21
51.358377
0
LINE
8
Layer 1
10
26.309901
20
51.358377
11
26.309901
21
51.358377
0
LINE
8
Layer 1
10
23.769899
20
51.358377
11
23.397513
21
51.245414
0
LINE
8
Layer 1
10
23.397513
20
51.245414
11
23.150643
21
50.944603
0
LINE
8
Layer 1
10
23.150643
20
50.944603
11
23.112500
21
50.557334
0
LINE
8
Layer 1
10
23.112500
20
50.557334
11
23.295941
21
50.214140
0
LINE
8
Layer 1
10
23.295941
20
50.214140
11
23.639134
21
50.030699
0
LINE
8
Layer 1
10
23.639134
20
50.030699
11
24.026404
21
50.068842
0
LINE
8
Layer 1
10
24.026404
20
50.068842
11
24.327215
21
50.315712
0
LINE
8
Layer 1
10
24.327215
20
50.315712
11
24.440177
21
50.688098
0
LINE
8
Layer 1
10
24.440177
20
50.688098
11
24.243857
21
51.162057
0
LINE
8
Layer 1
10
24.243857
20
51.162057
11
23.769899
21
51.358377
0
LINE
8
Layer 1
10
23.769899
20
51.358377
11
23.769899
21
51.358377
0
LINE
8
Layer 1
10
21.229898
20
51.358377
11
20.857511
21
51.245414
0
LINE
8
Layer 1
10
20.857511
20
51.245414
11
20.610641
21
50.944603
0
LINE
8
Layer 1
10
20.610641
20
50.944603
11
20.572499
21
50.557334
0
LINE
8
Layer 1
10
20.572499
20
50.557334
11
20.755939
21
50.214140
0
LINE
8
Layer 1
10
20.755939
20
50.214140
11
21.099133
21
50.030699
0
LINE
8
Layer 1
10
21.099133
20
50.030699
11
21.486402
21
50.068842
0
LINE
8
Layer 1
10
21.486402
20
50.068842
11
21.787214
21
50.315712
0
LINE
8
Layer 1
10
21.787214
20
50.315712
11
21.900176
21
50.688098
0
LINE
8
Layer 1
10
21.900176
20
50.688098
11
21.703856
21
51.162057
0
LINE
8
Layer 1
10
21.703856
20
51.162057
11
21.229898
21
51.358377
0
LINE
8
Layer 1
10
21.229898
20
51.358377
11
21.229898
21
51.358377
0
LINE
8
Layer 1
10
18.689543
20
51.358377
11
18.317157
21
51.245414
0
LINE
8
Layer 1
10
18.317157
20
51.245414
11
18.070287
21
50.944603
0
LINE
8
Layer 1
10
18.070287
20
50.944603
11
18.032144
21
50.557334
0
LINE
8
Layer 1
10
18.032144
20
50.557334
11
18.215585
21
50.214140
0
LINE
8
Layer 1
10
18.215585
20
50.214140
11
18.558778
21
50.030699
0
LINE
8
Layer 1
10
18.558778
20
50.030699
11
18.946048
21
50.068842
0
LINE
8
Layer 1
10
18.946048
20
50.068842
11
19.246859
21
50.315712
0
LINE
8
Layer 1
10
19.246859
20
50.315712
11
19.359821
21
50.688098
0
LINE
8
Layer 1
10
19.359821
20
50.688098
11
19.163501
21
51.162057
0
LINE
8
Layer 1
10
19.163501
20
51.162057
11
18.689543
21
51.358377
0
LINE
8
Layer 1
10
18.689543
20
51.358377
11
18.689543
21
51.358377
0
LINE
8
Layer 1
10
63.394277
20
51.358377
11
62.920319
21
51.162057
0
LINE
8
Layer 1
10
62.920319
20
51.162057
11
62.723999
21
50.688098
0
LINE
8
Layer 1
10
62.723999
20
50.688098
11
62.920319
21
50.214140
0
LINE
8
Layer 1
10
62.920319
20
50.214140
11
63.394277
21
50.017820
0
LINE
8
Layer 1
10
63.394277
20
50.017820
11
63.868235
21
50.214140
0
LINE
8
Layer 1
10
63.868235
20
50.214140
11
64.064555
21
50.688098
0
LINE
8
Layer 1
10
64.064555
20
50.688098
11
63.868235
21
51.162057
0
LINE
8
Layer 1
10
63.868235
20
51.162057
11
63.394277
21
51.358377
0
LINE
8
Layer 1
10
63.394277
20
51.358377
11
63.394277
21
51.358377
0
LINE
8
Layer 1
10
60.854275
20
51.358377
11
60.481889
21
51.245414
0
LINE
8
Layer 1
10
60.481889
20
51.245414
11
60.235019
21
50.944603
0
LINE
8
Layer 1
10
60.235019
20
50.944603
11
60.196876
21
50.557334
0
LINE
8
Layer 1
10
60.196876
20
50.557334
11
60.380317
21
50.214140
0
LINE
8
Layer 1
10
60.380317
20
50.214140
11
60.723511
21
50.030699
0
LINE
8
Layer 1
10
60.723511
20
50.030699
11
61.110780
21
50.068842
0
LINE
8
Layer 1
10
61.110780
20
50.068842
11
61.411591
21
50.315712
0
LINE
8
Layer 1
10
61.411591
20
50.315712
11
61.524554
21
50.688098
0
LINE
8
Layer 1
10
61.524554
20
50.688098
11
61.328234
21
51.162057
0
LINE
8
Layer 1
10
61.328234
20
51.162057
11
60.854275
21
51.358377
0
LINE
8
Layer 1
10
60.854275
20
51.358377
11
60.854275
21
51.358377
0
LINE
8
Layer 1
10
58.314627
20
51.358377
11
57.942240
21
51.245414
0
LINE
8
Layer 1
10
57.942240
20
51.245414
11
57.695370
21
50.944603
0
LINE
8
Layer 1
10
57.695370
20
50.944603
11
57.657228
21
50.557334
0
LINE
8
Layer 1
10
57.657228
20
50.557334
11
57.840668
21
50.214140
0
LINE
8
Layer 1
10
57.840668
20
50.214140
11
58.183862
21
50.030699
0
LINE
8
Layer 1
10
58.183862
20
50.030699
11
58.571131
21
50.068842
0
LINE
8
Layer 1
10
58.571131
20
50.068842
11
58.871942
21
50.315712
0
LINE
8
Layer 1
10
58.871942
20
50.315712
11
58.984905
21
50.688098
0
LINE
8
Layer 1
10
58.984905
20
50.688098
11
58.788585
21
51.162057
0
LINE
8
Layer 1
10
58.788585
20
51.162057
11
58.314627
21
51.358377
0
LINE
8
Layer 1
10
58.314627
20
51.358377
11
58.314627
21
51.358377
0
LINE
8
Layer 1
10
55.773567
20
51.358377
11
55.299608
21
51.162057
0
LINE
8
Layer 1
10
55.299608
20
51.162057
11
55.103288
21
50.688098
0
LINE
8
Layer 1
10
55.103288
20
50.688098
11
55.299608
21
50.214140
0
LINE
8
Layer 1
10
55.299608
20
50.214140
11
55.773567
21
50.017820
0
LINE
8
Layer 1
10
55.773567
20
50.017820
11
56.247525
21
50.214140
0
LINE
8
Layer 1
10
56.247525
20
50.214140
11
56.443845
21
50.688098
0
LINE
8
Layer 1
10
56.443845
20
50.688098
11
56.247525
21
51.162057
0
LINE
8
Layer 1
10
56.247525
20
51.162057
11
55.773567
21
51.358377
0
LINE
8
Layer 1
10
55.773567
20
51.358377
11
55.773567
21
51.358377
0
LINE
8
Layer 1
10
53.233918
20
51.358377
11
52.861531
21
51.245414
0
LINE
8
Layer 1
10
52.861531
20
51.245414
11
52.614661
21
50.944603
0
LINE
8
Layer 1
10
52.614661
20
50.944603
11
52.576519
21
50.557334
0
LINE
8
Layer 1
10
52.576519
20
50.557334
11
52.759959
21
50.214140
0
LINE
8
Layer 1
10
52.759959
20
50.214140
11
53.103153
21
50.030699
0
LINE
8
Layer 1
10
53.103153
20
50.030699
11
53.490422
21
50.068842
0
LINE
8
Layer 1
10
53.490422
20
50.068842
11
53.791234
21
50.315712
0
LINE
8
Layer 1
10
53.791234
20
50.315712
11
53.904196
21
50.688098
0
LINE
8
Layer 1
10
53.904196
20
50.688098
11
53.707876
21
51.162057
0
LINE
8
Layer 1
10
53.707876
20
51.162057
11
53.233918
21
51.358377
0
LINE
8
Layer 1
10
53.233918
20
51.358377
11
53.233918
21
51.358377
0
LINE
8
Layer 1
10
50.694269
20
51.358377
11
50.321882
21
51.245414
0
LINE
8
Layer 1
10
50.321882
20
51.245414
11
50.075013
21
50.944603
0
LINE
8
Layer 1
10
50.075013
20
50.944603
11
50.036870
21
50.557334
0
LINE
8
Layer 1
10
50.036870
20
50.557334
11
50.220311
21
50.214140
0
LINE
8
Layer 1
10
50.220311
20
50.214140
11
50.563504
21
50.030699
0
LINE
8
Layer 1
10
50.563504
20
50.030699
11
50.950773
21
50.068842
0
LINE
8
Layer 1
10
50.950773
20
50.068842
11
51.251585
21
50.315712
0
LINE
8
Layer 1
10
51.251585
20
50.315712
11
51.364547
21
50.688098
0
LINE
8
Layer 1
10
51.364547
20
50.688098
11
51.168227
21
51.162057
0
LINE
8
Layer 1
10
51.168227
20
51.162057
11
50.694269
21
51.358377
0
LINE
8
Layer 1
10
50.694269
20
51.358377
11
50.694269
21
51.358377
0
LINE
8
Layer 1
10
48.154267
20
51.358377
11
47.781881
21
51.245414
0
LINE
8
Layer 1
10
47.781881
20
51.245414
11
47.535011
21
50.944603
0
LINE
8
Layer 1
10
47.535011
20
50.944603
11
47.496868
21
50.557334
0
LINE
8
Layer 1
10
47.496868
20
50.557334
11
47.680309
21
50.214140
0
LINE
8
Layer 1
10
47.680309
20
50.214140
11
48.023503
21
50.030699
0
LINE
8
Layer 1
10
48.023503
20
50.030699
11
48.410772
21
50.068842
0
LINE
8
Layer 1
10
48.410772
20
50.068842
11
48.711583
21
50.315712
0
LINE
8
Layer 1
10
48.711583
20
50.315712
11
48.824546
21
50.688098
0
LINE
8
Layer 1
10
48.824546
20
50.688098
11
48.628226
21
51.162057
0
LINE
8
Layer 1
10
48.628226
20
51.162057
11
48.154267
21
51.358377
0
LINE
8
Layer 1
10
48.154267
20
51.358377
11
48.154267
21
51.358377
0
LINE
8
Layer 1
10
45.613913
20
51.358377
11
45.241526
21
51.245414
0
LINE
8
Layer 1
10
45.241526
20
51.245414
11
44.994657
21
50.944603
0
LINE
8
Layer 1
10
44.994657
20
50.944603
11
44.956514
21
50.557334
0
LINE
8
Layer 1
10
44.956514
20
50.557334
11
45.139955
21
50.214140
0
LINE
8
Layer 1
10
45.139955
20
50.214140
11
45.483148
21
50.030699
0
LINE
8
Layer 1
10
45.483148
20
50.030699
11
45.870417
21
50.068842
0
LINE
8
Layer 1
10
45.870417
20
50.068842
11
46.171229
21
50.315712
0
LINE
8
Layer 1
10
46.171229
20
50.315712
11
46.284191
21
50.688098
0
LINE
8
Layer 1
10
46.284191
20
50.688098
11
46.087871
21
51.162057
0
LINE
8
Layer 1
10
46.087871
20
51.162057
11
45.613913
21
51.358377
0
LINE
8
Layer 1
10
45.613913
20
51.358377
11
45.613913
21
51.358377
0
LINE
8
Layer 1
10
30.373903
20
3.098346
11
29.899945
21
2.902026
0
LINE
8
Layer 1
10
29.899945
20
2.902026
11
29.703625
21
2.428068
0
LINE
8
Layer 1
10
29.703625
20
2.428068
11
29.899945
21
1.954110
0
LINE
8
Layer 1
10
29.899945
20
1.954110
11
30.373903
21
1.757790
0
LINE
8
Layer 1
10
30.373903
20
1.757790
11
30.847862
21
1.954110
0
LINE
8
Layer 1
10
30.847862
20
1.954110
11
31.044182
21
2.428068
0
LINE
8
Layer 1
10
31.044182
20
2.428068
11
30.847862
21
2.902026
0
LINE
8
Layer 1
10
30.847862
20
2.902026
11
30.373903
21
3.098346
0
LINE
8
Layer 1
10
30.373903
20
3.098346
11
30.373903
21
3.098346
0
LINE
8
Layer 1
10
27.833902
20
3.098346
11
27.461515
21
2.985384
0
LINE
8
Layer 1
10
27.461515
20
2.985384
11
27.214645
21
2.684572
0
LINE
8
Layer 1
10
27.214645
20
2.684572
11
27.176503
21
2.297303
0
LINE
8
Layer 1
10
27.176503
20
2.297303
11
27.359943
21
1.954110
0
LINE
8
Layer 1
10
27.359943
20
1.954110
11
27.703137
21
1.770669
0
LINE
8
Layer 1
10
27.703137
20
1.770669
11
28.090406
21
1.808812
0
LINE
8
Layer 1
10
28.090406
20
1.808812
11
28.391218
21
2.055681
0
LINE
8
Layer 1
10
28.391218
20
2.055681
11
28.504180
21
2.428068
0
LINE
8
Layer 1
10
28.504180
20
2.428068
11
28.307860
21
2.902026
0
LINE
8
Layer 1
10
28.307860
20
2.902026
11
27.833902
21
3.098346
0
LINE
8
Layer 1
10
27.833902
20
3.098346
11
27.833902
21
3.098346
0
LINE
8
Layer 1
10
32.913905
20
3.098346
11
32.439947
21
2.902026
0
LINE
8
Layer 1
10
32.439947
20
2.902026
11
32.243627
21
2.428068
0
LINE
8
Layer 1
10
32.243627
20
2.428068
11
32.439947
21
1.954110
0
LINE
8
Layer 1
10
32.439947
20
1.954110
11
32.913905
21
1.757790
0
LINE
8
Layer 1
10
32.913905
20
1.757790
11
33.387863
21
1.954110
0
LINE
8
Layer 1
10
33.387863
20
1.954110
11
33.584183
21
2.428068
0
LINE
8
Layer 1
10
33.584183
20
2.428068
11
33.387863
21
2.902026
0
LINE
8
Layer 1
10
33.387863
20
2.902026
11
32.913905
21
3.098346
0
LINE
8
Layer 1
10
32.913905
20
3.098346
11
32.913905
21
3.098346
0
LINE
8
Layer 1
10
35.454259
20
3.098346
11
35.081873
21
2.985384
0
LINE
8
Layer 1
10
35.081873
20
2.985384
11
34.835003
21
2.684572
0
LINE
8
Layer 1
10
34.835003
20
2.684572
11
34.796860
21
2.297303
0
LINE
8
Layer 1
10
34.796860
20
2.297303
11
34.980301
21
1.954110
0
LINE
8
Layer 1
10
34.980301
20
1.954110
11
35.323495
21
1.770669
0
LINE
8
Layer 1
10
35.323495
20
1.770669
11
35.710764
21
1.808812
0
LINE
8
Layer 1
10
35.710764
20
1.808812
11
36.011575
21
2.055681
0
LINE
8
Layer 1
10
36.011575
20
2.055681
11
36.124538
21
2.428068
0
LINE
8
Layer 1
10
36.124538
20
2.428068
11
35.928218
21
2.902026
0
LINE
8
Layer 1
10
35.928218
20
2.902026
11
35.454259
21
3.098346
0
LINE
8
Layer 1
10
35.454259
20
3.098346
11
35.454259
21
3.098346
0
LINE
8
Layer 1
10
37.994261
20
3.098346
11
37.520303
21
2.902026
0
LINE
8
Layer 1
10
37.520303
20
2.902026
11
37.323983
21
2.428068
0
LINE
8
Layer 1
10
37.323983
20
2.428068
11
37.520303
21
1.954110
0
LINE
8
Layer 1
10
37.520303
20
1.954110
11
37.994261
21
1.757790
0
LINE
8
Layer 1
10
37.994261
20
1.757790
11
38.468219
21
1.954110
0
LINE
8
Layer 1
10
38.468219
20
1.954110
11
38.664539
21
2.428068
0
LINE
8
Layer 1
10
38.664539
20
2.428068
11
38.468219
21
2.902026
0
LINE
8
Layer 1
10
38.468219
20
2.902026
11
37.994261
21
3.098346
0
LINE
8
Layer 1
10
37.994261
20
3.098346
11
37.994261
21
3.098346
0
LINE
8
Layer 1
10
40.533910
20
3.098346
11
40.059951
21
2.902026
0
LINE
8
Layer 1
10
40.059951
20
2.902026
11
39.863632
21
2.428068
0
LINE
8
Layer 1
10
39.863632
20
2.428068
11
40.059951
21
1.954110
0
LINE
8
Layer 1
10
40.059951
20
1.954110
11
40.533910
21
1.757790
0
LINE
8
Layer 1
10
40.533910
20
1.757790
11
41.007868
21
1.954110
0
LINE
8
Layer 1
10
41.007868
20
1.954110
11
41.204188
21
2.428068
0
LINE
8
Layer 1
10
41.204188
20
2.428068
11
41.007868
21
2.902026
0
LINE
8
Layer 1
10
41.007868
20
2.902026
11
40.533910
21
3.098346
0
LINE
8
Layer 1
10
40.533910
20
3.098346
11
40.533910
21
3.098346
0
LINE
8
Layer 1
10
43.073559
20
3.098346
11
42.701172
21
2.985384
0
LINE
8
Layer 1
10
42.701172
20
2.985384
11
42.454302
21
2.684572
0
LINE
8
Layer 1
10
42.454302
20
2.684572
11
42.416160
21
2.297303
0
LINE
8
Layer 1
10
42.416160
20
2.297303
11
42.599600
21
1.954110
0
LINE
8
Layer 1
10
42.599600
20
1.954110
11
42.942794
21
1.770669
0
LINE
8
Layer 1
10
42.942794
20
1.770669
11
43.330063
21
1.808812
0
LINE
8
Layer 1
10
43.330063
20
1.808812
11
43.630875
21
2.055681
0
LINE
8
Layer 1
10
43.630875
20
2.055681
11
43.743837
21
2.428068
0
LINE
8
Layer 1
10
43.743837
20
2.428068
11
43.547517
21
2.902026
0
LINE
8
Layer 1
10
43.547517
20
2.902026
11
43.073559
21
3.098346
0
LINE
8
Layer 1
10
43.073559
20
3.098346
11
43.073559
21
3.098346
0
LINE
8
Layer 1
10
45.613913
20
3.098346
11
45.241526
21
2.985384
0
LINE
8
Layer 1
10
45.241526
20
2.985384
11
44.994657
21
2.684572
0
LINE
8
Layer 1
10
44.994657
20
2.684572
11
44.956514
21
2.297303
0
LINE
8
Layer 1
10
44.956514
20
2.297303
11
45.139955
21
1.954110
0
LINE
8
Layer 1
10
45.139955
20
1.954110
11
45.483148
21
1.770669
0
LINE
8
Layer 1
10
45.483148
20
1.770669
11
45.870417
21
1.808812
0
LINE
8
Layer 1
10
45.870417
20
1.808812
11
46.171229
21
2.055681
0
LINE
8
Layer 1
10
46.171229
20
2.055681
11
46.284191
21
2.428068
0
LINE
8
Layer 1
10
46.284191
20
2.428068
11
46.087871
21
2.902026
0
LINE
8
Layer 1
10
46.087871
20
2.902026
11
45.613913
21
3.098346
0
LINE
8
Layer 1
10
45.613913
20
3.098346
11
45.613913
21
3.098346
0
LINE
8
Layer 1
10
50.694269
20
3.098346
11
50.321882
21
2.985384
0
LINE
8
Layer 1
10
50.321882
20
2.985384
11
50.075013
21
2.684572
0
LINE
8
Layer 1
10
50.075013
20
2.684572
11
50.036870
21
2.297303
0
LINE
8
Layer 1
10
50.036870
20
2.297303
11
50.220311
21
1.954110
0
LINE
8
Layer 1
10
50.220311
20
1.954110
11
50.563504
21
1.770669
0
LINE
8
Layer 1
10
50.563504
20
1.770669
11
50.950773
21
1.808812
0
LINE
8
Layer 1
10
50.950773
20
1.808812
11
51.251585
21
2.055681
0
LINE
8
Layer 1
10
51.251585
20
2.055681
11
51.364547
21
2.428068
0
LINE
8
Layer 1
10
51.364547
20
2.428068
11
51.168227
21
2.902026
0
LINE
8
Layer 1
10
51.168227
20
2.902026
11
50.694269
21
3.098346
0
LINE
8
Layer 1
10
50.694269
20
3.098346
11
50.694269
21
3.098346
0
LINE
8
Layer 1
10
61.336899
20
34.177999
11
61.212760
21
34.587232
0
LINE
8
Layer 1
10
61.212760
20
34.587232
11
60.882184
21
34.858529
0
LINE
8
Layer 1
10
60.882184
20
34.858529
11
60.456595
21
34.900446
0
LINE
8
Layer 1
10
60.456595
20
34.900446
11
60.079444
21
34.698854
0
LINE
8
Layer 1
10
60.079444
20
34.698854
11
59.877852
21
34.321703
0
LINE
8
Layer 1
10
59.877852
20
34.321703
11
59.919769
21
33.896114
0
LINE
8
Layer 1
10
59.919769
20
33.896114
11
60.191066
21
33.565538
0
LINE
8
Layer 1
10
60.191066
20
33.565538
11
60.600299
21
33.441398
0
LINE
8
Layer 1
10
60.600299
20
33.441398
11
61.121154
21
33.657144
0
LINE
8
Layer 1
10
61.121154
20
33.657144
11
61.336899
21
34.177999
0
LINE
8
Layer 1
10
61.336899
20
34.177999
11
61.336899
21
34.177999
0
LINE
8
Layer 1
10
58.796898
20
34.177999
11
58.672758
21
34.587232
0
LINE
8
Layer 1
10
58.672758
20
34.587232
11
58.342182
21
34.858529
0
LINE
8
Layer 1
10
58.342182
20
34.858529
11
57.916594
21
34.900446
0
LINE
8
Layer 1
10
57.916594
20
34.900446
11
57.539442
21
34.698854
0
LINE
8
Layer 1
10
57.539442
20
34.698854
11
57.337850
21
34.321703
0
LINE
8
Layer 1
10
57.337850
20
34.321703
11
57.379767
21
33.896114
0
LINE
8
Layer 1
10
57.379767
20
33.896114
11
57.651064
21
33.565538
0
LINE
8
Layer 1
10
57.651064
20
33.565538
11
58.060297
21
33.441398
0
LINE
8
Layer 1
10
58.060297
20
33.441398
11
58.581152
21
33.657144
0
LINE
8
Layer 1
10
58.581152
20
33.657144
11
58.796898
21
34.177999
0
LINE
8
Layer 1
10
58.796898
20
34.177999
11
58.796898
21
34.177999
0
LINE
8
Layer 1
10
56.256896
20
34.177999
11
56.132757
21
34.587232
0
LINE
8
Layer 1
10
56.132757
20
34.587232
11
55.802180
21
34.858529
0
LINE
8
Layer 1
10
55.802180
20
34.858529
11
55.376592
21
34.900446
0
LINE
8
Layer 1
10
55.376592
20
34.900446
11
54.999440
21
34.698854
0
LINE
8
Layer 1
10
54.999440
20
34.698854
11
54.797849
21
34.321703
0
LINE
8
Layer 1
10
54.797849
20
34.321703
11
54.839766
21
33.896114
0
LINE
8
Layer 1
10
54.839766
20
33.896114
11
55.111062
21
33.565538
0
LINE
8
Layer 1
10
55.111062
20
33.565538
11
55.520296
21
33.441398
0
LINE
8
Layer 1
10
55.520296
20
33.441398
11
56.041151
21
33.657144
0
LINE
8
Layer 1
10
56.041151
20
33.657144
11
56.256896
21
34.177999
0
LINE
8
Layer 1
10
56.256896
20
34.177999
11
56.256896
21
34.177999
0
LINE
8
Layer 1
10
18.156799
20
39.257999
11
18.032660
21
39.667232
0
LINE
8
Layer 1
10
18.032660
20
39.667232
11
17.702084
21
39.938529
0
LINE
8
Layer 1
10
17.702084
20
39.938529
11
17.276495
21
39.980446
0
LINE
8
Layer 1
10
17.276495
20
39.980446
11
16.899344
21
39.778854
0
LINE
8
Layer 1
10
16.899344
20
39.778854
11
16.697752
21
39.401703
0
LINE
8
Layer 1
10
16.697752
20
39.401703
11
16.739669
21
38.976114
0
LINE
8
Layer 1
10
16.739669
20
38.976114
11
17.010966
21
38.645538
0
LINE
8
Layer 1
10
17.010966
20
38.645538
11
17.420199
21
38.521398
0
LINE
8
Layer 1
10
17.420199
20
38.521398
11
17.941054
21
38.737144
0
LINE
8
Layer 1
10
17.941054
20
38.737144
11
18.156799
21
39.257999
0
LINE
8
Layer 1
10
18.156799
20
39.257999
11
18.156799
21
39.257999
0
LINE
8
Layer 1
10
15.616798
20
39.257999
11
15.492658
21
39.667232
0
LINE
8
Layer 1
10
15.492658
20
39.667232
11
15.162082
21
39.938529
0
LINE
8
Layer 1
10
15.162082
20
39.938529
11
14.736494
21
39.980446
0
LINE
8
Layer 1
10
14.736494
20
39.980446
11
14.359342
21
39.778854
0
LINE
8
Layer 1
10
14.359342
20
39.778854
11
14.157750
21
39.401703
0
LINE
8
Layer 1
10
14.157750
20
39.401703
11
14.199667
21
38.976114
0
LINE
8
Layer 1
10
14.199667
20
38.976114
11
14.470964
21
38.645538
0
LINE
8
Layer 1
10
14.470964
20
38.645538
11
14.880197
21
38.521398
0
LINE
8
Layer 1
10
14.880197
20
38.521398
11
15.401052
21
38.737144
0
LINE
8
Layer 1
10
15.401052
20
38.737144
11
15.616798
21
39.257999
0
LINE
8
Layer 1
10
15.616798
20
39.257999
11
15.616798
21
39.257999
0
LINE
8
Layer 1
10
13.076796
20
39.257999
11
12.952657
21
39.667232
0
LINE
8
Layer 1
10
12.952657
20
39.667232
11
12.622080
21
39.938529
0
LINE
8
Layer 1
10
12.622080
20
39.938529
11
12.196492
21
39.980446
0
LINE
8
Layer 1
10
12.196492
20
39.980446
11
11.819340
21
39.778854
0
LINE
8
Layer 1
10
11.819340
20
39.778854
11
11.617749
21
39.401703
0
LINE
8
Layer 1
10
11.617749
20
39.401703
11
11.659666
21
38.976114
0
LINE
8
Layer 1
10
11.659666
20
38.976114
11
11.930962
21
38.645538
0
LINE
8
Layer 1
10
11.930962
20
38.645538
11
12.340196
21
38.521398
0
LINE
8
Layer 1
10
12.340196
20
38.521398
11
12.861051
21
38.737144
0
LINE
8
Layer 1
10
12.861051
20
38.737144
11
13.076796
21
39.257999
0
LINE
8
Layer 1
10
13.076796
20
39.257999
11
13.076796
21
39.257999
0
LINE
8
Layer 1
10
53.716899
20
18.937999
11
53.592760
21
19.347232
0
LINE
8
Layer 1
10
53.592760
20
19.347232
11
53.262184
21
19.618529
0
LINE
8
Layer 1
10
53.262184
20
19.618529
11
52.836595
21
19.660446
0
LINE
8
Layer 1
10
52.836595
20
19.660446
11
52.459444
21
19.458854
0
LINE
8
Layer 1
10
52.459444
20
19.458854
11
52.257852
21
19.081703
0
LINE
8
Layer 1
10
52.257852
20
19.081703
11
52.299769
21
18.656114
0
LINE
8
Layer 1
10
52.299769
20
18.656114
11
52.571066
21
18.325538
0
LINE
8
Layer 1
10
52.571066
20
18.325538
11
52.980299
21
18.201398
0
LINE
8
Layer 1
10
52.980299
20
18.201398
11
53.501154
21
18.417144
0
LINE
8
Layer 1
10
53.501154
20
18.417144
11
53.716899
21
18.937999
0
LINE
8
Layer 1
10
53.716899
20
18.937999
11
53.716899
21
18.937999
0
LINE
8
Layer 1
10
51.176898
20
18.937999
11
50.961152
21
19.458854
0
LINE
8
Layer 1
10
50.961152
20
19.458854
11
50.440297
21
19.674599
0
LINE
8
Layer 1
10
50.440297
20
19.674599
11
49.919442
21
19.458854
0
LINE
8
Layer 1
10
49.919442
20
19.458854
11
49.703697
21
18.937999
0
LINE
8
Layer 1
10
49.703697
20
18.937999
11
49.919442
21
18.417144
0
LINE
8
Layer 1
10
49.919442
20
18.417144
11
50.440297
21
18.201398
0
LINE
8
Layer 1
10
50.440297
20
18.201398
11
50.961152
21
18.417144
0
LINE
8
Layer 1
10
50.961152
20
18.417144
11
51.176898
21
18.937999
0
LINE
8
Layer 1
10
51.176898
20
18.937999
11
51.176898
21
18.937999
0
LINE
8
Layer 1
10
48.636896
20
18.937999
11
48.512757
21
19.347232
0
LINE
8
Layer 1
10
48.512757
20
19.347232
11
48.182180
21
19.618529
0
LINE
8
Layer 1
10
48.182180
20
19.618529
11
47.756592
21
19.660446
0
LINE
8
Layer 1
10
47.756592
20
19.660446
11
47.379440
21
19.458854
0
LINE
8
Layer 1
10
47.379440
20
19.458854
11
47.177849
21
19.081703
0
LINE
8
Layer 1
10
47.177849
20
19.081703
11
47.219766
21
18.656114
0
LINE
8
Layer 1
10
47.219766
20
18.656114
11
47.491062
21
18.325538
0
LINE
8
Layer 1
10
47.491062
20
18.325538
11
47.900296
21
18.201398
0
LINE
8
Layer 1
10
47.900296
20
18.201398
11
48.421151
21
18.417144
0
LINE
8
Layer 1
10
48.421151
20
18.417144
11
48.636896
21
18.937999
0
LINE
8
Layer 1
10
48.636896
20
18.937999
11
48.636896
21
18.937999
0
LINE
8
Layer 1
10
46.096895
20
18.937999
11
45.972755
21
19.347232
0
LINE
8
Layer 1
10
45.972755
20
19.347232
11
45.642179
21
19.618529
0
LINE
8
Layer 1
10
45.642179
20
19.618529
11
45.216590
21
19.660446
0
LINE
8
Layer 1
10
45.216590
20
19.660446
11
44.839439
21
19.458854
0
LINE
8
Layer 1
10
44.839439
20
19.458854
11
44.637847
21
19.081703
0
LINE
8
Layer 1
10
44.637847
20
19.081703
11
44.679764
21
18.656114
0
LINE
8
Layer 1
10
44.679764
20
18.656114
11
44.951061
21
18.325538
0
LINE
8
Layer 1
10
44.951061
20
18.325538
11
45.360294
21
18.201398
0
LINE
8
Layer 1
10
45.360294
20
18.201398
11
45.881149
21
18.417144
0
LINE
8
Layer 1
10
45.881149
20
18.417144
11
46.096895
21
18.937999
0
LINE
8
Layer 1
10
46.096895
20
18.937999
11
46.096895
21
18.937999
0
LINE
8
Layer 1
10
42.286799
20
29.097999
11
42.162660
21
29.507232
0
LINE
8
Layer 1
10
42.162660
20
29.507232
11
41.832084
21
29.778529
0
LINE
8
Layer 1
10
41.832084
20
29.778529
11
41.406495
21
29.820446
0
LINE
8
Layer 1
10
41.406495
20
29.820446
11
41.029344
21
29.618854
0
LINE
8
Layer 1
10
41.029344
20
29.618854
11
40.827752
21
29.241703
0
LINE
8
Layer 1
10
40.827752
20
29.241703
11
40.869669
21
28.816114
0
LINE
8
Layer 1
10
40.869669
20
28.816114
11
41.140966
21
28.485538
0
LINE
8
Layer 1
10
41.140966
20
28.485538
11
41.550199
21
28.361398
0
LINE
8
Layer 1
10
41.550199
20
28.361398
11
42.071054
21
28.577144
0
LINE
8
Layer 1
10
42.071054
20
28.577144
11
42.286799
21
29.097999
0
LINE
8
Layer 1
10
42.286799
20
29.097999
11
42.286799
21
29.097999
0
LINE
8
Layer 1
10
39.746798
20
29.097999
11
39.622658
21
29.507232
0
LINE
8
Layer 1
10
39.622658
20
29.507232
11
39.292082
21
29.778529
0
LINE
8
Layer 1
10
39.292082
20
29.778529
11
38.866494
21
29.820446
0
LINE
8
Layer 1
10
38.866494
20
29.820446
11
38.489342
21
29.618854
0
LINE
8
Layer 1
10
38.489342
20
29.618854
11
38.287750
21
29.241703
0
LINE
8
Layer 1
10
38.287750
20
29.241703
11
38.329667
21
28.816114
0
LINE
8
Layer 1
10
38.329667
20
28.816114
11
38.600964
21
28.485538
0
LINE
8
Layer 1
10
38.600964
20
28.485538
11
39.010197
21
28.361398
0
LINE
8
Layer 1
10
39.010197
20
28.361398
11
39.531052
21
28.577144
0
LINE
8
Layer 1
10
39.531052
20
28.577144
11
39.746798
21
29.097999
0
LINE
8
Layer 1
10
39.746798
20
29.097999
11
39.746798
21
29.097999
0
LINE
8
Layer 1
10
37.206796
20
29.097999
11
37.082657
21
29.507232
0
LINE
8
Layer 1
10
37.082657
20
29.507232
11
36.752080
21
29.778529
0
LINE
8
Layer 1
10
36.752080
20
29.778529
11
36.326492
21
29.820446
0
LINE
8
Layer 1
10
36.326492
20
29.820446
11
35.949340
21
29.618854
0
LINE
8
Layer 1
10
35.949340
20
29.618854
11
35.747749
21
29.241703
0
LINE
8
Layer 1
10
35.747749
20
29.241703
11
35.789666
21
28.816114
0
LINE
8
Layer 1
10
35.789666
20
28.816114
11
36.060962
21
28.485538
0
LINE
8
Layer 1
10
36.060962
20
28.485538
11
36.470196
21
28.361398
0
LINE
8
Layer 1
10
36.470196
20
28.361398
11
36.991051
21
28.577144
0
LINE
8
Layer 1
10
36.991051
20
28.577144
11
37.206796
21
29.097999
0
LINE
8
Layer 1
10
37.206796
20
29.097999
11
37.206796
21
29.097999
0
LINE
8
Layer 1
10
39.708700
20
24.017999
11
39.590981
21
24.406065
0
LINE
8
Layer 1
10
39.590981
20
24.406065
11
39.277504
21
24.663330
0
LINE
8
Layer 1
10
39.277504
20
24.663330
11
38.873929
21
24.703078
0
LINE
8
Layer 1
10
38.873929
20
24.703078
11
38.516285
21
24.511914
0
LINE
8
Layer 1
10
38.516285
20
24.511914
11
38.325120
21
24.154270
0
LINE
8
Layer 1
10
38.325120
20
24.154270
11
38.364869
21
23.750695
0
LINE
8
Layer 1
10
38.364869
20
23.750695
11
38.622133
21
23.437218
0
LINE
8
Layer 1
10
38.622133
20
23.437218
11
39.010199
21
23.319499
0
LINE
8
Layer 1
10
39.010199
20
23.319499
11
39.504114
21
23.524085
0
LINE
8
Layer 1
10
39.504114
20
23.524085
11
39.708700
21
24.017999
0
LINE
8
Layer 1
10
39.708700
20
24.017999
11
39.708700
21
24.017999
0
LINE
8
Layer 1
10
39.708700
20
13.857993
11
39.590981
21
14.246059
0
LINE
8
Layer 1
10
39.590981
20
14.246059
11
39.277504
21
14.503323
0
LINE
8
Layer 1
10
39.277504
20
14.503323
11
38.873929
21
14.543072
0
LINE
8
Layer 1
10
38.873929
20
14.543072
11
38.516285
21
14.351907
0
LINE
8
Layer 1
10
38.516285
20
14.351907
11
38.325120
21
13.994264
0
LINE
8
Layer 1
10
38.325120
20
13.994264
11
38.364869
21
13.590688
0
LINE
8
Layer 1
10
38.364869
20
13.590688
11
38.622133
21
13.277211
0
LINE
8
Layer 1
10
38.622133
20
13.277211
11
39.010199
21
13.159493
0
LINE
8
Layer 1
10
39.010199
20
13.159493
11
39.504114
21
13.364079
0
LINE
8
Layer 1
10
39.504114
20
13.364079
11
39.708700
21
13.857993
0
LINE
8
Layer 1
10
39.708700
20
13.857993
11
39.708700
21
13.857993
 0 
ENDSEC
 0 
EOF