<?xml version='1.0' encoding='UTF-8' standalone='no'?>
<!-- Created with Fritzing (https://fritzing.org/) -->
<svg xmlns="http://www.w3.org/2000/svg" width="2.70613in" height="2.09167in" viewBox="0 0 194.841 150.6" baseProfile="tiny"  y="0in" x="0in" xmlns:svg="http://www.w3.org/2000/svg" version="1.2">
 <g partID="57830">
  <g  id="board">
   <rect width="194.265" height="150.024" stroke-width="0.5" fill="none" fill-opacity="0.5"  y="0.288" id="boardoutline" x="0.288" stroke="black"/>
  </g>
 </g>
 <g partID="58321">
  <g transform="translate(-0.4848,-0.282408)">
   <g  id="copper1">
    <g  id="copper0">
     <circle r="1.9" stroke-width="0.9" fill="none"  cy="144" cx="151.384" id="connector1pad" stroke="black"/>
     <circle r="1.9" stroke-width="0.9" fill="none"  cy="144" cx="158.583" id="connector2pad" stroke="black"/>
     <circle r="1.9" stroke-width="0.9" fill="none"  cy="144" cx="165.786" id="connector3pad" stroke="black"/>
     <circle r="1.9" stroke-width="0.9" fill="none"  cy="144" cx="172.985" id="connector4pad" stroke="black"/>
     <circle r="1.9" stroke-width="0.9" fill="none"  cy="144" cx="180.185" id="connector5pad" stroke="black"/>
     <circle r="1.9" stroke-width="0.9" fill="none"  cy="7.2" cx="118.263" id="connector51pad" stroke="black"/>
     <circle r="1.9" stroke-width="0.9" fill="none"  cy="7.2" cx="111.065" id="connector52pad" stroke="black"/>
     <circle r="1.9" stroke-width="0.9" fill="none"  cy="7.2" cx="103.864" id="connector53pad" stroke="black"/>
     <circle r="1.9" stroke-width="0.9" fill="none"  cy="7.2" cx="96.664" id="connector54pad" stroke="black"/>
     <circle r="1.9" stroke-width="0.9" fill="none"  cy="7.2" cx="89.464" id="connector55pad" stroke="black"/>
     <circle r="1.9" stroke-width="0.9" fill="none"  cy="7.2" cx="82.264" id="connector56pad" stroke="black"/>
     <circle r="1.9" stroke-width="0.9" fill="none"  cy="7.2" cx="75.064" id="connector57pad" stroke="black"/>
     <circle r="1.9" stroke-width="0.9" fill="none"  cy="7.2" cx="67.864" id="connector58pad" stroke="black"/>
     <circle r="1.9" stroke-width="0.9" fill="none"  cy="7.2" cx="60.664" id="connector59pad" stroke="black"/>
     <circle r="1.9" stroke-width="0.9" fill="none"  cy="7.2" cx="53.463" id="connector60pad" stroke="black"/>
     <circle r="1.9" stroke-width="0.9" fill="none"  cy="7.2" cx="180.185" id="connector61pad" stroke="black"/>
     <circle r="1.9" stroke-width="0.9" fill="none"  cy="7.2" cx="172.985" id="connector62pad" stroke="black"/>
     <circle r="1.9" stroke-width="0.9" fill="none"  cy="7.2" cx="165.786" id="connector63pad" stroke="black"/>
     <circle r="1.9" stroke-width="0.9" fill="none"  cy="7.2" cx="158.583" id="connector64pad" stroke="black"/>
     <circle r="1.9" stroke-width="0.9" fill="none"  cy="7.2" cx="151.384" id="connector65pad" stroke="black"/>
     <circle r="1.9" stroke-width="0.9" fill="none"  cy="7.2" cx="144.185" id="connector66pad" stroke="black"/>
     <circle r="1.9" stroke-width="0.9" fill="none"  cy="7.2" cx="136.985" id="connector67pad" stroke="black"/>
     <circle r="1.9" stroke-width="0.9" fill="none"  cy="7.2" cx="129.784" id="connector68pad" stroke="black"/>
     <circle r="1.9" stroke-width="0.9" fill="none"  cy="144" cx="86.584" id="connector84pad" stroke="black"/>
     <circle r="1.9" stroke-width="0.9" fill="none"  cy="144" cx="79.384" id="connector91pin" stroke="black"/>
     <circle r="1.9" stroke-width="0.9" fill="none"  cy="144" cx="93.784" id="connector85pad" stroke="black"/>
     <circle r="1.9" stroke-width="0.9" fill="none"  cy="144" cx="100.985" id="connector86pad" stroke="black"/>
     <circle r="1.9" stroke-width="0.9" fill="none"  cy="144" cx="108.185" id="connector87pad" stroke="black"/>
     <circle r="1.9" stroke-width="0.9" fill="none"  cy="144" cx="115.384" id="connector88pad" stroke="black"/>
     <circle r="1.9" stroke-width="0.9" fill="none"  cy="144" cx="122.583" id="connector89pad" stroke="black"/>
     <circle r="1.9" stroke-width="0.9" fill="none"  cy="144" cx="129.784" id="connector90pad" stroke="black"/>
     <circle r="1.9" stroke-width="0.9" fill="none"  cy="144" cx="144.185" id="connector0pad" stroke="black"/>
    </g>
   </g>
  </g>
 </g>
 <g partID="60591">
  <g transform="translate(176.82,48.6776)">
   <g transform="matrix(0,1,-1,0,0,0)">
    <g  id="copper1">
     <g  id="copper0">
      <circle r="2.088" stroke-width="1.44" fill="none"  cy="5.04" cx="5.04" id="connector0pin" stroke="black"/>
      <circle r="2.088" stroke-width="1.44" fill="none"  cy="12.24" cx="5.04" id="connector1pin" stroke="black"/>
      <circle r="2.088" stroke-width="1.44" fill="none"  cy="19.44" cx="5.04" id="connector2pin" stroke="black"/>
     </g>
    </g>
   </g>
  </g>
 </g>
 <g partID="58381">
  <g transform="translate(54.42,34.2776)">
   <g transform="matrix(0,1,-1,0,0,0)">
    <g  id="copper1">
     <g  id="copper0">
      <circle r="2.088" stroke-width="1.44" fill="none"  cy="5.04" cx="5.04" id="connector0pin" stroke="black"/>
      <circle r="2.088" stroke-width="1.44" fill="none"  cy="12.24" cx="5.04" id="connector1pin" stroke="black"/>
      <circle r="2.088" stroke-width="1.44" fill="none"  cy="19.44" cx="5.04" id="connector2pin" stroke="black"/>
     </g>
    </g>
   </g>
  </g>
 </g>
 <g partID="63371">
  <g transform="translate(155.22,91.8776)">
   <g transform="matrix(0,1,-1,0,0,0)">
    <g  id="copper1">
     <g  id="copper0">
      <circle r="2.088" stroke-width="1.44" fill="none"  cy="5.04" cx="5.04" id="connector0pin" stroke="black"/>
      <circle r="2.088" stroke-width="1.44" fill="none"  cy="12.24" cx="5.04" id="connector1pin" stroke="black"/>
      <circle r="2.088" stroke-width="1.44" fill="none"  cy="19.44" cx="5.04" id="connector2pin" stroke="black"/>
      <circle r="2.088" stroke-width="1.44" fill="none"  cy="26.64" cx="5.04" id="connector3pin" stroke="black"/>
     </g>
    </g>
   </g>
  </g>
 </g>
 <g partID="59071">
  <g transform="translate(122.82,63.0776)">
   <g transform="matrix(0,1,-1,0,0,0)">
    <g  id="copper1">
     <g  id="copper0">
      <circle r="2.088" stroke-width="1.44" fill="none"  cy="5.04" cx="5.04" id="connector0pin" stroke="black"/>
      <circle r="2.088" stroke-width="1.44" fill="none"  cy="12.24" cx="5.04" id="connector1pin" stroke="black"/>
      <circle r="2.088" stroke-width="1.44" fill="none"  cy="19.44" cx="5.04" id="connector2pin" stroke="black"/>
     </g>
    </g>
   </g>
  </g>
 </g>
 <g partID="59121">
  <g transform="translate(113.676,79.8176)">
   <g transform="matrix(0,1,-1,0,0,0)">
    <g  id="copper1">
     <!-- <rect width="55" x="10" y="15.5" fill="none" height="55" stroke="rgb(255, 191, 0)" stroke-width="20" />  -->
     <circle r="1.98" stroke-width="1.44" fill="none"  cy="3.096" cx="2.7" id="connector0pin" stroke="black"/>
     <circle r="1.98" stroke-width="1.44" fill="none"  cy="3.096" cx="31.5" id="connector1pin" stroke="black"/>
    </g>
   </g>
  </g>
 </g>
 <g partID="63780">
  <line stroke-width="1.728" x2="110.286" x1="107.124" y1="125.718" y2="112.543" stroke-linecap="round" stroke="black"/>
 </g>
 <g partID="61230">
  <line stroke-width="1.728" x2="164.659" x1="107.036" y1="125.667" y2="100.534" stroke-linecap="round" stroke="black"/>
 </g>
 <g partID="61120">
  <line stroke-width="1.728" x2="164.582" x1="164.659" y1="100.534" y2="55.0854" stroke-linecap="round" stroke="black"/>
 </g>
 <g partID="61010">
  <line stroke-width="1.728" x2="107.036" x1="107.647" y1="142.269" y2="125.667" stroke-linecap="round" stroke="black"/>
 </g>
 <g partID="58970">
  <line stroke-width="1.728" x2="34.9048" x1="107.124" y1="125.718" y2="86.0256" stroke-linecap="round" stroke="black"/>
 </g>
 <g partID="58900">
  <line stroke-width="1.728" x2="34.9778" x1="34.9048" y1="86.0256" y2="40.6856" stroke-linecap="round" stroke="black"/>
 </g>
 <g partID="58480">
  <line stroke-width="1.728" x2="107.124" x1="107.654" y1="142.268" y2="125.718" stroke-linecap="round" stroke="black"/>
 </g>
 <g partID="59150">
  <line stroke-width="1.728" x2="110.58" x1="110.58" y1="69.4856" y2="81.2576" stroke-linecap="round" stroke="black"/>
 </g>
 <g partID="59930">
  <line stroke-width="1.728" x2="117.787" x1="117.866" y1="50.0626" y2="66.7496" stroke-linecap="round" stroke="black"/>
 </g>
 <g partID="59860">
  <line stroke-width="1.728" x2="117.866" x1="128.491" y1="35.759" y2="50.0626" stroke-linecap="round" stroke="black"/>
 </g>
 <g partID="59580">
  <line stroke-width="1.728" x2="128.491" x1="129.259" y1="8.36702" y2="35.759" stroke-linecap="round" stroke="black"/>
 </g>
 <g partID="59790">
  <line stroke-width="1.728" x2="103.378" x1="103.358" y1="50.0626" y2="66.7496" stroke-linecap="round" stroke="black"/>
 </g>
 <g partID="59720">
  <line stroke-width="1.728" x2="103.358" x1="117.866" y1="28.6072" y2="50.0626" stroke-linecap="round" stroke="black"/>
 </g>
 <g partID="59650">
  <line stroke-width="1.728" x2="117.866" x1="117.784" y1="8.36758" y2="28.6072" stroke-linecap="round" stroke="black"/>
 </g>
 <g partID="60500">
  <line stroke-width="1.728" x2="149.935" x1="142.999" y1="57.4187" y2="95.5717" stroke-linecap="round" stroke="black"/>
 </g>
 <g partID="60430">
  <line stroke-width="1.728" x2="142.999" x1="142.999" y1="24.9291" y2="57.4187" stroke-linecap="round" stroke="black"/>
 </g>
 <g partID="60360">
  <line stroke-width="1.728" x2="142.999" x1="143.644" y1="8.3665" y2="24.9291" stroke-linecap="round" stroke="black"/>
 </g>
 <g partID="61480">
  <line stroke-width="1.728" x2="171.783" x1="171.81" y1="39.2327" y2="52.3496" stroke-linecap="round" stroke="black"/>
 </g>
 <g partID="61410">
  <line stroke-width="1.728" x2="171.81" x1="157.302" y1="24.9291" y2="39.2327" stroke-linecap="round" stroke="black"/>
 </g>
 <g partID="61340">
  <line stroke-width="1.728" x2="157.302" x1="158.034" y1="8.36618" y2="24.9291" stroke-linecap="round" stroke="black"/>
 </g>
</svg>
