G04 MADE WITH FRITZING*
G04 WWW.FRITZING.ORG*
G04 DOUBLE SIDED*
G04 HOLES PLATED*
G04 CONTOUR ON CENTER OF CONTOUR VECTOR*
%ASAXBY*%
%FSLAX23Y23*%
%MOIN*%
%OFA0B0*%
%SFA1.0B1.0*%
%ADD10C,0.075278*%
%ADD11C,0.088000*%
%ADD12R,0.001000X0.001000*%
%LNMASK1*%
G90*
G70*
G54D10*
X1123Y88D03*
X1223Y88D03*
X1323Y88D03*
X1423Y88D03*
X1523Y88D03*
X663Y1988D03*
X563Y1988D03*
X463Y1988D03*
X363Y1988D03*
X263Y1988D03*
X163Y1988D03*
X63Y1988D03*
X1523Y1988D03*
X1423Y1988D03*
X1323Y1988D03*
X1223Y1988D03*
X1123Y1988D03*
X1023Y1988D03*
X923Y1988D03*
X823Y1988D03*
X223Y88D03*
X123Y88D03*
X323Y88D03*
X423Y88D03*
X523Y88D03*
X623Y88D03*
X723Y88D03*
X823Y88D03*
X1023Y88D03*
G54D11*
X671Y1208D03*
X571Y1208D03*
X471Y1208D03*
X371Y1208D03*
X271Y1208D03*
X171Y1208D03*
X1334Y1205D03*
X1234Y1205D03*
X1134Y1205D03*
X1034Y1205D03*
X934Y1205D03*
X834Y1205D03*
X667Y1467D03*
X567Y1467D03*
X467Y1467D03*
X367Y1467D03*
X267Y1467D03*
X167Y1467D03*
X1332Y1467D03*
X1232Y1467D03*
X1132Y1467D03*
X1032Y1467D03*
X932Y1467D03*
X832Y1467D03*
X423Y401D03*
X323Y401D03*
X223Y401D03*
X123Y401D03*
X670Y1725D03*
X570Y1725D03*
X470Y1725D03*
X370Y1725D03*
X270Y1725D03*
X170Y1725D03*
X1326Y1725D03*
X1226Y1725D03*
X1126Y1725D03*
X1026Y1725D03*
X926Y1725D03*
X826Y1725D03*
X1520Y708D03*
X1420Y708D03*
X1320Y708D03*
X1220Y708D03*
X1120Y708D03*
X1020Y708D03*
X1523Y515D03*
X1423Y515D03*
X1323Y515D03*
X1223Y515D03*
X1123Y515D03*
X1023Y515D03*
X1526Y305D03*
X1426Y305D03*
X1326Y305D03*
X1226Y305D03*
X1126Y305D03*
X1026Y305D03*
X1539Y1595D03*
X1439Y1595D03*
G54D12*
X1Y1988D02*
X1Y1988D01*
X1Y1987D02*
X1Y1987D01*
D02*
G04 End of Mask1*
M02*