; NON-PLATED HOLES START AT T1
; THROUGH (PLATED) HOLES START AT T100
M48
INCH
T100C0.040278
T101C0.038000
%
T100
X008229Y019876
X011229Y019876
X011229Y000877
X006629Y019876
X001629Y019876
X007229Y000877
X010229Y019876
X003629Y019876
X010229Y000877
X015229Y019876
X002229Y000877
X003229Y000877
X000629Y019876
X012229Y019876
X012229Y000877
X004229Y000877
X001229Y000877
X008229Y000877
X013229Y019876
X014229Y019876
X009229Y019876
X002629Y019876
X006229Y000877
X005629Y019876
X005229Y000877
X014229Y000877
X015229Y000877
X004629Y019876
X013229Y000877
T101
X005667Y014674
X009319Y014673
X013338Y012054
X001230Y004011
X014230Y005151
X011319Y014673
X012258Y017252
X013258Y003050
X003230Y004011
X012258Y003050
X014258Y003050
X002709Y012081
X009258Y017252
X003697Y017252
X012319Y014673
X011230Y005151
X004697Y017252
X009338Y012054
X015230Y005151
X011202Y007084
X002697Y017252
X015387Y015950
X004667Y014674
X013202Y007084
X013258Y017252
X001709Y012081
X002667Y014674
X013230Y005151
X004709Y012081
X011258Y003050
X008338Y012054
X003709Y012081
X012202Y007084
X014202Y007084
X001667Y014674
X012338Y012054
X011258Y017252
X011338Y012054
X008258Y017252
X010258Y003050
X014387Y015950
X001697Y017252
X005709Y012081
X006667Y014674
X002230Y004011
X010230Y005151
X004230Y004011
X012230Y005151
X010258Y017252
X003667Y014674
X013319Y014673
X006697Y017252
X010338Y012054
X015202Y007084
X006709Y012081
X005697Y017252
X015258Y003050
X010319Y014673
X008319Y014673
X010202Y007084
T00
M30
