<?xml version="1.0" encoding="UTF-8" standalone="no"?>
<!-- Created with Inkscape (http://www.inkscape.org/) -->

<svg
   width="210mm"
   height="297mm"
   viewBox="0 0 210 297"
   version="1.1"
   id="svg1"
   inkscape:version="1.3 (0e150ed6c4, 2023-07-21)"
   sodipodi:docname="Zeichnung.svg"
   xml:space="preserve"
   xmlns:inkscape="http://www.inkscape.org/namespaces/inkscape"
   xmlns:sodipodi="http://sodipodi.sourceforge.net/DTD/sodipodi-0.dtd"
   xmlns="http://www.w3.org/2000/svg"
   xmlns:svg="http://www.w3.org/2000/svg"><sodipodi:namedview
     id="namedview1"
     pagecolor="#ffffff"
     bordercolor="#000000"
     borderopacity="0.25"
     inkscape:showpageshadow="2"
     inkscape:pageopacity="0.0"
     inkscape:pagecheckerboard="0"
     inkscape:deskcolor="#d1d1d1"
     inkscape:document-units="mm"
     inkscape:zoom="2.8044052"
     inkscape:cx="371.20171"
     inkscape:cy="439.13056"
     inkscape:window-width="1920"
     inkscape:window-height="1001"
     inkscape:window-x="-9"
     inkscape:window-y="-9"
     inkscape:window-maximized="1"
     inkscape:current-layer="layer1" /><defs
     id="defs1" /><g
     inkscape:label="Ebene 1"
     inkscape:groupmode="layer"
     id="layer1"><path
       style="fill:#000000"
       d="m 97.386612,127.0759 c 0.34925,-0.29899 0.87312,-0.75189 1.16416,-1.00644 0.29104,-0.25456 1.05304,-0.83736 1.693338,-1.29511 0.64029,-0.45775 1.20328,-0.86141 1.25109,-0.89703 0.0478,-0.0356 -0.0929,-0.3987 -0.31272,-0.80685 -0.3198,-0.59384 -5.641211,0.2878 -6.153181,0.28391 -0.486178,-0.004 4.855653,-1.17431 6.063731,-1.61295 2.41503,-0.87688 2.43022,-0.89031 2.10834,-1.86561 -0.58069,-1.7595 -0.61419,-4.84161 -0.0759,-6.98616 l 0.14481,-0.57696 -2.2539,0.12763 c -1.362388,0.0772 -2.253898,0.0486 -2.253898,-0.0722 0,-0.10989 0.37768,-0.1998 0.83927,-0.1998 0.461598,0 1.247408,-0.13625 1.746248,-0.30277 0.49884,-0.16652 1.25373,-0.36566 1.67753,-0.44254 0.6213,-0.11269 0.89868,-0.33751 1.4321,-1.16072 0.99477,-1.53519 3.01332,-3.33649 4.86521,-4.03634 2.02177,-0.76405 2.63754,-0.84359 4.48641,-0.88092 2.37206,-0.0479 4.01765,0.44588 6.60988,2.36472 1.89214,1.40062 3.29152,3.70796 4.0841,6.73399 0.0401,0.15322 0.40862,0.26458 0.87552,0.26458 1.29726,0 2.09629,0.80362 1.75797,1.76808 -0.0744,0.21201 -0.69081,0.68674 -1.36987,1.05495 -1.18206,0.64095 -1.25428,0.72877 -1.69519,2.06118 -1.26664,3.82774 -4.1743,6.52118 -8.08889,7.49294 -3.59493,0.89241 -7.6194,-0.36326 -10.37215,-3.23619 l -0.90545,-0.94498 -1.08756,0.46785 c -1.4537,0.62537 -2.92987,1.53577 -4.895548,3.01926 -1.65017,1.24537 -2.49854,1.68019 -1.33541,0.68444 z m 17.891788,-1.36086 c 0.086,-0.17463 0.37531,-0.889 0.64299,-1.5875 0.94602,-2.46861 2.58325,-4.64615 4.48336,-5.96292 0.74538,-0.51655 1.05976,-1.12792 0.58001,-1.12792 -0.4007,0 -3.05931,0.81503 -5.18316,1.58896 -1.16416,0.42422 -2.49766,0.89459 -2.96333,1.04526 -1.03493,0.33487 -3.65416,1.3185 -4.23333,1.5898 -0.23284,0.10907 -0.9234,0.40564 -1.53459,0.65904 -0.61119,0.25341 -1.11125,0.49746 -1.11125,0.54234 0,0.0449 0.25646,0.36944 0.56992,0.72124 1.02835,1.15415 3.23788,2.38795 5.03925,2.81391 0.23283,0.055 1.1277,0.0855 1.98859,0.0677 1.15688,-0.0239 1.60603,-0.11524 1.72154,-0.3499 z m 2.50377,-0.45554 c 1.73347,-0.82255 3.93037,-2.97424 4.66991,-4.57383 0.28168,-0.60925 0.45104,-1.16884 0.37635,-1.24352 -0.26452,-0.26453 -3.23986,1.96058 -5.17266,3.86838 -2.66529,2.63082 -2.62485,3.25446 0.1264,1.94897 z m -12.64352,-2.99605 c 1.12037,-0.52597 2.67792,-1.34566 3.46121,-1.82153 0.7833,-0.47587 1.47217,-0.86522 1.53083,-0.86522 0.27008,0 1.9985,-1.4772 3.34258,-2.85675 1.46693,-1.50564 1.64517,-1.60672 3.96321,-2.24761 0.87042,-0.24066 1.41492,-0.70056 1.14683,-0.96865 -0.0472,-0.0472 -0.47803,-0.10139 -0.95748,-0.12051 -0.47945,-0.0191 -0.87173,-0.0969 -0.87173,-0.17291 0,-0.076 0.19742,-0.38911 0.4387,-0.69585 0.37328,-0.47456 0.6021,-0.55755 1.53458,-0.55663 0.7658,7.6e-4 1.33654,0.14677 1.89484,0.48475 l 1.2471,0.66852 -1.42131,0.5011 c -0.61758,0.21773 -0.93475,0.80207 -0.8878,0.944 0.0991,0.29965 3.29484,0.48593 3.57252,0.20825 0.096,-0.096 0.075,-0.55275 -0.0468,-1.01491 -1.11418,-4.22885 -5.1154,-7.29613 -9.5177,-7.29613 -2.66973,0 -5.60629,1.34512 -7.28064,3.33498 -0.6222,0.73943 -0.46953,0.98008 0.43421,0.68442 0.33721,-0.11032 1.32748,-0.40357 2.20061,-0.65167 0.87312,-0.2481 2.29521,-0.67739 3.16018,-0.95399 1.32456,-0.42355 1.69444,-0.46642 2.34436,-0.2717 0.42441,0.12716 0.87215,0.3921 0.99497,0.58877 0.29932,0.47927 -0.0397,2.63155 -0.57844,3.67211 -0.34079,0.65823 -0.35732,0.79375 -0.0968,0.79375 0.17275,0 0.2431,0.11935 0.3141,0.21166 0,0 0.0874,0.0138 0,0 -0.49588,-0.0783 -1.05101,0.39058 -2.94342,2.16959 -1.15115,1.08216 -2.63915,2.25045 -3.32674,2.61194 -0.6842,0.35971 -1.79131,0.95365 -2.46023,1.31987 -0.66892,0.36621 -1.81192,0.91417 -2.54,1.21769 -0.72808,0.30351 -1.38834,0.61445 -1.46725,0.69096 -0.18829,0.18258 0.40423,1.57436 0.61578,1.44642 0.0895,-0.0541 1.07937,-0.52874 2.19974,-1.05472 z m 9.60803,-8.61341 c 0,0 2.20641,-0.92316 2.58529,-0.59308 0.26016,0.22665 -2.27119,0.80474 -2.27119,0.80474 z m -9.23909,6.15271 c 4.59453,-2.34396 8.66994,-7.19389 7.1235,-8.47732 -0.2385,-0.19794 -0.55338,-0.20514 -1.32291,-0.0302 -0.55545,0.12625 -2.24816,0.38213 -3.76158,0.56863 -1.51341,0.18649 -2.81378,0.40275 -2.8897,0.48056 -0.79639,0.81626 -1.0757,4.89316 -0.46481,6.78467 0.19231,0.59546 0.38661,1.08264 0.43177,1.08264 0.0452,0 0.44284,-0.18403 0.88373,-0.40895 z"
       id="path2"
       sodipodi:nodetypes="csssscsssccssssssssssssssscssccsssssssssscssssssssssssssssssscssscssssssssssssssssssssscsssssscsss" /><ellipse
       style="fill:#e6e6e6;stroke:#000000;stroke-width:0.265709"
       id="path3"
       cx="119.1146"
       cy="112.61106"
       rx="0.36714536"
       ry="0.36714551" /></g></svg>
