G04 MADE WITH FRITZING*
G04 WWW.FRITZING.ORG*
G04 DOUBLE SIDED*
G04 HOLES PLATED*
G04 CONTOUR ON CENTER OF CONTOUR VECTOR*
%ASAXBY*%
%FSLAX23Y23*%
%MOIN*%
%OFA0B0*%
%SFA1.0B1.0*%
%ADD10C,0.065278*%
%ADD11C,0.078000*%
%ADD12C,0.075000*%
%ADD13C,0.024000*%
%LNCOPPER1*%
G90*
G70*
G54D10*
X2096Y96D03*
X2196Y96D03*
X2296Y96D03*
X2396Y96D03*
X2496Y96D03*
X1636Y1996D03*
X1536Y1996D03*
X1436Y1996D03*
X1336Y1996D03*
X1236Y1996D03*
X1136Y1996D03*
X1036Y1996D03*
X936Y1996D03*
X836Y1996D03*
X736Y1996D03*
X2496Y1996D03*
X2396Y1996D03*
X2296Y1996D03*
X2196Y1996D03*
X2096Y1996D03*
X1996Y1996D03*
X1896Y1996D03*
X1796Y1996D03*
X1196Y96D03*
X1096Y96D03*
X1296Y96D03*
X1396Y96D03*
X1496Y96D03*
X1596Y96D03*
X1696Y96D03*
X1796Y96D03*
X1996Y96D03*
G54D11*
X2436Y1346D03*
X2336Y1346D03*
X2236Y1346D03*
X686Y1546D03*
X586Y1546D03*
X486Y1546D03*
X2086Y746D03*
X1986Y746D03*
X1886Y746D03*
X1786Y746D03*
X1636Y1296D03*
X1536Y1296D03*
X1436Y1296D03*
G54D12*
X1536Y1096D03*
X1536Y696D03*
G54D13*
X1488Y346D02*
X1533Y678D01*
D02*
X1487Y346D02*
X2287Y695D01*
D02*
X2287Y695D02*
X2334Y1327D01*
D02*
X1495Y116D02*
X1487Y346D01*
D02*
X1488Y346D02*
X485Y897D01*
D02*
X485Y897D02*
X486Y1527D01*
D02*
X1495Y116D02*
X1488Y346D01*
D02*
X1536Y1277D02*
X1536Y1113D01*
D02*
X1637Y1396D02*
X1636Y1315D01*
D02*
X1785Y1595D02*
X1637Y1396D01*
D02*
X1795Y1975D02*
X1785Y1595D01*
D02*
X1436Y1396D02*
X1436Y1315D01*
D02*
X1637Y1694D02*
X1436Y1396D01*
D02*
X1636Y1975D02*
X1637Y1694D01*
D02*
X1986Y1294D02*
X2082Y764D01*
D02*
X1986Y1745D02*
X1986Y1294D01*
D02*
X1995Y1975D02*
X1986Y1745D01*
D02*
X2386Y1547D02*
X2431Y1364D01*
D02*
X2185Y1745D02*
X2386Y1547D01*
D02*
X2195Y1975D02*
X2185Y1745D01*
G04 End of Copper1*
M02*