; NON-PLATED HOLES START AT T1
; THROUGH (PLATED) HOLES START AT T100
M48
INCH
T100C0.038000
T101C0.035000
T102C0.040278
%
T100
X005858Y015455
X018858Y007455
X006858Y015455
X004858Y015455
X015358Y012955
X023358Y013455
X014358Y012955
X022358Y013455
X020858Y007455
X024358Y013455
X016358Y012955
X017858Y007455
X019858Y007455
T101
X015358Y010955
X015358Y006955
T102
X024958Y000955
X019958Y000955
X022958Y000955
X011358Y019955
X013958Y000955
X012358Y019955
X014958Y000955
X010358Y019955
X012958Y000955
X024958Y019955
X014358Y019955
X013358Y019955
X015358Y019955
X017958Y019955
X023958Y000955
X019958Y019955
X008358Y019955
X016958Y000955
X020958Y000955
X023958Y019955
X022958Y019955
X021958Y000955
X016358Y019955
X009358Y019955
X007358Y019955
X020958Y019955
X011958Y000955
X018958Y019955
X015958Y000955
X021958Y019955
X010958Y000955
X017958Y000955
T00
M30
