G04 MADE WITH FRITZING*
G04 WWW.FRITZING.ORG*
G04 DOUBLE SIDED*
G04 HOLES PLATED*
G04 CONTOUR ON CENTER OF CONTOUR VECTOR*
%ASAXBY*%
%FSLAX23Y23*%
%MOIN*%
%OFA0B0*%
%SFA1.0B1.0*%
%ADD10C,0.067559*%
%ADD11C,0.024000*%
%LNCOPPER1*%
G90*
G70*
G54D10*
X2209Y1689D03*
X2109Y1689D03*
X2009Y1689D03*
X1909Y1689D03*
X1809Y1689D03*
X1709Y1689D03*
X1609Y1689D03*
X1509Y1689D03*
X1409Y1689D03*
X1309Y1689D03*
X1209Y1689D03*
X1109Y1689D03*
X1009Y1689D03*
X909Y1689D03*
X809Y1689D03*
X709Y1689D03*
X609Y1689D03*
X509Y1689D03*
X409Y1689D03*
X309Y1689D03*
X209Y1689D03*
X109Y1689D03*
X2209Y1389D03*
X2109Y1389D03*
X2009Y1389D03*
X1909Y1389D03*
X1809Y1389D03*
X1709Y1389D03*
X1609Y1389D03*
X1509Y1389D03*
X1409Y1389D03*
X1309Y1389D03*
X1209Y1389D03*
X1109Y1389D03*
X1009Y1389D03*
X909Y1389D03*
X809Y1389D03*
X709Y1389D03*
X609Y1389D03*
X509Y1389D03*
X409Y1389D03*
X2209Y89D03*
X2109Y89D03*
X2009Y89D03*
X1909Y89D03*
X1809Y89D03*
X1709Y89D03*
X1609Y89D03*
X1509Y89D03*
X1409Y89D03*
X1309Y89D03*
X1209Y89D03*
X1109Y89D03*
X1009Y89D03*
X909Y89D03*
X809Y89D03*
X709Y89D03*
X609Y89D03*
X509Y89D03*
X409Y89D03*
X309Y89D03*
X209Y89D03*
X109Y89D03*
X2209Y389D03*
X2109Y389D03*
X2009Y389D03*
X1909Y389D03*
X1809Y389D03*
X1709Y389D03*
X1609Y389D03*
X1509Y389D03*
X1409Y389D03*
X1309Y389D03*
X1209Y389D03*
X1109Y389D03*
X1009Y389D03*
X909Y389D03*
X809Y389D03*
X709Y389D03*
X609Y389D03*
X509Y389D03*
X409Y389D03*
X209Y589D03*
X209Y689D03*
X209Y789D03*
X209Y889D03*
X209Y989D03*
X209Y1089D03*
X209Y1189D03*
X209Y1289D03*
G54D11*
X74Y678D02*
X110Y588D01*
D02*
X76Y1179D02*
X74Y678D01*
D02*
X134Y1286D02*
X76Y1179D01*
D02*
X110Y588D02*
X195Y589D01*
D02*
X403Y535D02*
X308Y588D01*
D02*
X308Y588D02*
X223Y589D01*
D02*
X408Y403D02*
X403Y535D01*
D02*
X909Y1675D02*
X909Y1403D01*
D02*
X809Y1675D02*
X809Y1403D01*
D02*
X709Y1675D02*
X709Y1403D01*
D02*
X609Y1675D02*
X609Y1403D01*
D02*
X509Y1675D02*
X509Y1403D01*
D02*
X395Y1689D02*
X323Y1689D01*
D02*
X195Y1689D02*
X123Y1689D01*
D02*
X195Y1288D02*
X134Y1286D01*
D02*
X1012Y1595D02*
X1009Y1403D01*
D02*
X2009Y1675D02*
X2009Y1403D01*
D02*
X1809Y1675D02*
X1809Y1403D01*
D02*
X1709Y1675D02*
X1709Y1403D01*
D02*
X1609Y1675D02*
X1609Y1403D01*
D02*
X1509Y1675D02*
X1509Y1403D01*
D02*
X1409Y1675D02*
X1409Y1403D01*
D02*
X1309Y1675D02*
X1309Y1403D01*
D02*
X1209Y1675D02*
X1209Y1403D01*
D02*
X1109Y1675D02*
X1109Y1403D01*
D02*
X1009Y1675D02*
X1012Y1595D01*
D02*
X1109Y103D02*
X1109Y375D01*
D02*
X1209Y103D02*
X1209Y375D01*
D02*
X1309Y103D02*
X1309Y375D01*
D02*
X1709Y103D02*
X1709Y375D01*
D02*
X1909Y103D02*
X1909Y375D01*
D02*
X2009Y103D02*
X2009Y375D01*
D02*
X2109Y103D02*
X2109Y375D01*
D02*
X2209Y103D02*
X2209Y375D01*
D02*
X2222Y1692D02*
X2209Y1689D01*
D02*
X2209Y1689D02*
X2209Y1403D01*
D02*
X2109Y1675D02*
X2109Y1403D01*
D02*
X409Y388D02*
X418Y378D01*
D02*
X323Y89D02*
X395Y89D01*
D02*
X409Y103D02*
X409Y388D01*
D02*
X509Y103D02*
X509Y375D01*
D02*
X609Y103D02*
X609Y375D01*
D02*
X709Y103D02*
X709Y375D01*
D02*
X809Y103D02*
X809Y375D01*
D02*
X1623Y89D02*
X1695Y89D01*
D02*
X1795Y89D02*
X1723Y89D01*
D02*
X909Y103D02*
X909Y375D01*
D02*
X1009Y103D02*
X1009Y375D01*
D02*
X1423Y89D02*
X1495Y89D01*
D02*
X1523Y89D02*
X1595Y89D01*
D02*
X123Y89D02*
X195Y89D01*
D02*
X223Y89D02*
X295Y89D01*
D02*
X409Y1290D02*
X308Y1189D01*
D02*
X308Y1189D02*
X223Y1189D01*
D02*
X409Y1375D02*
X409Y1290D01*
D02*
X1309Y690D02*
X223Y689D01*
D02*
X1509Y588D02*
X1309Y690D01*
D02*
X1509Y403D02*
X1509Y588D01*
D02*
X1709Y1090D02*
X223Y1089D01*
D02*
X1909Y1189D02*
X1709Y1090D01*
D02*
X1909Y1375D02*
X1909Y1189D01*
D02*
X1610Y789D02*
X1620Y788D01*
D02*
X1620Y788D02*
X223Y789D01*
D02*
X1808Y690D02*
X1610Y789D01*
D02*
X1809Y403D02*
X1808Y690D01*
D02*
X209Y1303D02*
X209Y1675D01*
D02*
X409Y1403D02*
X409Y1675D01*
G04 End of Copper1*
M02*