G04 MADE WITH FRITZING*
G04 WWW.FRITZING.ORG*
G04 DOUBLE SIDED*
G04 HOLES PLATED*
G04 CONTOUR ON CENTER OF CONTOUR VECTOR*
%ASAXBY*%
%FSLAX23Y23*%
%MOIN*%
%OFA0B0*%
%SFA1.0B1.0*%
%ADD10R,2.302100X1.800590X2.286100X1.784590*%
%ADD11C,0.008000*%
%ADD12R,0.001000X0.001000*%
%LNSILK0*%
G90*
G70*
G54D11*
X4Y1797D02*
X2298Y1797D01*
X2298Y4D01*
X4Y4D01*
X4Y1797D01*
D02*
G54D12*
X660Y1128D02*
X665Y1128D01*
X1087Y1128D02*
X1092Y1128D01*
X659Y1127D02*
X666Y1127D01*
X1086Y1127D02*
X1093Y1127D01*
X658Y1126D02*
X667Y1126D01*
X1085Y1126D02*
X1094Y1126D01*
X504Y1125D02*
X507Y1125D01*
X565Y1125D02*
X577Y1125D01*
X658Y1125D02*
X667Y1125D01*
X720Y1125D02*
X723Y1125D01*
X746Y1125D02*
X767Y1125D01*
X944Y1125D02*
X957Y1125D01*
X1085Y1125D02*
X1094Y1125D01*
X1133Y1125D02*
X1150Y1125D01*
X1229Y1125D02*
X1241Y1125D01*
X1276Y1125D02*
X1289Y1125D01*
X1357Y1125D02*
X1387Y1125D01*
X1459Y1125D02*
X1475Y1125D01*
X1559Y1125D02*
X1577Y1125D01*
X1740Y1125D02*
X1766Y1125D01*
X1788Y1125D02*
X1814Y1125D01*
X1837Y1125D02*
X1863Y1125D01*
X1884Y1125D02*
X1906Y1125D01*
X1927Y1125D02*
X1958Y1125D01*
X503Y1124D02*
X508Y1124D01*
X564Y1124D02*
X578Y1124D01*
X658Y1124D02*
X667Y1124D01*
X719Y1124D02*
X724Y1124D01*
X744Y1124D02*
X769Y1124D01*
X943Y1124D02*
X958Y1124D01*
X1085Y1124D02*
X1094Y1124D01*
X1131Y1124D02*
X1151Y1124D01*
X1228Y1124D02*
X1242Y1124D01*
X1275Y1124D02*
X1290Y1124D01*
X1357Y1124D02*
X1388Y1124D01*
X1459Y1124D02*
X1476Y1124D01*
X1559Y1124D02*
X1578Y1124D01*
X1739Y1124D02*
X1767Y1124D01*
X1786Y1124D02*
X1815Y1124D01*
X1836Y1124D02*
X1863Y1124D01*
X1882Y1124D02*
X1907Y1124D01*
X1926Y1124D02*
X1958Y1124D01*
X503Y1123D02*
X508Y1123D01*
X563Y1123D02*
X579Y1123D01*
X658Y1123D02*
X667Y1123D01*
X719Y1123D02*
X724Y1123D01*
X743Y1123D02*
X770Y1123D01*
X943Y1123D02*
X958Y1123D01*
X1085Y1123D02*
X1094Y1123D01*
X1130Y1123D02*
X1151Y1123D01*
X1227Y1123D02*
X1243Y1123D01*
X1275Y1123D02*
X1290Y1123D01*
X1357Y1123D02*
X1388Y1123D01*
X1458Y1123D02*
X1476Y1123D01*
X1559Y1123D02*
X1578Y1123D01*
X1738Y1123D02*
X1768Y1123D01*
X1785Y1123D02*
X1815Y1123D01*
X1834Y1123D02*
X1863Y1123D01*
X1881Y1123D02*
X1908Y1123D01*
X1926Y1123D02*
X1958Y1123D01*
X503Y1122D02*
X508Y1122D01*
X563Y1122D02*
X579Y1122D01*
X658Y1122D02*
X667Y1122D01*
X719Y1122D02*
X724Y1122D01*
X742Y1122D02*
X771Y1122D01*
X943Y1122D02*
X958Y1122D01*
X1085Y1122D02*
X1094Y1122D01*
X1129Y1122D02*
X1151Y1122D01*
X1227Y1122D02*
X1243Y1122D01*
X1275Y1122D02*
X1290Y1122D01*
X1357Y1122D02*
X1388Y1122D01*
X1458Y1122D02*
X1477Y1122D01*
X1559Y1122D02*
X1578Y1122D01*
X1737Y1122D02*
X1768Y1122D01*
X1784Y1122D02*
X1815Y1122D01*
X1833Y1122D02*
X1863Y1122D01*
X1880Y1122D02*
X1909Y1122D01*
X1926Y1122D02*
X1958Y1122D01*
X503Y1121D02*
X508Y1121D01*
X563Y1121D02*
X578Y1121D01*
X658Y1121D02*
X667Y1121D01*
X719Y1121D02*
X724Y1121D01*
X741Y1121D02*
X771Y1121D01*
X943Y1121D02*
X958Y1121D01*
X1085Y1121D02*
X1094Y1121D01*
X1128Y1121D02*
X1151Y1121D01*
X1227Y1121D02*
X1242Y1121D01*
X1275Y1121D02*
X1290Y1121D01*
X1357Y1121D02*
X1388Y1121D01*
X1458Y1121D02*
X1477Y1121D01*
X1559Y1121D02*
X1578Y1121D01*
X1736Y1121D02*
X1767Y1121D01*
X1784Y1121D02*
X1815Y1121D01*
X1833Y1121D02*
X1863Y1121D01*
X1880Y1121D02*
X1910Y1121D01*
X1926Y1121D02*
X1958Y1121D01*
X503Y1120D02*
X508Y1120D01*
X563Y1120D02*
X578Y1120D01*
X659Y1120D02*
X666Y1120D01*
X719Y1120D02*
X724Y1120D01*
X741Y1120D02*
X771Y1120D01*
X943Y1120D02*
X957Y1120D01*
X1086Y1120D02*
X1093Y1120D01*
X1128Y1120D02*
X1150Y1120D01*
X1227Y1120D02*
X1242Y1120D01*
X1275Y1120D02*
X1289Y1120D01*
X1357Y1120D02*
X1387Y1120D01*
X1458Y1120D02*
X1477Y1120D01*
X1559Y1120D02*
X1577Y1120D01*
X1736Y1120D02*
X1767Y1120D01*
X1784Y1120D02*
X1814Y1120D01*
X1832Y1120D02*
X1863Y1120D01*
X1879Y1120D02*
X1910Y1120D01*
X1927Y1120D02*
X1958Y1120D01*
X503Y1119D02*
X508Y1119D01*
X563Y1119D02*
X575Y1119D01*
X662Y1119D02*
X663Y1119D01*
X719Y1119D02*
X724Y1119D01*
X740Y1119D02*
X772Y1119D01*
X943Y1119D02*
X954Y1119D01*
X1089Y1119D02*
X1090Y1119D01*
X1127Y1119D02*
X1147Y1119D01*
X1227Y1119D02*
X1239Y1119D01*
X1275Y1119D02*
X1286Y1119D01*
X1358Y1119D02*
X1385Y1119D01*
X1458Y1119D02*
X1477Y1119D01*
X1559Y1119D02*
X1574Y1119D01*
X1736Y1119D02*
X1764Y1119D01*
X1784Y1119D02*
X1811Y1119D01*
X1832Y1119D02*
X1863Y1119D01*
X1879Y1119D02*
X1910Y1119D01*
X1930Y1119D02*
X1958Y1119D01*
X503Y1118D02*
X508Y1118D01*
X563Y1118D02*
X569Y1118D01*
X719Y1118D02*
X724Y1118D01*
X740Y1118D02*
X746Y1118D01*
X766Y1118D02*
X772Y1118D01*
X943Y1118D02*
X948Y1118D01*
X1127Y1118D02*
X1133Y1118D01*
X1139Y1118D02*
X1145Y1118D01*
X1227Y1118D02*
X1233Y1118D01*
X1275Y1118D02*
X1280Y1118D01*
X1359Y1118D02*
X1365Y1118D01*
X1458Y1118D02*
X1464Y1118D01*
X1471Y1118D02*
X1477Y1118D01*
X1559Y1118D02*
X1565Y1118D01*
X1736Y1118D02*
X1742Y1118D01*
X1784Y1118D02*
X1789Y1118D01*
X1831Y1118D02*
X1838Y1118D01*
X1857Y1118D02*
X1863Y1118D01*
X1879Y1118D02*
X1885Y1118D01*
X1904Y1118D02*
X1910Y1118D01*
X1952Y1118D02*
X1958Y1118D01*
X503Y1117D02*
X508Y1117D01*
X563Y1117D02*
X569Y1117D01*
X719Y1117D02*
X724Y1117D01*
X740Y1117D02*
X746Y1117D01*
X765Y1117D02*
X771Y1117D01*
X943Y1117D02*
X948Y1117D01*
X1126Y1117D02*
X1133Y1117D01*
X1139Y1117D02*
X1145Y1117D01*
X1227Y1117D02*
X1233Y1117D01*
X1275Y1117D02*
X1280Y1117D01*
X1359Y1117D02*
X1366Y1117D01*
X1458Y1117D02*
X1464Y1117D01*
X1471Y1117D02*
X1477Y1117D01*
X1559Y1117D02*
X1565Y1117D01*
X1736Y1117D02*
X1742Y1117D01*
X1784Y1117D02*
X1789Y1117D01*
X1831Y1117D02*
X1837Y1117D01*
X1857Y1117D02*
X1863Y1117D01*
X1878Y1117D02*
X1884Y1117D01*
X1904Y1117D02*
X1910Y1117D01*
X1952Y1117D02*
X1958Y1117D01*
X503Y1116D02*
X508Y1116D01*
X563Y1116D02*
X569Y1116D01*
X719Y1116D02*
X724Y1116D01*
X740Y1116D02*
X745Y1116D01*
X765Y1116D02*
X771Y1116D01*
X943Y1116D02*
X948Y1116D01*
X1126Y1116D02*
X1132Y1116D01*
X1139Y1116D02*
X1145Y1116D01*
X1227Y1116D02*
X1233Y1116D01*
X1275Y1116D02*
X1280Y1116D01*
X1360Y1116D02*
X1366Y1116D01*
X1458Y1116D02*
X1464Y1116D01*
X1471Y1116D02*
X1477Y1116D01*
X1559Y1116D02*
X1565Y1116D01*
X1736Y1116D02*
X1742Y1116D01*
X1784Y1116D02*
X1789Y1116D01*
X1831Y1116D02*
X1837Y1116D01*
X1857Y1116D02*
X1863Y1116D01*
X1879Y1116D02*
X1884Y1116D01*
X1903Y1116D02*
X1910Y1116D01*
X1952Y1116D02*
X1958Y1116D01*
X503Y1115D02*
X508Y1115D01*
X563Y1115D02*
X569Y1115D01*
X719Y1115D02*
X724Y1115D01*
X741Y1115D02*
X745Y1115D01*
X764Y1115D02*
X771Y1115D01*
X943Y1115D02*
X948Y1115D01*
X1125Y1115D02*
X1132Y1115D01*
X1139Y1115D02*
X1145Y1115D01*
X1227Y1115D02*
X1233Y1115D01*
X1275Y1115D02*
X1280Y1115D01*
X1360Y1115D02*
X1367Y1115D01*
X1458Y1115D02*
X1464Y1115D01*
X1471Y1115D02*
X1477Y1115D01*
X1559Y1115D02*
X1565Y1115D01*
X1736Y1115D02*
X1742Y1115D01*
X1784Y1115D02*
X1789Y1115D01*
X1831Y1115D02*
X1837Y1115D01*
X1857Y1115D02*
X1863Y1115D01*
X1879Y1115D02*
X1883Y1115D01*
X1902Y1115D02*
X1909Y1115D01*
X1952Y1115D02*
X1958Y1115D01*
X503Y1114D02*
X508Y1114D01*
X563Y1114D02*
X569Y1114D01*
X719Y1114D02*
X724Y1114D01*
X742Y1114D02*
X744Y1114D01*
X763Y1114D02*
X770Y1114D01*
X943Y1114D02*
X948Y1114D01*
X1125Y1114D02*
X1131Y1114D01*
X1139Y1114D02*
X1145Y1114D01*
X1227Y1114D02*
X1233Y1114D01*
X1275Y1114D02*
X1280Y1114D01*
X1361Y1114D02*
X1368Y1114D01*
X1458Y1114D02*
X1464Y1114D01*
X1471Y1114D02*
X1477Y1114D01*
X1559Y1114D02*
X1565Y1114D01*
X1736Y1114D02*
X1742Y1114D01*
X1784Y1114D02*
X1789Y1114D01*
X1831Y1114D02*
X1837Y1114D01*
X1857Y1114D02*
X1863Y1114D01*
X1880Y1114D02*
X1882Y1114D01*
X1901Y1114D02*
X1909Y1114D01*
X1952Y1114D02*
X1958Y1114D01*
X503Y1113D02*
X508Y1113D01*
X563Y1113D02*
X569Y1113D01*
X719Y1113D02*
X724Y1113D01*
X762Y1113D02*
X770Y1113D01*
X943Y1113D02*
X948Y1113D01*
X992Y1113D02*
X995Y1113D01*
X1006Y1113D02*
X1006Y1113D01*
X1124Y1113D02*
X1131Y1113D01*
X1139Y1113D02*
X1145Y1113D01*
X1227Y1113D02*
X1233Y1113D01*
X1275Y1113D02*
X1280Y1113D01*
X1362Y1113D02*
X1368Y1113D01*
X1458Y1113D02*
X1464Y1113D01*
X1471Y1113D02*
X1477Y1113D01*
X1559Y1113D02*
X1565Y1113D01*
X1736Y1113D02*
X1742Y1113D01*
X1784Y1113D02*
X1789Y1113D01*
X1831Y1113D02*
X1837Y1113D01*
X1857Y1113D02*
X1863Y1113D01*
X1901Y1113D02*
X1908Y1113D01*
X1952Y1113D02*
X1958Y1113D01*
X503Y1112D02*
X508Y1112D01*
X563Y1112D02*
X569Y1112D01*
X719Y1112D02*
X724Y1112D01*
X761Y1112D02*
X769Y1112D01*
X943Y1112D02*
X948Y1112D01*
X988Y1112D02*
X998Y1112D01*
X1004Y1112D02*
X1008Y1112D01*
X1124Y1112D02*
X1130Y1112D01*
X1139Y1112D02*
X1145Y1112D01*
X1227Y1112D02*
X1233Y1112D01*
X1275Y1112D02*
X1280Y1112D01*
X1362Y1112D02*
X1369Y1112D01*
X1458Y1112D02*
X1464Y1112D01*
X1471Y1112D02*
X1477Y1112D01*
X1559Y1112D02*
X1565Y1112D01*
X1736Y1112D02*
X1742Y1112D01*
X1784Y1112D02*
X1789Y1112D01*
X1831Y1112D02*
X1837Y1112D01*
X1857Y1112D02*
X1863Y1112D01*
X1900Y1112D02*
X1907Y1112D01*
X1952Y1112D02*
X1958Y1112D01*
X503Y1111D02*
X508Y1111D01*
X515Y1111D02*
X526Y1111D01*
X563Y1111D02*
X569Y1111D01*
X606Y1111D02*
X621Y1111D01*
X659Y1111D02*
X672Y1111D01*
X699Y1111D02*
X709Y1111D01*
X719Y1111D02*
X724Y1111D01*
X761Y1111D02*
X768Y1111D01*
X836Y1111D02*
X839Y1111D01*
X862Y1111D02*
X865Y1111D01*
X889Y1111D02*
X906Y1111D01*
X943Y1111D02*
X948Y1111D01*
X987Y1111D02*
X999Y1111D01*
X1003Y1111D02*
X1009Y1111D01*
X1030Y1111D02*
X1050Y1111D01*
X1086Y1111D02*
X1099Y1111D01*
X1123Y1111D02*
X1130Y1111D01*
X1139Y1111D02*
X1145Y1111D01*
X1227Y1111D02*
X1233Y1111D01*
X1275Y1111D02*
X1280Y1111D01*
X1318Y1111D02*
X1332Y1111D01*
X1363Y1111D02*
X1369Y1111D01*
X1458Y1111D02*
X1464Y1111D01*
X1471Y1111D02*
X1477Y1111D01*
X1559Y1111D02*
X1565Y1111D01*
X1736Y1111D02*
X1742Y1111D01*
X1784Y1111D02*
X1789Y1111D01*
X1831Y1111D02*
X1837Y1111D01*
X1857Y1111D02*
X1863Y1111D01*
X1899Y1111D02*
X1907Y1111D01*
X1952Y1111D02*
X1958Y1111D01*
X503Y1110D02*
X508Y1110D01*
X513Y1110D02*
X528Y1110D01*
X563Y1110D02*
X569Y1110D01*
X604Y1110D02*
X623Y1110D01*
X659Y1110D02*
X673Y1110D01*
X698Y1110D02*
X711Y1110D01*
X719Y1110D02*
X724Y1110D01*
X760Y1110D02*
X767Y1110D01*
X835Y1110D02*
X840Y1110D01*
X861Y1110D02*
X866Y1110D01*
X887Y1110D02*
X907Y1110D01*
X943Y1110D02*
X948Y1110D01*
X985Y1110D02*
X1000Y1110D01*
X1003Y1110D02*
X1009Y1110D01*
X1028Y1110D02*
X1052Y1110D01*
X1086Y1110D02*
X1100Y1110D01*
X1123Y1110D02*
X1129Y1110D01*
X1139Y1110D02*
X1145Y1110D01*
X1227Y1110D02*
X1233Y1110D01*
X1275Y1110D02*
X1280Y1110D01*
X1316Y1110D02*
X1334Y1110D01*
X1363Y1110D02*
X1370Y1110D01*
X1458Y1110D02*
X1464Y1110D01*
X1471Y1110D02*
X1477Y1110D01*
X1559Y1110D02*
X1565Y1110D01*
X1736Y1110D02*
X1742Y1110D01*
X1784Y1110D02*
X1789Y1110D01*
X1831Y1110D02*
X1837Y1110D01*
X1857Y1110D02*
X1863Y1110D01*
X1898Y1110D02*
X1906Y1110D01*
X1952Y1110D02*
X1958Y1110D01*
X503Y1109D02*
X508Y1109D01*
X511Y1109D02*
X529Y1109D01*
X563Y1109D02*
X569Y1109D01*
X603Y1109D02*
X624Y1109D01*
X658Y1109D02*
X673Y1109D01*
X696Y1109D02*
X713Y1109D01*
X719Y1109D02*
X724Y1109D01*
X759Y1109D02*
X767Y1109D01*
X835Y1109D02*
X840Y1109D01*
X861Y1109D02*
X866Y1109D01*
X886Y1109D02*
X907Y1109D01*
X943Y1109D02*
X948Y1109D01*
X984Y1109D02*
X1001Y1109D01*
X1003Y1109D02*
X1009Y1109D01*
X1027Y1109D02*
X1053Y1109D01*
X1085Y1109D02*
X1100Y1109D01*
X1122Y1109D02*
X1129Y1109D01*
X1139Y1109D02*
X1145Y1109D01*
X1227Y1109D02*
X1233Y1109D01*
X1275Y1109D02*
X1280Y1109D01*
X1315Y1109D02*
X1335Y1109D01*
X1364Y1109D02*
X1371Y1109D01*
X1458Y1109D02*
X1464Y1109D01*
X1471Y1109D02*
X1477Y1109D01*
X1559Y1109D02*
X1565Y1109D01*
X1736Y1109D02*
X1742Y1109D01*
X1784Y1109D02*
X1789Y1109D01*
X1831Y1109D02*
X1837Y1109D01*
X1857Y1109D02*
X1863Y1109D01*
X1898Y1109D02*
X1905Y1109D01*
X1952Y1109D02*
X1958Y1109D01*
X503Y1108D02*
X508Y1108D01*
X510Y1108D02*
X530Y1108D01*
X563Y1108D02*
X569Y1108D01*
X602Y1108D02*
X625Y1108D01*
X658Y1108D02*
X673Y1108D01*
X696Y1108D02*
X715Y1108D01*
X719Y1108D02*
X724Y1108D01*
X758Y1108D02*
X766Y1108D01*
X835Y1108D02*
X840Y1108D01*
X861Y1108D02*
X866Y1108D01*
X885Y1108D02*
X907Y1108D01*
X943Y1108D02*
X948Y1108D01*
X983Y1108D02*
X1009Y1108D01*
X1026Y1108D02*
X1054Y1108D01*
X1085Y1108D02*
X1100Y1108D01*
X1122Y1108D02*
X1128Y1108D01*
X1139Y1108D02*
X1145Y1108D01*
X1227Y1108D02*
X1233Y1108D01*
X1275Y1108D02*
X1280Y1108D01*
X1313Y1108D02*
X1337Y1108D01*
X1364Y1108D02*
X1371Y1108D01*
X1458Y1108D02*
X1464Y1108D01*
X1471Y1108D02*
X1477Y1108D01*
X1559Y1108D02*
X1565Y1108D01*
X1736Y1108D02*
X1742Y1108D01*
X1784Y1108D02*
X1789Y1108D01*
X1831Y1108D02*
X1837Y1108D01*
X1857Y1108D02*
X1863Y1108D01*
X1897Y1108D02*
X1904Y1108D01*
X1952Y1108D02*
X1958Y1108D01*
X503Y1107D02*
X531Y1107D01*
X563Y1107D02*
X569Y1107D01*
X601Y1107D02*
X626Y1107D01*
X658Y1107D02*
X673Y1107D01*
X695Y1107D02*
X716Y1107D01*
X719Y1107D02*
X724Y1107D01*
X758Y1107D02*
X765Y1107D01*
X835Y1107D02*
X841Y1107D01*
X861Y1107D02*
X866Y1107D01*
X885Y1107D02*
X907Y1107D01*
X943Y1107D02*
X948Y1107D01*
X982Y1107D02*
X1009Y1107D01*
X1026Y1107D02*
X1055Y1107D01*
X1085Y1107D02*
X1100Y1107D01*
X1121Y1107D02*
X1128Y1107D01*
X1139Y1107D02*
X1145Y1107D01*
X1227Y1107D02*
X1233Y1107D01*
X1275Y1107D02*
X1280Y1107D01*
X1312Y1107D02*
X1338Y1107D01*
X1365Y1107D02*
X1372Y1107D01*
X1458Y1107D02*
X1464Y1107D01*
X1471Y1107D02*
X1477Y1107D01*
X1559Y1107D02*
X1565Y1107D01*
X1736Y1107D02*
X1742Y1107D01*
X1784Y1107D02*
X1789Y1107D01*
X1831Y1107D02*
X1837Y1107D01*
X1857Y1107D02*
X1863Y1107D01*
X1896Y1107D02*
X1903Y1107D01*
X1952Y1107D02*
X1958Y1107D01*
X503Y1106D02*
X532Y1106D01*
X563Y1106D02*
X569Y1106D01*
X600Y1106D02*
X627Y1106D01*
X658Y1106D02*
X672Y1106D01*
X694Y1106D02*
X724Y1106D01*
X757Y1106D02*
X764Y1106D01*
X835Y1106D02*
X841Y1106D01*
X861Y1106D02*
X866Y1106D01*
X884Y1106D02*
X906Y1106D01*
X943Y1106D02*
X948Y1106D01*
X981Y1106D02*
X990Y1106D01*
X996Y1106D02*
X1009Y1106D01*
X1025Y1106D02*
X1055Y1106D01*
X1085Y1106D02*
X1099Y1106D01*
X1121Y1106D02*
X1127Y1106D01*
X1139Y1106D02*
X1145Y1106D01*
X1227Y1106D02*
X1233Y1106D01*
X1275Y1106D02*
X1280Y1106D01*
X1311Y1106D02*
X1339Y1106D01*
X1366Y1106D02*
X1372Y1106D01*
X1458Y1106D02*
X1464Y1106D01*
X1471Y1106D02*
X1477Y1106D01*
X1559Y1106D02*
X1565Y1106D01*
X1736Y1106D02*
X1742Y1106D01*
X1784Y1106D02*
X1789Y1106D01*
X1831Y1106D02*
X1837Y1106D01*
X1857Y1106D02*
X1863Y1106D01*
X1895Y1106D02*
X1903Y1106D01*
X1952Y1106D02*
X1958Y1106D01*
X503Y1105D02*
X517Y1105D01*
X524Y1105D02*
X533Y1105D01*
X563Y1105D02*
X569Y1105D01*
X599Y1105D02*
X609Y1105D01*
X618Y1105D02*
X628Y1105D01*
X658Y1105D02*
X664Y1105D01*
X694Y1105D02*
X702Y1105D01*
X708Y1105D02*
X724Y1105D01*
X756Y1105D02*
X763Y1105D01*
X835Y1105D02*
X841Y1105D01*
X861Y1105D02*
X866Y1105D01*
X884Y1105D02*
X891Y1105D01*
X943Y1105D02*
X948Y1105D01*
X980Y1105D02*
X989Y1105D01*
X997Y1105D02*
X1009Y1105D01*
X1025Y1105D02*
X1033Y1105D01*
X1049Y1105D02*
X1055Y1105D01*
X1085Y1105D02*
X1091Y1105D01*
X1120Y1105D02*
X1127Y1105D01*
X1139Y1105D02*
X1145Y1105D01*
X1227Y1105D02*
X1233Y1105D01*
X1275Y1105D02*
X1280Y1105D01*
X1311Y1105D02*
X1320Y1105D01*
X1330Y1105D02*
X1339Y1105D01*
X1366Y1105D02*
X1373Y1105D01*
X1458Y1105D02*
X1464Y1105D01*
X1471Y1105D02*
X1477Y1105D01*
X1559Y1105D02*
X1565Y1105D01*
X1736Y1105D02*
X1742Y1105D01*
X1784Y1105D02*
X1790Y1105D01*
X1831Y1105D02*
X1837Y1105D01*
X1857Y1105D02*
X1863Y1105D01*
X1894Y1105D02*
X1902Y1105D01*
X1952Y1105D02*
X1958Y1105D01*
X503Y1104D02*
X515Y1104D01*
X526Y1104D02*
X533Y1104D01*
X563Y1104D02*
X569Y1104D01*
X599Y1104D02*
X606Y1104D01*
X621Y1104D02*
X628Y1104D01*
X658Y1104D02*
X664Y1104D01*
X694Y1104D02*
X700Y1104D01*
X710Y1104D02*
X724Y1104D01*
X755Y1104D02*
X763Y1104D01*
X835Y1104D02*
X841Y1104D01*
X861Y1104D02*
X866Y1104D01*
X883Y1104D02*
X890Y1104D01*
X943Y1104D02*
X948Y1104D01*
X979Y1104D02*
X988Y1104D01*
X998Y1104D02*
X1009Y1104D01*
X1026Y1104D02*
X1031Y1104D01*
X1050Y1104D02*
X1055Y1104D01*
X1085Y1104D02*
X1091Y1104D01*
X1120Y1104D02*
X1126Y1104D01*
X1139Y1104D02*
X1145Y1104D01*
X1227Y1104D02*
X1233Y1104D01*
X1275Y1104D02*
X1280Y1104D01*
X1310Y1104D02*
X1318Y1104D01*
X1332Y1104D02*
X1340Y1104D01*
X1367Y1104D02*
X1374Y1104D01*
X1458Y1104D02*
X1464Y1104D01*
X1471Y1104D02*
X1477Y1104D01*
X1559Y1104D02*
X1565Y1104D01*
X1736Y1104D02*
X1742Y1104D01*
X1784Y1104D02*
X1791Y1104D01*
X1831Y1104D02*
X1837Y1104D01*
X1857Y1104D02*
X1863Y1104D01*
X1894Y1104D02*
X1901Y1104D01*
X1952Y1104D02*
X1958Y1104D01*
X503Y1103D02*
X514Y1103D01*
X527Y1103D02*
X534Y1103D01*
X563Y1103D02*
X569Y1103D01*
X598Y1103D02*
X605Y1103D01*
X622Y1103D02*
X629Y1103D01*
X658Y1103D02*
X664Y1103D01*
X693Y1103D02*
X699Y1103D01*
X711Y1103D02*
X724Y1103D01*
X754Y1103D02*
X762Y1103D01*
X835Y1103D02*
X841Y1103D01*
X861Y1103D02*
X866Y1103D01*
X883Y1103D02*
X889Y1103D01*
X943Y1103D02*
X948Y1103D01*
X978Y1103D02*
X986Y1103D01*
X999Y1103D02*
X1009Y1103D01*
X1027Y1103D02*
X1029Y1103D01*
X1050Y1103D02*
X1055Y1103D01*
X1085Y1103D02*
X1091Y1103D01*
X1120Y1103D02*
X1126Y1103D01*
X1139Y1103D02*
X1145Y1103D01*
X1227Y1103D02*
X1233Y1103D01*
X1275Y1103D02*
X1280Y1103D01*
X1310Y1103D02*
X1316Y1103D01*
X1333Y1103D02*
X1340Y1103D01*
X1367Y1103D02*
X1374Y1103D01*
X1406Y1103D02*
X1434Y1103D01*
X1456Y1103D02*
X1479Y1103D01*
X1559Y1103D02*
X1565Y1103D01*
X1643Y1103D02*
X1671Y1103D01*
X1736Y1103D02*
X1763Y1103D01*
X1784Y1103D02*
X1807Y1103D01*
X1831Y1103D02*
X1837Y1103D01*
X1857Y1103D02*
X1863Y1103D01*
X1893Y1103D02*
X1900Y1103D01*
X1941Y1103D02*
X1958Y1103D01*
X503Y1102D02*
X512Y1102D01*
X528Y1102D02*
X534Y1102D01*
X563Y1102D02*
X569Y1102D01*
X598Y1102D02*
X604Y1102D01*
X623Y1102D02*
X629Y1102D01*
X658Y1102D02*
X664Y1102D01*
X693Y1102D02*
X699Y1102D01*
X713Y1102D02*
X724Y1102D01*
X754Y1102D02*
X761Y1102D01*
X835Y1102D02*
X841Y1102D01*
X860Y1102D02*
X866Y1102D01*
X883Y1102D02*
X889Y1102D01*
X943Y1102D02*
X948Y1102D01*
X978Y1102D02*
X985Y1102D01*
X1000Y1102D02*
X1009Y1102D01*
X1049Y1102D02*
X1055Y1102D01*
X1085Y1102D02*
X1091Y1102D01*
X1120Y1102D02*
X1125Y1102D01*
X1139Y1102D02*
X1145Y1102D01*
X1227Y1102D02*
X1233Y1102D01*
X1275Y1102D02*
X1280Y1102D01*
X1309Y1102D02*
X1316Y1102D01*
X1334Y1102D02*
X1341Y1102D01*
X1368Y1102D02*
X1375Y1102D01*
X1405Y1102D02*
X1435Y1102D01*
X1454Y1102D02*
X1480Y1102D01*
X1559Y1102D02*
X1565Y1102D01*
X1642Y1102D02*
X1672Y1102D01*
X1736Y1102D02*
X1765Y1102D01*
X1785Y1102D02*
X1808Y1102D01*
X1831Y1102D02*
X1837Y1102D01*
X1857Y1102D02*
X1863Y1102D01*
X1892Y1102D02*
X1900Y1102D01*
X1940Y1102D02*
X1958Y1102D01*
X503Y1101D02*
X511Y1101D01*
X529Y1101D02*
X534Y1101D01*
X563Y1101D02*
X569Y1101D01*
X598Y1101D02*
X604Y1101D01*
X623Y1101D02*
X629Y1101D01*
X658Y1101D02*
X664Y1101D01*
X693Y1101D02*
X699Y1101D01*
X714Y1101D02*
X724Y1101D01*
X753Y1101D02*
X760Y1101D01*
X835Y1101D02*
X842Y1101D01*
X860Y1101D02*
X866Y1101D01*
X883Y1101D02*
X889Y1101D01*
X943Y1101D02*
X948Y1101D01*
X977Y1101D02*
X984Y1101D01*
X1001Y1101D02*
X1009Y1101D01*
X1047Y1101D02*
X1055Y1101D01*
X1085Y1101D02*
X1091Y1101D01*
X1120Y1101D02*
X1125Y1101D01*
X1139Y1101D02*
X1145Y1101D01*
X1227Y1101D02*
X1233Y1101D01*
X1275Y1101D02*
X1280Y1101D01*
X1309Y1101D02*
X1315Y1101D01*
X1335Y1101D02*
X1341Y1101D01*
X1369Y1101D02*
X1375Y1101D01*
X1404Y1101D02*
X1436Y1101D01*
X1453Y1101D02*
X1482Y1101D01*
X1559Y1101D02*
X1565Y1101D01*
X1641Y1101D02*
X1673Y1101D01*
X1737Y1101D02*
X1766Y1101D01*
X1785Y1101D02*
X1809Y1101D01*
X1831Y1101D02*
X1838Y1101D01*
X1857Y1101D02*
X1863Y1101D01*
X1891Y1101D02*
X1899Y1101D01*
X1939Y1101D02*
X1958Y1101D01*
X503Y1100D02*
X510Y1100D01*
X529Y1100D02*
X534Y1100D01*
X563Y1100D02*
X569Y1100D01*
X598Y1100D02*
X603Y1100D01*
X624Y1100D02*
X629Y1100D01*
X658Y1100D02*
X664Y1100D01*
X693Y1100D02*
X699Y1100D01*
X716Y1100D02*
X724Y1100D01*
X752Y1100D02*
X760Y1100D01*
X836Y1100D02*
X842Y1100D01*
X859Y1100D02*
X866Y1100D01*
X883Y1100D02*
X889Y1100D01*
X943Y1100D02*
X948Y1100D01*
X977Y1100D02*
X983Y1100D01*
X1002Y1100D02*
X1009Y1100D01*
X1045Y1100D02*
X1055Y1100D01*
X1085Y1100D02*
X1091Y1100D01*
X1119Y1100D02*
X1125Y1100D01*
X1139Y1100D02*
X1145Y1100D01*
X1227Y1100D02*
X1233Y1100D01*
X1275Y1100D02*
X1280Y1100D01*
X1309Y1100D02*
X1315Y1100D01*
X1335Y1100D02*
X1341Y1100D01*
X1369Y1100D02*
X1376Y1100D01*
X1404Y1100D02*
X1436Y1100D01*
X1453Y1100D02*
X1482Y1100D01*
X1559Y1100D02*
X1565Y1100D01*
X1641Y1100D02*
X1673Y1100D01*
X1737Y1100D02*
X1767Y1100D01*
X1786Y1100D02*
X1809Y1100D01*
X1832Y1100D02*
X1863Y1100D01*
X1891Y1100D02*
X1898Y1100D01*
X1939Y1100D02*
X1958Y1100D01*
X503Y1099D02*
X509Y1099D01*
X529Y1099D02*
X534Y1099D01*
X563Y1099D02*
X569Y1099D01*
X598Y1099D02*
X603Y1099D01*
X624Y1099D02*
X629Y1099D01*
X658Y1099D02*
X664Y1099D01*
X693Y1099D02*
X699Y1099D01*
X717Y1099D02*
X724Y1099D01*
X751Y1099D02*
X759Y1099D01*
X836Y1099D02*
X842Y1099D01*
X859Y1099D02*
X865Y1099D01*
X883Y1099D02*
X889Y1099D01*
X943Y1099D02*
X948Y1099D01*
X977Y1099D02*
X983Y1099D01*
X1003Y1099D02*
X1009Y1099D01*
X1043Y1099D02*
X1054Y1099D01*
X1085Y1099D02*
X1091Y1099D01*
X1120Y1099D02*
X1125Y1099D01*
X1139Y1099D02*
X1145Y1099D01*
X1227Y1099D02*
X1233Y1099D01*
X1275Y1099D02*
X1280Y1099D01*
X1309Y1099D02*
X1315Y1099D01*
X1335Y1099D02*
X1341Y1099D01*
X1370Y1099D02*
X1376Y1099D01*
X1404Y1099D02*
X1436Y1099D01*
X1452Y1099D02*
X1483Y1099D01*
X1559Y1099D02*
X1565Y1099D01*
X1641Y1099D02*
X1673Y1099D01*
X1738Y1099D02*
X1767Y1099D01*
X1785Y1099D02*
X1809Y1099D01*
X1832Y1099D02*
X1863Y1099D01*
X1890Y1099D02*
X1897Y1099D01*
X1939Y1099D02*
X1958Y1099D01*
X503Y1098D02*
X509Y1098D01*
X529Y1098D02*
X534Y1098D01*
X563Y1098D02*
X569Y1098D01*
X598Y1098D02*
X603Y1098D01*
X624Y1098D02*
X629Y1098D01*
X658Y1098D02*
X664Y1098D01*
X693Y1098D02*
X699Y1098D01*
X718Y1098D02*
X724Y1098D01*
X751Y1098D02*
X758Y1098D01*
X837Y1098D02*
X843Y1098D01*
X858Y1098D02*
X865Y1098D01*
X883Y1098D02*
X889Y1098D01*
X943Y1098D02*
X948Y1098D01*
X977Y1098D02*
X983Y1098D01*
X1003Y1098D02*
X1009Y1098D01*
X1040Y1098D02*
X1053Y1098D01*
X1085Y1098D02*
X1091Y1098D01*
X1120Y1098D02*
X1125Y1098D01*
X1139Y1098D02*
X1145Y1098D01*
X1227Y1098D02*
X1233Y1098D01*
X1275Y1098D02*
X1280Y1098D01*
X1309Y1098D02*
X1315Y1098D01*
X1335Y1098D02*
X1341Y1098D01*
X1370Y1098D02*
X1377Y1098D01*
X1404Y1098D02*
X1436Y1098D01*
X1452Y1098D02*
X1483Y1098D01*
X1559Y1098D02*
X1565Y1098D01*
X1641Y1098D02*
X1673Y1098D01*
X1739Y1098D02*
X1768Y1098D01*
X1785Y1098D02*
X1808Y1098D01*
X1833Y1098D02*
X1863Y1098D01*
X1889Y1098D02*
X1897Y1098D01*
X1940Y1098D02*
X1958Y1098D01*
X503Y1097D02*
X508Y1097D01*
X529Y1097D02*
X534Y1097D01*
X563Y1097D02*
X569Y1097D01*
X598Y1097D02*
X603Y1097D01*
X624Y1097D02*
X629Y1097D01*
X658Y1097D02*
X664Y1097D01*
X693Y1097D02*
X699Y1097D01*
X719Y1097D02*
X724Y1097D01*
X750Y1097D02*
X757Y1097D01*
X837Y1097D02*
X843Y1097D01*
X858Y1097D02*
X864Y1097D01*
X883Y1097D02*
X908Y1097D01*
X943Y1097D02*
X948Y1097D01*
X977Y1097D02*
X983Y1097D01*
X1003Y1097D02*
X1009Y1097D01*
X1038Y1097D02*
X1053Y1097D01*
X1085Y1097D02*
X1091Y1097D01*
X1120Y1097D02*
X1126Y1097D01*
X1139Y1097D02*
X1145Y1097D01*
X1227Y1097D02*
X1233Y1097D01*
X1275Y1097D02*
X1280Y1097D01*
X1309Y1097D02*
X1315Y1097D01*
X1335Y1097D02*
X1341Y1097D01*
X1371Y1097D02*
X1378Y1097D01*
X1404Y1097D02*
X1436Y1097D01*
X1452Y1097D02*
X1483Y1097D01*
X1507Y1097D02*
X1523Y1097D01*
X1548Y1097D02*
X1551Y1097D01*
X1559Y1097D02*
X1565Y1097D01*
X1641Y1097D02*
X1673Y1097D01*
X1741Y1097D02*
X1768Y1097D01*
X1784Y1097D02*
X1807Y1097D01*
X1834Y1097D02*
X1863Y1097D01*
X1888Y1097D02*
X1896Y1097D01*
X1941Y1097D02*
X1958Y1097D01*
X503Y1096D02*
X508Y1096D01*
X529Y1096D02*
X534Y1096D01*
X563Y1096D02*
X569Y1096D01*
X598Y1096D02*
X603Y1096D01*
X624Y1096D02*
X629Y1096D01*
X658Y1096D02*
X664Y1096D01*
X693Y1096D02*
X699Y1096D01*
X719Y1096D02*
X724Y1096D01*
X749Y1096D02*
X756Y1096D01*
X838Y1096D02*
X844Y1096D01*
X858Y1096D02*
X864Y1096D01*
X883Y1096D02*
X910Y1096D01*
X943Y1096D02*
X948Y1096D01*
X977Y1096D02*
X983Y1096D01*
X1003Y1096D02*
X1009Y1096D01*
X1036Y1096D02*
X1051Y1096D01*
X1085Y1096D02*
X1091Y1096D01*
X1120Y1096D02*
X1126Y1096D01*
X1139Y1096D02*
X1145Y1096D01*
X1227Y1096D02*
X1233Y1096D01*
X1275Y1096D02*
X1280Y1096D01*
X1309Y1096D02*
X1315Y1096D01*
X1335Y1096D02*
X1341Y1096D01*
X1371Y1096D02*
X1378Y1096D01*
X1404Y1096D02*
X1435Y1096D01*
X1451Y1096D02*
X1457Y1096D01*
X1478Y1096D02*
X1483Y1096D01*
X1506Y1096D02*
X1524Y1096D01*
X1547Y1096D02*
X1552Y1096D01*
X1559Y1096D02*
X1565Y1096D01*
X1642Y1096D02*
X1673Y1096D01*
X1762Y1096D02*
X1768Y1096D01*
X1784Y1096D02*
X1791Y1096D01*
X1835Y1096D02*
X1863Y1096D01*
X1887Y1096D02*
X1895Y1096D01*
X1952Y1096D02*
X1958Y1096D01*
X503Y1095D02*
X508Y1095D01*
X529Y1095D02*
X534Y1095D01*
X563Y1095D02*
X569Y1095D01*
X598Y1095D02*
X629Y1095D01*
X658Y1095D02*
X664Y1095D01*
X693Y1095D02*
X699Y1095D01*
X719Y1095D02*
X724Y1095D01*
X748Y1095D02*
X756Y1095D01*
X838Y1095D02*
X844Y1095D01*
X857Y1095D02*
X863Y1095D01*
X883Y1095D02*
X911Y1095D01*
X943Y1095D02*
X948Y1095D01*
X977Y1095D02*
X983Y1095D01*
X1003Y1095D02*
X1009Y1095D01*
X1034Y1095D02*
X1049Y1095D01*
X1085Y1095D02*
X1091Y1095D01*
X1120Y1095D02*
X1127Y1095D01*
X1139Y1095D02*
X1145Y1095D01*
X1227Y1095D02*
X1233Y1095D01*
X1275Y1095D02*
X1280Y1095D01*
X1309Y1095D02*
X1315Y1095D01*
X1335Y1095D02*
X1341Y1095D01*
X1372Y1095D02*
X1379Y1095D01*
X1405Y1095D02*
X1435Y1095D01*
X1451Y1095D02*
X1457Y1095D01*
X1478Y1095D02*
X1483Y1095D01*
X1506Y1095D02*
X1524Y1095D01*
X1546Y1095D02*
X1552Y1095D01*
X1559Y1095D02*
X1565Y1095D01*
X1642Y1095D02*
X1672Y1095D01*
X1762Y1095D02*
X1768Y1095D01*
X1784Y1095D02*
X1790Y1095D01*
X1837Y1095D02*
X1863Y1095D01*
X1887Y1095D02*
X1894Y1095D01*
X1952Y1095D02*
X1958Y1095D01*
X503Y1094D02*
X508Y1094D01*
X529Y1094D02*
X534Y1094D01*
X563Y1094D02*
X569Y1094D01*
X598Y1094D02*
X629Y1094D01*
X658Y1094D02*
X664Y1094D01*
X693Y1094D02*
X699Y1094D01*
X719Y1094D02*
X724Y1094D01*
X747Y1094D02*
X755Y1094D01*
X838Y1094D02*
X845Y1094D01*
X857Y1094D02*
X863Y1094D01*
X883Y1094D02*
X912Y1094D01*
X943Y1094D02*
X948Y1094D01*
X977Y1094D02*
X983Y1094D01*
X1003Y1094D02*
X1009Y1094D01*
X1031Y1094D02*
X1047Y1094D01*
X1085Y1094D02*
X1091Y1094D01*
X1121Y1094D02*
X1127Y1094D01*
X1139Y1094D02*
X1145Y1094D01*
X1227Y1094D02*
X1233Y1094D01*
X1275Y1094D02*
X1280Y1094D01*
X1309Y1094D02*
X1315Y1094D01*
X1335Y1094D02*
X1341Y1094D01*
X1373Y1094D02*
X1379Y1094D01*
X1407Y1094D02*
X1433Y1094D01*
X1451Y1094D02*
X1457Y1094D01*
X1478Y1094D02*
X1483Y1094D01*
X1505Y1094D02*
X1524Y1094D01*
X1546Y1094D02*
X1552Y1094D01*
X1559Y1094D02*
X1565Y1094D01*
X1644Y1094D02*
X1670Y1094D01*
X1762Y1094D02*
X1768Y1094D01*
X1784Y1094D02*
X1789Y1094D01*
X1840Y1094D02*
X1863Y1094D01*
X1886Y1094D02*
X1893Y1094D01*
X1952Y1094D02*
X1958Y1094D01*
X503Y1093D02*
X508Y1093D01*
X529Y1093D02*
X534Y1093D01*
X563Y1093D02*
X569Y1093D01*
X598Y1093D02*
X629Y1093D01*
X658Y1093D02*
X664Y1093D01*
X693Y1093D02*
X699Y1093D01*
X719Y1093D02*
X724Y1093D01*
X747Y1093D02*
X754Y1093D01*
X839Y1093D02*
X845Y1093D01*
X856Y1093D02*
X862Y1093D01*
X883Y1093D02*
X913Y1093D01*
X943Y1093D02*
X948Y1093D01*
X977Y1093D02*
X983Y1093D01*
X1003Y1093D02*
X1009Y1093D01*
X1029Y1093D02*
X1044Y1093D01*
X1085Y1093D02*
X1091Y1093D01*
X1121Y1093D02*
X1128Y1093D01*
X1139Y1093D02*
X1145Y1093D01*
X1227Y1093D02*
X1233Y1093D01*
X1275Y1093D02*
X1280Y1093D01*
X1309Y1093D02*
X1315Y1093D01*
X1335Y1093D02*
X1341Y1093D01*
X1373Y1093D02*
X1380Y1093D01*
X1451Y1093D02*
X1457Y1093D01*
X1478Y1093D02*
X1483Y1093D01*
X1505Y1093D02*
X1524Y1093D01*
X1546Y1093D02*
X1552Y1093D01*
X1559Y1093D02*
X1565Y1093D01*
X1762Y1093D02*
X1768Y1093D01*
X1784Y1093D02*
X1789Y1093D01*
X1857Y1093D02*
X1863Y1093D01*
X1885Y1093D02*
X1893Y1093D01*
X1952Y1093D02*
X1958Y1093D01*
X503Y1092D02*
X508Y1092D01*
X529Y1092D02*
X534Y1092D01*
X563Y1092D02*
X569Y1092D01*
X598Y1092D02*
X629Y1092D01*
X658Y1092D02*
X664Y1092D01*
X693Y1092D02*
X699Y1092D01*
X719Y1092D02*
X724Y1092D01*
X746Y1092D02*
X753Y1092D01*
X839Y1092D02*
X846Y1092D01*
X856Y1092D02*
X862Y1092D01*
X883Y1092D02*
X913Y1092D01*
X943Y1092D02*
X948Y1092D01*
X977Y1092D02*
X983Y1092D01*
X1003Y1092D02*
X1009Y1092D01*
X1028Y1092D02*
X1042Y1092D01*
X1085Y1092D02*
X1091Y1092D01*
X1122Y1092D02*
X1128Y1092D01*
X1139Y1092D02*
X1145Y1092D01*
X1227Y1092D02*
X1233Y1092D01*
X1275Y1092D02*
X1280Y1092D01*
X1309Y1092D02*
X1315Y1092D01*
X1335Y1092D02*
X1341Y1092D01*
X1374Y1092D02*
X1381Y1092D01*
X1451Y1092D02*
X1457Y1092D01*
X1478Y1092D02*
X1483Y1092D01*
X1505Y1092D02*
X1523Y1092D01*
X1546Y1092D02*
X1552Y1092D01*
X1559Y1092D02*
X1565Y1092D01*
X1762Y1092D02*
X1768Y1092D01*
X1784Y1092D02*
X1789Y1092D01*
X1857Y1092D02*
X1863Y1092D01*
X1884Y1092D02*
X1892Y1092D01*
X1952Y1092D02*
X1958Y1092D01*
X503Y1091D02*
X508Y1091D01*
X529Y1091D02*
X534Y1091D01*
X563Y1091D02*
X569Y1091D01*
X598Y1091D02*
X629Y1091D01*
X658Y1091D02*
X664Y1091D01*
X693Y1091D02*
X699Y1091D01*
X719Y1091D02*
X724Y1091D01*
X745Y1091D02*
X753Y1091D01*
X840Y1091D02*
X846Y1091D01*
X855Y1091D02*
X862Y1091D01*
X883Y1091D02*
X891Y1091D01*
X906Y1091D02*
X913Y1091D01*
X943Y1091D02*
X948Y1091D01*
X977Y1091D02*
X983Y1091D01*
X1003Y1091D02*
X1009Y1091D01*
X1027Y1091D02*
X1040Y1091D01*
X1085Y1091D02*
X1091Y1091D01*
X1122Y1091D02*
X1129Y1091D01*
X1139Y1091D02*
X1145Y1091D01*
X1227Y1091D02*
X1233Y1091D01*
X1275Y1091D02*
X1280Y1091D01*
X1309Y1091D02*
X1315Y1091D01*
X1335Y1091D02*
X1341Y1091D01*
X1374Y1091D02*
X1381Y1091D01*
X1451Y1091D02*
X1457Y1091D01*
X1478Y1091D02*
X1483Y1091D01*
X1505Y1091D02*
X1511Y1091D01*
X1546Y1091D02*
X1552Y1091D01*
X1559Y1091D02*
X1565Y1091D01*
X1762Y1091D02*
X1768Y1091D01*
X1784Y1091D02*
X1789Y1091D01*
X1857Y1091D02*
X1863Y1091D01*
X1884Y1091D02*
X1891Y1091D01*
X1952Y1091D02*
X1958Y1091D01*
X503Y1090D02*
X508Y1090D01*
X529Y1090D02*
X534Y1090D01*
X563Y1090D02*
X569Y1090D01*
X598Y1090D02*
X629Y1090D01*
X658Y1090D02*
X664Y1090D01*
X693Y1090D02*
X699Y1090D01*
X719Y1090D02*
X724Y1090D01*
X744Y1090D02*
X752Y1090D01*
X840Y1090D02*
X846Y1090D01*
X855Y1090D02*
X861Y1090D01*
X883Y1090D02*
X889Y1090D01*
X907Y1090D02*
X914Y1090D01*
X943Y1090D02*
X948Y1090D01*
X977Y1090D02*
X983Y1090D01*
X1003Y1090D02*
X1009Y1090D01*
X1026Y1090D02*
X1038Y1090D01*
X1085Y1090D02*
X1091Y1090D01*
X1123Y1090D02*
X1129Y1090D01*
X1139Y1090D02*
X1145Y1090D01*
X1227Y1090D02*
X1233Y1090D01*
X1275Y1090D02*
X1280Y1090D01*
X1309Y1090D02*
X1315Y1090D01*
X1335Y1090D02*
X1341Y1090D01*
X1375Y1090D02*
X1382Y1090D01*
X1451Y1090D02*
X1457Y1090D01*
X1478Y1090D02*
X1483Y1090D01*
X1505Y1090D02*
X1511Y1090D01*
X1546Y1090D02*
X1552Y1090D01*
X1559Y1090D02*
X1565Y1090D01*
X1762Y1090D02*
X1768Y1090D01*
X1784Y1090D02*
X1789Y1090D01*
X1857Y1090D02*
X1863Y1090D01*
X1883Y1090D02*
X1890Y1090D01*
X1952Y1090D02*
X1958Y1090D01*
X503Y1089D02*
X508Y1089D01*
X529Y1089D02*
X534Y1089D01*
X563Y1089D02*
X569Y1089D01*
X599Y1089D02*
X629Y1089D01*
X658Y1089D02*
X664Y1089D01*
X693Y1089D02*
X699Y1089D01*
X719Y1089D02*
X724Y1089D01*
X744Y1089D02*
X751Y1089D01*
X841Y1089D02*
X847Y1089D01*
X855Y1089D02*
X861Y1089D01*
X883Y1089D02*
X888Y1089D01*
X908Y1089D02*
X914Y1089D01*
X943Y1089D02*
X948Y1089D01*
X977Y1089D02*
X983Y1089D01*
X1003Y1089D02*
X1009Y1089D01*
X1026Y1089D02*
X1035Y1089D01*
X1085Y1089D02*
X1091Y1089D01*
X1123Y1089D02*
X1130Y1089D01*
X1139Y1089D02*
X1145Y1089D01*
X1227Y1089D02*
X1233Y1089D01*
X1275Y1089D02*
X1280Y1089D01*
X1309Y1089D02*
X1315Y1089D01*
X1335Y1089D02*
X1341Y1089D01*
X1376Y1089D02*
X1382Y1089D01*
X1451Y1089D02*
X1457Y1089D01*
X1478Y1089D02*
X1483Y1089D01*
X1505Y1089D02*
X1511Y1089D01*
X1546Y1089D02*
X1552Y1089D01*
X1559Y1089D02*
X1565Y1089D01*
X1762Y1089D02*
X1768Y1089D01*
X1784Y1089D02*
X1789Y1089D01*
X1857Y1089D02*
X1863Y1089D01*
X1882Y1089D02*
X1890Y1089D01*
X1952Y1089D02*
X1958Y1089D01*
X503Y1088D02*
X509Y1088D01*
X529Y1088D02*
X534Y1088D01*
X563Y1088D02*
X569Y1088D01*
X624Y1088D02*
X629Y1088D01*
X658Y1088D02*
X664Y1088D01*
X693Y1088D02*
X698Y1088D01*
X719Y1088D02*
X724Y1088D01*
X743Y1088D02*
X750Y1088D01*
X841Y1088D02*
X847Y1088D01*
X854Y1088D02*
X860Y1088D01*
X883Y1088D02*
X888Y1088D01*
X908Y1088D02*
X914Y1088D01*
X943Y1088D02*
X948Y1088D01*
X977Y1088D02*
X983Y1088D01*
X1003Y1088D02*
X1009Y1088D01*
X1025Y1088D02*
X1033Y1088D01*
X1085Y1088D02*
X1091Y1088D01*
X1124Y1088D02*
X1130Y1088D01*
X1139Y1088D02*
X1145Y1088D01*
X1227Y1088D02*
X1233Y1088D01*
X1275Y1088D02*
X1280Y1088D01*
X1309Y1088D02*
X1315Y1088D01*
X1335Y1088D02*
X1341Y1088D01*
X1376Y1088D02*
X1383Y1088D01*
X1451Y1088D02*
X1457Y1088D01*
X1478Y1088D02*
X1483Y1088D01*
X1505Y1088D02*
X1511Y1088D01*
X1546Y1088D02*
X1552Y1088D01*
X1559Y1088D02*
X1565Y1088D01*
X1762Y1088D02*
X1768Y1088D01*
X1784Y1088D02*
X1789Y1088D01*
X1857Y1088D02*
X1863Y1088D01*
X1881Y1088D02*
X1889Y1088D01*
X1952Y1088D02*
X1958Y1088D01*
X503Y1087D02*
X509Y1087D01*
X529Y1087D02*
X534Y1087D01*
X563Y1087D02*
X569Y1087D01*
X624Y1087D02*
X629Y1087D01*
X658Y1087D02*
X664Y1087D01*
X693Y1087D02*
X698Y1087D01*
X719Y1087D02*
X724Y1087D01*
X742Y1087D02*
X749Y1087D01*
X841Y1087D02*
X848Y1087D01*
X854Y1087D02*
X860Y1087D01*
X883Y1087D02*
X888Y1087D01*
X908Y1087D02*
X914Y1087D01*
X943Y1087D02*
X948Y1087D01*
X977Y1087D02*
X983Y1087D01*
X1003Y1087D02*
X1009Y1087D01*
X1025Y1087D02*
X1031Y1087D01*
X1085Y1087D02*
X1091Y1087D01*
X1124Y1087D02*
X1131Y1087D01*
X1139Y1087D02*
X1145Y1087D01*
X1227Y1087D02*
X1233Y1087D01*
X1275Y1087D02*
X1280Y1087D01*
X1309Y1087D02*
X1315Y1087D01*
X1335Y1087D02*
X1341Y1087D01*
X1377Y1087D02*
X1383Y1087D01*
X1451Y1087D02*
X1457Y1087D01*
X1478Y1087D02*
X1483Y1087D01*
X1505Y1087D02*
X1511Y1087D01*
X1546Y1087D02*
X1552Y1087D01*
X1559Y1087D02*
X1565Y1087D01*
X1762Y1087D02*
X1768Y1087D01*
X1784Y1087D02*
X1789Y1087D01*
X1857Y1087D02*
X1863Y1087D01*
X1880Y1087D02*
X1888Y1087D01*
X1952Y1087D02*
X1958Y1087D01*
X503Y1086D02*
X510Y1086D01*
X529Y1086D02*
X534Y1086D01*
X563Y1086D02*
X569Y1086D01*
X624Y1086D02*
X629Y1086D01*
X658Y1086D02*
X664Y1086D01*
X693Y1086D02*
X698Y1086D01*
X719Y1086D02*
X724Y1086D01*
X741Y1086D02*
X749Y1086D01*
X767Y1086D02*
X770Y1086D01*
X842Y1086D02*
X848Y1086D01*
X853Y1086D02*
X859Y1086D01*
X883Y1086D02*
X888Y1086D01*
X908Y1086D02*
X914Y1086D01*
X943Y1086D02*
X948Y1086D01*
X977Y1086D02*
X983Y1086D01*
X1002Y1086D02*
X1009Y1086D01*
X1025Y1086D02*
X1031Y1086D01*
X1085Y1086D02*
X1091Y1086D01*
X1125Y1086D02*
X1131Y1086D01*
X1139Y1086D02*
X1145Y1086D01*
X1227Y1086D02*
X1233Y1086D01*
X1275Y1086D02*
X1280Y1086D01*
X1309Y1086D02*
X1315Y1086D01*
X1335Y1086D02*
X1341Y1086D01*
X1377Y1086D02*
X1384Y1086D01*
X1451Y1086D02*
X1457Y1086D01*
X1478Y1086D02*
X1483Y1086D01*
X1505Y1086D02*
X1511Y1086D01*
X1546Y1086D02*
X1552Y1086D01*
X1559Y1086D02*
X1565Y1086D01*
X1762Y1086D02*
X1768Y1086D01*
X1784Y1086D02*
X1789Y1086D01*
X1857Y1086D02*
X1863Y1086D01*
X1880Y1086D02*
X1887Y1086D01*
X1906Y1086D02*
X1909Y1086D01*
X1952Y1086D02*
X1958Y1086D01*
X503Y1085D02*
X512Y1085D01*
X528Y1085D02*
X534Y1085D01*
X563Y1085D02*
X569Y1085D01*
X623Y1085D02*
X629Y1085D01*
X658Y1085D02*
X664Y1085D01*
X693Y1085D02*
X698Y1085D01*
X719Y1085D02*
X724Y1085D01*
X741Y1085D02*
X748Y1085D01*
X767Y1085D02*
X771Y1085D01*
X842Y1085D02*
X849Y1085D01*
X853Y1085D02*
X859Y1085D01*
X882Y1085D02*
X889Y1085D01*
X908Y1085D02*
X914Y1085D01*
X943Y1085D02*
X948Y1085D01*
X978Y1085D02*
X984Y1085D01*
X1001Y1085D02*
X1009Y1085D01*
X1025Y1085D02*
X1030Y1085D01*
X1085Y1085D02*
X1091Y1085D01*
X1125Y1085D02*
X1132Y1085D01*
X1139Y1085D02*
X1145Y1085D01*
X1227Y1085D02*
X1233Y1085D01*
X1275Y1085D02*
X1280Y1085D01*
X1309Y1085D02*
X1315Y1085D01*
X1335Y1085D02*
X1341Y1085D01*
X1378Y1085D02*
X1385Y1085D01*
X1451Y1085D02*
X1457Y1085D01*
X1478Y1085D02*
X1483Y1085D01*
X1505Y1085D02*
X1511Y1085D01*
X1546Y1085D02*
X1552Y1085D01*
X1559Y1085D02*
X1565Y1085D01*
X1762Y1085D02*
X1768Y1085D01*
X1784Y1085D02*
X1789Y1085D01*
X1857Y1085D02*
X1863Y1085D01*
X1879Y1085D02*
X1886Y1085D01*
X1905Y1085D02*
X1910Y1085D01*
X1952Y1085D02*
X1958Y1085D01*
X503Y1084D02*
X513Y1084D01*
X528Y1084D02*
X534Y1084D01*
X563Y1084D02*
X569Y1084D01*
X623Y1084D02*
X629Y1084D01*
X658Y1084D02*
X664Y1084D01*
X693Y1084D02*
X698Y1084D01*
X719Y1084D02*
X724Y1084D01*
X740Y1084D02*
X747Y1084D01*
X766Y1084D02*
X771Y1084D01*
X843Y1084D02*
X849Y1084D01*
X852Y1084D02*
X859Y1084D01*
X882Y1084D02*
X890Y1084D01*
X908Y1084D02*
X914Y1084D01*
X943Y1084D02*
X948Y1084D01*
X978Y1084D02*
X985Y1084D01*
X1000Y1084D02*
X1009Y1084D01*
X1025Y1084D02*
X1030Y1084D01*
X1085Y1084D02*
X1091Y1084D01*
X1126Y1084D02*
X1132Y1084D01*
X1139Y1084D02*
X1145Y1084D01*
X1227Y1084D02*
X1233Y1084D01*
X1275Y1084D02*
X1280Y1084D01*
X1309Y1084D02*
X1316Y1084D01*
X1334Y1084D02*
X1341Y1084D01*
X1379Y1084D02*
X1385Y1084D01*
X1451Y1084D02*
X1457Y1084D01*
X1478Y1084D02*
X1483Y1084D01*
X1505Y1084D02*
X1511Y1084D01*
X1546Y1084D02*
X1552Y1084D01*
X1559Y1084D02*
X1565Y1084D01*
X1762Y1084D02*
X1768Y1084D01*
X1784Y1084D02*
X1789Y1084D01*
X1857Y1084D02*
X1863Y1084D01*
X1879Y1084D02*
X1886Y1084D01*
X1905Y1084D02*
X1910Y1084D01*
X1952Y1084D02*
X1958Y1084D01*
X503Y1083D02*
X514Y1083D01*
X527Y1083D02*
X534Y1083D01*
X563Y1083D02*
X569Y1083D01*
X622Y1083D02*
X629Y1083D01*
X658Y1083D02*
X664Y1083D01*
X693Y1083D02*
X698Y1083D01*
X719Y1083D02*
X724Y1083D01*
X740Y1083D02*
X746Y1083D01*
X766Y1083D02*
X772Y1083D01*
X843Y1083D02*
X858Y1083D01*
X882Y1083D02*
X892Y1083D01*
X908Y1083D02*
X914Y1083D01*
X943Y1083D02*
X948Y1083D01*
X978Y1083D02*
X987Y1083D01*
X999Y1083D02*
X1009Y1083D01*
X1025Y1083D02*
X1031Y1083D01*
X1052Y1083D02*
X1055Y1083D01*
X1085Y1083D02*
X1091Y1083D01*
X1126Y1083D02*
X1133Y1083D01*
X1139Y1083D02*
X1145Y1083D01*
X1227Y1083D02*
X1233Y1083D01*
X1275Y1083D02*
X1280Y1083D01*
X1310Y1083D02*
X1317Y1083D01*
X1333Y1083D02*
X1340Y1083D01*
X1379Y1083D02*
X1386Y1083D01*
X1451Y1083D02*
X1457Y1083D01*
X1478Y1083D02*
X1483Y1083D01*
X1505Y1083D02*
X1511Y1083D01*
X1546Y1083D02*
X1552Y1083D01*
X1559Y1083D02*
X1565Y1083D01*
X1762Y1083D02*
X1768Y1083D01*
X1784Y1083D02*
X1789Y1083D01*
X1857Y1083D02*
X1863Y1083D01*
X1879Y1083D02*
X1885Y1083D01*
X1904Y1083D02*
X1910Y1083D01*
X1952Y1083D02*
X1958Y1083D01*
X503Y1082D02*
X515Y1082D01*
X525Y1082D02*
X533Y1082D01*
X563Y1082D02*
X569Y1082D01*
X620Y1082D02*
X628Y1082D01*
X658Y1082D02*
X664Y1082D01*
X693Y1082D02*
X698Y1082D01*
X719Y1082D02*
X724Y1082D01*
X740Y1082D02*
X746Y1082D01*
X765Y1082D02*
X771Y1082D01*
X844Y1082D02*
X858Y1082D01*
X882Y1082D02*
X894Y1082D01*
X907Y1082D02*
X914Y1082D01*
X943Y1082D02*
X948Y1082D01*
X979Y1082D02*
X988Y1082D01*
X998Y1082D02*
X1009Y1082D01*
X1025Y1082D02*
X1031Y1082D01*
X1050Y1082D02*
X1056Y1082D01*
X1085Y1082D02*
X1091Y1082D01*
X1127Y1082D02*
X1134Y1082D01*
X1139Y1082D02*
X1145Y1082D01*
X1227Y1082D02*
X1233Y1082D01*
X1275Y1082D02*
X1280Y1082D01*
X1310Y1082D02*
X1318Y1082D01*
X1332Y1082D02*
X1340Y1082D01*
X1380Y1082D02*
X1386Y1082D01*
X1451Y1082D02*
X1457Y1082D01*
X1478Y1082D02*
X1483Y1082D01*
X1505Y1082D02*
X1511Y1082D01*
X1546Y1082D02*
X1552Y1082D01*
X1559Y1082D02*
X1565Y1082D01*
X1762Y1082D02*
X1768Y1082D01*
X1784Y1082D02*
X1789Y1082D01*
X1857Y1082D02*
X1863Y1082D01*
X1879Y1082D02*
X1884Y1082D01*
X1904Y1082D02*
X1910Y1082D01*
X1952Y1082D02*
X1958Y1082D01*
X503Y1081D02*
X533Y1081D01*
X556Y1081D02*
X576Y1081D01*
X601Y1081D02*
X628Y1081D01*
X651Y1081D02*
X671Y1081D01*
X693Y1081D02*
X698Y1081D01*
X719Y1081D02*
X724Y1081D01*
X740Y1081D02*
X771Y1081D01*
X844Y1081D02*
X857Y1081D01*
X882Y1081D02*
X913Y1081D01*
X936Y1081D02*
X955Y1081D01*
X980Y1081D02*
X989Y1081D01*
X997Y1081D02*
X1009Y1081D01*
X1025Y1081D02*
X1056Y1081D01*
X1078Y1081D02*
X1098Y1081D01*
X1127Y1081D02*
X1148Y1081D01*
X1220Y1081D02*
X1240Y1081D01*
X1268Y1081D02*
X1287Y1081D01*
X1311Y1081D02*
X1339Y1081D01*
X1360Y1081D02*
X1387Y1081D01*
X1452Y1081D02*
X1483Y1081D01*
X1505Y1081D02*
X1511Y1081D01*
X1546Y1081D02*
X1575Y1081D01*
X1739Y1081D02*
X1768Y1081D01*
X1784Y1081D02*
X1812Y1081D01*
X1857Y1081D02*
X1863Y1081D01*
X1879Y1081D02*
X1910Y1081D01*
X1929Y1081D02*
X1958Y1081D01*
X503Y1080D02*
X532Y1080D01*
X554Y1080D02*
X578Y1080D01*
X599Y1080D02*
X627Y1080D01*
X649Y1080D02*
X673Y1080D01*
X693Y1080D02*
X698Y1080D01*
X719Y1080D02*
X724Y1080D01*
X740Y1080D02*
X771Y1080D01*
X845Y1080D02*
X857Y1080D01*
X882Y1080D02*
X913Y1080D01*
X934Y1080D02*
X957Y1080D01*
X981Y1080D02*
X990Y1080D01*
X995Y1080D02*
X1009Y1080D01*
X1026Y1080D02*
X1056Y1080D01*
X1076Y1080D02*
X1099Y1080D01*
X1128Y1080D02*
X1150Y1080D01*
X1219Y1080D02*
X1242Y1080D01*
X1266Y1080D02*
X1289Y1080D01*
X1312Y1080D02*
X1339Y1080D01*
X1358Y1080D02*
X1388Y1080D01*
X1452Y1080D02*
X1483Y1080D01*
X1505Y1080D02*
X1511Y1080D01*
X1546Y1080D02*
X1577Y1080D01*
X1737Y1080D02*
X1768Y1080D01*
X1784Y1080D02*
X1814Y1080D01*
X1857Y1080D02*
X1863Y1080D01*
X1879Y1080D02*
X1909Y1080D01*
X1927Y1080D02*
X1958Y1080D01*
X503Y1079D02*
X531Y1079D01*
X554Y1079D02*
X578Y1079D01*
X598Y1079D02*
X626Y1079D01*
X649Y1079D02*
X673Y1079D01*
X693Y1079D02*
X698Y1079D01*
X719Y1079D02*
X724Y1079D01*
X741Y1079D02*
X770Y1079D01*
X845Y1079D02*
X856Y1079D01*
X882Y1079D02*
X912Y1079D01*
X933Y1079D02*
X958Y1079D01*
X982Y1079D02*
X1009Y1079D01*
X1026Y1079D02*
X1056Y1079D01*
X1076Y1079D02*
X1100Y1079D01*
X1128Y1079D02*
X1151Y1079D01*
X1218Y1079D02*
X1242Y1079D01*
X1265Y1079D02*
X1290Y1079D01*
X1313Y1079D02*
X1338Y1079D01*
X1357Y1079D02*
X1388Y1079D01*
X1452Y1079D02*
X1483Y1079D01*
X1505Y1079D02*
X1511Y1079D01*
X1546Y1079D02*
X1578Y1079D01*
X1736Y1079D02*
X1768Y1079D01*
X1784Y1079D02*
X1815Y1079D01*
X1857Y1079D02*
X1863Y1079D01*
X1879Y1079D02*
X1909Y1079D01*
X1926Y1079D02*
X1958Y1079D01*
X503Y1078D02*
X508Y1078D01*
X510Y1078D02*
X530Y1078D01*
X554Y1078D02*
X579Y1078D01*
X598Y1078D02*
X625Y1078D01*
X648Y1078D02*
X673Y1078D01*
X693Y1078D02*
X698Y1078D01*
X719Y1078D02*
X724Y1078D01*
X741Y1078D02*
X770Y1078D01*
X845Y1078D02*
X856Y1078D01*
X882Y1078D02*
X912Y1078D01*
X933Y1078D02*
X958Y1078D01*
X983Y1078D02*
X1009Y1078D01*
X1027Y1078D02*
X1055Y1078D01*
X1075Y1078D02*
X1100Y1078D01*
X1129Y1078D02*
X1151Y1078D01*
X1218Y1078D02*
X1243Y1078D01*
X1265Y1078D02*
X1290Y1078D01*
X1314Y1078D02*
X1336Y1078D01*
X1357Y1078D02*
X1388Y1078D01*
X1452Y1078D02*
X1482Y1078D01*
X1505Y1078D02*
X1511Y1078D01*
X1546Y1078D02*
X1578Y1078D01*
X1736Y1078D02*
X1768Y1078D01*
X1784Y1078D02*
X1815Y1078D01*
X1857Y1078D02*
X1863Y1078D01*
X1880Y1078D02*
X1908Y1078D01*
X1926Y1078D02*
X1958Y1078D01*
X503Y1077D02*
X508Y1077D01*
X511Y1077D02*
X529Y1077D01*
X554Y1077D02*
X578Y1077D01*
X598Y1077D02*
X624Y1077D01*
X648Y1077D02*
X673Y1077D01*
X693Y1077D02*
X698Y1077D01*
X719Y1077D02*
X724Y1077D01*
X742Y1077D02*
X769Y1077D01*
X846Y1077D02*
X852Y1077D01*
X882Y1077D02*
X888Y1077D01*
X890Y1077D02*
X911Y1077D01*
X933Y1077D02*
X958Y1077D01*
X984Y1077D02*
X1001Y1077D01*
X1003Y1077D02*
X1009Y1077D01*
X1028Y1077D02*
X1054Y1077D01*
X1075Y1077D02*
X1100Y1077D01*
X1130Y1077D02*
X1151Y1077D01*
X1218Y1077D02*
X1243Y1077D01*
X1265Y1077D02*
X1290Y1077D01*
X1315Y1077D02*
X1335Y1077D01*
X1357Y1077D02*
X1388Y1077D01*
X1453Y1077D02*
X1482Y1077D01*
X1506Y1077D02*
X1511Y1077D01*
X1547Y1077D02*
X1578Y1077D01*
X1736Y1077D02*
X1768Y1077D01*
X1785Y1077D02*
X1815Y1077D01*
X1857Y1077D02*
X1863Y1077D01*
X1880Y1077D02*
X1907Y1077D01*
X1926Y1077D02*
X1958Y1077D01*
X503Y1076D02*
X508Y1076D01*
X513Y1076D02*
X528Y1076D01*
X554Y1076D02*
X578Y1076D01*
X598Y1076D02*
X622Y1076D01*
X649Y1076D02*
X673Y1076D01*
X693Y1076D02*
X698Y1076D01*
X719Y1076D02*
X724Y1076D01*
X743Y1076D02*
X768Y1076D01*
X846Y1076D02*
X853Y1076D01*
X883Y1076D02*
X887Y1076D01*
X892Y1076D02*
X909Y1076D01*
X934Y1076D02*
X958Y1076D01*
X986Y1076D02*
X1000Y1076D01*
X1003Y1076D02*
X1009Y1076D01*
X1029Y1076D02*
X1052Y1076D01*
X1076Y1076D02*
X1100Y1076D01*
X1131Y1076D02*
X1151Y1076D01*
X1218Y1076D02*
X1242Y1076D01*
X1266Y1076D02*
X1290Y1076D01*
X1316Y1076D02*
X1334Y1076D01*
X1357Y1076D02*
X1388Y1076D01*
X1454Y1076D02*
X1481Y1076D01*
X1506Y1076D02*
X1510Y1076D01*
X1547Y1076D02*
X1577Y1076D01*
X1737Y1076D02*
X1768Y1076D01*
X1786Y1076D02*
X1815Y1076D01*
X1858Y1076D02*
X1862Y1076D01*
X1881Y1076D02*
X1906Y1076D01*
X1926Y1076D02*
X1958Y1076D01*
X504Y1075D02*
X507Y1075D01*
X515Y1075D02*
X525Y1075D01*
X555Y1075D02*
X577Y1075D01*
X599Y1075D02*
X620Y1075D01*
X650Y1075D02*
X672Y1075D01*
X694Y1075D02*
X697Y1075D01*
X720Y1075D02*
X723Y1075D01*
X745Y1075D02*
X766Y1075D01*
X847Y1075D02*
X853Y1075D01*
X884Y1075D02*
X886Y1075D01*
X894Y1075D02*
X907Y1075D01*
X935Y1075D02*
X957Y1075D01*
X987Y1075D02*
X999Y1075D01*
X1003Y1075D02*
X1009Y1075D01*
X1032Y1075D02*
X1050Y1075D01*
X1077Y1075D02*
X1099Y1075D01*
X1133Y1075D02*
X1150Y1075D01*
X1219Y1075D02*
X1241Y1075D01*
X1267Y1075D02*
X1289Y1075D01*
X1318Y1075D02*
X1332Y1075D01*
X1358Y1075D02*
X1388Y1075D01*
X1456Y1075D02*
X1479Y1075D01*
X1507Y1075D02*
X1509Y1075D01*
X1548Y1075D02*
X1576Y1075D01*
X1738Y1075D02*
X1768Y1075D01*
X1788Y1075D02*
X1814Y1075D01*
X1859Y1075D02*
X1861Y1075D01*
X1883Y1075D02*
X1904Y1075D01*
X1927Y1075D02*
X1958Y1075D01*
X847Y1074D02*
X853Y1074D01*
X989Y1074D02*
X997Y1074D01*
X1003Y1074D02*
X1009Y1074D01*
X848Y1073D02*
X854Y1073D01*
X1003Y1073D02*
X1009Y1073D01*
X848Y1072D02*
X854Y1072D01*
X1003Y1072D02*
X1009Y1072D01*
X848Y1071D02*
X855Y1071D01*
X1003Y1071D02*
X1009Y1071D01*
X849Y1070D02*
X855Y1070D01*
X1003Y1070D02*
X1009Y1070D01*
X849Y1069D02*
X856Y1069D01*
X1003Y1069D02*
X1009Y1069D01*
X850Y1068D02*
X856Y1068D01*
X1003Y1068D02*
X1009Y1068D01*
X850Y1067D02*
X864Y1067D01*
X1003Y1067D02*
X1009Y1067D01*
X851Y1066D02*
X866Y1066D01*
X1003Y1066D02*
X1009Y1066D01*
X851Y1065D02*
X866Y1065D01*
X1003Y1065D02*
X1009Y1065D01*
X852Y1064D02*
X866Y1064D01*
X1003Y1064D02*
X1009Y1064D01*
X852Y1063D02*
X866Y1063D01*
X1003Y1063D02*
X1009Y1063D01*
X853Y1062D02*
X866Y1062D01*
X1004Y1062D02*
X1008Y1062D01*
X854Y1061D02*
X865Y1061D01*
X1005Y1061D02*
X1007Y1061D01*
X626Y937D02*
X631Y937D01*
X1195Y937D02*
X1200Y937D01*
X624Y936D02*
X632Y936D01*
X1194Y936D02*
X1201Y936D01*
X624Y935D02*
X632Y935D01*
X1193Y935D02*
X1202Y935D01*
X591Y934D02*
X593Y934D01*
X624Y934D02*
X633Y934D01*
X875Y934D02*
X878Y934D01*
X957Y934D02*
X970Y934D01*
X1160Y934D02*
X1163Y934D01*
X1193Y934D02*
X1202Y934D01*
X1227Y934D02*
X1235Y934D01*
X1251Y934D02*
X1259Y934D01*
X1492Y934D02*
X1495Y934D01*
X1527Y934D02*
X1539Y934D01*
X1587Y934D02*
X1590Y934D01*
X1656Y934D02*
X1658Y934D01*
X1682Y934D02*
X1684Y934D01*
X590Y933D02*
X594Y933D01*
X624Y933D02*
X633Y933D01*
X874Y933D02*
X879Y933D01*
X956Y933D02*
X971Y933D01*
X1159Y933D02*
X1164Y933D01*
X1193Y933D02*
X1202Y933D01*
X1227Y933D02*
X1236Y933D01*
X1251Y933D02*
X1259Y933D01*
X1491Y933D02*
X1496Y933D01*
X1526Y933D02*
X1540Y933D01*
X1586Y933D02*
X1590Y933D01*
X1655Y933D02*
X1659Y933D01*
X1681Y933D02*
X1685Y933D01*
X589Y932D02*
X595Y932D01*
X624Y932D02*
X633Y932D01*
X874Y932D02*
X879Y932D01*
X956Y932D02*
X971Y932D01*
X1159Y932D02*
X1164Y932D01*
X1193Y932D02*
X1202Y932D01*
X1227Y932D02*
X1236Y932D01*
X1250Y932D02*
X1259Y932D01*
X1491Y932D02*
X1496Y932D01*
X1525Y932D02*
X1540Y932D01*
X1586Y932D02*
X1591Y932D01*
X1654Y932D02*
X1660Y932D01*
X1680Y932D02*
X1686Y932D01*
X589Y931D02*
X595Y931D01*
X624Y931D02*
X633Y931D01*
X821Y931D02*
X824Y931D01*
X874Y931D02*
X879Y931D01*
X956Y931D02*
X971Y931D01*
X1158Y931D02*
X1164Y931D01*
X1193Y931D02*
X1202Y931D01*
X1227Y931D02*
X1237Y931D01*
X1249Y931D02*
X1259Y931D01*
X1491Y931D02*
X1496Y931D01*
X1525Y931D02*
X1540Y931D01*
X1585Y931D02*
X1591Y931D01*
X1654Y931D02*
X1660Y931D01*
X1680Y931D02*
X1686Y931D01*
X589Y930D02*
X595Y930D01*
X624Y930D02*
X632Y930D01*
X820Y930D02*
X825Y930D01*
X874Y930D02*
X879Y930D01*
X956Y930D02*
X971Y930D01*
X1158Y930D02*
X1164Y930D01*
X1193Y930D02*
X1201Y930D01*
X1227Y930D02*
X1238Y930D01*
X1248Y930D02*
X1259Y930D01*
X1491Y930D02*
X1496Y930D01*
X1525Y930D02*
X1540Y930D01*
X1585Y930D02*
X1591Y930D01*
X1654Y930D02*
X1660Y930D01*
X1680Y930D02*
X1686Y930D01*
X589Y929D02*
X595Y929D01*
X625Y929D02*
X632Y929D01*
X820Y929D02*
X825Y929D01*
X874Y929D02*
X879Y929D01*
X956Y929D02*
X970Y929D01*
X1158Y929D02*
X1164Y929D01*
X1194Y929D02*
X1201Y929D01*
X1227Y929D02*
X1239Y929D01*
X1248Y929D02*
X1259Y929D01*
X1491Y929D02*
X1496Y929D01*
X1525Y929D02*
X1539Y929D01*
X1585Y929D02*
X1591Y929D01*
X1654Y929D02*
X1660Y929D01*
X1680Y929D02*
X1686Y929D01*
X589Y928D02*
X595Y928D01*
X627Y928D02*
X629Y928D01*
X820Y928D02*
X826Y928D01*
X874Y928D02*
X879Y928D01*
X956Y928D02*
X968Y928D01*
X1158Y928D02*
X1164Y928D01*
X1196Y928D02*
X1199Y928D01*
X1227Y928D02*
X1239Y928D01*
X1247Y928D02*
X1259Y928D01*
X1491Y928D02*
X1496Y928D01*
X1525Y928D02*
X1537Y928D01*
X1585Y928D02*
X1591Y928D01*
X1654Y928D02*
X1660Y928D01*
X1680Y928D02*
X1686Y928D01*
X589Y927D02*
X595Y927D01*
X820Y927D02*
X826Y927D01*
X874Y927D02*
X879Y927D01*
X956Y927D02*
X961Y927D01*
X1158Y927D02*
X1164Y927D01*
X1227Y927D02*
X1240Y927D01*
X1246Y927D02*
X1259Y927D01*
X1491Y927D02*
X1496Y927D01*
X1525Y927D02*
X1531Y927D01*
X1585Y927D02*
X1591Y927D01*
X1654Y927D02*
X1660Y927D01*
X1680Y927D02*
X1686Y927D01*
X589Y926D02*
X595Y926D01*
X820Y926D02*
X826Y926D01*
X874Y926D02*
X879Y926D01*
X956Y926D02*
X961Y926D01*
X1158Y926D02*
X1164Y926D01*
X1227Y926D02*
X1241Y926D01*
X1246Y926D02*
X1259Y926D01*
X1491Y926D02*
X1496Y926D01*
X1525Y926D02*
X1531Y926D01*
X1585Y926D02*
X1591Y926D01*
X1654Y926D02*
X1660Y926D01*
X1680Y926D02*
X1686Y926D01*
X589Y925D02*
X595Y925D01*
X820Y925D02*
X826Y925D01*
X874Y925D02*
X879Y925D01*
X956Y925D02*
X961Y925D01*
X1158Y925D02*
X1164Y925D01*
X1227Y925D02*
X1241Y925D01*
X1245Y925D02*
X1259Y925D01*
X1491Y925D02*
X1496Y925D01*
X1525Y925D02*
X1531Y925D01*
X1585Y925D02*
X1591Y925D01*
X1654Y925D02*
X1660Y925D01*
X1680Y925D02*
X1686Y925D01*
X589Y924D02*
X595Y924D01*
X820Y924D02*
X826Y924D01*
X874Y924D02*
X879Y924D01*
X956Y924D02*
X961Y924D01*
X1158Y924D02*
X1164Y924D01*
X1227Y924D02*
X1233Y924D01*
X1235Y924D02*
X1242Y924D01*
X1244Y924D02*
X1251Y924D01*
X1253Y924D02*
X1259Y924D01*
X1491Y924D02*
X1496Y924D01*
X1525Y924D02*
X1531Y924D01*
X1585Y924D02*
X1591Y924D01*
X1654Y924D02*
X1660Y924D01*
X1680Y924D02*
X1686Y924D01*
X589Y923D02*
X595Y923D01*
X820Y923D02*
X826Y923D01*
X874Y923D02*
X879Y923D01*
X956Y923D02*
X961Y923D01*
X1158Y923D02*
X1164Y923D01*
X1227Y923D02*
X1233Y923D01*
X1236Y923D02*
X1251Y923D01*
X1253Y923D02*
X1259Y923D01*
X1491Y923D02*
X1496Y923D01*
X1525Y923D02*
X1531Y923D01*
X1585Y923D02*
X1591Y923D01*
X1654Y923D02*
X1660Y923D01*
X1680Y923D02*
X1686Y923D01*
X589Y922D02*
X595Y922D01*
X820Y922D02*
X826Y922D01*
X874Y922D02*
X879Y922D01*
X956Y922D02*
X961Y922D01*
X1158Y922D02*
X1164Y922D01*
X1227Y922D02*
X1233Y922D01*
X1236Y922D02*
X1250Y922D01*
X1253Y922D02*
X1259Y922D01*
X1491Y922D02*
X1496Y922D01*
X1525Y922D02*
X1531Y922D01*
X1585Y922D02*
X1591Y922D01*
X1654Y922D02*
X1660Y922D01*
X1680Y922D02*
X1686Y922D01*
X589Y921D02*
X595Y921D01*
X820Y921D02*
X826Y921D01*
X874Y921D02*
X879Y921D01*
X956Y921D02*
X961Y921D01*
X1158Y921D02*
X1164Y921D01*
X1227Y921D02*
X1233Y921D01*
X1237Y921D02*
X1249Y921D01*
X1253Y921D02*
X1259Y921D01*
X1491Y921D02*
X1496Y921D01*
X1525Y921D02*
X1531Y921D01*
X1585Y921D02*
X1591Y921D01*
X1654Y921D02*
X1660Y921D01*
X1680Y921D02*
X1686Y921D01*
X568Y920D02*
X571Y920D01*
X589Y920D02*
X595Y920D01*
X625Y920D02*
X638Y920D01*
X665Y920D02*
X675Y920D01*
X686Y920D02*
X688Y920D01*
X714Y920D02*
X729Y920D01*
X759Y920D02*
X770Y920D01*
X780Y920D02*
X783Y920D01*
X805Y920D02*
X831Y920D01*
X852Y920D02*
X855Y920D01*
X874Y920D02*
X879Y920D01*
X904Y920D02*
X918Y920D01*
X956Y920D02*
X961Y920D01*
X999Y920D02*
X1013Y920D01*
X1046Y920D02*
X1061Y920D01*
X1091Y920D02*
X1102Y920D01*
X1112Y920D02*
X1115Y920D01*
X1137Y920D02*
X1140Y920D01*
X1158Y920D02*
X1164Y920D01*
X1194Y920D02*
X1207Y920D01*
X1227Y920D02*
X1233Y920D01*
X1238Y920D02*
X1249Y920D01*
X1253Y920D02*
X1259Y920D01*
X1328Y920D02*
X1348Y920D01*
X1376Y920D02*
X1387Y920D01*
X1397Y920D02*
X1400Y920D01*
X1418Y920D02*
X1421Y920D01*
X1445Y920D02*
X1447Y920D01*
X1469Y920D02*
X1472Y920D01*
X1491Y920D02*
X1496Y920D01*
X1525Y920D02*
X1531Y920D01*
X1566Y920D02*
X1576Y920D01*
X1585Y920D02*
X1591Y920D01*
X1614Y920D02*
X1631Y920D01*
X1654Y920D02*
X1660Y920D01*
X1680Y920D02*
X1686Y920D01*
X567Y919D02*
X572Y919D01*
X589Y919D02*
X595Y919D01*
X624Y919D02*
X639Y919D01*
X663Y919D02*
X677Y919D01*
X685Y919D02*
X689Y919D01*
X712Y919D02*
X730Y919D01*
X757Y919D02*
X772Y919D01*
X779Y919D02*
X784Y919D01*
X804Y919D02*
X832Y919D01*
X852Y919D02*
X857Y919D01*
X874Y919D02*
X879Y919D01*
X902Y919D02*
X920Y919D01*
X956Y919D02*
X961Y919D01*
X997Y919D02*
X1015Y919D01*
X1044Y919D02*
X1062Y919D01*
X1089Y919D02*
X1104Y919D01*
X1112Y919D02*
X1116Y919D01*
X1136Y919D02*
X1141Y919D01*
X1158Y919D02*
X1164Y919D01*
X1193Y919D02*
X1208Y919D01*
X1227Y919D02*
X1233Y919D01*
X1238Y919D02*
X1248Y919D01*
X1253Y919D02*
X1259Y919D01*
X1326Y919D02*
X1350Y919D01*
X1374Y919D02*
X1388Y919D01*
X1396Y919D02*
X1401Y919D01*
X1418Y919D02*
X1422Y919D01*
X1444Y919D02*
X1448Y919D01*
X1468Y919D02*
X1473Y919D01*
X1491Y919D02*
X1496Y919D01*
X1525Y919D02*
X1531Y919D01*
X1565Y919D02*
X1578Y919D01*
X1585Y919D02*
X1591Y919D01*
X1612Y919D02*
X1631Y919D01*
X1654Y919D02*
X1660Y919D01*
X1680Y919D02*
X1686Y919D01*
X567Y918D02*
X573Y918D01*
X589Y918D02*
X595Y918D01*
X624Y918D02*
X639Y918D01*
X662Y918D02*
X679Y918D01*
X684Y918D02*
X690Y918D01*
X711Y918D02*
X732Y918D01*
X756Y918D02*
X773Y918D01*
X779Y918D02*
X784Y918D01*
X804Y918D02*
X832Y918D01*
X851Y918D02*
X858Y918D01*
X874Y918D02*
X879Y918D01*
X901Y918D02*
X921Y918D01*
X956Y918D02*
X961Y918D01*
X996Y918D02*
X1016Y918D01*
X1043Y918D02*
X1064Y918D01*
X1088Y918D02*
X1105Y918D01*
X1111Y918D02*
X1117Y918D01*
X1136Y918D02*
X1142Y918D01*
X1158Y918D02*
X1164Y918D01*
X1193Y918D02*
X1208Y918D01*
X1227Y918D02*
X1233Y918D01*
X1239Y918D02*
X1247Y918D01*
X1253Y918D02*
X1259Y918D01*
X1325Y918D02*
X1351Y918D01*
X1373Y918D02*
X1389Y918D01*
X1396Y918D02*
X1401Y918D01*
X1417Y918D02*
X1423Y918D01*
X1443Y918D02*
X1449Y918D01*
X1468Y918D02*
X1474Y918D01*
X1491Y918D02*
X1496Y918D01*
X1525Y918D02*
X1531Y918D01*
X1563Y918D02*
X1580Y918D01*
X1585Y918D02*
X1591Y918D01*
X1611Y918D02*
X1632Y918D01*
X1654Y918D02*
X1660Y918D01*
X1680Y918D02*
X1686Y918D01*
X567Y917D02*
X574Y917D01*
X589Y917D02*
X595Y917D01*
X624Y917D02*
X639Y917D01*
X661Y917D02*
X680Y917D01*
X684Y917D02*
X690Y917D01*
X710Y917D02*
X733Y917D01*
X755Y917D02*
X774Y917D01*
X779Y917D02*
X785Y917D01*
X804Y917D02*
X832Y917D01*
X851Y917D02*
X859Y917D01*
X874Y917D02*
X879Y917D01*
X899Y917D02*
X923Y917D01*
X956Y917D02*
X961Y917D01*
X994Y917D02*
X1017Y917D01*
X1042Y917D02*
X1065Y917D01*
X1087Y917D02*
X1106Y917D01*
X1111Y917D02*
X1117Y917D01*
X1136Y917D02*
X1144Y917D01*
X1158Y917D02*
X1164Y917D01*
X1193Y917D02*
X1208Y917D01*
X1227Y917D02*
X1233Y917D01*
X1240Y917D02*
X1246Y917D01*
X1253Y917D02*
X1259Y917D01*
X1324Y917D02*
X1352Y917D01*
X1372Y917D02*
X1391Y917D01*
X1396Y917D02*
X1401Y917D01*
X1417Y917D02*
X1423Y917D01*
X1443Y917D02*
X1449Y917D01*
X1468Y917D02*
X1476Y917D01*
X1491Y917D02*
X1496Y917D01*
X1525Y917D02*
X1531Y917D01*
X1562Y917D02*
X1581Y917D01*
X1585Y917D02*
X1591Y917D01*
X1610Y917D02*
X1632Y917D01*
X1654Y917D02*
X1660Y917D01*
X1668Y917D02*
X1672Y917D01*
X1680Y917D02*
X1686Y917D01*
X567Y916D02*
X575Y916D01*
X589Y916D02*
X595Y916D01*
X624Y916D02*
X639Y916D01*
X660Y916D02*
X682Y916D01*
X684Y916D02*
X690Y916D01*
X709Y916D02*
X734Y916D01*
X754Y916D02*
X775Y916D01*
X779Y916D02*
X785Y916D01*
X804Y916D02*
X832Y916D01*
X851Y916D02*
X860Y916D01*
X874Y916D02*
X879Y916D01*
X898Y916D02*
X924Y916D01*
X956Y916D02*
X961Y916D01*
X993Y916D02*
X1019Y916D01*
X1041Y916D02*
X1066Y916D01*
X1087Y916D02*
X1107Y916D01*
X1111Y916D02*
X1117Y916D01*
X1136Y916D02*
X1145Y916D01*
X1158Y916D02*
X1164Y916D01*
X1193Y916D02*
X1208Y916D01*
X1227Y916D02*
X1233Y916D01*
X1240Y916D02*
X1246Y916D01*
X1253Y916D02*
X1259Y916D01*
X1323Y916D02*
X1352Y916D01*
X1371Y916D02*
X1392Y916D01*
X1396Y916D02*
X1401Y916D01*
X1417Y916D02*
X1423Y916D01*
X1443Y916D02*
X1449Y916D01*
X1468Y916D02*
X1477Y916D01*
X1491Y916D02*
X1496Y916D01*
X1525Y916D02*
X1531Y916D01*
X1562Y916D02*
X1583Y916D01*
X1585Y916D02*
X1591Y916D01*
X1609Y916D02*
X1632Y916D01*
X1654Y916D02*
X1660Y916D01*
X1668Y916D02*
X1673Y916D01*
X1680Y916D02*
X1686Y916D01*
X568Y915D02*
X577Y915D01*
X589Y915D02*
X595Y915D01*
X624Y915D02*
X638Y915D01*
X660Y915D02*
X690Y915D01*
X708Y915D02*
X735Y915D01*
X754Y915D02*
X776Y915D01*
X779Y915D02*
X785Y915D01*
X805Y915D02*
X831Y915D01*
X852Y915D02*
X861Y915D01*
X874Y915D02*
X879Y915D01*
X897Y915D02*
X925Y915D01*
X956Y915D02*
X961Y915D01*
X992Y915D02*
X1019Y915D01*
X1040Y915D02*
X1067Y915D01*
X1086Y915D02*
X1108Y915D01*
X1111Y915D02*
X1117Y915D01*
X1137Y915D02*
X1146Y915D01*
X1158Y915D02*
X1164Y915D01*
X1193Y915D02*
X1207Y915D01*
X1227Y915D02*
X1233Y915D01*
X1240Y915D02*
X1246Y915D01*
X1253Y915D02*
X1259Y915D01*
X1323Y915D02*
X1353Y915D01*
X1371Y915D02*
X1393Y915D01*
X1396Y915D02*
X1401Y915D01*
X1417Y915D02*
X1423Y915D01*
X1443Y915D02*
X1449Y915D01*
X1469Y915D02*
X1478Y915D01*
X1491Y915D02*
X1496Y915D01*
X1525Y915D02*
X1531Y915D01*
X1561Y915D02*
X1591Y915D01*
X1609Y915D02*
X1631Y915D01*
X1654Y915D02*
X1660Y915D01*
X1667Y915D02*
X1673Y915D01*
X1680Y915D02*
X1686Y915D01*
X569Y914D02*
X578Y914D01*
X589Y914D02*
X595Y914D01*
X624Y914D02*
X630Y914D01*
X659Y914D02*
X667Y914D01*
X673Y914D02*
X690Y914D01*
X707Y914D02*
X717Y914D01*
X726Y914D02*
X735Y914D01*
X753Y914D02*
X761Y914D01*
X768Y914D02*
X777Y914D01*
X779Y914D02*
X785Y914D01*
X820Y914D02*
X826Y914D01*
X853Y914D02*
X862Y914D01*
X874Y914D02*
X879Y914D01*
X897Y914D02*
X906Y914D01*
X916Y914D02*
X925Y914D01*
X956Y914D02*
X961Y914D01*
X992Y914D02*
X1001Y914D01*
X1011Y914D02*
X1020Y914D01*
X1039Y914D02*
X1049Y914D01*
X1058Y914D02*
X1068Y914D01*
X1086Y914D02*
X1094Y914D01*
X1100Y914D02*
X1109Y914D01*
X1111Y914D02*
X1117Y914D01*
X1138Y914D02*
X1147Y914D01*
X1158Y914D02*
X1164Y914D01*
X1193Y914D02*
X1199Y914D01*
X1227Y914D02*
X1233Y914D01*
X1240Y914D02*
X1246Y914D01*
X1253Y914D02*
X1259Y914D01*
X1323Y914D02*
X1330Y914D01*
X1346Y914D02*
X1353Y914D01*
X1370Y914D02*
X1378Y914D01*
X1385Y914D02*
X1401Y914D01*
X1417Y914D02*
X1423Y914D01*
X1443Y914D02*
X1449Y914D01*
X1470Y914D02*
X1479Y914D01*
X1491Y914D02*
X1496Y914D01*
X1525Y914D02*
X1531Y914D01*
X1561Y914D02*
X1569Y914D01*
X1575Y914D02*
X1591Y914D01*
X1608Y914D02*
X1616Y914D01*
X1654Y914D02*
X1660Y914D01*
X1667Y914D02*
X1673Y914D01*
X1680Y914D02*
X1686Y914D01*
X570Y913D02*
X579Y913D01*
X589Y913D02*
X595Y913D01*
X624Y913D02*
X629Y913D01*
X659Y913D02*
X665Y913D01*
X675Y913D02*
X690Y913D01*
X706Y913D02*
X714Y913D01*
X728Y913D02*
X736Y913D01*
X753Y913D02*
X759Y913D01*
X769Y913D02*
X785Y913D01*
X820Y913D02*
X826Y913D01*
X854Y913D02*
X864Y913D01*
X874Y913D02*
X879Y913D01*
X896Y913D02*
X904Y913D01*
X918Y913D02*
X926Y913D01*
X956Y913D02*
X961Y913D01*
X991Y913D02*
X999Y913D01*
X1013Y913D02*
X1021Y913D01*
X1039Y913D02*
X1046Y913D01*
X1060Y913D02*
X1068Y913D01*
X1085Y913D02*
X1092Y913D01*
X1101Y913D02*
X1117Y913D01*
X1139Y913D02*
X1148Y913D01*
X1158Y913D02*
X1164Y913D01*
X1193Y913D02*
X1198Y913D01*
X1227Y913D02*
X1233Y913D01*
X1241Y913D02*
X1246Y913D01*
X1253Y913D02*
X1259Y913D01*
X1323Y913D02*
X1328Y913D01*
X1347Y913D02*
X1353Y913D01*
X1370Y913D02*
X1376Y913D01*
X1386Y913D02*
X1401Y913D01*
X1417Y913D02*
X1423Y913D01*
X1443Y913D02*
X1449Y913D01*
X1471Y913D02*
X1480Y913D01*
X1491Y913D02*
X1496Y913D01*
X1525Y913D02*
X1531Y913D01*
X1560Y913D02*
X1567Y913D01*
X1576Y913D02*
X1591Y913D01*
X1608Y913D02*
X1614Y913D01*
X1654Y913D02*
X1660Y913D01*
X1667Y913D02*
X1673Y913D01*
X1680Y913D02*
X1686Y913D01*
X571Y912D02*
X580Y912D01*
X589Y912D02*
X595Y912D01*
X624Y912D02*
X629Y912D01*
X659Y912D02*
X665Y912D01*
X677Y912D02*
X690Y912D01*
X706Y912D02*
X713Y912D01*
X730Y912D02*
X737Y912D01*
X753Y912D02*
X759Y912D01*
X770Y912D02*
X785Y912D01*
X820Y912D02*
X826Y912D01*
X856Y912D02*
X865Y912D01*
X874Y912D02*
X879Y912D01*
X896Y912D02*
X903Y912D01*
X919Y912D02*
X926Y912D01*
X956Y912D02*
X961Y912D01*
X991Y912D02*
X997Y912D01*
X1014Y912D02*
X1021Y912D01*
X1038Y912D02*
X1045Y912D01*
X1062Y912D02*
X1069Y912D01*
X1085Y912D02*
X1091Y912D01*
X1103Y912D02*
X1117Y912D01*
X1140Y912D02*
X1149Y912D01*
X1158Y912D02*
X1164Y912D01*
X1193Y912D02*
X1198Y912D01*
X1227Y912D02*
X1233Y912D01*
X1242Y912D02*
X1245Y912D01*
X1253Y912D02*
X1259Y912D01*
X1324Y912D02*
X1327Y912D01*
X1347Y912D02*
X1353Y912D01*
X1370Y912D02*
X1376Y912D01*
X1387Y912D02*
X1401Y912D01*
X1417Y912D02*
X1423Y912D01*
X1443Y912D02*
X1449Y912D01*
X1472Y912D02*
X1481Y912D01*
X1491Y912D02*
X1496Y912D01*
X1525Y912D02*
X1531Y912D01*
X1560Y912D02*
X1566Y912D01*
X1578Y912D02*
X1591Y912D01*
X1608Y912D02*
X1614Y912D01*
X1654Y912D02*
X1660Y912D01*
X1667Y912D02*
X1673Y912D01*
X1680Y912D02*
X1686Y912D01*
X572Y911D02*
X581Y911D01*
X589Y911D02*
X595Y911D01*
X624Y911D02*
X629Y911D01*
X659Y911D02*
X665Y911D01*
X678Y911D02*
X690Y911D01*
X706Y911D02*
X712Y911D01*
X731Y911D02*
X737Y911D01*
X753Y911D02*
X759Y911D01*
X772Y911D02*
X785Y911D01*
X820Y911D02*
X826Y911D01*
X857Y911D02*
X866Y911D01*
X874Y911D02*
X879Y911D01*
X895Y911D02*
X902Y911D01*
X920Y911D02*
X927Y911D01*
X956Y911D02*
X961Y911D01*
X990Y911D02*
X997Y911D01*
X1015Y911D02*
X1022Y911D01*
X1038Y911D02*
X1044Y911D01*
X1063Y911D02*
X1069Y911D01*
X1085Y911D02*
X1091Y911D01*
X1104Y911D02*
X1117Y911D01*
X1141Y911D02*
X1151Y911D01*
X1158Y911D02*
X1164Y911D01*
X1193Y911D02*
X1198Y911D01*
X1227Y911D02*
X1233Y911D01*
X1253Y911D02*
X1259Y911D01*
X1347Y911D02*
X1353Y911D01*
X1370Y911D02*
X1375Y911D01*
X1388Y911D02*
X1401Y911D01*
X1417Y911D02*
X1423Y911D01*
X1443Y911D02*
X1449Y911D01*
X1473Y911D02*
X1483Y911D01*
X1491Y911D02*
X1496Y911D01*
X1525Y911D02*
X1531Y911D01*
X1560Y911D02*
X1566Y911D01*
X1579Y911D02*
X1591Y911D01*
X1608Y911D02*
X1613Y911D01*
X1654Y911D02*
X1660Y911D01*
X1667Y911D02*
X1673Y911D01*
X1680Y911D02*
X1686Y911D01*
X573Y910D02*
X583Y910D01*
X589Y910D02*
X595Y910D01*
X624Y910D02*
X629Y910D01*
X659Y910D02*
X664Y910D01*
X680Y910D02*
X690Y910D01*
X706Y910D02*
X711Y910D01*
X731Y910D02*
X737Y910D01*
X753Y910D02*
X759Y910D01*
X773Y910D02*
X785Y910D01*
X820Y910D02*
X826Y910D01*
X858Y910D02*
X867Y910D01*
X874Y910D02*
X879Y910D01*
X895Y910D02*
X901Y910D01*
X921Y910D02*
X927Y910D01*
X956Y910D02*
X961Y910D01*
X990Y910D02*
X996Y910D01*
X1016Y910D02*
X1022Y910D01*
X1038Y910D02*
X1043Y910D01*
X1063Y910D02*
X1069Y910D01*
X1085Y910D02*
X1091Y910D01*
X1105Y910D02*
X1117Y910D01*
X1143Y910D02*
X1152Y910D01*
X1158Y910D02*
X1164Y910D01*
X1193Y910D02*
X1198Y910D01*
X1227Y910D02*
X1233Y910D01*
X1253Y910D02*
X1259Y910D01*
X1345Y910D02*
X1353Y910D01*
X1370Y910D02*
X1375Y910D01*
X1389Y910D02*
X1401Y910D01*
X1417Y910D02*
X1423Y910D01*
X1443Y910D02*
X1448Y910D01*
X1475Y910D02*
X1484Y910D01*
X1491Y910D02*
X1496Y910D01*
X1525Y910D02*
X1531Y910D01*
X1560Y910D02*
X1566Y910D01*
X1581Y910D02*
X1591Y910D01*
X1608Y910D02*
X1613Y910D01*
X1654Y910D02*
X1660Y910D01*
X1667Y910D02*
X1673Y910D01*
X1680Y910D02*
X1686Y910D01*
X574Y909D02*
X584Y909D01*
X589Y909D02*
X595Y909D01*
X624Y909D02*
X629Y909D01*
X659Y909D02*
X664Y909D01*
X681Y909D02*
X690Y909D01*
X706Y909D02*
X711Y909D01*
X731Y909D02*
X737Y909D01*
X753Y909D02*
X759Y909D01*
X774Y909D02*
X785Y909D01*
X820Y909D02*
X826Y909D01*
X859Y909D02*
X868Y909D01*
X874Y909D02*
X879Y909D01*
X895Y909D02*
X901Y909D01*
X921Y909D02*
X927Y909D01*
X956Y909D02*
X961Y909D01*
X990Y909D02*
X996Y909D01*
X1016Y909D02*
X1022Y909D01*
X1038Y909D02*
X1043Y909D01*
X1064Y909D02*
X1069Y909D01*
X1085Y909D02*
X1091Y909D01*
X1106Y909D02*
X1117Y909D01*
X1144Y909D02*
X1153Y909D01*
X1158Y909D02*
X1164Y909D01*
X1193Y909D02*
X1198Y909D01*
X1227Y909D02*
X1233Y909D01*
X1253Y909D02*
X1259Y909D01*
X1343Y909D02*
X1352Y909D01*
X1370Y909D02*
X1375Y909D01*
X1391Y909D02*
X1401Y909D01*
X1417Y909D02*
X1423Y909D01*
X1443Y909D02*
X1448Y909D01*
X1476Y909D02*
X1485Y909D01*
X1491Y909D02*
X1496Y909D01*
X1525Y909D02*
X1531Y909D01*
X1560Y909D02*
X1566Y909D01*
X1583Y909D02*
X1591Y909D01*
X1608Y909D02*
X1613Y909D01*
X1654Y909D02*
X1660Y909D01*
X1667Y909D02*
X1673Y909D01*
X1680Y909D02*
X1686Y909D01*
X576Y908D02*
X585Y908D01*
X589Y908D02*
X595Y908D01*
X624Y908D02*
X629Y908D01*
X659Y908D02*
X664Y908D01*
X683Y908D02*
X690Y908D01*
X705Y908D02*
X711Y908D01*
X732Y908D02*
X737Y908D01*
X753Y908D02*
X758Y908D01*
X775Y908D02*
X785Y908D01*
X820Y908D02*
X826Y908D01*
X860Y908D02*
X869Y908D01*
X874Y908D02*
X879Y908D01*
X895Y908D02*
X901Y908D01*
X921Y908D02*
X927Y908D01*
X956Y908D02*
X961Y908D01*
X990Y908D02*
X996Y908D01*
X1016Y908D02*
X1022Y908D01*
X1038Y908D02*
X1043Y908D01*
X1064Y908D02*
X1069Y908D01*
X1085Y908D02*
X1090Y908D01*
X1107Y908D02*
X1117Y908D01*
X1145Y908D02*
X1154Y908D01*
X1158Y908D02*
X1164Y908D01*
X1193Y908D02*
X1198Y908D01*
X1227Y908D02*
X1233Y908D01*
X1253Y908D02*
X1259Y908D01*
X1340Y908D02*
X1352Y908D01*
X1370Y908D02*
X1375Y908D01*
X1392Y908D02*
X1401Y908D01*
X1417Y908D02*
X1423Y908D01*
X1443Y908D02*
X1448Y908D01*
X1477Y908D02*
X1486Y908D01*
X1491Y908D02*
X1496Y908D01*
X1525Y908D02*
X1531Y908D01*
X1560Y908D02*
X1566Y908D01*
X1584Y908D02*
X1591Y908D01*
X1608Y908D02*
X1613Y908D01*
X1654Y908D02*
X1660Y908D01*
X1667Y908D02*
X1673Y908D01*
X1680Y908D02*
X1686Y908D01*
X577Y907D02*
X586Y907D01*
X589Y907D02*
X595Y907D01*
X624Y907D02*
X629Y907D01*
X659Y907D02*
X664Y907D01*
X684Y907D02*
X690Y907D01*
X705Y907D02*
X711Y907D01*
X732Y907D02*
X737Y907D01*
X754Y907D02*
X758Y907D01*
X776Y907D02*
X785Y907D01*
X820Y907D02*
X826Y907D01*
X861Y907D02*
X871Y907D01*
X874Y907D02*
X879Y907D01*
X895Y907D02*
X901Y907D01*
X921Y907D02*
X927Y907D01*
X956Y907D02*
X961Y907D01*
X990Y907D02*
X996Y907D01*
X1016Y907D02*
X1022Y907D01*
X1038Y907D02*
X1043Y907D01*
X1064Y907D02*
X1069Y907D01*
X1086Y907D02*
X1090Y907D01*
X1108Y907D02*
X1117Y907D01*
X1146Y907D02*
X1155Y907D01*
X1158Y907D02*
X1164Y907D01*
X1193Y907D02*
X1198Y907D01*
X1227Y907D02*
X1233Y907D01*
X1253Y907D02*
X1259Y907D01*
X1338Y907D02*
X1351Y907D01*
X1370Y907D02*
X1374Y907D01*
X1393Y907D02*
X1401Y907D01*
X1417Y907D02*
X1423Y907D01*
X1443Y907D02*
X1448Y907D01*
X1478Y907D02*
X1487Y907D01*
X1491Y907D02*
X1496Y907D01*
X1525Y907D02*
X1531Y907D01*
X1560Y907D02*
X1566Y907D01*
X1585Y907D02*
X1591Y907D01*
X1607Y907D02*
X1613Y907D01*
X1654Y907D02*
X1660Y907D01*
X1667Y907D02*
X1673Y907D01*
X1680Y907D02*
X1686Y907D01*
X578Y906D02*
X587Y906D01*
X589Y906D02*
X595Y906D01*
X624Y906D02*
X629Y906D01*
X659Y906D02*
X664Y906D01*
X684Y906D02*
X690Y906D01*
X705Y906D02*
X711Y906D01*
X732Y906D02*
X737Y906D01*
X755Y906D02*
X756Y906D01*
X777Y906D02*
X785Y906D01*
X820Y906D02*
X826Y906D01*
X863Y906D02*
X872Y906D01*
X874Y906D02*
X879Y906D01*
X895Y906D02*
X901Y906D01*
X921Y906D02*
X927Y906D01*
X956Y906D02*
X961Y906D01*
X990Y906D02*
X996Y906D01*
X1016Y906D02*
X1022Y906D01*
X1038Y906D02*
X1043Y906D01*
X1064Y906D02*
X1069Y906D01*
X1087Y906D02*
X1089Y906D01*
X1110Y906D02*
X1117Y906D01*
X1147Y906D02*
X1156Y906D01*
X1158Y906D02*
X1164Y906D01*
X1193Y906D02*
X1198Y906D01*
X1227Y906D02*
X1233Y906D01*
X1253Y906D02*
X1259Y906D01*
X1336Y906D02*
X1350Y906D01*
X1372Y906D02*
X1373Y906D01*
X1394Y906D02*
X1401Y906D01*
X1417Y906D02*
X1423Y906D01*
X1443Y906D02*
X1448Y906D01*
X1479Y906D02*
X1489Y906D01*
X1491Y906D02*
X1496Y906D01*
X1525Y906D02*
X1531Y906D01*
X1560Y906D02*
X1566Y906D01*
X1585Y906D02*
X1591Y906D01*
X1607Y906D02*
X1632Y906D01*
X1654Y906D02*
X1660Y906D01*
X1667Y906D02*
X1673Y906D01*
X1680Y906D02*
X1686Y906D01*
X579Y905D02*
X595Y905D01*
X624Y905D02*
X629Y905D01*
X659Y905D02*
X664Y905D01*
X684Y905D02*
X690Y905D01*
X705Y905D02*
X711Y905D01*
X732Y905D02*
X737Y905D01*
X779Y905D02*
X785Y905D01*
X820Y905D02*
X826Y905D01*
X864Y905D02*
X879Y905D01*
X895Y905D02*
X901Y905D01*
X921Y905D02*
X927Y905D01*
X956Y905D02*
X961Y905D01*
X990Y905D02*
X996Y905D01*
X1016Y905D02*
X1022Y905D01*
X1038Y905D02*
X1043Y905D01*
X1064Y905D02*
X1069Y905D01*
X1111Y905D02*
X1117Y905D01*
X1148Y905D02*
X1164Y905D01*
X1193Y905D02*
X1198Y905D01*
X1227Y905D02*
X1233Y905D01*
X1253Y905D02*
X1259Y905D01*
X1334Y905D02*
X1349Y905D01*
X1395Y905D02*
X1401Y905D01*
X1417Y905D02*
X1423Y905D01*
X1443Y905D02*
X1448Y905D01*
X1480Y905D02*
X1496Y905D01*
X1525Y905D02*
X1531Y905D01*
X1560Y905D02*
X1566Y905D01*
X1585Y905D02*
X1591Y905D01*
X1607Y905D02*
X1634Y905D01*
X1654Y905D02*
X1660Y905D01*
X1667Y905D02*
X1673Y905D01*
X1680Y905D02*
X1686Y905D01*
X580Y904D02*
X595Y904D01*
X624Y904D02*
X629Y904D01*
X659Y904D02*
X664Y904D01*
X684Y904D02*
X690Y904D01*
X705Y904D02*
X711Y904D01*
X732Y904D02*
X737Y904D01*
X779Y904D02*
X785Y904D01*
X820Y904D02*
X826Y904D01*
X865Y904D02*
X879Y904D01*
X895Y904D02*
X901Y904D01*
X921Y904D02*
X927Y904D01*
X956Y904D02*
X961Y904D01*
X990Y904D02*
X996Y904D01*
X1016Y904D02*
X1022Y904D01*
X1038Y904D02*
X1043Y904D01*
X1064Y904D02*
X1069Y904D01*
X1111Y904D02*
X1117Y904D01*
X1150Y904D02*
X1164Y904D01*
X1193Y904D02*
X1198Y904D01*
X1227Y904D02*
X1233Y904D01*
X1253Y904D02*
X1259Y904D01*
X1331Y904D02*
X1347Y904D01*
X1396Y904D02*
X1401Y904D01*
X1417Y904D02*
X1423Y904D01*
X1443Y904D02*
X1448Y904D01*
X1482Y904D02*
X1496Y904D01*
X1525Y904D02*
X1531Y904D01*
X1560Y904D02*
X1566Y904D01*
X1585Y904D02*
X1591Y904D01*
X1607Y904D02*
X1635Y904D01*
X1654Y904D02*
X1660Y904D01*
X1667Y904D02*
X1673Y904D01*
X1680Y904D02*
X1686Y904D01*
X580Y903D02*
X595Y903D01*
X624Y903D02*
X629Y903D01*
X659Y903D02*
X664Y903D01*
X684Y903D02*
X690Y903D01*
X705Y903D02*
X711Y903D01*
X732Y903D02*
X737Y903D01*
X779Y903D02*
X785Y903D01*
X820Y903D02*
X826Y903D01*
X865Y903D02*
X879Y903D01*
X895Y903D02*
X927Y903D01*
X956Y903D02*
X961Y903D01*
X990Y903D02*
X1022Y903D01*
X1038Y903D02*
X1043Y903D01*
X1064Y903D02*
X1069Y903D01*
X1111Y903D02*
X1117Y903D01*
X1150Y903D02*
X1164Y903D01*
X1193Y903D02*
X1198Y903D01*
X1227Y903D02*
X1233Y903D01*
X1253Y903D02*
X1259Y903D01*
X1329Y903D02*
X1345Y903D01*
X1396Y903D02*
X1401Y903D01*
X1417Y903D02*
X1423Y903D01*
X1443Y903D02*
X1448Y903D01*
X1482Y903D02*
X1496Y903D01*
X1525Y903D02*
X1531Y903D01*
X1560Y903D02*
X1566Y903D01*
X1585Y903D02*
X1591Y903D01*
X1607Y903D02*
X1636Y903D01*
X1654Y903D02*
X1660Y903D01*
X1667Y903D02*
X1673Y903D01*
X1680Y903D02*
X1686Y903D01*
X579Y902D02*
X595Y902D01*
X624Y902D02*
X629Y902D01*
X659Y902D02*
X664Y902D01*
X684Y902D02*
X690Y902D01*
X705Y902D02*
X711Y902D01*
X732Y902D02*
X737Y902D01*
X779Y902D02*
X785Y902D01*
X820Y902D02*
X826Y902D01*
X864Y902D02*
X879Y902D01*
X895Y902D02*
X927Y902D01*
X956Y902D02*
X961Y902D01*
X990Y902D02*
X1022Y902D01*
X1038Y902D02*
X1043Y902D01*
X1064Y902D02*
X1069Y902D01*
X1111Y902D02*
X1117Y902D01*
X1149Y902D02*
X1164Y902D01*
X1193Y902D02*
X1198Y902D01*
X1227Y902D02*
X1233Y902D01*
X1253Y902D02*
X1259Y902D01*
X1327Y902D02*
X1342Y902D01*
X1396Y902D02*
X1401Y902D01*
X1417Y902D02*
X1423Y902D01*
X1443Y902D02*
X1448Y902D01*
X1481Y902D02*
X1496Y902D01*
X1525Y902D02*
X1531Y902D01*
X1560Y902D02*
X1566Y902D01*
X1585Y902D02*
X1591Y902D01*
X1607Y902D02*
X1637Y902D01*
X1654Y902D02*
X1660Y902D01*
X1667Y902D02*
X1673Y902D01*
X1680Y902D02*
X1686Y902D01*
X578Y901D02*
X595Y901D01*
X624Y901D02*
X629Y901D01*
X659Y901D02*
X664Y901D01*
X684Y901D02*
X690Y901D01*
X705Y901D02*
X711Y901D01*
X732Y901D02*
X737Y901D01*
X779Y901D02*
X785Y901D01*
X820Y901D02*
X826Y901D01*
X863Y901D02*
X879Y901D01*
X895Y901D02*
X927Y901D01*
X956Y901D02*
X961Y901D01*
X990Y901D02*
X1022Y901D01*
X1038Y901D02*
X1043Y901D01*
X1064Y901D02*
X1069Y901D01*
X1111Y901D02*
X1117Y901D01*
X1147Y901D02*
X1164Y901D01*
X1193Y901D02*
X1198Y901D01*
X1227Y901D02*
X1233Y901D01*
X1253Y901D02*
X1259Y901D01*
X1326Y901D02*
X1340Y901D01*
X1396Y901D02*
X1401Y901D01*
X1417Y901D02*
X1423Y901D01*
X1443Y901D02*
X1448Y901D01*
X1479Y901D02*
X1496Y901D01*
X1525Y901D02*
X1531Y901D01*
X1560Y901D02*
X1565Y901D01*
X1585Y901D02*
X1591Y901D01*
X1607Y901D02*
X1638Y901D01*
X1654Y901D02*
X1660Y901D01*
X1667Y901D02*
X1673Y901D01*
X1680Y901D02*
X1686Y901D01*
X577Y900D02*
X595Y900D01*
X624Y900D02*
X629Y900D01*
X659Y900D02*
X664Y900D01*
X684Y900D02*
X690Y900D01*
X705Y900D02*
X711Y900D01*
X732Y900D02*
X737Y900D01*
X779Y900D02*
X785Y900D01*
X820Y900D02*
X826Y900D01*
X862Y900D02*
X879Y900D01*
X895Y900D02*
X927Y900D01*
X956Y900D02*
X961Y900D01*
X990Y900D02*
X1022Y900D01*
X1038Y900D02*
X1043Y900D01*
X1064Y900D02*
X1069Y900D01*
X1111Y900D02*
X1117Y900D01*
X1146Y900D02*
X1164Y900D01*
X1193Y900D02*
X1198Y900D01*
X1227Y900D02*
X1233Y900D01*
X1253Y900D02*
X1259Y900D01*
X1325Y900D02*
X1338Y900D01*
X1396Y900D02*
X1401Y900D01*
X1417Y900D02*
X1423Y900D01*
X1443Y900D02*
X1448Y900D01*
X1478Y900D02*
X1496Y900D01*
X1525Y900D02*
X1531Y900D01*
X1560Y900D02*
X1565Y900D01*
X1585Y900D02*
X1591Y900D01*
X1607Y900D02*
X1615Y900D01*
X1630Y900D02*
X1638Y900D01*
X1654Y900D02*
X1660Y900D01*
X1667Y900D02*
X1673Y900D01*
X1680Y900D02*
X1686Y900D01*
X576Y899D02*
X595Y899D01*
X624Y899D02*
X629Y899D01*
X659Y899D02*
X664Y899D01*
X684Y899D02*
X690Y899D01*
X705Y899D02*
X711Y899D01*
X732Y899D02*
X737Y899D01*
X779Y899D02*
X785Y899D01*
X820Y899D02*
X826Y899D01*
X860Y899D02*
X879Y899D01*
X896Y899D02*
X927Y899D01*
X956Y899D02*
X961Y899D01*
X991Y899D02*
X1022Y899D01*
X1038Y899D02*
X1043Y899D01*
X1064Y899D02*
X1069Y899D01*
X1111Y899D02*
X1117Y899D01*
X1145Y899D02*
X1164Y899D01*
X1193Y899D02*
X1198Y899D01*
X1227Y899D02*
X1233Y899D01*
X1253Y899D02*
X1259Y899D01*
X1324Y899D02*
X1335Y899D01*
X1396Y899D02*
X1401Y899D01*
X1417Y899D02*
X1423Y899D01*
X1443Y899D02*
X1448Y899D01*
X1477Y899D02*
X1496Y899D01*
X1525Y899D02*
X1531Y899D01*
X1560Y899D02*
X1565Y899D01*
X1585Y899D02*
X1591Y899D01*
X1607Y899D02*
X1614Y899D01*
X1632Y899D02*
X1638Y899D01*
X1654Y899D02*
X1660Y899D01*
X1667Y899D02*
X1673Y899D01*
X1680Y899D02*
X1686Y899D01*
X575Y898D02*
X584Y898D01*
X587Y898D02*
X595Y898D01*
X624Y898D02*
X629Y898D01*
X658Y898D02*
X664Y898D01*
X684Y898D02*
X690Y898D01*
X705Y898D02*
X711Y898D01*
X732Y898D02*
X737Y898D01*
X779Y898D02*
X785Y898D01*
X820Y898D02*
X826Y898D01*
X859Y898D02*
X868Y898D01*
X872Y898D02*
X879Y898D01*
X897Y898D02*
X927Y898D01*
X956Y898D02*
X961Y898D01*
X992Y898D02*
X1022Y898D01*
X1038Y898D02*
X1043Y898D01*
X1064Y898D02*
X1069Y898D01*
X1111Y898D02*
X1117Y898D01*
X1144Y898D02*
X1153Y898D01*
X1157Y898D02*
X1164Y898D01*
X1193Y898D02*
X1198Y898D01*
X1227Y898D02*
X1233Y898D01*
X1253Y898D02*
X1259Y898D01*
X1324Y898D02*
X1333Y898D01*
X1396Y898D02*
X1401Y898D01*
X1417Y898D02*
X1423Y898D01*
X1442Y898D02*
X1448Y898D01*
X1476Y898D02*
X1485Y898D01*
X1489Y898D02*
X1496Y898D01*
X1525Y898D02*
X1531Y898D01*
X1560Y898D02*
X1565Y898D01*
X1585Y898D02*
X1591Y898D01*
X1607Y898D02*
X1613Y898D01*
X1633Y898D02*
X1638Y898D01*
X1654Y898D02*
X1660Y898D01*
X1667Y898D02*
X1673Y898D01*
X1680Y898D02*
X1686Y898D01*
X573Y897D02*
X583Y897D01*
X588Y897D02*
X595Y897D01*
X624Y897D02*
X629Y897D01*
X658Y897D02*
X664Y897D01*
X684Y897D02*
X690Y897D01*
X705Y897D02*
X711Y897D01*
X732Y897D02*
X737Y897D01*
X779Y897D02*
X785Y897D01*
X820Y897D02*
X826Y897D01*
X858Y897D02*
X867Y897D01*
X873Y897D02*
X879Y897D01*
X921Y897D02*
X927Y897D01*
X956Y897D02*
X961Y897D01*
X1016Y897D02*
X1022Y897D01*
X1038Y897D02*
X1043Y897D01*
X1064Y897D02*
X1069Y897D01*
X1111Y897D02*
X1117Y897D01*
X1143Y897D02*
X1152Y897D01*
X1158Y897D02*
X1164Y897D01*
X1193Y897D02*
X1198Y897D01*
X1227Y897D02*
X1233Y897D01*
X1253Y897D02*
X1259Y897D01*
X1323Y897D02*
X1331Y897D01*
X1396Y897D02*
X1401Y897D01*
X1417Y897D02*
X1423Y897D01*
X1442Y897D02*
X1448Y897D01*
X1475Y897D02*
X1484Y897D01*
X1490Y897D02*
X1496Y897D01*
X1525Y897D02*
X1531Y897D01*
X1560Y897D02*
X1565Y897D01*
X1585Y897D02*
X1591Y897D01*
X1607Y897D02*
X1613Y897D01*
X1633Y897D02*
X1638Y897D01*
X1654Y897D02*
X1660Y897D01*
X1667Y897D02*
X1673Y897D01*
X1680Y897D02*
X1686Y897D01*
X572Y896D02*
X581Y896D01*
X589Y896D02*
X595Y896D01*
X624Y896D02*
X629Y896D01*
X658Y896D02*
X664Y896D01*
X684Y896D02*
X690Y896D01*
X705Y896D02*
X711Y896D01*
X732Y896D02*
X737Y896D01*
X779Y896D02*
X785Y896D01*
X820Y896D02*
X826Y896D01*
X857Y896D02*
X866Y896D01*
X874Y896D02*
X879Y896D01*
X921Y896D02*
X927Y896D01*
X956Y896D02*
X961Y896D01*
X1016Y896D02*
X1022Y896D01*
X1038Y896D02*
X1043Y896D01*
X1064Y896D02*
X1069Y896D01*
X1111Y896D02*
X1117Y896D01*
X1141Y896D02*
X1151Y896D01*
X1158Y896D02*
X1164Y896D01*
X1193Y896D02*
X1198Y896D01*
X1227Y896D02*
X1233Y896D01*
X1253Y896D02*
X1259Y896D01*
X1323Y896D02*
X1329Y896D01*
X1396Y896D02*
X1401Y896D01*
X1417Y896D02*
X1424Y896D01*
X1442Y896D02*
X1448Y896D01*
X1474Y896D02*
X1483Y896D01*
X1491Y896D02*
X1496Y896D01*
X1525Y896D02*
X1531Y896D01*
X1560Y896D02*
X1565Y896D01*
X1585Y896D02*
X1591Y896D01*
X1607Y896D02*
X1613Y896D01*
X1633Y896D02*
X1638Y896D01*
X1654Y896D02*
X1660Y896D01*
X1667Y896D02*
X1673Y896D01*
X1680Y896D02*
X1686Y896D01*
X571Y895D02*
X580Y895D01*
X589Y895D02*
X595Y895D01*
X624Y895D02*
X629Y895D01*
X658Y895D02*
X664Y895D01*
X684Y895D02*
X690Y895D01*
X706Y895D02*
X711Y895D01*
X731Y895D02*
X737Y895D01*
X779Y895D02*
X785Y895D01*
X802Y895D02*
X804Y895D01*
X820Y895D02*
X826Y895D01*
X856Y895D02*
X865Y895D01*
X874Y895D02*
X879Y895D01*
X921Y895D02*
X927Y895D01*
X956Y895D02*
X961Y895D01*
X1016Y895D02*
X1022Y895D01*
X1038Y895D02*
X1043Y895D01*
X1064Y895D02*
X1069Y895D01*
X1111Y895D02*
X1117Y895D01*
X1140Y895D02*
X1150Y895D01*
X1158Y895D02*
X1164Y895D01*
X1193Y895D02*
X1198Y895D01*
X1227Y895D02*
X1233Y895D01*
X1253Y895D02*
X1259Y895D01*
X1322Y895D02*
X1328Y895D01*
X1396Y895D02*
X1401Y895D01*
X1417Y895D02*
X1426Y895D01*
X1442Y895D02*
X1448Y895D01*
X1472Y895D02*
X1482Y895D01*
X1491Y895D02*
X1496Y895D01*
X1525Y895D02*
X1531Y895D01*
X1560Y895D02*
X1565Y895D01*
X1585Y895D02*
X1591Y895D01*
X1607Y895D02*
X1613Y895D01*
X1633Y895D02*
X1638Y895D01*
X1654Y895D02*
X1660Y895D01*
X1667Y895D02*
X1673Y895D01*
X1680Y895D02*
X1686Y895D01*
X570Y894D02*
X579Y894D01*
X589Y894D02*
X595Y894D01*
X624Y894D02*
X629Y894D01*
X658Y894D02*
X664Y894D01*
X684Y894D02*
X690Y894D01*
X706Y894D02*
X711Y894D01*
X731Y894D02*
X737Y894D01*
X779Y894D02*
X785Y894D01*
X801Y894D02*
X805Y894D01*
X820Y894D02*
X826Y894D01*
X855Y894D02*
X864Y894D01*
X874Y894D02*
X879Y894D01*
X921Y894D02*
X927Y894D01*
X956Y894D02*
X961Y894D01*
X1016Y894D02*
X1022Y894D01*
X1038Y894D02*
X1044Y894D01*
X1063Y894D02*
X1069Y894D01*
X1111Y894D02*
X1117Y894D01*
X1139Y894D02*
X1148Y894D01*
X1158Y894D02*
X1164Y894D01*
X1193Y894D02*
X1198Y894D01*
X1227Y894D02*
X1233Y894D01*
X1253Y894D02*
X1259Y894D01*
X1322Y894D02*
X1328Y894D01*
X1396Y894D02*
X1401Y894D01*
X1417Y894D02*
X1427Y894D01*
X1442Y894D02*
X1448Y894D01*
X1471Y894D02*
X1480Y894D01*
X1491Y894D02*
X1496Y894D01*
X1525Y894D02*
X1531Y894D01*
X1560Y894D02*
X1565Y894D01*
X1585Y894D02*
X1591Y894D01*
X1607Y894D02*
X1613Y894D01*
X1633Y894D02*
X1638Y894D01*
X1654Y894D02*
X1660Y894D01*
X1667Y894D02*
X1673Y894D01*
X1680Y894D02*
X1686Y894D01*
X569Y893D02*
X578Y893D01*
X589Y893D02*
X595Y893D01*
X624Y893D02*
X629Y893D01*
X658Y893D02*
X664Y893D01*
X684Y893D02*
X690Y893D01*
X706Y893D02*
X712Y893D01*
X731Y893D02*
X737Y893D01*
X779Y893D02*
X785Y893D01*
X800Y893D02*
X806Y893D01*
X820Y893D02*
X826Y893D01*
X853Y893D02*
X863Y893D01*
X874Y893D02*
X879Y893D01*
X920Y893D02*
X927Y893D01*
X956Y893D02*
X961Y893D01*
X1015Y893D02*
X1022Y893D01*
X1038Y893D02*
X1044Y893D01*
X1063Y893D02*
X1069Y893D01*
X1111Y893D02*
X1117Y893D01*
X1138Y893D02*
X1147Y893D01*
X1158Y893D02*
X1164Y893D01*
X1193Y893D02*
X1198Y893D01*
X1227Y893D02*
X1233Y893D01*
X1253Y893D02*
X1259Y893D01*
X1322Y893D02*
X1328Y893D01*
X1396Y893D02*
X1401Y893D01*
X1417Y893D02*
X1429Y893D01*
X1442Y893D02*
X1448Y893D01*
X1470Y893D02*
X1479Y893D01*
X1491Y893D02*
X1496Y893D01*
X1525Y893D02*
X1531Y893D01*
X1560Y893D02*
X1565Y893D01*
X1585Y893D02*
X1591Y893D01*
X1607Y893D02*
X1615Y893D01*
X1633Y893D02*
X1638Y893D01*
X1654Y893D02*
X1660Y893D01*
X1667Y893D02*
X1673Y893D01*
X1680Y893D02*
X1686Y893D01*
X568Y892D02*
X577Y892D01*
X589Y892D02*
X595Y892D01*
X624Y892D02*
X629Y892D01*
X658Y892D02*
X664Y892D01*
X684Y892D02*
X690Y892D01*
X706Y892D02*
X713Y892D01*
X730Y892D02*
X737Y892D01*
X779Y892D02*
X785Y892D01*
X800Y892D02*
X806Y892D01*
X820Y892D02*
X825Y892D01*
X852Y892D02*
X861Y892D01*
X874Y892D02*
X879Y892D01*
X919Y892D02*
X926Y892D01*
X956Y892D02*
X961Y892D01*
X1014Y892D02*
X1021Y892D01*
X1038Y892D02*
X1045Y892D01*
X1062Y892D02*
X1069Y892D01*
X1111Y892D02*
X1117Y892D01*
X1137Y892D02*
X1146Y892D01*
X1158Y892D02*
X1164Y892D01*
X1193Y892D02*
X1198Y892D01*
X1227Y892D02*
X1233Y892D01*
X1253Y892D02*
X1259Y892D01*
X1322Y892D02*
X1328Y892D01*
X1349Y892D02*
X1353Y892D01*
X1396Y892D02*
X1401Y892D01*
X1417Y892D02*
X1430Y892D01*
X1442Y892D02*
X1448Y892D01*
X1469Y892D02*
X1478Y892D01*
X1491Y892D02*
X1496Y892D01*
X1525Y892D02*
X1531Y892D01*
X1560Y892D02*
X1565Y892D01*
X1585Y892D02*
X1591Y892D01*
X1607Y892D02*
X1617Y892D01*
X1633Y892D02*
X1638Y892D01*
X1654Y892D02*
X1661Y892D01*
X1667Y892D02*
X1674Y892D01*
X1680Y892D02*
X1686Y892D01*
X566Y891D02*
X576Y891D01*
X589Y891D02*
X595Y891D01*
X624Y891D02*
X629Y891D01*
X658Y891D02*
X664Y891D01*
X684Y891D02*
X690Y891D01*
X707Y891D02*
X714Y891D01*
X728Y891D02*
X736Y891D01*
X779Y891D02*
X785Y891D01*
X801Y891D02*
X807Y891D01*
X819Y891D02*
X825Y891D01*
X851Y891D02*
X860Y891D01*
X874Y891D02*
X879Y891D01*
X918Y891D02*
X926Y891D01*
X956Y891D02*
X961Y891D01*
X1013Y891D02*
X1021Y891D01*
X1039Y891D02*
X1046Y891D01*
X1060Y891D02*
X1068Y891D01*
X1111Y891D02*
X1117Y891D01*
X1136Y891D02*
X1145Y891D01*
X1158Y891D02*
X1164Y891D01*
X1193Y891D02*
X1198Y891D01*
X1227Y891D02*
X1233Y891D01*
X1253Y891D02*
X1259Y891D01*
X1323Y891D02*
X1329Y891D01*
X1348Y891D02*
X1353Y891D01*
X1396Y891D02*
X1401Y891D01*
X1417Y891D02*
X1432Y891D01*
X1441Y891D02*
X1448Y891D01*
X1468Y891D02*
X1477Y891D01*
X1491Y891D02*
X1496Y891D01*
X1525Y891D02*
X1531Y891D01*
X1560Y891D02*
X1565Y891D01*
X1585Y891D02*
X1591Y891D01*
X1607Y891D02*
X1618Y891D01*
X1632Y891D02*
X1638Y891D01*
X1654Y891D02*
X1661Y891D01*
X1666Y891D02*
X1674Y891D01*
X1679Y891D02*
X1686Y891D01*
X565Y890D02*
X574Y890D01*
X589Y890D02*
X595Y890D01*
X617Y890D02*
X636Y890D01*
X658Y890D02*
X664Y890D01*
X684Y890D02*
X690Y890D01*
X707Y890D02*
X736Y890D01*
X779Y890D02*
X785Y890D01*
X801Y890D02*
X825Y890D01*
X850Y890D02*
X859Y890D01*
X874Y890D02*
X879Y890D01*
X898Y890D02*
X925Y890D01*
X949Y890D02*
X968Y890D01*
X993Y890D02*
X1020Y890D01*
X1039Y890D02*
X1068Y890D01*
X1111Y890D02*
X1117Y890D01*
X1134Y890D02*
X1144Y890D01*
X1158Y890D02*
X1164Y890D01*
X1186Y890D02*
X1205Y890D01*
X1227Y890D02*
X1233Y890D01*
X1253Y890D02*
X1259Y890D01*
X1323Y890D02*
X1354Y890D01*
X1396Y890D02*
X1401Y890D01*
X1417Y890D02*
X1447Y890D01*
X1467Y890D02*
X1476Y890D01*
X1491Y890D02*
X1496Y890D01*
X1518Y890D02*
X1537Y890D01*
X1560Y890D02*
X1565Y890D01*
X1585Y890D02*
X1591Y890D01*
X1607Y890D02*
X1638Y890D01*
X1655Y890D02*
X1685Y890D01*
X564Y889D02*
X573Y889D01*
X589Y889D02*
X595Y889D01*
X615Y889D02*
X638Y889D01*
X658Y889D02*
X664Y889D01*
X684Y889D02*
X690Y889D01*
X708Y889D02*
X735Y889D01*
X779Y889D02*
X785Y889D01*
X801Y889D02*
X825Y889D01*
X849Y889D02*
X858Y889D01*
X874Y889D02*
X879Y889D01*
X896Y889D02*
X925Y889D01*
X947Y889D02*
X970Y889D01*
X991Y889D02*
X1020Y889D01*
X1040Y889D02*
X1067Y889D01*
X1111Y889D02*
X1117Y889D01*
X1133Y889D02*
X1143Y889D01*
X1158Y889D02*
X1164Y889D01*
X1184Y889D02*
X1207Y889D01*
X1227Y889D02*
X1233Y889D01*
X1253Y889D02*
X1259Y889D01*
X1323Y889D02*
X1354Y889D01*
X1396Y889D02*
X1401Y889D01*
X1417Y889D02*
X1447Y889D01*
X1465Y889D02*
X1475Y889D01*
X1491Y889D02*
X1496Y889D01*
X1516Y889D02*
X1539Y889D01*
X1559Y889D02*
X1565Y889D01*
X1585Y889D02*
X1591Y889D01*
X1607Y889D02*
X1637Y889D01*
X1656Y889D02*
X1684Y889D01*
X563Y888D02*
X572Y888D01*
X589Y888D02*
X595Y888D01*
X614Y888D02*
X639Y888D01*
X658Y888D02*
X664Y888D01*
X684Y888D02*
X690Y888D01*
X709Y888D02*
X734Y888D01*
X779Y888D02*
X785Y888D01*
X802Y888D02*
X824Y888D01*
X848Y888D02*
X857Y888D01*
X874Y888D02*
X879Y888D01*
X896Y888D02*
X924Y888D01*
X946Y888D02*
X971Y888D01*
X990Y888D02*
X1019Y888D01*
X1041Y888D02*
X1066Y888D01*
X1111Y888D02*
X1117Y888D01*
X1133Y888D02*
X1141Y888D01*
X1158Y888D02*
X1164Y888D01*
X1183Y888D02*
X1208Y888D01*
X1227Y888D02*
X1233Y888D01*
X1253Y888D02*
X1259Y888D01*
X1324Y888D02*
X1353Y888D01*
X1396Y888D02*
X1401Y888D01*
X1417Y888D02*
X1423Y888D01*
X1425Y888D02*
X1446Y888D01*
X1465Y888D02*
X1473Y888D01*
X1491Y888D02*
X1496Y888D01*
X1515Y888D02*
X1540Y888D01*
X1559Y888D02*
X1565Y888D01*
X1585Y888D02*
X1591Y888D01*
X1607Y888D02*
X1637Y888D01*
X1656Y888D02*
X1684Y888D01*
X563Y887D02*
X571Y887D01*
X589Y887D02*
X595Y887D01*
X614Y887D02*
X639Y887D01*
X658Y887D02*
X664Y887D01*
X684Y887D02*
X690Y887D01*
X710Y887D02*
X733Y887D01*
X779Y887D02*
X785Y887D01*
X803Y887D02*
X823Y887D01*
X848Y887D02*
X856Y887D01*
X874Y887D02*
X879Y887D01*
X895Y887D02*
X923Y887D01*
X946Y887D02*
X971Y887D01*
X990Y887D02*
X1017Y887D01*
X1042Y887D02*
X1065Y887D01*
X1111Y887D02*
X1117Y887D01*
X1132Y887D02*
X1140Y887D01*
X1158Y887D02*
X1164Y887D01*
X1183Y887D02*
X1208Y887D01*
X1227Y887D02*
X1233Y887D01*
X1253Y887D02*
X1259Y887D01*
X1325Y887D02*
X1353Y887D01*
X1396Y887D02*
X1401Y887D01*
X1417Y887D02*
X1423Y887D01*
X1427Y887D02*
X1446Y887D01*
X1465Y887D02*
X1472Y887D01*
X1491Y887D02*
X1496Y887D01*
X1515Y887D02*
X1540Y887D01*
X1559Y887D02*
X1565Y887D01*
X1585Y887D02*
X1591Y887D01*
X1607Y887D02*
X1636Y887D01*
X1657Y887D02*
X1683Y887D01*
X563Y886D02*
X570Y886D01*
X589Y886D02*
X595Y886D01*
X614Y886D02*
X639Y886D01*
X658Y886D02*
X664Y886D01*
X684Y886D02*
X690Y886D01*
X711Y886D02*
X732Y886D01*
X779Y886D02*
X784Y886D01*
X804Y886D02*
X822Y886D01*
X848Y886D02*
X854Y886D01*
X874Y886D02*
X879Y886D01*
X895Y886D02*
X921Y886D01*
X946Y886D02*
X971Y886D01*
X990Y886D02*
X1016Y886D01*
X1043Y886D02*
X1064Y886D01*
X1111Y886D02*
X1117Y886D01*
X1133Y886D02*
X1139Y886D01*
X1159Y886D02*
X1164Y886D01*
X1183Y886D02*
X1208Y886D01*
X1227Y886D02*
X1233Y886D01*
X1253Y886D02*
X1259Y886D01*
X1326Y886D02*
X1351Y886D01*
X1396Y886D02*
X1401Y886D01*
X1417Y886D02*
X1423Y886D01*
X1428Y886D02*
X1445Y886D01*
X1465Y886D02*
X1471Y886D01*
X1491Y886D02*
X1496Y886D01*
X1515Y886D02*
X1540Y886D01*
X1560Y886D02*
X1565Y886D01*
X1586Y886D02*
X1591Y886D01*
X1607Y886D02*
X1612Y886D01*
X1615Y886D02*
X1635Y886D01*
X1657Y886D02*
X1683Y886D01*
X564Y885D02*
X569Y885D01*
X590Y885D02*
X594Y885D01*
X614Y885D02*
X638Y885D01*
X659Y885D02*
X663Y885D01*
X685Y885D02*
X689Y885D01*
X712Y885D02*
X730Y885D01*
X780Y885D02*
X784Y885D01*
X805Y885D02*
X821Y885D01*
X848Y885D02*
X853Y885D01*
X874Y885D02*
X879Y885D01*
X896Y885D02*
X920Y885D01*
X947Y885D02*
X971Y885D01*
X991Y885D02*
X1015Y885D01*
X1045Y885D02*
X1062Y885D01*
X1112Y885D02*
X1116Y885D01*
X1133Y885D02*
X1138Y885D01*
X1159Y885D02*
X1164Y885D01*
X1184Y885D02*
X1208Y885D01*
X1228Y885D02*
X1232Y885D01*
X1254Y885D02*
X1258Y885D01*
X1327Y885D02*
X1350Y885D01*
X1396Y885D02*
X1401Y885D01*
X1418Y885D02*
X1422Y885D01*
X1430Y885D02*
X1443Y885D01*
X1465Y885D02*
X1470Y885D01*
X1491Y885D02*
X1496Y885D01*
X1516Y885D02*
X1540Y885D01*
X1560Y885D02*
X1564Y885D01*
X1586Y885D02*
X1590Y885D01*
X1607Y885D02*
X1612Y885D01*
X1616Y885D02*
X1634Y885D01*
X1658Y885D02*
X1669Y885D01*
X1671Y885D02*
X1682Y885D01*
X565Y884D02*
X567Y884D01*
X591Y884D02*
X593Y884D01*
X615Y884D02*
X637Y884D01*
X660Y884D02*
X662Y884D01*
X686Y884D02*
X688Y884D01*
X714Y884D02*
X728Y884D01*
X781Y884D02*
X783Y884D01*
X807Y884D02*
X819Y884D01*
X849Y884D02*
X852Y884D01*
X875Y884D02*
X878Y884D01*
X897Y884D02*
X918Y884D01*
X948Y884D02*
X970Y884D01*
X992Y884D02*
X1013Y884D01*
X1047Y884D02*
X1060Y884D01*
X1113Y884D02*
X1115Y884D01*
X1134Y884D02*
X1137Y884D01*
X1160Y884D02*
X1163Y884D01*
X1185Y884D02*
X1207Y884D01*
X1229Y884D02*
X1231Y884D01*
X1255Y884D02*
X1257Y884D01*
X1329Y884D02*
X1347Y884D01*
X1397Y884D02*
X1400Y884D01*
X1419Y884D02*
X1421Y884D01*
X1432Y884D02*
X1441Y884D01*
X1466Y884D02*
X1469Y884D01*
X1492Y884D02*
X1495Y884D01*
X1517Y884D02*
X1539Y884D01*
X1561Y884D02*
X1563Y884D01*
X1587Y884D02*
X1589Y884D01*
X1608Y884D02*
X1611Y884D01*
X1618Y884D02*
X1632Y884D01*
X1659Y884D02*
X1668Y884D01*
X1672Y884D02*
X1681Y884D01*
X824Y750D02*
X830Y750D01*
X1345Y750D02*
X1352Y750D01*
X823Y749D02*
X831Y749D01*
X1345Y749D02*
X1353Y749D01*
X791Y748D02*
X791Y748D01*
X823Y748D02*
X831Y748D01*
X980Y748D02*
X981Y748D01*
X1002Y748D02*
X1002Y748D01*
X1062Y748D02*
X1072Y748D01*
X1144Y748D02*
X1145Y748D01*
X1170Y748D02*
X1171Y748D01*
X1344Y748D02*
X1353Y748D01*
X1619Y748D02*
X1629Y748D01*
X789Y747D02*
X793Y747D01*
X823Y747D02*
X831Y747D01*
X979Y747D02*
X983Y747D01*
X1000Y747D02*
X1004Y747D01*
X1061Y747D02*
X1074Y747D01*
X1142Y747D02*
X1146Y747D01*
X1168Y747D02*
X1172Y747D01*
X1344Y747D02*
X1353Y747D01*
X1617Y747D02*
X1633Y747D01*
X788Y746D02*
X793Y746D01*
X823Y746D02*
X831Y746D01*
X978Y746D02*
X983Y746D01*
X999Y746D02*
X1005Y746D01*
X1060Y746D02*
X1075Y746D01*
X1142Y746D02*
X1147Y746D01*
X1168Y746D02*
X1173Y746D01*
X1344Y746D02*
X1353Y746D01*
X1616Y746D02*
X1634Y746D01*
X788Y745D02*
X794Y745D01*
X823Y745D02*
X831Y745D01*
X978Y745D02*
X983Y745D01*
X999Y745D02*
X1005Y745D01*
X1060Y745D02*
X1075Y745D01*
X1142Y745D02*
X1147Y745D01*
X1168Y745D02*
X1173Y745D01*
X1344Y745D02*
X1353Y745D01*
X1616Y745D02*
X1635Y745D01*
X788Y744D02*
X794Y744D01*
X823Y744D02*
X831Y744D01*
X978Y744D02*
X983Y744D01*
X999Y744D02*
X1005Y744D01*
X1060Y744D02*
X1075Y744D01*
X1141Y744D02*
X1147Y744D01*
X1168Y744D02*
X1173Y744D01*
X1344Y744D02*
X1353Y744D01*
X1616Y744D02*
X1636Y744D01*
X788Y743D02*
X794Y743D01*
X823Y743D02*
X831Y743D01*
X978Y743D02*
X983Y743D01*
X999Y743D02*
X1005Y743D01*
X1060Y743D02*
X1074Y743D01*
X1141Y743D02*
X1147Y743D01*
X1168Y743D02*
X1173Y743D01*
X1345Y743D02*
X1353Y743D01*
X1617Y743D02*
X1637Y743D01*
X788Y742D02*
X794Y742D01*
X824Y742D02*
X830Y742D01*
X978Y742D02*
X983Y742D01*
X999Y742D02*
X1005Y742D01*
X1060Y742D02*
X1073Y742D01*
X1141Y742D02*
X1147Y742D01*
X1168Y742D02*
X1173Y742D01*
X1346Y742D02*
X1352Y742D01*
X1618Y742D02*
X1638Y742D01*
X788Y741D02*
X794Y741D01*
X978Y741D02*
X983Y741D01*
X999Y741D02*
X1005Y741D01*
X1060Y741D02*
X1065Y741D01*
X1141Y741D02*
X1147Y741D01*
X1168Y741D02*
X1173Y741D01*
X1631Y741D02*
X1638Y741D01*
X788Y740D02*
X794Y740D01*
X978Y740D02*
X983Y740D01*
X999Y740D02*
X1005Y740D01*
X1060Y740D02*
X1065Y740D01*
X1141Y740D02*
X1147Y740D01*
X1168Y740D02*
X1173Y740D01*
X1632Y740D02*
X1639Y740D01*
X788Y739D02*
X794Y739D01*
X978Y739D02*
X983Y739D01*
X999Y739D02*
X1005Y739D01*
X1060Y739D02*
X1065Y739D01*
X1141Y739D02*
X1147Y739D01*
X1168Y739D02*
X1173Y739D01*
X1633Y739D02*
X1640Y739D01*
X788Y738D02*
X794Y738D01*
X978Y738D02*
X983Y738D01*
X999Y738D02*
X1005Y738D01*
X1060Y738D02*
X1065Y738D01*
X1141Y738D02*
X1147Y738D01*
X1168Y738D02*
X1173Y738D01*
X1633Y738D02*
X1641Y738D01*
X788Y737D02*
X794Y737D01*
X978Y737D02*
X983Y737D01*
X999Y737D02*
X1005Y737D01*
X1060Y737D02*
X1065Y737D01*
X1141Y737D02*
X1147Y737D01*
X1168Y737D02*
X1173Y737D01*
X1634Y737D02*
X1642Y737D01*
X788Y736D02*
X794Y736D01*
X978Y736D02*
X983Y736D01*
X999Y736D02*
X1005Y736D01*
X1060Y736D02*
X1065Y736D01*
X1141Y736D02*
X1147Y736D01*
X1168Y736D02*
X1173Y736D01*
X1635Y736D02*
X1642Y736D01*
X788Y735D02*
X794Y735D01*
X978Y735D02*
X983Y735D01*
X999Y735D02*
X1005Y735D01*
X1060Y735D02*
X1065Y735D01*
X1141Y735D02*
X1147Y735D01*
X1168Y735D02*
X1173Y735D01*
X1636Y735D02*
X1643Y735D01*
X622Y734D02*
X623Y734D01*
X633Y734D02*
X641Y734D01*
X675Y734D02*
X684Y734D01*
X695Y734D02*
X697Y734D01*
X717Y734D02*
X718Y734D01*
X743Y734D02*
X744Y734D01*
X772Y734D02*
X780Y734D01*
X788Y734D02*
X794Y734D01*
X825Y734D02*
X836Y734D01*
X866Y734D02*
X880Y734D01*
X912Y734D02*
X921Y734D01*
X933Y734D02*
X934Y734D01*
X957Y734D02*
X958Y734D01*
X978Y734D02*
X983Y734D01*
X999Y734D02*
X1005Y734D01*
X1013Y734D02*
X1021Y734D01*
X1060Y734D02*
X1065Y734D01*
X1103Y734D02*
X1117Y734D01*
X1141Y734D02*
X1147Y734D01*
X1168Y734D02*
X1173Y734D01*
X1256Y734D02*
X1258Y734D01*
X1265Y734D02*
X1266Y734D01*
X1286Y734D02*
X1287Y734D01*
X1312Y734D02*
X1313Y734D01*
X1347Y734D02*
X1357Y734D01*
X1386Y734D02*
X1403Y734D01*
X1435Y734D02*
X1449Y734D01*
X1482Y734D02*
X1489Y734D01*
X1502Y734D02*
X1503Y734D01*
X1540Y734D02*
X1543Y734D01*
X1550Y734D02*
X1551Y734D01*
X1571Y734D02*
X1572Y734D01*
X1597Y734D02*
X1598Y734D01*
X1636Y734D02*
X1644Y734D01*
X621Y733D02*
X625Y733D01*
X631Y733D02*
X644Y733D01*
X672Y733D02*
X685Y733D01*
X694Y733D02*
X698Y733D01*
X715Y733D02*
X719Y733D01*
X742Y733D02*
X745Y733D01*
X770Y733D02*
X783Y733D01*
X788Y733D02*
X794Y733D01*
X823Y733D02*
X837Y733D01*
X863Y733D02*
X881Y733D01*
X910Y733D02*
X922Y733D01*
X931Y733D02*
X935Y733D01*
X956Y733D02*
X960Y733D01*
X978Y733D02*
X983Y733D01*
X999Y733D02*
X1005Y733D01*
X1010Y733D02*
X1023Y733D01*
X1060Y733D02*
X1065Y733D01*
X1100Y733D02*
X1118Y733D01*
X1141Y733D02*
X1147Y733D01*
X1168Y733D02*
X1173Y733D01*
X1241Y733D02*
X1247Y733D01*
X1253Y733D02*
X1261Y733D01*
X1264Y733D02*
X1268Y733D01*
X1285Y733D02*
X1289Y733D01*
X1311Y733D02*
X1315Y733D01*
X1345Y733D02*
X1359Y733D01*
X1383Y733D02*
X1405Y733D01*
X1432Y733D02*
X1450Y733D01*
X1480Y733D02*
X1492Y733D01*
X1500Y733D02*
X1504Y733D01*
X1526Y733D02*
X1532Y733D01*
X1538Y733D02*
X1545Y733D01*
X1548Y733D02*
X1552Y733D01*
X1569Y733D02*
X1573Y733D01*
X1595Y733D02*
X1599Y733D01*
X1637Y733D02*
X1645Y733D01*
X620Y732D02*
X625Y732D01*
X629Y732D02*
X645Y732D01*
X671Y732D02*
X686Y732D01*
X693Y732D02*
X699Y732D01*
X715Y732D02*
X720Y732D01*
X741Y732D02*
X746Y732D01*
X768Y732D02*
X785Y732D01*
X788Y732D02*
X794Y732D01*
X823Y732D02*
X838Y732D01*
X861Y732D02*
X882Y732D01*
X908Y732D02*
X924Y732D01*
X931Y732D02*
X936Y732D01*
X955Y732D02*
X961Y732D01*
X978Y732D02*
X983Y732D01*
X999Y732D02*
X1005Y732D01*
X1009Y732D02*
X1025Y732D01*
X1060Y732D02*
X1065Y732D01*
X1099Y732D02*
X1119Y732D01*
X1141Y732D02*
X1147Y732D01*
X1168Y732D02*
X1173Y732D01*
X1240Y732D02*
X1249Y732D01*
X1252Y732D02*
X1268Y732D01*
X1284Y732D02*
X1289Y732D01*
X1310Y732D02*
X1315Y732D01*
X1345Y732D02*
X1359Y732D01*
X1382Y732D02*
X1407Y732D01*
X1431Y732D02*
X1451Y732D01*
X1478Y732D02*
X1493Y732D01*
X1500Y732D02*
X1505Y732D01*
X1524Y732D02*
X1534Y732D01*
X1537Y732D02*
X1553Y732D01*
X1569Y732D02*
X1574Y732D01*
X1595Y732D02*
X1600Y732D01*
X1638Y732D02*
X1645Y732D01*
X620Y731D02*
X625Y731D01*
X628Y731D02*
X647Y731D01*
X670Y731D02*
X688Y731D01*
X693Y731D02*
X699Y731D01*
X715Y731D02*
X720Y731D01*
X741Y731D02*
X746Y731D01*
X767Y731D02*
X786Y731D01*
X788Y731D02*
X794Y731D01*
X823Y731D02*
X838Y731D01*
X860Y731D02*
X882Y731D01*
X907Y731D02*
X925Y731D01*
X930Y731D02*
X936Y731D01*
X955Y731D02*
X962Y731D01*
X978Y731D02*
X983Y731D01*
X999Y731D02*
X1005Y731D01*
X1007Y731D02*
X1026Y731D01*
X1060Y731D02*
X1065Y731D01*
X1098Y731D02*
X1119Y731D01*
X1141Y731D02*
X1147Y731D01*
X1156Y731D02*
X1158Y731D01*
X1168Y731D02*
X1173Y731D01*
X1239Y731D02*
X1269Y731D01*
X1284Y731D02*
X1289Y731D01*
X1310Y731D02*
X1315Y731D01*
X1344Y731D02*
X1360Y731D01*
X1381Y731D02*
X1408Y731D01*
X1430Y731D02*
X1451Y731D01*
X1477Y731D02*
X1495Y731D01*
X1500Y731D02*
X1505Y731D01*
X1523Y731D02*
X1553Y731D01*
X1568Y731D02*
X1574Y731D01*
X1595Y731D02*
X1600Y731D01*
X1639Y731D02*
X1646Y731D01*
X620Y730D02*
X648Y730D01*
X669Y730D02*
X689Y730D01*
X693Y730D02*
X699Y730D01*
X715Y730D02*
X720Y730D01*
X741Y730D02*
X746Y730D01*
X766Y730D02*
X794Y730D01*
X823Y730D02*
X838Y730D01*
X860Y730D02*
X882Y730D01*
X906Y730D02*
X926Y730D01*
X930Y730D02*
X936Y730D01*
X955Y730D02*
X964Y730D01*
X978Y730D02*
X983Y730D01*
X999Y730D02*
X1027Y730D01*
X1060Y730D02*
X1065Y730D01*
X1097Y730D02*
X1119Y730D01*
X1141Y730D02*
X1147Y730D01*
X1155Y730D02*
X1160Y730D01*
X1168Y730D02*
X1173Y730D01*
X1238Y730D02*
X1269Y730D01*
X1284Y730D02*
X1289Y730D01*
X1310Y730D02*
X1315Y730D01*
X1344Y730D02*
X1360Y730D01*
X1380Y730D02*
X1408Y730D01*
X1429Y730D02*
X1451Y730D01*
X1476Y730D02*
X1496Y730D01*
X1500Y730D02*
X1505Y730D01*
X1522Y730D02*
X1553Y730D01*
X1568Y730D02*
X1574Y730D01*
X1594Y730D02*
X1600Y730D01*
X1640Y730D02*
X1646Y730D01*
X620Y729D02*
X649Y729D01*
X668Y729D02*
X690Y729D01*
X693Y729D02*
X699Y729D01*
X715Y729D02*
X720Y729D01*
X741Y729D02*
X746Y729D01*
X765Y729D02*
X794Y729D01*
X823Y729D02*
X837Y729D01*
X859Y729D02*
X881Y729D01*
X906Y729D02*
X927Y729D01*
X930Y729D02*
X936Y729D01*
X956Y729D02*
X965Y729D01*
X978Y729D02*
X983Y729D01*
X999Y729D02*
X1028Y729D01*
X1060Y729D02*
X1065Y729D01*
X1096Y729D02*
X1119Y729D01*
X1141Y729D02*
X1147Y729D01*
X1155Y729D02*
X1160Y729D01*
X1168Y729D02*
X1173Y729D01*
X1237Y729D02*
X1269Y729D01*
X1284Y729D02*
X1289Y729D01*
X1310Y729D02*
X1315Y729D01*
X1344Y729D02*
X1359Y729D01*
X1380Y729D02*
X1409Y729D01*
X1428Y729D02*
X1451Y729D01*
X1476Y729D02*
X1505Y729D01*
X1522Y729D02*
X1553Y729D01*
X1568Y729D02*
X1574Y729D01*
X1594Y729D02*
X1600Y729D01*
X1640Y729D02*
X1647Y729D01*
X620Y728D02*
X650Y728D01*
X668Y728D02*
X691Y728D01*
X693Y728D02*
X699Y728D01*
X715Y728D02*
X720Y728D01*
X741Y728D02*
X746Y728D01*
X764Y728D02*
X794Y728D01*
X823Y728D02*
X836Y728D01*
X858Y728D02*
X880Y728D01*
X905Y728D02*
X928Y728D01*
X930Y728D02*
X936Y728D01*
X957Y728D02*
X966Y728D01*
X978Y728D02*
X983Y728D01*
X999Y728D02*
X1029Y728D01*
X1060Y728D02*
X1065Y728D01*
X1096Y728D02*
X1117Y728D01*
X1141Y728D02*
X1147Y728D01*
X1155Y728D02*
X1160Y728D01*
X1168Y728D02*
X1173Y728D01*
X1237Y728D02*
X1269Y728D01*
X1284Y728D02*
X1289Y728D01*
X1310Y728D02*
X1315Y728D01*
X1344Y728D02*
X1358Y728D01*
X1379Y728D02*
X1409Y728D01*
X1428Y728D02*
X1450Y728D01*
X1475Y728D02*
X1505Y728D01*
X1522Y728D02*
X1553Y728D01*
X1568Y728D02*
X1574Y728D01*
X1594Y728D02*
X1600Y728D01*
X1641Y728D02*
X1647Y728D01*
X620Y727D02*
X632Y727D01*
X642Y727D02*
X650Y727D01*
X668Y727D02*
X674Y727D01*
X683Y727D02*
X699Y727D01*
X715Y727D02*
X720Y727D01*
X741Y727D02*
X746Y727D01*
X763Y727D02*
X772Y727D01*
X781Y727D02*
X794Y727D01*
X823Y727D02*
X828Y727D01*
X858Y727D02*
X865Y727D01*
X905Y727D02*
X911Y727D01*
X920Y727D02*
X936Y727D01*
X958Y727D02*
X967Y727D01*
X978Y727D02*
X983Y727D01*
X999Y727D02*
X1012Y727D01*
X1022Y727D02*
X1030Y727D01*
X1060Y727D02*
X1065Y727D01*
X1095Y727D02*
X1102Y727D01*
X1141Y727D02*
X1147Y727D01*
X1155Y727D02*
X1160Y727D01*
X1168Y727D02*
X1173Y727D01*
X1237Y727D02*
X1243Y727D01*
X1246Y727D02*
X1255Y727D01*
X1259Y727D02*
X1269Y727D01*
X1284Y727D02*
X1289Y727D01*
X1310Y727D02*
X1315Y727D01*
X1344Y727D02*
X1350Y727D01*
X1380Y727D02*
X1386Y727D01*
X1403Y727D02*
X1409Y727D01*
X1427Y727D02*
X1434Y727D01*
X1475Y727D02*
X1482Y727D01*
X1490Y727D02*
X1505Y727D01*
X1522Y727D02*
X1527Y727D01*
X1530Y727D02*
X1540Y727D01*
X1543Y727D02*
X1553Y727D01*
X1568Y727D02*
X1574Y727D01*
X1594Y727D02*
X1600Y727D01*
X1641Y727D02*
X1647Y727D01*
X620Y726D02*
X631Y726D01*
X643Y726D02*
X651Y726D01*
X667Y726D02*
X673Y726D01*
X684Y726D02*
X699Y726D01*
X715Y726D02*
X720Y726D01*
X741Y726D02*
X746Y726D01*
X763Y726D02*
X770Y726D01*
X782Y726D02*
X794Y726D01*
X823Y726D02*
X828Y726D01*
X858Y726D02*
X864Y726D01*
X904Y726D02*
X910Y726D01*
X921Y726D02*
X936Y726D01*
X959Y726D02*
X968Y726D01*
X978Y726D02*
X983Y726D01*
X999Y726D02*
X1011Y726D01*
X1023Y726D02*
X1030Y726D01*
X1060Y726D02*
X1065Y726D01*
X1095Y726D02*
X1101Y726D01*
X1141Y726D02*
X1147Y726D01*
X1155Y726D02*
X1160Y726D01*
X1168Y726D02*
X1173Y726D01*
X1237Y726D02*
X1242Y726D01*
X1247Y726D02*
X1255Y726D01*
X1260Y726D02*
X1269Y726D01*
X1284Y726D02*
X1289Y726D01*
X1310Y726D02*
X1315Y726D01*
X1344Y726D02*
X1350Y726D01*
X1380Y726D02*
X1384Y726D01*
X1404Y726D02*
X1410Y726D01*
X1427Y726D02*
X1433Y726D01*
X1475Y726D02*
X1481Y726D01*
X1491Y726D02*
X1505Y726D01*
X1522Y726D02*
X1527Y726D01*
X1531Y726D02*
X1540Y726D01*
X1545Y726D02*
X1553Y726D01*
X1568Y726D02*
X1574Y726D01*
X1594Y726D02*
X1600Y726D01*
X1642Y726D02*
X1647Y726D01*
X620Y725D02*
X630Y725D01*
X644Y725D02*
X651Y725D01*
X667Y725D02*
X673Y725D01*
X685Y725D02*
X699Y725D01*
X715Y725D02*
X720Y725D01*
X740Y725D02*
X746Y725D01*
X762Y725D02*
X769Y725D01*
X783Y725D02*
X794Y725D01*
X823Y725D02*
X828Y725D01*
X858Y725D02*
X864Y725D01*
X904Y725D02*
X910Y725D01*
X922Y725D02*
X936Y725D01*
X960Y725D02*
X969Y725D01*
X978Y725D02*
X983Y725D01*
X999Y725D02*
X1010Y725D01*
X1024Y725D02*
X1031Y725D01*
X1060Y725D02*
X1065Y725D01*
X1095Y725D02*
X1101Y725D01*
X1141Y725D02*
X1147Y725D01*
X1155Y725D02*
X1160Y725D01*
X1168Y725D02*
X1173Y725D01*
X1237Y725D02*
X1242Y725D01*
X1248Y725D02*
X1255Y725D01*
X1261Y725D02*
X1269Y725D01*
X1284Y725D02*
X1289Y725D01*
X1310Y725D02*
X1315Y725D01*
X1344Y725D02*
X1350Y725D01*
X1382Y725D02*
X1383Y725D01*
X1404Y725D02*
X1409Y725D01*
X1427Y725D02*
X1433Y725D01*
X1474Y725D02*
X1480Y725D01*
X1493Y725D02*
X1505Y725D01*
X1521Y725D02*
X1527Y725D01*
X1533Y725D02*
X1540Y725D01*
X1546Y725D02*
X1553Y725D01*
X1569Y725D02*
X1575Y725D01*
X1594Y725D02*
X1600Y725D01*
X1642Y725D02*
X1648Y725D01*
X620Y724D02*
X629Y724D01*
X645Y724D02*
X651Y724D01*
X667Y724D02*
X673Y724D01*
X686Y724D02*
X699Y724D01*
X715Y724D02*
X720Y724D01*
X740Y724D02*
X746Y724D01*
X762Y724D02*
X768Y724D01*
X785Y724D02*
X794Y724D01*
X823Y724D02*
X828Y724D01*
X858Y724D02*
X863Y724D01*
X904Y724D02*
X910Y724D01*
X924Y724D02*
X936Y724D01*
X961Y724D02*
X971Y724D01*
X978Y724D02*
X983Y724D01*
X999Y724D02*
X1008Y724D01*
X1025Y724D02*
X1031Y724D01*
X1060Y724D02*
X1065Y724D01*
X1095Y724D02*
X1101Y724D01*
X1141Y724D02*
X1147Y724D01*
X1155Y724D02*
X1160Y724D01*
X1168Y724D02*
X1173Y724D01*
X1237Y724D02*
X1242Y724D01*
X1249Y724D02*
X1255Y724D01*
X1262Y724D02*
X1269Y724D01*
X1284Y724D02*
X1289Y724D01*
X1310Y724D02*
X1315Y724D01*
X1344Y724D02*
X1350Y724D01*
X1403Y724D02*
X1409Y724D01*
X1427Y724D02*
X1433Y724D01*
X1474Y724D02*
X1480Y724D01*
X1494Y724D02*
X1505Y724D01*
X1521Y724D02*
X1527Y724D01*
X1534Y724D02*
X1540Y724D01*
X1547Y724D02*
X1553Y724D01*
X1569Y724D02*
X1575Y724D01*
X1594Y724D02*
X1600Y724D01*
X1642Y724D02*
X1648Y724D01*
X620Y723D02*
X628Y723D01*
X646Y723D02*
X651Y723D01*
X667Y723D02*
X673Y723D01*
X688Y723D02*
X699Y723D01*
X715Y723D02*
X720Y723D01*
X740Y723D02*
X746Y723D01*
X762Y723D02*
X768Y723D01*
X786Y723D02*
X794Y723D01*
X823Y723D02*
X828Y723D01*
X858Y723D02*
X863Y723D01*
X904Y723D02*
X910Y723D01*
X925Y723D02*
X936Y723D01*
X963Y723D02*
X972Y723D01*
X978Y723D02*
X983Y723D01*
X999Y723D02*
X1007Y723D01*
X1025Y723D02*
X1031Y723D01*
X1060Y723D02*
X1065Y723D01*
X1095Y723D02*
X1101Y723D01*
X1141Y723D02*
X1147Y723D01*
X1155Y723D02*
X1160Y723D01*
X1168Y723D02*
X1173Y723D01*
X1237Y723D02*
X1242Y723D01*
X1249Y723D02*
X1255Y723D01*
X1263Y723D02*
X1269Y723D01*
X1284Y723D02*
X1289Y723D01*
X1310Y723D02*
X1315Y723D01*
X1344Y723D02*
X1350Y723D01*
X1400Y723D02*
X1409Y723D01*
X1427Y723D02*
X1433Y723D01*
X1474Y723D02*
X1480Y723D01*
X1496Y723D02*
X1505Y723D01*
X1521Y723D02*
X1527Y723D01*
X1534Y723D02*
X1540Y723D01*
X1548Y723D02*
X1553Y723D01*
X1569Y723D02*
X1575Y723D01*
X1593Y723D02*
X1599Y723D01*
X1642Y723D02*
X1648Y723D01*
X620Y722D02*
X627Y722D01*
X646Y722D02*
X651Y722D01*
X667Y722D02*
X673Y722D01*
X689Y722D02*
X699Y722D01*
X715Y722D02*
X720Y722D01*
X740Y722D02*
X746Y722D01*
X762Y722D02*
X768Y722D01*
X787Y722D02*
X794Y722D01*
X823Y722D02*
X828Y722D01*
X858Y722D02*
X863Y722D01*
X904Y722D02*
X910Y722D01*
X926Y722D02*
X936Y722D01*
X964Y722D02*
X973Y722D01*
X978Y722D02*
X983Y722D01*
X999Y722D02*
X1006Y722D01*
X1025Y722D02*
X1031Y722D01*
X1060Y722D02*
X1065Y722D01*
X1095Y722D02*
X1101Y722D01*
X1141Y722D02*
X1147Y722D01*
X1155Y722D02*
X1160Y722D01*
X1168Y722D02*
X1173Y722D01*
X1237Y722D02*
X1242Y722D01*
X1249Y722D02*
X1255Y722D01*
X1263Y722D02*
X1269Y722D01*
X1284Y722D02*
X1289Y722D01*
X1310Y722D02*
X1315Y722D01*
X1344Y722D02*
X1350Y722D01*
X1398Y722D02*
X1409Y722D01*
X1427Y722D02*
X1433Y722D01*
X1474Y722D02*
X1480Y722D01*
X1498Y722D02*
X1505Y722D01*
X1521Y722D02*
X1527Y722D01*
X1534Y722D02*
X1540Y722D01*
X1548Y722D02*
X1553Y722D01*
X1570Y722D02*
X1576Y722D01*
X1593Y722D02*
X1599Y722D01*
X1642Y722D02*
X1648Y722D01*
X620Y721D02*
X626Y721D01*
X646Y721D02*
X651Y721D01*
X668Y721D02*
X672Y721D01*
X690Y721D02*
X699Y721D01*
X715Y721D02*
X720Y721D01*
X740Y721D02*
X746Y721D01*
X762Y721D02*
X768Y721D01*
X788Y721D02*
X794Y721D01*
X823Y721D02*
X828Y721D01*
X858Y721D02*
X863Y721D01*
X905Y721D02*
X910Y721D01*
X927Y721D02*
X936Y721D01*
X965Y721D02*
X974Y721D01*
X978Y721D02*
X983Y721D01*
X999Y721D02*
X1005Y721D01*
X1025Y721D02*
X1031Y721D01*
X1060Y721D02*
X1065Y721D01*
X1095Y721D02*
X1101Y721D01*
X1141Y721D02*
X1147Y721D01*
X1155Y721D02*
X1160Y721D01*
X1168Y721D02*
X1173Y721D01*
X1237Y721D02*
X1242Y721D01*
X1249Y721D02*
X1255Y721D01*
X1263Y721D02*
X1269Y721D01*
X1284Y721D02*
X1289Y721D01*
X1310Y721D02*
X1315Y721D01*
X1344Y721D02*
X1350Y721D01*
X1396Y721D02*
X1408Y721D01*
X1427Y721D02*
X1433Y721D01*
X1474Y721D02*
X1480Y721D01*
X1499Y721D02*
X1505Y721D01*
X1521Y721D02*
X1527Y721D01*
X1534Y721D02*
X1540Y721D01*
X1548Y721D02*
X1553Y721D01*
X1570Y721D02*
X1576Y721D01*
X1592Y721D02*
X1599Y721D01*
X1642Y721D02*
X1648Y721D01*
X620Y720D02*
X625Y720D01*
X646Y720D02*
X651Y720D01*
X668Y720D02*
X671Y720D01*
X691Y720D02*
X699Y720D01*
X715Y720D02*
X720Y720D01*
X740Y720D02*
X746Y720D01*
X762Y720D02*
X768Y720D01*
X788Y720D02*
X794Y720D01*
X823Y720D02*
X828Y720D01*
X858Y720D02*
X881Y720D01*
X906Y720D02*
X909Y720D01*
X928Y720D02*
X936Y720D01*
X966Y720D02*
X975Y720D01*
X978Y720D02*
X983Y720D01*
X999Y720D02*
X1005Y720D01*
X1025Y720D02*
X1031Y720D01*
X1060Y720D02*
X1065Y720D01*
X1095Y720D02*
X1118Y720D01*
X1141Y720D02*
X1147Y720D01*
X1155Y720D02*
X1160Y720D01*
X1168Y720D02*
X1173Y720D01*
X1237Y720D02*
X1242Y720D01*
X1249Y720D02*
X1255Y720D01*
X1263Y720D02*
X1269Y720D01*
X1284Y720D02*
X1289Y720D01*
X1310Y720D02*
X1315Y720D01*
X1344Y720D02*
X1350Y720D01*
X1393Y720D02*
X1407Y720D01*
X1427Y720D02*
X1450Y720D01*
X1474Y720D02*
X1480Y720D01*
X1500Y720D02*
X1505Y720D01*
X1521Y720D02*
X1527Y720D01*
X1534Y720D02*
X1540Y720D01*
X1548Y720D02*
X1553Y720D01*
X1571Y720D02*
X1577Y720D01*
X1592Y720D02*
X1598Y720D01*
X1616Y720D02*
X1629Y720D01*
X1642Y720D02*
X1648Y720D01*
X620Y719D02*
X625Y719D01*
X646Y719D02*
X651Y719D01*
X692Y719D02*
X699Y719D01*
X715Y719D02*
X720Y719D01*
X740Y719D02*
X746Y719D01*
X762Y719D02*
X768Y719D01*
X788Y719D02*
X794Y719D01*
X823Y719D02*
X828Y719D01*
X858Y719D02*
X884Y719D01*
X929Y719D02*
X936Y719D01*
X967Y719D02*
X983Y719D01*
X999Y719D02*
X1005Y719D01*
X1025Y719D02*
X1031Y719D01*
X1060Y719D02*
X1065Y719D01*
X1095Y719D02*
X1121Y719D01*
X1141Y719D02*
X1147Y719D01*
X1155Y719D02*
X1160Y719D01*
X1168Y719D02*
X1173Y719D01*
X1237Y719D02*
X1242Y719D01*
X1249Y719D02*
X1255Y719D01*
X1263Y719D02*
X1269Y719D01*
X1284Y719D02*
X1289Y719D01*
X1310Y719D02*
X1315Y719D01*
X1344Y719D02*
X1350Y719D01*
X1391Y719D02*
X1406Y719D01*
X1427Y719D02*
X1453Y719D01*
X1474Y719D02*
X1480Y719D01*
X1500Y719D02*
X1505Y719D01*
X1521Y719D02*
X1527Y719D01*
X1534Y719D02*
X1540Y719D01*
X1548Y719D02*
X1553Y719D01*
X1571Y719D02*
X1577Y719D01*
X1591Y719D02*
X1598Y719D01*
X1616Y719D02*
X1631Y719D01*
X1642Y719D02*
X1648Y719D01*
X620Y718D02*
X625Y718D01*
X646Y718D02*
X651Y718D01*
X693Y718D02*
X699Y718D01*
X715Y718D02*
X720Y718D01*
X740Y718D02*
X746Y718D01*
X762Y718D02*
X768Y718D01*
X788Y718D02*
X794Y718D01*
X823Y718D02*
X828Y718D01*
X858Y718D02*
X885Y718D01*
X930Y718D02*
X936Y718D01*
X968Y718D02*
X983Y718D01*
X999Y718D02*
X1005Y718D01*
X1025Y718D02*
X1031Y718D01*
X1060Y718D02*
X1065Y718D01*
X1095Y718D02*
X1122Y718D01*
X1141Y718D02*
X1147Y718D01*
X1155Y718D02*
X1160Y718D01*
X1168Y718D02*
X1173Y718D01*
X1237Y718D02*
X1242Y718D01*
X1249Y718D02*
X1255Y718D01*
X1263Y718D02*
X1269Y718D01*
X1284Y718D02*
X1289Y718D01*
X1309Y718D02*
X1315Y718D01*
X1344Y718D02*
X1350Y718D01*
X1389Y718D02*
X1404Y718D01*
X1427Y718D02*
X1454Y718D01*
X1474Y718D02*
X1480Y718D01*
X1500Y718D02*
X1505Y718D01*
X1521Y718D02*
X1527Y718D01*
X1534Y718D02*
X1540Y718D01*
X1548Y718D02*
X1553Y718D01*
X1571Y718D02*
X1578Y718D01*
X1591Y718D02*
X1597Y718D01*
X1616Y718D02*
X1631Y718D01*
X1642Y718D02*
X1648Y718D01*
X620Y717D02*
X625Y717D01*
X646Y717D02*
X651Y717D01*
X693Y717D02*
X699Y717D01*
X715Y717D02*
X720Y717D01*
X740Y717D02*
X746Y717D01*
X762Y717D02*
X768Y717D01*
X788Y717D02*
X794Y717D01*
X823Y717D02*
X828Y717D01*
X857Y717D02*
X886Y717D01*
X930Y717D02*
X936Y717D01*
X969Y717D02*
X983Y717D01*
X999Y717D02*
X1005Y717D01*
X1025Y717D02*
X1031Y717D01*
X1060Y717D02*
X1065Y717D01*
X1095Y717D02*
X1123Y717D01*
X1141Y717D02*
X1147Y717D01*
X1155Y717D02*
X1160Y717D01*
X1168Y717D02*
X1173Y717D01*
X1237Y717D02*
X1242Y717D01*
X1249Y717D02*
X1255Y717D01*
X1263Y717D02*
X1269Y717D01*
X1284Y717D02*
X1289Y717D01*
X1309Y717D02*
X1315Y717D01*
X1344Y717D02*
X1350Y717D01*
X1387Y717D02*
X1402Y717D01*
X1427Y717D02*
X1455Y717D01*
X1474Y717D02*
X1480Y717D01*
X1500Y717D02*
X1505Y717D01*
X1521Y717D02*
X1527Y717D01*
X1534Y717D02*
X1540Y717D01*
X1548Y717D02*
X1553Y717D01*
X1572Y717D02*
X1578Y717D01*
X1591Y717D02*
X1597Y717D01*
X1616Y717D02*
X1631Y717D01*
X1642Y717D02*
X1648Y717D01*
X620Y716D02*
X625Y716D01*
X646Y716D02*
X651Y716D01*
X693Y716D02*
X699Y716D01*
X715Y716D02*
X720Y716D01*
X740Y716D02*
X746Y716D01*
X762Y716D02*
X768Y716D01*
X788Y716D02*
X794Y716D01*
X823Y716D02*
X828Y716D01*
X857Y716D02*
X887Y716D01*
X930Y716D02*
X936Y716D01*
X968Y716D02*
X983Y716D01*
X999Y716D02*
X1005Y716D01*
X1025Y716D02*
X1031Y716D01*
X1060Y716D02*
X1065Y716D01*
X1095Y716D02*
X1124Y716D01*
X1141Y716D02*
X1147Y716D01*
X1155Y716D02*
X1160Y716D01*
X1168Y716D02*
X1173Y716D01*
X1237Y716D02*
X1242Y716D01*
X1249Y716D02*
X1255Y716D01*
X1263Y716D02*
X1269Y716D01*
X1284Y716D02*
X1289Y716D01*
X1309Y716D02*
X1315Y716D01*
X1344Y716D02*
X1350Y716D01*
X1384Y716D02*
X1400Y716D01*
X1427Y716D02*
X1456Y716D01*
X1474Y716D02*
X1480Y716D01*
X1500Y716D02*
X1505Y716D01*
X1521Y716D02*
X1527Y716D01*
X1534Y716D02*
X1540Y716D01*
X1548Y716D02*
X1553Y716D01*
X1572Y716D02*
X1579Y716D01*
X1590Y716D02*
X1596Y716D01*
X1616Y716D02*
X1631Y716D01*
X1642Y716D02*
X1648Y716D01*
X620Y715D02*
X625Y715D01*
X646Y715D02*
X651Y715D01*
X693Y715D02*
X699Y715D01*
X715Y715D02*
X720Y715D01*
X740Y715D02*
X746Y715D01*
X762Y715D02*
X768Y715D01*
X788Y715D02*
X794Y715D01*
X823Y715D02*
X828Y715D01*
X857Y715D02*
X887Y715D01*
X930Y715D02*
X936Y715D01*
X967Y715D02*
X983Y715D01*
X999Y715D02*
X1005Y715D01*
X1025Y715D02*
X1031Y715D01*
X1060Y715D02*
X1065Y715D01*
X1095Y715D02*
X1125Y715D01*
X1141Y715D02*
X1147Y715D01*
X1155Y715D02*
X1160Y715D01*
X1168Y715D02*
X1173Y715D01*
X1236Y715D02*
X1242Y715D01*
X1249Y715D02*
X1255Y715D01*
X1263Y715D02*
X1269Y715D01*
X1284Y715D02*
X1289Y715D01*
X1309Y715D02*
X1315Y715D01*
X1344Y715D02*
X1350Y715D01*
X1383Y715D02*
X1397Y715D01*
X1427Y715D02*
X1457Y715D01*
X1474Y715D02*
X1480Y715D01*
X1500Y715D02*
X1505Y715D01*
X1521Y715D02*
X1527Y715D01*
X1534Y715D02*
X1540Y715D01*
X1548Y715D02*
X1553Y715D01*
X1573Y715D02*
X1579Y715D01*
X1590Y715D02*
X1596Y715D01*
X1616Y715D02*
X1631Y715D01*
X1642Y715D02*
X1648Y715D01*
X620Y714D02*
X625Y714D01*
X646Y714D02*
X651Y714D01*
X693Y714D02*
X699Y714D01*
X715Y714D02*
X720Y714D01*
X740Y714D02*
X746Y714D01*
X762Y714D02*
X768Y714D01*
X788Y714D02*
X794Y714D01*
X823Y714D02*
X828Y714D01*
X857Y714D02*
X888Y714D01*
X930Y714D02*
X936Y714D01*
X966Y714D02*
X983Y714D01*
X999Y714D02*
X1005Y714D01*
X1025Y714D02*
X1031Y714D01*
X1060Y714D02*
X1065Y714D01*
X1095Y714D02*
X1125Y714D01*
X1141Y714D02*
X1147Y714D01*
X1155Y714D02*
X1160Y714D01*
X1168Y714D02*
X1173Y714D01*
X1236Y714D02*
X1242Y714D01*
X1249Y714D02*
X1255Y714D01*
X1263Y714D02*
X1269Y714D01*
X1284Y714D02*
X1289Y714D01*
X1309Y714D02*
X1315Y714D01*
X1344Y714D02*
X1350Y714D01*
X1382Y714D02*
X1395Y714D01*
X1427Y714D02*
X1457Y714D01*
X1474Y714D02*
X1480Y714D01*
X1500Y714D02*
X1505Y714D01*
X1521Y714D02*
X1527Y714D01*
X1534Y714D02*
X1540Y714D01*
X1548Y714D02*
X1553Y714D01*
X1573Y714D02*
X1579Y714D01*
X1589Y714D02*
X1595Y714D01*
X1616Y714D02*
X1629Y714D01*
X1642Y714D02*
X1648Y714D01*
X620Y713D02*
X626Y713D01*
X646Y713D02*
X651Y713D01*
X693Y713D02*
X699Y713D01*
X715Y713D02*
X720Y713D01*
X740Y713D02*
X746Y713D01*
X762Y713D02*
X768Y713D01*
X788Y713D02*
X794Y713D01*
X823Y713D02*
X828Y713D01*
X857Y713D02*
X864Y713D01*
X882Y713D02*
X888Y713D01*
X930Y713D02*
X936Y713D01*
X965Y713D02*
X983Y713D01*
X999Y713D02*
X1005Y713D01*
X1025Y713D02*
X1031Y713D01*
X1060Y713D02*
X1065Y713D01*
X1095Y713D02*
X1102Y713D01*
X1119Y713D02*
X1125Y713D01*
X1141Y713D02*
X1147Y713D01*
X1155Y713D02*
X1160Y713D01*
X1168Y713D02*
X1173Y713D01*
X1236Y713D02*
X1242Y713D01*
X1249Y713D02*
X1255Y713D01*
X1263Y713D02*
X1269Y713D01*
X1284Y713D02*
X1289Y713D01*
X1309Y713D02*
X1315Y713D01*
X1344Y713D02*
X1350Y713D01*
X1381Y713D02*
X1393Y713D01*
X1427Y713D02*
X1434Y713D01*
X1451Y713D02*
X1457Y713D01*
X1474Y713D02*
X1480Y713D01*
X1500Y713D02*
X1505Y713D01*
X1521Y713D02*
X1527Y713D01*
X1534Y713D02*
X1540Y713D01*
X1548Y713D02*
X1553Y713D01*
X1574Y713D02*
X1580Y713D01*
X1589Y713D02*
X1595Y713D01*
X1616Y713D02*
X1622Y713D01*
X1642Y713D02*
X1648Y713D01*
X620Y712D02*
X627Y712D01*
X646Y712D02*
X651Y712D01*
X693Y712D02*
X699Y712D01*
X715Y712D02*
X720Y712D01*
X740Y712D02*
X746Y712D01*
X762Y712D02*
X768Y712D01*
X788Y712D02*
X794Y712D01*
X823Y712D02*
X828Y712D01*
X857Y712D02*
X863Y712D01*
X882Y712D02*
X888Y712D01*
X930Y712D02*
X936Y712D01*
X964Y712D02*
X973Y712D01*
X975Y712D02*
X983Y712D01*
X999Y712D02*
X1005Y712D01*
X1025Y712D02*
X1031Y712D01*
X1060Y712D02*
X1065Y712D01*
X1094Y712D02*
X1101Y712D01*
X1120Y712D02*
X1126Y712D01*
X1141Y712D02*
X1147Y712D01*
X1155Y712D02*
X1160Y712D01*
X1168Y712D02*
X1173Y712D01*
X1236Y712D02*
X1242Y712D01*
X1249Y712D02*
X1255Y712D01*
X1263Y712D02*
X1269Y712D01*
X1284Y712D02*
X1289Y712D01*
X1309Y712D02*
X1315Y712D01*
X1344Y712D02*
X1350Y712D01*
X1380Y712D02*
X1391Y712D01*
X1427Y712D02*
X1433Y712D01*
X1452Y712D02*
X1458Y712D01*
X1474Y712D02*
X1480Y712D01*
X1500Y712D02*
X1505Y712D01*
X1521Y712D02*
X1527Y712D01*
X1534Y712D02*
X1540Y712D01*
X1548Y712D02*
X1553Y712D01*
X1574Y712D02*
X1580Y712D01*
X1588Y712D02*
X1595Y712D01*
X1616Y712D02*
X1622Y712D01*
X1642Y712D02*
X1648Y712D01*
X620Y711D02*
X628Y711D01*
X646Y711D02*
X651Y711D01*
X693Y711D02*
X699Y711D01*
X715Y711D02*
X720Y711D01*
X740Y711D02*
X746Y711D01*
X762Y711D02*
X768Y711D01*
X788Y711D02*
X794Y711D01*
X823Y711D02*
X828Y711D01*
X857Y711D02*
X863Y711D01*
X883Y711D02*
X889Y711D01*
X930Y711D02*
X936Y711D01*
X963Y711D02*
X972Y711D01*
X977Y711D02*
X983Y711D01*
X999Y711D02*
X1005Y711D01*
X1025Y711D02*
X1031Y711D01*
X1060Y711D02*
X1065Y711D01*
X1094Y711D02*
X1100Y711D01*
X1120Y711D02*
X1126Y711D01*
X1141Y711D02*
X1147Y711D01*
X1155Y711D02*
X1160Y711D01*
X1168Y711D02*
X1173Y711D01*
X1236Y711D02*
X1242Y711D01*
X1249Y711D02*
X1255Y711D01*
X1263Y711D02*
X1269Y711D01*
X1284Y711D02*
X1289Y711D01*
X1309Y711D02*
X1315Y711D01*
X1344Y711D02*
X1350Y711D01*
X1380Y711D02*
X1388Y711D01*
X1427Y711D02*
X1432Y711D01*
X1452Y711D02*
X1458Y711D01*
X1474Y711D02*
X1480Y711D01*
X1500Y711D02*
X1505Y711D01*
X1521Y711D02*
X1527Y711D01*
X1534Y711D02*
X1540Y711D01*
X1548Y711D02*
X1553Y711D01*
X1574Y711D02*
X1581Y711D01*
X1588Y711D02*
X1594Y711D01*
X1616Y711D02*
X1622Y711D01*
X1642Y711D02*
X1648Y711D01*
X620Y710D02*
X629Y710D01*
X645Y710D02*
X651Y710D01*
X693Y710D02*
X699Y710D01*
X715Y710D02*
X721Y710D01*
X740Y710D02*
X746Y710D01*
X762Y710D02*
X768Y710D01*
X788Y710D02*
X794Y710D01*
X823Y710D02*
X828Y710D01*
X857Y710D02*
X863Y710D01*
X883Y710D02*
X889Y710D01*
X930Y710D02*
X936Y710D01*
X961Y710D02*
X971Y710D01*
X978Y710D02*
X983Y710D01*
X999Y710D02*
X1005Y710D01*
X1025Y710D02*
X1031Y710D01*
X1060Y710D02*
X1065Y710D01*
X1094Y710D02*
X1100Y710D01*
X1120Y710D02*
X1126Y710D01*
X1141Y710D02*
X1147Y710D01*
X1155Y710D02*
X1160Y710D01*
X1168Y710D02*
X1173Y710D01*
X1236Y710D02*
X1242Y710D01*
X1249Y710D02*
X1255Y710D01*
X1263Y710D02*
X1269Y710D01*
X1284Y710D02*
X1290Y710D01*
X1309Y710D02*
X1315Y710D01*
X1344Y710D02*
X1350Y710D01*
X1379Y710D02*
X1386Y710D01*
X1426Y710D02*
X1432Y710D01*
X1452Y710D02*
X1458Y710D01*
X1474Y710D02*
X1480Y710D01*
X1500Y710D02*
X1505Y710D01*
X1521Y710D02*
X1527Y710D01*
X1534Y710D02*
X1540Y710D01*
X1548Y710D02*
X1553Y710D01*
X1575Y710D02*
X1581Y710D01*
X1588Y710D02*
X1594Y710D01*
X1616Y710D02*
X1622Y710D01*
X1642Y710D02*
X1648Y710D01*
X620Y709D02*
X630Y709D01*
X645Y709D02*
X651Y709D01*
X693Y709D02*
X699Y709D01*
X715Y709D02*
X722Y709D01*
X740Y709D02*
X746Y709D01*
X762Y709D02*
X768Y709D01*
X787Y709D02*
X794Y709D01*
X823Y709D02*
X828Y709D01*
X857Y709D02*
X863Y709D01*
X883Y709D02*
X889Y709D01*
X930Y709D02*
X936Y709D01*
X960Y709D02*
X969Y709D01*
X978Y709D02*
X983Y709D01*
X999Y709D02*
X1006Y709D01*
X1025Y709D02*
X1031Y709D01*
X1060Y709D02*
X1065Y709D01*
X1094Y709D02*
X1100Y709D01*
X1120Y709D02*
X1126Y709D01*
X1141Y709D02*
X1147Y709D01*
X1155Y709D02*
X1160Y709D01*
X1168Y709D02*
X1173Y709D01*
X1236Y709D02*
X1242Y709D01*
X1249Y709D02*
X1255Y709D01*
X1263Y709D02*
X1269Y709D01*
X1284Y709D02*
X1292Y709D01*
X1309Y709D02*
X1315Y709D01*
X1344Y709D02*
X1350Y709D01*
X1379Y709D02*
X1385Y709D01*
X1426Y709D02*
X1432Y709D01*
X1452Y709D02*
X1458Y709D01*
X1474Y709D02*
X1480Y709D01*
X1500Y709D02*
X1505Y709D01*
X1521Y709D02*
X1526Y709D01*
X1534Y709D02*
X1540Y709D01*
X1548Y709D02*
X1553Y709D01*
X1575Y709D02*
X1582Y709D01*
X1587Y709D02*
X1593Y709D01*
X1616Y709D02*
X1622Y709D01*
X1642Y709D02*
X1648Y709D01*
X620Y708D02*
X631Y708D01*
X644Y708D02*
X651Y708D01*
X693Y708D02*
X699Y708D01*
X715Y708D02*
X724Y708D01*
X740Y708D02*
X746Y708D01*
X762Y708D02*
X768Y708D01*
X786Y708D02*
X794Y708D01*
X823Y708D02*
X828Y708D01*
X857Y708D02*
X863Y708D01*
X883Y708D02*
X889Y708D01*
X930Y708D02*
X936Y708D01*
X959Y708D02*
X968Y708D01*
X978Y708D02*
X983Y708D01*
X999Y708D02*
X1007Y708D01*
X1025Y708D02*
X1031Y708D01*
X1060Y708D02*
X1065Y708D01*
X1094Y708D02*
X1100Y708D01*
X1120Y708D02*
X1126Y708D01*
X1141Y708D02*
X1147Y708D01*
X1155Y708D02*
X1160Y708D01*
X1168Y708D02*
X1173Y708D01*
X1236Y708D02*
X1242Y708D01*
X1249Y708D02*
X1255Y708D01*
X1263Y708D02*
X1269Y708D01*
X1284Y708D02*
X1293Y708D01*
X1309Y708D02*
X1315Y708D01*
X1344Y708D02*
X1350Y708D01*
X1379Y708D02*
X1385Y708D01*
X1426Y708D02*
X1432Y708D01*
X1452Y708D02*
X1458Y708D01*
X1474Y708D02*
X1479Y708D01*
X1500Y708D02*
X1505Y708D01*
X1521Y708D02*
X1526Y708D01*
X1534Y708D02*
X1540Y708D01*
X1548Y708D02*
X1553Y708D01*
X1576Y708D02*
X1582Y708D01*
X1587Y708D02*
X1593Y708D01*
X1616Y708D02*
X1622Y708D01*
X1642Y708D02*
X1648Y708D01*
X620Y707D02*
X632Y707D01*
X642Y707D02*
X650Y707D01*
X693Y707D02*
X699Y707D01*
X715Y707D02*
X726Y707D01*
X740Y707D02*
X745Y707D01*
X762Y707D02*
X768Y707D01*
X784Y707D02*
X794Y707D01*
X823Y707D02*
X828Y707D01*
X857Y707D02*
X864Y707D01*
X883Y707D02*
X889Y707D01*
X930Y707D02*
X936Y707D01*
X958Y707D02*
X967Y707D01*
X978Y707D02*
X983Y707D01*
X999Y707D02*
X1009Y707D01*
X1025Y707D02*
X1031Y707D01*
X1060Y707D02*
X1065Y707D01*
X1094Y707D02*
X1101Y707D01*
X1120Y707D02*
X1126Y707D01*
X1141Y707D02*
X1147Y707D01*
X1155Y707D02*
X1160Y707D01*
X1168Y707D02*
X1173Y707D01*
X1236Y707D02*
X1242Y707D01*
X1249Y707D02*
X1255Y707D01*
X1263Y707D02*
X1269Y707D01*
X1284Y707D02*
X1295Y707D01*
X1309Y707D02*
X1315Y707D01*
X1344Y707D02*
X1350Y707D01*
X1379Y707D02*
X1385Y707D01*
X1426Y707D02*
X1433Y707D01*
X1452Y707D02*
X1458Y707D01*
X1474Y707D02*
X1479Y707D01*
X1500Y707D02*
X1505Y707D01*
X1521Y707D02*
X1526Y707D01*
X1534Y707D02*
X1540Y707D01*
X1548Y707D02*
X1553Y707D01*
X1576Y707D02*
X1583Y707D01*
X1586Y707D02*
X1592Y707D01*
X1616Y707D02*
X1622Y707D01*
X1642Y707D02*
X1648Y707D01*
X620Y706D02*
X650Y706D01*
X693Y706D02*
X699Y706D01*
X715Y706D02*
X727Y706D01*
X740Y706D02*
X745Y706D01*
X762Y706D02*
X769Y706D01*
X783Y706D02*
X794Y706D01*
X823Y706D02*
X828Y706D01*
X857Y706D02*
X866Y706D01*
X883Y706D02*
X889Y706D01*
X930Y706D02*
X936Y706D01*
X957Y706D02*
X966Y706D01*
X978Y706D02*
X983Y706D01*
X999Y706D02*
X1010Y706D01*
X1024Y706D02*
X1030Y706D01*
X1060Y706D02*
X1065Y706D01*
X1094Y706D02*
X1103Y706D01*
X1120Y706D02*
X1126Y706D01*
X1141Y706D02*
X1148Y706D01*
X1154Y706D02*
X1161Y706D01*
X1167Y706D02*
X1173Y706D01*
X1236Y706D02*
X1242Y706D01*
X1249Y706D02*
X1255Y706D01*
X1263Y706D02*
X1269Y706D01*
X1284Y706D02*
X1296Y706D01*
X1309Y706D02*
X1315Y706D01*
X1344Y706D02*
X1350Y706D01*
X1379Y706D02*
X1385Y706D01*
X1407Y706D02*
X1408Y706D01*
X1426Y706D02*
X1435Y706D01*
X1452Y706D02*
X1458Y706D01*
X1474Y706D02*
X1479Y706D01*
X1500Y706D02*
X1505Y706D01*
X1521Y706D02*
X1526Y706D01*
X1534Y706D02*
X1540Y706D01*
X1548Y706D02*
X1553Y706D01*
X1577Y706D02*
X1592Y706D01*
X1616Y706D02*
X1622Y706D01*
X1642Y706D02*
X1647Y706D01*
X620Y705D02*
X649Y705D01*
X693Y705D02*
X699Y705D01*
X715Y705D02*
X729Y705D01*
X739Y705D02*
X745Y705D01*
X763Y705D02*
X770Y705D01*
X782Y705D02*
X794Y705D01*
X823Y705D02*
X828Y705D01*
X857Y705D02*
X868Y705D01*
X882Y705D02*
X888Y705D01*
X930Y705D02*
X936Y705D01*
X956Y705D02*
X965Y705D01*
X978Y705D02*
X983Y705D01*
X999Y705D02*
X1011Y705D01*
X1023Y705D02*
X1030Y705D01*
X1060Y705D02*
X1065Y705D01*
X1094Y705D02*
X1105Y705D01*
X1120Y705D02*
X1126Y705D01*
X1142Y705D02*
X1148Y705D01*
X1154Y705D02*
X1161Y705D01*
X1167Y705D02*
X1173Y705D01*
X1236Y705D02*
X1242Y705D01*
X1249Y705D02*
X1255Y705D01*
X1263Y705D02*
X1269Y705D01*
X1284Y705D02*
X1298Y705D01*
X1308Y705D02*
X1315Y705D01*
X1344Y705D02*
X1350Y705D01*
X1379Y705D02*
X1385Y705D01*
X1405Y705D02*
X1410Y705D01*
X1426Y705D02*
X1437Y705D01*
X1452Y705D02*
X1458Y705D01*
X1474Y705D02*
X1479Y705D01*
X1500Y705D02*
X1505Y705D01*
X1521Y705D02*
X1526Y705D01*
X1534Y705D02*
X1540Y705D01*
X1548Y705D02*
X1553Y705D01*
X1577Y705D02*
X1592Y705D01*
X1616Y705D02*
X1622Y705D01*
X1641Y705D02*
X1647Y705D01*
X620Y704D02*
X648Y704D01*
X693Y704D02*
X699Y704D01*
X715Y704D02*
X730Y704D01*
X738Y704D02*
X745Y704D01*
X763Y704D02*
X772Y704D01*
X781Y704D02*
X794Y704D01*
X822Y704D02*
X828Y704D01*
X857Y704D02*
X869Y704D01*
X881Y704D02*
X888Y704D01*
X930Y704D02*
X936Y704D01*
X954Y704D02*
X964Y704D01*
X978Y704D02*
X983Y704D01*
X999Y704D02*
X1012Y704D01*
X1021Y704D02*
X1030Y704D01*
X1060Y704D02*
X1065Y704D01*
X1094Y704D02*
X1106Y704D01*
X1118Y704D02*
X1125Y704D01*
X1142Y704D02*
X1149Y704D01*
X1153Y704D02*
X1162Y704D01*
X1166Y704D02*
X1173Y704D01*
X1236Y704D02*
X1242Y704D01*
X1249Y704D02*
X1255Y704D01*
X1263Y704D02*
X1269Y704D01*
X1284Y704D02*
X1300Y704D01*
X1307Y704D02*
X1314Y704D01*
X1344Y704D02*
X1350Y704D01*
X1379Y704D02*
X1386Y704D01*
X1403Y704D02*
X1410Y704D01*
X1426Y704D02*
X1438Y704D01*
X1450Y704D02*
X1457Y704D01*
X1474Y704D02*
X1479Y704D01*
X1500Y704D02*
X1505Y704D01*
X1521Y704D02*
X1526Y704D01*
X1534Y704D02*
X1540Y704D01*
X1548Y704D02*
X1553Y704D01*
X1578Y704D02*
X1591Y704D01*
X1616Y704D02*
X1623Y704D01*
X1640Y704D02*
X1647Y704D01*
X620Y703D02*
X625Y703D01*
X628Y703D02*
X647Y703D01*
X693Y703D02*
X699Y703D01*
X715Y703D02*
X745Y703D01*
X764Y703D02*
X794Y703D01*
X814Y703D02*
X836Y703D01*
X857Y703D02*
X888Y703D01*
X930Y703D02*
X936Y703D01*
X953Y703D02*
X962Y703D01*
X978Y703D02*
X983Y703D01*
X999Y703D02*
X1029Y703D01*
X1052Y703D02*
X1074Y703D01*
X1094Y703D02*
X1125Y703D01*
X1143Y703D02*
X1172Y703D01*
X1236Y703D02*
X1242Y703D01*
X1249Y703D02*
X1255Y703D01*
X1263Y703D02*
X1269Y703D01*
X1284Y703D02*
X1314Y703D01*
X1336Y703D02*
X1358Y703D01*
X1380Y703D02*
X1410Y703D01*
X1426Y703D02*
X1457Y703D01*
X1474Y703D02*
X1479Y703D01*
X1500Y703D02*
X1505Y703D01*
X1521Y703D02*
X1526Y703D01*
X1534Y703D02*
X1540Y703D01*
X1548Y703D02*
X1553Y703D01*
X1578Y703D02*
X1591Y703D01*
X1617Y703D02*
X1647Y703D01*
X620Y702D02*
X625Y702D01*
X629Y702D02*
X645Y702D01*
X693Y702D02*
X699Y702D01*
X715Y702D02*
X720Y702D01*
X722Y702D02*
X744Y702D01*
X765Y702D02*
X794Y702D01*
X813Y702D02*
X837Y702D01*
X857Y702D02*
X887Y702D01*
X930Y702D02*
X936Y702D01*
X952Y702D02*
X961Y702D01*
X978Y702D02*
X983Y702D01*
X999Y702D02*
X1028Y702D01*
X1050Y702D02*
X1075Y702D01*
X1094Y702D02*
X1124Y702D01*
X1143Y702D02*
X1171Y702D01*
X1236Y702D02*
X1242Y702D01*
X1249Y702D02*
X1255Y702D01*
X1263Y702D02*
X1269Y702D01*
X1284Y702D02*
X1313Y702D01*
X1335Y702D02*
X1359Y702D01*
X1380Y702D02*
X1410Y702D01*
X1426Y702D02*
X1457Y702D01*
X1474Y702D02*
X1479Y702D01*
X1500Y702D02*
X1505Y702D01*
X1521Y702D02*
X1526Y702D01*
X1534Y702D02*
X1540Y702D01*
X1548Y702D02*
X1553Y702D01*
X1578Y702D02*
X1590Y702D01*
X1617Y702D02*
X1646Y702D01*
X620Y701D02*
X625Y701D01*
X631Y701D02*
X644Y701D01*
X693Y701D02*
X699Y701D01*
X715Y701D02*
X720Y701D01*
X724Y701D02*
X744Y701D01*
X766Y701D02*
X794Y701D01*
X813Y701D02*
X838Y701D01*
X857Y701D02*
X887Y701D01*
X930Y701D02*
X936Y701D01*
X952Y701D02*
X960Y701D01*
X978Y701D02*
X983Y701D01*
X999Y701D02*
X1027Y701D01*
X1050Y701D02*
X1075Y701D01*
X1094Y701D02*
X1124Y701D01*
X1144Y701D02*
X1171Y701D01*
X1236Y701D02*
X1242Y701D01*
X1249Y701D02*
X1255Y701D01*
X1263Y701D02*
X1269Y701D01*
X1284Y701D02*
X1289Y701D01*
X1293Y701D02*
X1313Y701D01*
X1335Y701D02*
X1360Y701D01*
X1381Y701D02*
X1410Y701D01*
X1426Y701D02*
X1456Y701D01*
X1474Y701D02*
X1479Y701D01*
X1500Y701D02*
X1505Y701D01*
X1521Y701D02*
X1526Y701D01*
X1534Y701D02*
X1540Y701D01*
X1548Y701D02*
X1553Y701D01*
X1579Y701D02*
X1590Y701D01*
X1618Y701D02*
X1646Y701D01*
X620Y700D02*
X625Y700D01*
X633Y700D02*
X641Y700D01*
X693Y700D02*
X699Y700D01*
X715Y700D02*
X720Y700D01*
X725Y700D02*
X743Y700D01*
X767Y700D02*
X786Y700D01*
X788Y700D02*
X794Y700D01*
X813Y700D02*
X838Y700D01*
X857Y700D02*
X886Y700D01*
X930Y700D02*
X936Y700D01*
X952Y700D02*
X959Y700D01*
X978Y700D02*
X983Y700D01*
X999Y700D02*
X1005Y700D01*
X1007Y700D02*
X1026Y700D01*
X1050Y700D02*
X1075Y700D01*
X1094Y700D02*
X1123Y700D01*
X1144Y700D02*
X1170Y700D01*
X1236Y700D02*
X1241Y700D01*
X1249Y700D02*
X1255Y700D01*
X1263Y700D02*
X1269Y700D01*
X1284Y700D02*
X1289Y700D01*
X1295Y700D02*
X1312Y700D01*
X1335Y700D02*
X1360Y700D01*
X1382Y700D02*
X1409Y700D01*
X1426Y700D02*
X1455Y700D01*
X1474Y700D02*
X1479Y700D01*
X1500Y700D02*
X1505Y700D01*
X1521Y700D02*
X1526Y700D01*
X1534Y700D02*
X1540Y700D01*
X1548Y700D02*
X1553Y700D01*
X1579Y700D02*
X1588Y700D01*
X1619Y700D02*
X1645Y700D01*
X620Y699D02*
X625Y699D01*
X694Y699D02*
X699Y699D01*
X715Y699D02*
X720Y699D01*
X727Y699D02*
X742Y699D01*
X768Y699D02*
X784Y699D01*
X788Y699D02*
X793Y699D01*
X813Y699D02*
X838Y699D01*
X857Y699D02*
X862Y699D01*
X866Y699D02*
X885Y699D01*
X931Y699D02*
X936Y699D01*
X952Y699D02*
X958Y699D01*
X978Y699D02*
X983Y699D01*
X1000Y699D02*
X1005Y699D01*
X1009Y699D02*
X1025Y699D01*
X1050Y699D02*
X1075Y699D01*
X1094Y699D02*
X1099Y699D01*
X1103Y699D02*
X1122Y699D01*
X1145Y699D02*
X1170Y699D01*
X1236Y699D02*
X1241Y699D01*
X1250Y699D02*
X1255Y699D01*
X1263Y699D02*
X1268Y699D01*
X1284Y699D02*
X1289Y699D01*
X1296Y699D02*
X1311Y699D01*
X1335Y699D02*
X1359Y699D01*
X1383Y699D02*
X1407Y699D01*
X1426Y699D02*
X1431Y699D01*
X1435Y699D02*
X1454Y699D01*
X1474Y699D02*
X1479Y699D01*
X1500Y699D02*
X1505Y699D01*
X1521Y699D02*
X1526Y699D01*
X1534Y699D02*
X1539Y699D01*
X1548Y699D02*
X1553Y699D01*
X1580Y699D02*
X1586Y699D01*
X1620Y699D02*
X1644Y699D01*
X620Y698D02*
X625Y698D01*
X694Y698D02*
X698Y698D01*
X716Y698D02*
X719Y698D01*
X729Y698D02*
X740Y698D01*
X770Y698D02*
X782Y698D01*
X789Y698D02*
X793Y698D01*
X814Y698D02*
X837Y698D01*
X858Y698D02*
X862Y698D01*
X867Y698D02*
X883Y698D01*
X931Y698D02*
X935Y698D01*
X953Y698D02*
X957Y698D01*
X979Y698D02*
X982Y698D01*
X1000Y698D02*
X1004Y698D01*
X1010Y698D02*
X1023Y698D01*
X1051Y698D02*
X1074Y698D01*
X1095Y698D02*
X1099Y698D01*
X1105Y698D02*
X1120Y698D01*
X1146Y698D02*
X1156Y698D01*
X1159Y698D02*
X1169Y698D01*
X1237Y698D02*
X1241Y698D01*
X1250Y698D02*
X1254Y698D01*
X1264Y698D02*
X1268Y698D01*
X1285Y698D02*
X1288Y698D01*
X1298Y698D02*
X1309Y698D01*
X1336Y698D02*
X1359Y698D01*
X1384Y698D02*
X1405Y698D01*
X1427Y698D02*
X1431Y698D01*
X1437Y698D02*
X1452Y698D01*
X1475Y698D02*
X1478Y698D01*
X1501Y698D02*
X1504Y698D01*
X1522Y698D02*
X1525Y698D01*
X1535Y698D02*
X1539Y698D01*
X1549Y698D02*
X1552Y698D01*
X1580Y698D02*
X1586Y698D01*
X1621Y698D02*
X1642Y698D01*
X620Y697D02*
X625Y697D01*
X733Y697D02*
X736Y697D01*
X774Y697D02*
X779Y697D01*
X816Y697D02*
X835Y697D01*
X870Y697D02*
X879Y697D01*
X1014Y697D02*
X1019Y697D01*
X1053Y697D02*
X1072Y697D01*
X1107Y697D02*
X1116Y697D01*
X1148Y697D02*
X1154Y697D01*
X1161Y697D02*
X1167Y697D01*
X1302Y697D02*
X1305Y697D01*
X1338Y697D02*
X1357Y697D01*
X1388Y697D02*
X1401Y697D01*
X1439Y697D02*
X1449Y697D01*
X1581Y697D02*
X1587Y697D01*
X1625Y697D02*
X1638Y697D01*
X620Y696D02*
X625Y696D01*
X1581Y696D02*
X1587Y696D01*
X620Y695D02*
X625Y695D01*
X1581Y695D02*
X1588Y695D01*
X620Y694D02*
X626Y694D01*
X1582Y694D02*
X1588Y694D01*
X620Y693D02*
X626Y693D01*
X1582Y693D02*
X1589Y693D01*
X620Y692D02*
X627Y692D01*
X1583Y692D02*
X1589Y692D01*
X621Y691D02*
X628Y691D01*
X1583Y691D02*
X1590Y691D01*
X621Y690D02*
X630Y690D01*
X1584Y690D02*
X1590Y690D01*
X622Y689D02*
X647Y689D01*
X1584Y689D02*
X1599Y689D01*
X623Y688D02*
X648Y688D01*
X1585Y688D02*
X1600Y688D01*
X624Y687D02*
X648Y687D01*
X1585Y687D02*
X1600Y687D01*
X625Y686D02*
X648Y686D01*
X1585Y686D02*
X1600Y686D01*
X626Y685D02*
X648Y685D01*
X1586Y685D02*
X1600Y685D01*
X628Y684D02*
X647Y684D01*
X1587Y684D02*
X1599Y684D01*
D02*
G04 End of Silk0*
M02*