G04 MADE WITH FRITZING*
G04 WWW.FRITZING.ORG*
G04 DOUBLE SIDED*
G04 HOLES PLATED*
G04 CONTOUR ON CENTER OF CONTOUR VECTOR*
%ASAXBY*%
%FSLAX23Y23*%
%MOIN*%
%OFA0B0*%
%SFA1.0B1.0*%
%ADD10C,0.096614*%
%ADD11C,0.077559*%
%LNMASK1*%
G90*
G70*
G54D10*
X1904Y1539D03*
X1809Y237D03*
G54D11*
X2209Y1689D03*
X2109Y1689D03*
X2009Y1689D03*
X1909Y1689D03*
X1809Y1689D03*
X1709Y1689D03*
X1609Y1689D03*
X1509Y1689D03*
X1409Y1689D03*
X1309Y1689D03*
X1209Y1689D03*
X1109Y1689D03*
X1009Y1689D03*
X909Y1689D03*
X809Y1689D03*
X709Y1689D03*
X609Y1689D03*
X509Y1689D03*
X409Y1689D03*
X309Y1689D03*
X209Y1689D03*
X109Y1689D03*
X2209Y1389D03*
X2109Y1389D03*
X2009Y1389D03*
X1909Y1389D03*
X1809Y1389D03*
X1709Y1389D03*
X1609Y1389D03*
X1509Y1389D03*
X1409Y1389D03*
X1309Y1389D03*
X1209Y1389D03*
X1109Y1389D03*
X1009Y1389D03*
X909Y1389D03*
X809Y1389D03*
X709Y1389D03*
X609Y1389D03*
X509Y1389D03*
X409Y1389D03*
X2209Y89D03*
X2109Y89D03*
X2009Y89D03*
X1909Y89D03*
X1809Y89D03*
X1709Y89D03*
X1609Y89D03*
X1509Y89D03*
X1409Y89D03*
X1309Y89D03*
X1209Y89D03*
X1109Y89D03*
X1009Y89D03*
X909Y89D03*
X809Y89D03*
X709Y89D03*
X609Y89D03*
X509Y89D03*
X409Y89D03*
X309Y89D03*
X209Y89D03*
X109Y89D03*
X2209Y389D03*
X2109Y389D03*
X2009Y389D03*
X1909Y389D03*
X1809Y389D03*
X1709Y389D03*
X1609Y389D03*
X1509Y389D03*
X1409Y389D03*
X1309Y389D03*
X1209Y389D03*
X1109Y389D03*
X1009Y389D03*
X909Y389D03*
X809Y389D03*
X709Y389D03*
X609Y389D03*
X509Y389D03*
X409Y389D03*
X209Y589D03*
X209Y689D03*
X209Y789D03*
X209Y889D03*
X209Y989D03*
X209Y1089D03*
X209Y1189D03*
X209Y1289D03*
G54D10*
X95Y1398D03*
X195Y421D03*
G04 End of Mask1*
M02*