; NON-PLATED HOLES START AT T1
; THROUGH (PLATED) HOLES START AT T100
M48
INCH
T1C0.086614
T100C0.027559
%
T1
X001952Y004207
X019043Y015388
X018088Y002366
X000952Y013980
T100
X021088Y016889
X002088Y012889
X022088Y003889
X015088Y016889
X009088Y000889
X018088Y003889
X016088Y013889
X010088Y013889
X014088Y016889
X002088Y011889
X012088Y013889
X007088Y003889
X017088Y013889
X008088Y013889
X020088Y013889
X006088Y000889
X013088Y016889
X021088Y000889
X015088Y000889
X020088Y000889
X002088Y008889
X003088Y000889
X004088Y013889
X015088Y003889
X022088Y013889
X022088Y000889
X019088Y016889
X019088Y000889
X014088Y003889
X002088Y016889
X010088Y000889
X014088Y000889
X002088Y009889
X018088Y000889
X007088Y016889
X017088Y016889
X012088Y003889
X002088Y007889
X005088Y003889
X007088Y013889
X020088Y016889
X013088Y013889
X008088Y000889
X018088Y013889
X010088Y003889
X006088Y016889
X002088Y005889
X012088Y016889
X012088Y000889
X020088Y003889
X015088Y013889
X005088Y016889
X002088Y010889
X003088Y016889
X009088Y016889
X001088Y000889
X004088Y000889
X008088Y003889
X019088Y013889
X011088Y003889
X013088Y000889
X014088Y013889
X009088Y013889
X002088Y000889
X021088Y013889
X022088Y016889
X005088Y013889
X011088Y000889
X009088Y003889
X005088Y000889
X013088Y003889
X011088Y013889
X007088Y000889
X019088Y003889
X010088Y016889
X017088Y003889
X011088Y016889
X002088Y006889
X004088Y016889
X008088Y016889
X006088Y013889
X004088Y003889
X017088Y000889
X018088Y016889
X021088Y003889
X006088Y003889
X016088Y016889
X016088Y000889
X016088Y003889
X001088Y016889
T00
M30
