<svg xmlns="http://www.w3.org/2000/svg" width="1000mm" height="1000mm" viewBox="0 0 1000 1000"><circle cx="8.33882" cy="2.3647400000000003" r="1.02" fill="black" />
<circle cx="36.278819999999996" cy="50.62474" r="1.02" fill="black" />
<circle cx="33.74136" cy="2.3647400000000003" r="1.02" fill="black" />
<circle cx="26.11882" cy="2.3647400000000003" r="1.02" fill="black" />
<circle cx="23.57882" cy="50.62474" r="1.02" fill="black" />
<circle cx="14.43482" cy="50.62474" r="1.02" fill="black" />
<circle cx="21.038819999999998" cy="2.3647400000000003" r="1.02" fill="black" />
<circle cx="15.958820000000001" cy="2.3647400000000003" r="1.02" fill="black" />
<circle cx="33.74136" cy="50.62474" r="1.02" fill="black" />
<circle cx="16.97482" cy="50.62474" r="1.02" fill="black" />
<circle cx="10.878820000000001" cy="2.3647400000000003" r="1.02" fill="black" />
<circle cx="6.81482" cy="50.62474" r="1.02" fill="black" />
<circle cx="31.198819999999998" cy="50.62474" r="1.02" fill="black" />
<circle cx="36.278819999999996" cy="2.3647400000000003" r="1.02" fill="black" />
<circle cx="28.65882" cy="2.3647400000000003" r="1.02" fill="black" />
<circle cx="3.25882" cy="2.3647400000000003" r="1.02" fill="black" />
<circle cx="11.89482" cy="50.62474" r="1.02" fill="black" />
<circle cx="38.81882" cy="50.62474" r="1.02" fill="black" />
<circle cx="31.198819999999998" cy="2.3647400000000003" r="1.02" fill="black" />
<circle cx="4.27482" cy="50.62474" r="1.02" fill="black" />
<circle cx="18.498820000000002" cy="2.3647400000000003" r="1.02" fill="black" />
<circle cx="1.7348200000000003" cy="50.62474" r="1.02" fill="black" />
<circle cx="5.79882" cy="2.3647400000000003" r="1.02" fill="black" />
<circle cx="9.35482" cy="50.62474" r="1.02" fill="black" />
<circle cx="21.038819999999998" cy="50.62474" r="1.02" fill="black" />
<circle cx="26.11882" cy="50.62474" r="1.02" fill="black" />
<circle cx="28.65882" cy="50.62474" r="1.02" fill="black" />
<circle cx="13.418820000000002" cy="2.3647400000000003" r="1.02" fill="black" />
<circle cx="38.81882" cy="2.3647400000000003" r="1.02" fill="black" />
<circle cx="28.75026" cy="37.269420000000004" r="0.96" fill="black" />
<circle cx="9.31418" cy="37.27196" r="0.96" fill="black" />
<circle cx="5.6642" cy="10.187940000000001" r="0.96" fill="black" />
<circle cx="28.79852" cy="30.617160000000002" r="0.96" fill="black" />
<circle cx="14.39418" cy="37.27196" r="0.96" fill="black" />
<circle cx="25.91308" cy="17.99336" r="0.96" fill="black" />
<circle cx="28.45308" cy="17.99336" r="0.96" fill="black" />
<circle cx="36.21532" cy="7.747" r="0.96" fill="black" />
<circle cx="26.05532" cy="7.747" r="0.96" fill="black" />
<circle cx="33.6042" cy="13.08354" r="0.96" fill="black" />
<circle cx="38.75532" cy="7.747" r="0.96" fill="black" />
<circle cx="30.99308" cy="17.99336" r="0.96" fill="black" />
<circle cx="11.93038" cy="43.26636" r="0.96" fill="black" />
<circle cx="26.21026" cy="37.269420000000004" r="0.96" fill="black" />
<circle cx="4.34086" cy="30.68574" r="0.96" fill="black" />
<circle cx="6.88086" cy="30.68574" r="0.96" fill="black" />
<circle cx="23.51532" cy="43.26636" r="0.96" fill="black" />
<circle cx="9.39038" cy="43.26636" r="0.96" fill="black" />
<circle cx="31.290260000000004" cy="37.269420000000004" r="0.96" fill="black" />
<circle cx="4.23418" cy="37.27196" r="0.96" fill="black" />
<circle cx="16.93418" cy="37.27196" r="0.96" fill="black" />
<circle cx="33.67532" cy="43.26636" r="0.96" fill="black" />
<circle cx="23.718519999999998" cy="30.617160000000002" r="0.96" fill="black" />
<circle cx="25.9842" cy="13.08354" r="0.96" fill="black" />
<circle cx="31.135319999999997" cy="43.26636" r="0.96" fill="black" />
<circle cx="11.85418" cy="37.27196" r="0.96" fill="black" />
<circle cx="17.01038" cy="43.26636" r="0.96" fill="black" />
<circle cx="28.595319999999997" cy="7.747" r="0.96" fill="black" />
<circle cx="20.975319999999996" cy="43.26636" r="0.96" fill="black" />
<circle cx="26.258519999999997" cy="30.617160000000002" r="0.96" fill="black" />
<circle cx="6.85038" cy="43.26636" r="0.96" fill="black" />
<circle cx="21.17852" cy="30.617160000000002" r="0.96" fill="black" />
<circle cx="14.50086" cy="30.68574" r="0.96" fill="black" />
<circle cx="36.07308" cy="17.99336" r="0.96" fill="black" />
<circle cx="8.2042" cy="10.187940000000001" r="0.96" fill="black" />
<circle cx="10.744200000000001" cy="10.187940000000001" r="0.96" fill="black" />
<circle cx="31.135319999999997" cy="7.747" r="0.96" fill="black" />
<circle cx="33.87852" cy="30.617160000000002" r="0.96" fill="black" />
<circle cx="31.33852" cy="30.617160000000002" r="0.96" fill="black" />
<circle cx="26.05532" cy="43.26636" r="0.96" fill="black" />
<circle cx="28.5242" cy="13.08354" r="0.96" fill="black" />
<circle cx="33.53308" cy="17.99336" r="0.96" fill="black" />
<circle cx="33.83026" cy="37.269420000000004" r="0.96" fill="black" />
<circle cx="23.670260000000003" cy="37.269420000000004" r="0.96" fill="black" />
<circle cx="33.67532" cy="7.747" r="0.96" fill="black" />
<circle cx="36.144200000000005" cy="13.08354" r="0.96" fill="black" />
<circle cx="38.684200000000004" cy="13.08354" r="0.96" fill="black" />
<circle cx="31.064200000000003" cy="13.08354" r="0.96" fill="black" />
<circle cx="6.774179999999999" cy="37.27196" r="0.96" fill="black" />
<circle cx="17.04086" cy="30.68574" r="0.96" fill="black" />
<circle cx="38.613080000000004" cy="17.99336" r="0.96" fill="black" />
<circle cx="28.595319999999997" cy="43.26636" r="0.96" fill="black" />
<circle cx="9.420860000000001" cy="30.68574" r="0.96" fill="black" />
<circle cx="4.31038" cy="43.26636" r="0.96" fill="black" />
<circle cx="3.1242" cy="10.187940000000001" r="0.96" fill="black" />
<circle cx="11.960859999999998" cy="30.68574" r="0.96" fill="black" />
<circle cx="21.130260000000003" cy="37.269420000000004" r="0.96" fill="black" />
<circle cx="14.47038" cy="43.26636" r="0.96" fill="black" /></svg>